<?xml version="1.0" encoding="utf-8" standalone="no"?>
<!DOCTYPE svg PUBLIC "-//W3C//DTD SVG 1.1//EN"
  "http://www.w3.org/Graphics/SVG/1.1/DTD/svg11.dtd">
<svg xmlns:xlink="http://www.w3.org/1999/xlink" width="460.8pt" height="345.6pt" viewBox="0 0 460.8 345.6" xmlns="http://www.w3.org/2000/svg" version="1.1">
 <metadata>
  <rdf:RDF xmlns:dc="http://purl.org/dc/elements/1.1/" xmlns:cc="http://creativecommons.org/ns#" xmlns:rdf="http://www.w3.org/1999/02/22-rdf-syntax-ns#">
   <cc:Work>
    <dc:type rdf:resource="http://purl.org/dc/dcmitype/StillImage"/>
    <dc:date>2024-05-09T17:27:27.272786</dc:date>
    <dc:format>image/svg+xml</dc:format>
    <dc:creator>
     <cc:Agent>
      <dc:title>Matplotlib v3.8.4, https://matplotlib.org/</dc:title>
     </cc:Agent>
    </dc:creator>
   </cc:Work>
  </rdf:RDF>
 </metadata>
 <defs>
  <style type="text/css">*{stroke-linejoin: round; stroke-linecap: butt}</style>
 </defs>
 <g id="figure_1">
  <g id="patch_1">
   <path d="M 0 345.6 
L 460.8 345.6 
L 460.8 0 
L 0 0 
L 0 345.6 
z
" style="fill: none"/>
  </g>
  <g id="axes_1">
   <g id="patch_2">
    <path d="M 94.996875 289.4925 
L 365.803125 289.4925 
L 365.803125 18.68625 
L 94.996875 18.68625 
L 94.996875 289.4925 
z
" style="fill: none"/>
   </g>
   <g id="matplotlib.axis_1">
    <g id="xtick_1">
     <g id="line2d_1">
      <defs>
       <path id="m44a7200362" d="M 0 0 
L 0 6 
" style="stroke: #262626; stroke-width: 1.25"/>
      </defs>
      <g>
       <use xlink:href="#m44a7200362" x="94.996875" y="289.4925" style="fill: #262626; stroke: #262626; stroke-width: 1.25"/>
      </g>
     </g>
     <g id="text_1">
      <text style="fill: #262626; font: 16px 'Arial', 'DejaVu Sans', 'Liberation Sans', 'Bitstream Vera Sans', sans-serif; text-anchor: middle" x="94.996875" y="310.445" transform="rotate(-0 94.996875 310.445)">0</text>
     </g>
    </g>
    <g id="xtick_2">
     <g id="line2d_2">
      <g>
       <use xlink:href="#m44a7200362" x="140.13125" y="289.4925" style="fill: #262626; stroke: #262626; stroke-width: 1.25"/>
      </g>
     </g>
     <g id="text_2">
      <text style="fill: #262626; font: 16px 'Arial', 'DejaVu Sans', 'Liberation Sans', 'Bitstream Vera Sans', sans-serif; text-anchor: middle" x="140.13125" y="310.445" transform="rotate(-0 140.13125 310.445)">60</text>
     </g>
    </g>
    <g id="xtick_3">
     <g id="line2d_3">
      <g>
       <use xlink:href="#m44a7200362" x="185.265625" y="289.4925" style="fill: #262626; stroke: #262626; stroke-width: 1.25"/>
      </g>
     </g>
     <g id="text_3">
      <text style="fill: #262626; font: 16px 'Arial', 'DejaVu Sans', 'Liberation Sans', 'Bitstream Vera Sans', sans-serif; text-anchor: middle" x="185.265625" y="310.445" transform="rotate(-0 185.265625 310.445)">120</text>
     </g>
    </g>
    <g id="xtick_4">
     <g id="line2d_4">
      <g>
       <use xlink:href="#m44a7200362" x="230.4" y="289.4925" style="fill: #262626; stroke: #262626; stroke-width: 1.25"/>
      </g>
     </g>
     <g id="text_4">
      <text style="fill: #262626; font: 16px 'Arial', 'DejaVu Sans', 'Liberation Sans', 'Bitstream Vera Sans', sans-serif; text-anchor: middle" x="230.4" y="310.445" transform="rotate(-0 230.4 310.445)">180</text>
     </g>
    </g>
    <g id="xtick_5">
     <g id="line2d_5">
      <g>
       <use xlink:href="#m44a7200362" x="275.534375" y="289.4925" style="fill: #262626; stroke: #262626; stroke-width: 1.25"/>
      </g>
     </g>
     <g id="text_5">
      <text style="fill: #262626; font: 16px 'Arial', 'DejaVu Sans', 'Liberation Sans', 'Bitstream Vera Sans', sans-serif; text-anchor: middle" x="275.534375" y="310.445" transform="rotate(-0 275.534375 310.445)">240</text>
     </g>
    </g>
    <g id="xtick_6">
     <g id="line2d_6">
      <g>
       <use xlink:href="#m44a7200362" x="320.66875" y="289.4925" style="fill: #262626; stroke: #262626; stroke-width: 1.25"/>
      </g>
     </g>
     <g id="text_6">
      <text style="fill: #262626; font: 16px 'Arial', 'DejaVu Sans', 'Liberation Sans', 'Bitstream Vera Sans', sans-serif; text-anchor: middle" x="320.66875" y="310.445" transform="rotate(-0 320.66875 310.445)">300</text>
     </g>
    </g>
    <g id="xtick_7">
     <g id="line2d_7">
      <g>
       <use xlink:href="#m44a7200362" x="365.803125" y="289.4925" style="fill: #262626; stroke: #262626; stroke-width: 1.25"/>
      </g>
     </g>
     <g id="text_7">
      <text style="fill: #262626; font: 16px 'Arial', 'DejaVu Sans', 'Liberation Sans', 'Bitstream Vera Sans', sans-serif; text-anchor: middle" x="365.803125" y="310.445" transform="rotate(-0 365.803125 310.445)">360</text>
     </g>
    </g>
    <g id="text_8">
     <text style="fill: #262626; font: 16px 'Arial', 'DejaVu Sans', 'Liberation Sans', 'Bitstream Vera Sans', sans-serif; text-anchor: middle" x="230.4" y="329.2725" transform="rotate(-0 230.4 329.2725)">Time since vaccination (days)</text>
    </g>
   </g>
   <g id="matplotlib.axis_2">
    <g id="ytick_1">
     <g id="line2d_8">
      <defs>
       <path id="mb15e3db4e1" d="M 0 0 
L -6 0 
" style="stroke: #262626; stroke-width: 1.25"/>
      </defs>
      <g>
       <use xlink:href="#mb15e3db4e1" x="94.996875" y="289.4925" style="fill: #262626; stroke: #262626; stroke-width: 1.25"/>
      </g>
     </g>
     <g id="text_9">
      <text style="fill: #262626; font: 16px 'Arial', 'DejaVu Sans', 'Liberation Sans', 'Bitstream Vera Sans', sans-serif; text-anchor: end" x="85.496875" y="295.21875" transform="rotate(-0 85.496875 295.21875)">0.0</text>
     </g>
    </g>
    <g id="ytick_2">
     <g id="line2d_9">
      <g>
       <use xlink:href="#mb15e3db4e1" x="94.996875" y="235.33125" style="fill: #262626; stroke: #262626; stroke-width: 1.25"/>
      </g>
     </g>
     <g id="text_10">
      <text style="fill: #262626; font: 16px 'Arial', 'DejaVu Sans', 'Liberation Sans', 'Bitstream Vera Sans', sans-serif; text-anchor: end" x="85.496875" y="241.0575" transform="rotate(-0 85.496875 241.0575)">0.2</text>
     </g>
    </g>
    <g id="ytick_3">
     <g id="line2d_10">
      <g>
       <use xlink:href="#mb15e3db4e1" x="94.996875" y="181.17" style="fill: #262626; stroke: #262626; stroke-width: 1.25"/>
      </g>
     </g>
     <g id="text_11">
      <text style="fill: #262626; font: 16px 'Arial', 'DejaVu Sans', 'Liberation Sans', 'Bitstream Vera Sans', sans-serif; text-anchor: end" x="85.496875" y="186.89625" transform="rotate(-0 85.496875 186.89625)">0.4</text>
     </g>
    </g>
    <g id="ytick_4">
     <g id="line2d_11">
      <g>
       <use xlink:href="#mb15e3db4e1" x="94.996875" y="127.00875" style="fill: #262626; stroke: #262626; stroke-width: 1.25"/>
      </g>
     </g>
     <g id="text_12">
      <text style="fill: #262626; font: 16px 'Arial', 'DejaVu Sans', 'Liberation Sans', 'Bitstream Vera Sans', sans-serif; text-anchor: end" x="85.496875" y="132.735" transform="rotate(-0 85.496875 132.735)">0.6</text>
     </g>
    </g>
    <g id="ytick_5">
     <g id="line2d_12">
      <g>
       <use xlink:href="#mb15e3db4e1" x="94.996875" y="72.8475" style="fill: #262626; stroke: #262626; stroke-width: 1.25"/>
      </g>
     </g>
     <g id="text_13">
      <text style="fill: #262626; font: 16px 'Arial', 'DejaVu Sans', 'Liberation Sans', 'Bitstream Vera Sans', sans-serif; text-anchor: end" x="85.496875" y="78.57375" transform="rotate(-0 85.496875 78.57375)">0.8</text>
     </g>
    </g>
    <g id="ytick_6">
     <g id="line2d_13">
      <g>
       <use xlink:href="#mb15e3db4e1" x="94.996875" y="18.68625" style="fill: #262626; stroke: #262626; stroke-width: 1.25"/>
      </g>
     </g>
     <g id="text_14">
      <text style="fill: #262626; font: 16px 'Arial', 'DejaVu Sans', 'Liberation Sans', 'Bitstream Vera Sans', sans-serif; text-anchor: end" x="85.496875" y="24.4125" transform="rotate(-0 85.496875 24.4125)">1.0</text>
     </g>
    </g>
    <g id="text_15">
     <text style="fill: #262626; font: 16px 'Arial', 'DejaVu Sans', 'Liberation Sans', 'Bitstream Vera Sans', sans-serif; text-anchor: middle" x="55.889375" y="154.089375" transform="rotate(-90 55.889375 154.089375)">Relative susceptibility</text>
    </g>
   </g>
   <g id="line2d_14">
    <path d="M 94.996875 18.68625 
L 98.005833 18.68625 
L 98.758073 264.855364 
L 99.510313 274.451189 
L 100.262552 276.642213 
L 101.014792 277.333793 
L 101.767031 277.545879 
L 103.27151 277.520388 
L 107.032708 277.023272 
L 116.059583 275.583083 
L 134.113333 271.844654 
L 138.626771 270.731373 
L 149.910365 267.455854 
L 158.93724 264.340829 
L 164.202917 262.24907 
L 168.716354 260.311416 
L 172.477552 258.613802 
L 176.23875 256.778635 
L 185.265625 251.906439 
L 189.779063 249.139046 
L 192.788021 247.234777 
L 196.549219 244.738921 
L 202.567135 240.362136 
L 208.585052 235.656641 
L 213.09849 231.783554 
L 219.116406 226.341443 
L 222.125365 223.479787 
L 225.886563 219.70498 
L 229.64776 215.841601 
L 234.161198 210.998623 
L 236.417917 208.395985 
L 238.674635 205.809679 
L 241.683594 202.313296 
L 246.197031 196.828623 
L 249.20599 193.105922 
L 253.719427 187.377458 
L 255.976146 184.474824 
L 261.241823 177.44326 
L 262.746302 175.379228 
L 272.525417 161.98016 
L 274.782135 158.766979 
L 277.791094 154.565713 
L 282.304531 148.127101 
L 283.80901 146.056463 
L 285.31349 143.906469 
L 286.817969 141.803074 
L 289.826927 137.562486 
L 298.853802 125.104573 
L 300.358281 123.070841 
L 303.36724 119.005999 
L 310.137396 110.201669 
L 314.650833 104.424424 
L 316.907552 101.652708 
L 322.925469 94.472529 
L 325.182187 91.869832 
L 334.209062 82.082443 
L 344.740417 71.778019 
L 348.501615 68.462409 
L 350.758333 66.520401 
L 355.271771 62.775957 
L 365.050885 55.584458 
L 365.050885 55.584458 
" clip-path="url(#p5a9de8ccf9)" style="fill: none; stroke: #4c72b0; stroke-width: 2; stroke-linecap: round"/>
   </g>
   <g id="patch_3">
    <path d="M 94.996875 289.4925 
L 94.996875 18.68625 
" style="fill: none; stroke: #262626; stroke-width: 1.25; stroke-linejoin: miter; stroke-linecap: square"/>
   </g>
   <g id="patch_4">
    <path d="M 94.996875 289.4925 
L 365.803125 289.4925 
" style="fill: none; stroke: #262626; stroke-width: 1.25; stroke-linejoin: miter; stroke-linecap: square"/>
   </g>
  </g>
 </g>
 <defs>
  <clipPath id="p5a9de8ccf9">
   <rect x="94.996875" y="18.68625" width="270.80625" height="270.80625"/>
  </clipPath>
 </defs>
</svg>
