<?xml version="1.0" encoding="utf-8" standalone="no"?>
<!DOCTYPE svg PUBLIC "-//W3C//DTD SVG 1.1//EN"
  "http://www.w3.org/Graphics/SVG/1.1/DTD/svg11.dtd">
<svg xmlns:xlink="http://www.w3.org/1999/xlink" width="432pt" height="432pt" viewBox="0 0 432 432" xmlns="http://www.w3.org/2000/svg" version="1.1">
 <metadata>
  <rdf:RDF xmlns:dc="http://purl.org/dc/elements/1.1/" xmlns:cc="http://creativecommons.org/ns#" xmlns:rdf="http://www.w3.org/1999/02/22-rdf-syntax-ns#">
   <cc:Work>
    <dc:type rdf:resource="http://purl.org/dc/dcmitype/StillImage"/>
    <dc:date>2025-08-08T15:46:09.396037</dc:date>
    <dc:format>image/svg+xml</dc:format>
    <dc:creator>
     <cc:Agent>
      <dc:title>Matplotlib v3.10.3, https://matplotlib.org/</dc:title>
     </cc:Agent>
    </dc:creator>
   </cc:Work>
  </rdf:RDF>
 </metadata>
 <defs>
  <style type="text/css">*{stroke-linejoin: round; stroke-linecap: butt}</style>
 </defs>
 <g id="figure_1">
  <g id="patch_1">
   <path d="M 0 432 
L 432 432 
L 432 0 
L 0 0 
L 0 432 
z
" style="fill: none"/>
  </g>
  <g id="axes_1">
   <g id="patch_2">
    <path d="M 86.4 345.6 
L 345.6 345.6 
L 345.6 86.4 
L 86.4 86.4 
L 86.4 345.6 
z
" style="fill: none"/>
   </g>
   <g id="matplotlib.axis_1">
    <g id="xtick_1">
     <g id="line2d_1">
      <defs>
       <path id="m145b971148" d="M 0 0 
L 0 6 
" style="stroke: #262626; stroke-width: 1.25"/>
      </defs>
      <g>
       <use xlink:href="#m145b971148" x="86.4" y="345.6" style="fill: #262626; stroke: #262626; stroke-width: 1.25"/>
      </g>
     </g>
     <g id="text_1">
      <text style="font-size: 16px; font-family: 'Arial', sans-serif; text-anchor: middle; fill: #262626" x="86.4" y="366.5525" transform="rotate(-0 86.4 366.5525)">0</text>
     </g>
    </g>
    <g id="xtick_2">
     <g id="line2d_2">
      <g>
       <use xlink:href="#m145b971148" x="172.8" y="345.6" style="fill: #262626; stroke: #262626; stroke-width: 1.25"/>
      </g>
     </g>
     <g id="text_2">
      <text style="font-size: 16px; font-family: 'Arial', sans-serif; text-anchor: middle; fill: #262626" x="172.8" y="366.5525" transform="rotate(-0 172.8 366.5525)">1</text>
     </g>
    </g>
    <g id="xtick_3">
     <g id="line2d_3">
      <g>
       <use xlink:href="#m145b971148" x="259.2" y="345.6" style="fill: #262626; stroke: #262626; stroke-width: 1.25"/>
      </g>
     </g>
     <g id="text_3">
      <text style="font-size: 16px; font-family: 'Arial', sans-serif; text-anchor: middle; fill: #262626" x="259.2" y="366.5525" transform="rotate(-0 259.2 366.5525)">2</text>
     </g>
    </g>
    <g id="xtick_4">
     <g id="line2d_4">
      <g>
       <use xlink:href="#m145b971148" x="345.6" y="345.6" style="fill: #262626; stroke: #262626; stroke-width: 1.25"/>
      </g>
     </g>
     <g id="text_4">
      <text style="font-size: 16px; font-family: 'Arial', sans-serif; text-anchor: middle; fill: #262626" x="345.6" y="366.5525" transform="rotate(-0 345.6 366.5525)">3</text>
     </g>
    </g>
    <g id="text_5">
     <!-- Relative individual infectiousness, $\alpha$ -->
     <g style="fill: #262626" transform="translate(88.88 385.185)">
      <text>
       <tspan x="0" y="-0.34375" style="font-size: 16px; font-family: 'Arial'; fill: #262626">R</tspan>
       <tspan x="11.554688" y="-0.34375" style="font-size: 16px; font-family: 'Arial'; fill: #262626">e</tspan>
       <tspan x="20.453125" y="-0.34375" style="font-size: 16px; font-family: 'Arial'; fill: #262626">l</tspan>
       <tspan x="24.007812" y="-0.34375" style="font-size: 16px; font-family: 'Arial'; fill: #262626">a</tspan>
       <tspan x="32.90625" y="-0.34375" style="font-size: 16px; font-family: 'Arial'; fill: #262626">t</tspan>
       <tspan x="37.351562" y="-0.34375" style="font-size: 16px; font-family: 'Arial'; fill: #262626">i</tspan>
       <tspan x="40.90625" y="-0.34375" style="font-size: 16px; font-family: 'Arial'; fill: #262626">v</tspan>
       <tspan x="48.90625" y="-0.34375" style="font-size: 16px; font-family: 'Arial'; fill: #262626">e</tspan>
       <tspan x="57.804688" y="-0.34375" style="font-size: 16px; font-family: 'Arial'; fill: #262626"> </tspan>
       <tspan x="62.25" y="-0.34375" style="font-size: 16px; font-family: 'Arial'; fill: #262626">i</tspan>
       <tspan x="65.804688" y="-0.34375" style="font-size: 16px; font-family: 'Arial'; fill: #262626">n</tspan>
       <tspan x="74.703125" y="-0.34375" style="font-size: 16px; font-family: 'Arial'; fill: #262626">d</tspan>
       <tspan x="83.601562" y="-0.34375" style="font-size: 16px; font-family: 'Arial'; fill: #262626">i</tspan>
       <tspan x="87.15625" y="-0.34375" style="font-size: 16px; font-family: 'Arial'; fill: #262626">v</tspan>
       <tspan x="95.15625" y="-0.34375" style="font-size: 16px; font-family: 'Arial'; fill: #262626">i</tspan>
       <tspan x="98.710938" y="-0.34375" style="font-size: 16px; font-family: 'Arial'; fill: #262626">d</tspan>
       <tspan x="107.609375" y="-0.34375" style="font-size: 16px; font-family: 'Arial'; fill: #262626">u</tspan>
       <tspan x="116.507812" y="-0.34375" style="font-size: 16px; font-family: 'Arial'; fill: #262626">a</tspan>
       <tspan x="125.40625" y="-0.34375" style="font-size: 16px; font-family: 'Arial'; fill: #262626">l</tspan>
       <tspan x="128.960938" y="-0.34375" style="font-size: 16px; font-family: 'Arial'; fill: #262626"> </tspan>
       <tspan x="133.40625" y="-0.34375" style="font-size: 16px; font-family: 'Arial'; fill: #262626">i</tspan>
       <tspan x="136.960938" y="-0.34375" style="font-size: 16px; font-family: 'Arial'; fill: #262626">n</tspan>
       <tspan x="145.859375" y="-0.34375" style="font-size: 16px; font-family: 'Arial'; fill: #262626">f</tspan>
       <tspan x="150.304688" y="-0.34375" style="font-size: 16px; font-family: 'Arial'; fill: #262626">e</tspan>
       <tspan x="159.203125" y="-0.34375" style="font-size: 16px; font-family: 'Arial'; fill: #262626">c</tspan>
       <tspan x="167.203125" y="-0.34375" style="font-size: 16px; font-family: 'Arial'; fill: #262626">t</tspan>
       <tspan x="171.648438" y="-0.34375" style="font-size: 16px; font-family: 'Arial'; fill: #262626">i</tspan>
       <tspan x="175.203125" y="-0.34375" style="font-size: 16px; font-family: 'Arial'; fill: #262626">o</tspan>
       <tspan x="184.101562" y="-0.34375" style="font-size: 16px; font-family: 'Arial'; fill: #262626">u</tspan>
       <tspan x="193" y="-0.34375" style="font-size: 16px; font-family: 'Arial'; fill: #262626">s</tspan>
       <tspan x="201" y="-0.34375" style="font-size: 16px; font-family: 'Arial'; fill: #262626">n</tspan>
       <tspan x="209.898438" y="-0.34375" style="font-size: 16px; font-family: 'Arial'; fill: #262626">e</tspan>
       <tspan x="218.796875" y="-0.34375" style="font-size: 16px; font-family: 'Arial'; fill: #262626">s</tspan>
       <tspan x="226.796875" y="-0.34375" style="font-size: 16px; font-family: 'Arial'; fill: #262626">s</tspan>
       <tspan x="234.796875" y="-0.34375" style="font-size: 16px; font-family: 'Arial'; fill: #262626">,</tspan>
       <tspan x="239.242188" y="-0.34375" style="font-size: 16px; font-family: 'Arial'; fill: #262626"> </tspan>
       <tspan x="243.6875" y="-0.34375" style="font-style: oblique; font-size: 16px; font-family: 'DejaVu Sans'; fill: #262626">α</tspan>
      </text>
     </g>
    </g>
   </g>
   <g id="matplotlib.axis_2">
    <g id="ytick_1">
     <g id="line2d_5">
      <defs>
       <path id="m9fab4f7460" d="M 0 0 
L -6 0 
" style="stroke: #262626; stroke-width: 1.25"/>
      </defs>
      <g>
       <use xlink:href="#m9fab4f7460" x="86.4" y="345.6" style="fill: #262626; stroke: #262626; stroke-width: 1.25"/>
      </g>
     </g>
     <g id="text_6">
      <text style="font-size: 16px; font-family: 'Arial', sans-serif; text-anchor: end; fill: #262626" x="76.9" y="351.32625" transform="rotate(-0 76.9 351.32625)">0</text>
     </g>
    </g>
    <g id="ytick_2">
     <g id="line2d_6">
      <g>
       <use xlink:href="#m9fab4f7460" x="86.4" y="293.76" style="fill: #262626; stroke: #262626; stroke-width: 1.25"/>
      </g>
     </g>
     <g id="text_7">
      <text style="font-size: 16px; font-family: 'Arial', sans-serif; text-anchor: end; fill: #262626" x="76.9" y="299.48625" transform="rotate(-0 76.9 299.48625)">1</text>
     </g>
    </g>
    <g id="ytick_3">
     <g id="line2d_7">
      <g>
       <use xlink:href="#m9fab4f7460" x="86.4" y="241.92" style="fill: #262626; stroke: #262626; stroke-width: 1.25"/>
      </g>
     </g>
     <g id="text_8">
      <text style="font-size: 16px; font-family: 'Arial', sans-serif; text-anchor: end; fill: #262626" x="76.9" y="247.64625" transform="rotate(-0 76.9 247.64625)">2</text>
     </g>
    </g>
    <g id="ytick_4">
     <g id="line2d_8">
      <g>
       <use xlink:href="#m9fab4f7460" x="86.4" y="190.08" style="fill: #262626; stroke: #262626; stroke-width: 1.25"/>
      </g>
     </g>
     <g id="text_9">
      <text style="font-size: 16px; font-family: 'Arial', sans-serif; text-anchor: end; fill: #262626" x="76.9" y="195.80625" transform="rotate(-0 76.9 195.80625)">3</text>
     </g>
    </g>
    <g id="ytick_5">
     <g id="line2d_9">
      <g>
       <use xlink:href="#m9fab4f7460" x="86.4" y="138.24" style="fill: #262626; stroke: #262626; stroke-width: 1.25"/>
      </g>
     </g>
     <g id="text_10">
      <text style="font-size: 16px; font-family: 'Arial', sans-serif; text-anchor: end; fill: #262626" x="76.9" y="143.96625" transform="rotate(-0 76.9 143.96625)">4</text>
     </g>
    </g>
    <g id="ytick_6">
     <g id="line2d_10">
      <g>
       <use xlink:href="#m9fab4f7460" x="86.4" y="86.4" style="fill: #262626; stroke: #262626; stroke-width: 1.25"/>
      </g>
     </g>
     <g id="text_11">
      <text style="font-size: 16px; font-family: 'Arial', sans-serif; text-anchor: end; fill: #262626" x="76.9" y="92.12625" transform="rotate(-0 76.9 92.12625)">5</text>
     </g>
    </g>
    <g id="text_12">
     <text style="font-size: 16px; font-family: 'Arial', sans-serif; text-anchor: middle; fill: #262626" x="60.635" y="216" transform="rotate(-90 60.635 216)">Density</text>
    </g>
   </g>
   <g id="line2d_11">
    <path d="M 87.075665 -1 
L 87.091269 12.053205 
L 87.436904 114.1267 
L 87.782538 166.99965 
L 88.473807 221.705308 
L 89.165077 250.04347 
L 89.856346 267.492293 
L 90.547615 279.365648 
L 91.238884 287.991879 
L 91.930153 294.556142 
L 92.967057 301.923078 
L 94.00396 307.367856 
L 95.040864 311.563739 
L 96.077768 314.900986 
L 97.114671 317.62179 
L 98.49721 320.556832 
L 99.879748 322.91716 
L 101.262286 324.858555 
L 102.990459 326.851141 
L 104.718632 328.485075 
L 106.792439 330.09706 
L 108.866247 331.425217 
L 111.285689 332.707918 
L 114.050765 333.911698 
L 117.161476 335.019217 
L 120.963456 336.114555 
L 125.111071 337.075348 
L 130.29559 338.032655 
L 136.171377 338.887456 
L 143.429703 339.711165 
L 152.416202 340.491213 
L 163.476508 341.212532 
L 177.30189 341.87798 
L 194.929253 342.49085 
L 217.741134 343.04961 
L 248.156976 343.558723 
L 289.633123 344.015707 
L 345.625923 344.407181 
L 345.625923 344.407181 
" clip-path="url(#p4c6e9e0d4e)" style="fill: none; stroke: #d55e00; stroke-width: 2; stroke-linecap: round"/>
   </g>
   <g id="line2d_12">
    <path d="M 86.947484 -1 
L 87.091269 59.440275 
L 87.436904 120.693321 
L 87.782538 156.114412 
L 88.473807 196.918233 
L 89.165077 220.539768 
L 89.856346 236.325785 
L 90.547615 247.791605 
L 91.238884 256.587111 
L 92.275788 266.610997 
L 93.312691 274.185425 
L 94.349595 280.160769 
L 95.386499 285.025981 
L 96.769037 290.294303 
L 98.151575 294.567177 
L 99.534113 298.121108 
L 100.916652 301.136202 
L 102.644824 304.330963 
L 104.372997 307.038091 
L 106.10117 309.369631 
L 108.174977 311.781517 
L 110.248785 313.862684 
L 112.668227 315.963635 
L 115.087669 317.786049 
L 117.852745 319.599253 
L 120.963456 321.366875 
L 124.419802 323.064635 
L 128.221782 324.677795 
L 132.369397 326.198711 
L 137.208281 327.726343 
L 142.392799 329.132333 
L 148.268587 330.500822 
L 155.181278 331.873273 
L 162.785239 333.154053 
L 171.426103 334.386019 
L 181.449505 335.58737 
L 192.855446 336.728376 
L 205.989559 337.817391 
L 221.19748 338.853008 
L 239.170477 339.845616 
L 259.908551 340.762244 
L 284.448605 341.617337 
L 313.481908 342.398991 
L 345.625923 343.058331 
L 345.625923 343.058331 
" clip-path="url(#p4c6e9e0d4e)" style="fill: none; stroke: #0173b2; stroke-width: 2; stroke-linecap: round"/>
   </g>
   <g id="line2d_13">
    <path d="M 86.4 293.76 
L 92.621422 297.361626 
L 98.842844 300.713026 
L 105.409901 303.998341 
L 112.322592 307.197136 
L 119.235284 310.149972 
L 126.493609 313.00641 
L 134.09757 315.752328 
L 142.047165 318.376035 
L 150.342394 320.868245 
L 158.983258 323.222006 
L 167.969757 325.432596 
L 177.30189 327.497377 
L 187.325293 329.48025 
L 197.694329 331.303236 
L 208.754635 333.021105 
L 220.506211 334.620753 
L 233.294689 336.131296 
L 246.774437 337.49909 
L 261.636724 338.77932 
L 277.881548 339.94839 
L 295.508911 340.991419 
L 315.210081 341.93108 
L 337.330693 342.759808 
L 345.625923 343.019813 
L 345.625923 343.019813 
" clip-path="url(#p4c6e9e0d4e)" style="fill: none; stroke: #029e73; stroke-width: 2; stroke-linecap: round"/>
   </g>
   <g id="line2d_14">
    <path d="M 86.4 345.6 
L 103.681728 345.500943 
L 107.138074 345.257403 
L 109.90315 344.832614 
L 111.976958 344.307954 
L 114.050765 343.549965 
L 115.778938 342.703629 
L 117.507111 341.633579 
L 119.235284 340.317237 
L 120.963456 338.73752 
L 122.691629 336.884 
L 124.765437 334.294774 
L 126.839244 331.317505 
L 129.258686 327.389919 
L 132.023762 322.388995 
L 135.480108 315.581533 
L 145.157876 296.126204 
L 147.922952 291.2591 
L 150.342394 287.486405 
L 152.416202 284.675581 
L 154.144374 282.659795 
L 155.872547 280.957158 
L 157.60072 279.577293 
L 159.328893 278.524664 
L 160.711431 277.918055 
L 162.093969 277.518415 
L 163.476508 277.321759 
L 164.859046 277.322564 
L 166.241584 277.513934 
L 167.969757 278.008689 
L 169.69793 278.770434 
L 171.426103 279.779127 
L 173.49991 281.285123 
L 175.573717 283.076565 
L 177.993159 285.473804 
L 180.758236 288.540685 
L 184.214581 292.730466 
L 189.3991 299.418165 
L 197.348695 309.66818 
L 201.49631 314.665021 
L 205.29829 318.908743 
L 208.754635 322.445402 
L 212.210981 325.657244 
L 215.321692 328.266329 
L 218.432403 330.612828 
L 221.543114 332.70627 
L 224.99946 334.751943 
L 228.455806 336.524014 
L 231.912151 338.046971 
L 235.714131 339.46482 
L 239.516112 340.645516 
L 243.663726 341.700712 
L 248.156976 342.612969 
L 253.341494 343.422549 
L 259.217282 344.094071 
L 265.784338 344.614892 
L 273.733933 345.020064 
L 284.10297 345.316374 
L 299.310891 345.504945 
L 327.307291 345.588687 
L 345.625923 345.597374 
L 345.625923 345.597374 
" clip-path="url(#p4c6e9e0d4e)" style="fill: none; stroke: #de8f05; stroke-width: 2; stroke-linecap: round"/>
   </g>
   <g id="line2d_15">
    <path d="M 86.4 345.6 
L 142.738434 345.49019 
L 144.812241 345.243187 
L 146.194779 344.870071 
L 147.231683 344.394228 
L 148.268587 343.664668 
L 149.305491 342.578884 
L 150.342394 341.009124 
L 151.379298 338.803019 
L 152.416202 335.787339 
L 153.453105 331.775507 
L 154.490009 326.579197 
L 155.526913 320.02377 
L 156.563816 311.966721 
L 157.60072 302.317656 
L 158.983258 286.955745 
L 160.365797 268.945406 
L 162.093969 243.537509 
L 166.241584 180.53203 
L 167.624122 163.271525 
L 168.661026 152.825589 
L 169.69793 144.962387 
L 170.389199 141.296461 
L 171.080468 138.954085 
L 171.426103 138.287777 
L 171.771737 137.959287 
L 172.117372 137.96748 
L 172.463006 138.30961 
L 172.808641 138.98136 
L 173.49991 141.288955 
L 174.191179 144.826717 
L 174.882448 149.510559 
L 175.919352 158.459068 
L 176.956256 169.355941 
L 178.338794 186.148721 
L 181.10387 223.484619 
L 183.523312 255.392186 
L 185.251485 275.635146 
L 186.634023 289.739633 
L 188.016562 301.832974 
L 189.3991 311.930955 
L 190.781638 320.157057 
L 191.818542 325.212753 
L 192.855446 329.419575 
L 193.892349 332.878392 
L 194.929253 335.689555 
L 195.966157 337.948978 
L 197.00306 339.745432 
L 198.039964 341.158893 
L 199.076868 342.259754 
L 200.459406 343.34485 
L 201.841944 344.099435 
L 203.224482 344.61561 
L 204.952655 345.030025 
L 207.372097 345.343948 
L 210.828443 345.523759 
L 217.741134 345.594603 
L 274.770837 345.6 
L 345.625923 345.6 
L 345.625923 345.6 
" clip-path="url(#p4c6e9e0d4e)" style="fill: none; stroke: #56b4e9; stroke-width: 2; stroke-linecap: round"/>
   </g>
   <g id="line2d_16">
    <path d="M 172.8 345.6 
L 172.8 86.4 
" clip-path="url(#p4c6e9e0d4e)" style="fill: none; stroke-dasharray: 7.4,3.2; stroke-dashoffset: 0; stroke: #000000; stroke-width: 2"/>
   </g>
   <g id="patch_3">
    <path d="M 86.4 345.6 
L 86.4 86.4 
" style="fill: none; stroke: #262626; stroke-width: 1.25; stroke-linejoin: miter; stroke-linecap: square"/>
   </g>
   <g id="patch_4">
    <path d="M 86.4 345.6 
L 345.6 345.6 
" style="fill: none; stroke: #262626; stroke-width: 1.25; stroke-linejoin: miter; stroke-linecap: square"/>
   </g>
   <g id="legend_1">
    <g id="patch_5">
     <path d="M 239.62 216.420625 
L 335.8 216.420625 
Q 338.6 216.420625 338.6 213.620625 
L 338.6 96.2 
Q 338.6 93.4 335.8 93.4 
L 239.62 93.4 
Q 236.82 93.4 236.82 96.2 
L 236.82 213.620625 
Q 236.82 216.420625 239.62 216.420625 
z
" style="fill: #ffffff; opacity: 0.8; stroke: #cccccc; stroke-linejoin: miter"/>
    </g>
    <g id="line2d_17">
     <path d="M 242.42 104.120937 
L 256.42 104.120937 
L 270.42 104.120937 
" style="fill: none; stroke: #d55e00; stroke-width: 2; stroke-linecap: round"/>
    </g>
    <g id="text_13">
     <!-- $\it{k}$ = 0.1 -->
     <g style="fill: #262626" transform="translate(281.62 109.020937)">
      <text>
       <tspan x="0" y="-0.359375" style="font-style: oblique; font-size: 14px; font-family: 'DejaVu Sans'; fill: #262626">k</tspan>
       <tspan x="8.107422" y="-0.359375" style="font-size: 14px; font-family: 'Arial'; fill: #262626"> </tspan>
       <tspan x="11.99707" y="-0.359375" style="font-size: 14px; font-family: 'Arial'; fill: #262626">=</tspan>
       <tspan x="20.172852" y="-0.359375" style="font-size: 14px; font-family: 'Arial'; fill: #262626"> </tspan>
       <tspan x="24.0625" y="-0.359375" style="font-size: 14px; font-family: 'Arial'; fill: #262626">0</tspan>
       <tspan x="31.848633" y="-0.359375" style="font-size: 14px; font-family: 'Arial'; fill: #262626">.</tspan>
       <tspan x="35.738281" y="-0.359375" style="font-size: 14px; font-family: 'Arial'; fill: #262626">1</tspan>
      </text>
     </g>
    </g>
    <g id="line2d_18">
     <path d="M 242.42 123.924375 
L 256.42 123.924375 
L 270.42 123.924375 
" style="fill: none; stroke: #0173b2; stroke-width: 2; stroke-linecap: round"/>
    </g>
    <g id="text_14">
     <!-- $\it{k}$ = 0.41 -->
     <g style="fill: #262626" transform="translate(281.62 128.824375)">
      <text>
       <tspan x="0" y="-0.359375" style="font-style: oblique; font-size: 14px; font-family: 'DejaVu Sans'; fill: #262626">k</tspan>
       <tspan x="8.107422" y="-0.359375" style="font-size: 14px; font-family: 'Arial'; fill: #262626"> </tspan>
       <tspan x="11.99707" y="-0.359375" style="font-size: 14px; font-family: 'Arial'; fill: #262626">=</tspan>
       <tspan x="20.172852" y="-0.359375" style="font-size: 14px; font-family: 'Arial'; fill: #262626"> </tspan>
       <tspan x="24.0625" y="-0.359375" style="font-size: 14px; font-family: 'Arial'; fill: #262626">0</tspan>
       <tspan x="31.848633" y="-0.359375" style="font-size: 14px; font-family: 'Arial'; fill: #262626">.</tspan>
       <tspan x="35.738281" y="-0.359375" style="font-size: 14px; font-family: 'Arial'; fill: #262626">4</tspan>
       <tspan x="43.524414" y="-0.359375" style="font-size: 14px; font-family: 'Arial'; fill: #262626">1</tspan>
      </text>
     </g>
    </g>
    <g id="line2d_19">
     <path d="M 242.42 143.727812 
L 256.42 143.727812 
L 270.42 143.727812 
" style="fill: none; stroke: #029e73; stroke-width: 2; stroke-linecap: round"/>
    </g>
    <g id="text_15">
     <!-- $\it{k}$ = 1 -->
     <g style="fill: #262626" transform="translate(281.62 148.627812)">
      <text>
       <tspan x="0" y="-0.359375" style="font-style: oblique; font-size: 14px; font-family: 'DejaVu Sans'; fill: #262626">k</tspan>
       <tspan x="8.107422" y="-0.359375" style="font-size: 14px; font-family: 'Arial'; fill: #262626"> </tspan>
       <tspan x="11.99707" y="-0.359375" style="font-size: 14px; font-family: 'Arial'; fill: #262626">=</tspan>
       <tspan x="20.172852" y="-0.359375" style="font-size: 14px; font-family: 'Arial'; fill: #262626"> </tspan>
       <tspan x="24.0625" y="-0.359375" style="font-size: 14px; font-family: 'Arial'; fill: #262626">1</tspan>
      </text>
     </g>
    </g>
    <g id="line2d_20">
     <path d="M 242.42 163.53125 
L 256.42 163.53125 
L 270.42 163.53125 
" style="fill: none; stroke: #de8f05; stroke-width: 2; stroke-linecap: round"/>
    </g>
    <g id="text_16">
     <!-- $\it{k}$ = 10 -->
     <g style="fill: #262626" transform="translate(281.62 168.43125)">
      <text>
       <tspan x="0" y="-0.359375" style="font-style: oblique; font-size: 14px; font-family: 'DejaVu Sans'; fill: #262626">k</tspan>
       <tspan x="8.107422" y="-0.359375" style="font-size: 14px; font-family: 'Arial'; fill: #262626"> </tspan>
       <tspan x="11.99707" y="-0.359375" style="font-size: 14px; font-family: 'Arial'; fill: #262626">=</tspan>
       <tspan x="20.172852" y="-0.359375" style="font-size: 14px; font-family: 'Arial'; fill: #262626"> </tspan>
       <tspan x="24.0625" y="-0.359375" style="font-size: 14px; font-family: 'Arial'; fill: #262626">1</tspan>
       <tspan x="31.848633" y="-0.359375" style="font-size: 14px; font-family: 'Arial'; fill: #262626">0</tspan>
      </text>
     </g>
    </g>
    <g id="line2d_21">
     <path d="M 242.42 183.334687 
L 256.42 183.334687 
L 270.42 183.334687 
" style="fill: none; stroke: #56b4e9; stroke-width: 2; stroke-linecap: round"/>
    </g>
    <g id="text_17">
     <!-- $\it{k}$ = 100 -->
     <g style="fill: #262626" transform="translate(281.62 188.234687)">
      <text>
       <tspan x="0" y="-0.359375" style="font-style: oblique; font-size: 14px; font-family: 'DejaVu Sans'; fill: #262626">k</tspan>
       <tspan x="8.107422" y="-0.359375" style="font-size: 14px; font-family: 'Arial'; fill: #262626"> </tspan>
       <tspan x="11.99707" y="-0.359375" style="font-size: 14px; font-family: 'Arial'; fill: #262626">=</tspan>
       <tspan x="20.172852" y="-0.359375" style="font-size: 14px; font-family: 'Arial'; fill: #262626"> </tspan>
       <tspan x="24.0625" y="-0.359375" style="font-size: 14px; font-family: 'Arial'; fill: #262626">1</tspan>
       <tspan x="31.848633" y="-0.359375" style="font-size: 14px; font-family: 'Arial'; fill: #262626">0</tspan>
       <tspan x="39.634766" y="-0.359375" style="font-size: 14px; font-family: 'Arial'; fill: #262626">0</tspan>
      </text>
     </g>
    </g>
    <g id="line2d_22">
     <path d="M 242.42 203.138125 
L 256.42 203.138125 
L 270.42 203.138125 
" style="fill: none; stroke-dasharray: 7.4,3.2; stroke-dashoffset: 0; stroke: #000000; stroke-width: 2"/>
    </g>
    <g id="text_18">
     <!-- $\it{k}$ = $\infty$ -->
     <g style="fill: #262626" transform="translate(281.62 208.038125)">
      <text>
       <tspan x="0" y="-0.359375" style="font-style: oblique; font-size: 14px; font-family: 'DejaVu Sans'; fill: #262626">k</tspan>
       <tspan x="8.107422" y="-0.359375" style="font-size: 14px; font-family: 'Arial'; fill: #262626"> </tspan>
       <tspan x="11.99707" y="-0.359375" style="font-size: 14px; font-family: 'Arial'; fill: #262626">=</tspan>
       <tspan x="20.172852" y="-0.359375" style="font-size: 14px; font-family: 'Arial'; fill: #262626"> </tspan>
       <tspan x="24.0625" y="-0.359375" style="font-size: 14px; font-family: 'DejaVu Sans'; fill: #262626">∞</tspan>
      </text>
     </g>
    </g>
   </g>
  </g>
 </g>
 <defs>
  <clipPath id="p4c6e9e0d4e">
   <rect x="86.4" y="86.4" width="259.2" height="259.2"/>
  </clipPath>
 </defs>
</svg>
