<?xml version="1.0" encoding="utf-8" standalone="no"?>
<!DOCTYPE svg PUBLIC "-//W3C//DTD SVG 1.1//EN"
  "http://www.w3.org/Graphics/SVG/1.1/DTD/svg11.dtd">
<svg xmlns:xlink="http://www.w3.org/1999/xlink" width="432pt" height="432pt" viewBox="0 0 432 432" xmlns="http://www.w3.org/2000/svg" version="1.1">
 <metadata>
  <rdf:RDF xmlns:dc="http://purl.org/dc/elements/1.1/" xmlns:cc="http://creativecommons.org/ns#" xmlns:rdf="http://www.w3.org/1999/02/22-rdf-syntax-ns#">
   <cc:Work>
    <dc:type rdf:resource="http://purl.org/dc/dcmitype/StillImage"/>
    <dc:date>2024-05-31T11:02:25.207604</dc:date>
    <dc:format>image/svg+xml</dc:format>
    <dc:creator>
     <cc:Agent>
      <dc:title>Matplotlib v3.8.4, https://matplotlib.org/</dc:title>
     </cc:Agent>
    </dc:creator>
   </cc:Work>
  </rdf:RDF>
 </metadata>
 <defs>
  <style type="text/css">*{stroke-linejoin: round; stroke-linecap: butt}</style>
 </defs>
 <g id="figure_1">
  <g id="patch_1">
   <path d="M 0 432 
L 432 432 
L 432 0 
L 0 0 
L 0 432 
z
" style="fill: none"/>
  </g>
  <g id="axes_1">
   <g id="patch_2">
    <path d="M 86.4 345.6 
L 345.6 345.6 
L 345.6 86.4 
L 86.4 86.4 
L 86.4 345.6 
z
" style="fill: none"/>
   </g>
   <g id="matplotlib.axis_1">
    <g id="xtick_1">
     <g id="line2d_1">
      <defs>
       <path id="madc6acbc46" d="M 0 0 
L 0 6 
" style="stroke: #262626; stroke-width: 1.25"/>
      </defs>
      <g>
       <use xlink:href="#madc6acbc46" x="86.4" y="345.6" style="fill: #262626; stroke: #262626; stroke-width: 1.25"/>
      </g>
     </g>
     <g id="text_1">
      <text style="fill: #262626; font: 16px 'Arial', 'DejaVu Sans', 'Liberation Sans', 'Bitstream Vera Sans', sans-serif; text-anchor: middle" x="86.4" y="366.5525" transform="rotate(-0 86.4 366.5525)">Jan</text>
     </g>
    </g>
    <g id="xtick_2">
     <g id="line2d_2">
      <g>
       <use xlink:href="#madc6acbc46" x="97.2" y="345.6" style="fill: #262626; stroke: #262626; stroke-width: 1.25"/>
      </g>
     </g>
    </g>
    <g id="xtick_3">
     <g id="line2d_3">
      <g>
       <use xlink:href="#madc6acbc46" x="108" y="345.6" style="fill: #262626; stroke: #262626; stroke-width: 1.25"/>
      </g>
     </g>
    </g>
    <g id="xtick_4">
     <g id="line2d_4">
      <g>
       <use xlink:href="#madc6acbc46" x="118.8" y="345.6" style="fill: #262626; stroke: #262626; stroke-width: 1.25"/>
      </g>
     </g>
     <g id="text_2">
      <text style="fill: #262626; font: 16px 'Arial', 'DejaVu Sans', 'Liberation Sans', 'Bitstream Vera Sans', sans-serif; text-anchor: middle" x="118.8" y="366.5525" transform="rotate(-0 118.8 366.5525)">Apr</text>
     </g>
    </g>
    <g id="xtick_5">
     <g id="line2d_5">
      <g>
       <use xlink:href="#madc6acbc46" x="129.6" y="345.6" style="fill: #262626; stroke: #262626; stroke-width: 1.25"/>
      </g>
     </g>
    </g>
    <g id="xtick_6">
     <g id="line2d_6">
      <g>
       <use xlink:href="#madc6acbc46" x="140.4" y="345.6" style="fill: #262626; stroke: #262626; stroke-width: 1.25"/>
      </g>
     </g>
    </g>
    <g id="xtick_7">
     <g id="line2d_7">
      <g>
       <use xlink:href="#madc6acbc46" x="151.2" y="345.6" style="fill: #262626; stroke: #262626; stroke-width: 1.25"/>
      </g>
     </g>
     <g id="text_3">
      <text style="fill: #262626; font: 16px 'Arial', 'DejaVu Sans', 'Liberation Sans', 'Bitstream Vera Sans', sans-serif; text-anchor: middle" x="151.2" y="366.5525" transform="rotate(-0 151.2 366.5525)">Jul</text>
     </g>
    </g>
    <g id="xtick_8">
     <g id="line2d_8">
      <g>
       <use xlink:href="#madc6acbc46" x="162" y="345.6" style="fill: #262626; stroke: #262626; stroke-width: 1.25"/>
      </g>
     </g>
    </g>
    <g id="xtick_9">
     <g id="line2d_9">
      <g>
       <use xlink:href="#madc6acbc46" x="172.8" y="345.6" style="fill: #262626; stroke: #262626; stroke-width: 1.25"/>
      </g>
     </g>
    </g>
    <g id="xtick_10">
     <g id="line2d_10">
      <g>
       <use xlink:href="#madc6acbc46" x="183.6" y="345.6" style="fill: #262626; stroke: #262626; stroke-width: 1.25"/>
      </g>
     </g>
     <g id="text_4">
      <text style="fill: #262626; font: 16px 'Arial', 'DejaVu Sans', 'Liberation Sans', 'Bitstream Vera Sans', sans-serif; text-anchor: middle" x="183.6" y="366.5525" transform="rotate(-0 183.6 366.5525)">Oct</text>
     </g>
    </g>
    <g id="xtick_11">
     <g id="line2d_11">
      <g>
       <use xlink:href="#madc6acbc46" x="194.4" y="345.6" style="fill: #262626; stroke: #262626; stroke-width: 1.25"/>
      </g>
     </g>
    </g>
    <g id="xtick_12">
     <g id="line2d_12">
      <g>
       <use xlink:href="#madc6acbc46" x="205.2" y="345.6" style="fill: #262626; stroke: #262626; stroke-width: 1.25"/>
      </g>
     </g>
    </g>
    <g id="xtick_13">
     <g id="line2d_13">
      <g>
       <use xlink:href="#madc6acbc46" x="216" y="345.6" style="fill: #262626; stroke: #262626; stroke-width: 1.25"/>
      </g>
     </g>
     <g id="text_5">
      <text style="fill: #262626; font: 16px 'Arial', 'DejaVu Sans', 'Liberation Sans', 'Bitstream Vera Sans', sans-serif; text-anchor: middle" x="216" y="366.5525" transform="rotate(-0 216 366.5525)">Jan</text>
     </g>
    </g>
    <g id="xtick_14">
     <g id="line2d_14">
      <g>
       <use xlink:href="#madc6acbc46" x="226.8" y="345.6" style="fill: #262626; stroke: #262626; stroke-width: 1.25"/>
      </g>
     </g>
    </g>
    <g id="xtick_15">
     <g id="line2d_15">
      <g>
       <use xlink:href="#madc6acbc46" x="237.6" y="345.6" style="fill: #262626; stroke: #262626; stroke-width: 1.25"/>
      </g>
     </g>
    </g>
    <g id="xtick_16">
     <g id="line2d_16">
      <g>
       <use xlink:href="#madc6acbc46" x="248.4" y="345.6" style="fill: #262626; stroke: #262626; stroke-width: 1.25"/>
      </g>
     </g>
     <g id="text_6">
      <text style="fill: #262626; font: 16px 'Arial', 'DejaVu Sans', 'Liberation Sans', 'Bitstream Vera Sans', sans-serif; text-anchor: middle" x="248.4" y="366.5525" transform="rotate(-0 248.4 366.5525)">Apr</text>
     </g>
    </g>
    <g id="xtick_17">
     <g id="line2d_17">
      <g>
       <use xlink:href="#madc6acbc46" x="259.2" y="345.6" style="fill: #262626; stroke: #262626; stroke-width: 1.25"/>
      </g>
     </g>
    </g>
    <g id="xtick_18">
     <g id="line2d_18">
      <g>
       <use xlink:href="#madc6acbc46" x="270" y="345.6" style="fill: #262626; stroke: #262626; stroke-width: 1.25"/>
      </g>
     </g>
    </g>
    <g id="xtick_19">
     <g id="line2d_19">
      <g>
       <use xlink:href="#madc6acbc46" x="280.8" y="345.6" style="fill: #262626; stroke: #262626; stroke-width: 1.25"/>
      </g>
     </g>
     <g id="text_7">
      <text style="fill: #262626; font: 16px 'Arial', 'DejaVu Sans', 'Liberation Sans', 'Bitstream Vera Sans', sans-serif; text-anchor: middle" x="280.8" y="366.5525" transform="rotate(-0 280.8 366.5525)">Jul</text>
     </g>
    </g>
    <g id="xtick_20">
     <g id="line2d_20">
      <g>
       <use xlink:href="#madc6acbc46" x="291.6" y="345.6" style="fill: #262626; stroke: #262626; stroke-width: 1.25"/>
      </g>
     </g>
    </g>
    <g id="xtick_21">
     <g id="line2d_21">
      <g>
       <use xlink:href="#madc6acbc46" x="302.4" y="345.6" style="fill: #262626; stroke: #262626; stroke-width: 1.25"/>
      </g>
     </g>
    </g>
    <g id="xtick_22">
     <g id="line2d_22">
      <g>
       <use xlink:href="#madc6acbc46" x="313.2" y="345.6" style="fill: #262626; stroke: #262626; stroke-width: 1.25"/>
      </g>
     </g>
     <g id="text_8">
      <text style="fill: #262626; font: 16px 'Arial', 'DejaVu Sans', 'Liberation Sans', 'Bitstream Vera Sans', sans-serif; text-anchor: middle" x="313.2" y="366.5525" transform="rotate(-0 313.2 366.5525)">Oct</text>
     </g>
    </g>
    <g id="xtick_23">
     <g id="line2d_23">
      <g>
       <use xlink:href="#madc6acbc46" x="324" y="345.6" style="fill: #262626; stroke: #262626; stroke-width: 1.25"/>
      </g>
     </g>
    </g>
    <g id="xtick_24">
     <g id="line2d_24">
      <g>
       <use xlink:href="#madc6acbc46" x="334.8" y="345.6" style="fill: #262626; stroke: #262626; stroke-width: 1.25"/>
      </g>
     </g>
    </g>
    <g id="xtick_25">
     <g id="line2d_25">
      <g>
       <use xlink:href="#madc6acbc46" x="345.6" y="345.6" style="fill: #262626; stroke: #262626; stroke-width: 1.25"/>
      </g>
     </g>
     <g id="text_9">
      <text style="fill: #262626; font: 16px 'Arial', 'DejaVu Sans', 'Liberation Sans', 'Bitstream Vera Sans', sans-serif; text-anchor: middle" x="345.6" y="366.5525" transform="rotate(-0 345.6 366.5525)">Jan</text>
     </g>
    </g>
    <g id="text_10">
     <text style="fill: #262626; font: 16px 'Arial', 'DejaVu Sans', 'Liberation Sans', 'Bitstream Vera Sans', sans-serif; text-anchor: middle" x="216" y="385.185" transform="rotate(-0 216 385.185)"> </text>
    </g>
   </g>
   <g id="matplotlib.axis_2">
    <g id="ytick_1">
     <g id="line2d_26">
      <defs>
       <path id="m11922df01a" d="M 0 0 
L -6 0 
" style="stroke: #262626; stroke-width: 1.25"/>
      </defs>
      <g>
       <use xlink:href="#m11922df01a" x="86.4" y="345.6" style="fill: #262626; stroke: #262626; stroke-width: 1.25"/>
      </g>
     </g>
     <g id="text_11">
      <text style="fill: #262626; font: 16px 'Arial', 'DejaVu Sans', 'Liberation Sans', 'Bitstream Vera Sans', sans-serif; text-anchor: end" x="76.9" y="351.32625" transform="rotate(-0 76.9 351.32625)">0.0</text>
     </g>
    </g>
    <g id="ytick_2">
     <g id="line2d_27">
      <g>
       <use xlink:href="#m11922df01a" x="86.4" y="293.76" style="fill: #262626; stroke: #262626; stroke-width: 1.25"/>
      </g>
     </g>
     <g id="text_12">
      <text style="fill: #262626; font: 16px 'Arial', 'DejaVu Sans', 'Liberation Sans', 'Bitstream Vera Sans', sans-serif; text-anchor: end" x="76.9" y="299.48625" transform="rotate(-0 76.9 299.48625)">0.1</text>
     </g>
    </g>
    <g id="ytick_3">
     <g id="line2d_28">
      <g>
       <use xlink:href="#m11922df01a" x="86.4" y="241.92" style="fill: #262626; stroke: #262626; stroke-width: 1.25"/>
      </g>
     </g>
     <g id="text_13">
      <text style="fill: #262626; font: 16px 'Arial', 'DejaVu Sans', 'Liberation Sans', 'Bitstream Vera Sans', sans-serif; text-anchor: end" x="76.9" y="247.64625" transform="rotate(-0 76.9 247.64625)">0.2</text>
     </g>
    </g>
    <g id="ytick_4">
     <g id="line2d_29">
      <g>
       <use xlink:href="#m11922df01a" x="86.4" y="190.08" style="fill: #262626; stroke: #262626; stroke-width: 1.25"/>
      </g>
     </g>
     <g id="text_14">
      <text style="fill: #262626; font: 16px 'Arial', 'DejaVu Sans', 'Liberation Sans', 'Bitstream Vera Sans', sans-serif; text-anchor: end" x="76.9" y="195.80625" transform="rotate(-0 76.9 195.80625)">0.3</text>
     </g>
    </g>
    <g id="ytick_5">
     <g id="line2d_30">
      <g>
       <use xlink:href="#m11922df01a" x="86.4" y="138.24" style="fill: #262626; stroke: #262626; stroke-width: 1.25"/>
      </g>
     </g>
     <g id="text_15">
      <text style="fill: #262626; font: 16px 'Arial', 'DejaVu Sans', 'Liberation Sans', 'Bitstream Vera Sans', sans-serif; text-anchor: end" x="76.9" y="143.96625" transform="rotate(-0 76.9 143.96625)">0.4</text>
     </g>
    </g>
    <g id="ytick_6">
     <g id="line2d_31">
      <g>
       <use xlink:href="#m11922df01a" x="86.4" y="86.4" style="fill: #262626; stroke: #262626; stroke-width: 1.25"/>
      </g>
     </g>
     <g id="text_16">
      <text style="fill: #262626; font: 16px 'Arial', 'DejaVu Sans', 'Liberation Sans', 'Bitstream Vera Sans', sans-serif; text-anchor: end" x="76.9" y="92.12625" transform="rotate(-0 76.9 92.12625)">0.5</text>
     </g>
    </g>
    <g id="text_17">
     <text style="fill: #262626; font: 16px 'Arial', 'DejaVu Sans', 'Liberation Sans', 'Bitstream Vera Sans', sans-serif; text-anchor: middle" x="47.48" y="216" transform="rotate(-90 47.48 216)">Outbreak risk</text>
    </g>
   </g>
   <g id="PolyCollection_1">
    <defs>
     <path id="md5989e3899" d="M 210.6 -86.4 
L 183.6 -86.4 
L 183.6 -345.6 
L 210.6 -345.6 
L 210.6 -345.6 
L 210.6 -86.4 
z
"/>
    </defs>
    <g clip-path="url(#p2ed3022b6c)">
     <use xlink:href="#md5989e3899" x="0" y="432" style="fill: #808080; fill-opacity: 0.5"/>
    </g>
   </g>
   <g id="PolyCollection_2">
    <defs>
     <path id="m8089888fc9" d="M 340.2 -86.4 
L 313.2 -86.4 
L 313.2 -345.6 
L 340.2 -345.6 
L 340.2 -345.6 
L 340.2 -86.4 
z
"/>
    </defs>
    <g clip-path="url(#p2ed3022b6c)">
     <use xlink:href="#m8089888fc9" x="0" y="432" style="fill: #808080; fill-opacity: 0.5"/>
    </g>
   </g>
   <g id="line2d_32">
    <path d="M 86.4 112.687383 
L 88.56 113.036094 
L 90.72 113.651488 
L 92.88 114.5327 
L 95.04 115.678117 
L 97.2 117.085242 
L 99.36 118.750508 
L 101.52 120.669041 
L 104.04 123.218696 
L 106.56 126.090547 
L 109.44 129.743762 
L 112.32 133.758296 
L 115.56 138.647564 
L 119.52 145.034032 
L 131.76 165.124237 
L 134.64 169.223499 
L 136.8 171.960888 
L 138.96 174.347301 
L 140.76 176.031516 
L 142.56 177.412096 
L 144.36 178.468587 
L 145.8 179.069966 
L 147.24 179.448748 
L 148.68 179.602031 
L 150.12 179.529303 
L 151.56 179.232416 
L 153 178.715499 
L 154.44 177.984831 
L 156.24 176.78367 
L 158.04 175.281565 
L 159.84 173.502193 
L 162 171.038598 
L 164.52 167.775287 
L 167.4 163.635652 
L 171 158.031906 
L 185.4 135.099529 
L 188.64 130.571743 
L 191.52 126.897261 
L 194.4 123.59284 
L 196.92 121.028758 
L 199.44 118.786597 
L 201.6 117.130235 
L 203.76 115.725305 
L 205.92 114.576509 
L 208.08 113.687495 
L 210.24 113.061033 
L 212.4 112.699144 
L 214.56 112.603198 
L 216.36 112.726965 
L 218.52 113.120155 
L 220.68 113.779931 
L 222.84 114.70531 
L 225 115.894545 
L 227.16 117.344974 
L 229.32 119.052829 
L 231.84 121.363767 
L 234.36 124.007047 
L 236.88 126.967851 
L 239.76 130.715148 
L 243 135.347718 
L 246.6 140.926224 
L 251.28 148.639801 
L 259.56 162.357484 
L 262.8 167.230877 
L 265.32 170.632693 
L 267.48 173.201254 
L 269.28 175.055917 
L 271.08 176.621438 
L 272.88 177.874561 
L 274.32 178.639552 
L 275.76 179.185684 
L 277.2 179.50827 
L 278.64 179.605005 
L 280.08 179.475973 
L 281.52 179.123605 
L 282.96 178.55258 
L 284.4 177.769693 
L 286.2 176.506615 
L 288 174.947058 
L 289.8 173.115346 
L 291.96 170.596383 
L 294.48 167.279435 
L 297.36 163.093415 
L 300.96 157.453758 
L 314.28 136.15593 
L 317.52 131.543882 
L 320.4 127.782535 
L 323.28 124.382482 
L 325.8 121.729114 
L 328.32 119.3936 
L 330.84 117.388979 
L 333 115.941786 
L 335.16 114.750021 
L 337.32 113.817496 
L 339.48 113.147116 
L 341.64 112.74102 
L 343.8 112.600681 
L 345.24 112.655216 
L 345.24 112.655216 
" clip-path="url(#p2ed3022b6c)" style="fill: none; stroke: #1f77b4; stroke-opacity: 0.5; stroke-width: 2; stroke-linecap: round"/>
   </g>
   <g id="line2d_33">
    <path d="M 86.4 204.632959 
L 88.56 202.295339 
L 90.72 200.267759 
L 92.88 198.553177 
L 95.04 197.153442 
L 96.84 196.227773 
L 98.64 195.520364 
L 100.44 195.029595 
L 102.24 194.752537 
L 104.04 194.68501 
L 105.84 194.821456 
L 107.64 195.154641 
L 109.8 195.801131 
L 111.96 196.698136 
L 114.12 197.82163 
L 116.64 199.379552 
L 119.52 201.417701 
L 123.84 204.777198 
L 129.24 208.926496 
L 132.12 210.83077 
L 134.28 212.005949 
L 136.08 212.773595 
L 137.88 213.316274 
L 139.68 213.606695 
L 141.12 213.641671 
L 142.56 213.490389 
L 144 213.144979 
L 145.44 212.599643 
L 146.88 211.850901 
L 148.68 210.62713 
L 150.48 209.085815 
L 152.28 207.234447 
L 154.08 205.085427 
L 156.24 202.137592 
L 158.4 198.821948 
L 160.92 194.546652 
L 163.8 189.218331 
L 167.4 182.075573 
L 174.24 167.854988 
L 178.92 158.375451 
L 181.08 154.455781 
L 182.16 152.827478 
L 182.88 151.991014 
L 183.6 151.483512 
L 183.96 151.408868 
L 184.32 151.502443 
L 185.04 152.15491 
L 186.84 154.298936 
L 189 157.245529 
L 191.16 160.622786 
L 193.32 164.480077 
L 195.48 168.869541 
L 197.64 173.844703 
L 199.8 179.454805 
L 201.96 185.723186 
L 204.48 193.775 
L 208.08 205.386073 
L 209.16 208.18507 
L 209.88 209.590478 
L 210.6 210.441429 
L 210.96 210.591361 
L 211.32 210.499933 
L 212.04 209.683383 
L 215.28 205.480354 
L 217.44 203.040281 
L 219.6 200.90897 
L 221.76 199.089805 
L 223.92 197.584972 
L 225.72 196.571784 
L 227.52 195.777245 
L 229.32 195.200047 
L 231.12 194.83793 
L 232.92 194.687215 
L 234.72 194.742812 
L 236.52 194.998285 
L 238.68 195.556763 
L 240.84 196.372669 
L 243 197.423632 
L 245.52 198.910085 
L 248.4 200.88715 
L 252.36 203.920259 
L 258.84 208.926496 
L 261.72 210.83077 
L 263.88 212.005949 
L 265.68 212.773595 
L 267.48 213.316274 
L 269.28 213.606695 
L 270.72 213.641671 
L 272.16 213.490389 
L 273.6 213.144979 
L 275.04 212.599643 
L 276.48 211.850901 
L 278.28 210.62713 
L 280.08 209.085815 
L 281.88 207.234447 
L 283.68 205.085427 
L 285.84 202.137592 
L 288 198.821948 
L 290.52 194.546652 
L 293.4 189.218331 
L 297 182.075573 
L 303.84 167.854988 
L 308.52 158.375451 
L 310.68 154.455781 
L 311.76 152.827478 
L 312.48 151.991014 
L 313.2 151.483512 
L 313.56 151.408868 
L 313.92 151.502443 
L 314.64 152.15491 
L 316.44 154.298936 
L 318.6 157.245529 
L 320.76 160.622786 
L 322.92 164.480077 
L 325.08 168.869541 
L 327.24 173.844703 
L 329.4 179.454805 
L 331.56 185.723186 
L 334.08 193.775 
L 337.68 205.386073 
L 338.76 208.18507 
L 339.48 209.590478 
L 340.2 210.441429 
L 340.56 210.591361 
L 340.92 210.499933 
L 341.64 209.683383 
L 344.88 205.480354 
L 345.24 205.052416 
L 345.24 205.052416 
" clip-path="url(#p2ed3022b6c)" style="fill: none; stroke: #1f77b4; stroke-width: 2; stroke-linecap: round"/>
   </g>
   <g id="line2d_34">
    <path d="M 86.4 112.553221 
L 88.56 112.686511 
L 90.72 113.086091 
L 92.88 113.751068 
L 95.04 114.67989 
L 97.2 115.87024 
L 99.36 117.3189 
L 101.52 119.021563 
L 104.04 121.321446 
L 106.56 123.947626 
L 109.08 126.884759 
L 111.96 130.59665 
L 115.2 135.179127 
L 118.8 140.691564 
L 123.48 148.312595 
L 132.12 162.483911 
L 135.36 167.316578 
L 137.88 170.701828 
L 140.04 173.268591 
L 142.2 175.469919 
L 144 176.990361 
L 145.8 178.199583 
L 147.24 178.92954 
L 148.68 179.439934 
L 150.12 179.725287 
L 151.56 179.782513 
L 153 179.610991 
L 154.44 179.212579 
L 155.88 178.591575 
L 157.32 177.754602 
L 159.12 176.418278 
L 160.92 174.779842 
L 162.72 172.86479 
L 164.88 170.242187 
L 167.4 166.803467 
L 170.28 162.483911 
L 174.24 156.103464 
L 185.04 138.440377 
L 188.64 133.093144 
L 191.88 128.695332 
L 194.76 125.169363 
L 197.28 122.4078 
L 199.8 119.966447 
L 202.32 117.85848 
L 204.48 116.324614 
L 206.64 115.047753 
L 208.8 114.031457 
L 210.96 113.278324 
L 213.12 112.790148 
L 215.28 112.568033 
L 217.44 112.612467 
L 219.6 112.923352 
L 221.76 113.500002 
L 223.92 114.341092 
L 226.08 115.444576 
L 228.24 116.807554 
L 230.4 118.426104 
L 232.56 120.295069 
L 235.08 122.783057 
L 237.6 125.589068 
L 240.48 129.162341 
L 243.36 133.093144 
L 246.6 137.886679 
L 250.56 144.162044 
L 264.24 166.283774 
L 266.76 169.774123 
L 268.92 172.451065 
L 271.08 174.779842 
L 272.88 176.418278 
L 274.68 177.754602 
L 276.12 178.591575 
L 277.56 179.212579 
L 279 179.610991 
L 280.44 179.782513 
L 281.88 179.725287 
L 283.32 179.439934 
L 284.76 178.92954 
L 286.2 178.199583 
L 288 176.990361 
L 289.8 175.469919 
L 291.6 173.662229 
L 293.76 171.15279 
L 296.28 167.822841 
L 299.16 163.595868 
L 302.76 157.87791 
L 316.08 136.249479 
L 319.32 131.579785 
L 322.2 127.778412 
L 325.08 124.348587 
L 327.6 121.676952 
L 330.12 119.329662 
L 332.64 117.3189 
L 334.8 115.87024 
L 336.96 114.67989 
L 339.12 113.751068 
L 341.28 113.086091 
L 343.44 112.686511 
L 345.24 112.556924 
L 345.24 112.556924 
" clip-path="url(#p2ed3022b6c)" style="fill: none; stroke-dasharray: 7.4,3.2; stroke-dashoffset: 0; stroke: #ff7f0e; stroke-opacity: 0.5; stroke-width: 2"/>
   </g>
   <g id="line2d_35">
    <path d="M 86.4 207.751178 
L 88.56 204.995854 
L 90.72 202.562928 
L 92.88 200.453797 
L 95.04 198.669126 
L 97.2 197.209091 
L 99 196.238879 
L 100.8 195.491148 
L 102.6 194.963992 
L 104.4 194.652949 
L 106.2 194.553114 
L 108 194.65917 
L 109.8 194.962879 
L 111.96 195.574674 
L 114.12 196.438442 
L 116.28 197.530592 
L 118.8 199.055365 
L 121.68 201.064333 
L 125.64 204.123507 
L 132.12 209.15156 
L 135 211.066211 
L 137.16 212.250536 
L 138.96 213.025436 
L 140.76 213.573187 
L 142.56 213.864619 
L 144 213.895604 
L 145.44 213.734351 
L 146.88 213.371515 
L 148.32 212.80007 
L 149.76 212.015402 
L 151.2 211.015108 
L 153 209.462455 
L 154.8 207.580246 
L 156.6 205.380929 
L 158.76 202.348507 
L 160.92 198.925695 
L 163.44 194.503643 
L 166.32 188.991148 
L 170.28 180.857599 
L 183.6 152.981144 
L 185.04 150.214159 
L 185.4 150.384509 
L 186.48 151.41155 
L 188.64 153.889334 
L 190.8 156.735879 
L 192.96 159.98535 
L 195.12 163.679737 
L 197.28 167.86005 
L 199.44 172.569473 
L 201.6 177.851944 
L 203.76 183.753631 
L 205.92 190.32357 
L 208.08 197.614425 
L 210.24 205.68372 
L 212.04 213.046582 
L 212.4 212.850828 
L 213.48 211.356421 
L 216.36 207.269605 
L 218.52 204.568105 
L 220.68 202.18864 
L 222.84 200.133984 
L 225 198.403234 
L 227.16 196.99707 
L 228.96 196.071459 
L 230.76 195.368429 
L 232.56 194.884641 
L 234.36 194.616142 
L 236.16 194.558235 
L 237.96 194.704428 
L 239.76 195.046384 
L 241.92 195.701891 
L 244.08 196.605204 
L 246.6 197.940467 
L 249.12 199.534046 
L 252.36 201.873333 
L 257.76 206.13222 
L 261.72 209.15156 
L 264.6 211.066211 
L 266.76 212.250536 
L 268.56 213.025436 
L 270.36 213.573187 
L 272.16 213.864619 
L 273.6 213.895604 
L 275.04 213.734351 
L 276.48 213.371515 
L 277.92 212.80007 
L 279.36 212.015402 
L 280.8 211.015108 
L 282.6 209.462455 
L 284.4 207.580246 
L 286.2 205.380929 
L 288.36 202.348507 
L 290.52 198.925695 
L 293.04 194.503643 
L 295.92 188.991148 
L 299.88 180.857599 
L 313.2 152.981144 
L 314.64 150.214159 
L 315 150.384509 
L 316.08 151.41155 
L 318.24 153.889334 
L 320.4 156.735879 
L 322.56 159.98535 
L 324.72 163.679737 
L 326.88 167.86005 
L 329.04 172.569473 
L 331.2 177.851944 
L 333.36 183.753631 
L 335.52 190.32357 
L 337.68 197.614425 
L 339.84 205.68372 
L 341.64 213.046582 
L 342 212.850828 
L 343.08 211.356421 
L 345.24 208.241558 
L 345.24 208.241558 
" clip-path="url(#p2ed3022b6c)" style="fill: none; stroke-dasharray: 7.4,3.2; stroke-dashoffset: 0; stroke: #ff7f0e; stroke-width: 2"/>
   </g>
   <g id="patch_3">
    <path d="M 86.4 345.6 
L 86.4 86.4 
" style="fill: none; stroke: #262626; stroke-width: 1.25; stroke-linejoin: miter; stroke-linecap: square"/>
   </g>
   <g id="patch_4">
    <path d="M 86.4 345.6 
L 345.6 345.6 
" style="fill: none; stroke: #262626; stroke-width: 1.25; stroke-linejoin: miter; stroke-linecap: square"/>
   </g>
   <g id="legend_1">
    <g id="patch_5">
     <path d="M 96.2 338.6 
L 312.979062 338.6 
Q 315.779063 338.6 315.779063 335.8 
L 315.779063 297.593125 
Q 315.779063 294.793125 312.979062 294.793125 
L 96.2 294.793125 
Q 93.4 294.793125 93.4 297.593125 
L 93.4 335.8 
Q 93.4 338.6 96.2 338.6 
z
" style="fill: #ffffff; opacity: 0.8; stroke: #cccccc; stroke-linejoin: miter"/>
    </g>
    <g id="line2d_36">
     <path d="M 99 305.514063 
L 113 305.514063 
L 127 305.514063 
" style="fill: none; stroke: #1f77b4; stroke-width: 2; stroke-linecap: round"/>
    </g>
    <g id="text_18">
     <text style="fill: #262626; font: 14px 'Arial', 'DejaVu Sans', 'Liberation Sans', 'Bitstream Vera Sans', sans-serif; text-anchor: start" x="138.2" y="310.414062" transform="rotate(-0 138.2 310.414062)">Case outbreak risk</text>
    </g>
    <g id="line2d_37">
     <path d="M 99 325.3175 
L 113 325.3175 
L 127 325.3175 
" style="fill: none; stroke-dasharray: 7.4,3.2; stroke-dashoffset: 0; stroke: #ff7f0e; stroke-width: 2"/>
    </g>
    <g id="text_19">
     <text style="fill: #262626; font: 14px 'Arial', 'DejaVu Sans', 'Liberation Sans', 'Bitstream Vera Sans', sans-serif; text-anchor: start" x="138.2" y="330.2175" transform="rotate(-0 138.2 330.2175)">Instantaneous outbreak risk</text>
    </g>
   </g>
  </g>
 </g>
 <defs>
  <clipPath id="p2ed3022b6c">
   <rect x="86.4" y="86.4" width="259.2" height="259.2"/>
  </clipPath>
 </defs>
</svg>
