<?xml version='1.0' encoding='ASCII' standalone='yes'?>
<svg xmlns="http://www.w3.org/2000/svg" xmlns:xlink="http://www.w3.org/1999/xlink" version="1.1" width="680px" height="335px">
  <g>
    <g transform="translate(-25, -60) scale(1 1) "><metadata>
  <rdf:RDF xmlns:dc="http://purl.org/dc/elements/1.1/" xmlns:cc="http://creativecommons.org/ns#" xmlns:rdf="http://www.w3.org/1999/02/22-rdf-syntax-ns#">
   <cc:Work>
    <dc:type rdf:resource="http://purl.org/dc/dcmitype/StillImage"/>
    <dc:date>2024-06-25T10:23:03.949011</dc:date>
    <dc:format>image/svg+xml</dc:format>
    <dc:creator>
     <cc:Agent>
      <dc:title>Matplotlib v3.8.4, https://matplotlib.org/</dc:title>
     </cc:Agent>
    </dc:creator>
   </cc:Work>
  </rdf:RDF>
 </metadata>
 <defs>
  <style type="text/css">*{stroke-linejoin: round; stroke-linecap: butt}</style>
 </defs>
 <g id="figure_1">
  <g id="patch_1">
   <path d="M 0 432  L 432 432  L 432 0  L 0 0  L 0 432  z " style="fill: none"/>
  </g>
  <g id="axes_1">
   <g id="patch_2">
    <path d="M 86.4 345.6  L 345.6 345.6  L 345.6 86.4  L 86.4 86.4  L 86.4 345.6  z " style="fill: none"/>
   </g>
   <g id="matplotlib.axis_1">
    <g id="xtick_1">
     <g id="line2d_1">
      <defs>
       <path id="m01ccb0afe3" d="M 0 0  L 0 6  " style="stroke: #262626; stroke-width: 1.25"/>
      </defs>
      <g>
       <use xlink:href="#m01ccb0afe3" x="86.4" y="345.6" style="fill: #262626; stroke: #262626; stroke-width: 1.25"/>
      </g>
     </g>
     <g id="text_1">
      <text style="fill: #262626; font: 16px 'Arial', 'DejaVu Sans', 'Liberation Sans', 'Bitstream Vera Sans', sans-serif; text-anchor: middle" x="86.4" y="366.5525" transform="rotate(-0 86.4 366.5525)">0</text>
     </g>
    </g>
    <g id="xtick_2">
     <g id="line2d_2">
      <g>
       <use xlink:href="#m01ccb0afe3" x="172.8" y="345.6" style="fill: #262626; stroke: #262626; stroke-width: 1.25"/>
      </g>
     </g>
     <g id="text_2">
      <text style="fill: #262626; font: 16px 'Arial', 'DejaVu Sans', 'Liberation Sans', 'Bitstream Vera Sans', sans-serif; text-anchor: middle" x="172.8" y="366.5525" transform="rotate(-0 172.8 366.5525)">1</text>
     </g>
    </g>
    <g id="xtick_3">
     <g id="line2d_3">
      <g>
       <use xlink:href="#m01ccb0afe3" x="259.2" y="345.6" style="fill: #262626; stroke: #262626; stroke-width: 1.25"/>
      </g>
     </g>
     <g id="text_3">
      <text style="fill: #262626; font: 16px 'Arial', 'DejaVu Sans', 'Liberation Sans', 'Bitstream Vera Sans', sans-serif; text-anchor: middle" x="259.2" y="366.5525" transform="rotate(-0 259.2 366.5525)">2</text>
     </g>
    </g>
    <g id="xtick_4">
     <g id="line2d_4">
      <g>
       <use xlink:href="#m01ccb0afe3" x="345.6" y="345.6" style="fill: #262626; stroke: #262626; stroke-width: 1.25"/>
      </g>
     </g>
     <g id="text_4">
      <text style="fill: #262626; font: 16px 'Arial', 'DejaVu Sans', 'Liberation Sans', 'Bitstream Vera Sans', sans-serif; text-anchor: middle" x="345.6" y="366.5525" transform="rotate(-0 345.6 366.5525)">3</text>
     </g>
    </g>
    <g id="text_5">
     <!-- Individual infectiousness factor, $\alpha$ -->
     <g style="fill: #262626" transform="translate(97.28 385.185)">
      <text>
       <tspan style="font: 16px 'Arial'" x="0 4.445312 13.34375 22.242188 25.796875 33.796875 37.351562 46.25 55.148438 64.046875 67.601562 72.046875 75.601562 84.5 88.945312 97.84375 105.84375 110.289062 113.84375 122.742188 131.640625 139.640625 148.539062 157.4375 165.4375 173.4375 177.882812 182.328125 191.226562 199.226562 203.671875 212.570312 217.898438 222.34375" y="-0.34375">Individual&#160;infectiousness&#160;factor,&#160;</tspan>
       <tspan style="font: oblique 16px 'DejaVu Sans'" x="226.789062" y="-0.34375">&#945;</tspan>
      </text>
     </g>
    </g>
   </g>
   <g id="matplotlib.axis_2">
    <g id="ytick_1">
     <g id="line2d_5">
      <defs>
       <path id="m99bd283b3c" d="M 0 0  L -6 0  " style="stroke: #262626; stroke-width: 1.25"/>
      </defs>
      <g>
       <use xlink:href="#m99bd283b3c" x="86.4" y="345.6" style="fill: #262626; stroke: #262626; stroke-width: 1.25"/>
      </g>
     </g>
     <g id="text_6">
      <text style="fill: #262626; font: 16px 'Arial', 'DejaVu Sans', 'Liberation Sans', 'Bitstream Vera Sans', sans-serif; text-anchor: end" x="76.9" y="351.32625" transform="rotate(-0 76.9 351.32625)">0</text>
     </g>
    </g>
    <g id="ytick_2">
     <g id="line2d_6">
      <g>
       <use xlink:href="#m99bd283b3c" x="86.4" y="293.76" style="fill: #262626; stroke: #262626; stroke-width: 1.25"/>
      </g>
     </g>
     <g id="text_7">
      <text style="fill: #262626; font: 16px 'Arial', 'DejaVu Sans', 'Liberation Sans', 'Bitstream Vera Sans', sans-serif; text-anchor: end" x="76.9" y="299.48625" transform="rotate(-0 76.9 299.48625)">1</text>
     </g>
    </g>
    <g id="ytick_3">
     <g id="line2d_7">
      <g>
       <use xlink:href="#m99bd283b3c" x="86.4" y="241.92" style="fill: #262626; stroke: #262626; stroke-width: 1.25"/>
      </g>
     </g>
     <g id="text_8">
      <text style="fill: #262626; font: 16px 'Arial', 'DejaVu Sans', 'Liberation Sans', 'Bitstream Vera Sans', sans-serif; text-anchor: end" x="76.9" y="247.64625" transform="rotate(-0 76.9 247.64625)">2</text>
     </g>
    </g>
    <g id="ytick_4">
     <g id="line2d_8">
      <g>
       <use xlink:href="#m99bd283b3c" x="86.4" y="190.08" style="fill: #262626; stroke: #262626; stroke-width: 1.25"/>
      </g>
     </g>
     <g id="text_9">
      <text style="fill: #262626; font: 16px 'Arial', 'DejaVu Sans', 'Liberation Sans', 'Bitstream Vera Sans', sans-serif; text-anchor: end" x="76.9" y="195.80625" transform="rotate(-0 76.9 195.80625)">3</text>
     </g>
    </g>
    <g id="ytick_5">
     <g id="line2d_9">
      <g>
       <use xlink:href="#m99bd283b3c" x="86.4" y="138.24" style="fill: #262626; stroke: #262626; stroke-width: 1.25"/>
      </g>
     </g>
     <g id="text_10">
      <text style="fill: #262626; font: 16px 'Arial', 'DejaVu Sans', 'Liberation Sans', 'Bitstream Vera Sans', sans-serif; text-anchor: end" x="76.9" y="143.96625" transform="rotate(-0 76.9 143.96625)">4</text>
     </g>
    </g>
    <g id="ytick_6">
     <g id="line2d_10">
      <g>
       <use xlink:href="#m99bd283b3c" x="86.4" y="86.4" style="fill: #262626; stroke: #262626; stroke-width: 1.25"/>
      </g>
     </g>
     <g id="text_11">
      <text style="fill: #262626; font: 16px 'Arial', 'DejaVu Sans', 'Liberation Sans', 'Bitstream Vera Sans', sans-serif; text-anchor: end" x="76.9" y="92.12625" transform="rotate(-0 76.9 92.12625)">5</text>
     </g>
    </g>
    <g id="text_12">
     <text style="fill: #262626; font: 16px 'Arial', 'DejaVu Sans', 'Liberation Sans', 'Bitstream Vera Sans', sans-serif; text-anchor: middle" x="60.635" y="216" transform="rotate(-90 60.635 216)">Density</text>
    </g>
   </g>
   <g id="line2d_11">
    <path d="M 87.075665 -1  L 87.091269 12.053205  L 87.436904 114.1267  L 87.782538 166.99965  L 88.473807 221.705308  L 89.165077 250.04347  L 89.856346 267.492293  L 90.547615 279.365648  L 91.238884 287.991879  L 91.930153 294.556142  L 92.967057 301.923078  L 94.00396 307.367856  L 95.040864 311.563739  L 96.077768 314.900986  L 97.114671 317.62179  L 98.49721 320.556832  L 99.879748 322.91716  L 101.262286 324.858555  L 102.990459 326.851141  L 104.718632 328.485075  L 106.792439 330.09706  L 108.866247 331.425217  L 111.285689 332.707918  L 114.050765 333.911698  L 117.161476 335.019217  L 120.963456 336.114555  L 125.111071 337.075348  L 130.29559 338.032655  L 136.171377 338.887456  L 143.429703 339.711165  L 152.416202 340.491213  L 163.476508 341.212532  L 177.30189 341.87798  L 194.929253 342.49085  L 217.741134 343.04961  L 248.156976 343.558723  L 289.633123 344.015707  L 345.625923 344.407181  L 345.625923 344.407181  " clip-path="url(#p0938b41bd1)" style="fill: none; stroke: #d55e00; stroke-width: 2; stroke-linecap: round"/>
   </g>
   <g id="line2d_12">
    <path d="M 86.947484 -1  L 87.091269 59.440275  L 87.436904 120.693321  L 87.782538 156.114412  L 88.473807 196.918233  L 89.165077 220.539768  L 89.856346 236.325785  L 90.547615 247.791605  L 91.238884 256.587111  L 92.275788 266.610997  L 93.312691 274.185425  L 94.349595 280.160769  L 95.386499 285.025981  L 96.769037 290.294303  L 98.151575 294.567177  L 99.534113 298.121108  L 100.916652 301.136202  L 102.644824 304.330963  L 104.372997 307.038091  L 106.10117 309.369631  L 108.174977 311.781517  L 110.248785 313.862684  L 112.668227 315.963635  L 115.087669 317.786049  L 117.852745 319.599253  L 120.963456 321.366875  L 124.419802 323.064635  L 128.221782 324.677795  L 132.369397 326.198711  L 137.208281 327.726343  L 142.392799 329.132333  L 148.268587 330.500822  L 155.181278 331.873273  L 162.785239 333.154053  L 171.426103 334.386019  L 181.449505 335.58737  L 192.855446 336.728376  L 205.989559 337.817391  L 221.19748 338.853008  L 239.170477 339.845616  L 259.908551 340.762244  L 284.448605 341.617337  L 313.481908 342.398991  L 345.625923 343.058331  L 345.625923 343.058331  " clip-path="url(#p0938b41bd1)" style="fill: none; stroke: #0173b2; stroke-width: 2; stroke-linecap: round"/>
   </g>
   <g id="line2d_13">
    <path d="M 86.4 293.76  L 92.621422 297.361626  L 98.842844 300.713026  L 105.409901 303.998341  L 112.322592 307.197136  L 119.235284 310.149972  L 126.493609 313.00641  L 134.09757 315.752328  L 142.047165 318.376035  L 150.342394 320.868245  L 158.983258 323.222006  L 167.969757 325.432596  L 177.30189 327.497377  L 187.325293 329.48025  L 197.694329 331.303236  L 208.754635 333.021105  L 220.506211 334.620753  L 233.294689 336.131296  L 246.774437 337.49909  L 261.636724 338.77932  L 277.881548 339.94839  L 295.508911 340.991419  L 315.210081 341.93108  L 337.330693 342.759808  L 345.625923 343.019813  L 345.625923 343.019813  " clip-path="url(#p0938b41bd1)" style="fill: none; stroke: #029e73; stroke-width: 2; stroke-linecap: round"/>
   </g>
   <g id="line2d_14">
    <path d="M 86.4 345.6  L 103.681728 345.500943  L 107.138074 345.257403  L 109.90315 344.832614  L 111.976958 344.307954  L 114.050765 343.549965  L 115.778938 342.703629  L 117.507111 341.633579  L 119.235284 340.317237  L 120.963456 338.73752  L 122.691629 336.884  L 124.765437 334.294774  L 126.839244 331.317505  L 129.258686 327.389919  L 132.023762 322.388995  L 135.480108 315.581533  L 145.157876 296.126204  L 147.922952 291.2591  L 150.342394 287.486405  L 152.416202 284.675581  L 154.144374 282.659795  L 155.872547 280.957158  L 157.60072 279.577293  L 159.328893 278.524664  L 160.711431 277.918055  L 162.093969 277.518415  L 163.476508 277.321759  L 164.859046 277.322564  L 166.241584 277.513934  L 167.969757 278.008689  L 169.69793 278.770434  L 171.426103 279.779127  L 173.49991 281.285123  L 175.573717 283.076565  L 177.993159 285.473804  L 180.758236 288.540685  L 184.214581 292.730466  L 189.3991 299.418165  L 197.348695 309.66818  L 201.49631 314.665021  L 205.29829 318.908743  L 208.754635 322.445402  L 212.210981 325.657244  L 215.321692 328.266329  L 218.432403 330.612828  L 221.543114 332.70627  L 224.99946 334.751943  L 228.455806 336.524014  L 231.912151 338.046971  L 235.714131 339.46482  L 239.516112 340.645516  L 243.663726 341.700712  L 248.156976 342.612969  L 253.341494 343.422549  L 259.217282 344.094071  L 265.784338 344.614892  L 273.733933 345.020064  L 284.10297 345.316374  L 299.310891 345.504945  L 327.307291 345.588687  L 345.625923 345.597374  L 345.625923 345.597374  " clip-path="url(#p0938b41bd1)" style="fill: none; stroke: #de8f05; stroke-width: 2; stroke-linecap: round"/>
   </g>
   <g id="line2d_15">
    <path d="M 86.4 345.6  L 142.738434 345.49019  L 144.812241 345.243187  L 146.194779 344.870071  L 147.231683 344.394228  L 148.268587 343.664668  L 149.305491 342.578884  L 150.342394 341.009124  L 151.379298 338.803019  L 152.416202 335.787339  L 153.453105 331.775507  L 154.490009 326.579197  L 155.526913 320.02377  L 156.563816 311.966721  L 157.60072 302.317656  L 158.983258 286.955745  L 160.365797 268.945406  L 162.093969 243.537509  L 166.241584 180.53203  L 167.624122 163.271525  L 168.661026 152.825589  L 169.69793 144.962387  L 170.389199 141.296461  L 171.080468 138.954085  L 171.426103 138.287777  L 171.771737 137.959287  L 172.117372 137.96748  L 172.463006 138.30961  L 172.808641 138.98136  L 173.49991 141.288955  L 174.191179 144.826717  L 174.882448 149.510559  L 175.919352 158.459068  L 176.956256 169.355941  L 178.338794 186.148721  L 181.10387 223.484619  L 183.523312 255.392186  L 185.251485 275.635146  L 186.634023 289.739633  L 188.016562 301.832974  L 189.3991 311.930955  L 190.781638 320.157057  L 191.818542 325.212753  L 192.855446 329.419575  L 193.892349 332.878392  L 194.929253 335.689555  L 195.966157 337.948978  L 197.00306 339.745432  L 198.039964 341.158893  L 199.076868 342.259754  L 200.459406 343.34485  L 201.841944 344.099435  L 203.224482 344.61561  L 204.952655 345.030025  L 207.372097 345.343948  L 210.828443 345.523759  L 217.741134 345.594603  L 274.770837 345.6  L 345.625923 345.6  L 345.625923 345.6  " clip-path="url(#p0938b41bd1)" style="fill: none; stroke: #56b4e9; stroke-width: 2; stroke-linecap: round"/>
   </g>
   <g id="line2d_16">
    <path d="M 172.8 345.6  L 172.8 86.4  " clip-path="url(#p0938b41bd1)" style="fill: none; stroke-dasharray: 7.4,3.2; stroke-dashoffset: 0; stroke: #000000; stroke-width: 2"/>
   </g>
   <g id="patch_3">
    <path d="M 86.4 345.6  L 86.4 86.4  " style="fill: none; stroke: #262626; stroke-width: 1.25; stroke-linejoin: miter; stroke-linecap: square"/>
   </g>
   <g id="patch_4">
    <path d="M 86.4 345.6  L 345.6 345.6  " style="fill: none; stroke: #262626; stroke-width: 1.25; stroke-linejoin: miter; stroke-linecap: square"/>
   </g>
   <g id="legend_1">
    <g id="patch_5">
     <path d="M 239.62 216.420625  L 335.8 216.420625  Q 338.6 216.420625 338.6 213.620625  L 338.6 96.2  Q 338.6 93.4 335.8 93.4  L 239.62 93.4  Q 236.82 93.4 236.82 96.2  L 236.82 213.620625  Q 236.82 216.420625 239.62 216.420625  z " style="fill: #ffffff; opacity: 0.8; stroke: #cccccc; stroke-linejoin: miter"/>
    </g>
    <g id="line2d_17">
     <path d="M 242.42 104.120937  L 256.42 104.120937  L 270.42 104.120937  " style="fill: none; stroke: #d55e00; stroke-width: 2; stroke-linecap: round"/>
    </g>
    <g id="text_13">
     <!-- $\it{k}$ = 0.1 -->
     <g style="fill: #262626" transform="translate(281.62 109.020937)">
      <text>
       <tspan style="font: oblique 14px 'DejaVu Sans'" x="0" y="-0.359375">k</tspan>
       <tspan style="font: 14px 'Arial'" x="8.107422 11.99707 20.172852 24.0625 31.848633 35.738281" y="-0.359375">&#160;=&#160;0.1</tspan>
      </text>
     </g>
    </g>
    <g id="line2d_18">
     <path d="M 242.42 123.924375  L 256.42 123.924375  L 270.42 123.924375  " style="fill: none; stroke: #0173b2; stroke-width: 2; stroke-linecap: round"/>
    </g>
    <g id="text_14">
     <!-- $\it{k}$ = 0.41 -->
     <g style="fill: #262626" transform="translate(281.62 128.824375)">
      <text>
       <tspan style="font: oblique 14px 'DejaVu Sans'" x="0" y="-0.359375">k</tspan>
       <tspan style="font: 14px 'Arial'" x="8.107422 11.99707 20.172852 24.0625 31.848633 35.738281 43.524414" y="-0.359375">&#160;=&#160;0.41</tspan>
      </text>
     </g>
    </g>
    <g id="line2d_19">
     <path d="M 242.42 143.727812  L 256.42 143.727812  L 270.42 143.727812  " style="fill: none; stroke: #029e73; stroke-width: 2; stroke-linecap: round"/>
    </g>
    <g id="text_15">
     <!-- $\it{k}$ = 1 -->
     <g style="fill: #262626" transform="translate(281.62 148.627812)">
      <text>
       <tspan style="font: oblique 14px 'DejaVu Sans'" x="0" y="-0.359375">k</tspan>
       <tspan style="font: 14px 'Arial'" x="8.107422 11.99707 20.172852 24.0625" y="-0.359375">&#160;=&#160;1</tspan>
      </text>
     </g>
    </g>
    <g id="line2d_20">
     <path d="M 242.42 163.53125  L 256.42 163.53125  L 270.42 163.53125  " style="fill: none; stroke: #de8f05; stroke-width: 2; stroke-linecap: round"/>
    </g>
    <g id="text_16">
     <!-- $\it{k}$ = 10 -->
     <g style="fill: #262626" transform="translate(281.62 168.43125)">
      <text>
       <tspan style="font: oblique 14px 'DejaVu Sans'" x="0" y="-0.359375">k</tspan>
       <tspan style="font: 14px 'Arial'" x="8.107422 11.99707 20.172852 24.0625 31.848633" y="-0.359375">&#160;=&#160;10</tspan>
      </text>
     </g>
    </g>
    <g id="line2d_21">
     <path d="M 242.42 183.334687  L 256.42 183.334687  L 270.42 183.334687  " style="fill: none; stroke: #56b4e9; stroke-width: 2; stroke-linecap: round"/>
    </g>
    <g id="text_17">
     <!-- $\it{k}$ = 100 -->
     <g style="fill: #262626" transform="translate(281.62 188.234687)">
      <text>
       <tspan style="font: oblique 14px 'DejaVu Sans'" x="0" y="-0.359375">k</tspan>
       <tspan style="font: 14px 'Arial'" x="8.107422 11.99707 20.172852 24.0625 31.848633 39.634766" y="-0.359375">&#160;=&#160;100</tspan>
      </text>
     </g>
    </g>
    <g id="line2d_22">
     <path d="M 242.42 203.138125  L 256.42 203.138125  L 270.42 203.138125  " style="fill: none; stroke-dasharray: 7.4,3.2; stroke-dashoffset: 0; stroke: #000000; stroke-width: 2"/>
    </g>
    <g id="text_18">
     <!-- $\it{k}$ = $\infty$ -->
     <g style="fill: #262626" transform="translate(281.62 208.038125)">
      <text>
       <tspan style="font: oblique 14px 'DejaVu Sans'" x="0" y="-0.359375">k</tspan>
       <tspan style="font: 14px 'Arial'" x="8.107422 11.99707 20.172852" y="-0.359375">&#160;=&#160;</tspan>
       <tspan style="font: 14px 'DejaVu Sans'" x="24.0625" y="-0.359375">&#8734;</tspan>
      </text>
     </g>
    </g>
   </g>
  </g>
 </g>
 <defs>
  <clipPath id="p0938b41bd1">
   <rect x="86.4" y="86.4" width="259.2" height="259.2"/>
  </clipPath>
 </defs>
</g>
    <g transform="translate(315, -60) scale(1 1) "><metadata>
  <rdf:RDF xmlns:dc="http://purl.org/dc/elements/1.1/" xmlns:cc="http://creativecommons.org/ns#" xmlns:rdf="http://www.w3.org/1999/02/22-rdf-syntax-ns#">
   <cc:Work>
    <dc:type rdf:resource="http://purl.org/dc/dcmitype/StillImage"/>
    <dc:date>2024-06-25T10:23:04.080220</dc:date>
    <dc:format>image/svg+xml</dc:format>
    <dc:creator>
     <cc:Agent>
      <dc:title>Matplotlib v3.8.4, https://matplotlib.org/</dc:title>
     </cc:Agent>
    </dc:creator>
   </cc:Work>
  </rdf:RDF>
 </metadata>
 <defs>
  <style type="text/css">*{stroke-linejoin: round; stroke-linecap: butt}</style>
 </defs>
 <g id="figure_1">
  <g id="patch_1">
   <path d="M 0 432  L 432 432  L 432 0  L 0 0  L 0 432  z " style="fill: none"/>
  </g>
  <g id="axes_1">
   <g id="patch_2">
    <path d="M 86.4 345.6  L 345.6 345.6  L 345.6 86.4  L 86.4 86.4  L 86.4 345.6  z " style="fill: none"/>
   </g>
   <g id="matplotlib.axis_1">
    <g id="xtick_1">
     <g id="line2d_1">
      <defs>
       <path id="m009dedaaa4" d="M 0 0  L 0 6  " style="stroke: #262626; stroke-width: 1.25"/>
      </defs>
      <g>
       <use xlink:href="#m009dedaaa4" x="86.4" y="345.6" style="fill: #262626; stroke: #262626; stroke-width: 1.25"/>
      </g>
     </g>
     <g id="text_1">
      <text style="fill: #262626; font: 16px 'Arial', 'DejaVu Sans', 'Liberation Sans', 'Bitstream Vera Sans', sans-serif; text-anchor: middle" x="86.4" y="366.5525" transform="rotate(-0 86.4 366.5525)">0.0</text>
     </g>
    </g>
    <g id="xtick_2">
     <g id="line2d_2">
      <g>
       <use xlink:href="#m009dedaaa4" x="138.24" y="345.6" style="fill: #262626; stroke: #262626; stroke-width: 1.25"/>
      </g>
     </g>
     <g id="text_2">
      <text style="fill: #262626; font: 16px 'Arial', 'DejaVu Sans', 'Liberation Sans', 'Bitstream Vera Sans', sans-serif; text-anchor: middle" x="138.24" y="366.5525" transform="rotate(-0 138.24 366.5525)">0.2</text>
     </g>
    </g>
    <g id="xtick_3">
     <g id="line2d_3">
      <g>
       <use xlink:href="#m009dedaaa4" x="190.08" y="345.6" style="fill: #262626; stroke: #262626; stroke-width: 1.25"/>
      </g>
     </g>
     <g id="text_3">
      <text style="fill: #262626; font: 16px 'Arial', 'DejaVu Sans', 'Liberation Sans', 'Bitstream Vera Sans', sans-serif; text-anchor: middle" x="190.08" y="366.5525" transform="rotate(-0 190.08 366.5525)">0.4</text>
     </g>
    </g>
    <g id="xtick_4">
     <g id="line2d_4">
      <g>
       <use xlink:href="#m009dedaaa4" x="241.92" y="345.6" style="fill: #262626; stroke: #262626; stroke-width: 1.25"/>
      </g>
     </g>
     <g id="text_4">
      <text style="fill: #262626; font: 16px 'Arial', 'DejaVu Sans', 'Liberation Sans', 'Bitstream Vera Sans', sans-serif; text-anchor: middle" x="241.92" y="366.5525" transform="rotate(-0 241.92 366.5525)">0.6</text>
     </g>
    </g>
    <g id="xtick_5">
     <g id="line2d_5">
      <g>
       <use xlink:href="#m009dedaaa4" x="293.76" y="345.6" style="fill: #262626; stroke: #262626; stroke-width: 1.25"/>
      </g>
     </g>
     <g id="text_5">
      <text style="fill: #262626; font: 16px 'Arial', 'DejaVu Sans', 'Liberation Sans', 'Bitstream Vera Sans', sans-serif; text-anchor: middle" x="293.76" y="366.5525" transform="rotate(-0 293.76 366.5525)">0.8</text>
     </g>
    </g>
    <g id="xtick_6">
     <g id="line2d_6">
      <g>
       <use xlink:href="#m009dedaaa4" x="345.6" y="345.6" style="fill: #262626; stroke: #262626; stroke-width: 1.25"/>
      </g>
     </g>
     <g id="text_6">
      <text style="fill: #262626; font: 16px 'Arial', 'DejaVu Sans', 'Liberation Sans', 'Bitstream Vera Sans', sans-serif; text-anchor: middle" x="345.6" y="366.5525" transform="rotate(-0 345.6 366.5525)">1.0</text>
     </g>
    </g>
    <g id="text_7">
     <text style="fill: #262626; font: 16px 'Arial', 'DejaVu Sans', 'Liberation Sans', 'Bitstream Vera Sans', sans-serif; text-anchor: middle" x="216" y="385.38" transform="rotate(-0 216 385.38)">Most infectious proportion of cases</text>
    </g>
   </g>
   <g id="matplotlib.axis_2">
    <g id="ytick_1">
     <g id="line2d_7">
      <defs>
       <path id="m888421c7d4" d="M 0 0  L -6 0  " style="stroke: #262626; stroke-width: 1.25"/>
      </defs>
      <g>
       <use xlink:href="#m888421c7d4" x="86.4" y="345.6" style="fill: #262626; stroke: #262626; stroke-width: 1.25"/>
      </g>
     </g>
     <g id="text_8">
      <text style="fill: #262626; font: 16px 'Arial', 'DejaVu Sans', 'Liberation Sans', 'Bitstream Vera Sans', sans-serif; text-anchor: end" x="76.9" y="351.32625" transform="rotate(-0 76.9 351.32625)">0.0</text>
     </g>
    </g>
    <g id="ytick_2">
     <g id="line2d_8">
      <g>
       <use xlink:href="#m888421c7d4" x="86.4" y="294.273267" style="fill: #262626; stroke: #262626; stroke-width: 1.25"/>
      </g>
     </g>
     <g id="text_9">
      <text style="fill: #262626; font: 16px 'Arial', 'DejaVu Sans', 'Liberation Sans', 'Bitstream Vera Sans', sans-serif; text-anchor: end" x="76.9" y="299.999517" transform="rotate(-0 76.9 299.999517)">0.2</text>
     </g>
    </g>
    <g id="ytick_3">
     <g id="line2d_9">
      <g>
       <use xlink:href="#m888421c7d4" x="86.4" y="242.946535" style="fill: #262626; stroke: #262626; stroke-width: 1.25"/>
      </g>
     </g>
     <g id="text_10">
      <text style="fill: #262626; font: 16px 'Arial', 'DejaVu Sans', 'Liberation Sans', 'Bitstream Vera Sans', sans-serif; text-anchor: end" x="76.9" y="248.672785" transform="rotate(-0 76.9 248.672785)">0.4</text>
     </g>
    </g>
    <g id="ytick_4">
     <g id="line2d_10">
      <g>
       <use xlink:href="#m888421c7d4" x="86.4" y="191.619802" style="fill: #262626; stroke: #262626; stroke-width: 1.25"/>
      </g>
     </g>
     <g id="text_11">
      <text style="fill: #262626; font: 16px 'Arial', 'DejaVu Sans', 'Liberation Sans', 'Bitstream Vera Sans', sans-serif; text-anchor: end" x="76.9" y="197.346052" transform="rotate(-0 76.9 197.346052)">0.6</text>
     </g>
    </g>
    <g id="ytick_5">
     <g id="line2d_11">
      <g>
       <use xlink:href="#m888421c7d4" x="86.4" y="140.293069" style="fill: #262626; stroke: #262626; stroke-width: 1.25"/>
      </g>
     </g>
     <g id="text_12">
      <text style="fill: #262626; font: 16px 'Arial', 'DejaVu Sans', 'Liberation Sans', 'Bitstream Vera Sans', sans-serif; text-anchor: end" x="76.9" y="146.019319" transform="rotate(-0 76.9 146.019319)">0.8</text>
     </g>
    </g>
    <g id="ytick_6">
     <g id="line2d_12">
      <g>
       <use xlink:href="#m888421c7d4" x="86.4" y="88.966337" style="fill: #262626; stroke: #262626; stroke-width: 1.25"/>
      </g>
     </g>
     <g id="text_13">
      <text style="fill: #262626; font: 16px 'Arial', 'DejaVu Sans', 'Liberation Sans', 'Bitstream Vera Sans', sans-serif; text-anchor: end" x="76.9" y="94.692587" transform="rotate(-0 76.9 94.692587)">1.0</text>
     </g>
    </g>
    <g id="text_14">
     <text style="fill: #262626; font: 16px 'Arial', 'DejaVu Sans', 'Liberation Sans', 'Bitstream Vera Sans', sans-serif; text-anchor: middle" x="47.48" y="216" transform="rotate(-90 47.48 216)">Proportion of transmission</text>
    </g>
   </g>
   <g id="line2d_13">
    <path d="M 345.6 88.966337  L 206.550503 89.116462  L 192.248722 89.407465  L 182.340979 89.845825  L 175.260681 90.371423  L 169.062757 91.052072  L 163.982526 91.821909  L 159.307096 92.752316  L 155.266174 93.77286  L 151.469939 94.956919  L 147.912058 96.306026  L 144.732715 97.744757  L 141.717579 99.347883  L 138.861991 101.114888  L 136.158669 103.044548  L 133.510503 105.212479  L 131.018452 107.538794  L 128.600315 110.097564  L 126.20686 112.961604  L 123.919501 116.047306  L 121.690972 119.424029  L 119.493629 123.157712  L 117.314052 127.309488  L 115.181945 131.860056  L 113.089519 136.859767  L 111.036273 142.350543  L 109.02671 148.364252  L 107.049313 154.989201  L 105.104714 162.292112  L 103.201906 170.314137  L 101.34299 179.127865  L 99.530094 188.818748  L 97.778064 199.408485  L 96.081415 211.048719  L 94.458669 223.748936  L 92.919953 237.569314  L 91.476901 252.563162  L 90.143771 268.764892  L 88.945208 286.068818  L 87.907912 304.281645  L 87.073523 322.834513  L 86.520427 339.805306  L 86.520427 339.805306  " clip-path="url(#pcab1690c2f)" style="fill: none; stroke: #d55e00; stroke-width: 2; stroke-linecap: round"/>
   </g>
   <g id="line2d_14">
    <path d="M 345.6 88.966337  L 312.568432 89.080301  L 298.936946 89.341267  L 287.534739 89.764199  L 277.227729 90.371489  L 267.627982 91.184431  L 259.606662 92.086989  L 251.720779 93.208413  L 244.811345 94.410353  L 237.905375 95.84401  L 231.709144 97.351479  L 225.481996 99.100606  L 219.815457 100.916899  L 214.11395 102.981353  L 208.877817 105.105577  L 203.613314 107.480953  L 198.358577 110.111939  L 193.503577 112.792884  L 188.660884 115.72584  L 183.857819 118.910508  L 179.40298 122.129051  L 174.987965 125.589745  L 170.632869 129.287966  L 166.354691 133.217286  L 162.167696 137.369537  L 158.083756 141.734897  L 154.112632 146.30199  L 150.094174 151.273351  L 146.228524 156.415363  L 142.375519 161.921751  L 138.701344 167.558104  L 135.084054 173.508039  L 131.55121 179.738535  L 128.026921 186.407059  L 124.558179 193.457647  L 121.184519 200.828847  L 117.938176 208.454903  L 114.781171 216.43296  L 111.699157 224.824655  L 108.696987 233.651533  L 105.835591 242.754402  L 103.09035 252.225064  L 100.468202 262.068013  L 97.974381 272.299526  L 95.645777 282.798072  L 93.492585 293.53864  L 91.54064 304.411813  L 89.820325 315.253024  L 88.369029 325.805373  L 87.235249 335.649573  L 86.510783 343.78456  L 86.400002 345.59993  L 86.400002 345.59993  " clip-path="url(#pcab1690c2f)" style="fill: none; stroke: #0173b2; stroke-width: 2; stroke-linecap: round"/>
   </g>
   <g id="line2d_15">
    <path d="M 345.6 88.966337  L 338.442359 89.065098  L 330.503902 89.410296  L 322.81548 89.988239  L 315.369215 90.783923  L 308.157482 91.78306  L 301.172894 92.972043  L 294.408296 94.337923  L 287.856759 95.868377  L 280.732607 97.772282  L 273.860388 99.853833  L 267.231193 102.098086  L 260.836427 104.49093  L 254.6678 107.019049  L 248.069279 109.971475  L 241.729514 113.059228  L 235.63836 116.267155  L 229.213611 119.917787  L 223.065449 123.679126  L 217.181966 127.534874  L 211.052112 131.831105  L 205.20957 136.203661  L 199.640871 140.63595  L 193.902269 145.487399  L 188.454477 150.373504  L 182.895961 155.655935  L 177.275929 161.31938  L 171.983213 166.967429  L 166.676968 172.955462  L 161.399088 179.25618  L 156.188466 185.837534  L 151.08059 192.663142  L 146.107232 199.692857  L 141.296234 206.883455  L 136.671381 214.189415  L 132.069302 221.87808  L 127.557902 229.86137  L 123.196574 238.044881  L 119.035242 246.33047  L 114.999223 254.869095  L 111.16336 263.507382  L 107.501606 272.303242  L 104.025225 281.23706  L 100.772415 290.212282  L 97.750788 299.204354  L 94.9785 308.157471  L 92.505714 316.894831  L 90.363716 325.269599  L 88.583922 333.109528  L 87.236128 340.023132  L 86.448837 345.136921  L 86.4 345.6  L 86.4 345.6  " clip-path="url(#pcab1690c2f)" style="fill: none; stroke: #029e73; stroke-width: 2; stroke-linecap: round"/>
   </g>
   <g id="line2d_16">
    <path d="M 345.6 88.966337  L 345.219262 89.070157  L 343.202205 89.811108  L 339.693998 91.35184  L 335.310688 93.511409  L 329.686049 96.536001  L 323.115045 100.340539  L 315.985478 104.735066  L 308.704279 109.467  L 300.588487 114.998046  L 291.716726 121.324975  L 282.189366 128.420906  L 273.406705 135.222483  L 264.29677 142.529856  L 254.948426 150.287427  L 245.451328 158.431539  L 235.893453 166.892565  L 226.358959 175.597054  L 215.591497 185.746705  L 205.062952 196.004484  L 194.865562 206.262494  L 185.076714 216.419483  L 175.758577 226.383116  L 165.896517 237.259737  L 156.73527 247.689773  L 147.407768 258.659244  L 138.983819 268.899487  L 130.742385 279.25968  L 122.923165 289.444214  L 115.734583 299.162098  L 108.929146 308.737161  L 102.880169 317.628748  L 97.614088 325.751575  L 93.165559 333.00309  L 89.601774 339.221106  L 87.169309 343.887016  L 86.4 345.6  L 86.4 345.6  " clip-path="url(#pcab1690c2f)" style="fill: none; stroke: #de8f05; stroke-width: 2; stroke-linecap: round"/>
   </g>
   <g id="line2d_17">
    <path d="M 345.6 88.966337  L 345.506943 89.028642  L 343.173026 90.773953  L 337.918484 94.952491  L 329.117805 102.251295  L 318.716763 111.156884  L 307.16401 121.296754  L 292.926677 134.073686  L 276.203818 149.41107  L 257.444552 166.986258  L 241.408926 182.293989  L 224.893581 198.320735  L 208.326263 214.659827  L 192.125235 230.893814  L 172.959792 250.438267  L 155.547694 268.538478  L 140.28536 284.705338  L 125.059882 301.161842  L 111.488437 316.175973  L 100.835063 328.273843  L 92.019602 338.616458  L 86.819113 345.037656  L 86.4 345.6  L 86.4 345.6  " clip-path="url(#pcab1690c2f)" style="fill: none; stroke: #56b4e9; stroke-width: 2; stroke-linecap: round"/>
   </g>
   <g id="line2d_18">
    <path d="M 86.4 345.6  L 345.6 88.966337  " clip-path="url(#pcab1690c2f)" style="fill: none; stroke-dasharray: 7.4,3.2; stroke-dashoffset: 0; stroke: #000000; stroke-width: 2"/>
   </g>
   <g id="patch_3">
    <path d="M 86.4 345.6  L 86.4 86.4  " style="fill: none; stroke: #262626; stroke-width: 1.25; stroke-linejoin: miter; stroke-linecap: square"/>
   </g>
   <g id="patch_4">
    <path d="M 86.4 345.6  L 345.6 345.6  " style="fill: none; stroke: #262626; stroke-width: 1.25; stroke-linejoin: miter; stroke-linecap: square"/>
   </g>
   <g id="legend_1">
    <g id="patch_5">
     <path d="M 239.62 338.6  L 335.8 338.6  Q 338.6 338.6 338.6 335.8  L 338.6 218.379375  Q 338.6 215.579375 335.8 215.579375  L 239.62 215.579375  Q 236.82 215.579375 236.82 218.379375  L 236.82 335.8  Q 236.82 338.6 239.62 338.6  z " style="fill: #ffffff; opacity: 0.8; stroke: #cccccc; stroke-linejoin: miter"/>
    </g>
    <g id="line2d_19">
     <path d="M 242.42 226.300312  L 256.42 226.300312  L 270.42 226.300312  " style="fill: none; stroke: #d55e00; stroke-width: 2; stroke-linecap: round"/>
    </g>
    <g id="text_15">
     <!-- $\it{k}$ = 0.1 -->
     <g style="fill: #262626" transform="translate(281.62 231.200312)">
      <text>
       <tspan style="font: oblique 14px 'DejaVu Sans'" x="0" y="-0.359375">k</tspan>
       <tspan style="font: 14px 'Arial'" x="8.107422 11.99707 20.172852 24.0625 31.848633 35.738281" y="-0.359375">&#160;=&#160;0.1</tspan>
      </text>
     </g>
    </g>
    <g id="line2d_20">
     <path d="M 242.42 246.10375  L 256.42 246.10375  L 270.42 246.10375  " style="fill: none; stroke: #0173b2; stroke-width: 2; stroke-linecap: round"/>
    </g>
    <g id="text_16">
     <!-- $\it{k}$ = 0.41 -->
     <g style="fill: #262626" transform="translate(281.62 251.00375)">
      <text>
       <tspan style="font: oblique 14px 'DejaVu Sans'" x="0" y="-0.359375">k</tspan>
       <tspan style="font: 14px 'Arial'" x="8.107422 11.99707 20.172852 24.0625 31.848633 35.738281 43.524414" y="-0.359375">&#160;=&#160;0.41</tspan>
      </text>
     </g>
    </g>
    <g id="line2d_21">
     <path d="M 242.42 265.907188  L 256.42 265.907188  L 270.42 265.907188  " style="fill: none; stroke: #029e73; stroke-width: 2; stroke-linecap: round"/>
    </g>
    <g id="text_17">
     <!-- $\it{k}$ = 1 -->
     <g style="fill: #262626" transform="translate(281.62 270.807187)">
      <text>
       <tspan style="font: oblique 14px 'DejaVu Sans'" x="0" y="-0.359375">k</tspan>
       <tspan style="font: 14px 'Arial'" x="8.107422 11.99707 20.172852 24.0625" y="-0.359375">&#160;=&#160;1</tspan>
      </text>
     </g>
    </g>
    <g id="line2d_22">
     <path d="M 242.42 285.710625  L 256.42 285.710625  L 270.42 285.710625  " style="fill: none; stroke: #de8f05; stroke-width: 2; stroke-linecap: round"/>
    </g>
    <g id="text_18">
     <!-- $\it{k}$ = 10 -->
     <g style="fill: #262626" transform="translate(281.62 290.610625)">
      <text>
       <tspan style="font: oblique 14px 'DejaVu Sans'" x="0" y="-0.359375">k</tspan>
       <tspan style="font: 14px 'Arial'" x="8.107422 11.99707 20.172852 24.0625 31.848633" y="-0.359375">&#160;=&#160;10</tspan>
      </text>
     </g>
    </g>
    <g id="line2d_23">
     <path d="M 242.42 305.514063  L 256.42 305.514063  L 270.42 305.514063  " style="fill: none; stroke: #56b4e9; stroke-width: 2; stroke-linecap: round"/>
    </g>
    <g id="text_19">
     <!-- $\it{k}$ = 100 -->
     <g style="fill: #262626" transform="translate(281.62 310.414062)">
      <text>
       <tspan style="font: oblique 14px 'DejaVu Sans'" x="0" y="-0.359375">k</tspan>
       <tspan style="font: 14px 'Arial'" x="8.107422 11.99707 20.172852 24.0625 31.848633 39.634766" y="-0.359375">&#160;=&#160;100</tspan>
      </text>
     </g>
    </g>
    <g id="line2d_24">
     <path d="M 242.42 325.3175  L 256.42 325.3175  L 270.42 325.3175  " style="fill: none; stroke-dasharray: 7.4,3.2; stroke-dashoffset: 0; stroke: #000000; stroke-width: 2"/>
    </g>
    <g id="text_20">
     <!-- $\it{k}$ = $\infty$ -->
     <g style="fill: #262626" transform="translate(281.62 330.2175)">
      <text>
       <tspan style="font: oblique 14px 'DejaVu Sans'" x="0" y="-0.359375">k</tspan>
       <tspan style="font: 14px 'Arial'" x="8.107422 11.99707 20.172852" y="-0.359375">&#160;=&#160;</tspan>
       <tspan style="font: 14px 'DejaVu Sans'" x="24.0625" y="-0.359375">&#8734;</tspan>
      </text>
     </g>
    </g>
   </g>
  </g>
 </g>
 <defs>
  <clipPath id="pcab1690c2f">
   <rect x="86.4" y="86.4" width="259.2" height="259.2"/>
  </clipPath>
 </defs>
</g>
    <text x="5" y="20" font-size="20" font-family="Verdana" font-weight="normal" letter-spacing="0" text-anchor="start" fill="black">A.</text>
    <text x="345" y="20" font-size="20" font-family="Verdana" font-weight="normal" letter-spacing="0" text-anchor="start" fill="black">B.</text>
  </g>
</svg>
