<?xml version='1.0' encoding='ASCII' standalone='yes'?>
<svg xmlns="http://www.w3.org/2000/svg" xmlns:xlink="http://www.w3.org/1999/xlink" version="1.1" width="340px" height="320px">
  <g>
    <g transform="translate(-25, -60) scale(1 1) "><metadata>
  <rdf:RDF xmlns:dc="http://purl.org/dc/elements/1.1/" xmlns:cc="http://creativecommons.org/ns#" xmlns:rdf="http://www.w3.org/1999/02/22-rdf-syntax-ns#">
   <cc:Work>
    <dc:type rdf:resource="http://purl.org/dc/dcmitype/StillImage"/>
    <dc:date>2025-03-11T08:37:50.758527</dc:date>
    <dc:format>image/svg+xml</dc:format>
    <dc:creator>
     <cc:Agent>
      <dc:title>Matplotlib v3.10.1, https://matplotlib.org/</dc:title>
     </cc:Agent>
    </dc:creator>
   </cc:Work>
  </rdf:RDF>
 </metadata>
 <defs>
  <style type="text/css">*{stroke-linejoin: round; stroke-linecap: butt}</style>
 </defs>
 <g id="figure_1">
  <g id="patch_1">
   <path d="M 0 432  L 432 432  L 432 0  L 0 0  L 0 432  z " style="fill: none"/>
  </g>
  <g id="axes_1">
   <g id="patch_2">
    <path d="M 86.4 345.6  L 345.6 345.6  L 345.6 86.4  L 86.4 86.4  L 86.4 345.6  z " style="fill: none"/>
   </g>
   <g id="matplotlib.axis_1">
    <g id="xtick_1">
     <g id="line2d_1">
      <defs>
       <path id="m461e31afa9" d="M 0 0  L 0 6  " style="stroke: #262626; stroke-width: 1.25"/>
      </defs>
      <g>
       <use xlink:href="#m461e31afa9" x="86.4" y="345.6" style="fill: #262626; stroke: #262626; stroke-width: 1.25"/>
      </g>
     </g>
     <g id="text_1">
      <text style="font-size: 16px; font-family: 'Arial', 'DejaVu Sans', 'Liberation Sans', 'Bitstream Vera Sans', sans-serif; text-anchor: middle; fill: #262626" x="86.4" y="366.5525" transform="rotate(-0 86.4 366.5525)">Jan</text>
     </g>
    </g>
    <g id="xtick_2">
     <g id="line2d_2">
      <g>
       <use xlink:href="#m461e31afa9" x="97.407123" y="345.6" style="fill: #262626; stroke: #262626; stroke-width: 1.25"/>
      </g>
     </g>
    </g>
    <g id="xtick_3">
     <g id="line2d_3">
      <g>
       <use xlink:href="#m461e31afa9" x="107.349041" y="345.6" style="fill: #262626; stroke: #262626; stroke-width: 1.25"/>
      </g>
     </g>
    </g>
    <g id="xtick_4">
     <g id="line2d_4">
      <g>
       <use xlink:href="#m461e31afa9" x="118.356164" y="345.6" style="fill: #262626; stroke: #262626; stroke-width: 1.25"/>
      </g>
     </g>
     <g id="text_2">
      <text style="font-size: 16px; font-family: 'Arial', 'DejaVu Sans', 'Liberation Sans', 'Bitstream Vera Sans', sans-serif; text-anchor: middle; fill: #262626" x="118.356164" y="366.5525" transform="rotate(-0 118.356164 366.5525)">Apr</text>
     </g>
    </g>
    <g id="xtick_5">
     <g id="line2d_5">
      <g>
       <use xlink:href="#m461e31afa9" x="129.008219" y="345.6" style="fill: #262626; stroke: #262626; stroke-width: 1.25"/>
      </g>
     </g>
    </g>
    <g id="xtick_6">
     <g id="line2d_6">
      <g>
       <use xlink:href="#m461e31afa9" x="140.015342" y="345.6" style="fill: #262626; stroke: #262626; stroke-width: 1.25"/>
      </g>
     </g>
    </g>
    <g id="xtick_7">
     <g id="line2d_7">
      <g>
       <use xlink:href="#m461e31afa9" x="150.667397" y="345.6" style="fill: #262626; stroke: #262626; stroke-width: 1.25"/>
      </g>
     </g>
     <g id="text_3">
      <text style="font-size: 16px; font-family: 'Arial', 'DejaVu Sans', 'Liberation Sans', 'Bitstream Vera Sans', sans-serif; text-anchor: middle; fill: #262626" x="150.667397" y="366.5525" transform="rotate(-0 150.667397 366.5525)">Jul</text>
     </g>
    </g>
    <g id="xtick_8">
     <g id="line2d_8">
      <g>
       <use xlink:href="#m461e31afa9" x="161.674521" y="345.6" style="fill: #262626; stroke: #262626; stroke-width: 1.25"/>
      </g>
     </g>
    </g>
    <g id="xtick_9">
     <g id="line2d_9">
      <g>
       <use xlink:href="#m461e31afa9" x="172.681644" y="345.6" style="fill: #262626; stroke: #262626; stroke-width: 1.25"/>
      </g>
     </g>
    </g>
    <g id="xtick_10">
     <g id="line2d_10">
      <g>
       <use xlink:href="#m461e31afa9" x="183.333699" y="345.6" style="fill: #262626; stroke: #262626; stroke-width: 1.25"/>
      </g>
     </g>
     <g id="text_4">
      <text style="font-size: 16px; font-family: 'Arial', 'DejaVu Sans', 'Liberation Sans', 'Bitstream Vera Sans', sans-serif; text-anchor: middle; fill: #262626" x="183.333699" y="366.5525" transform="rotate(-0 183.333699 366.5525)">Oct</text>
     </g>
    </g>
    <g id="xtick_11">
     <g id="line2d_11">
      <g>
       <use xlink:href="#m461e31afa9" x="194.340822" y="345.6" style="fill: #262626; stroke: #262626; stroke-width: 1.25"/>
      </g>
     </g>
    </g>
    <g id="xtick_12">
     <g id="line2d_12">
      <g>
       <use xlink:href="#m461e31afa9" x="204.992877" y="345.6" style="fill: #262626; stroke: #262626; stroke-width: 1.25"/>
      </g>
     </g>
    </g>
    <g id="xtick_13">
     <g id="line2d_13">
      <g>
       <use xlink:href="#m461e31afa9" x="216" y="345.6" style="fill: #262626; stroke: #262626; stroke-width: 1.25"/>
      </g>
     </g>
     <g id="text_5">
      <text style="font-size: 16px; font-family: 'Arial', 'DejaVu Sans', 'Liberation Sans', 'Bitstream Vera Sans', sans-serif; text-anchor: middle; fill: #262626" x="216" y="366.5525" transform="rotate(-0 216 366.5525)">Jan</text>
     </g>
    </g>
    <g id="xtick_14">
     <g id="line2d_14">
      <g>
       <use xlink:href="#m461e31afa9" x="227.007123" y="345.6" style="fill: #262626; stroke: #262626; stroke-width: 1.25"/>
      </g>
     </g>
    </g>
    <g id="xtick_15">
     <g id="line2d_15">
      <g>
       <use xlink:href="#m461e31afa9" x="236.949041" y="345.6" style="fill: #262626; stroke: #262626; stroke-width: 1.25"/>
      </g>
     </g>
    </g>
    <g id="xtick_16">
     <g id="line2d_16">
      <g>
       <use xlink:href="#m461e31afa9" x="247.956164" y="345.6" style="fill: #262626; stroke: #262626; stroke-width: 1.25"/>
      </g>
     </g>
     <g id="text_6">
      <text style="font-size: 16px; font-family: 'Arial', 'DejaVu Sans', 'Liberation Sans', 'Bitstream Vera Sans', sans-serif; text-anchor: middle; fill: #262626" x="247.956164" y="366.5525" transform="rotate(-0 247.956164 366.5525)">Apr</text>
     </g>
    </g>
    <g id="xtick_17">
     <g id="line2d_17">
      <g>
       <use xlink:href="#m461e31afa9" x="258.608219" y="345.6" style="fill: #262626; stroke: #262626; stroke-width: 1.25"/>
      </g>
     </g>
    </g>
    <g id="xtick_18">
     <g id="line2d_18">
      <g>
       <use xlink:href="#m461e31afa9" x="269.615342" y="345.6" style="fill: #262626; stroke: #262626; stroke-width: 1.25"/>
      </g>
     </g>
    </g>
    <g id="xtick_19">
     <g id="line2d_19">
      <g>
       <use xlink:href="#m461e31afa9" x="280.267397" y="345.6" style="fill: #262626; stroke: #262626; stroke-width: 1.25"/>
      </g>
     </g>
     <g id="text_7">
      <text style="font-size: 16px; font-family: 'Arial', 'DejaVu Sans', 'Liberation Sans', 'Bitstream Vera Sans', sans-serif; text-anchor: middle; fill: #262626" x="280.267397" y="366.5525" transform="rotate(-0 280.267397 366.5525)">Jul</text>
     </g>
    </g>
    <g id="xtick_20">
     <g id="line2d_20">
      <g>
       <use xlink:href="#m461e31afa9" x="291.274521" y="345.6" style="fill: #262626; stroke: #262626; stroke-width: 1.25"/>
      </g>
     </g>
    </g>
    <g id="xtick_21">
     <g id="line2d_21">
      <g>
       <use xlink:href="#m461e31afa9" x="302.281644" y="345.6" style="fill: #262626; stroke: #262626; stroke-width: 1.25"/>
      </g>
     </g>
    </g>
    <g id="xtick_22">
     <g id="line2d_22">
      <g>
       <use xlink:href="#m461e31afa9" x="312.933699" y="345.6" style="fill: #262626; stroke: #262626; stroke-width: 1.25"/>
      </g>
     </g>
     <g id="text_8">
      <text style="font-size: 16px; font-family: 'Arial', 'DejaVu Sans', 'Liberation Sans', 'Bitstream Vera Sans', sans-serif; text-anchor: middle; fill: #262626" x="312.933699" y="366.5525" transform="rotate(-0 312.933699 366.5525)">Oct</text>
     </g>
    </g>
    <g id="xtick_23">
     <g id="line2d_23">
      <g>
       <use xlink:href="#m461e31afa9" x="323.940822" y="345.6" style="fill: #262626; stroke: #262626; stroke-width: 1.25"/>
      </g>
     </g>
    </g>
    <g id="xtick_24">
     <g id="line2d_24">
      <g>
       <use xlink:href="#m461e31afa9" x="334.592877" y="345.6" style="fill: #262626; stroke: #262626; stroke-width: 1.25"/>
      </g>
     </g>
    </g>
    <g id="xtick_25">
     <g id="line2d_25">
      <g>
       <use xlink:href="#m461e31afa9" x="345.6" y="345.6" style="fill: #262626; stroke: #262626; stroke-width: 1.25"/>
      </g>
     </g>
     <g id="text_9">
      <text style="font-size: 16px; font-family: 'Arial', 'DejaVu Sans', 'Liberation Sans', 'Bitstream Vera Sans', sans-serif; text-anchor: middle; fill: #262626" x="345.6" y="366.5525" transform="rotate(-0 345.6 366.5525)">Jan</text>
     </g>
    </g>
    <g id="text_10">
     <text style="font-size: 16px; font-family: 'Arial', 'DejaVu Sans', 'Liberation Sans', 'Bitstream Vera Sans', sans-serif; text-anchor: middle; fill: #262626" x="216" y="385.185" transform="rotate(-0 216 385.185)"> </text>
    </g>
   </g>
   <g id="matplotlib.axis_2">
    <g id="ytick_1">
     <g id="line2d_26">
      <defs>
       <path id="mbeda1c539c" d="M 0 0  L -6 0  " style="stroke: #262626; stroke-width: 1.25"/>
      </defs>
      <g>
       <use xlink:href="#mbeda1c539c" x="86.4" y="345.6" style="fill: #262626; stroke: #262626; stroke-width: 1.25"/>
      </g>
     </g>
     <g id="text_11">
      <text style="font-size: 16px; font-family: 'Arial', 'DejaVu Sans', 'Liberation Sans', 'Bitstream Vera Sans', sans-serif; text-anchor: end; fill: #262626" x="76.9" y="351.32625" transform="rotate(-0 76.9 351.32625)">0.0</text>
     </g>
    </g>
    <g id="ytick_2">
     <g id="line2d_27">
      <g>
       <use xlink:href="#mbeda1c539c" x="86.4" y="302.686093" style="fill: #262626; stroke: #262626; stroke-width: 1.25"/>
      </g>
     </g>
     <g id="text_12">
      <text style="font-size: 16px; font-family: 'Arial', 'DejaVu Sans', 'Liberation Sans', 'Bitstream Vera Sans', sans-serif; text-anchor: end; fill: #262626" x="76.9" y="308.412343" transform="rotate(-0 76.9 308.412343)">0.5</text>
     </g>
    </g>
    <g id="ytick_3">
     <g id="line2d_28">
      <g>
       <use xlink:href="#mbeda1c539c" x="86.4" y="259.772185" style="fill: #262626; stroke: #262626; stroke-width: 1.25"/>
      </g>
     </g>
     <g id="text_13">
      <text style="font-size: 16px; font-family: 'Arial', 'DejaVu Sans', 'Liberation Sans', 'Bitstream Vera Sans', sans-serif; text-anchor: end; fill: #262626" x="76.9" y="265.498435" transform="rotate(-0 76.9 265.498435)">1.0</text>
     </g>
    </g>
    <g id="ytick_4">
     <g id="line2d_29">
      <g>
       <use xlink:href="#mbeda1c539c" x="86.4" y="216.858278" style="fill: #262626; stroke: #262626; stroke-width: 1.25"/>
      </g>
     </g>
     <g id="text_14">
      <text style="font-size: 16px; font-family: 'Arial', 'DejaVu Sans', 'Liberation Sans', 'Bitstream Vera Sans', sans-serif; text-anchor: end; fill: #262626" x="76.9" y="222.584528" transform="rotate(-0 76.9 222.584528)">1.5</text>
     </g>
    </g>
    <g id="ytick_5">
     <g id="line2d_30">
      <g>
       <use xlink:href="#mbeda1c539c" x="86.4" y="173.944371" style="fill: #262626; stroke: #262626; stroke-width: 1.25"/>
      </g>
     </g>
     <g id="text_15">
      <text style="font-size: 16px; font-family: 'Arial', 'DejaVu Sans', 'Liberation Sans', 'Bitstream Vera Sans', sans-serif; text-anchor: end; fill: #262626" x="76.9" y="179.670621" transform="rotate(-0 76.9 179.670621)">2.0</text>
     </g>
    </g>
    <g id="ytick_6">
     <g id="line2d_31">
      <g>
       <use xlink:href="#mbeda1c539c" x="86.4" y="131.030464" style="fill: #262626; stroke: #262626; stroke-width: 1.25"/>
      </g>
     </g>
     <g id="text_16">
      <text style="font-size: 16px; font-family: 'Arial', 'DejaVu Sans', 'Liberation Sans', 'Bitstream Vera Sans', sans-serif; text-anchor: end; fill: #262626" x="76.9" y="136.756714" transform="rotate(-0 76.9 136.756714)">2.5</text>
     </g>
    </g>
    <g id="ytick_7">
     <g id="line2d_32">
      <g>
       <use xlink:href="#mbeda1c539c" x="86.4" y="88.116556" style="fill: #262626; stroke: #262626; stroke-width: 1.25"/>
      </g>
     </g>
     <g id="text_17">
      <text style="font-size: 16px; font-family: 'Arial', 'DejaVu Sans', 'Liberation Sans', 'Bitstream Vera Sans', sans-serif; text-anchor: end; fill: #262626" x="76.9" y="93.842806" transform="rotate(-0 76.9 93.842806)">3.0</text>
     </g>
    </g>
    <g id="text_18">
     <text style="font-size: 16px; font-family: 'Arial', 'DejaVu Sans', 'Liberation Sans', 'Bitstream Vera Sans', sans-serif; text-anchor: middle; fill: #262626" x="47.48" y="216" transform="rotate(-90 47.48 216)">Instantaneous reproduction number</text>
    </g>
   </g>
   <g id="FillBetweenPolyCollection_1">
    <defs>
     <path id="ma70253934d" d="M 210.318904 -86.4  L 183.333699 -86.4  L 183.333699 -345.6  L 210.318904 -345.6  L 210.318904 -345.6  L 210.318904 -86.4  z "/>
    </defs>
    <g clip-path="url(#p3d8d513652)">
     <use xlink:href="#ma70253934d" x="0" y="432" style="fill: #808080; fill-opacity: 0.5"/>
    </g>
   </g>
   <g id="FillBetweenPolyCollection_2">
    <defs>
     <path id="m0167e7bd98" d="M 339.918904 -86.4  L 312.933699 -86.4  L 312.933699 -345.6  L 339.918904 -345.6  L 339.918904 -345.6  L 339.918904 -86.4  z "/>
    </defs>
    <g clip-path="url(#p3d8d513652)">
     <use xlink:href="#m0167e7bd98" x="0" y="432" style="fill: #808080; fill-opacity: 0.5"/>
    </g>
   </g>
   <g id="line2d_33">
    <path d="M 86.4 88.116556  L 87.820274 88.218249  L 89.240548 88.522846  L 90.660822 89.028903  L 92.081096 89.734021  L 93.856438 90.89017  L 95.631781 92.343504  L 97.407123 94.083262  L 99.537534 96.530774  L 101.667945 99.345995  L 104.153425 103.054931  L 106.638904 107.169583  L 109.479452 112.292053  L 113.030137 119.182064  L 118.001096 129.368739  L 125.457534 144.642381  L 129.008219 151.41247  L 131.848767 156.403802  L 134.334247 160.380118  L 136.819726 163.930789  L 138.950137 166.596226  L 141.080548 168.882591  L 142.85589 170.480616  L 144.631233 171.786567  L 146.406575 172.790774  L 147.826849 173.371811  L 149.247123 173.752175  L 150.667397 173.930065  L 152.087671 173.904638  L 153.507945 173.676012  L 154.928219 173.245273  L 156.348493 172.614461  L 158.123836 171.549239  L 159.899178 170.184029  L 161.674521 168.528941  L 163.449863 166.596226  L 165.580274 163.930789  L 167.710685 160.914688  L 170.196164 156.995784  L 173.036712 152.059508  L 176.232329 146.035202  L 180.493151 137.469927  L 191.855342 114.309899  L 195.050959 108.4115  L 197.891507 103.61923  L 200.376986 99.848896  L 202.507397 96.975205  L 204.637808 94.464488  L 206.413151 92.668924  L 208.188493 91.157375  L 209.963836 89.941033  L 211.739178 89.028903  L 213.159452 88.522846  L 214.579726 88.218249  L 216 88.116556  L 217.420274 88.218249  L 218.840548 88.522846  L 220.260822 89.028903  L 221.681096 89.734021  L 223.456438 90.89017  L 225.231781 92.343504  L 227.007123 94.083262  L 229.137534 96.530774  L 231.267945 99.345995  L 233.753425 103.054931  L 236.238904 107.169583  L 239.079452 112.292053  L 242.630137 119.182064  L 247.601096 129.368739  L 255.057534 144.642381  L 258.608219 151.41247  L 261.448767 156.403802  L 263.934247 160.380118  L 266.419726 163.930789  L 268.550137 166.596226  L 270.680548 168.882591  L 272.45589 170.480616  L 274.231233 171.786567  L 276.006575 172.790774  L 277.426849 173.371811  L 278.847123 173.752175  L 280.267397 173.930065  L 281.687671 173.904638  L 283.107945 173.676012  L 284.528219 173.245273  L 285.948493 172.614461  L 287.723836 171.549239  L 289.499178 170.184029  L 291.274521 168.528941  L 293.049863 166.596226  L 295.180274 163.930789  L 297.310685 160.914688  L 299.796164 156.995784  L 302.636712 152.059508  L 305.832329 146.035202  L 310.093151 137.469927  L 321.455342 114.309899  L 324.650959 108.4115  L 327.491507 103.61923  L 329.976986 99.848896  L 332.107397 96.975205  L 334.237808 94.464488  L 336.013151 92.668924  L 337.788493 91.157375  L 339.563836 89.941033  L 341.339178 89.028903  L 342.759452 88.522846  L 344.179726 88.218249  L 345.244932 88.122914  L 345.244932 88.122914  " clip-path="url(#p3d8d513652)" style="fill: none; stroke-dasharray: 7.4,3.2; stroke-dashoffset: 0; stroke: #0173b2; stroke-width: 2"/>
   </g>
   <g id="line2d_34">
    <path d="M 86.4 196.031689  L 89.240548 193.41081  L 91.726027 191.407475  L 94.211507 189.696889  L 96.341918 188.477124  L 98.472329 187.494167  L 100.60274 186.753821  L 102.733151 186.258601  L 104.863562 186.007585  L 106.993973 185.995797  L 109.124384 186.215008  L 111.254795 186.651865  L 113.740274 187.414364  L 116.225753 188.417304  L 119.066301 189.806077  L 122.616986 191.803381  L 133.269041 197.996829  L 136.109589 199.281504  L 138.595068 200.145364  L 140.725479 200.649944  L 142.85589 200.904388  L 144.631233 200.905235  L 146.406575 200.699007  L 148.181918 200.273492  L 149.95726 199.618347  L 151.732603 198.725472  L 153.507945 197.588921  L 155.283288 196.205064  L 157.05863 194.572599  L 159.189041 192.28704  L 161.319452 189.651384  L 163.449863 186.676725  L 165.935342 182.799196  L 168.420822 178.514847  L 171.26137 173.172906  L 174.456986 166.682226  L 178.36274 158.226605  L 184.753973 143.767471  L 185.109041 143.956899  L 186.174247 145.129059  L 188.304658 147.915736  L 190.435068 151.035114  L 192.920548 155.105068  L 195.406027 159.650494  L 197.891507 164.670734  L 200.732055 170.971568  L 203.572603 177.835916  L 206.768219 186.161771  L 210.318904 196.042188  L 211.739178 200.145561  L 212.094247 200.007912  L 213.159452 198.961553  L 216.355068 195.685993  L 219.195616 193.10757  L 221.681096 191.144644  L 224.166575 189.477453  L 226.296986 188.296722  L 228.427397 187.353747  L 230.557808 186.654309  L 232.688219 186.199882  L 234.81863 185.989111  L 236.949041 186.016653  L 239.079452 186.273052  L 241.209863 186.744807  L 243.695342 187.543895  L 246.180822 188.577927  L 249.02137 189.994742  L 252.927123 192.2256  L 262.158904 197.635346  L 264.999452 198.987157  L 267.484932 199.926802  L 269.615342 200.508114  L 271.745753 200.849067  L 273.521096 200.928959  L 275.296438 200.807188  L 277.071781 200.470663  L 278.847123 199.908502  L 280.622466 199.111596  L 282.397808 198.073039  L 284.173151 196.788445  L 285.948493 195.255415  L 288.078904 193.088176  L 290.209315 190.568249  L 292.339726 187.70506  L 294.825205 183.950152  L 297.310685 179.778212  L 300.151233 174.549422  L 303.346849 168.163128  L 307.252603 159.797119  L 312.933699 147.001045  L 314.353973 143.767471  L 314.709041 143.956899  L 315.774247 145.129059  L 317.904658 147.915736  L 320.035068 151.035114  L 322.520548 155.105068  L 325.006027 159.650494  L 327.491507 164.670734  L 330.332055 170.971568  L 333.172603 177.835916  L 336.368219 186.161771  L 339.918904 196.042188  L 341.339178 200.145561  L 341.694247 200.007912  L 342.759452 198.961553  L 345.244932 196.382382  L 345.244932 196.382382  " clip-path="url(#p3d8d513652)" style="fill: none; stroke: #de8f05; stroke-width: 2; stroke-linecap: round"/>
   </g>
   <g id="patch_3">
    <path d="M 86.4 345.6  L 86.4 86.4  " style="fill: none; stroke: #262626; stroke-width: 1.25; stroke-linejoin: miter; stroke-linecap: square"/>
   </g>
   <g id="patch_4">
    <path d="M 86.4 345.6  L 345.6 345.6  " style="fill: none; stroke: #262626; stroke-width: 1.25; stroke-linejoin: miter; stroke-linecap: square"/>
   </g>
   <g id="legend_1">
    <g id="patch_5">
     <path d="M 169.613438 338.6  L 335.8 338.6  Q 338.6 338.6 338.6 335.8  L 338.6 297.593125  Q 338.6 294.793125 335.8 294.793125  L 169.613438 294.793125  Q 166.813438 294.793125 166.813438 297.593125  L 166.813438 335.8  Q 166.813438 338.6 169.613438 338.6  z " style="fill: #ffffff; opacity: 0.8; stroke: #cccccc; stroke-linejoin: miter"/>
    </g>
    <g id="line2d_35">
     <path d="M 172.413438 305.514063  L 186.413438 305.514063  L 200.413438 305.514063  " style="fill: none; stroke-dasharray: 7.4,3.2; stroke-dashoffset: 0; stroke: #0173b2; stroke-width: 2"/>
    </g>
    <g id="text_19">
     <text style="font-size: 14px; font-family: 'Arial', 'DejaVu Sans', 'Liberation Sans', 'Bitstream Vera Sans', sans-serif; text-anchor: start; fill: #262626" x="211.613438" y="310.414062" transform="rotate(-0 211.613438 310.414062)">Without vaccination</text>
    </g>
    <g id="line2d_36">
     <path d="M 172.413438 325.3175  L 186.413438 325.3175  L 200.413438 325.3175  " style="fill: none; stroke: #de8f05; stroke-width: 2; stroke-linecap: round"/>
    </g>
    <g id="text_20">
     <text style="font-size: 14px; font-family: 'Arial', 'DejaVu Sans', 'Liberation Sans', 'Bitstream Vera Sans', sans-serif; text-anchor: start; fill: #262626" x="211.613438" y="330.2175" transform="rotate(-0 211.613438 330.2175)">With vaccination</text>
    </g>
   </g>
  </g>
 </g>
 <defs>
  <clipPath id="p3d8d513652">
   <rect x="86.4" y="86.4" width="259.2" height="259.2"/>
  </clipPath>
 </defs>
</g>
    <text x="5" y="20" font-size="20" font-family="Verdana" font-weight="normal" letter-spacing="0" text-anchor="start" fill="black">A.</text>
  </g>
</svg>
