<?xml version='1.0' encoding='ASCII' standalone='yes'?>
<svg xmlns="http://www.w3.org/2000/svg" xmlns:xlink="http://www.w3.org/1999/xlink" version="1.1" width="680px" height="640px">
  <g>
    <g transform="translate(-25, -60) scale(1 1) "><metadata>
  <rdf:RDF xmlns:dc="http://purl.org/dc/elements/1.1/" xmlns:cc="http://creativecommons.org/ns#" xmlns:rdf="http://www.w3.org/1999/02/22-rdf-syntax-ns#">
   <cc:Work>
    <dc:type rdf:resource="http://purl.org/dc/dcmitype/StillImage"/>
    <dc:date>2025-08-08T15:51:02.102274</dc:date>
    <dc:format>image/svg+xml</dc:format>
    <dc:creator>
     <cc:Agent>
      <dc:title>Matplotlib v3.10.3, https://matplotlib.org/</dc:title>
     </cc:Agent>
    </dc:creator>
   </cc:Work>
  </rdf:RDF>
 </metadata>
 <defs>
  <style type="text/css">*{stroke-linejoin: round; stroke-linecap: butt}</style>
 </defs>
 <g id="figure_1">
  <g id="patch_1">
   <path d="M 0 432  L 432 432  L 432 0  L 0 0  L 0 432  z " style="fill: none"/>
  </g>
  <g id="axes_1">
   <g id="patch_2">
    <path d="M 86.4 345.6  L 345.6 345.6  L 345.6 86.4  L 86.4 86.4  L 86.4 345.6  z " style="fill: none"/>
   </g>
   <g id="matplotlib.axis_1">
    <g id="xtick_1">
     <g id="line2d_1">
      <defs>
       <path id="m1637fff5cb" d="M 0 0  L 0 6  " style="stroke: #262626; stroke-width: 1.25"/>
      </defs>
      <g>
       <use xlink:href="#m1637fff5cb" x="86.4" y="345.6" style="fill: #262626; stroke: #262626; stroke-width: 1.25"/>
      </g>
     </g>
     <g id="text_1">
      <text style="font-size: 16px; font-family: 'Arial', sans-serif; text-anchor: middle; fill: #262626" x="86.4" y="366.5525" transform="rotate(-0 86.4 366.5525)">Jan</text>
     </g>
    </g>
    <g id="xtick_2">
     <g id="line2d_2">
      <g>
       <use xlink:href="#m1637fff5cb" x="97.407123" y="345.6" style="fill: #262626; stroke: #262626; stroke-width: 1.25"/>
      </g>
     </g>
    </g>
    <g id="xtick_3">
     <g id="line2d_3">
      <g>
       <use xlink:href="#m1637fff5cb" x="107.349041" y="345.6" style="fill: #262626; stroke: #262626; stroke-width: 1.25"/>
      </g>
     </g>
    </g>
    <g id="xtick_4">
     <g id="line2d_4">
      <g>
       <use xlink:href="#m1637fff5cb" x="118.356164" y="345.6" style="fill: #262626; stroke: #262626; stroke-width: 1.25"/>
      </g>
     </g>
     <g id="text_2">
      <text style="font-size: 16px; font-family: 'Arial', sans-serif; text-anchor: middle; fill: #262626" x="118.356164" y="366.5525" transform="rotate(-0 118.356164 366.5525)">Apr</text>
     </g>
    </g>
    <g id="xtick_5">
     <g id="line2d_5">
      <g>
       <use xlink:href="#m1637fff5cb" x="129.008219" y="345.6" style="fill: #262626; stroke: #262626; stroke-width: 1.25"/>
      </g>
     </g>
    </g>
    <g id="xtick_6">
     <g id="line2d_6">
      <g>
       <use xlink:href="#m1637fff5cb" x="140.015342" y="345.6" style="fill: #262626; stroke: #262626; stroke-width: 1.25"/>
      </g>
     </g>
    </g>
    <g id="xtick_7">
     <g id="line2d_7">
      <g>
       <use xlink:href="#m1637fff5cb" x="150.667397" y="345.6" style="fill: #262626; stroke: #262626; stroke-width: 1.25"/>
      </g>
     </g>
     <g id="text_3">
      <text style="font-size: 16px; font-family: 'Arial', sans-serif; text-anchor: middle; fill: #262626" x="150.667397" y="366.5525" transform="rotate(-0 150.667397 366.5525)">Jul</text>
     </g>
    </g>
    <g id="xtick_8">
     <g id="line2d_8">
      <g>
       <use xlink:href="#m1637fff5cb" x="161.674521" y="345.6" style="fill: #262626; stroke: #262626; stroke-width: 1.25"/>
      </g>
     </g>
    </g>
    <g id="xtick_9">
     <g id="line2d_9">
      <g>
       <use xlink:href="#m1637fff5cb" x="172.681644" y="345.6" style="fill: #262626; stroke: #262626; stroke-width: 1.25"/>
      </g>
     </g>
    </g>
    <g id="xtick_10">
     <g id="line2d_10">
      <g>
       <use xlink:href="#m1637fff5cb" x="183.333699" y="345.6" style="fill: #262626; stroke: #262626; stroke-width: 1.25"/>
      </g>
     </g>
     <g id="text_4">
      <text style="font-size: 16px; font-family: 'Arial', sans-serif; text-anchor: middle; fill: #262626" x="183.333699" y="366.5525" transform="rotate(-0 183.333699 366.5525)">Oct</text>
     </g>
    </g>
    <g id="xtick_11">
     <g id="line2d_11">
      <g>
       <use xlink:href="#m1637fff5cb" x="194.340822" y="345.6" style="fill: #262626; stroke: #262626; stroke-width: 1.25"/>
      </g>
     </g>
    </g>
    <g id="xtick_12">
     <g id="line2d_12">
      <g>
       <use xlink:href="#m1637fff5cb" x="204.992877" y="345.6" style="fill: #262626; stroke: #262626; stroke-width: 1.25"/>
      </g>
     </g>
    </g>
    <g id="xtick_13">
     <g id="line2d_13">
      <g>
       <use xlink:href="#m1637fff5cb" x="216" y="345.6" style="fill: #262626; stroke: #262626; stroke-width: 1.25"/>
      </g>
     </g>
     <g id="text_5">
      <text style="font-size: 16px; font-family: 'Arial', sans-serif; text-anchor: middle; fill: #262626" x="216" y="366.5525" transform="rotate(-0 216 366.5525)">Jan</text>
     </g>
    </g>
    <g id="xtick_14">
     <g id="line2d_14">
      <g>
       <use xlink:href="#m1637fff5cb" x="227.007123" y="345.6" style="fill: #262626; stroke: #262626; stroke-width: 1.25"/>
      </g>
     </g>
    </g>
    <g id="xtick_15">
     <g id="line2d_15">
      <g>
       <use xlink:href="#m1637fff5cb" x="236.949041" y="345.6" style="fill: #262626; stroke: #262626; stroke-width: 1.25"/>
      </g>
     </g>
    </g>
    <g id="xtick_16">
     <g id="line2d_16">
      <g>
       <use xlink:href="#m1637fff5cb" x="247.956164" y="345.6" style="fill: #262626; stroke: #262626; stroke-width: 1.25"/>
      </g>
     </g>
     <g id="text_6">
      <text style="font-size: 16px; font-family: 'Arial', sans-serif; text-anchor: middle; fill: #262626" x="247.956164" y="366.5525" transform="rotate(-0 247.956164 366.5525)">Apr</text>
     </g>
    </g>
    <g id="xtick_17">
     <g id="line2d_17">
      <g>
       <use xlink:href="#m1637fff5cb" x="258.608219" y="345.6" style="fill: #262626; stroke: #262626; stroke-width: 1.25"/>
      </g>
     </g>
    </g>
    <g id="xtick_18">
     <g id="line2d_18">
      <g>
       <use xlink:href="#m1637fff5cb" x="269.615342" y="345.6" style="fill: #262626; stroke: #262626; stroke-width: 1.25"/>
      </g>
     </g>
    </g>
    <g id="xtick_19">
     <g id="line2d_19">
      <g>
       <use xlink:href="#m1637fff5cb" x="280.267397" y="345.6" style="fill: #262626; stroke: #262626; stroke-width: 1.25"/>
      </g>
     </g>
     <g id="text_7">
      <text style="font-size: 16px; font-family: 'Arial', sans-serif; text-anchor: middle; fill: #262626" x="280.267397" y="366.5525" transform="rotate(-0 280.267397 366.5525)">Jul</text>
     </g>
    </g>
    <g id="xtick_20">
     <g id="line2d_20">
      <g>
       <use xlink:href="#m1637fff5cb" x="291.274521" y="345.6" style="fill: #262626; stroke: #262626; stroke-width: 1.25"/>
      </g>
     </g>
    </g>
    <g id="xtick_21">
     <g id="line2d_21">
      <g>
       <use xlink:href="#m1637fff5cb" x="302.281644" y="345.6" style="fill: #262626; stroke: #262626; stroke-width: 1.25"/>
      </g>
     </g>
    </g>
    <g id="xtick_22">
     <g id="line2d_22">
      <g>
       <use xlink:href="#m1637fff5cb" x="312.933699" y="345.6" style="fill: #262626; stroke: #262626; stroke-width: 1.25"/>
      </g>
     </g>
     <g id="text_8">
      <text style="font-size: 16px; font-family: 'Arial', sans-serif; text-anchor: middle; fill: #262626" x="312.933699" y="366.5525" transform="rotate(-0 312.933699 366.5525)">Oct</text>
     </g>
    </g>
    <g id="xtick_23">
     <g id="line2d_23">
      <g>
       <use xlink:href="#m1637fff5cb" x="323.940822" y="345.6" style="fill: #262626; stroke: #262626; stroke-width: 1.25"/>
      </g>
     </g>
    </g>
    <g id="xtick_24">
     <g id="line2d_24">
      <g>
       <use xlink:href="#m1637fff5cb" x="334.592877" y="345.6" style="fill: #262626; stroke: #262626; stroke-width: 1.25"/>
      </g>
     </g>
    </g>
    <g id="xtick_25">
     <g id="line2d_25">
      <g>
       <use xlink:href="#m1637fff5cb" x="345.6" y="345.6" style="fill: #262626; stroke: #262626; stroke-width: 1.25"/>
      </g>
     </g>
     <g id="text_9">
      <text style="font-size: 16px; font-family: 'Arial', sans-serif; text-anchor: middle; fill: #262626" x="345.6" y="366.5525" transform="rotate(-0 345.6 366.5525)">Jan</text>
     </g>
    </g>
    <g id="text_10">
     <text style="font-size: 16px; font-family: 'Arial', sans-serif; text-anchor: middle; fill: #262626" x="216" y="385.185" transform="rotate(-0 216 385.185)"> </text>
    </g>
   </g>
   <g id="matplotlib.axis_2">
    <g id="ytick_1">
     <g id="line2d_26">
      <defs>
       <path id="m7184c8f474" d="M 0 0  L -6 0  " style="stroke: #262626; stroke-width: 1.25"/>
      </defs>
      <g>
       <use xlink:href="#m7184c8f474" x="86.4" y="345.6" style="fill: #262626; stroke: #262626; stroke-width: 1.25"/>
      </g>
     </g>
     <g id="text_11">
      <text style="font-size: 16px; font-family: 'Arial', sans-serif; text-anchor: end; fill: #262626" x="76.9" y="351.32625" transform="rotate(-0 76.9 351.32625)">0.0</text>
     </g>
    </g>
    <g id="ytick_2">
     <g id="line2d_27">
      <g>
       <use xlink:href="#m7184c8f474" x="86.4" y="313.2" style="fill: #262626; stroke: #262626; stroke-width: 1.25"/>
      </g>
     </g>
     <g id="text_12">
      <text style="font-size: 16px; font-family: 'Arial', sans-serif; text-anchor: end; fill: #262626" x="76.9" y="318.92625" transform="rotate(-0 76.9 318.92625)">0.5</text>
     </g>
    </g>
    <g id="ytick_3">
     <g id="line2d_28">
      <g>
       <use xlink:href="#m7184c8f474" x="86.4" y="280.8" style="fill: #262626; stroke: #262626; stroke-width: 1.25"/>
      </g>
     </g>
     <g id="text_13">
      <text style="font-size: 16px; font-family: 'Arial', sans-serif; text-anchor: end; fill: #262626" x="76.9" y="286.52625" transform="rotate(-0 76.9 286.52625)">1.0</text>
     </g>
    </g>
    <g id="ytick_4">
     <g id="line2d_29">
      <g>
       <use xlink:href="#m7184c8f474" x="86.4" y="248.4" style="fill: #262626; stroke: #262626; stroke-width: 1.25"/>
      </g>
     </g>
     <g id="text_14">
      <text style="font-size: 16px; font-family: 'Arial', sans-serif; text-anchor: end; fill: #262626" x="76.9" y="254.12625" transform="rotate(-0 76.9 254.12625)">1.5</text>
     </g>
    </g>
    <g id="ytick_5">
     <g id="line2d_30">
      <g>
       <use xlink:href="#m7184c8f474" x="86.4" y="216" style="fill: #262626; stroke: #262626; stroke-width: 1.25"/>
      </g>
     </g>
     <g id="text_15">
      <text style="font-size: 16px; font-family: 'Arial', sans-serif; text-anchor: end; fill: #262626" x="76.9" y="221.72625" transform="rotate(-0 76.9 221.72625)">2.0</text>
     </g>
    </g>
    <g id="ytick_6">
     <g id="line2d_31">
      <g>
       <use xlink:href="#m7184c8f474" x="86.4" y="183.6" style="fill: #262626; stroke: #262626; stroke-width: 1.25"/>
      </g>
     </g>
     <g id="text_16">
      <text style="font-size: 16px; font-family: 'Arial', sans-serif; text-anchor: end; fill: #262626" x="76.9" y="189.32625" transform="rotate(-0 76.9 189.32625)">2.5</text>
     </g>
    </g>
    <g id="ytick_7">
     <g id="line2d_32">
      <g>
       <use xlink:href="#m7184c8f474" x="86.4" y="151.2" style="fill: #262626; stroke: #262626; stroke-width: 1.25"/>
      </g>
     </g>
     <g id="text_17">
      <text style="font-size: 16px; font-family: 'Arial', sans-serif; text-anchor: end; fill: #262626" x="76.9" y="156.92625" transform="rotate(-0 76.9 156.92625)">3.0</text>
     </g>
    </g>
    <g id="ytick_8">
     <g id="line2d_33">
      <g>
       <use xlink:href="#m7184c8f474" x="86.4" y="118.8" style="fill: #262626; stroke: #262626; stroke-width: 1.25"/>
      </g>
     </g>
     <g id="text_18">
      <text style="font-size: 16px; font-family: 'Arial', sans-serif; text-anchor: end; fill: #262626" x="76.9" y="124.52625" transform="rotate(-0 76.9 124.52625)">3.5</text>
     </g>
    </g>
    <g id="ytick_9">
     <g id="line2d_34">
      <g>
       <use xlink:href="#m7184c8f474" x="86.4" y="86.4" style="fill: #262626; stroke: #262626; stroke-width: 1.25"/>
      </g>
     </g>
     <g id="text_19">
      <text style="font-size: 16px; font-family: 'Arial', sans-serif; text-anchor: end; fill: #262626" x="76.9" y="92.12625" transform="rotate(-0 76.9 92.12625)">4.0</text>
     </g>
    </g>
    <g id="text_20">
     <text style="font-size: 16px; font-family: 'Arial', sans-serif; text-anchor: middle; fill: #262626" x="47.48" y="216" transform="rotate(-90 47.48 216)">Instantaneous reproduction number</text>
    </g>
   </g>
   <g id="line2d_35">
    <path d="M 86.4 190.08  L 88.175342 190.175951  L 89.950685 190.463095  L 92.081096 191.056949  L 94.211507 191.916655  L 96.341918 193.033049  L 98.472329 194.394234  L 100.957808 196.272178  L 103.443288 198.436225  L 106.283836 201.21932  L 109.479452 204.682  L 113.385205 209.273454  L 119.42137 216.780718  L 125.812603 224.643511  L 129.718356 229.088591  L 132.913973 232.38412  L 135.754521 234.986246  L 138.24 236.96972  L 140.725479 238.64908  L 142.85589 239.827892  L 144.986301 240.752738  L 147.116712 241.413761  L 149.247123 241.803914  L 151.022466 241.91904  L 152.797808 241.84227  L 154.573151 241.574174  L 156.703562 241.002799  L 158.833973 240.164936  L 160.964384 239.069515  L 163.094795 237.72821  L 165.580274 235.871797  L 168.065753 233.727191  L 170.906301 230.963399  L 174.101918 227.518282  L 178.007671 222.941747  L 184.043836 215.442303  L 190.790137 207.146486  L 194.69589 202.719333  L 197.891507 199.443615  L 200.732055 196.862581  L 203.217534 194.899925  L 205.703014 193.243275  L 207.833425 192.085183  L 209.963836 191.181984  L 212.094247 190.543304  L 214.224658 190.175951  L 216 190.08  L 217.775342 190.175951  L 219.550685 190.463095  L 221.681096 191.056949  L 223.811507 191.916655  L 225.941918 193.033049  L 228.072329 194.394234  L 230.557808 196.272178  L 233.043288 198.436225  L 235.883836 201.21932  L 239.079452 204.682  L 242.985205 209.273454  L 249.02137 216.780718  L 255.412603 224.643511  L 259.318356 229.088591  L 262.513973 232.38412  L 265.354521 234.986246  L 267.84 236.96972  L 270.325479 238.64908  L 272.45589 239.827892  L 274.586301 240.752738  L 276.716712 241.413761  L 278.847123 241.803914  L 280.622466 241.91904  L 282.397808 241.84227  L 284.173151 241.574174  L 286.303562 241.002799  L 288.433973 240.164936  L 290.564384 239.069515  L 292.694795 237.72821  L 295.180274 235.871797  L 297.665753 233.727191  L 300.506301 230.963399  L 303.701918 227.518282  L 307.607671 222.941747  L 313.643836 215.442303  L 320.390137 207.146486  L 324.29589 202.719333  L 327.491507 199.443615  L 330.332055 196.862581  L 332.817534 194.899925  L 335.303014 193.243275  L 337.433425 192.085183  L 339.563836 191.181984  L 341.694247 190.543304  L 343.824658 190.175951  L 345.244932 190.08384  L 345.244932 190.08384  " clip-path="url(#p875f2effe7)" style="fill: none; stroke: #de8f05; stroke-width: 2; stroke-linecap: round"/>
   </g>
   <g id="line2d_36">
    <path d="M 86.4 151.2  L 88.175342 151.319939  L 89.950685 151.678869  L 91.726027 152.274131  L 93.50137 153.101319  L 95.276712 154.154309  L 97.407123 155.704863  L 99.537534 157.552734  L 101.667945 159.678226  L 104.153425 162.478473  L 106.993973 166.051259  L 110.189589 170.464206  L 114.095342 176.273852  L 121.196712 187.356281  L 126.167671 194.928578  L 129.718356 199.960738  L 132.558904 203.644953  L 135.044384 206.559504  L 137.529863 209.141084  L 139.660274 211.060326  L 141.790685 212.686886  L 143.921096 214.003427  L 145.696438 214.853499  L 147.471781 215.472181  L 149.247123 215.854892  L 151.022466 215.9988  L 152.797808 215.902838  L 154.573151 215.567717  L 156.348493 214.995918  L 158.123836 214.191675  L 159.899178 213.160942  L 162.029589 211.635955  L 164.16 209.812151  L 166.290411 207.708968  L 168.77589 204.932211  L 171.616438 201.382512  L 174.812055 196.990227  L 178.717808 191.197521  L 185.46411 180.675848  L 190.790137 172.533107  L 194.340822 167.480569  L 197.18137 163.774881  L 200.021918 160.444582  L 202.507397 157.88828  L 204.637808 155.992688  L 206.768219 154.391345  L 208.89863 153.101319  L 210.673973 152.274131  L 212.449315 151.678869  L 214.224658 151.319939  L 216 151.2  L 217.775342 151.319939  L 219.550685 151.678869  L 221.326027 152.274131  L 223.10137 153.101319  L 224.876712 154.154309  L 227.007123 155.704863  L 229.137534 157.552734  L 231.267945 159.678226  L 233.753425 162.478473  L 236.593973 166.051259  L 239.789589 170.464206  L 243.695342 176.273852  L 250.796712 187.356281  L 255.767671 194.928578  L 259.318356 199.960738  L 262.158904 203.644953  L 264.644384 206.559504  L 267.129863 209.141084  L 269.260274 211.060326  L 271.390685 212.686886  L 273.521096 214.003427  L 275.296438 214.853499  L 277.071781 215.472181  L 278.847123 215.854892  L 280.622466 215.9988  L 282.397808 215.902838  L 284.173151 215.567717  L 285.948493 214.995918  L 287.723836 214.191675  L 289.499178 213.160942  L 291.629589 211.635955  L 293.76 209.812151  L 295.890411 207.708968  L 298.37589 204.932211  L 301.216438 201.382512  L 304.412055 196.990227  L 308.317808 191.197521  L 315.06411 180.675848  L 320.390137 172.533107  L 323.940822 167.480569  L 326.78137 163.774881  L 329.621918 160.444582  L 332.107397 157.88828  L 334.237808 155.992688  L 336.368219 154.391345  L 338.49863 153.101319  L 340.273973 152.274131  L 342.049315 151.678869  L 343.824658 151.319939  L 345.244932 151.2048  L 345.244932 151.2048  " clip-path="url(#p875f2effe7)" style="fill: none; stroke: #0173b2; stroke-width: 2; stroke-linecap: round"/>
   </g>
   <g id="line2d_37">
    <path d="M 86.4 112.32  L 87.820274 112.412134  L 89.240548 112.688098  L 91.01589 113.289491  L 92.791233 114.17156  L 94.566575 115.327774  L 96.341918 116.749574  L 98.11726 118.426433  L 100.247671 120.757734  L 102.378082 123.413499  L 104.863562 126.884037  L 107.70411 131.278999  L 110.899726 136.669777  L 114.805479 143.717482  L 127.943014 167.875319  L 131.13863 173.0953  L 133.979178 177.298587  L 136.464658 180.57358  L 138.595068 183.043299  L 140.725479 185.17362  L 142.500822 186.673131  L 144.276164 187.91001  L 146.051507 188.875102  L 147.826849 189.56126  L 149.602192 189.963405  L 151.022466 190.07856  L 152.44274 190.009454  L 153.863014 189.756414  L 155.638356 189.183369  L 157.413699 188.329107  L 159.189041 187.199955  L 160.964384 185.804272  L 162.739726 184.152391  L 164.870137 181.849301  L 167.000548 179.219539  L 169.486027 175.776181  L 172.326575 171.407639  L 175.522192 166.040077  L 179.427945 159.010625  L 193.275616 133.623433  L 196.471233 128.482487  L 199.311781 124.366059  L 201.79726 121.178552  L 203.927671 118.791352  L 206.058082 116.749574  L 207.833425 115.327774  L 209.608767 114.17156  L 211.38411 113.289491  L 213.159452 112.688098  L 214.579726 112.412134  L 216 112.32  L 217.420274 112.412134  L 218.840548 112.688098  L 220.61589 113.289491  L 222.391233 114.17156  L 224.166575 115.327774  L 225.941918 116.749574  L 227.71726 118.426433  L 229.847671 120.757734  L 231.978082 123.413499  L 234.463562 126.884037  L 237.30411 131.278999  L 240.499726 136.669777  L 244.405479 143.717482  L 257.543014 167.875319  L 260.73863 173.0953  L 263.579178 177.298587  L 266.064658 180.57358  L 268.195068 183.043299  L 270.325479 185.17362  L 272.100822 186.673131  L 273.876164 187.91001  L 275.651507 188.875102  L 277.426849 189.56126  L 279.202192 189.963405  L 280.622466 190.07856  L 282.04274 190.009454  L 283.463014 189.756414  L 285.238356 189.183369  L 287.013699 188.329107  L 288.789041 187.199955  L 290.564384 185.804272  L 292.339726 184.152391  L 294.470137 181.849301  L 296.600548 179.219539  L 299.086027 175.776181  L 301.926575 171.407639  L 305.122192 166.040077  L 309.027945 159.010625  L 322.875616 133.623433  L 326.071233 128.482487  L 328.911781 124.366059  L 331.39726 121.178552  L 333.527671 118.791352  L 335.658082 116.749574  L 337.433425 115.327774  L 339.208767 114.17156  L 340.98411 113.289491  L 342.759452 112.688098  L 344.179726 112.412134  L 345.244932 112.32576  L 345.244932 112.32576  " clip-path="url(#p875f2effe7)" style="fill: none; stroke: #029e73; stroke-width: 2; stroke-linecap: round"/>
   </g>
   <g id="patch_3">
    <path d="M 86.4 345.6  L 86.4 86.4  " style="fill: none; stroke: #262626; stroke-width: 1.25; stroke-linejoin: miter; stroke-linecap: square"/>
   </g>
   <g id="patch_4">
    <path d="M 86.4 345.6  L 345.6 345.6  " style="fill: none; stroke: #262626; stroke-width: 1.25; stroke-linejoin: miter; stroke-linecap: square"/>
   </g>
   <g id="legend_1">
    <g id="patch_5">
     <path d="M 239.06 338.6  L 335.8 338.6  Q 338.6 338.6 338.6 335.8  L 338.6 271.26  Q 338.6 268.46 335.8 268.46  L 239.06 268.46  Q 236.26 268.46 236.26 271.26  L 236.26 335.8  Q 236.26 338.6 239.06 338.6  z " style="fill: #ffffff; opacity: 0.8; stroke: #cccccc; stroke-linejoin: miter"/>
    </g>
    <g id="line2d_38">
     <path d="M 241.86 281.3575  L 255.86 281.3575  L 269.86 281.3575  " style="fill: none; stroke: #de8f05; stroke-width: 2; stroke-linecap: round"/>
    </g>
    <g id="text_21">
     <!-- $\it{\widebar{R}_0}$ = 2 -->
     <g style="fill: #262626" transform="translate(281.06 286.2575)">
      <text>
       <tspan x="11.150635" y="-5.03125" style="font-size: 9.727539px; font-family: 'STIXSizeOneSym'; fill: #262626">&#773;</tspan>
       <tspan x="0" y="-0.5625" style="font-style: oblique; font-size: 14px; font-family: 'DejaVu Sans'; fill: #262626">R</tspan>
       <tspan x="9.861523" y="1.734375" style="font-size: 9.8px; font-family: 'DejaVu Sans'; fill: #262626">0</tspan>
       <tspan x="16.479395" y="-0.5625" style="font-size: 14px; font-family: 'Arial'; fill: #262626">&#160;</tspan>
       <tspan x="20.369043" y="-0.5625" style="font-size: 14px; font-family: 'Arial'; fill: #262626">=</tspan>
       <tspan x="28.544824" y="-0.5625" style="font-size: 14px; font-family: 'Arial'; fill: #262626">&#160;</tspan>
       <tspan x="32.434473" y="-0.5625" style="font-size: 14px; font-family: 'Arial'; fill: #262626">2</tspan>
      </text>
     </g>
    </g>
    <g id="line2d_39">
     <path d="M 241.86 303.3375  L 255.86 303.3375  L 269.86 303.3375  " style="fill: none; stroke: #0173b2; stroke-width: 2; stroke-linecap: round"/>
    </g>
    <g id="text_22">
     <!-- $\it{\widebar{R}_0}$ = 2.5 -->
     <g style="fill: #262626" transform="translate(281.06 308.2375)">
      <text>
       <tspan x="11.150635" y="-5.03125" style="font-size: 9.727539px; font-family: 'STIXSizeOneSym'; fill: #262626">&#773;</tspan>
       <tspan x="0" y="-0.5625" style="font-style: oblique; font-size: 14px; font-family: 'DejaVu Sans'; fill: #262626">R</tspan>
       <tspan x="9.861523" y="1.734375" style="font-size: 9.8px; font-family: 'DejaVu Sans'; fill: #262626">0</tspan>
       <tspan x="16.479395" y="-0.5625" style="font-size: 14px; font-family: 'Arial'; fill: #262626">&#160;</tspan>
       <tspan x="20.369043" y="-0.5625" style="font-size: 14px; font-family: 'Arial'; fill: #262626">=</tspan>
       <tspan x="28.544824" y="-0.5625" style="font-size: 14px; font-family: 'Arial'; fill: #262626">&#160;</tspan>
       <tspan x="32.434473" y="-0.5625" style="font-size: 14px; font-family: 'Arial'; fill: #262626">2</tspan>
       <tspan x="40.220605" y="-0.5625" style="font-size: 14px; font-family: 'Arial'; fill: #262626">.</tspan>
       <tspan x="44.110254" y="-0.5625" style="font-size: 14px; font-family: 'Arial'; fill: #262626">5</tspan>
      </text>
     </g>
    </g>
    <g id="line2d_40">
     <path d="M 241.86 325.3175  L 255.86 325.3175  L 269.86 325.3175  " style="fill: none; stroke: #029e73; stroke-width: 2; stroke-linecap: round"/>
    </g>
    <g id="text_23">
     <!-- $\it{\widebar{R}_0}$ = 3 -->
     <g style="fill: #262626" transform="translate(281.06 330.2175)">
      <text>
       <tspan x="11.150635" y="-5.03125" style="font-size: 9.727539px; font-family: 'STIXSizeOneSym'; fill: #262626">&#773;</tspan>
       <tspan x="0" y="-0.5625" style="font-style: oblique; font-size: 14px; font-family: 'DejaVu Sans'; fill: #262626">R</tspan>
       <tspan x="9.861523" y="1.734375" style="font-size: 9.8px; font-family: 'DejaVu Sans'; fill: #262626">0</tspan>
       <tspan x="16.479395" y="-0.5625" style="font-size: 14px; font-family: 'Arial'; fill: #262626">&#160;</tspan>
       <tspan x="20.369043" y="-0.5625" style="font-size: 14px; font-family: 'Arial'; fill: #262626">=</tspan>
       <tspan x="28.544824" y="-0.5625" style="font-size: 14px; font-family: 'Arial'; fill: #262626">&#160;</tspan>
       <tspan x="32.434473" y="-0.5625" style="font-size: 14px; font-family: 'Arial'; fill: #262626">3</tspan>
      </text>
     </g>
    </g>
   </g>
  </g>
 </g>
 <defs>
  <clipPath id="p875f2effe7">
   <rect x="86.4" y="86.4" width="259.2" height="259.2"/>
  </clipPath>
 </defs>
</g>
    <g transform="translate(315, -60) scale(1 1) "><metadata>
  <rdf:RDF xmlns:dc="http://purl.org/dc/elements/1.1/" xmlns:cc="http://creativecommons.org/ns#" xmlns:rdf="http://www.w3.org/1999/02/22-rdf-syntax-ns#">
   <cc:Work>
    <dc:type rdf:resource="http://purl.org/dc/dcmitype/StillImage"/>
    <dc:date>2025-08-08T15:51:02.248149</dc:date>
    <dc:format>image/svg+xml</dc:format>
    <dc:creator>
     <cc:Agent>
      <dc:title>Matplotlib v3.10.3, https://matplotlib.org/</dc:title>
     </cc:Agent>
    </dc:creator>
   </cc:Work>
  </rdf:RDF>
 </metadata>
 <defs>
  <style type="text/css">*{stroke-linejoin: round; stroke-linecap: butt}</style>
 </defs>
 <g id="figure_1">
  <g id="patch_1">
   <path d="M 0 432  L 432 432  L 432 0  L 0 0  L 0 432  z " style="fill: none"/>
  </g>
  <g id="axes_1">
   <g id="patch_2">
    <path d="M 86.4 345.6  L 345.6 345.6  L 345.6 86.4  L 86.4 86.4  L 86.4 345.6  z " style="fill: none"/>
   </g>
   <g id="matplotlib.axis_1">
    <g id="xtick_1">
     <g id="line2d_1">
      <defs>
       <path id="m08651c4c5a" d="M 0 0  L 0 6  " style="stroke: #262626; stroke-width: 1.25"/>
      </defs>
      <g>
       <use xlink:href="#m08651c4c5a" x="86.4" y="345.6" style="fill: #262626; stroke: #262626; stroke-width: 1.25"/>
      </g>
     </g>
     <g id="text_1">
      <text style="font-size: 16px; font-family: 'Arial', sans-serif; text-anchor: middle; fill: #262626" x="86.4" y="366.5525" transform="rotate(-0 86.4 366.5525)">Jan</text>
     </g>
    </g>
    <g id="xtick_2">
     <g id="line2d_2">
      <g>
       <use xlink:href="#m08651c4c5a" x="97.407123" y="345.6" style="fill: #262626; stroke: #262626; stroke-width: 1.25"/>
      </g>
     </g>
    </g>
    <g id="xtick_3">
     <g id="line2d_3">
      <g>
       <use xlink:href="#m08651c4c5a" x="107.349041" y="345.6" style="fill: #262626; stroke: #262626; stroke-width: 1.25"/>
      </g>
     </g>
    </g>
    <g id="xtick_4">
     <g id="line2d_4">
      <g>
       <use xlink:href="#m08651c4c5a" x="118.356164" y="345.6" style="fill: #262626; stroke: #262626; stroke-width: 1.25"/>
      </g>
     </g>
     <g id="text_2">
      <text style="font-size: 16px; font-family: 'Arial', sans-serif; text-anchor: middle; fill: #262626" x="118.356164" y="366.5525" transform="rotate(-0 118.356164 366.5525)">Apr</text>
     </g>
    </g>
    <g id="xtick_5">
     <g id="line2d_5">
      <g>
       <use xlink:href="#m08651c4c5a" x="129.008219" y="345.6" style="fill: #262626; stroke: #262626; stroke-width: 1.25"/>
      </g>
     </g>
    </g>
    <g id="xtick_6">
     <g id="line2d_6">
      <g>
       <use xlink:href="#m08651c4c5a" x="140.015342" y="345.6" style="fill: #262626; stroke: #262626; stroke-width: 1.25"/>
      </g>
     </g>
    </g>
    <g id="xtick_7">
     <g id="line2d_7">
      <g>
       <use xlink:href="#m08651c4c5a" x="150.667397" y="345.6" style="fill: #262626; stroke: #262626; stroke-width: 1.25"/>
      </g>
     </g>
     <g id="text_3">
      <text style="font-size: 16px; font-family: 'Arial', sans-serif; text-anchor: middle; fill: #262626" x="150.667397" y="366.5525" transform="rotate(-0 150.667397 366.5525)">Jul</text>
     </g>
    </g>
    <g id="xtick_8">
     <g id="line2d_8">
      <g>
       <use xlink:href="#m08651c4c5a" x="161.674521" y="345.6" style="fill: #262626; stroke: #262626; stroke-width: 1.25"/>
      </g>
     </g>
    </g>
    <g id="xtick_9">
     <g id="line2d_9">
      <g>
       <use xlink:href="#m08651c4c5a" x="172.681644" y="345.6" style="fill: #262626; stroke: #262626; stroke-width: 1.25"/>
      </g>
     </g>
    </g>
    <g id="xtick_10">
     <g id="line2d_10">
      <g>
       <use xlink:href="#m08651c4c5a" x="183.333699" y="345.6" style="fill: #262626; stroke: #262626; stroke-width: 1.25"/>
      </g>
     </g>
     <g id="text_4">
      <text style="font-size: 16px; font-family: 'Arial', sans-serif; text-anchor: middle; fill: #262626" x="183.333699" y="366.5525" transform="rotate(-0 183.333699 366.5525)">Oct</text>
     </g>
    </g>
    <g id="xtick_11">
     <g id="line2d_11">
      <g>
       <use xlink:href="#m08651c4c5a" x="194.340822" y="345.6" style="fill: #262626; stroke: #262626; stroke-width: 1.25"/>
      </g>
     </g>
    </g>
    <g id="xtick_12">
     <g id="line2d_12">
      <g>
       <use xlink:href="#m08651c4c5a" x="204.992877" y="345.6" style="fill: #262626; stroke: #262626; stroke-width: 1.25"/>
      </g>
     </g>
    </g>
    <g id="xtick_13">
     <g id="line2d_13">
      <g>
       <use xlink:href="#m08651c4c5a" x="216" y="345.6" style="fill: #262626; stroke: #262626; stroke-width: 1.25"/>
      </g>
     </g>
     <g id="text_5">
      <text style="font-size: 16px; font-family: 'Arial', sans-serif; text-anchor: middle; fill: #262626" x="216" y="366.5525" transform="rotate(-0 216 366.5525)">Jan</text>
     </g>
    </g>
    <g id="xtick_14">
     <g id="line2d_14">
      <g>
       <use xlink:href="#m08651c4c5a" x="227.007123" y="345.6" style="fill: #262626; stroke: #262626; stroke-width: 1.25"/>
      </g>
     </g>
    </g>
    <g id="xtick_15">
     <g id="line2d_15">
      <g>
       <use xlink:href="#m08651c4c5a" x="236.949041" y="345.6" style="fill: #262626; stroke: #262626; stroke-width: 1.25"/>
      </g>
     </g>
    </g>
    <g id="xtick_16">
     <g id="line2d_16">
      <g>
       <use xlink:href="#m08651c4c5a" x="247.956164" y="345.6" style="fill: #262626; stroke: #262626; stroke-width: 1.25"/>
      </g>
     </g>
     <g id="text_6">
      <text style="font-size: 16px; font-family: 'Arial', sans-serif; text-anchor: middle; fill: #262626" x="247.956164" y="366.5525" transform="rotate(-0 247.956164 366.5525)">Apr</text>
     </g>
    </g>
    <g id="xtick_17">
     <g id="line2d_17">
      <g>
       <use xlink:href="#m08651c4c5a" x="258.608219" y="345.6" style="fill: #262626; stroke: #262626; stroke-width: 1.25"/>
      </g>
     </g>
    </g>
    <g id="xtick_18">
     <g id="line2d_18">
      <g>
       <use xlink:href="#m08651c4c5a" x="269.615342" y="345.6" style="fill: #262626; stroke: #262626; stroke-width: 1.25"/>
      </g>
     </g>
    </g>
    <g id="xtick_19">
     <g id="line2d_19">
      <g>
       <use xlink:href="#m08651c4c5a" x="280.267397" y="345.6" style="fill: #262626; stroke: #262626; stroke-width: 1.25"/>
      </g>
     </g>
     <g id="text_7">
      <text style="font-size: 16px; font-family: 'Arial', sans-serif; text-anchor: middle; fill: #262626" x="280.267397" y="366.5525" transform="rotate(-0 280.267397 366.5525)">Jul</text>
     </g>
    </g>
    <g id="xtick_20">
     <g id="line2d_20">
      <g>
       <use xlink:href="#m08651c4c5a" x="291.274521" y="345.6" style="fill: #262626; stroke: #262626; stroke-width: 1.25"/>
      </g>
     </g>
    </g>
    <g id="xtick_21">
     <g id="line2d_21">
      <g>
       <use xlink:href="#m08651c4c5a" x="302.281644" y="345.6" style="fill: #262626; stroke: #262626; stroke-width: 1.25"/>
      </g>
     </g>
    </g>
    <g id="xtick_22">
     <g id="line2d_22">
      <g>
       <use xlink:href="#m08651c4c5a" x="312.933699" y="345.6" style="fill: #262626; stroke: #262626; stroke-width: 1.25"/>
      </g>
     </g>
     <g id="text_8">
      <text style="font-size: 16px; font-family: 'Arial', sans-serif; text-anchor: middle; fill: #262626" x="312.933699" y="366.5525" transform="rotate(-0 312.933699 366.5525)">Oct</text>
     </g>
    </g>
    <g id="xtick_23">
     <g id="line2d_23">
      <g>
       <use xlink:href="#m08651c4c5a" x="323.940822" y="345.6" style="fill: #262626; stroke: #262626; stroke-width: 1.25"/>
      </g>
     </g>
    </g>
    <g id="xtick_24">
     <g id="line2d_24">
      <g>
       <use xlink:href="#m08651c4c5a" x="334.592877" y="345.6" style="fill: #262626; stroke: #262626; stroke-width: 1.25"/>
      </g>
     </g>
    </g>
    <g id="xtick_25">
     <g id="line2d_25">
      <g>
       <use xlink:href="#m08651c4c5a" x="345.6" y="345.6" style="fill: #262626; stroke: #262626; stroke-width: 1.25"/>
      </g>
     </g>
     <g id="text_9">
      <text style="font-size: 16px; font-family: 'Arial', sans-serif; text-anchor: middle; fill: #262626" x="345.6" y="366.5525" transform="rotate(-0 345.6 366.5525)">Jan</text>
     </g>
    </g>
    <g id="text_10">
     <text style="font-size: 16px; font-family: 'Arial', sans-serif; text-anchor: middle; fill: #262626" x="216" y="385.185" transform="rotate(-0 216 385.185)"> </text>
    </g>
   </g>
   <g id="matplotlib.axis_2">
    <g id="ytick_1">
     <g id="line2d_26">
      <defs>
       <path id="m2b315a3cda" d="M 0 0  L -6 0  " style="stroke: #262626; stroke-width: 1.25"/>
      </defs>
      <g>
       <use xlink:href="#m2b315a3cda" x="86.4" y="345.6" style="fill: #262626; stroke: #262626; stroke-width: 1.25"/>
      </g>
     </g>
     <g id="text_11">
      <text style="font-size: 16px; font-family: 'Arial', sans-serif; text-anchor: end; fill: #262626" x="76.9" y="351.32625" transform="rotate(-0 76.9 351.32625)">0.0</text>
     </g>
    </g>
    <g id="ytick_2">
     <g id="line2d_27">
      <g>
       <use xlink:href="#m2b315a3cda" x="86.4" y="293.76" style="fill: #262626; stroke: #262626; stroke-width: 1.25"/>
      </g>
     </g>
     <g id="text_12">
      <text style="font-size: 16px; font-family: 'Arial', sans-serif; text-anchor: end; fill: #262626" x="76.9" y="299.48625" transform="rotate(-0 76.9 299.48625)">0.1</text>
     </g>
    </g>
    <g id="ytick_3">
     <g id="line2d_28">
      <g>
       <use xlink:href="#m2b315a3cda" x="86.4" y="241.92" style="fill: #262626; stroke: #262626; stroke-width: 1.25"/>
      </g>
     </g>
     <g id="text_13">
      <text style="font-size: 16px; font-family: 'Arial', sans-serif; text-anchor: end; fill: #262626" x="76.9" y="247.64625" transform="rotate(-0 76.9 247.64625)">0.2</text>
     </g>
    </g>
    <g id="ytick_4">
     <g id="line2d_29">
      <g>
       <use xlink:href="#m2b315a3cda" x="86.4" y="190.08" style="fill: #262626; stroke: #262626; stroke-width: 1.25"/>
      </g>
     </g>
     <g id="text_14">
      <text style="font-size: 16px; font-family: 'Arial', sans-serif; text-anchor: end; fill: #262626" x="76.9" y="195.80625" transform="rotate(-0 76.9 195.80625)">0.3</text>
     </g>
    </g>
    <g id="ytick_5">
     <g id="line2d_30">
      <g>
       <use xlink:href="#m2b315a3cda" x="86.4" y="138.24" style="fill: #262626; stroke: #262626; stroke-width: 1.25"/>
      </g>
     </g>
     <g id="text_15">
      <text style="font-size: 16px; font-family: 'Arial', sans-serif; text-anchor: end; fill: #262626" x="76.9" y="143.96625" transform="rotate(-0 76.9 143.96625)">0.4</text>
     </g>
    </g>
    <g id="ytick_6">
     <g id="line2d_31">
      <g>
       <use xlink:href="#m2b315a3cda" x="86.4" y="86.4" style="fill: #262626; stroke: #262626; stroke-width: 1.25"/>
      </g>
     </g>
     <g id="text_16">
      <text style="font-size: 16px; font-family: 'Arial', sans-serif; text-anchor: end; fill: #262626" x="76.9" y="92.12625" transform="rotate(-0 76.9 92.12625)">0.5</text>
     </g>
    </g>
    <g id="text_17">
     <text style="font-size: 16px; font-family: 'Arial', sans-serif; text-anchor: middle; fill: #262626" x="47.48" y="216" transform="rotate(-90 47.48 216)">Outbreak risk</text>
    </g>
   </g>
   <g id="FillBetweenPolyCollection_1">
    <defs>
     <path id="mc26d74c4cc" d="M 210.318904 -86.4  L 183.333699 -86.4  L 183.333699 -345.6  L 210.318904 -345.6  L 210.318904 -345.6  L 210.318904 -86.4  z "/>
    </defs>
    <g clip-path="url(#pb9ccbc1c78)">
     <use xlink:href="#mc26d74c4cc" x="0" y="432" style="fill: #808080; fill-opacity: 0.5"/>
    </g>
   </g>
   <g id="FillBetweenPolyCollection_2">
    <defs>
     <path id="m3ec0d991b7" d="M 339.918904 -86.4  L 312.933699 -86.4  L 312.933699 -345.6  L 339.918904 -345.6  L 339.918904 -345.6  L 339.918904 -86.4  z "/>
    </defs>
    <g clip-path="url(#pb9ccbc1c78)">
     <use xlink:href="#m3ec0d991b7" x="0" y="432" style="fill: #808080; fill-opacity: 0.5"/>
    </g>
   </g>
   <g id="line2d_32">
    <path d="M 86.4 147.638702  L 88.175342 147.97007  L 89.950685 148.508865  L 91.726027 149.254878  L 93.50137 150.207547  L 95.631781 151.622148  L 97.762192 153.330334  L 99.892603 155.328307  L 102.023014 157.610775  L 104.508493 160.623585  L 106.993973 163.99855  L 109.834521 168.272531  L 112.675068 172.951512  L 115.870685 178.630823  L 120.131507 186.710408  L 130.073425 205.861368  L 132.913973 210.76899  L 135.399452 214.62111  L 137.529863 217.511697  L 139.305205 219.585661  L 141.080548 221.324287  L 142.500822 222.457826  L 143.921096 223.3524  L 145.34137 224.001291  L 146.761644 224.40037  L 148.181918 224.548068  L 149.602192 224.445308  L 151.022466 224.095382  L 152.44274 223.503805  L 153.863014 222.678139  L 155.283288 221.627803  L 157.05863 220.01595  L 158.833973 218.095201  L 160.964384 215.421614  L 163.094795 212.394947  L 165.580274 208.49086  L 168.77589 203.018971  L 173.036712 195.23437  L 182.268493 178.23933  L 185.819178 172.200916  L 189.014795 167.186234  L 191.855342 163.125429  L 194.340822 159.912322  L 196.826301 157.039458  L 199.311781 154.524039  L 201.442192 152.662809  L 203.572603 151.080927  L 205.703014 149.783784  L 207.833425 148.775642  L 209.608767 148.158714  L 211.38411 147.746307  L 213.159452 147.539588  L 214.934795 147.539414  L 216.710137 147.746358  L 218.485479 148.160701  L 220.260822 148.782427  L 222.036164 149.611191  L 224.166575 150.877962  L 226.296986 152.439748  L 228.427397 154.293389  L 230.557808 156.434378  L 233.043288 159.287038  L 235.528767 162.508972  L 238.014247 166.082064  L 240.854795 170.56446  L 244.050411 176.057912  L 247.601096 182.61361  L 253.282192 193.668404  L 258.608219 203.913683  L 261.803836 209.586918  L 264.289315 213.569347  L 266.419726 216.594495  L 268.195068 218.794818  L 269.970411 220.670702  L 271.745753 222.196526  L 273.166027 223.151571  L 274.586301 223.862371  L 276.006575 224.324149  L 277.426849 224.534701  L 278.847123 224.494337  L 280.267397 224.20577  L 281.687671 223.673973  L 283.107945 222.906016  L 284.528219 221.910871  L 286.303562 220.36387  L 288.078904 218.502773  L 290.209315 215.893177  L 292.339726 212.921609  L 294.825205 209.070055  L 298.020822 203.646868  L 302.281644 195.895325  L 312.223562 177.616662  L 315.774247 171.622417  L 318.969863 166.657178  L 321.810411 162.646349  L 324.29589 159.480636  L 326.78137 156.657876  L 329.266849 154.194703  L 331.39726 152.379602  L 333.527671 150.844835  L 335.658082 149.59559  L 337.788493 148.635961  L 339.563836 148.059829  L 341.339178 147.688477  L 343.114521 147.523007  L 344.889863 147.564221  L 345.244932 147.597316  L 345.244932 147.597316  " clip-path="url(#pb9ccbc1c78)" style="fill: none; stroke-dasharray: 7.4,3.2; stroke-dashoffset: 0; stroke: #de8f05; stroke-opacity: 0.75; stroke-width: 2"/>
   </g>
   <g id="line2d_33">
    <path d="M 86.4 251.599191  L 88.530411 249.130929  L 90.660822 246.99812  L 92.791233 245.207284  L 94.566575 243.979654  L 96.341918 242.994548  L 98.11726 242.252631  L 99.892603 241.753388  L 101.667945 241.494777  L 103.443288 241.473212  L 105.21863 241.683423  L 106.993973 242.118072  L 108.769315 242.767496  L 110.899726 243.812953  L 113.030137 245.123562  L 115.515616 246.943351  L 118.356164 249.326496  L 122.616986 253.253374  L 127.587945 257.784452  L 130.073425 259.778285  L 132.203836 261.234267  L 133.979178 262.222023  L 135.754521 262.970581  L 137.529863 263.452102  L 138.950137 263.62922  L 140.370411 263.610622  L 141.790685 263.388514  L 143.210959 262.956978  L 144.631233 262.312098  L 146.051507 261.451814  L 147.826849 260.073415  L 149.602192 258.361713  L 151.377534 256.324414  L 153.152877 253.973242  L 155.283288 250.75957  L 157.413699 247.149877  L 159.899178 242.491736  L 162.739726 236.668754  L 166.290411 228.818659  L 171.616438 216.374519  L 177.297534 203.176809  L 179.427945 198.655897  L 180.848219 196.035135  L 181.913425 194.472025  L 182.623562 193.743652  L 183.333699 193.388977  L 183.688767 193.398892  L 184.043836 193.573357  L 184.753973 194.367947  L 186.529315 196.882247  L 188.659726 200.344123  L 190.435068 203.627441  L 192.210411 207.315112  L 193.985753 211.447642  L 195.761096 216.062311  L 197.891507 222.269879  L 200.021918 229.188337  L 203.217534 240.50255  L 205.703014 249.161066  L 207.123288 253.457341  L 208.188493 256.069243  L 208.89863 257.399502  L 209.608767 258.307606  L 209.963836 258.573124  L 210.318904 258.694495  L 210.673973 258.654864  L 211.029041 258.426128  L 211.739178 257.486578  L 214.579726 253.427034  L 216.710137 250.739639  L 218.840548 248.382368  L 220.970959 246.362894  L 223.10137 244.687218  L 224.876712 243.556431  L 226.652055 242.668612  L 228.427397 242.023896  L 230.20274 241.621217  L 231.978082 241.457961  L 233.753425 241.52984  L 235.528767 241.830827  L 237.30411 242.352694  L 239.079452 243.084756  L 241.209863 244.221842  L 243.340274 245.613871  L 245.825753 247.512609  L 249.02137 250.281451  L 258.963288 259.237053  L 261.093699 260.779206  L 263.22411 262.042643  L 264.999452 262.841401  L 266.774795 263.378351  L 268.195068 263.60294  L 269.615342 263.63408  L 271.035616 263.463473  L 272.45589 263.084742  L 273.876164 262.493464  L 275.296438 261.68712  L 276.716712 260.665057  L 278.492055 259.085986  L 280.267397 257.177743  L 282.04274 254.950461  L 284.173151 251.876588  L 286.303562 248.394766  L 288.789041 243.867985  L 291.629589 238.168461  L 294.825205 231.227327  L 299.086027 221.404189  L 307.607671 201.618876  L 309.738082 197.288326  L 311.158356 194.94073  L 311.868493 194.06886  L 312.57863 193.511231  L 312.933699 193.388977  L 313.288767 193.398892  L 313.643836 193.573357  L 314.353973 194.367947  L 316.129315 196.882247  L 318.259726 200.344123  L 320.035068 203.627441  L 321.810411 207.315112  L 323.585753 211.447642  L 325.361096 216.062311  L 327.491507 222.269879  L 329.621918 229.188337  L 332.817534 240.50255  L 335.303014 249.161066  L 336.723288 253.457341  L 337.788493 256.069243  L 338.49863 257.399502  L 339.208767 258.307606  L 339.563836 258.573124  L 339.918904 258.694495  L 340.273973 258.654864  L 340.629041 258.426128  L 341.339178 257.486578  L 344.179726 253.427034  L 345.244932 252.042641  L 345.244932 252.042641  " clip-path="url(#pb9ccbc1c78)" style="fill: none; stroke: #de8f05; stroke-width: 2; stroke-linecap: round"/>
   </g>
   <g id="line2d_34">
    <path d="M 86.4 112.683727  L 88.530411 113.022938  L 90.660822 113.621576  L 92.791233 114.478824  L 94.921644 115.593162  L 97.052055 116.962244  L 99.182466 118.582724  L 101.667945 120.784854  L 104.153425 123.313058  L 106.638904 126.154079  L 109.479452 129.761358  L 112.32 133.719846  L 115.515616 138.536436  L 119.42137 144.825917  L 131.848767 165.21522  L 134.689315 169.252375  L 137.174795 172.369931  L 139.305205 174.666584  L 141.080548 176.279266  L 142.85589 177.593063  L 144.631233 178.589043  L 146.051507 179.147422  L 147.471781 179.488628  L 148.892055 179.610195  L 150.312329 179.511924  L 151.732603 179.195848  L 153.152877 178.666147  L 154.573151 177.929026  L 156.348493 176.728396  L 158.123836 175.235798  L 159.899178 173.474081  L 162.029589 171.041012  L 164.515068 167.823699  L 167.355616 163.746232  L 170.906301 158.227275  L 178.36274 146.058046  L 182.97863 138.754674  L 186.529315 133.512906  L 189.724932 129.177686  L 192.565479 125.681002  L 195.406027 122.555662  L 197.891507 120.146362  L 200.376986 118.055097  L 202.507397 116.523788  L 204.637808 115.239119  L 206.768219 114.205164  L 208.89863 113.42507  L 211.029041 112.901206  L 213.159452 112.635268  L 215.289863 112.628359  L 217.420274 112.881021  L 219.550685 113.393242  L 221.681096 114.164418  L 223.811507 115.193276  L 225.941918 116.477763  L 228.072329 118.014885  L 230.20274 119.800513  L 232.688219 122.190378  L 235.173699 124.899209  L 238.014247 128.365413  L 240.854795 132.196859  L 244.050411 136.892574  L 247.956164 143.076104  L 253.63726 152.566324  L 259.318356 161.93216  L 262.513973 166.780677  L 264.999452 170.186874  L 267.129863 172.778331  L 269.260274 175.01197  L 271.035616 176.566609  L 272.810959 177.818206  L 274.231233 178.589043  L 275.651507 179.147422  L 277.071781 179.488628  L 278.492055 179.610195  L 279.912329 179.511924  L 281.332603 179.195848  L 282.752877 178.666147  L 284.173151 177.929026  L 285.948493 176.728396  L 287.723836 175.235798  L 289.499178 173.474081  L 291.629589 171.041012  L 294.115068 167.823699  L 296.955616 163.746232  L 300.506301 158.227275  L 307.96274 146.058046  L 312.57863 138.754674  L 316.129315 133.512906  L 319.324932 129.177686  L 322.165479 125.681002  L 325.006027 122.555662  L 327.491507 120.146362  L 329.976986 118.055097  L 332.107397 116.523788  L 334.237808 115.239119  L 336.368219 114.205164  L 338.49863 113.42507  L 340.629041 112.901206  L 342.759452 112.635268  L 344.889863 112.628359  L 345.244932 112.652436  L 345.244932 112.652436  " clip-path="url(#pb9ccbc1c78)" style="fill: none; stroke-dasharray: 7.4,3.2; stroke-dashoffset: 0; stroke: #0173b2; stroke-opacity: 0.75; stroke-width: 2"/>
   </g>
   <g id="line2d_35">
    <path d="M 86.4 203.809891  L 88.530411 201.500343  L 90.660822 199.494147  L 92.791233 197.794144  L 94.921644 196.402113  L 96.696986 195.477713  L 98.472329 194.766952  L 100.247671 194.268403  L 102.023014 193.979453  L 103.798356 193.896329  L 105.573699 194.014016  L 107.349041 194.325927  L 109.479452 194.944787  L 111.609863 195.813465  L 113.740274 196.909959  L 116.225753 198.441097  L 119.066301 200.459905  L 122.972055 203.538347  L 129.363288 208.609429  L 132.203836 210.548409  L 134.334247 211.755561  L 136.464658 212.689332  L 138.24 213.221837  L 140.015342 213.50324  L 141.435616 213.532598  L 142.85589 213.37772  L 144.276164 213.031247  L 145.696438 212.487883  L 147.116712 211.744464  L 148.892055 210.532431  L 150.667397 209.008853  L 152.44274 207.181285  L 154.218082 205.061947  L 156.348493 202.157018  L 158.478904 198.891269  L 160.964384 194.681165  L 163.804932 189.433555  L 167.355616 182.394841  L 173.746849 169.096639  L 178.717808 158.968638  L 180.848219 155.078181  L 181.913425 153.458427  L 182.623562 152.623485  L 183.333699 152.111894  L 183.688767 152.032038  L 184.043836 152.117332  L 184.753973 152.744901  L 186.529315 154.815267  L 188.659726 157.656697  L 190.790137 160.908558  L 192.920548 164.617783  L 195.050959 168.833661  L 197.18137 173.607072  L 199.311781 178.985876  L 201.442192 184.997666  L 203.927671 192.74749  L 207.833425 205.190037  L 208.89863 207.904511  L 209.608767 209.263208  L 210.318904 210.078774  L 210.673973 210.216414  L 211.029041 210.11735  L 211.739178 209.296833  L 214.934795 205.07726  L 217.420274 202.236659  L 219.550685 200.128951  L 221.681096 198.326659  L 223.811507 196.831856  L 225.941918 195.64547  L 227.71726 194.892055  L 229.492603 194.351245  L 231.267945 194.020641  L 233.043288 193.896708  L 234.81863 193.974705  L 236.593973 194.248381  L 238.724384 194.823767  L 240.854795 195.652221  L 242.985205 196.712467  L 245.470685 198.207443  L 248.311233 200.194654  L 252.216986 203.250243  L 258.963288 208.609429  L 261.803836 210.548409  L 263.934247 211.755561  L 266.064658 212.689332  L 267.84 213.221837  L 269.615342 213.50324  L 271.035616 213.532598  L 272.45589 213.37772  L 273.876164 213.031247  L 275.296438 212.487883  L 276.716712 211.744464  L 278.492055 210.532431  L 280.267397 209.008853  L 282.04274 207.181285  L 283.818082 205.061947  L 285.948493 202.157018  L 288.078904 198.891269  L 290.564384 194.681165  L 293.404932 189.433555  L 296.955616 182.394841  L 303.346849 169.096639  L 308.317808 158.968638  L 310.448219 155.078181  L 311.513425 153.458427  L 312.223562 152.623485  L 312.933699 152.111894  L 313.288767 152.032038  L 313.643836 152.117332  L 314.353973 152.744901  L 316.129315 154.815267  L 318.259726 157.656697  L 320.390137 160.908558  L 322.520548 164.617783  L 324.650959 168.833661  L 326.78137 173.607072  L 328.911781 178.985876  L 331.042192 184.997666  L 333.527671 192.74749  L 337.433425 205.190037  L 338.49863 207.904511  L 339.208767 209.263208  L 339.918904 210.078774  L 340.273973 210.216414  L 340.629041 210.11735  L 341.339178 209.296833  L 344.534795 205.07726  L 345.244932 204.224072  L 345.244932 204.224072  " clip-path="url(#pb9ccbc1c78)" style="fill: none; stroke: #0173b2; stroke-width: 2; stroke-linecap: round"/>
   </g>
   <g id="line2d_36">
    <path d="M 86.4 87.460688  L 88.530411 87.750766  L 90.660822 88.273131  L 92.791233 89.026905  L 94.921644 90.010569  L 97.052055 91.221851  L 99.537534 92.918401  L 102.023014 94.913449  L 104.508493 97.197532  L 107.349041 100.145538  L 110.189589 103.429591  L 113.385205 107.484503  L 116.93589 112.364255  L 121.551781 119.115482  L 130.428493 132.186633  L 133.62411 136.439871  L 136.109589 139.409547  L 138.24 141.654767  L 140.370411 143.575098  L 142.145753 144.898193  L 143.921096 145.948327  L 145.696438 146.709968  L 147.116712 147.103961  L 148.536986 147.302659  L 149.95726 147.304605  L 151.377534 147.110377  L 152.797808 146.722551  L 154.573151 145.972545  L 156.348493 144.939899  L 158.123836 143.641241  L 160.254247 141.760052  L 162.384658 139.564318  L 164.870137 136.663408  L 167.710685 132.990567  L 171.26137 128.0254  L 185.46411 107.709  L 188.659726 103.686367  L 191.855342 100.028266  L 194.69589 97.12116  L 197.18137 94.864634  L 199.666849 92.890122  L 202.152329 91.207913  L 204.637808 89.825901  L 206.768219 88.884802  L 208.89863 88.171454  L 211.029041 87.687937  L 213.159452 87.435711  L 215.289863 87.415683  L 217.420274 87.628237  L 219.550685 88.073241  L 221.681096 88.750014  L 223.811507 89.657261  L 225.941918 90.792975  L 228.072329 92.154301  L 230.557808 94.02242  L 233.043288 96.183975  L 235.528767 98.627803  L 238.369315 101.74741  L 241.209863 105.187708  L 244.405479 109.394302  L 248.311233 114.919583  L 254.702466 124.436405  L 259.673425 131.690386  L 262.869041 135.989003  L 265.354521 139.006865  L 267.484932 141.301961  L 269.615342 143.279375  L 271.390685 144.654841  L 273.166027 145.760944  L 274.94137 146.581318  L 276.361644 147.02367  L 277.781918 147.271408  L 279.202192 147.322567  L 280.622466 147.177218  L 282.04274 146.837444  L 283.463014 146.307269  L 285.238356 145.385892  L 287.013699 144.191415  L 288.789041 142.742553  L 290.919452 140.698852  L 293.404932 137.947169  L 296.245479 134.406055  L 299.441096 130.049414  L 304.412055 122.838545  L 311.868493 112.034857  L 315.774247 106.786479  L 318.969863 102.840084  L 321.810411 99.646488  L 324.650959 96.781998  L 327.136438 94.565026  L 329.621918 92.631703  L 332.107397 90.991945  L 334.237808 89.825901  L 336.368219 88.884802  L 338.49863 88.171454  L 340.629041 87.687937  L 342.759452 87.435711  L 344.889863 87.415683  L 345.244932 87.434954  L 345.244932 87.434954  " clip-path="url(#pb9ccbc1c78)" style="fill: none; stroke-dasharray: 7.4,3.2; stroke-dashoffset: 0; stroke: #029e73; stroke-opacity: 0.75; stroke-width: 2"/>
   </g>
   <g id="line2d_37">
    <path d="M 86.4 169.199734  L 88.885479 166.757047  L 91.01589 164.959956  L 93.146301 163.438685  L 95.276712 162.194072  L 97.407123 161.225969  L 99.537534 160.532744  L 101.667945 160.111164  L 103.798356 159.955752  L 105.928767 160.058957  L 108.059178 160.410554  L 110.189589 160.9971  L 112.32 161.802089  L 114.805479 162.990021  L 117.646027 164.627006  L 120.841644 166.73874  L 132.558904 174.769902  L 135.044384 176.02439  L 137.174795 176.835366  L 138.950137 177.289558  L 140.725479 177.51694  L 142.500822 177.497276  L 144.276164 177.214107  L 146.051507 176.655482  L 147.826849 175.814165  L 149.602192 174.687708  L 151.377534 173.278647  L 153.152877 171.594273  L 155.283288 169.226345  L 157.413699 166.506822  L 159.899178 162.936539  L 162.739726 158.411816  L 165.935342 152.883233  L 170.551233 144.389981  L 179.072877 128.586415  L 181.203288 125.052413  L 182.268493 123.589441  L 182.97863 122.868559  L 183.688767 122.514235  L 184.043836 122.556145  L 184.753973 123.089393  L 186.529315 124.89951  L 188.659726 127.383111  L 190.790137 130.220677  L 192.920548 133.450703  L 195.050959 137.113007  L 197.18137 141.248929  L 199.311781 145.900834  L 201.442192 151.106967  L 203.572603 156.880771  L 206.768219 166.336795  L 208.543562 171.355839  L 209.608767 173.72472  L 210.318904 174.721787  L 210.673973 174.951008  L 211.029041 174.929869  L 211.739178 174.214287  L 214.934795 170.359765  L 217.420274 167.758459  L 219.550685 165.824092  L 221.681096 164.16477  L 223.811507 162.781788  L 225.941918 161.675528  L 228.072329 160.845149  L 230.20274 160.288282  L 232.333151 160.000609  L 234.463562 159.975591  L 236.593973 160.20447  L 238.724384 160.675406  L 240.854795 161.373479  L 243.340274 162.450263  L 245.825753 163.775057  L 248.666301 165.536539  L 252.572055 168.248126  L 260.028493 173.48705  L 262.869041 175.158068  L 264.999452 176.177977  L 267.129863 176.943253  L 268.905205 177.35388  L 270.680548 177.533356  L 272.45589 177.462163  L 274.231233 177.124721  L 276.006575 176.509978  L 277.781918 175.611668  L 279.55726 174.428341  L 281.332603 172.96348  L 283.107945 171.225312  L 285.238356 168.796644  L 287.368767 166.021748  L 289.854247 162.394992  L 292.694795 157.817845  L 296.245479 151.606834  L 301.216438 142.387686  L 308.317808 129.212992  L 310.448219 125.601668  L 311.868493 123.589441  L 312.57863 122.868559  L 313.288767 122.514235  L 313.643836 122.556145  L 314.353973 123.089393  L 316.129315 124.89951  L 318.259726 127.383111  L 320.390137 130.220677  L 322.520548 133.450703  L 324.650959 137.113007  L 326.78137 141.248929  L 328.911781 145.900834  L 331.042192 151.106967  L 333.172603 156.880771  L 336.368219 166.336795  L 338.143562 171.355839  L 339.208767 173.72472  L 339.918904 174.721787  L 340.273973 174.951008  L 340.629041 174.929869  L 341.339178 174.214287  L 344.534795 170.359765  L 345.244932 169.578924  L 345.244932 169.578924  " clip-path="url(#pb9ccbc1c78)" style="fill: none; stroke: #029e73; stroke-width: 2; stroke-linecap: round"/>
   </g>
   <g id="patch_3">
    <path d="M 86.4 345.6  L 86.4 86.4  " style="fill: none; stroke: #262626; stroke-width: 1.25; stroke-linejoin: miter; stroke-linecap: square"/>
   </g>
   <g id="patch_4">
    <path d="M 86.4 345.6  L 345.6 345.6  " style="fill: none; stroke: #262626; stroke-width: 1.25; stroke-linejoin: miter; stroke-linecap: square"/>
   </g>
   <g id="legend_1">
    <g id="patch_5">
     <path d="M 239.06 338.6  L 335.8 338.6  Q 338.6 338.6 338.6 335.8  L 338.6 271.26  Q 338.6 268.46 335.8 268.46  L 239.06 268.46  Q 236.26 268.46 236.26 271.26  L 236.26 335.8  Q 236.26 338.6 239.06 338.6  z " style="fill: #ffffff; opacity: 0.8; stroke: #cccccc; stroke-linejoin: miter"/>
    </g>
    <g id="line2d_38">
     <path d="M 241.86 281.3575  L 255.86 281.3575  L 269.86 281.3575  " style="fill: none; stroke: #de8f05; stroke-width: 2; stroke-linecap: round"/>
    </g>
    <g id="text_18">
     <!-- $\it{\widebar{R}_0}$ = 2 -->
     <g style="fill: #262626" transform="translate(281.06 286.2575)">
      <text>
       <tspan x="11.150635" y="-5.03125" style="font-size: 9.727539px; font-family: 'STIXSizeOneSym'; fill: #262626">&#773;</tspan>
       <tspan x="0" y="-0.5625" style="font-style: oblique; font-size: 14px; font-family: 'DejaVu Sans'; fill: #262626">R</tspan>
       <tspan x="9.861523" y="1.734375" style="font-size: 9.8px; font-family: 'DejaVu Sans'; fill: #262626">0</tspan>
       <tspan x="16.479395" y="-0.5625" style="font-size: 14px; font-family: 'Arial'; fill: #262626">&#160;</tspan>
       <tspan x="20.369043" y="-0.5625" style="font-size: 14px; font-family: 'Arial'; fill: #262626">=</tspan>
       <tspan x="28.544824" y="-0.5625" style="font-size: 14px; font-family: 'Arial'; fill: #262626">&#160;</tspan>
       <tspan x="32.434473" y="-0.5625" style="font-size: 14px; font-family: 'Arial'; fill: #262626">2</tspan>
      </text>
     </g>
    </g>
    <g id="line2d_39">
     <path d="M 241.86 303.3375  L 255.86 303.3375  L 269.86 303.3375  " style="fill: none; stroke: #0173b2; stroke-width: 2; stroke-linecap: round"/>
    </g>
    <g id="text_19">
     <!-- $\it{\widebar{R}_0}$ = 2.5 -->
     <g style="fill: #262626" transform="translate(281.06 308.2375)">
      <text>
       <tspan x="11.150635" y="-5.03125" style="font-size: 9.727539px; font-family: 'STIXSizeOneSym'; fill: #262626">&#773;</tspan>
       <tspan x="0" y="-0.5625" style="font-style: oblique; font-size: 14px; font-family: 'DejaVu Sans'; fill: #262626">R</tspan>
       <tspan x="9.861523" y="1.734375" style="font-size: 9.8px; font-family: 'DejaVu Sans'; fill: #262626">0</tspan>
       <tspan x="16.479395" y="-0.5625" style="font-size: 14px; font-family: 'Arial'; fill: #262626">&#160;</tspan>
       <tspan x="20.369043" y="-0.5625" style="font-size: 14px; font-family: 'Arial'; fill: #262626">=</tspan>
       <tspan x="28.544824" y="-0.5625" style="font-size: 14px; font-family: 'Arial'; fill: #262626">&#160;</tspan>
       <tspan x="32.434473" y="-0.5625" style="font-size: 14px; font-family: 'Arial'; fill: #262626">2</tspan>
       <tspan x="40.220605" y="-0.5625" style="font-size: 14px; font-family: 'Arial'; fill: #262626">.</tspan>
       <tspan x="44.110254" y="-0.5625" style="font-size: 14px; font-family: 'Arial'; fill: #262626">5</tspan>
      </text>
     </g>
    </g>
    <g id="line2d_40">
     <path d="M 241.86 325.3175  L 255.86 325.3175  L 269.86 325.3175  " style="fill: none; stroke: #029e73; stroke-width: 2; stroke-linecap: round"/>
    </g>
    <g id="text_20">
     <!-- $\it{\widebar{R}_0}$ = 3 -->
     <g style="fill: #262626" transform="translate(281.06 330.2175)">
      <text>
       <tspan x="11.150635" y="-5.03125" style="font-size: 9.727539px; font-family: 'STIXSizeOneSym'; fill: #262626">&#773;</tspan>
       <tspan x="0" y="-0.5625" style="font-style: oblique; font-size: 14px; font-family: 'DejaVu Sans'; fill: #262626">R</tspan>
       <tspan x="9.861523" y="1.734375" style="font-size: 9.8px; font-family: 'DejaVu Sans'; fill: #262626">0</tspan>
       <tspan x="16.479395" y="-0.5625" style="font-size: 14px; font-family: 'Arial'; fill: #262626">&#160;</tspan>
       <tspan x="20.369043" y="-0.5625" style="font-size: 14px; font-family: 'Arial'; fill: #262626">=</tspan>
       <tspan x="28.544824" y="-0.5625" style="font-size: 14px; font-family: 'Arial'; fill: #262626">&#160;</tspan>
       <tspan x="32.434473" y="-0.5625" style="font-size: 14px; font-family: 'Arial'; fill: #262626">3</tspan>
      </text>
     </g>
    </g>
   </g>
  </g>
 </g>
 <defs>
  <clipPath id="pb9ccbc1c78">
   <rect x="86.4" y="86.4" width="259.2" height="259.2"/>
  </clipPath>
 </defs>
</g>
    <g transform="translate(-25, 260) scale(1 1) "><metadata>
  <rdf:RDF xmlns:dc="http://purl.org/dc/elements/1.1/" xmlns:cc="http://creativecommons.org/ns#" xmlns:rdf="http://www.w3.org/1999/02/22-rdf-syntax-ns#">
   <cc:Work>
    <dc:type rdf:resource="http://purl.org/dc/dcmitype/StillImage"/>
    <dc:date>2025-08-08T15:51:01.643865</dc:date>
    <dc:format>image/svg+xml</dc:format>
    <dc:creator>
     <cc:Agent>
      <dc:title>Matplotlib v3.10.3, https://matplotlib.org/</dc:title>
     </cc:Agent>
    </dc:creator>
   </cc:Work>
  </rdf:RDF>
 </metadata>
 <defs>
  <style type="text/css">*{stroke-linejoin: round; stroke-linecap: butt}</style>
 </defs>
 <g id="figure_1">
  <g id="patch_1">
   <path d="M 0 432  L 432 432  L 432 0  L 0 0  L 0 432  z " style="fill: none"/>
  </g>
  <g id="axes_1">
   <g id="patch_2">
    <path d="M 86.4 345.6  L 345.6 345.6  L 345.6 86.4  L 86.4 86.4  L 86.4 345.6  z " style="fill: none"/>
   </g>
   <g id="matplotlib.axis_1">
    <g id="xtick_1">
     <g id="line2d_1">
      <defs>
       <path id="mda5abc59b6" d="M 0 0  L 0 6  " style="stroke: #262626; stroke-width: 1.25"/>
      </defs>
      <g>
       <use xlink:href="#mda5abc59b6" x="86.4" y="345.6" style="fill: #262626; stroke: #262626; stroke-width: 1.25"/>
      </g>
     </g>
     <g id="text_1">
      <text style="font-size: 16px; font-family: 'Arial', sans-serif; text-anchor: middle; fill: #262626" x="86.4" y="366.5525" transform="rotate(-0 86.4 366.5525)">Jan</text>
     </g>
    </g>
    <g id="xtick_2">
     <g id="line2d_2">
      <g>
       <use xlink:href="#mda5abc59b6" x="97.407123" y="345.6" style="fill: #262626; stroke: #262626; stroke-width: 1.25"/>
      </g>
     </g>
    </g>
    <g id="xtick_3">
     <g id="line2d_3">
      <g>
       <use xlink:href="#mda5abc59b6" x="107.349041" y="345.6" style="fill: #262626; stroke: #262626; stroke-width: 1.25"/>
      </g>
     </g>
    </g>
    <g id="xtick_4">
     <g id="line2d_4">
      <g>
       <use xlink:href="#mda5abc59b6" x="118.356164" y="345.6" style="fill: #262626; stroke: #262626; stroke-width: 1.25"/>
      </g>
     </g>
     <g id="text_2">
      <text style="font-size: 16px; font-family: 'Arial', sans-serif; text-anchor: middle; fill: #262626" x="118.356164" y="366.5525" transform="rotate(-0 118.356164 366.5525)">Apr</text>
     </g>
    </g>
    <g id="xtick_5">
     <g id="line2d_5">
      <g>
       <use xlink:href="#mda5abc59b6" x="129.008219" y="345.6" style="fill: #262626; stroke: #262626; stroke-width: 1.25"/>
      </g>
     </g>
    </g>
    <g id="xtick_6">
     <g id="line2d_6">
      <g>
       <use xlink:href="#mda5abc59b6" x="140.015342" y="345.6" style="fill: #262626; stroke: #262626; stroke-width: 1.25"/>
      </g>
     </g>
    </g>
    <g id="xtick_7">
     <g id="line2d_7">
      <g>
       <use xlink:href="#mda5abc59b6" x="150.667397" y="345.6" style="fill: #262626; stroke: #262626; stroke-width: 1.25"/>
      </g>
     </g>
     <g id="text_3">
      <text style="font-size: 16px; font-family: 'Arial', sans-serif; text-anchor: middle; fill: #262626" x="150.667397" y="366.5525" transform="rotate(-0 150.667397 366.5525)">Jul</text>
     </g>
    </g>
    <g id="xtick_8">
     <g id="line2d_8">
      <g>
       <use xlink:href="#mda5abc59b6" x="161.674521" y="345.6" style="fill: #262626; stroke: #262626; stroke-width: 1.25"/>
      </g>
     </g>
    </g>
    <g id="xtick_9">
     <g id="line2d_9">
      <g>
       <use xlink:href="#mda5abc59b6" x="172.681644" y="345.6" style="fill: #262626; stroke: #262626; stroke-width: 1.25"/>
      </g>
     </g>
    </g>
    <g id="xtick_10">
     <g id="line2d_10">
      <g>
       <use xlink:href="#mda5abc59b6" x="183.333699" y="345.6" style="fill: #262626; stroke: #262626; stroke-width: 1.25"/>
      </g>
     </g>
     <g id="text_4">
      <text style="font-size: 16px; font-family: 'Arial', sans-serif; text-anchor: middle; fill: #262626" x="183.333699" y="366.5525" transform="rotate(-0 183.333699 366.5525)">Oct</text>
     </g>
    </g>
    <g id="xtick_11">
     <g id="line2d_11">
      <g>
       <use xlink:href="#mda5abc59b6" x="194.340822" y="345.6" style="fill: #262626; stroke: #262626; stroke-width: 1.25"/>
      </g>
     </g>
    </g>
    <g id="xtick_12">
     <g id="line2d_12">
      <g>
       <use xlink:href="#mda5abc59b6" x="204.992877" y="345.6" style="fill: #262626; stroke: #262626; stroke-width: 1.25"/>
      </g>
     </g>
    </g>
    <g id="xtick_13">
     <g id="line2d_13">
      <g>
       <use xlink:href="#mda5abc59b6" x="216" y="345.6" style="fill: #262626; stroke: #262626; stroke-width: 1.25"/>
      </g>
     </g>
     <g id="text_5">
      <text style="font-size: 16px; font-family: 'Arial', sans-serif; text-anchor: middle; fill: #262626" x="216" y="366.5525" transform="rotate(-0 216 366.5525)">Jan</text>
     </g>
    </g>
    <g id="xtick_14">
     <g id="line2d_14">
      <g>
       <use xlink:href="#mda5abc59b6" x="227.007123" y="345.6" style="fill: #262626; stroke: #262626; stroke-width: 1.25"/>
      </g>
     </g>
    </g>
    <g id="xtick_15">
     <g id="line2d_15">
      <g>
       <use xlink:href="#mda5abc59b6" x="236.949041" y="345.6" style="fill: #262626; stroke: #262626; stroke-width: 1.25"/>
      </g>
     </g>
    </g>
    <g id="xtick_16">
     <g id="line2d_16">
      <g>
       <use xlink:href="#mda5abc59b6" x="247.956164" y="345.6" style="fill: #262626; stroke: #262626; stroke-width: 1.25"/>
      </g>
     </g>
     <g id="text_6">
      <text style="font-size: 16px; font-family: 'Arial', sans-serif; text-anchor: middle; fill: #262626" x="247.956164" y="366.5525" transform="rotate(-0 247.956164 366.5525)">Apr</text>
     </g>
    </g>
    <g id="xtick_17">
     <g id="line2d_17">
      <g>
       <use xlink:href="#mda5abc59b6" x="258.608219" y="345.6" style="fill: #262626; stroke: #262626; stroke-width: 1.25"/>
      </g>
     </g>
    </g>
    <g id="xtick_18">
     <g id="line2d_18">
      <g>
       <use xlink:href="#mda5abc59b6" x="269.615342" y="345.6" style="fill: #262626; stroke: #262626; stroke-width: 1.25"/>
      </g>
     </g>
    </g>
    <g id="xtick_19">
     <g id="line2d_19">
      <g>
       <use xlink:href="#mda5abc59b6" x="280.267397" y="345.6" style="fill: #262626; stroke: #262626; stroke-width: 1.25"/>
      </g>
     </g>
     <g id="text_7">
      <text style="font-size: 16px; font-family: 'Arial', sans-serif; text-anchor: middle; fill: #262626" x="280.267397" y="366.5525" transform="rotate(-0 280.267397 366.5525)">Jul</text>
     </g>
    </g>
    <g id="xtick_20">
     <g id="line2d_20">
      <g>
       <use xlink:href="#mda5abc59b6" x="291.274521" y="345.6" style="fill: #262626; stroke: #262626; stroke-width: 1.25"/>
      </g>
     </g>
    </g>
    <g id="xtick_21">
     <g id="line2d_21">
      <g>
       <use xlink:href="#mda5abc59b6" x="302.281644" y="345.6" style="fill: #262626; stroke: #262626; stroke-width: 1.25"/>
      </g>
     </g>
    </g>
    <g id="xtick_22">
     <g id="line2d_22">
      <g>
       <use xlink:href="#mda5abc59b6" x="312.933699" y="345.6" style="fill: #262626; stroke: #262626; stroke-width: 1.25"/>
      </g>
     </g>
     <g id="text_8">
      <text style="font-size: 16px; font-family: 'Arial', sans-serif; text-anchor: middle; fill: #262626" x="312.933699" y="366.5525" transform="rotate(-0 312.933699 366.5525)">Oct</text>
     </g>
    </g>
    <g id="xtick_23">
     <g id="line2d_23">
      <g>
       <use xlink:href="#mda5abc59b6" x="323.940822" y="345.6" style="fill: #262626; stroke: #262626; stroke-width: 1.25"/>
      </g>
     </g>
    </g>
    <g id="xtick_24">
     <g id="line2d_24">
      <g>
       <use xlink:href="#mda5abc59b6" x="334.592877" y="345.6" style="fill: #262626; stroke: #262626; stroke-width: 1.25"/>
      </g>
     </g>
    </g>
    <g id="xtick_25">
     <g id="line2d_25">
      <g>
       <use xlink:href="#mda5abc59b6" x="345.6" y="345.6" style="fill: #262626; stroke: #262626; stroke-width: 1.25"/>
      </g>
     </g>
     <g id="text_9">
      <text style="font-size: 16px; font-family: 'Arial', sans-serif; text-anchor: middle; fill: #262626" x="345.6" y="366.5525" transform="rotate(-0 345.6 366.5525)">Jan</text>
     </g>
    </g>
    <g id="text_10">
     <text style="font-size: 16px; font-family: 'Arial', sans-serif; text-anchor: middle; fill: #262626" x="216" y="385.185" transform="rotate(-0 216 385.185)"> </text>
    </g>
   </g>
   <g id="matplotlib.axis_2">
    <g id="ytick_1">
     <g id="line2d_26">
      <defs>
       <path id="m672aa89720" d="M 0 0  L -6 0  " style="stroke: #262626; stroke-width: 1.25"/>
      </defs>
      <g>
       <use xlink:href="#m672aa89720" x="86.4" y="345.6" style="fill: #262626; stroke: #262626; stroke-width: 1.25"/>
      </g>
     </g>
     <g id="text_11">
      <text style="font-size: 16px; font-family: 'Arial', sans-serif; text-anchor: end; fill: #262626" x="76.9" y="351.32625" transform="rotate(-0 76.9 351.32625)">0.0</text>
     </g>
    </g>
    <g id="ytick_2">
     <g id="line2d_27">
      <g>
       <use xlink:href="#m672aa89720" x="86.4" y="293.76" style="fill: #262626; stroke: #262626; stroke-width: 1.25"/>
      </g>
     </g>
     <g id="text_12">
      <text style="font-size: 16px; font-family: 'Arial', sans-serif; text-anchor: end; fill: #262626" x="76.9" y="299.48625" transform="rotate(-0 76.9 299.48625)">0.1</text>
     </g>
    </g>
    <g id="ytick_3">
     <g id="line2d_28">
      <g>
       <use xlink:href="#m672aa89720" x="86.4" y="241.92" style="fill: #262626; stroke: #262626; stroke-width: 1.25"/>
      </g>
     </g>
     <g id="text_13">
      <text style="font-size: 16px; font-family: 'Arial', sans-serif; text-anchor: end; fill: #262626" x="76.9" y="247.64625" transform="rotate(-0 76.9 247.64625)">0.2</text>
     </g>
    </g>
    <g id="ytick_4">
     <g id="line2d_29">
      <g>
       <use xlink:href="#m672aa89720" x="86.4" y="190.08" style="fill: #262626; stroke: #262626; stroke-width: 1.25"/>
      </g>
     </g>
     <g id="text_14">
      <text style="font-size: 16px; font-family: 'Arial', sans-serif; text-anchor: end; fill: #262626" x="76.9" y="195.80625" transform="rotate(-0 76.9 195.80625)">0.3</text>
     </g>
    </g>
    <g id="ytick_5">
     <g id="line2d_30">
      <g>
       <use xlink:href="#m672aa89720" x="86.4" y="138.24" style="fill: #262626; stroke: #262626; stroke-width: 1.25"/>
      </g>
     </g>
     <g id="text_15">
      <text style="font-size: 16px; font-family: 'Arial', sans-serif; text-anchor: end; fill: #262626" x="76.9" y="143.96625" transform="rotate(-0 76.9 143.96625)">0.4</text>
     </g>
    </g>
    <g id="ytick_6">
     <g id="line2d_31">
      <g>
       <use xlink:href="#m672aa89720" x="86.4" y="86.4" style="fill: #262626; stroke: #262626; stroke-width: 1.25"/>
      </g>
     </g>
     <g id="text_16">
      <text style="font-size: 16px; font-family: 'Arial', sans-serif; text-anchor: end; fill: #262626" x="76.9" y="92.12625" transform="rotate(-0 76.9 92.12625)">0.5</text>
     </g>
    </g>
    <g id="text_17">
     <text style="font-size: 16px; font-family: 'Arial', sans-serif; text-anchor: middle; fill: #262626" x="47.48" y="216" transform="rotate(-90 47.48 216)">Outbreak risk</text>
    </g>
   </g>
   <g id="FillBetweenPolyCollection_1">
    <defs>
     <path id="m4e1ddae411" d="M 212.804384 -86.4  L 163.094795 -86.4  L 163.094795 -345.6  L 212.804384 -345.6  L 212.804384 -345.6  L 212.804384 -86.4  z "/>
    </defs>
    <g clip-path="url(#pbd3edfdd32)">
     <use xlink:href="#m4e1ddae411" x="0" y="432" style="fill: #808080; fill-opacity: 0.5"/>
    </g>
   </g>
   <g id="FillBetweenPolyCollection_2">
    <defs>
     <path id="m774ed551c9" d="M 342.404384 -86.4  L 292.694795 -86.4  L 292.694795 -345.6  L 342.404384 -345.6  L 342.404384 -345.6  L 342.404384 -86.4  z "/>
    </defs>
    <g clip-path="url(#pbd3edfdd32)">
     <use xlink:href="#m774ed551c9" x="0" y="432" style="fill: #808080; fill-opacity: 0.5"/>
    </g>
   </g>
   <g id="line2d_32">
    <path d="M 86.4 147.638702  L 88.175342 147.97007  L 89.950685 148.508865  L 91.726027 149.254878  L 93.50137 150.207547  L 95.631781 151.622148  L 97.762192 153.330334  L 99.892603 155.328307  L 102.023014 157.610775  L 104.508493 160.623585  L 106.993973 163.99855  L 109.834521 168.272531  L 112.675068 172.951512  L 115.870685 178.630823  L 120.131507 186.710408  L 130.073425 205.861368  L 132.913973 210.76899  L 135.399452 214.62111  L 137.529863 217.511697  L 139.305205 219.585661  L 141.080548 221.324287  L 142.500822 222.457826  L 143.921096 223.3524  L 145.34137 224.001291  L 146.761644 224.40037  L 148.181918 224.548068  L 149.602192 224.445308  L 151.022466 224.095382  L 152.44274 223.503805  L 153.863014 222.678139  L 155.283288 221.627803  L 157.05863 220.01595  L 158.833973 218.095201  L 160.964384 215.421614  L 163.094795 212.394947  L 165.580274 208.49086  L 168.77589 203.018971  L 173.036712 195.23437  L 182.268493 178.23933  L 185.819178 172.200916  L 189.014795 167.186234  L 191.855342 163.125429  L 194.340822 159.912322  L 196.826301 157.039458  L 199.311781 154.524039  L 201.442192 152.662809  L 203.572603 151.080927  L 205.703014 149.783784  L 207.833425 148.775642  L 209.608767 148.158714  L 211.38411 147.746307  L 213.159452 147.539588  L 214.934795 147.539414  L 216.710137 147.746358  L 218.485479 148.160701  L 220.260822 148.782427  L 222.036164 149.611191  L 224.166575 150.877962  L 226.296986 152.439748  L 228.427397 154.293389  L 230.557808 156.434378  L 233.043288 159.287038  L 235.528767 162.508972  L 238.014247 166.082064  L 240.854795 170.56446  L 244.050411 176.057912  L 247.601096 182.61361  L 253.282192 193.668404  L 258.608219 203.913683  L 261.803836 209.586918  L 264.289315 213.569347  L 266.419726 216.594495  L 268.195068 218.794818  L 269.970411 220.670702  L 271.745753 222.196526  L 273.166027 223.151571  L 274.586301 223.862371  L 276.006575 224.324149  L 277.426849 224.534701  L 278.847123 224.494337  L 280.267397 224.20577  L 281.687671 223.673973  L 283.107945 222.906016  L 284.528219 221.910871  L 286.303562 220.36387  L 288.078904 218.502773  L 290.209315 215.893177  L 292.339726 212.921609  L 294.825205 209.070055  L 298.020822 203.646868  L 302.281644 195.895325  L 312.223562 177.616662  L 315.774247 171.622417  L 318.969863 166.657178  L 321.810411 162.646349  L 324.29589 159.480636  L 326.78137 156.657876  L 329.266849 154.194703  L 331.39726 152.379602  L 333.527671 150.844835  L 335.658082 149.59559  L 337.788493 148.635961  L 339.563836 148.059829  L 341.339178 147.688477  L 343.114521 147.523007  L 344.889863 147.564221  L 345.244932 147.597316  L 345.244932 147.597316  " clip-path="url(#pbd3edfdd32)" style="fill: none; stroke-dasharray: 7.4,3.2; stroke-dashoffset: 0; stroke: #de8f05; stroke-opacity: 0.75; stroke-width: 2"/>
   </g>
   <g id="line2d_33">
    <path d="M 86.4 236.693065  L 88.530411 234.303003  L 90.660822 232.290609  L 92.436164 230.90374  L 94.211507 229.780841  L 95.986849 228.921138  L 97.762192 228.322978  L 99.537534 227.983627  L 101.312877 227.899164  L 103.088219 228.064441  L 104.863562 228.472741  L 106.638904 229.115612  L 108.414247 229.982811  L 110.544658 231.301797  L 112.675068 232.899267  L 115.160548 235.071874  L 118.001096 237.885087  L 121.906849 242.123918  L 127.943014 248.724098  L 130.783562 251.473877  L 132.913973 253.248043  L 134.689315 254.486457  L 136.464658 255.471617  L 138.24 256.175149  L 139.660274 256.519239  L 141.080548 256.658294  L 142.500822 256.584846  L 143.921096 256.293656  L 145.34137 255.781741  L 146.761644 255.048384  L 148.181918 254.095243  L 149.95726 252.601426  L 151.732603 250.785681  L 153.507945 248.671948  L 155.638356 245.79656  L 159.189041 240.519425  L 161.319452 237.518181  L 162.384658 236.294626  L 163.449863 235.442918  L 164.16 235.192928  L 167.000548 234.643044  L 169.486027 233.901733  L 173.036712 232.565948  L 180.848219 229.521406  L 183.688767 228.697841  L 186.174247 228.210967  L 188.304658 228.006097  L 190.435068 228.026213  L 192.565479 228.295728  L 194.340822 228.72637  L 196.116164 229.355542  L 197.891507 230.191104  L 200.021918 231.471038  L 202.152329 233.045151  L 204.637808 235.199893  L 209.253699 239.375098  L 210.318904 240.083123  L 211.38411 240.514518  L 212.094247 240.574128  L 212.804384 240.380911  L 213.514521 239.848593  L 215.289863 237.572478  L 217.420274 235.057911  L 219.550685 232.919259  L 221.326027 231.426808  L 223.10137 230.198356  L 224.876712 229.233504  L 226.652055 228.531009  L 228.427397 228.088534  L 230.20274 227.902643  L 231.978082 227.968757  L 233.753425 228.280765  L 235.528767 228.830917  L 237.30411 229.609759  L 239.079452 230.605716  L 241.209863 232.067572  L 243.340274 233.79268  L 245.825753 236.090671  L 249.02137 239.390886  L 260.028493 251.151651  L 262.158904 252.972777  L 264.289315 254.486457  L 266.064658 255.471617  L 267.84 256.175149  L 269.260274 256.519239  L 270.680548 256.658294  L 272.100822 256.584846  L 273.521096 256.293656  L 274.94137 255.781741  L 276.361644 255.048384  L 277.781918 254.095243  L 279.55726 252.601426  L 281.332603 250.785681  L 283.107945 248.671948  L 285.238356 245.79656  L 288.789041 240.519425  L 290.919452 237.518181  L 291.984658 236.294626  L 293.049863 235.442918  L 293.76 235.192928  L 296.600548 234.643044  L 299.086027 233.901733  L 302.636712 232.565948  L 310.448219 229.521406  L 313.288767 228.697841  L 315.774247 228.210967  L 317.904658 228.006097  L 320.035068 228.026213  L 322.165479 228.295728  L 323.940822 228.72637  L 325.716164 229.355542  L 327.491507 230.191104  L 329.621918 231.471038  L 331.752329 233.045151  L 334.237808 235.199893  L 338.853699 239.375098  L 339.918904 240.083123  L 340.98411 240.514518  L 341.694247 240.574128  L 342.404384 240.380911  L 343.114521 239.848593  L 344.889863 237.572478  L 345.244932 237.127725  L 345.244932 237.127725  " clip-path="url(#pbd3edfdd32)" style="fill: none; stroke: #de8f05; stroke-width: 2; stroke-linecap: round"/>
   </g>
   <g id="patch_3">
    <path d="M 86.4 345.6  L 86.4 86.4  " style="fill: none; stroke: #262626; stroke-width: 1.25; stroke-linejoin: miter; stroke-linecap: square"/>
   </g>
   <g id="patch_4">
    <path d="M 86.4 345.6  L 345.6 345.6  " style="fill: none; stroke: #262626; stroke-width: 1.25; stroke-linejoin: miter; stroke-linecap: square"/>
   </g>
   <g id="legend_1">
    <g id="patch_5">
     <path d="M 154.055938 338.6  L 335.8 338.6  Q 338.6 338.6 338.6 335.8  L 338.6 297.41375  Q 338.6 294.61375 335.8 294.61375  L 154.055938 294.61375  Q 151.255938 294.61375 151.255938 297.41375  L 151.255938 335.8  Q 151.255938 338.6 154.055938 338.6  z " style="fill: #ffffff; opacity: 0.8; stroke: #cccccc; stroke-linejoin: miter"/>
    </g>
    <g id="line2d_34">
     <path d="M 156.855938 305.334688  L 170.855938 305.334688  L 184.855938 305.334688  " style="fill: none; stroke-dasharray: 7.4,3.2; stroke-dashoffset: 0; stroke: #de8f05; stroke-opacity: 0.75; stroke-width: 2"/>
    </g>
    <g id="text_18">
     <text style="font-size: 14px; font-family: 'Arial', sans-serif; text-anchor: start; fill: #262626" x="196.055938" y="310.234688" transform="rotate(-0 196.055938 310.234688)">Without vaccination</text>
    </g>
    <g id="line2d_35">
     <path d="M 156.855938 325.3175  L 170.855938 325.3175  L 184.855938 325.3175  " style="fill: none; stroke: #de8f05; stroke-width: 2; stroke-linecap: round"/>
    </g>
    <g id="text_19">
     <text style="font-size: 14px; font-family: 'Arial', sans-serif; text-anchor: start; fill: #262626" x="196.055938" y="330.2175" transform="rotate(-0 196.055938 330.2175)">Optimised vaccination</text>
    </g>
   </g>
  </g>
 </g>
 <defs>
  <clipPath id="pbd3edfdd32">
   <rect x="86.4" y="86.4" width="259.2" height="259.2"/>
  </clipPath>
 </defs>
</g>
    <g transform="translate(315, 260) scale(1 1) "><metadata>
  <rdf:RDF xmlns:dc="http://purl.org/dc/elements/1.1/" xmlns:cc="http://creativecommons.org/ns#" xmlns:rdf="http://www.w3.org/1999/02/22-rdf-syntax-ns#">
   <cc:Work>
    <dc:type rdf:resource="http://purl.org/dc/dcmitype/StillImage"/>
    <dc:date>2025-08-08T15:51:02.080272</dc:date>
    <dc:format>image/svg+xml</dc:format>
    <dc:creator>
     <cc:Agent>
      <dc:title>Matplotlib v3.10.3, https://matplotlib.org/</dc:title>
     </cc:Agent>
    </dc:creator>
   </cc:Work>
  </rdf:RDF>
 </metadata>
 <defs>
  <style type="text/css">*{stroke-linejoin: round; stroke-linecap: butt}</style>
 </defs>
 <g id="figure_1">
  <g id="patch_1">
   <path d="M 0 432  L 432 432  L 432 0  L 0 0  L 0 432  z " style="fill: none"/>
  </g>
  <g id="axes_1">
   <g id="patch_2">
    <path d="M 86.4 345.6  L 345.6 345.6  L 345.6 86.4  L 86.4 86.4  L 86.4 345.6  z " style="fill: none"/>
   </g>
   <g id="matplotlib.axis_1">
    <g id="xtick_1">
     <g id="line2d_1">
      <defs>
       <path id="m90cc38e8b4" d="M 0 0  L 0 6  " style="stroke: #262626; stroke-width: 1.25"/>
      </defs>
      <g>
       <use xlink:href="#m90cc38e8b4" x="86.4" y="345.6" style="fill: #262626; stroke: #262626; stroke-width: 1.25"/>
      </g>
     </g>
     <g id="text_1">
      <text style="font-size: 16px; font-family: 'Arial', sans-serif; text-anchor: middle; fill: #262626" x="86.4" y="366.5525" transform="rotate(-0 86.4 366.5525)">Jan</text>
     </g>
    </g>
    <g id="xtick_2">
     <g id="line2d_2">
      <g>
       <use xlink:href="#m90cc38e8b4" x="97.407123" y="345.6" style="fill: #262626; stroke: #262626; stroke-width: 1.25"/>
      </g>
     </g>
    </g>
    <g id="xtick_3">
     <g id="line2d_3">
      <g>
       <use xlink:href="#m90cc38e8b4" x="107.349041" y="345.6" style="fill: #262626; stroke: #262626; stroke-width: 1.25"/>
      </g>
     </g>
    </g>
    <g id="xtick_4">
     <g id="line2d_4">
      <g>
       <use xlink:href="#m90cc38e8b4" x="118.356164" y="345.6" style="fill: #262626; stroke: #262626; stroke-width: 1.25"/>
      </g>
     </g>
     <g id="text_2">
      <text style="font-size: 16px; font-family: 'Arial', sans-serif; text-anchor: middle; fill: #262626" x="118.356164" y="366.5525" transform="rotate(-0 118.356164 366.5525)">Apr</text>
     </g>
    </g>
    <g id="xtick_5">
     <g id="line2d_5">
      <g>
       <use xlink:href="#m90cc38e8b4" x="129.008219" y="345.6" style="fill: #262626; stroke: #262626; stroke-width: 1.25"/>
      </g>
     </g>
    </g>
    <g id="xtick_6">
     <g id="line2d_6">
      <g>
       <use xlink:href="#m90cc38e8b4" x="140.015342" y="345.6" style="fill: #262626; stroke: #262626; stroke-width: 1.25"/>
      </g>
     </g>
    </g>
    <g id="xtick_7">
     <g id="line2d_7">
      <g>
       <use xlink:href="#m90cc38e8b4" x="150.667397" y="345.6" style="fill: #262626; stroke: #262626; stroke-width: 1.25"/>
      </g>
     </g>
     <g id="text_3">
      <text style="font-size: 16px; font-family: 'Arial', sans-serif; text-anchor: middle; fill: #262626" x="150.667397" y="366.5525" transform="rotate(-0 150.667397 366.5525)">Jul</text>
     </g>
    </g>
    <g id="xtick_8">
     <g id="line2d_8">
      <g>
       <use xlink:href="#m90cc38e8b4" x="161.674521" y="345.6" style="fill: #262626; stroke: #262626; stroke-width: 1.25"/>
      </g>
     </g>
    </g>
    <g id="xtick_9">
     <g id="line2d_9">
      <g>
       <use xlink:href="#m90cc38e8b4" x="172.681644" y="345.6" style="fill: #262626; stroke: #262626; stroke-width: 1.25"/>
      </g>
     </g>
    </g>
    <g id="xtick_10">
     <g id="line2d_10">
      <g>
       <use xlink:href="#m90cc38e8b4" x="183.333699" y="345.6" style="fill: #262626; stroke: #262626; stroke-width: 1.25"/>
      </g>
     </g>
     <g id="text_4">
      <text style="font-size: 16px; font-family: 'Arial', sans-serif; text-anchor: middle; fill: #262626" x="183.333699" y="366.5525" transform="rotate(-0 183.333699 366.5525)">Oct</text>
     </g>
    </g>
    <g id="xtick_11">
     <g id="line2d_11">
      <g>
       <use xlink:href="#m90cc38e8b4" x="194.340822" y="345.6" style="fill: #262626; stroke: #262626; stroke-width: 1.25"/>
      </g>
     </g>
    </g>
    <g id="xtick_12">
     <g id="line2d_12">
      <g>
       <use xlink:href="#m90cc38e8b4" x="204.992877" y="345.6" style="fill: #262626; stroke: #262626; stroke-width: 1.25"/>
      </g>
     </g>
    </g>
    <g id="xtick_13">
     <g id="line2d_13">
      <g>
       <use xlink:href="#m90cc38e8b4" x="216" y="345.6" style="fill: #262626; stroke: #262626; stroke-width: 1.25"/>
      </g>
     </g>
     <g id="text_5">
      <text style="font-size: 16px; font-family: 'Arial', sans-serif; text-anchor: middle; fill: #262626" x="216" y="366.5525" transform="rotate(-0 216 366.5525)">Jan</text>
     </g>
    </g>
    <g id="xtick_14">
     <g id="line2d_14">
      <g>
       <use xlink:href="#m90cc38e8b4" x="227.007123" y="345.6" style="fill: #262626; stroke: #262626; stroke-width: 1.25"/>
      </g>
     </g>
    </g>
    <g id="xtick_15">
     <g id="line2d_15">
      <g>
       <use xlink:href="#m90cc38e8b4" x="236.949041" y="345.6" style="fill: #262626; stroke: #262626; stroke-width: 1.25"/>
      </g>
     </g>
    </g>
    <g id="xtick_16">
     <g id="line2d_16">
      <g>
       <use xlink:href="#m90cc38e8b4" x="247.956164" y="345.6" style="fill: #262626; stroke: #262626; stroke-width: 1.25"/>
      </g>
     </g>
     <g id="text_6">
      <text style="font-size: 16px; font-family: 'Arial', sans-serif; text-anchor: middle; fill: #262626" x="247.956164" y="366.5525" transform="rotate(-0 247.956164 366.5525)">Apr</text>
     </g>
    </g>
    <g id="xtick_17">
     <g id="line2d_17">
      <g>
       <use xlink:href="#m90cc38e8b4" x="258.608219" y="345.6" style="fill: #262626; stroke: #262626; stroke-width: 1.25"/>
      </g>
     </g>
    </g>
    <g id="xtick_18">
     <g id="line2d_18">
      <g>
       <use xlink:href="#m90cc38e8b4" x="269.615342" y="345.6" style="fill: #262626; stroke: #262626; stroke-width: 1.25"/>
      </g>
     </g>
    </g>
    <g id="xtick_19">
     <g id="line2d_19">
      <g>
       <use xlink:href="#m90cc38e8b4" x="280.267397" y="345.6" style="fill: #262626; stroke: #262626; stroke-width: 1.25"/>
      </g>
     </g>
     <g id="text_7">
      <text style="font-size: 16px; font-family: 'Arial', sans-serif; text-anchor: middle; fill: #262626" x="280.267397" y="366.5525" transform="rotate(-0 280.267397 366.5525)">Jul</text>
     </g>
    </g>
    <g id="xtick_20">
     <g id="line2d_20">
      <g>
       <use xlink:href="#m90cc38e8b4" x="291.274521" y="345.6" style="fill: #262626; stroke: #262626; stroke-width: 1.25"/>
      </g>
     </g>
    </g>
    <g id="xtick_21">
     <g id="line2d_21">
      <g>
       <use xlink:href="#m90cc38e8b4" x="302.281644" y="345.6" style="fill: #262626; stroke: #262626; stroke-width: 1.25"/>
      </g>
     </g>
    </g>
    <g id="xtick_22">
     <g id="line2d_22">
      <g>
       <use xlink:href="#m90cc38e8b4" x="312.933699" y="345.6" style="fill: #262626; stroke: #262626; stroke-width: 1.25"/>
      </g>
     </g>
     <g id="text_8">
      <text style="font-size: 16px; font-family: 'Arial', sans-serif; text-anchor: middle; fill: #262626" x="312.933699" y="366.5525" transform="rotate(-0 312.933699 366.5525)">Oct</text>
     </g>
    </g>
    <g id="xtick_23">
     <g id="line2d_23">
      <g>
       <use xlink:href="#m90cc38e8b4" x="323.940822" y="345.6" style="fill: #262626; stroke: #262626; stroke-width: 1.25"/>
      </g>
     </g>
    </g>
    <g id="xtick_24">
     <g id="line2d_24">
      <g>
       <use xlink:href="#m90cc38e8b4" x="334.592877" y="345.6" style="fill: #262626; stroke: #262626; stroke-width: 1.25"/>
      </g>
     </g>
    </g>
    <g id="xtick_25">
     <g id="line2d_25">
      <g>
       <use xlink:href="#m90cc38e8b4" x="345.6" y="345.6" style="fill: #262626; stroke: #262626; stroke-width: 1.25"/>
      </g>
     </g>
     <g id="text_9">
      <text style="font-size: 16px; font-family: 'Arial', sans-serif; text-anchor: middle; fill: #262626" x="345.6" y="366.5525" transform="rotate(-0 345.6 366.5525)">Jan</text>
     </g>
    </g>
    <g id="text_10">
     <text style="font-size: 16px; font-family: 'Arial', sans-serif; text-anchor: middle; fill: #262626" x="216" y="385.185" transform="rotate(-0 216 385.185)"> </text>
    </g>
   </g>
   <g id="matplotlib.axis_2">
    <g id="ytick_1">
     <g id="line2d_26">
      <defs>
       <path id="md98a337a4a" d="M 0 0  L -6 0  " style="stroke: #262626; stroke-width: 1.25"/>
      </defs>
      <g>
       <use xlink:href="#md98a337a4a" x="86.4" y="345.6" style="fill: #262626; stroke: #262626; stroke-width: 1.25"/>
      </g>
     </g>
     <g id="text_11">
      <text style="font-size: 16px; font-family: 'Arial', sans-serif; text-anchor: end; fill: #262626" x="76.9" y="351.32625" transform="rotate(-0 76.9 351.32625)">0.0</text>
     </g>
    </g>
    <g id="ytick_2">
     <g id="line2d_27">
      <g>
       <use xlink:href="#md98a337a4a" x="86.4" y="293.76" style="fill: #262626; stroke: #262626; stroke-width: 1.25"/>
      </g>
     </g>
     <g id="text_12">
      <text style="font-size: 16px; font-family: 'Arial', sans-serif; text-anchor: end; fill: #262626" x="76.9" y="299.48625" transform="rotate(-0 76.9 299.48625)">0.1</text>
     </g>
    </g>
    <g id="ytick_3">
     <g id="line2d_28">
      <g>
       <use xlink:href="#md98a337a4a" x="86.4" y="241.92" style="fill: #262626; stroke: #262626; stroke-width: 1.25"/>
      </g>
     </g>
     <g id="text_13">
      <text style="font-size: 16px; font-family: 'Arial', sans-serif; text-anchor: end; fill: #262626" x="76.9" y="247.64625" transform="rotate(-0 76.9 247.64625)">0.2</text>
     </g>
    </g>
    <g id="ytick_4">
     <g id="line2d_29">
      <g>
       <use xlink:href="#md98a337a4a" x="86.4" y="190.08" style="fill: #262626; stroke: #262626; stroke-width: 1.25"/>
      </g>
     </g>
     <g id="text_14">
      <text style="font-size: 16px; font-family: 'Arial', sans-serif; text-anchor: end; fill: #262626" x="76.9" y="195.80625" transform="rotate(-0 76.9 195.80625)">0.3</text>
     </g>
    </g>
    <g id="ytick_5">
     <g id="line2d_30">
      <g>
       <use xlink:href="#md98a337a4a" x="86.4" y="138.24" style="fill: #262626; stroke: #262626; stroke-width: 1.25"/>
      </g>
     </g>
     <g id="text_15">
      <text style="font-size: 16px; font-family: 'Arial', sans-serif; text-anchor: end; fill: #262626" x="76.9" y="143.96625" transform="rotate(-0 76.9 143.96625)">0.4</text>
     </g>
    </g>
    <g id="ytick_6">
     <g id="line2d_31">
      <g>
       <use xlink:href="#md98a337a4a" x="86.4" y="86.4" style="fill: #262626; stroke: #262626; stroke-width: 1.25"/>
      </g>
     </g>
     <g id="text_16">
      <text style="font-size: 16px; font-family: 'Arial', sans-serif; text-anchor: end; fill: #262626" x="76.9" y="92.12625" transform="rotate(-0 76.9 92.12625)">0.5</text>
     </g>
    </g>
    <g id="text_17">
     <text style="font-size: 16px; font-family: 'Arial', sans-serif; text-anchor: middle; fill: #262626" x="47.48" y="216" transform="rotate(-90 47.48 216)">Outbreak risk</text>
    </g>
   </g>
   <g id="FillBetweenPolyCollection_1">
    <defs>
     <path id="mabb8a32e93" d="M 212.804384 -86.4  L 163.094795 -86.4  L 163.094795 -345.6  L 212.804384 -345.6  L 212.804384 -345.6  L 212.804384 -86.4  z "/>
    </defs>
    <g clip-path="url(#pf915b5b7d1)">
     <use xlink:href="#mabb8a32e93" x="0" y="432" style="fill: #808080; fill-opacity: 0.5"/>
    </g>
   </g>
   <g id="FillBetweenPolyCollection_2">
    <defs>
     <path id="m90f74be36e" d="M 342.404384 -86.4  L 292.694795 -86.4  L 292.694795 -345.6  L 342.404384 -345.6  L 342.404384 -345.6  L 342.404384 -86.4  z "/>
    </defs>
    <g clip-path="url(#pf915b5b7d1)">
     <use xlink:href="#m90f74be36e" x="0" y="432" style="fill: #808080; fill-opacity: 0.5"/>
    </g>
   </g>
   <g id="line2d_32">
    <path d="M 86.4 87.460688  L 88.530411 87.750766  L 90.660822 88.273131  L 92.791233 89.026905  L 94.921644 90.010569  L 97.052055 91.221851  L 99.537534 92.918401  L 102.023014 94.913449  L 104.508493 97.197532  L 107.349041 100.145538  L 110.189589 103.429591  L 113.385205 107.484503  L 116.93589 112.364255  L 121.551781 119.115482  L 130.428493 132.186633  L 133.62411 136.439871  L 136.109589 139.409547  L 138.24 141.654767  L 140.370411 143.575098  L 142.145753 144.898193  L 143.921096 145.948327  L 145.696438 146.709968  L 147.116712 147.103961  L 148.536986 147.302659  L 149.95726 147.304605  L 151.377534 147.110377  L 152.797808 146.722551  L 154.573151 145.972545  L 156.348493 144.939899  L 158.123836 143.641241  L 160.254247 141.760052  L 162.384658 139.564318  L 164.870137 136.663408  L 167.710685 132.990567  L 171.26137 128.0254  L 185.46411 107.709  L 188.659726 103.686367  L 191.855342 100.028266  L 194.69589 97.12116  L 197.18137 94.864634  L 199.666849 92.890122  L 202.152329 91.207913  L 204.637808 89.825901  L 206.768219 88.884802  L 208.89863 88.171454  L 211.029041 87.687937  L 213.159452 87.435711  L 215.289863 87.415683  L 217.420274 87.628237  L 219.550685 88.073241  L 221.681096 88.750014  L 223.811507 89.657261  L 225.941918 90.792975  L 228.072329 92.154301  L 230.557808 94.02242  L 233.043288 96.183975  L 235.528767 98.627803  L 238.369315 101.74741  L 241.209863 105.187708  L 244.405479 109.394302  L 248.311233 114.919583  L 254.702466 124.436405  L 259.673425 131.690386  L 262.869041 135.989003  L 265.354521 139.006865  L 267.484932 141.301961  L 269.615342 143.279375  L 271.390685 144.654841  L 273.166027 145.760944  L 274.94137 146.581318  L 276.361644 147.02367  L 277.781918 147.271408  L 279.202192 147.322567  L 280.622466 147.177218  L 282.04274 146.837444  L 283.463014 146.307269  L 285.238356 145.385892  L 287.013699 144.191415  L 288.789041 142.742553  L 290.919452 140.698852  L 293.404932 137.947169  L 296.245479 134.406055  L 299.441096 130.049414  L 304.412055 122.838545  L 311.868493 112.034857  L 315.774247 106.786479  L 318.969863 102.840084  L 321.810411 99.646488  L 324.650959 96.781998  L 327.136438 94.565026  L 329.621918 92.631703  L 332.107397 90.991945  L 334.237808 89.825901  L 336.368219 88.884802  L 338.49863 88.171454  L 340.629041 87.687937  L 342.759452 87.435711  L 344.889863 87.415683  L 345.244932 87.434954  L 345.244932 87.434954  " clip-path="url(#pf915b5b7d1)" style="fill: none; stroke-dasharray: 7.4,3.2; stroke-dashoffset: 0; stroke: #029e73; stroke-opacity: 0.75; stroke-width: 2"/>
   </g>
   <g id="line2d_33">
    <path d="M 86.4 157.456481  L 88.530411 155.432399  L 90.660822 153.712182  L 92.791233 152.295017  L 94.921644 151.178723  L 96.696986 150.476033  L 98.472329 149.97754  L 100.247671 149.679949  L 102.023014 149.5793  L 103.798356 149.670715  L 105.928767 150.025396  L 108.059178 150.635586  L 110.189589 151.486241  L 112.32 152.559174  L 114.805479 154.063046  L 117.646027 156.063921  L 121.196712 158.880204  L 131.848767 167.631403  L 134.334247 169.288592  L 136.464658 170.461451  L 138.24 171.227514  L 140.015342 171.774473  L 141.790685 172.08015  L 143.566027 172.125987  L 144.986301 171.965815  L 146.406575 171.624862  L 148.181918 170.939716  L 149.95726 169.965401  L 151.732603 168.705246  L 153.507945 167.167955  L 155.638356 164.979157  L 157.768767 162.459487  L 162.739726 156.295115  L 163.449863 155.742482  L 164.16 155.502424  L 167.355616 155.111214  L 170.196164 154.4764  L 173.746849 153.431427  L 182.268493 150.815758  L 185.46411 150.1267  L 187.949589 149.79599  L 190.435068 149.683195  L 192.920548 149.818486  L 195.050959 150.151915  L 197.18137 150.701436  L 199.311781 151.479939  L 201.442192 152.498556  L 203.572603 153.765361  L 205.703014 155.280203  L 208.543562 157.623773  L 211.029041 159.643798  L 212.094247 160.216129  L 212.804384 160.33331  L 213.159452 160.264181  L 213.514521 160.072821  L 214.579726 158.969486  L 217.065205 156.406488  L 219.195616 154.534306  L 221.326027 152.965831  L 223.456438 151.699439  L 225.586849 150.732457  L 227.362192 150.152622  L 229.137534 149.775126  L 230.912877 149.596227  L 232.688219 149.611457  L 234.463562 149.815301  L 236.593973 150.29942  L 238.724384 151.031913  L 240.854795 151.99618  L 243.340274 153.387512  L 245.825753 155.029768  L 249.02137 157.436969  L 253.282192 160.97558  L 259.673425 166.299522  L 262.513973 168.375081  L 264.999452 169.907014  L 267.129863 170.946031  L 268.905205 171.583482  L 270.680548 171.988109  L 272.45589 172.139847  L 274.231233 172.022638  L 275.651507 171.72726  L 277.426849 171.099894  L 279.202192 170.183309  L 280.977534 168.979808  L 282.752877 167.496969  L 284.528219 165.748409  L 286.65863 163.331753  L 289.499178 159.711111  L 291.629589 157.034454  L 292.694795 155.988714  L 293.404932 155.5776  L 294.470137 155.438405  L 296.955616 155.111214  L 299.796164 154.4764  L 303.346849 153.431427  L 311.868493 150.815758  L 315.06411 150.1267  L 317.549589 149.79599  L 320.035068 149.683195  L 322.520548 149.818486  L 324.650959 150.151915  L 326.78137 150.701436  L 328.911781 151.479939  L 331.042192 152.498556  L 333.172603 153.765361  L 335.303014 155.280203  L 338.143562 157.623773  L 340.629041 159.643798  L 341.694247 160.216129  L 342.404384 160.33331  L 342.759452 160.264181  L 343.114521 160.072821  L 344.179726 158.969486  L 345.244932 157.823199  L 345.244932 157.823199  " clip-path="url(#pf915b5b7d1)" style="fill: none; stroke: #029e73; stroke-width: 2; stroke-linecap: round"/>
   </g>
   <g id="patch_3">
    <path d="M 86.4 345.6  L 86.4 86.4  " style="fill: none; stroke: #262626; stroke-width: 1.25; stroke-linejoin: miter; stroke-linecap: square"/>
   </g>
   <g id="patch_4">
    <path d="M 86.4 345.6  L 345.6 345.6  " style="fill: none; stroke: #262626; stroke-width: 1.25; stroke-linejoin: miter; stroke-linecap: square"/>
   </g>
   <g id="legend_1">
    <g id="patch_5">
     <path d="M 154.055938 338.6  L 335.8 338.6  Q 338.6 338.6 338.6 335.8  L 338.6 297.41375  Q 338.6 294.61375 335.8 294.61375  L 154.055938 294.61375  Q 151.255938 294.61375 151.255938 297.41375  L 151.255938 335.8  Q 151.255938 338.6 154.055938 338.6  z " style="fill: #ffffff; opacity: 0.8; stroke: #cccccc; stroke-linejoin: miter"/>
    </g>
    <g id="line2d_34">
     <path d="M 156.855938 305.334688  L 170.855938 305.334688  L 184.855938 305.334688  " style="fill: none; stroke-dasharray: 7.4,3.2; stroke-dashoffset: 0; stroke: #029e73; stroke-opacity: 0.75; stroke-width: 2"/>
    </g>
    <g id="text_18">
     <text style="font-size: 14px; font-family: 'Arial', sans-serif; text-anchor: start; fill: #262626" x="196.055938" y="310.234688" transform="rotate(-0 196.055938 310.234688)">Without vaccination</text>
    </g>
    <g id="line2d_35">
     <path d="M 156.855938 325.3175  L 170.855938 325.3175  L 184.855938 325.3175  " style="fill: none; stroke: #029e73; stroke-width: 2; stroke-linecap: round"/>
    </g>
    <g id="text_19">
     <text style="font-size: 14px; font-family: 'Arial', sans-serif; text-anchor: start; fill: #262626" x="196.055938" y="330.2175" transform="rotate(-0 196.055938 330.2175)">Optimised vaccination</text>
    </g>
   </g>
  </g>
 </g>
 <defs>
  <clipPath id="pf915b5b7d1">
   <rect x="86.4" y="86.4" width="259.2" height="259.2"/>
  </clipPath>
 </defs>
</g>
    <text x="5" y="20" font-size="20" font-family="Arial" font-weight="normal" letter-spacing="0" text-anchor="start" fill="black">A.</text>
    <text x="345" y="20" font-size="20" font-family="Arial" font-weight="normal" letter-spacing="0" text-anchor="start" fill="black">B.</text>
    <text x="5" y="340" font-size="20" font-family="Arial" font-weight="normal" letter-spacing="0" text-anchor="start" fill="black">C.</text>
    <text x="345" y="340" font-size="20" font-family="Arial" font-weight="normal" letter-spacing="0" text-anchor="start" fill="black">D.</text>
  </g>
</svg>
