<?xml version="1.0" encoding="utf-8" standalone="no"?>
<!DOCTYPE svg PUBLIC "-//W3C//DTD SVG 1.1//EN"
  "http://www.w3.org/Graphics/SVG/1.1/DTD/svg11.dtd">
<svg xmlns:xlink="http://www.w3.org/1999/xlink" width="432pt" height="432pt" viewBox="0 0 432 432" xmlns="http://www.w3.org/2000/svg" version="1.1">
 <metadata>
  <rdf:RDF xmlns:dc="http://purl.org/dc/elements/1.1/" xmlns:cc="http://creativecommons.org/ns#" xmlns:rdf="http://www.w3.org/1999/02/22-rdf-syntax-ns#">
   <cc:Work>
    <dc:type rdf:resource="http://purl.org/dc/dcmitype/StillImage"/>
    <dc:date>2024-07-23T17:02:13.218335</dc:date>
    <dc:format>image/svg+xml</dc:format>
    <dc:creator>
     <cc:Agent>
      <dc:title>Matplotlib v3.8.4, https://matplotlib.org/</dc:title>
     </cc:Agent>
    </dc:creator>
   </cc:Work>
  </rdf:RDF>
 </metadata>
 <defs>
  <style type="text/css">*{stroke-linejoin: round; stroke-linecap: butt}</style>
 </defs>
 <g id="figure_1">
  <g id="patch_1">
   <path d="M 0 432 
L 432 432 
L 432 0 
L 0 0 
L 0 432 
z
" style="fill: none"/>
  </g>
  <g id="axes_1">
   <g id="patch_2">
    <path d="M 86.4 345.6 
L 345.6 345.6 
L 345.6 86.4 
L 86.4 86.4 
L 86.4 345.6 
z
" style="fill: none"/>
   </g>
   <g id="matplotlib.axis_1">
    <g id="xtick_1">
     <g id="line2d_1">
      <defs>
       <path id="m11dbfb80b1" d="M 0 0 
L 0 6 
" style="stroke: #262626; stroke-width: 1.25"/>
      </defs>
      <g>
       <use xlink:href="#m11dbfb80b1" x="86.4" y="345.6" style="fill: #262626; stroke: #262626; stroke-width: 1.25"/>
      </g>
     </g>
     <g id="text_1">
      <text style="fill: #262626; font: 16px 'Arial', 'DejaVu Sans', 'Liberation Sans', 'Bitstream Vera Sans', sans-serif; text-anchor: middle" x="86.4" y="366.5525" transform="rotate(-0 86.4 366.5525)">Jan</text>
     </g>
    </g>
    <g id="xtick_2">
     <g id="line2d_2">
      <g>
       <use xlink:href="#m11dbfb80b1" x="97.2" y="345.6" style="fill: #262626; stroke: #262626; stroke-width: 1.25"/>
      </g>
     </g>
    </g>
    <g id="xtick_3">
     <g id="line2d_3">
      <g>
       <use xlink:href="#m11dbfb80b1" x="108" y="345.6" style="fill: #262626; stroke: #262626; stroke-width: 1.25"/>
      </g>
     </g>
    </g>
    <g id="xtick_4">
     <g id="line2d_4">
      <g>
       <use xlink:href="#m11dbfb80b1" x="118.8" y="345.6" style="fill: #262626; stroke: #262626; stroke-width: 1.25"/>
      </g>
     </g>
     <g id="text_2">
      <text style="fill: #262626; font: 16px 'Arial', 'DejaVu Sans', 'Liberation Sans', 'Bitstream Vera Sans', sans-serif; text-anchor: middle" x="118.8" y="366.5525" transform="rotate(-0 118.8 366.5525)">Apr</text>
     </g>
    </g>
    <g id="xtick_5">
     <g id="line2d_5">
      <g>
       <use xlink:href="#m11dbfb80b1" x="129.6" y="345.6" style="fill: #262626; stroke: #262626; stroke-width: 1.25"/>
      </g>
     </g>
    </g>
    <g id="xtick_6">
     <g id="line2d_6">
      <g>
       <use xlink:href="#m11dbfb80b1" x="140.4" y="345.6" style="fill: #262626; stroke: #262626; stroke-width: 1.25"/>
      </g>
     </g>
    </g>
    <g id="xtick_7">
     <g id="line2d_7">
      <g>
       <use xlink:href="#m11dbfb80b1" x="151.2" y="345.6" style="fill: #262626; stroke: #262626; stroke-width: 1.25"/>
      </g>
     </g>
     <g id="text_3">
      <text style="fill: #262626; font: 16px 'Arial', 'DejaVu Sans', 'Liberation Sans', 'Bitstream Vera Sans', sans-serif; text-anchor: middle" x="151.2" y="366.5525" transform="rotate(-0 151.2 366.5525)">Jul</text>
     </g>
    </g>
    <g id="xtick_8">
     <g id="line2d_8">
      <g>
       <use xlink:href="#m11dbfb80b1" x="162" y="345.6" style="fill: #262626; stroke: #262626; stroke-width: 1.25"/>
      </g>
     </g>
    </g>
    <g id="xtick_9">
     <g id="line2d_9">
      <g>
       <use xlink:href="#m11dbfb80b1" x="172.8" y="345.6" style="fill: #262626; stroke: #262626; stroke-width: 1.25"/>
      </g>
     </g>
    </g>
    <g id="xtick_10">
     <g id="line2d_10">
      <g>
       <use xlink:href="#m11dbfb80b1" x="183.6" y="345.6" style="fill: #262626; stroke: #262626; stroke-width: 1.25"/>
      </g>
     </g>
     <g id="text_4">
      <text style="fill: #262626; font: 16px 'Arial', 'DejaVu Sans', 'Liberation Sans', 'Bitstream Vera Sans', sans-serif; text-anchor: middle" x="183.6" y="366.5525" transform="rotate(-0 183.6 366.5525)">Oct</text>
     </g>
    </g>
    <g id="xtick_11">
     <g id="line2d_11">
      <g>
       <use xlink:href="#m11dbfb80b1" x="194.4" y="345.6" style="fill: #262626; stroke: #262626; stroke-width: 1.25"/>
      </g>
     </g>
    </g>
    <g id="xtick_12">
     <g id="line2d_12">
      <g>
       <use xlink:href="#m11dbfb80b1" x="205.2" y="345.6" style="fill: #262626; stroke: #262626; stroke-width: 1.25"/>
      </g>
     </g>
    </g>
    <g id="xtick_13">
     <g id="line2d_13">
      <g>
       <use xlink:href="#m11dbfb80b1" x="216" y="345.6" style="fill: #262626; stroke: #262626; stroke-width: 1.25"/>
      </g>
     </g>
     <g id="text_5">
      <text style="fill: #262626; font: 16px 'Arial', 'DejaVu Sans', 'Liberation Sans', 'Bitstream Vera Sans', sans-serif; text-anchor: middle" x="216" y="366.5525" transform="rotate(-0 216 366.5525)">Jan</text>
     </g>
    </g>
    <g id="xtick_14">
     <g id="line2d_14">
      <g>
       <use xlink:href="#m11dbfb80b1" x="226.8" y="345.6" style="fill: #262626; stroke: #262626; stroke-width: 1.25"/>
      </g>
     </g>
    </g>
    <g id="xtick_15">
     <g id="line2d_15">
      <g>
       <use xlink:href="#m11dbfb80b1" x="237.6" y="345.6" style="fill: #262626; stroke: #262626; stroke-width: 1.25"/>
      </g>
     </g>
    </g>
    <g id="xtick_16">
     <g id="line2d_16">
      <g>
       <use xlink:href="#m11dbfb80b1" x="248.4" y="345.6" style="fill: #262626; stroke: #262626; stroke-width: 1.25"/>
      </g>
     </g>
     <g id="text_6">
      <text style="fill: #262626; font: 16px 'Arial', 'DejaVu Sans', 'Liberation Sans', 'Bitstream Vera Sans', sans-serif; text-anchor: middle" x="248.4" y="366.5525" transform="rotate(-0 248.4 366.5525)">Apr</text>
     </g>
    </g>
    <g id="xtick_17">
     <g id="line2d_17">
      <g>
       <use xlink:href="#m11dbfb80b1" x="259.2" y="345.6" style="fill: #262626; stroke: #262626; stroke-width: 1.25"/>
      </g>
     </g>
    </g>
    <g id="xtick_18">
     <g id="line2d_18">
      <g>
       <use xlink:href="#m11dbfb80b1" x="270" y="345.6" style="fill: #262626; stroke: #262626; stroke-width: 1.25"/>
      </g>
     </g>
    </g>
    <g id="xtick_19">
     <g id="line2d_19">
      <g>
       <use xlink:href="#m11dbfb80b1" x="280.8" y="345.6" style="fill: #262626; stroke: #262626; stroke-width: 1.25"/>
      </g>
     </g>
     <g id="text_7">
      <text style="fill: #262626; font: 16px 'Arial', 'DejaVu Sans', 'Liberation Sans', 'Bitstream Vera Sans', sans-serif; text-anchor: middle" x="280.8" y="366.5525" transform="rotate(-0 280.8 366.5525)">Jul</text>
     </g>
    </g>
    <g id="xtick_20">
     <g id="line2d_20">
      <g>
       <use xlink:href="#m11dbfb80b1" x="291.6" y="345.6" style="fill: #262626; stroke: #262626; stroke-width: 1.25"/>
      </g>
     </g>
    </g>
    <g id="xtick_21">
     <g id="line2d_21">
      <g>
       <use xlink:href="#m11dbfb80b1" x="302.4" y="345.6" style="fill: #262626; stroke: #262626; stroke-width: 1.25"/>
      </g>
     </g>
    </g>
    <g id="xtick_22">
     <g id="line2d_22">
      <g>
       <use xlink:href="#m11dbfb80b1" x="313.2" y="345.6" style="fill: #262626; stroke: #262626; stroke-width: 1.25"/>
      </g>
     </g>
     <g id="text_8">
      <text style="fill: #262626; font: 16px 'Arial', 'DejaVu Sans', 'Liberation Sans', 'Bitstream Vera Sans', sans-serif; text-anchor: middle" x="313.2" y="366.5525" transform="rotate(-0 313.2 366.5525)">Oct</text>
     </g>
    </g>
    <g id="xtick_23">
     <g id="line2d_23">
      <g>
       <use xlink:href="#m11dbfb80b1" x="324" y="345.6" style="fill: #262626; stroke: #262626; stroke-width: 1.25"/>
      </g>
     </g>
    </g>
    <g id="xtick_24">
     <g id="line2d_24">
      <g>
       <use xlink:href="#m11dbfb80b1" x="334.8" y="345.6" style="fill: #262626; stroke: #262626; stroke-width: 1.25"/>
      </g>
     </g>
    </g>
    <g id="xtick_25">
     <g id="line2d_25">
      <g>
       <use xlink:href="#m11dbfb80b1" x="345.6" y="345.6" style="fill: #262626; stroke: #262626; stroke-width: 1.25"/>
      </g>
     </g>
     <g id="text_9">
      <text style="fill: #262626; font: 16px 'Arial', 'DejaVu Sans', 'Liberation Sans', 'Bitstream Vera Sans', sans-serif; text-anchor: middle" x="345.6" y="366.5525" transform="rotate(-0 345.6 366.5525)">Jan</text>
     </g>
    </g>
    <g id="text_10">
     <text style="fill: #262626; font: 16px 'Arial', 'DejaVu Sans', 'Liberation Sans', 'Bitstream Vera Sans', sans-serif; text-anchor: middle" x="216" y="385.185" transform="rotate(-0 216 385.185)"> </text>
    </g>
   </g>
   <g id="matplotlib.axis_2">
    <g id="ytick_1">
     <g id="line2d_26">
      <defs>
       <path id="ma9489b014c" d="M 0 0 
L -6 0 
" style="stroke: #262626; stroke-width: 1.25"/>
      </defs>
      <g>
       <use xlink:href="#ma9489b014c" x="86.4" y="345.6" style="fill: #262626; stroke: #262626; stroke-width: 1.25"/>
      </g>
     </g>
     <g id="text_11">
      <text style="fill: #262626; font: 16px 'Arial', 'DejaVu Sans', 'Liberation Sans', 'Bitstream Vera Sans', sans-serif; text-anchor: end" x="76.9" y="351.32625" transform="rotate(-0 76.9 351.32625)">0.0</text>
     </g>
    </g>
    <g id="ytick_2">
     <g id="line2d_27">
      <g>
       <use xlink:href="#ma9489b014c" x="86.4" y="302.4" style="fill: #262626; stroke: #262626; stroke-width: 1.25"/>
      </g>
     </g>
     <g id="text_12">
      <text style="fill: #262626; font: 16px 'Arial', 'DejaVu Sans', 'Liberation Sans', 'Bitstream Vera Sans', sans-serif; text-anchor: end" x="76.9" y="308.12625" transform="rotate(-0 76.9 308.12625)">0.1</text>
     </g>
    </g>
    <g id="ytick_3">
     <g id="line2d_28">
      <g>
       <use xlink:href="#ma9489b014c" x="86.4" y="259.2" style="fill: #262626; stroke: #262626; stroke-width: 1.25"/>
      </g>
     </g>
     <g id="text_13">
      <text style="fill: #262626; font: 16px 'Arial', 'DejaVu Sans', 'Liberation Sans', 'Bitstream Vera Sans', sans-serif; text-anchor: end" x="76.9" y="264.92625" transform="rotate(-0 76.9 264.92625)">0.2</text>
     </g>
    </g>
    <g id="ytick_4">
     <g id="line2d_29">
      <g>
       <use xlink:href="#ma9489b014c" x="86.4" y="216" style="fill: #262626; stroke: #262626; stroke-width: 1.25"/>
      </g>
     </g>
     <g id="text_14">
      <text style="fill: #262626; font: 16px 'Arial', 'DejaVu Sans', 'Liberation Sans', 'Bitstream Vera Sans', sans-serif; text-anchor: end" x="76.9" y="221.72625" transform="rotate(-0 76.9 221.72625)">0.3</text>
     </g>
    </g>
    <g id="ytick_5">
     <g id="line2d_30">
      <g>
       <use xlink:href="#ma9489b014c" x="86.4" y="172.8" style="fill: #262626; stroke: #262626; stroke-width: 1.25"/>
      </g>
     </g>
     <g id="text_15">
      <text style="fill: #262626; font: 16px 'Arial', 'DejaVu Sans', 'Liberation Sans', 'Bitstream Vera Sans', sans-serif; text-anchor: end" x="76.9" y="178.52625" transform="rotate(-0 76.9 178.52625)">0.4</text>
     </g>
    </g>
    <g id="ytick_6">
     <g id="line2d_31">
      <g>
       <use xlink:href="#ma9489b014c" x="86.4" y="129.6" style="fill: #262626; stroke: #262626; stroke-width: 1.25"/>
      </g>
     </g>
     <g id="text_16">
      <text style="fill: #262626; font: 16px 'Arial', 'DejaVu Sans', 'Liberation Sans', 'Bitstream Vera Sans', sans-serif; text-anchor: end" x="76.9" y="135.32625" transform="rotate(-0 76.9 135.32625)">0.5</text>
     </g>
    </g>
    <g id="ytick_7">
     <g id="line2d_32">
      <g>
       <use xlink:href="#ma9489b014c" x="86.4" y="86.4" style="fill: #262626; stroke: #262626; stroke-width: 1.25"/>
      </g>
     </g>
     <g id="text_17">
      <text style="fill: #262626; font: 16px 'Arial', 'DejaVu Sans', 'Liberation Sans', 'Bitstream Vera Sans', sans-serif; text-anchor: end" x="76.9" y="92.12625" transform="rotate(-0 76.9 92.12625)">0.6</text>
     </g>
    </g>
    <g id="text_18">
     <text style="fill: #262626; font: 16px 'Arial', 'DejaVu Sans', 'Liberation Sans', 'Bitstream Vera Sans', sans-serif; text-anchor: middle" x="47.48" y="216" transform="rotate(-90 47.48 216)">Outbreak risk</text>
    </g>
   </g>
   <g id="PolyCollection_1">
    <defs>
     <path id="m301a5e1b71" d="M 212.04 -86.4 
L 163.8 -86.4 
L 163.8 -345.6 
L 212.04 -345.6 
L 212.04 -345.6 
L 212.04 -86.4 
z
"/>
    </defs>
    <g clip-path="url(#pb99fa0aa46)">
     <use xlink:href="#m301a5e1b71" x="0" y="432" style="fill: #808080; fill-opacity: 0.5"/>
    </g>
   </g>
   <g id="PolyCollection_2">
    <defs>
     <path id="m5c31b40256" d="M 341.64 -86.4 
L 293.4 -86.4 
L 293.4 -345.6 
L 341.64 -345.6 
L 341.64 -345.6 
L 341.64 -86.4 
z
"/>
    </defs>
    <g clip-path="url(#pb99fa0aa46)">
     <use xlink:href="#m5c31b40256" x="0" y="432" style="fill: #808080; fill-opacity: 0.5"/>
    </g>
   </g>
   <g id="line2d_33">
    <path d="M 86.4 151.506152 
L 88.56 151.796745 
L 90.72 152.309573 
L 92.88 153.043916 
L 95.04 153.99843 
L 97.2 155.171035 
L 99.72 156.810691 
L 102.24 158.736472 
L 104.76 160.939206 
L 107.64 163.779727 
L 110.52 166.940938 
L 113.76 170.839066 
L 117.36 175.520388 
L 122.4 182.476379 
L 129.6 192.424251 
L 132.84 196.528517 
L 135.36 199.40968 
L 137.52 201.598305 
L 139.68 203.479931 
L 141.48 204.784532 
L 143.28 205.828801 
L 145.08 206.597355 
L 146.88 207.079267 
L 148.32 207.2541 
L 149.76 207.24051 
L 151.2 207.039554 
L 152.64 206.654206 
L 154.44 205.920692 
L 156.24 204.919725 
L 158.04 203.667971 
L 160.2 201.862788 
L 162.36 199.763653 
L 164.88 196.999529 
L 167.76 193.511179 
L 171.72 188.327764 
L 184.32 171.508621 
L 187.92 167.219902 
L 191.16 163.714196 
L 194.04 160.920464 
L 196.92 158.457298 
L 199.44 156.58883 
L 201.96 154.998732 
L 204.48 153.694761 
L 206.64 152.809294 
L 208.8 152.141156 
L 210.96 151.692438 
L 213.12 151.464636 
L 215.28 151.458719 
L 217.44 151.675168 
L 219.6 152.11397 
L 221.76 152.774592 
L 223.92 153.655907 
L 226.08 154.756098 
L 228.6 156.312689 
L 231.12 158.157534 
L 233.64 160.282247 
L 236.16 162.675456 
L 239.04 165.719802 
L 242.28 169.502763 
L 245.88 174.083117 
L 250.2 179.958211 
L 260.28 193.833369 
L 263.16 197.383672 
L 265.68 200.17064 
L 267.84 202.261715 
L 270 204.031854 
L 271.8 205.234436 
L 273.6 206.170024 
L 275.4 206.824971 
L 276.84 207.140624 
L 278.28 207.268359 
L 279.72 207.207752 
L 281.16 206.960346 
L 282.96 206.393817 
L 284.76 205.551542 
L 286.56 204.448075 
L 288.36 203.10138 
L 290.52 201.193713 
L 293.04 198.616936 
L 295.92 195.293174 
L 299.16 191.197445 
L 304.2 184.411655 
L 311.76 174.246966 
L 315.72 169.317032 
L 318.96 165.616979 
L 321.84 162.629299 
L 324.72 159.95686 
L 327.24 157.895585 
L 329.76 156.105732 
L 332.28 154.596684 
L 334.8 153.375614 
L 336.96 152.562317 
L 339.12 151.967119 
L 341.28 151.5919 
L 343.44 151.437976 
L 345.24 151.479346 
L 345.24 151.479346 
" clip-path="url(#pb99fa0aa46)" style="fill: none; stroke-dasharray: 7.4,3.2; stroke-dashoffset: 0; stroke: #0173b2; stroke-opacity: 0.75; stroke-width: 2"/>
   </g>
   <g id="line2d_34">
    <path d="M 86.4 216.996362 
L 88.56 215.1493 
L 90.72 213.59047 
L 92.88 212.319379 
L 95.04 211.334459 
L 97.2 210.632876 
L 99 210.261741 
L 100.8 210.081337 
L 102.96 210.110814 
L 105.12 210.400173 
L 107.28 210.938184 
L 109.44 211.711016 
L 111.6 212.701771 
L 114.12 214.105657 
L 117 215.988916 
L 120.6 218.65591 
L 131.76 227.201855 
L 134.28 228.720068 
L 136.44 229.768762 
L 138.24 230.429918 
L 140.04 230.872893 
L 141.84 231.07795 
L 143.64 231.029325 
L 145.44 230.715595 
L 147.24 230.129856 
L 149.04 229.270075 
L 150.84 228.13913 
L 152.64 226.744985 
L 154.8 224.744731 
L 156.96 222.426436 
L 159.84 218.983123 
L 162.36 216.011789 
L 163.44 214.987637 
L 164.16 214.507847 
L 164.88 214.29555 
L 168.48 213.856659 
L 171.72 213.184272 
L 183.6 210.457987 
L 186.48 210.150213 
L 189 210.096271 
L 191.52 210.277258 
L 193.68 210.640891 
L 195.84 211.213627 
L 198 212.00908 
L 200.16 213.038085 
L 202.32 214.30584 
L 204.84 216.072145 
L 210.24 220.106275 
L 211.32 220.509018 
L 212.04 220.518715 
L 212.76 220.197654 
L 213.84 219.126339 
L 216.36 216.668526 
L 218.52 214.869478 
L 220.68 213.358669 
L 222.84 212.135407 
L 225 211.197953 
L 227.16 210.543226 
L 228.96 210.210518 
L 230.76 210.067799 
L 232.92 210.141273 
L 235.08 210.472909 
L 237.24 211.051097 
L 239.4 211.861513 
L 241.92 213.077029 
L 244.44 214.550868 
L 247.32 216.49863 
L 250.92 219.217975 
L 260.28 226.472097 
L 262.8 228.104278 
L 264.96 229.276821 
L 267.12 230.190411 
L 268.92 230.723235 
L 270.72 231.025579 
L 272.52 231.080047 
L 274.32 230.87345 
L 276.12 230.397033 
L 277.92 229.646801 
L 279.72 228.623659 
L 281.52 227.333485 
L 283.32 225.787664 
L 285.48 223.621808 
L 288 220.738978 
L 292.32 215.640774 
L 293.4 214.72099 
L 294.12 214.364123 
L 295.56 214.197426 
L 298.08 213.856659 
L 301.32 213.184272 
L 313.2 210.457987 
L 316.08 210.150213 
L 318.6 210.096271 
L 321.12 210.277258 
L 323.28 210.640891 
L 325.44 211.213627 
L 327.6 212.00908 
L 329.76 213.038085 
L 331.92 214.30584 
L 334.44 216.072145 
L 339.84 220.106275 
L 340.92 220.509018 
L 341.64 220.518715 
L 342.36 220.197654 
L 343.44 219.126339 
L 345.24 217.332167 
L 345.24 217.332167 
" clip-path="url(#pb99fa0aa46)" style="fill: none; stroke: #0173b2; stroke-width: 2; stroke-linecap: round"/>
   </g>
   <g id="patch_3">
    <path d="M 86.4 345.6 
L 86.4 86.4 
" style="fill: none; stroke: #262626; stroke-width: 1.25; stroke-linejoin: miter; stroke-linecap: square"/>
   </g>
   <g id="patch_4">
    <path d="M 86.4 345.6 
L 345.6 345.6 
" style="fill: none; stroke: #262626; stroke-width: 1.25; stroke-linejoin: miter; stroke-linecap: square"/>
   </g>
   <g id="legend_1">
    <g id="patch_5">
     <path d="M 154.055938 338.6 
L 335.8 338.6 
Q 338.6 338.6 338.6 335.8 
L 338.6 297.41375 
Q 338.6 294.61375 335.8 294.61375 
L 154.055938 294.61375 
Q 151.255938 294.61375 151.255938 297.41375 
L 151.255938 335.8 
Q 151.255938 338.6 154.055938 338.6 
z
" style="fill: #ffffff; opacity: 0.8; stroke: #cccccc; stroke-linejoin: miter"/>
    </g>
    <g id="line2d_35">
     <path d="M 156.855938 305.334688 
L 170.855938 305.334688 
L 184.855938 305.334688 
" style="fill: none; stroke-dasharray: 7.4,3.2; stroke-dashoffset: 0; stroke: #0173b2; stroke-opacity: 0.75; stroke-width: 2"/>
    </g>
    <g id="text_19">
     <text style="fill: #262626; font: 14px 'Arial', 'DejaVu Sans', 'Liberation Sans', 'Bitstream Vera Sans', sans-serif; text-anchor: start" x="196.055938" y="310.234688" transform="rotate(-0 196.055938 310.234688)">Without vaccination</text>
    </g>
    <g id="line2d_36">
     <path d="M 156.855938 325.3175 
L 170.855938 325.3175 
L 184.855938 325.3175 
" style="fill: none; stroke: #0173b2; stroke-width: 2; stroke-linecap: round"/>
    </g>
    <g id="text_20">
     <text style="fill: #262626; font: 14px 'Arial', 'DejaVu Sans', 'Liberation Sans', 'Bitstream Vera Sans', sans-serif; text-anchor: start" x="196.055938" y="330.2175" transform="rotate(-0 196.055938 330.2175)">Optimised vaccination</text>
    </g>
   </g>
  </g>
 </g>
 <defs>
  <clipPath id="pb99fa0aa46">
   <rect x="86.4" y="86.4" width="259.2" height="259.2"/>
  </clipPath>
 </defs>
</svg>
