<?xml version="1.0" encoding="utf-8" standalone="no"?>
<!DOCTYPE svg PUBLIC "-//W3C//DTD SVG 1.1//EN"
  "http://www.w3.org/Graphics/SVG/1.1/DTD/svg11.dtd">
<svg xmlns:xlink="http://www.w3.org/1999/xlink" width="432pt" height="432pt" viewBox="0 0 432 432" xmlns="http://www.w3.org/2000/svg" version="1.1">
 <metadata>
  <rdf:RDF xmlns:dc="http://purl.org/dc/elements/1.1/" xmlns:cc="http://creativecommons.org/ns#" xmlns:rdf="http://www.w3.org/1999/02/22-rdf-syntax-ns#">
   <cc:Work>
    <dc:type rdf:resource="http://purl.org/dc/dcmitype/StillImage"/>
    <dc:date>2025-08-07T19:07:06.953156</dc:date>
    <dc:format>image/svg+xml</dc:format>
    <dc:creator>
     <cc:Agent>
      <dc:title>Matplotlib v3.10.3, https://matplotlib.org/</dc:title>
     </cc:Agent>
    </dc:creator>
   </cc:Work>
  </rdf:RDF>
 </metadata>
 <defs>
  <style type="text/css">*{stroke-linejoin: round; stroke-linecap: butt}</style>
 </defs>
 <g id="figure_1">
  <g id="patch_1">
   <path d="M 0 432 
L 432 432 
L 432 0 
L 0 0 
L 0 432 
z
" style="fill: none"/>
  </g>
  <g id="axes_1">
   <g id="patch_2">
    <path d="M 86.4 345.6 
L 345.6 345.6 
L 345.6 86.4 
L 86.4 86.4 
L 86.4 345.6 
z
" style="fill: none"/>
   </g>
   <g id="matplotlib.axis_1">
    <g id="xtick_1">
     <g id="line2d_1">
      <defs>
       <path id="me7a3ae03ff" d="M 0 0 
L 0 6 
" style="stroke: #262626; stroke-width: 1.25"/>
      </defs>
      <g>
       <use xlink:href="#me7a3ae03ff" x="86.4" y="345.6" style="fill: #262626; stroke: #262626; stroke-width: 1.25"/>
      </g>
     </g>
     <g id="text_1">
      <text style="font-size: 16px; font-family: 'Arial', sans-serif; text-anchor: middle; fill: #262626" x="86.4" y="366.5525" transform="rotate(-0 86.4 366.5525)">Jan</text>
     </g>
    </g>
    <g id="xtick_2">
     <g id="line2d_2">
      <g>
       <use xlink:href="#me7a3ae03ff" x="97.407123" y="345.6" style="fill: #262626; stroke: #262626; stroke-width: 1.25"/>
      </g>
     </g>
    </g>
    <g id="xtick_3">
     <g id="line2d_3">
      <g>
       <use xlink:href="#me7a3ae03ff" x="107.349041" y="345.6" style="fill: #262626; stroke: #262626; stroke-width: 1.25"/>
      </g>
     </g>
    </g>
    <g id="xtick_4">
     <g id="line2d_4">
      <g>
       <use xlink:href="#me7a3ae03ff" x="118.356164" y="345.6" style="fill: #262626; stroke: #262626; stroke-width: 1.25"/>
      </g>
     </g>
     <g id="text_2">
      <text style="font-size: 16px; font-family: 'Arial', sans-serif; text-anchor: middle; fill: #262626" x="118.356164" y="366.5525" transform="rotate(-0 118.356164 366.5525)">Apr</text>
     </g>
    </g>
    <g id="xtick_5">
     <g id="line2d_5">
      <g>
       <use xlink:href="#me7a3ae03ff" x="129.008219" y="345.6" style="fill: #262626; stroke: #262626; stroke-width: 1.25"/>
      </g>
     </g>
    </g>
    <g id="xtick_6">
     <g id="line2d_6">
      <g>
       <use xlink:href="#me7a3ae03ff" x="140.015342" y="345.6" style="fill: #262626; stroke: #262626; stroke-width: 1.25"/>
      </g>
     </g>
    </g>
    <g id="xtick_7">
     <g id="line2d_7">
      <g>
       <use xlink:href="#me7a3ae03ff" x="150.667397" y="345.6" style="fill: #262626; stroke: #262626; stroke-width: 1.25"/>
      </g>
     </g>
     <g id="text_3">
      <text style="font-size: 16px; font-family: 'Arial', sans-serif; text-anchor: middle; fill: #262626" x="150.667397" y="366.5525" transform="rotate(-0 150.667397 366.5525)">Jul</text>
     </g>
    </g>
    <g id="xtick_8">
     <g id="line2d_8">
      <g>
       <use xlink:href="#me7a3ae03ff" x="161.674521" y="345.6" style="fill: #262626; stroke: #262626; stroke-width: 1.25"/>
      </g>
     </g>
    </g>
    <g id="xtick_9">
     <g id="line2d_9">
      <g>
       <use xlink:href="#me7a3ae03ff" x="172.681644" y="345.6" style="fill: #262626; stroke: #262626; stroke-width: 1.25"/>
      </g>
     </g>
    </g>
    <g id="xtick_10">
     <g id="line2d_10">
      <g>
       <use xlink:href="#me7a3ae03ff" x="183.333699" y="345.6" style="fill: #262626; stroke: #262626; stroke-width: 1.25"/>
      </g>
     </g>
     <g id="text_4">
      <text style="font-size: 16px; font-family: 'Arial', sans-serif; text-anchor: middle; fill: #262626" x="183.333699" y="366.5525" transform="rotate(-0 183.333699 366.5525)">Oct</text>
     </g>
    </g>
    <g id="xtick_11">
     <g id="line2d_11">
      <g>
       <use xlink:href="#me7a3ae03ff" x="194.340822" y="345.6" style="fill: #262626; stroke: #262626; stroke-width: 1.25"/>
      </g>
     </g>
    </g>
    <g id="xtick_12">
     <g id="line2d_12">
      <g>
       <use xlink:href="#me7a3ae03ff" x="204.992877" y="345.6" style="fill: #262626; stroke: #262626; stroke-width: 1.25"/>
      </g>
     </g>
    </g>
    <g id="xtick_13">
     <g id="line2d_13">
      <g>
       <use xlink:href="#me7a3ae03ff" x="216" y="345.6" style="fill: #262626; stroke: #262626; stroke-width: 1.25"/>
      </g>
     </g>
     <g id="text_5">
      <text style="font-size: 16px; font-family: 'Arial', sans-serif; text-anchor: middle; fill: #262626" x="216" y="366.5525" transform="rotate(-0 216 366.5525)">Jan</text>
     </g>
    </g>
    <g id="xtick_14">
     <g id="line2d_14">
      <g>
       <use xlink:href="#me7a3ae03ff" x="227.007123" y="345.6" style="fill: #262626; stroke: #262626; stroke-width: 1.25"/>
      </g>
     </g>
    </g>
    <g id="xtick_15">
     <g id="line2d_15">
      <g>
       <use xlink:href="#me7a3ae03ff" x="236.949041" y="345.6" style="fill: #262626; stroke: #262626; stroke-width: 1.25"/>
      </g>
     </g>
    </g>
    <g id="xtick_16">
     <g id="line2d_16">
      <g>
       <use xlink:href="#me7a3ae03ff" x="247.956164" y="345.6" style="fill: #262626; stroke: #262626; stroke-width: 1.25"/>
      </g>
     </g>
     <g id="text_6">
      <text style="font-size: 16px; font-family: 'Arial', sans-serif; text-anchor: middle; fill: #262626" x="247.956164" y="366.5525" transform="rotate(-0 247.956164 366.5525)">Apr</text>
     </g>
    </g>
    <g id="xtick_17">
     <g id="line2d_17">
      <g>
       <use xlink:href="#me7a3ae03ff" x="258.608219" y="345.6" style="fill: #262626; stroke: #262626; stroke-width: 1.25"/>
      </g>
     </g>
    </g>
    <g id="xtick_18">
     <g id="line2d_18">
      <g>
       <use xlink:href="#me7a3ae03ff" x="269.615342" y="345.6" style="fill: #262626; stroke: #262626; stroke-width: 1.25"/>
      </g>
     </g>
    </g>
    <g id="xtick_19">
     <g id="line2d_19">
      <g>
       <use xlink:href="#me7a3ae03ff" x="280.267397" y="345.6" style="fill: #262626; stroke: #262626; stroke-width: 1.25"/>
      </g>
     </g>
     <g id="text_7">
      <text style="font-size: 16px; font-family: 'Arial', sans-serif; text-anchor: middle; fill: #262626" x="280.267397" y="366.5525" transform="rotate(-0 280.267397 366.5525)">Jul</text>
     </g>
    </g>
    <g id="xtick_20">
     <g id="line2d_20">
      <g>
       <use xlink:href="#me7a3ae03ff" x="291.274521" y="345.6" style="fill: #262626; stroke: #262626; stroke-width: 1.25"/>
      </g>
     </g>
    </g>
    <g id="xtick_21">
     <g id="line2d_21">
      <g>
       <use xlink:href="#me7a3ae03ff" x="302.281644" y="345.6" style="fill: #262626; stroke: #262626; stroke-width: 1.25"/>
      </g>
     </g>
    </g>
    <g id="xtick_22">
     <g id="line2d_22">
      <g>
       <use xlink:href="#me7a3ae03ff" x="312.933699" y="345.6" style="fill: #262626; stroke: #262626; stroke-width: 1.25"/>
      </g>
     </g>
     <g id="text_8">
      <text style="font-size: 16px; font-family: 'Arial', sans-serif; text-anchor: middle; fill: #262626" x="312.933699" y="366.5525" transform="rotate(-0 312.933699 366.5525)">Oct</text>
     </g>
    </g>
    <g id="xtick_23">
     <g id="line2d_23">
      <g>
       <use xlink:href="#me7a3ae03ff" x="323.940822" y="345.6" style="fill: #262626; stroke: #262626; stroke-width: 1.25"/>
      </g>
     </g>
    </g>
    <g id="xtick_24">
     <g id="line2d_24">
      <g>
       <use xlink:href="#me7a3ae03ff" x="334.592877" y="345.6" style="fill: #262626; stroke: #262626; stroke-width: 1.25"/>
      </g>
     </g>
    </g>
    <g id="xtick_25">
     <g id="line2d_25">
      <g>
       <use xlink:href="#me7a3ae03ff" x="345.6" y="345.6" style="fill: #262626; stroke: #262626; stroke-width: 1.25"/>
      </g>
     </g>
     <g id="text_9">
      <text style="font-size: 16px; font-family: 'Arial', sans-serif; text-anchor: middle; fill: #262626" x="345.6" y="366.5525" transform="rotate(-0 345.6 366.5525)">Jan</text>
     </g>
    </g>
    <g id="text_10">
     <text style="font-size: 16px; font-family: 'Arial', sans-serif; text-anchor: middle; fill: #262626" x="216" y="385.185" transform="rotate(-0 216 385.185)"> </text>
    </g>
   </g>
   <g id="matplotlib.axis_2">
    <g id="ytick_1">
     <g id="line2d_26">
      <defs>
       <path id="m08bacc9e69" d="M 0 0 
L -6 0 
" style="stroke: #262626; stroke-width: 1.25"/>
      </defs>
      <g>
       <use xlink:href="#m08bacc9e69" x="86.4" y="345.6" style="fill: #262626; stroke: #262626; stroke-width: 1.25"/>
      </g>
     </g>
     <g id="text_11">
      <text style="font-size: 16px; font-family: 'Arial', sans-serif; text-anchor: end; fill: #262626" x="76.9" y="351.32625" transform="rotate(-0 76.9 351.32625)">0.0</text>
     </g>
    </g>
    <g id="ytick_2">
     <g id="line2d_27">
      <g>
       <use xlink:href="#m08bacc9e69" x="86.4" y="302.4" style="fill: #262626; stroke: #262626; stroke-width: 1.25"/>
      </g>
     </g>
     <g id="text_12">
      <text style="font-size: 16px; font-family: 'Arial', sans-serif; text-anchor: end; fill: #262626" x="76.9" y="308.12625" transform="rotate(-0 76.9 308.12625)">0.1</text>
     </g>
    </g>
    <g id="ytick_3">
     <g id="line2d_28">
      <g>
       <use xlink:href="#m08bacc9e69" x="86.4" y="259.2" style="fill: #262626; stroke: #262626; stroke-width: 1.25"/>
      </g>
     </g>
     <g id="text_13">
      <text style="font-size: 16px; font-family: 'Arial', sans-serif; text-anchor: end; fill: #262626" x="76.9" y="264.92625" transform="rotate(-0 76.9 264.92625)">0.2</text>
     </g>
    </g>
    <g id="ytick_4">
     <g id="line2d_29">
      <g>
       <use xlink:href="#m08bacc9e69" x="86.4" y="216" style="fill: #262626; stroke: #262626; stroke-width: 1.25"/>
      </g>
     </g>
     <g id="text_14">
      <text style="font-size: 16px; font-family: 'Arial', sans-serif; text-anchor: end; fill: #262626" x="76.9" y="221.72625" transform="rotate(-0 76.9 221.72625)">0.3</text>
     </g>
    </g>
    <g id="ytick_5">
     <g id="line2d_30">
      <g>
       <use xlink:href="#m08bacc9e69" x="86.4" y="172.8" style="fill: #262626; stroke: #262626; stroke-width: 1.25"/>
      </g>
     </g>
     <g id="text_15">
      <text style="font-size: 16px; font-family: 'Arial', sans-serif; text-anchor: end; fill: #262626" x="76.9" y="178.52625" transform="rotate(-0 76.9 178.52625)">0.4</text>
     </g>
    </g>
    <g id="ytick_6">
     <g id="line2d_31">
      <g>
       <use xlink:href="#m08bacc9e69" x="86.4" y="129.6" style="fill: #262626; stroke: #262626; stroke-width: 1.25"/>
      </g>
     </g>
     <g id="text_16">
      <text style="font-size: 16px; font-family: 'Arial', sans-serif; text-anchor: end; fill: #262626" x="76.9" y="135.32625" transform="rotate(-0 76.9 135.32625)">0.5</text>
     </g>
    </g>
    <g id="ytick_7">
     <g id="line2d_32">
      <g>
       <use xlink:href="#m08bacc9e69" x="86.4" y="86.4" style="fill: #262626; stroke: #262626; stroke-width: 1.25"/>
      </g>
     </g>
     <g id="text_17">
      <text style="font-size: 16px; font-family: 'Arial', sans-serif; text-anchor: end; fill: #262626" x="76.9" y="92.12625" transform="rotate(-0 76.9 92.12625)">0.6</text>
     </g>
    </g>
    <g id="text_18">
     <text style="font-size: 16px; font-family: 'Arial', sans-serif; text-anchor: middle; fill: #262626" x="47.48" y="216" transform="rotate(-90 47.48 216)">Outbreak risk</text>
    </g>
   </g>
   <g id="FillBetweenPolyCollection_1">
    <defs>
     <path id="m76bec4154a" d="M 212.804384 -86.4 
L 163.094795 -86.4 
L 163.094795 -345.6 
L 212.804384 -345.6 
L 212.804384 -345.6 
L 212.804384 -86.4 
z
"/>
    </defs>
    <g clip-path="url(#p6b4d9e15b2)">
     <use xlink:href="#m76bec4154a" x="0" y="432" style="fill: #808080; fill-opacity: 0.5"/>
    </g>
   </g>
   <g id="FillBetweenPolyCollection_2">
    <defs>
     <path id="m05ae47a66d" d="M 342.404384 -86.4 
L 292.694795 -86.4 
L 292.694795 -345.6 
L 342.404384 -345.6 
L 342.404384 -345.6 
L 342.404384 -86.4 
z
"/>
    </defs>
    <g clip-path="url(#p6b4d9e15b2)">
     <use xlink:href="#m05ae47a66d" x="0" y="432" style="fill: #808080; fill-opacity: 0.5"/>
    </g>
   </g>
   <g id="line2d_33">
    <path d="M 86.4 109.782991 
L 88.530411 110.092249 
L 90.660822 110.642984 
L 92.791233 111.434878 
L 94.921644 112.467147 
L 97.052055 113.738413 
L 99.182466 115.246528 
L 101.667945 117.301097 
L 104.153425 119.666542 
L 106.638904 122.33264 
L 109.479452 125.729461 
L 112.32 129.471523 
L 115.515616 134.044751 
L 119.42137 140.048796 
L 126.52274 151.514668 
L 130.783562 158.181942 
L 133.62411 162.278662 
L 136.109589 165.510144 
L 138.24 167.947169 
L 140.370411 170.022656 
L 142.145753 171.443458 
L 143.921096 172.560374 
L 145.34137 173.223698 
L 146.761644 173.675597 
L 148.181918 173.912224 
L 149.602192 173.932068 
L 151.022466 173.735946 
L 152.44274 173.326948 
L 153.863014 172.710326 
L 155.638356 171.658825 
L 157.413699 170.312559 
L 159.189041 168.693496 
L 161.319452 166.425996 
L 163.804932 163.393598 
L 166.645479 159.516687 
L 170.196164 154.233534 
L 176.587397 144.188191 
L 181.913425 135.985767 
L 185.819178 130.390218 
L 189.014795 126.19342 
L 191.855342 122.803008 
L 194.69589 119.7652 
L 197.18137 117.414834 
L 199.666849 115.364051 
L 202.152329 113.621656 
L 204.28274 112.378629 
L 206.413151 111.37007 
L 208.543562 110.598304 
L 210.673973 110.065071 
L 212.804384 109.771641 
L 214.934795 109.718909 
L 217.065205 109.907431 
L 219.195616 110.337442 
L 221.326027 111.008823 
L 223.456438 111.921036 
L 225.586849 113.07302 
L 227.71726 114.463034 
L 230.20274 116.382021 
L 232.688219 118.615291 
L 235.173699 121.154016 
L 238.014247 124.413441 
L 240.854795 128.03003 
L 244.050411 132.481508 
L 247.601096 137.82217 
L 252.572055 145.755967 
L 259.673425 157.105526 
L 262.869041 161.787649 
L 265.354521 165.072351 
L 267.484932 167.564788 
L 269.615342 169.703847 
L 271.390685 171.182985 
L 273.166027 172.362178 
L 274.586301 173.077487 
L 276.006575 173.582693 
L 277.426849 173.873372 
L 278.847123 173.947425 
L 280.267397 173.805092 
L 281.687671 173.448903 
L 283.107945 172.883582 
L 284.528219 172.115907 
L 286.303562 170.885108 
L 288.078904 169.372313 
L 290.209315 167.218592 
L 292.339726 164.739592 
L 294.825205 161.502932 
L 298.020822 156.922936 
L 302.281644 150.362008 
L 311.868493 135.45905 
L 315.419178 130.390218 
L 318.614795 126.19342 
L 321.455342 122.803008 
L 324.29589 119.7652 
L 326.78137 117.414834 
L 329.266849 115.364051 
L 331.752329 113.621656 
L 333.88274 112.378629 
L 336.013151 111.37007 
L 338.143562 110.598304 
L 340.273973 110.065071 
L 342.404384 109.771641 
L 344.534795 109.718909 
L 345.244932 109.754925 
L 345.244932 109.754925 
" clip-path="url(#p6b4d9e15b2)" style="fill: none; stroke-dasharray: 7.4,3.2; stroke-dashoffset: 0; stroke: #029e73; stroke-opacity: 0.75; stroke-width: 2"/>
   </g>
   <g id="line2d_34">
    <path d="M 86.4 184.955022 
L 88.530411 182.752393 
L 90.660822 180.887184 
L 92.791233 179.357777 
L 94.566575 178.337703 
L 96.341918 177.54656 
L 98.11726 176.981581 
L 99.892603 176.639241 
L 101.667945 176.515283 
L 103.443288 176.60464 
L 105.21863 176.901085 
L 106.993973 177.397186 
L 109.124384 178.24382 
L 111.254795 179.347391 
L 113.385205 180.686179 
L 115.870685 182.510702 
L 118.711233 184.881324 
L 122.616986 188.478912 
L 130.073425 195.4438 
L 132.913973 197.732594 
L 135.044384 199.183765 
L 137.174795 200.344874 
L 138.950137 201.053845 
L 140.725479 201.499909 
L 142.145753 201.652728 
L 143.566027 201.614361 
L 144.986301 201.378014 
L 146.406575 200.939081 
L 147.826849 200.295289 
L 149.247123 199.446731 
L 151.022466 198.102188 
L 152.797808 196.452482 
L 154.573151 194.515793 
L 156.703562 191.855504 
L 159.899178 187.409624 
L 162.029589 184.584356 
L 163.094795 183.519624 
L 163.804932 183.104666 
L 164.870137 182.94727 
L 167.355616 182.557952 
L 169.841096 181.936921 
L 173.391781 180.788664 
L 181.913425 177.895176 
L 184.753973 177.197429 
L 187.239452 176.793757 
L 189.724932 176.6247 
L 191.855342 176.692924 
L 193.985753 176.978444 
L 196.116164 177.49863 
L 198.246575 178.268985 
L 200.376986 179.302868 
L 202.507397 180.609597 
L 204.637808 182.188331 
L 207.123288 184.330287 
L 210.673973 187.429926 
L 211.739178 188.03772 
L 212.449315 188.204345 
L 213.159452 188.063654 
L 213.869589 187.460273 
L 217.065205 183.811511 
L 219.195616 181.777661 
L 221.326027 180.080666 
L 223.10137 178.922119 
L 224.876712 177.993901 
L 226.652055 177.293614 
L 228.427397 176.818148 
L 230.20274 176.563697 
L 231.978082 176.525759 
L 233.753425 176.698764 
L 235.528767 177.076005 
L 237.30411 177.649661 
L 239.434521 178.584126 
L 241.564932 179.768701 
L 244.050411 181.435888 
L 246.53589 183.367987 
L 249.731507 186.155175 
L 254.702466 190.858184 
L 259.318356 195.135389 
L 262.158904 197.466417 
L 264.289315 198.96058 
L 266.419726 200.173746 
L 268.195068 200.932309 
L 269.970411 201.432834 
L 271.390685 201.632134 
L 272.810959 201.642286 
L 274.231233 201.455955 
L 275.651507 201.067971 
L 277.071781 200.475479 
L 278.492055 199.677972 
L 280.267397 198.395948 
L 282.04274 196.80609 
L 283.818082 194.924894 
L 285.948493 192.321444 
L 288.789041 188.416742 
L 291.274521 185.012285 
L 292.339726 183.828946 
L 293.049863 183.27192 
L 293.76 183.024709 
L 296.955616 182.557952 
L 299.441096 181.936921 
L 302.991781 180.788664 
L 311.513425 177.895176 
L 314.353973 177.197429 
L 316.839452 176.793757 
L 319.324932 176.6247 
L 321.455342 176.692924 
L 323.585753 176.978444 
L 325.716164 177.49863 
L 327.846575 178.268985 
L 329.976986 179.302868 
L 332.107397 180.609597 
L 334.237808 182.188331 
L 336.723288 184.330287 
L 340.273973 187.429926 
L 341.339178 188.03772 
L 342.049315 188.204345 
L 342.759452 188.063654 
L 343.469589 187.460273 
L 345.244932 185.35482 
L 345.244932 185.35482 
" clip-path="url(#p6b4d9e15b2)" style="fill: none; stroke: #029e73; stroke-width: 2; stroke-linecap: round"/>
   </g>
   <g id="patch_3">
    <path d="M 86.4 345.6 
L 86.4 86.4 
" style="fill: none; stroke: #262626; stroke-width: 1.25; stroke-linejoin: miter; stroke-linecap: square"/>
   </g>
   <g id="patch_4">
    <path d="M 86.4 345.6 
L 345.6 345.6 
" style="fill: none; stroke: #262626; stroke-width: 1.25; stroke-linejoin: miter; stroke-linecap: square"/>
   </g>
   <g id="legend_1">
    <g id="patch_5">
     <path d="M 154.055938 338.6 
L 335.8 338.6 
Q 338.6 338.6 338.6 335.8 
L 338.6 297.41375 
Q 338.6 294.61375 335.8 294.61375 
L 154.055938 294.61375 
Q 151.255938 294.61375 151.255938 297.41375 
L 151.255938 335.8 
Q 151.255938 338.6 154.055938 338.6 
z
" style="fill: #ffffff; opacity: 0.8; stroke: #cccccc; stroke-linejoin: miter"/>
    </g>
    <g id="line2d_35">
     <path d="M 156.855938 305.334688 
L 170.855938 305.334688 
L 184.855938 305.334688 
" style="fill: none; stroke-dasharray: 7.4,3.2; stroke-dashoffset: 0; stroke: #029e73; stroke-opacity: 0.75; stroke-width: 2"/>
    </g>
    <g id="text_19">
     <text style="font-size: 14px; font-family: 'Arial', sans-serif; text-anchor: start; fill: #262626" x="196.055938" y="310.234688" transform="rotate(-0 196.055938 310.234688)">Without vaccination</text>
    </g>
    <g id="line2d_36">
     <path d="M 156.855938 325.3175 
L 170.855938 325.3175 
L 184.855938 325.3175 
" style="fill: none; stroke: #029e73; stroke-width: 2; stroke-linecap: round"/>
    </g>
    <g id="text_20">
     <text style="font-size: 14px; font-family: 'Arial', sans-serif; text-anchor: start; fill: #262626" x="196.055938" y="330.2175" transform="rotate(-0 196.055938 330.2175)">Optimised vaccination</text>
    </g>
   </g>
  </g>
 </g>
 <defs>
  <clipPath id="p6b4d9e15b2">
   <rect x="86.4" y="86.4" width="259.2" height="259.2"/>
  </clipPath>
 </defs>
</svg>
