<?xml version="1.0" encoding="utf-8" standalone="no"?>
<!DOCTYPE svg PUBLIC "-//W3C//DTD SVG 1.1//EN"
  "http://www.w3.org/Graphics/SVG/1.1/DTD/svg11.dtd">
<svg xmlns:xlink="http://www.w3.org/1999/xlink" width="432pt" height="432pt" viewBox="0 0 432 432" xmlns="http://www.w3.org/2000/svg" version="1.1">
 <metadata>
  <rdf:RDF xmlns:dc="http://purl.org/dc/elements/1.1/" xmlns:cc="http://creativecommons.org/ns#" xmlns:rdf="http://www.w3.org/1999/02/22-rdf-syntax-ns#">
   <cc:Work>
    <dc:type rdf:resource="http://purl.org/dc/dcmitype/StillImage"/>
    <dc:date>2024-05-21T13:17:38.333404</dc:date>
    <dc:format>image/svg+xml</dc:format>
    <dc:creator>
     <cc:Agent>
      <dc:title>Matplotlib v3.8.4, https://matplotlib.org/</dc:title>
     </cc:Agent>
    </dc:creator>
   </cc:Work>
  </rdf:RDF>
 </metadata>
 <defs>
  <style type="text/css">*{stroke-linejoin: round; stroke-linecap: butt}</style>
 </defs>
 <g id="figure_1">
  <g id="patch_1">
   <path d="M 0 432 
L 432 432 
L 432 0 
L 0 0 
L 0 432 
z
" style="fill: none"/>
  </g>
  <g id="axes_1">
   <g id="patch_2">
    <path d="M 86.4 345.6 
L 345.6 345.6 
L 345.6 86.4 
L 86.4 86.4 
L 86.4 345.6 
z
" style="fill: none"/>
   </g>
   <g id="matplotlib.axis_1">
    <g id="xtick_1">
     <g id="line2d_1">
      <defs>
       <path id="m8b578a3ab3" d="M 0 0 
L 0 6 
" style="stroke: #262626; stroke-width: 1.25"/>
      </defs>
      <g>
       <use xlink:href="#m8b578a3ab3" x="86.4" y="345.6" style="fill: #262626; stroke: #262626; stroke-width: 1.25"/>
      </g>
     </g>
     <g id="text_1">
      <text style="fill: #262626; font: 16px 'Arial', 'DejaVu Sans', 'Liberation Sans', 'Bitstream Vera Sans', sans-serif; text-anchor: middle" x="86.4" y="366.5525" transform="rotate(-0 86.4 366.5525)">Jan</text>
     </g>
    </g>
    <g id="xtick_2">
     <g id="line2d_2">
      <g>
       <use xlink:href="#m8b578a3ab3" x="97.2" y="345.6" style="fill: #262626; stroke: #262626; stroke-width: 1.25"/>
      </g>
     </g>
    </g>
    <g id="xtick_3">
     <g id="line2d_3">
      <g>
       <use xlink:href="#m8b578a3ab3" x="108" y="345.6" style="fill: #262626; stroke: #262626; stroke-width: 1.25"/>
      </g>
     </g>
    </g>
    <g id="xtick_4">
     <g id="line2d_4">
      <g>
       <use xlink:href="#m8b578a3ab3" x="118.8" y="345.6" style="fill: #262626; stroke: #262626; stroke-width: 1.25"/>
      </g>
     </g>
     <g id="text_2">
      <text style="fill: #262626; font: 16px 'Arial', 'DejaVu Sans', 'Liberation Sans', 'Bitstream Vera Sans', sans-serif; text-anchor: middle" x="118.8" y="366.5525" transform="rotate(-0 118.8 366.5525)">Apr</text>
     </g>
    </g>
    <g id="xtick_5">
     <g id="line2d_5">
      <g>
       <use xlink:href="#m8b578a3ab3" x="129.6" y="345.6" style="fill: #262626; stroke: #262626; stroke-width: 1.25"/>
      </g>
     </g>
    </g>
    <g id="xtick_6">
     <g id="line2d_6">
      <g>
       <use xlink:href="#m8b578a3ab3" x="140.4" y="345.6" style="fill: #262626; stroke: #262626; stroke-width: 1.25"/>
      </g>
     </g>
    </g>
    <g id="xtick_7">
     <g id="line2d_7">
      <g>
       <use xlink:href="#m8b578a3ab3" x="151.2" y="345.6" style="fill: #262626; stroke: #262626; stroke-width: 1.25"/>
      </g>
     </g>
     <g id="text_3">
      <text style="fill: #262626; font: 16px 'Arial', 'DejaVu Sans', 'Liberation Sans', 'Bitstream Vera Sans', sans-serif; text-anchor: middle" x="151.2" y="366.5525" transform="rotate(-0 151.2 366.5525)">Jul</text>
     </g>
    </g>
    <g id="xtick_8">
     <g id="line2d_8">
      <g>
       <use xlink:href="#m8b578a3ab3" x="162" y="345.6" style="fill: #262626; stroke: #262626; stroke-width: 1.25"/>
      </g>
     </g>
    </g>
    <g id="xtick_9">
     <g id="line2d_9">
      <g>
       <use xlink:href="#m8b578a3ab3" x="172.8" y="345.6" style="fill: #262626; stroke: #262626; stroke-width: 1.25"/>
      </g>
     </g>
    </g>
    <g id="xtick_10">
     <g id="line2d_10">
      <g>
       <use xlink:href="#m8b578a3ab3" x="183.6" y="345.6" style="fill: #262626; stroke: #262626; stroke-width: 1.25"/>
      </g>
     </g>
     <g id="text_4">
      <text style="fill: #262626; font: 16px 'Arial', 'DejaVu Sans', 'Liberation Sans', 'Bitstream Vera Sans', sans-serif; text-anchor: middle" x="183.6" y="366.5525" transform="rotate(-0 183.6 366.5525)">Oct</text>
     </g>
    </g>
    <g id="xtick_11">
     <g id="line2d_11">
      <g>
       <use xlink:href="#m8b578a3ab3" x="194.4" y="345.6" style="fill: #262626; stroke: #262626; stroke-width: 1.25"/>
      </g>
     </g>
    </g>
    <g id="xtick_12">
     <g id="line2d_12">
      <g>
       <use xlink:href="#m8b578a3ab3" x="205.2" y="345.6" style="fill: #262626; stroke: #262626; stroke-width: 1.25"/>
      </g>
     </g>
    </g>
    <g id="xtick_13">
     <g id="line2d_13">
      <g>
       <use xlink:href="#m8b578a3ab3" x="216" y="345.6" style="fill: #262626; stroke: #262626; stroke-width: 1.25"/>
      </g>
     </g>
     <g id="text_5">
      <text style="fill: #262626; font: 16px 'Arial', 'DejaVu Sans', 'Liberation Sans', 'Bitstream Vera Sans', sans-serif; text-anchor: middle" x="216" y="366.5525" transform="rotate(-0 216 366.5525)">Jan</text>
     </g>
    </g>
    <g id="xtick_14">
     <g id="line2d_14">
      <g>
       <use xlink:href="#m8b578a3ab3" x="216" y="345.6" style="fill: #262626; stroke: #262626; stroke-width: 1.25"/>
      </g>
     </g>
     <g id="text_6">
      <text style="fill: #262626; font: 16px 'Arial', 'DejaVu Sans', 'Liberation Sans', 'Bitstream Vera Sans', sans-serif; text-anchor: middle" x="216" y="366.5525" transform="rotate(-0 216 366.5525)">Jan</text>
     </g>
    </g>
    <g id="xtick_15">
     <g id="line2d_15">
      <g>
       <use xlink:href="#m8b578a3ab3" x="226.8" y="345.6" style="fill: #262626; stroke: #262626; stroke-width: 1.25"/>
      </g>
     </g>
    </g>
    <g id="xtick_16">
     <g id="line2d_16">
      <g>
       <use xlink:href="#m8b578a3ab3" x="237.6" y="345.6" style="fill: #262626; stroke: #262626; stroke-width: 1.25"/>
      </g>
     </g>
    </g>
    <g id="xtick_17">
     <g id="line2d_17">
      <g>
       <use xlink:href="#m8b578a3ab3" x="248.4" y="345.6" style="fill: #262626; stroke: #262626; stroke-width: 1.25"/>
      </g>
     </g>
     <g id="text_7">
      <text style="fill: #262626; font: 16px 'Arial', 'DejaVu Sans', 'Liberation Sans', 'Bitstream Vera Sans', sans-serif; text-anchor: middle" x="248.4" y="366.5525" transform="rotate(-0 248.4 366.5525)">Apr</text>
     </g>
    </g>
    <g id="xtick_18">
     <g id="line2d_18">
      <g>
       <use xlink:href="#m8b578a3ab3" x="259.2" y="345.6" style="fill: #262626; stroke: #262626; stroke-width: 1.25"/>
      </g>
     </g>
    </g>
    <g id="xtick_19">
     <g id="line2d_19">
      <g>
       <use xlink:href="#m8b578a3ab3" x="270" y="345.6" style="fill: #262626; stroke: #262626; stroke-width: 1.25"/>
      </g>
     </g>
    </g>
    <g id="xtick_20">
     <g id="line2d_20">
      <g>
       <use xlink:href="#m8b578a3ab3" x="280.8" y="345.6" style="fill: #262626; stroke: #262626; stroke-width: 1.25"/>
      </g>
     </g>
     <g id="text_8">
      <text style="fill: #262626; font: 16px 'Arial', 'DejaVu Sans', 'Liberation Sans', 'Bitstream Vera Sans', sans-serif; text-anchor: middle" x="280.8" y="366.5525" transform="rotate(-0 280.8 366.5525)">Jul</text>
     </g>
    </g>
    <g id="xtick_21">
     <g id="line2d_21">
      <g>
       <use xlink:href="#m8b578a3ab3" x="291.6" y="345.6" style="fill: #262626; stroke: #262626; stroke-width: 1.25"/>
      </g>
     </g>
    </g>
    <g id="xtick_22">
     <g id="line2d_22">
      <g>
       <use xlink:href="#m8b578a3ab3" x="302.4" y="345.6" style="fill: #262626; stroke: #262626; stroke-width: 1.25"/>
      </g>
     </g>
    </g>
    <g id="xtick_23">
     <g id="line2d_23">
      <g>
       <use xlink:href="#m8b578a3ab3" x="313.2" y="345.6" style="fill: #262626; stroke: #262626; stroke-width: 1.25"/>
      </g>
     </g>
     <g id="text_9">
      <text style="fill: #262626; font: 16px 'Arial', 'DejaVu Sans', 'Liberation Sans', 'Bitstream Vera Sans', sans-serif; text-anchor: middle" x="313.2" y="366.5525" transform="rotate(-0 313.2 366.5525)">Oct</text>
     </g>
    </g>
    <g id="xtick_24">
     <g id="line2d_24">
      <g>
       <use xlink:href="#m8b578a3ab3" x="324" y="345.6" style="fill: #262626; stroke: #262626; stroke-width: 1.25"/>
      </g>
     </g>
    </g>
    <g id="xtick_25">
     <g id="line2d_25">
      <g>
       <use xlink:href="#m8b578a3ab3" x="334.8" y="345.6" style="fill: #262626; stroke: #262626; stroke-width: 1.25"/>
      </g>
     </g>
    </g>
    <g id="xtick_26">
     <g id="line2d_26">
      <g>
       <use xlink:href="#m8b578a3ab3" x="345.6" y="345.6" style="fill: #262626; stroke: #262626; stroke-width: 1.25"/>
      </g>
     </g>
     <g id="text_10">
      <text style="fill: #262626; font: 16px 'Arial', 'DejaVu Sans', 'Liberation Sans', 'Bitstream Vera Sans', sans-serif; text-anchor: middle" x="345.6" y="366.5525" transform="rotate(-0 345.6 366.5525)">Jan</text>
     </g>
    </g>
    <g id="text_11">
     <text style="fill: #262626; font: 16px 'Arial', 'DejaVu Sans', 'Liberation Sans', 'Bitstream Vera Sans', sans-serif; text-anchor: middle" x="216" y="385.185" transform="rotate(-0 216 385.185)"> </text>
    </g>
   </g>
   <g id="matplotlib.axis_2">
    <g id="ytick_1">
     <g id="line2d_27">
      <defs>
       <path id="me04c778a90" d="M 0 0 
L -6 0 
" style="stroke: #262626; stroke-width: 1.25"/>
      </defs>
      <g>
       <use xlink:href="#me04c778a90" x="86.4" y="345.6" style="fill: #262626; stroke: #262626; stroke-width: 1.25"/>
      </g>
     </g>
     <g id="text_12">
      <text style="fill: #262626; font: 16px 'Arial', 'DejaVu Sans', 'Liberation Sans', 'Bitstream Vera Sans', sans-serif; text-anchor: end" x="76.9" y="351.32625" transform="rotate(-0 76.9 351.32625)">0.0</text>
     </g>
    </g>
    <g id="ytick_2">
     <g id="line2d_28">
      <g>
       <use xlink:href="#me04c778a90" x="86.4" y="302.4" style="fill: #262626; stroke: #262626; stroke-width: 1.25"/>
      </g>
     </g>
     <g id="text_13">
      <text style="fill: #262626; font: 16px 'Arial', 'DejaVu Sans', 'Liberation Sans', 'Bitstream Vera Sans', sans-serif; text-anchor: end" x="76.9" y="308.12625" transform="rotate(-0 76.9 308.12625)">0.1</text>
     </g>
    </g>
    <g id="ytick_3">
     <g id="line2d_29">
      <g>
       <use xlink:href="#me04c778a90" x="86.4" y="259.2" style="fill: #262626; stroke: #262626; stroke-width: 1.25"/>
      </g>
     </g>
     <g id="text_14">
      <text style="fill: #262626; font: 16px 'Arial', 'DejaVu Sans', 'Liberation Sans', 'Bitstream Vera Sans', sans-serif; text-anchor: end" x="76.9" y="264.92625" transform="rotate(-0 76.9 264.92625)">0.2</text>
     </g>
    </g>
    <g id="ytick_4">
     <g id="line2d_30">
      <g>
       <use xlink:href="#me04c778a90" x="86.4" y="216" style="fill: #262626; stroke: #262626; stroke-width: 1.25"/>
      </g>
     </g>
     <g id="text_15">
      <text style="fill: #262626; font: 16px 'Arial', 'DejaVu Sans', 'Liberation Sans', 'Bitstream Vera Sans', sans-serif; text-anchor: end" x="76.9" y="221.72625" transform="rotate(-0 76.9 221.72625)">0.3</text>
     </g>
    </g>
    <g id="ytick_5">
     <g id="line2d_31">
      <g>
       <use xlink:href="#me04c778a90" x="86.4" y="172.8" style="fill: #262626; stroke: #262626; stroke-width: 1.25"/>
      </g>
     </g>
     <g id="text_16">
      <text style="fill: #262626; font: 16px 'Arial', 'DejaVu Sans', 'Liberation Sans', 'Bitstream Vera Sans', sans-serif; text-anchor: end" x="76.9" y="178.52625" transform="rotate(-0 76.9 178.52625)">0.4</text>
     </g>
    </g>
    <g id="ytick_6">
     <g id="line2d_32">
      <g>
       <use xlink:href="#me04c778a90" x="86.4" y="129.6" style="fill: #262626; stroke: #262626; stroke-width: 1.25"/>
      </g>
     </g>
     <g id="text_17">
      <text style="fill: #262626; font: 16px 'Arial', 'DejaVu Sans', 'Liberation Sans', 'Bitstream Vera Sans', sans-serif; text-anchor: end" x="76.9" y="135.32625" transform="rotate(-0 76.9 135.32625)">0.5</text>
     </g>
    </g>
    <g id="ytick_7">
     <g id="line2d_33">
      <g>
       <use xlink:href="#me04c778a90" x="86.4" y="86.4" style="fill: #262626; stroke: #262626; stroke-width: 1.25"/>
      </g>
     </g>
     <g id="text_18">
      <text style="fill: #262626; font: 16px 'Arial', 'DejaVu Sans', 'Liberation Sans', 'Bitstream Vera Sans', sans-serif; text-anchor: end" x="76.9" y="92.12625" transform="rotate(-0 76.9 92.12625)">0.6</text>
     </g>
    </g>
    <g id="text_19">
     <text style="fill: #262626; font: 16px 'Arial', 'DejaVu Sans', 'Liberation Sans', 'Bitstream Vera Sans', sans-serif; text-anchor: middle" x="47.48" y="216" transform="rotate(-90 47.48 216)">Case outbreak risk</text>
    </g>
   </g>
   <g id="PolyCollection_1">
    <defs>
     <path id="m4784f6833e" d="M 208.8 -86.4 
L 176.4 -86.4 
L 176.4 -345.6 
L 208.8 -345.6 
L 208.8 -345.6 
L 208.8 -86.4 
z
"/>
    </defs>
    <g clip-path="url(#pf03c098032)">
     <use xlink:href="#m4784f6833e" x="0" y="432" style="fill: #808080; fill-opacity: 0.5"/>
    </g>
   </g>
   <g id="PolyCollection_2">
    <defs>
     <path id="mb3ec5a30fe" d="M 338.4 -86.4 
L 306 -86.4 
L 306 -345.6 
L 338.4 -345.6 
L 338.4 -345.6 
L 338.4 -86.4 
z
"/>
    </defs>
    <g clip-path="url(#pf03c098032)">
     <use xlink:href="#mb3ec5a30fe" x="0" y="432" style="fill: #808080; fill-opacity: 0.5"/>
    </g>
   </g>
   <g id="line2d_34">
    <path d="M 86.4 151.506152 
L 88.56 151.796745 
L 90.72 152.309573 
L 92.88 153.043916 
L 95.04 153.99843 
L 97.2 155.171035 
L 99.72 156.810691 
L 102.24 158.736472 
L 104.76 160.939206 
L 107.64 163.779727 
L 110.52 166.940938 
L 113.76 170.839066 
L 117.36 175.520388 
L 122.4 182.476379 
L 129.6 192.424251 
L 132.84 196.528517 
L 135.36 199.40968 
L 137.52 201.598305 
L 139.68 203.479931 
L 141.48 204.784532 
L 143.28 205.828801 
L 145.08 206.597355 
L 146.88 207.079267 
L 148.32 207.2541 
L 149.76 207.24051 
L 151.2 207.039554 
L 152.64 206.654206 
L 154.44 205.920692 
L 156.24 204.919725 
L 158.04 203.667971 
L 160.2 201.862788 
L 162.36 199.763653 
L 164.88 196.999529 
L 167.76 193.511179 
L 171.72 188.327764 
L 184.32 171.508621 
L 187.92 167.219902 
L 191.16 163.714196 
L 194.04 160.920464 
L 196.92 158.457298 
L 199.44 156.58883 
L 201.96 154.998732 
L 204.48 153.694761 
L 206.64 152.809294 
L 208.8 152.141156 
L 210.96 151.692438 
L 213.12 151.464636 
L 215.28 151.458719 
L 217.44 151.675168 
L 219.6 152.11397 
L 221.76 152.774592 
L 223.92 153.655907 
L 226.08 154.756098 
L 228.6 156.312689 
L 231.12 158.157534 
L 233.64 160.282247 
L 236.16 162.675456 
L 239.04 165.719802 
L 242.28 169.502763 
L 245.88 174.083117 
L 250.2 179.958211 
L 260.28 193.833369 
L 263.16 197.383672 
L 265.68 200.17064 
L 267.84 202.261715 
L 270 204.031854 
L 271.8 205.234436 
L 273.6 206.170024 
L 275.4 206.824971 
L 276.84 207.140624 
L 278.28 207.268359 
L 279.72 207.207752 
L 281.16 206.960346 
L 282.96 206.393817 
L 284.76 205.551542 
L 286.56 204.448075 
L 288.36 203.10138 
L 290.52 201.193713 
L 293.04 198.616936 
L 295.92 195.293174 
L 299.16 191.197445 
L 304.2 184.411655 
L 311.76 174.246966 
L 315.72 169.317032 
L 318.96 165.616979 
L 321.84 162.629299 
L 324.72 159.95686 
L 327.24 157.895585 
L 329.76 156.105732 
L 332.28 154.596684 
L 334.8 153.375614 
L 336.96 152.562317 
L 339.12 151.967119 
L 341.28 151.5919 
L 343.44 151.437976 
L 345.24 151.479346 
L 345.24 151.479346 
" clip-path="url(#pf03c098032)" style="fill: none; stroke: #4c72b0; stroke-width: 2; stroke-linecap: round"/>
   </g>
   <g id="line2d_35">
    <path d="M 86.4 186.281689 
L 88.56 185.648128 
L 90.72 185.252918 
L 92.88 185.095822 
L 95.04 185.175966 
L 97.2 185.491593 
L 99.36 186.039909 
L 101.52 186.816802 
L 103.68 187.816546 
L 106.2 189.254499 
L 108.72 190.969649 
L 111.24 192.941254 
L 114.12 195.474311 
L 117.36 198.619764 
L 121.68 203.144959 
L 129.6 211.509891 
L 132.48 214.225409 
L 135 216.3119 
L 137.16 217.824571 
L 138.96 218.856931 
L 140.76 219.657793 
L 142.56 220.208147 
L 144.36 220.492921 
L 145.8 220.522218 
L 147.24 220.371315 
L 148.68 220.038784 
L 150.48 219.36873 
L 152.28 218.421074 
L 154.08 217.205301 
L 155.88 215.734867 
L 158.04 213.658323 
L 160.2 211.274474 
L 162.72 208.157884 
L 165.6 204.238069 
L 169.56 198.421653 
L 174.96 190.464091 
L 176.4 188.790272 
L 177.12 188.217652 
L 178.2 187.745842 
L 182.16 186.360363 
L 185.4 185.461259 
L 188.28 184.906795 
L 190.8 184.648943 
L 193.32 184.631054 
L 195.48 184.823816 
L 197.64 185.221338 
L 199.8 185.832761 
L 201.96 186.660377 
L 204.48 187.869301 
L 207.72 189.432649 
L 208.8 189.648062 
L 209.52 189.524426 
L 210.96 188.682007 
L 213.12 187.496357 
L 215.28 186.545767 
L 217.44 185.832853 
L 219.6 185.358164 
L 221.76 185.12177 
L 223.92 185.122984 
L 226.08 185.360363 
L 228.24 185.831509 
L 230.4 186.532756 
L 232.56 187.458961 
L 234.72 188.603258 
L 237.24 190.201855 
L 239.76 192.06643 
L 242.64 194.492159 
L 245.88 197.541333 
L 249.84 201.608012 
L 260.28 212.562723 
L 263.16 215.157708 
L 265.68 217.103238 
L 267.84 218.47058 
L 269.64 219.366526 
L 271.44 220.019132 
L 273.24 220.411661 
L 275.04 220.531691 
L 276.48 220.426045 
L 277.92 220.138947 
L 279.72 219.525179 
L 281.52 218.632414 
L 283.32 217.469314 
L 285.12 216.048558 
L 287.28 214.026756 
L 289.44 211.691493 
L 291.96 208.622872 
L 294.84 204.745502 
L 298.44 199.50375 
L 304.56 190.464091 
L 306 188.790272 
L 306.72 188.217652 
L 307.8 187.745842 
L 311.76 186.360363 
L 315 185.461259 
L 317.88 184.906795 
L 320.4 184.648943 
L 322.92 184.631054 
L 325.08 184.823816 
L 327.24 185.221338 
L 329.4 185.832761 
L 331.56 186.660377 
L 334.08 187.869301 
L 337.32 189.432649 
L 338.4 189.648062 
L 339.12 189.524426 
L 340.56 188.682007 
L 342.72 187.496357 
L 344.88 186.545767 
L 345.24 186.410425 
L 345.24 186.410425 
" clip-path="url(#pf03c098032)" style="fill: none; stroke: #dd8452; stroke-width: 2; stroke-linecap: round"/>
   </g>
   <g id="patch_3">
    <path d="M 86.4 345.6 
L 86.4 86.4 
" style="fill: none; stroke: #262626; stroke-width: 1.25; stroke-linejoin: miter; stroke-linecap: square"/>
   </g>
   <g id="patch_4">
    <path d="M 86.4 345.6 
L 345.6 345.6 
" style="fill: none; stroke: #262626; stroke-width: 1.25; stroke-linejoin: miter; stroke-linecap: square"/>
   </g>
   <g id="legend_1">
    <g id="patch_5">
     <path d="M 169.613438 137.206875 
L 335.8 137.206875 
Q 338.6 137.206875 338.6 134.406875 
L 338.6 96.2 
Q 338.6 93.4 335.8 93.4 
L 169.613438 93.4 
Q 166.813438 93.4 166.813438 96.2 
L 166.813438 134.406875 
Q 166.813438 137.206875 169.613438 137.206875 
z
" style="fill: #ffffff; opacity: 0.8; stroke: #cccccc; stroke-linejoin: miter"/>
    </g>
    <g id="line2d_36">
     <path d="M 172.413438 104.120937 
L 186.413438 104.120937 
L 200.413438 104.120937 
" style="fill: none; stroke: #4c72b0; stroke-width: 2; stroke-linecap: round"/>
    </g>
    <g id="text_20">
     <text style="fill: #262626; font: 14px 'Arial', 'DejaVu Sans', 'Liberation Sans', 'Bitstream Vera Sans', sans-serif; text-anchor: start" x="211.613438" y="109.020937" transform="rotate(-0 211.613438 109.020937)">Without vaccination</text>
    </g>
    <g id="line2d_37">
     <path d="M 172.413438 123.924375 
L 186.413438 123.924375 
L 200.413438 123.924375 
" style="fill: none; stroke: #dd8452; stroke-width: 2; stroke-linecap: round"/>
    </g>
    <g id="text_21">
     <text style="fill: #262626; font: 14px 'Arial', 'DejaVu Sans', 'Liberation Sans', 'Bitstream Vera Sans', sans-serif; text-anchor: start" x="211.613438" y="128.824375" transform="rotate(-0 211.613438 128.824375)">With vaccination</text>
    </g>
   </g>
  </g>
 </g>
 <defs>
  <clipPath id="pf03c098032">
   <rect x="86.4" y="86.4" width="259.2" height="259.2"/>
  </clipPath>
 </defs>
</svg>
