<?xml version="1.0" encoding="utf-8" standalone="no"?>
<!DOCTYPE svg PUBLIC "-//W3C//DTD SVG 1.1//EN"
  "http://www.w3.org/Graphics/SVG/1.1/DTD/svg11.dtd">
<svg xmlns:xlink="http://www.w3.org/1999/xlink" width="432pt" height="432pt" viewBox="0 0 432 432" xmlns="http://www.w3.org/2000/svg" version="1.1">
 <metadata>
  <rdf:RDF xmlns:dc="http://purl.org/dc/elements/1.1/" xmlns:cc="http://creativecommons.org/ns#" xmlns:rdf="http://www.w3.org/1999/02/22-rdf-syntax-ns#">
   <cc:Work>
    <dc:type rdf:resource="http://purl.org/dc/dcmitype/StillImage"/>
    <dc:date>2024-05-17T15:12:26.392455</dc:date>
    <dc:format>image/svg+xml</dc:format>
    <dc:creator>
     <cc:Agent>
      <dc:title>Matplotlib v3.8.4, https://matplotlib.org/</dc:title>
     </cc:Agent>
    </dc:creator>
   </cc:Work>
  </rdf:RDF>
 </metadata>
 <defs>
  <style type="text/css">*{stroke-linejoin: round; stroke-linecap: butt}</style>
 </defs>
 <g id="figure_1">
  <g id="patch_1">
   <path d="M 0 432 
L 432 432 
L 432 0 
L 0 0 
L 0 432 
z
" style="fill: none"/>
  </g>
  <g id="axes_1">
   <g id="patch_2">
    <path d="M 86.4 345.6 
L 345.6 345.6 
L 345.6 86.4 
L 86.4 86.4 
L 86.4 345.6 
z
" style="fill: none"/>
   </g>
   <g id="matplotlib.axis_1">
    <g id="xtick_1">
     <g id="line2d_1">
      <defs>
       <path id="meb107a8836" d="M 0 0 
L 0 6 
" style="stroke: #262626; stroke-width: 1.25"/>
      </defs>
      <g>
       <use xlink:href="#meb107a8836" x="86.4" y="345.6" style="fill: #262626; stroke: #262626; stroke-width: 1.25"/>
      </g>
     </g>
     <g id="text_1">
      <text style="fill: #262626; font: 16px 'Arial', 'DejaVu Sans', 'Liberation Sans', 'Bitstream Vera Sans', sans-serif; text-anchor: middle" x="86.4" y="366.5525" transform="rotate(-0 86.4 366.5525)">Jan</text>
     </g>
    </g>
    <g id="xtick_2">
     <g id="line2d_2">
      <g>
       <use xlink:href="#meb107a8836" x="97.2" y="345.6" style="fill: #262626; stroke: #262626; stroke-width: 1.25"/>
      </g>
     </g>
    </g>
    <g id="xtick_3">
     <g id="line2d_3">
      <g>
       <use xlink:href="#meb107a8836" x="108" y="345.6" style="fill: #262626; stroke: #262626; stroke-width: 1.25"/>
      </g>
     </g>
    </g>
    <g id="xtick_4">
     <g id="line2d_4">
      <g>
       <use xlink:href="#meb107a8836" x="118.8" y="345.6" style="fill: #262626; stroke: #262626; stroke-width: 1.25"/>
      </g>
     </g>
     <g id="text_2">
      <text style="fill: #262626; font: 16px 'Arial', 'DejaVu Sans', 'Liberation Sans', 'Bitstream Vera Sans', sans-serif; text-anchor: middle" x="118.8" y="366.5525" transform="rotate(-0 118.8 366.5525)">Apr</text>
     </g>
    </g>
    <g id="xtick_5">
     <g id="line2d_5">
      <g>
       <use xlink:href="#meb107a8836" x="129.6" y="345.6" style="fill: #262626; stroke: #262626; stroke-width: 1.25"/>
      </g>
     </g>
    </g>
    <g id="xtick_6">
     <g id="line2d_6">
      <g>
       <use xlink:href="#meb107a8836" x="140.4" y="345.6" style="fill: #262626; stroke: #262626; stroke-width: 1.25"/>
      </g>
     </g>
    </g>
    <g id="xtick_7">
     <g id="line2d_7">
      <g>
       <use xlink:href="#meb107a8836" x="151.2" y="345.6" style="fill: #262626; stroke: #262626; stroke-width: 1.25"/>
      </g>
     </g>
     <g id="text_3">
      <text style="fill: #262626; font: 16px 'Arial', 'DejaVu Sans', 'Liberation Sans', 'Bitstream Vera Sans', sans-serif; text-anchor: middle" x="151.2" y="366.5525" transform="rotate(-0 151.2 366.5525)">Jul</text>
     </g>
    </g>
    <g id="xtick_8">
     <g id="line2d_8">
      <g>
       <use xlink:href="#meb107a8836" x="162" y="345.6" style="fill: #262626; stroke: #262626; stroke-width: 1.25"/>
      </g>
     </g>
    </g>
    <g id="xtick_9">
     <g id="line2d_9">
      <g>
       <use xlink:href="#meb107a8836" x="172.8" y="345.6" style="fill: #262626; stroke: #262626; stroke-width: 1.25"/>
      </g>
     </g>
    </g>
    <g id="xtick_10">
     <g id="line2d_10">
      <g>
       <use xlink:href="#meb107a8836" x="183.6" y="345.6" style="fill: #262626; stroke: #262626; stroke-width: 1.25"/>
      </g>
     </g>
     <g id="text_4">
      <text style="fill: #262626; font: 16px 'Arial', 'DejaVu Sans', 'Liberation Sans', 'Bitstream Vera Sans', sans-serif; text-anchor: middle" x="183.6" y="366.5525" transform="rotate(-0 183.6 366.5525)">Oct</text>
     </g>
    </g>
    <g id="xtick_11">
     <g id="line2d_11">
      <g>
       <use xlink:href="#meb107a8836" x="194.4" y="345.6" style="fill: #262626; stroke: #262626; stroke-width: 1.25"/>
      </g>
     </g>
    </g>
    <g id="xtick_12">
     <g id="line2d_12">
      <g>
       <use xlink:href="#meb107a8836" x="205.2" y="345.6" style="fill: #262626; stroke: #262626; stroke-width: 1.25"/>
      </g>
     </g>
    </g>
    <g id="xtick_13">
     <g id="line2d_13">
      <g>
       <use xlink:href="#meb107a8836" x="216" y="345.6" style="fill: #262626; stroke: #262626; stroke-width: 1.25"/>
      </g>
     </g>
     <g id="text_5">
      <text style="fill: #262626; font: 16px 'Arial', 'DejaVu Sans', 'Liberation Sans', 'Bitstream Vera Sans', sans-serif; text-anchor: middle" x="216" y="366.5525" transform="rotate(-0 216 366.5525)">Jan</text>
     </g>
    </g>
    <g id="xtick_14">
     <g id="line2d_14">
      <g>
       <use xlink:href="#meb107a8836" x="216" y="345.6" style="fill: #262626; stroke: #262626; stroke-width: 1.25"/>
      </g>
     </g>
     <g id="text_6">
      <text style="fill: #262626; font: 16px 'Arial', 'DejaVu Sans', 'Liberation Sans', 'Bitstream Vera Sans', sans-serif; text-anchor: middle" x="216" y="366.5525" transform="rotate(-0 216 366.5525)">Jan</text>
     </g>
    </g>
    <g id="xtick_15">
     <g id="line2d_15">
      <g>
       <use xlink:href="#meb107a8836" x="226.8" y="345.6" style="fill: #262626; stroke: #262626; stroke-width: 1.25"/>
      </g>
     </g>
    </g>
    <g id="xtick_16">
     <g id="line2d_16">
      <g>
       <use xlink:href="#meb107a8836" x="237.6" y="345.6" style="fill: #262626; stroke: #262626; stroke-width: 1.25"/>
      </g>
     </g>
    </g>
    <g id="xtick_17">
     <g id="line2d_17">
      <g>
       <use xlink:href="#meb107a8836" x="248.4" y="345.6" style="fill: #262626; stroke: #262626; stroke-width: 1.25"/>
      </g>
     </g>
     <g id="text_7">
      <text style="fill: #262626; font: 16px 'Arial', 'DejaVu Sans', 'Liberation Sans', 'Bitstream Vera Sans', sans-serif; text-anchor: middle" x="248.4" y="366.5525" transform="rotate(-0 248.4 366.5525)">Apr</text>
     </g>
    </g>
    <g id="xtick_18">
     <g id="line2d_18">
      <g>
       <use xlink:href="#meb107a8836" x="259.2" y="345.6" style="fill: #262626; stroke: #262626; stroke-width: 1.25"/>
      </g>
     </g>
    </g>
    <g id="xtick_19">
     <g id="line2d_19">
      <g>
       <use xlink:href="#meb107a8836" x="270" y="345.6" style="fill: #262626; stroke: #262626; stroke-width: 1.25"/>
      </g>
     </g>
    </g>
    <g id="xtick_20">
     <g id="line2d_20">
      <g>
       <use xlink:href="#meb107a8836" x="280.8" y="345.6" style="fill: #262626; stroke: #262626; stroke-width: 1.25"/>
      </g>
     </g>
     <g id="text_8">
      <text style="fill: #262626; font: 16px 'Arial', 'DejaVu Sans', 'Liberation Sans', 'Bitstream Vera Sans', sans-serif; text-anchor: middle" x="280.8" y="366.5525" transform="rotate(-0 280.8 366.5525)">Jul</text>
     </g>
    </g>
    <g id="xtick_21">
     <g id="line2d_21">
      <g>
       <use xlink:href="#meb107a8836" x="291.6" y="345.6" style="fill: #262626; stroke: #262626; stroke-width: 1.25"/>
      </g>
     </g>
    </g>
    <g id="xtick_22">
     <g id="line2d_22">
      <g>
       <use xlink:href="#meb107a8836" x="302.4" y="345.6" style="fill: #262626; stroke: #262626; stroke-width: 1.25"/>
      </g>
     </g>
    </g>
    <g id="xtick_23">
     <g id="line2d_23">
      <g>
       <use xlink:href="#meb107a8836" x="313.2" y="345.6" style="fill: #262626; stroke: #262626; stroke-width: 1.25"/>
      </g>
     </g>
     <g id="text_9">
      <text style="fill: #262626; font: 16px 'Arial', 'DejaVu Sans', 'Liberation Sans', 'Bitstream Vera Sans', sans-serif; text-anchor: middle" x="313.2" y="366.5525" transform="rotate(-0 313.2 366.5525)">Oct</text>
     </g>
    </g>
    <g id="xtick_24">
     <g id="line2d_24">
      <g>
       <use xlink:href="#meb107a8836" x="324" y="345.6" style="fill: #262626; stroke: #262626; stroke-width: 1.25"/>
      </g>
     </g>
    </g>
    <g id="xtick_25">
     <g id="line2d_25">
      <g>
       <use xlink:href="#meb107a8836" x="334.8" y="345.6" style="fill: #262626; stroke: #262626; stroke-width: 1.25"/>
      </g>
     </g>
    </g>
    <g id="xtick_26">
     <g id="line2d_26">
      <g>
       <use xlink:href="#meb107a8836" x="345.6" y="345.6" style="fill: #262626; stroke: #262626; stroke-width: 1.25"/>
      </g>
     </g>
     <g id="text_10">
      <text style="fill: #262626; font: 16px 'Arial', 'DejaVu Sans', 'Liberation Sans', 'Bitstream Vera Sans', sans-serif; text-anchor: middle" x="345.6" y="366.5525" transform="rotate(-0 345.6 366.5525)">Jan</text>
     </g>
    </g>
    <g id="text_11">
     <text style="fill: #262626; font: 16px 'Arial', 'DejaVu Sans', 'Liberation Sans', 'Bitstream Vera Sans', sans-serif; text-anchor: middle" x="216" y="385.185" transform="rotate(-0 216 385.185)"> </text>
    </g>
   </g>
   <g id="matplotlib.axis_2">
    <g id="ytick_1">
     <g id="line2d_27">
      <defs>
       <path id="mbcbb166f06" d="M 0 0 
L -6 0 
" style="stroke: #262626; stroke-width: 1.25"/>
      </defs>
      <g>
       <use xlink:href="#mbcbb166f06" x="86.4" y="345.6" style="fill: #262626; stroke: #262626; stroke-width: 1.25"/>
      </g>
     </g>
     <g id="text_12">
      <text style="fill: #262626; font: 16px 'Arial', 'DejaVu Sans', 'Liberation Sans', 'Bitstream Vera Sans', sans-serif; text-anchor: end" x="76.9" y="351.32625" transform="rotate(-0 76.9 351.32625)">0.0</text>
     </g>
    </g>
    <g id="ytick_2">
     <g id="line2d_28">
      <g>
       <use xlink:href="#mbcbb166f06" x="86.4" y="302.4" style="fill: #262626; stroke: #262626; stroke-width: 1.25"/>
      </g>
     </g>
     <g id="text_13">
      <text style="fill: #262626; font: 16px 'Arial', 'DejaVu Sans', 'Liberation Sans', 'Bitstream Vera Sans', sans-serif; text-anchor: end" x="76.9" y="308.12625" transform="rotate(-0 76.9 308.12625)">0.1</text>
     </g>
    </g>
    <g id="ytick_3">
     <g id="line2d_29">
      <g>
       <use xlink:href="#mbcbb166f06" x="86.4" y="259.2" style="fill: #262626; stroke: #262626; stroke-width: 1.25"/>
      </g>
     </g>
     <g id="text_14">
      <text style="fill: #262626; font: 16px 'Arial', 'DejaVu Sans', 'Liberation Sans', 'Bitstream Vera Sans', sans-serif; text-anchor: end" x="76.9" y="264.92625" transform="rotate(-0 76.9 264.92625)">0.2</text>
     </g>
    </g>
    <g id="ytick_4">
     <g id="line2d_30">
      <g>
       <use xlink:href="#mbcbb166f06" x="86.4" y="216" style="fill: #262626; stroke: #262626; stroke-width: 1.25"/>
      </g>
     </g>
     <g id="text_15">
      <text style="fill: #262626; font: 16px 'Arial', 'DejaVu Sans', 'Liberation Sans', 'Bitstream Vera Sans', sans-serif; text-anchor: end" x="76.9" y="221.72625" transform="rotate(-0 76.9 221.72625)">0.3</text>
     </g>
    </g>
    <g id="ytick_5">
     <g id="line2d_31">
      <g>
       <use xlink:href="#mbcbb166f06" x="86.4" y="172.8" style="fill: #262626; stroke: #262626; stroke-width: 1.25"/>
      </g>
     </g>
     <g id="text_16">
      <text style="fill: #262626; font: 16px 'Arial', 'DejaVu Sans', 'Liberation Sans', 'Bitstream Vera Sans', sans-serif; text-anchor: end" x="76.9" y="178.52625" transform="rotate(-0 76.9 178.52625)">0.4</text>
     </g>
    </g>
    <g id="ytick_6">
     <g id="line2d_32">
      <g>
       <use xlink:href="#mbcbb166f06" x="86.4" y="129.6" style="fill: #262626; stroke: #262626; stroke-width: 1.25"/>
      </g>
     </g>
     <g id="text_17">
      <text style="fill: #262626; font: 16px 'Arial', 'DejaVu Sans', 'Liberation Sans', 'Bitstream Vera Sans', sans-serif; text-anchor: end" x="76.9" y="135.32625" transform="rotate(-0 76.9 135.32625)">0.5</text>
     </g>
    </g>
    <g id="ytick_7">
     <g id="line2d_33">
      <g>
       <use xlink:href="#mbcbb166f06" x="86.4" y="86.4" style="fill: #262626; stroke: #262626; stroke-width: 1.25"/>
      </g>
     </g>
     <g id="text_18">
      <text style="fill: #262626; font: 16px 'Arial', 'DejaVu Sans', 'Liberation Sans', 'Bitstream Vera Sans', sans-serif; text-anchor: end" x="76.9" y="92.12625" transform="rotate(-0 76.9 92.12625)">0.6</text>
     </g>
    </g>
    <g id="text_19">
     <text style="fill: #262626; font: 16px 'Arial', 'DejaVu Sans', 'Liberation Sans', 'Bitstream Vera Sans', sans-serif; text-anchor: middle" x="47.48" y="216" transform="rotate(-90 47.48 216)">Case outbreak risk</text>
    </g>
   </g>
   <g id="PolyCollection_1">
    <defs>
     <path id="m8f0fe76414" d="M 208.8 -86.4 
L 169.2 -86.4 
L 169.2 -345.6 
L 208.8 -345.6 
L 208.8 -345.6 
L 208.8 -86.4 
z
"/>
    </defs>
    <g clip-path="url(#p810e1d7d49)">
     <use xlink:href="#m8f0fe76414" x="0" y="432" style="fill: #808080; fill-opacity: 0.5"/>
    </g>
   </g>
   <g id="PolyCollection_2">
    <defs>
     <path id="mb4364f9005" d="M 338.4 -86.4 
L 298.8 -86.4 
L 298.8 -345.6 
L 338.4 -345.6 
L 338.4 -345.6 
L 338.4 -86.4 
z
"/>
    </defs>
    <g clip-path="url(#p810e1d7d49)">
     <use xlink:href="#mb4364f9005" x="0" y="432" style="fill: #808080; fill-opacity: 0.5"/>
    </g>
   </g>
   <g id="line2d_34">
    <path d="M 86.4 109.786148 
L 88.56 110.104069 
L 90.72 110.670232 
L 92.88 111.484298 
L 95.04 112.545432 
L 97.2 113.852161 
L 99.36 115.402184 
L 101.88 117.513481 
L 104.4 119.943565 
L 106.92 122.681416 
L 109.8 126.167489 
L 112.68 130.004259 
L 115.92 134.686503 
L 119.88 140.818468 
L 132.48 160.712489 
L 135 164.149567 
L 137.16 166.784393 
L 139.32 169.072782 
L 141.12 170.678658 
L 142.92 171.983983 
L 144.36 172.798067 
L 145.8 173.398811 
L 147.24 173.780633 
L 148.68 173.940391 
L 150.12 173.877412 
L 151.56 173.593465 
L 153 173.092677 
L 154.44 172.3814 
L 156.24 171.209279 
L 158.04 169.74191 
L 159.84 168.003431 
L 162 165.597729 
L 164.52 162.41512 
L 167.4 158.386231 
L 171 152.949464 
L 183.96 132.961582 
L 187.56 128.025368 
L 190.44 124.421962 
L 193.32 121.166362 
L 195.84 118.625178 
L 198.36 116.385903 
L 200.88 114.45922 
L 203.04 113.062665 
L 205.2 111.905399 
L 207.36 110.990268 
L 209.52 110.319411 
L 211.68 109.894409 
L 213.84 109.716401 
L 216 109.786148 
L 218.16 110.104069 
L 220.32 110.670232 
L 222.48 111.484298 
L 224.64 112.545432 
L 226.8 113.852161 
L 228.96 115.402184 
L 231.48 117.513481 
L 234 119.943565 
L 236.52 122.681416 
L 239.4 126.167489 
L 242.28 130.004259 
L 245.52 134.686503 
L 249.48 140.818468 
L 262.08 160.712489 
L 264.6 164.149567 
L 266.76 166.784393 
L 268.92 169.072782 
L 270.72 170.678658 
L 272.52 171.983983 
L 273.96 172.798067 
L 275.4 173.398811 
L 276.84 173.780633 
L 278.28 173.940391 
L 279.72 173.877412 
L 281.16 173.593465 
L 282.6 173.092677 
L 284.04 172.3814 
L 285.84 171.209279 
L 287.64 169.74191 
L 289.44 168.003431 
L 291.6 165.597729 
L 294.12 162.41512 
L 297 158.386231 
L 300.6 152.949464 
L 313.56 132.961582 
L 317.16 128.025368 
L 320.04 124.421962 
L 322.92 121.166362 
L 325.44 118.625178 
L 327.96 116.385903 
L 330.48 114.45922 
L 332.64 113.062665 
L 334.8 111.905399 
L 336.96 110.990268 
L 339.12 110.319411 
L 341.28 109.894409 
L 343.44 109.716401 
L 345.24 109.757296 
L 345.24 109.757296 
" clip-path="url(#p810e1d7d49)" style="fill: none; stroke: #4c72b0; stroke-width: 2; stroke-linecap: round"/>
   </g>
   <g id="line2d_35">
    <path d="M 86.4 169.657865 
L 88.56 168.060912 
L 90.72 166.776488 
L 92.52 165.944268 
L 94.32 165.327567 
L 96.12 164.924936 
L 97.92 164.734422 
L 99.72 164.753432 
L 101.52 164.978489 
L 103.32 165.405222 
L 105.12 166.028358 
L 107.28 167.025935 
L 109.44 168.282561 
L 111.6 169.780839 
L 114.12 171.805467 
L 117 174.432532 
L 120.24 177.694357 
L 127.08 185.019092 
L 130.68 188.670863 
L 133.2 190.949589 
L 135.36 192.637237 
L 137.16 193.812267 
L 138.96 194.744249 
L 140.76 195.406038 
L 142.2 195.725427 
L 143.64 195.847712 
L 145.08 195.765641 
L 146.52 195.474258 
L 147.96 194.971024 
L 149.4 194.255753 
L 150.84 193.330651 
L 152.64 191.886229 
L 154.44 190.134577 
L 156.24 188.094037 
L 158.4 185.296616 
L 160.92 181.614552 
L 163.8 176.986048 
L 167.76 170.555838 
L 168.84 169.140476 
L 169.56 168.44978 
L 170.28 168.100922 
L 178.92 166.295678 
L 182.16 165.791673 
L 185.04 165.571262 
L 187.56 165.610667 
L 189.72 165.848936 
L 191.88 166.299612 
L 194.04 166.9826 
L 196.2 167.915295 
L 198.36 169.111832 
L 200.52 170.578475 
L 203.04 172.60568 
L 207 175.908335 
L 208.08 176.438587 
L 208.8 176.508201 
L 209.16 176.411589 
L 209.52 176.192449 
L 210.6 175.010399 
L 213.12 172.27325 
L 215.28 170.259647 
L 217.44 168.558492 
L 219.6 167.169936 
L 221.4 166.251231 
L 223.2 165.548463 
L 225 165.06041 
L 226.8 164.785323 
L 228.6 164.720897 
L 230.4 164.864006 
L 232.2 165.210636 
L 234 165.755942 
L 236.16 166.663871 
L 238.32 167.835897 
L 240.48 169.255801 
L 243 171.198678 
L 245.88 173.748109 
L 249.12 176.947575 
L 253.8 181.928497 
L 259.2 187.614446 
L 262.08 190.328883 
L 264.24 192.105926 
L 266.4 193.59577 
L 268.2 194.578657 
L 270 195.29646 
L 271.44 195.663728 
L 272.88 195.836056 
L 274.32 195.805628 
L 275.76 195.566905 
L 277.2 195.116746 
L 278.64 194.454368 
L 280.08 193.581391 
L 281.88 192.200192 
L 283.68 190.508672 
L 285.48 188.52422 
L 287.64 185.787507 
L 290.16 182.164912 
L 293.04 177.5819 
L 297.72 170.047624 
L 298.8 168.761331 
L 299.52 168.226961 
L 300.6 167.949298 
L 312.48 165.71336 
L 315 165.56251 
L 317.52 165.636552 
L 319.68 165.90872 
L 321.84 166.396816 
L 324 167.120271 
L 326.16 168.09609 
L 328.32 169.337546 
L 330.48 170.848634 
L 333 172.916988 
L 336.24 175.661029 
L 337.32 176.306302 
L 338.04 176.51079 
L 338.76 176.411589 
L 339.12 176.192449 
L 340.2 175.010399 
L 342.72 172.27325 
L 344.88 170.259647 
L 345.24 169.954417 
L 345.24 169.954417 
" clip-path="url(#p810e1d7d49)" style="fill: none; stroke: #dd8452; stroke-width: 2; stroke-linecap: round"/>
   </g>
   <g id="patch_3">
    <path d="M 86.4 345.6 
L 86.4 86.4 
" style="fill: none; stroke: #262626; stroke-width: 1.25; stroke-linejoin: miter; stroke-linecap: square"/>
   </g>
   <g id="patch_4">
    <path d="M 86.4 345.6 
L 345.6 345.6 
" style="fill: none; stroke: #262626; stroke-width: 1.25; stroke-linejoin: miter; stroke-linecap: square"/>
   </g>
   <g id="legend_1">
    <g id="patch_5">
     <path d="M 96.2 338.6 
L 262.386563 338.6 
Q 265.186563 338.6 265.186563 335.8 
L 265.186563 297.593125 
Q 265.186563 294.793125 262.386563 294.793125 
L 96.2 294.793125 
Q 93.4 294.793125 93.4 297.593125 
L 93.4 335.8 
Q 93.4 338.6 96.2 338.6 
z
" style="fill: #ffffff; opacity: 0.8; stroke: #cccccc; stroke-linejoin: miter"/>
    </g>
    <g id="line2d_36">
     <path d="M 99 305.514063 
L 113 305.514063 
L 127 305.514063 
" style="fill: none; stroke: #4c72b0; stroke-width: 2; stroke-linecap: round"/>
    </g>
    <g id="text_20">
     <text style="fill: #262626; font: 14px 'Arial', 'DejaVu Sans', 'Liberation Sans', 'Bitstream Vera Sans', sans-serif; text-anchor: start" x="138.2" y="310.414062" transform="rotate(-0 138.2 310.414062)">Without vaccination</text>
    </g>
    <g id="line2d_37">
     <path d="M 99 325.3175 
L 113 325.3175 
L 127 325.3175 
" style="fill: none; stroke: #dd8452; stroke-width: 2; stroke-linecap: round"/>
    </g>
    <g id="text_21">
     <text style="fill: #262626; font: 14px 'Arial', 'DejaVu Sans', 'Liberation Sans', 'Bitstream Vera Sans', sans-serif; text-anchor: start" x="138.2" y="330.2175" transform="rotate(-0 138.2 330.2175)">With vaccination</text>
    </g>
   </g>
  </g>
 </g>
 <defs>
  <clipPath id="p810e1d7d49">
   <rect x="86.4" y="86.4" width="259.2" height="259.2"/>
  </clipPath>
 </defs>
</svg>
