<?xml version="1.0" encoding="utf-8" standalone="no"?>
<!DOCTYPE svg PUBLIC "-//W3C//DTD SVG 1.1//EN"
  "http://www.w3.org/Graphics/SVG/1.1/DTD/svg11.dtd">
<svg xmlns:xlink="http://www.w3.org/1999/xlink" width="432pt" height="432pt" viewBox="0 0 432 432" xmlns="http://www.w3.org/2000/svg" version="1.1">
 <metadata>
  <rdf:RDF xmlns:dc="http://purl.org/dc/elements/1.1/" xmlns:cc="http://creativecommons.org/ns#" xmlns:rdf="http://www.w3.org/1999/02/22-rdf-syntax-ns#">
   <cc:Work>
    <dc:type rdf:resource="http://purl.org/dc/dcmitype/StillImage"/>
    <dc:date>2025-03-12T08:25:59.015686</dc:date>
    <dc:format>image/svg+xml</dc:format>
    <dc:creator>
     <cc:Agent>
      <dc:title>Matplotlib v3.10.1, https://matplotlib.org/</dc:title>
     </cc:Agent>
    </dc:creator>
   </cc:Work>
  </rdf:RDF>
 </metadata>
 <defs>
  <style type="text/css">*{stroke-linejoin: round; stroke-linecap: butt}</style>
 </defs>
 <g id="figure_1">
  <g id="patch_1">
   <path d="M 0 432 
L 432 432 
L 432 0 
L 0 0 
L 0 432 
z
" style="fill: none"/>
  </g>
  <g id="axes_1">
   <g id="patch_2">
    <path d="M 86.4 345.6 
L 345.6 345.6 
L 345.6 86.4 
L 86.4 86.4 
L 86.4 345.6 
z
" style="fill: none"/>
   </g>
   <g id="matplotlib.axis_1">
    <g id="xtick_1">
     <g id="line2d_1">
      <defs>
       <path id="m97a37bd6c4" d="M 0 0 
L 0 6 
" style="stroke: #262626; stroke-width: 1.25"/>
      </defs>
      <g>
       <use xlink:href="#m97a37bd6c4" x="86.4" y="345.6" style="fill: #262626; stroke: #262626; stroke-width: 1.25"/>
      </g>
     </g>
     <g id="text_1">
      <text style="font-size: 16px; font-family: 'Arial', 'DejaVu Sans', 'Liberation Sans', 'Bitstream Vera Sans', sans-serif; text-anchor: middle; fill: #262626" x="86.4" y="366.5525" transform="rotate(-0 86.4 366.5525)">Jan</text>
     </g>
    </g>
    <g id="xtick_2">
     <g id="line2d_2">
      <g>
       <use xlink:href="#m97a37bd6c4" x="97.407123" y="345.6" style="fill: #262626; stroke: #262626; stroke-width: 1.25"/>
      </g>
     </g>
    </g>
    <g id="xtick_3">
     <g id="line2d_3">
      <g>
       <use xlink:href="#m97a37bd6c4" x="107.349041" y="345.6" style="fill: #262626; stroke: #262626; stroke-width: 1.25"/>
      </g>
     </g>
    </g>
    <g id="xtick_4">
     <g id="line2d_4">
      <g>
       <use xlink:href="#m97a37bd6c4" x="118.356164" y="345.6" style="fill: #262626; stroke: #262626; stroke-width: 1.25"/>
      </g>
     </g>
     <g id="text_2">
      <text style="font-size: 16px; font-family: 'Arial', 'DejaVu Sans', 'Liberation Sans', 'Bitstream Vera Sans', sans-serif; text-anchor: middle; fill: #262626" x="118.356164" y="366.5525" transform="rotate(-0 118.356164 366.5525)">Apr</text>
     </g>
    </g>
    <g id="xtick_5">
     <g id="line2d_5">
      <g>
       <use xlink:href="#m97a37bd6c4" x="129.008219" y="345.6" style="fill: #262626; stroke: #262626; stroke-width: 1.25"/>
      </g>
     </g>
    </g>
    <g id="xtick_6">
     <g id="line2d_6">
      <g>
       <use xlink:href="#m97a37bd6c4" x="140.015342" y="345.6" style="fill: #262626; stroke: #262626; stroke-width: 1.25"/>
      </g>
     </g>
    </g>
    <g id="xtick_7">
     <g id="line2d_7">
      <g>
       <use xlink:href="#m97a37bd6c4" x="150.667397" y="345.6" style="fill: #262626; stroke: #262626; stroke-width: 1.25"/>
      </g>
     </g>
     <g id="text_3">
      <text style="font-size: 16px; font-family: 'Arial', 'DejaVu Sans', 'Liberation Sans', 'Bitstream Vera Sans', sans-serif; text-anchor: middle; fill: #262626" x="150.667397" y="366.5525" transform="rotate(-0 150.667397 366.5525)">Jul</text>
     </g>
    </g>
    <g id="xtick_8">
     <g id="line2d_8">
      <g>
       <use xlink:href="#m97a37bd6c4" x="161.674521" y="345.6" style="fill: #262626; stroke: #262626; stroke-width: 1.25"/>
      </g>
     </g>
    </g>
    <g id="xtick_9">
     <g id="line2d_9">
      <g>
       <use xlink:href="#m97a37bd6c4" x="172.681644" y="345.6" style="fill: #262626; stroke: #262626; stroke-width: 1.25"/>
      </g>
     </g>
    </g>
    <g id="xtick_10">
     <g id="line2d_10">
      <g>
       <use xlink:href="#m97a37bd6c4" x="183.333699" y="345.6" style="fill: #262626; stroke: #262626; stroke-width: 1.25"/>
      </g>
     </g>
     <g id="text_4">
      <text style="font-size: 16px; font-family: 'Arial', 'DejaVu Sans', 'Liberation Sans', 'Bitstream Vera Sans', sans-serif; text-anchor: middle; fill: #262626" x="183.333699" y="366.5525" transform="rotate(-0 183.333699 366.5525)">Oct</text>
     </g>
    </g>
    <g id="xtick_11">
     <g id="line2d_11">
      <g>
       <use xlink:href="#m97a37bd6c4" x="194.340822" y="345.6" style="fill: #262626; stroke: #262626; stroke-width: 1.25"/>
      </g>
     </g>
    </g>
    <g id="xtick_12">
     <g id="line2d_12">
      <g>
       <use xlink:href="#m97a37bd6c4" x="204.992877" y="345.6" style="fill: #262626; stroke: #262626; stroke-width: 1.25"/>
      </g>
     </g>
    </g>
    <g id="xtick_13">
     <g id="line2d_13">
      <g>
       <use xlink:href="#m97a37bd6c4" x="216" y="345.6" style="fill: #262626; stroke: #262626; stroke-width: 1.25"/>
      </g>
     </g>
     <g id="text_5">
      <text style="font-size: 16px; font-family: 'Arial', 'DejaVu Sans', 'Liberation Sans', 'Bitstream Vera Sans', sans-serif; text-anchor: middle; fill: #262626" x="216" y="366.5525" transform="rotate(-0 216 366.5525)">Jan</text>
     </g>
    </g>
    <g id="xtick_14">
     <g id="line2d_14">
      <g>
       <use xlink:href="#m97a37bd6c4" x="227.007123" y="345.6" style="fill: #262626; stroke: #262626; stroke-width: 1.25"/>
      </g>
     </g>
    </g>
    <g id="xtick_15">
     <g id="line2d_15">
      <g>
       <use xlink:href="#m97a37bd6c4" x="236.949041" y="345.6" style="fill: #262626; stroke: #262626; stroke-width: 1.25"/>
      </g>
     </g>
    </g>
    <g id="xtick_16">
     <g id="line2d_16">
      <g>
       <use xlink:href="#m97a37bd6c4" x="247.956164" y="345.6" style="fill: #262626; stroke: #262626; stroke-width: 1.25"/>
      </g>
     </g>
     <g id="text_6">
      <text style="font-size: 16px; font-family: 'Arial', 'DejaVu Sans', 'Liberation Sans', 'Bitstream Vera Sans', sans-serif; text-anchor: middle; fill: #262626" x="247.956164" y="366.5525" transform="rotate(-0 247.956164 366.5525)">Apr</text>
     </g>
    </g>
    <g id="xtick_17">
     <g id="line2d_17">
      <g>
       <use xlink:href="#m97a37bd6c4" x="258.608219" y="345.6" style="fill: #262626; stroke: #262626; stroke-width: 1.25"/>
      </g>
     </g>
    </g>
    <g id="xtick_18">
     <g id="line2d_18">
      <g>
       <use xlink:href="#m97a37bd6c4" x="269.615342" y="345.6" style="fill: #262626; stroke: #262626; stroke-width: 1.25"/>
      </g>
     </g>
    </g>
    <g id="xtick_19">
     <g id="line2d_19">
      <g>
       <use xlink:href="#m97a37bd6c4" x="280.267397" y="345.6" style="fill: #262626; stroke: #262626; stroke-width: 1.25"/>
      </g>
     </g>
     <g id="text_7">
      <text style="font-size: 16px; font-family: 'Arial', 'DejaVu Sans', 'Liberation Sans', 'Bitstream Vera Sans', sans-serif; text-anchor: middle; fill: #262626" x="280.267397" y="366.5525" transform="rotate(-0 280.267397 366.5525)">Jul</text>
     </g>
    </g>
    <g id="xtick_20">
     <g id="line2d_20">
      <g>
       <use xlink:href="#m97a37bd6c4" x="291.274521" y="345.6" style="fill: #262626; stroke: #262626; stroke-width: 1.25"/>
      </g>
     </g>
    </g>
    <g id="xtick_21">
     <g id="line2d_21">
      <g>
       <use xlink:href="#m97a37bd6c4" x="302.281644" y="345.6" style="fill: #262626; stroke: #262626; stroke-width: 1.25"/>
      </g>
     </g>
    </g>
    <g id="xtick_22">
     <g id="line2d_22">
      <g>
       <use xlink:href="#m97a37bd6c4" x="312.933699" y="345.6" style="fill: #262626; stroke: #262626; stroke-width: 1.25"/>
      </g>
     </g>
     <g id="text_8">
      <text style="font-size: 16px; font-family: 'Arial', 'DejaVu Sans', 'Liberation Sans', 'Bitstream Vera Sans', sans-serif; text-anchor: middle; fill: #262626" x="312.933699" y="366.5525" transform="rotate(-0 312.933699 366.5525)">Oct</text>
     </g>
    </g>
    <g id="xtick_23">
     <g id="line2d_23">
      <g>
       <use xlink:href="#m97a37bd6c4" x="323.940822" y="345.6" style="fill: #262626; stroke: #262626; stroke-width: 1.25"/>
      </g>
     </g>
    </g>
    <g id="xtick_24">
     <g id="line2d_24">
      <g>
       <use xlink:href="#m97a37bd6c4" x="334.592877" y="345.6" style="fill: #262626; stroke: #262626; stroke-width: 1.25"/>
      </g>
     </g>
    </g>
    <g id="xtick_25">
     <g id="line2d_25">
      <g>
       <use xlink:href="#m97a37bd6c4" x="345.6" y="345.6" style="fill: #262626; stroke: #262626; stroke-width: 1.25"/>
      </g>
     </g>
     <g id="text_9">
      <text style="font-size: 16px; font-family: 'Arial', 'DejaVu Sans', 'Liberation Sans', 'Bitstream Vera Sans', sans-serif; text-anchor: middle; fill: #262626" x="345.6" y="366.5525" transform="rotate(-0 345.6 366.5525)">Jan</text>
     </g>
    </g>
    <g id="text_10">
     <text style="font-size: 16px; font-family: 'Arial', 'DejaVu Sans', 'Liberation Sans', 'Bitstream Vera Sans', sans-serif; text-anchor: middle; fill: #262626" x="216" y="385.185" transform="rotate(-0 216 385.185)"> </text>
    </g>
   </g>
   <g id="matplotlib.axis_2">
    <g id="ytick_1">
     <g id="line2d_26">
      <defs>
       <path id="mf06d92da8b" d="M 0 0 
L -6 0 
" style="stroke: #262626; stroke-width: 1.25"/>
      </defs>
      <g>
       <use xlink:href="#mf06d92da8b" x="86.4" y="345.6" style="fill: #262626; stroke: #262626; stroke-width: 1.25"/>
      </g>
     </g>
     <g id="text_11">
      <text style="font-size: 16px; font-family: 'Arial', 'DejaVu Sans', 'Liberation Sans', 'Bitstream Vera Sans', sans-serif; text-anchor: end; fill: #262626" x="76.9" y="351.32625" transform="rotate(-0 76.9 351.32625)">0.0</text>
     </g>
    </g>
    <g id="ytick_2">
     <g id="line2d_27">
      <g>
       <use xlink:href="#mf06d92da8b" x="86.4" y="302.4" style="fill: #262626; stroke: #262626; stroke-width: 1.25"/>
      </g>
     </g>
     <g id="text_12">
      <text style="font-size: 16px; font-family: 'Arial', 'DejaVu Sans', 'Liberation Sans', 'Bitstream Vera Sans', sans-serif; text-anchor: end; fill: #262626" x="76.9" y="308.12625" transform="rotate(-0 76.9 308.12625)">0.1</text>
     </g>
    </g>
    <g id="ytick_3">
     <g id="line2d_28">
      <g>
       <use xlink:href="#mf06d92da8b" x="86.4" y="259.2" style="fill: #262626; stroke: #262626; stroke-width: 1.25"/>
      </g>
     </g>
     <g id="text_13">
      <text style="font-size: 16px; font-family: 'Arial', 'DejaVu Sans', 'Liberation Sans', 'Bitstream Vera Sans', sans-serif; text-anchor: end; fill: #262626" x="76.9" y="264.92625" transform="rotate(-0 76.9 264.92625)">0.2</text>
     </g>
    </g>
    <g id="ytick_4">
     <g id="line2d_29">
      <g>
       <use xlink:href="#mf06d92da8b" x="86.4" y="216" style="fill: #262626; stroke: #262626; stroke-width: 1.25"/>
      </g>
     </g>
     <g id="text_14">
      <text style="font-size: 16px; font-family: 'Arial', 'DejaVu Sans', 'Liberation Sans', 'Bitstream Vera Sans', sans-serif; text-anchor: end; fill: #262626" x="76.9" y="221.72625" transform="rotate(-0 76.9 221.72625)">0.3</text>
     </g>
    </g>
    <g id="ytick_5">
     <g id="line2d_30">
      <g>
       <use xlink:href="#mf06d92da8b" x="86.4" y="172.8" style="fill: #262626; stroke: #262626; stroke-width: 1.25"/>
      </g>
     </g>
     <g id="text_15">
      <text style="font-size: 16px; font-family: 'Arial', 'DejaVu Sans', 'Liberation Sans', 'Bitstream Vera Sans', sans-serif; text-anchor: end; fill: #262626" x="76.9" y="178.52625" transform="rotate(-0 76.9 178.52625)">0.4</text>
     </g>
    </g>
    <g id="ytick_6">
     <g id="line2d_31">
      <g>
       <use xlink:href="#mf06d92da8b" x="86.4" y="129.6" style="fill: #262626; stroke: #262626; stroke-width: 1.25"/>
      </g>
     </g>
     <g id="text_16">
      <text style="font-size: 16px; font-family: 'Arial', 'DejaVu Sans', 'Liberation Sans', 'Bitstream Vera Sans', sans-serif; text-anchor: end; fill: #262626" x="76.9" y="135.32625" transform="rotate(-0 76.9 135.32625)">0.5</text>
     </g>
    </g>
    <g id="ytick_7">
     <g id="line2d_32">
      <g>
       <use xlink:href="#mf06d92da8b" x="86.4" y="86.4" style="fill: #262626; stroke: #262626; stroke-width: 1.25"/>
      </g>
     </g>
     <g id="text_17">
      <text style="font-size: 16px; font-family: 'Arial', 'DejaVu Sans', 'Liberation Sans', 'Bitstream Vera Sans', sans-serif; text-anchor: end; fill: #262626" x="76.9" y="92.12625" transform="rotate(-0 76.9 92.12625)">0.6</text>
     </g>
    </g>
    <g id="text_18">
     <text style="font-size: 16px; font-family: 'Arial', 'DejaVu Sans', 'Liberation Sans', 'Bitstream Vera Sans', sans-serif; text-anchor: middle; fill: #262626" x="47.48" y="216" transform="rotate(-90 47.48 216)">Outbreak risk</text>
    </g>
   </g>
   <g id="FillBetweenPolyCollection_1">
    <defs>
     <path id="m56dddf0b3a" d="M 210.318904 -86.4 
L 183.333699 -86.4 
L 183.333699 -345.6 
L 210.318904 -345.6 
L 210.318904 -345.6 
L 210.318904 -86.4 
z
"/>
    </defs>
    <g clip-path="url(#p546a9efdd3)">
     <use xlink:href="#m56dddf0b3a" x="0" y="432" style="fill: #808080; fill-opacity: 0.5"/>
    </g>
   </g>
   <g id="FillBetweenPolyCollection_2">
    <defs>
     <path id="me4538c4c79" d="M 339.918904 -86.4 
L 312.933699 -86.4 
L 312.933699 -345.6 
L 339.918904 -345.6 
L 339.918904 -345.6 
L 339.918904 -86.4 
z
"/>
    </defs>
    <g clip-path="url(#p546a9efdd3)">
     <use xlink:href="#me4538c4c79" x="0" y="432" style="fill: #808080; fill-opacity: 0.5"/>
    </g>
   </g>
   <g id="line2d_33">
    <path d="M 86.4 211.21686 
L 88.885479 211.490666 
L 91.370959 211.988541 
L 93.856438 212.708869 
L 96.341918 213.648904 
L 98.827397 214.80459 
L 101.667945 216.382155 
L 104.508493 218.222617 
L 107.70411 220.588196 
L 110.899726 223.238081 
L 114.450411 226.468962 
L 118.711233 230.648752 
L 131.493699 243.442249 
L 134.689315 246.184151 
L 137.174795 248.045257 
L 139.660274 249.616003 
L 141.790685 250.699444 
L 143.921096 251.517491 
L 145.696438 251.984894 
L 147.471781 252.25101 
L 149.247123 252.313008 
L 151.022466 252.17116 
L 152.797808 251.828757 
L 154.928219 251.161984 
L 157.05863 250.230928 
L 159.189041 249.055762 
L 161.674521 247.408323 
L 164.515068 245.213806 
L 167.710685 242.430151 
L 171.616438 238.717105 
L 186.174247 224.560036 
L 189.724932 221.550755 
L 192.920548 219.111075 
L 196.116164 216.960241 
L 198.956712 215.311649 
L 201.79726 213.925361 
L 204.637808 212.812032 
L 207.123288 212.068128 
L 209.608767 211.543321 
L 212.094247 211.240433 
L 214.579726 211.161273 
L 217.065205 211.306708 
L 219.550685 211.676674 
L 222.036164 212.270146 
L 224.521644 213.085042 
L 227.007123 214.118081 
L 229.847671 215.559717 
L 232.688219 217.270378 
L 235.528767 219.236838 
L 238.724384 221.732862 
L 242.275068 224.819441 
L 246.180822 228.525432 
L 251.506849 233.912846 
L 258.963288 241.445988 
L 262.513973 244.703397 
L 265.354521 247.014361 
L 267.84 248.756589 
L 269.970411 250.005428 
L 272.100822 251.002515 
L 274.231233 251.728297 
L 276.006575 252.115723 
L 277.781918 252.300357 
L 279.55726 252.280612 
L 281.332603 252.057982 
L 283.107945 251.636927 
L 285.238356 250.880088 
L 287.368767 249.865215 
L 289.499178 248.613841 
L 291.984658 246.888498 
L 294.825205 244.6208 
L 298.020822 241.775943 
L 302.281644 237.66694 
L 314.353973 225.839757 
L 318.259726 222.422727 
L 321.810411 219.629297 
L 325.006027 217.411832 
L 327.846575 215.699687 
L 330.687123 214.24671 
L 333.527671 213.064296 
L 336.013151 212.258466 
L 338.49863 211.670725 
L 340.98411 211.304204 
L 343.469589 211.160993 
L 345.244932 211.196083 
L 345.244932 211.196083 
" clip-path="url(#p546a9efdd3)" style="fill: none; stroke-dasharray: 7.4,3.2; stroke-dashoffset: 0; stroke: #de8f05; stroke-opacity: 0.75; stroke-width: 2"/>
   </g>
   <g id="line2d_34">
    <path d="M 86.4 266.541771 
L 88.885479 264.991866 
L 91.370959 263.681092 
L 93.856438 262.613117 
L 96.341918 261.790064 
L 98.827397 261.212291 
L 101.312877 260.87791 
L 103.798356 260.782222 
L 106.283836 260.917473 
L 108.769315 261.272267 
L 111.609863 261.926333 
L 114.450411 262.816012 
L 117.646027 264.049111 
L 121.906849 265.955786 
L 130.428493 269.846812 
L 133.62411 271.00423 
L 136.109589 271.677273 
L 138.24 272.056309 
L 140.370411 272.225311 
L 142.500822 272.162974 
L 144.631233 271.853123 
L 146.761644 271.285325 
L 148.892055 270.45505 
L 151.022466 269.36365 
L 153.152877 268.018232 
L 155.283288 266.431157 
L 157.768767 264.29722 
L 160.609315 261.528372 
L 163.804932 258.064664 
L 167.710685 253.463485 
L 174.101918 245.509068 
L 179.072877 239.45077 
L 181.203288 237.185865 
L 182.268493 236.304325 
L 182.97863 235.904592 
L 183.688767 235.750198 
L 184.398904 235.975082 
L 186.174247 237.197874 
L 188.659726 239.200536 
L 190.790137 241.180851 
L 192.920548 243.432106 
L 195.050959 245.981126 
L 197.18137 248.854598 
L 199.311781 252.075668 
L 201.79726 256.282116 
L 204.637808 261.578786 
L 207.478356 266.846679 
L 208.543562 268.507681 
L 209.608767 269.743431 
L 210.318904 270.194975 
L 210.673973 270.266448 
L 211.029041 270.20364 
L 211.739178 269.725768 
L 215.289863 267.027884 
L 218.130411 265.198734 
L 220.61589 263.853553 
L 223.10137 262.750724 
L 225.586849 261.892612 
L 228.072329 261.279855 
L 230.557808 260.910916 
L 233.043288 260.781536 
L 235.528767 260.884401 
L 238.014247 261.208694 
L 240.499726 261.739393 
L 243.340274 262.573512 
L 246.53589 263.757003 
L 250.441644 265.460168 
L 260.73863 270.127586 
L 263.579178 271.113998 
L 266.064658 271.75399 
L 268.195068 272.099698 
L 270.325479 272.231489 
L 272.45589 272.128871 
L 274.586301 271.7766 
L 276.716712 271.165213 
L 278.847123 270.291162 
L 280.977534 269.156781 
L 283.107945 267.770093 
L 285.593425 265.851265 
L 288.078904 263.636033 
L 290.919452 260.787642 
L 294.115068 257.253745 
L 298.020822 252.596327 
L 310.093151 237.889337 
L 311.513425 236.568157 
L 312.57863 235.904592 
L 313.288767 235.750198 
L 313.998904 235.975082 
L 315.774247 237.197874 
L 318.259726 239.200536 
L 320.390137 241.180851 
L 322.520548 243.432106 
L 324.650959 245.981126 
L 326.78137 248.854598 
L 328.911781 252.075668 
L 331.39726 256.282116 
L 334.237808 261.578786 
L 337.078356 266.846679 
L 338.143562 268.507681 
L 339.208767 269.743431 
L 339.918904 270.194975 
L 340.273973 270.266448 
L 340.629041 270.20364 
L 341.339178 269.725768 
L 344.889863 267.027884 
L 345.244932 266.78245 
L 345.244932 266.78245 
" clip-path="url(#p546a9efdd3)" style="fill: none; stroke: #de8f05; stroke-width: 2; stroke-linecap: round"/>
   </g>
   <g id="line2d_35">
    <path d="M 86.4 151.503106 
L 88.530411 151.785782 
L 90.660822 152.284647 
L 92.791233 152.99902 
L 94.921644 153.927635 
L 97.407123 155.279144 
L 99.892603 156.915001 
L 102.378082 158.828696 
L 104.863562 161.01128 
L 107.70411 163.819383 
L 110.544658 166.938999 
L 113.740274 170.780998 
L 117.646027 175.868679 
L 122.972055 183.241375 
L 129.718356 192.543467 
L 132.913973 196.583898 
L 135.399452 199.422395 
L 137.884932 201.913982 
L 140.015342 203.721768 
L 141.790685 204.96818 
L 143.566027 205.958743 
L 145.34137 206.679281 
L 147.116712 207.119884 
L 148.536986 207.267036 
L 149.95726 207.230856 
L 151.377534 207.012578 
L 153.152877 206.488456 
L 154.928219 205.69437 
L 156.703562 204.64379 
L 158.478904 203.353499 
L 160.609315 201.516419 
L 163.094795 199.023277 
L 165.935342 195.792796 
L 169.130959 191.793856 
L 173.746849 185.615223 
L 182.268493 174.139915 
L 186.174247 169.282014 
L 189.369863 165.632743 
L 192.565479 162.334168 
L 195.406027 159.729719 
L 197.891507 157.721968 
L 200.376986 155.979248 
L 202.862466 154.510355 
L 205.347945 153.322031 
L 207.478356 152.530662 
L 209.608767 151.951569 
L 211.739178 151.58653 
L 213.869589 151.436788 
L 216 151.503106 
L 218.130411 151.785782 
L 220.260822 152.284647 
L 222.391233 152.99902 
L 224.521644 153.927635 
L 227.007123 155.279144 
L 229.492603 156.915001 
L 231.978082 158.828696 
L 234.463562 161.01128 
L 237.30411 163.819383 
L 240.144658 166.938999 
L 243.340274 170.780998 
L 247.246027 175.868679 
L 252.572055 183.241375 
L 259.318356 192.543467 
L 262.513973 196.583898 
L 264.999452 199.422395 
L 267.484932 201.913982 
L 269.615342 203.721768 
L 271.390685 204.96818 
L 273.166027 205.958743 
L 274.94137 206.679281 
L 276.716712 207.119884 
L 278.136986 207.267036 
L 279.55726 207.230856 
L 280.977534 207.012578 
L 282.752877 206.488456 
L 284.528219 205.69437 
L 286.303562 204.64379 
L 288.078904 203.353499 
L 290.209315 201.516419 
L 292.694795 199.023277 
L 295.535342 195.792796 
L 298.730959 191.793856 
L 303.346849 185.615223 
L 311.868493 174.139915 
L 315.774247 169.282014 
L 318.969863 165.632743 
L 322.165479 162.334168 
L 325.006027 159.729719 
L 327.491507 157.721968 
L 329.976986 155.979248 
L 332.462466 154.510355 
L 334.947945 153.322031 
L 337.078356 152.530662 
L 339.208767 151.951569 
L 341.339178 151.58653 
L 343.469589 151.436788 
L 345.244932 151.47703 
L 345.244932 151.47703 
" clip-path="url(#p546a9efdd3)" style="fill: none; stroke-dasharray: 7.4,3.2; stroke-dashoffset: 0; stroke: #0173b2; stroke-opacity: 0.75; stroke-width: 2"/>
   </g>
   <g id="line2d_36">
    <path d="M 86.4 227.441576 
L 88.885479 225.220695 
L 91.01589 223.591233 
L 93.146301 222.217276 
L 95.276712 221.100076 
L 97.407123 220.239862 
L 99.537534 219.635404 
L 101.667945 219.283868 
L 103.798356 219.180274 
L 105.928767 219.317573 
L 108.059178 219.686078 
L 110.189589 220.27298 
L 112.675068 221.212316 
L 115.160548 222.395386 
L 118.001096 223.995245 
L 121.551781 226.260588 
L 130.428493 232.077803 
L 132.913973 233.414861 
L 135.044384 234.34984 
L 137.174795 235.0424 
L 138.950137 235.404887 
L 140.725479 235.550336 
L 142.500822 235.461796 
L 144.276164 235.126039 
L 146.051507 234.53405 
L 147.826849 233.681103 
L 149.602192 232.566727 
L 151.377534 231.194766 
L 153.152877 229.57312 
L 155.283288 227.314143 
L 157.413699 224.738964 
L 159.899178 221.378373 
L 162.739726 217.140863 
L 166.290411 211.391559 
L 171.26137 202.851504 
L 178.36274 190.650948 
L 180.493151 187.334863 
L 181.913425 185.482023 
L 182.623562 184.786237 
L 183.333699 184.359912 
L 183.688767 184.293365 
L 184.043836 184.364443 
L 184.753973 184.887418 
L 186.529315 186.612723 
L 188.659726 188.980581 
L 190.790137 191.690465 
L 192.920548 194.781486 
L 195.050959 198.294717 
L 197.18137 202.27256 
L 199.311781 206.754897 
L 201.442192 211.764722 
L 203.927671 218.222908 
L 207.833425 228.591698 
L 208.89863 230.853759 
L 209.608767 231.986007 
L 210.318904 232.665645 
L 210.673973 232.780345 
L 211.029041 232.697792 
L 211.739178 232.014027 
L 214.934795 228.497717 
L 217.420274 226.130549 
L 219.550685 224.374126 
L 221.681096 222.872216 
L 223.811507 221.626547 
L 225.941918 220.637891 
L 228.072329 219.905793 
L 230.20274 219.428276 
L 232.333151 219.201468 
L 234.463562 219.219345 
L 236.593973 219.473651 
L 238.724384 219.953139 
L 240.854795 220.643517 
L 243.340274 221.691633 
L 246.180822 223.166084 
L 249.376438 225.099631 
L 254.347397 228.420996 
L 258.963288 231.441191 
L 261.803836 233.057007 
L 264.289315 234.209674 
L 266.419726 234.945606 
L 268.195068 235.349145 
L 269.970411 235.539475 
L 271.745753 235.498924 
L 273.521096 235.213462 
L 275.296438 234.673236 
L 277.071781 233.872655 
L 278.847123 232.81039 
L 280.622466 231.489443 
L 282.397808 229.916916 
L 284.528219 227.71339 
L 286.65863 225.188811 
L 289.14411 221.87994 
L 291.984658 217.690657 
L 295.180274 212.573225 
L 299.796164 204.707177 
L 308.317808 190.073865 
L 310.448219 186.831817 
L 311.513425 185.482023 
L 312.223562 184.786237 
L 312.933699 184.359912 
L 313.288767 184.293365 
L 313.643836 184.364443 
L 314.353973 184.887418 
L 316.129315 186.612723 
L 318.259726 188.980581 
L 320.390137 191.690465 
L 322.520548 194.781486 
L 324.650959 198.294717 
L 326.78137 202.27256 
L 328.911781 206.754897 
L 331.042192 211.764722 
L 333.527671 218.222908 
L 337.433425 228.591698 
L 338.49863 230.853759 
L 339.208767 231.986007 
L 339.918904 232.665645 
L 340.273973 232.780345 
L 340.629041 232.697792 
L 341.339178 232.014027 
L 344.534795 228.497717 
L 345.244932 227.786726 
L 345.244932 227.786726 
" clip-path="url(#p546a9efdd3)" style="fill: none; stroke: #0173b2; stroke-width: 2; stroke-linecap: round"/>
   </g>
   <g id="line2d_37">
    <path d="M 86.4 109.782991 
L 88.530411 110.092249 
L 90.660822 110.642984 
L 92.791233 111.434878 
L 94.921644 112.467147 
L 97.052055 113.738413 
L 99.182466 115.246528 
L 101.667945 117.301097 
L 104.153425 119.666542 
L 106.638904 122.33264 
L 109.479452 125.729461 
L 112.32 129.471523 
L 115.515616 134.044751 
L 119.42137 140.048796 
L 126.52274 151.514668 
L 130.783562 158.181942 
L 133.62411 162.278662 
L 136.109589 165.510144 
L 138.24 167.947169 
L 140.370411 170.022656 
L 142.145753 171.443458 
L 143.921096 172.560374 
L 145.34137 173.223698 
L 146.761644 173.675597 
L 148.181918 173.912224 
L 149.602192 173.932068 
L 151.022466 173.735946 
L 152.44274 173.326948 
L 153.863014 172.710326 
L 155.638356 171.658825 
L 157.413699 170.312559 
L 159.189041 168.693496 
L 161.319452 166.425996 
L 163.804932 163.393598 
L 166.645479 159.516687 
L 170.196164 154.233534 
L 176.587397 144.188191 
L 181.913425 135.985767 
L 185.819178 130.390218 
L 189.014795 126.19342 
L 191.855342 122.803008 
L 194.69589 119.7652 
L 197.18137 117.414834 
L 199.666849 115.364051 
L 202.152329 113.621656 
L 204.28274 112.378629 
L 206.413151 111.37007 
L 208.543562 110.598304 
L 210.673973 110.065071 
L 212.804384 109.771641 
L 214.934795 109.718909 
L 217.065205 109.907431 
L 219.195616 110.337442 
L 221.326027 111.008823 
L 223.456438 111.921036 
L 225.586849 113.07302 
L 227.71726 114.463034 
L 230.20274 116.382021 
L 232.688219 118.615291 
L 235.173699 121.154016 
L 238.014247 124.413441 
L 240.854795 128.03003 
L 244.050411 132.481508 
L 247.601096 137.82217 
L 252.572055 145.755967 
L 259.673425 157.105526 
L 262.869041 161.787649 
L 265.354521 165.072351 
L 267.484932 167.564788 
L 269.615342 169.703847 
L 271.390685 171.182985 
L 273.166027 172.362178 
L 274.586301 173.077487 
L 276.006575 173.582693 
L 277.426849 173.873372 
L 278.847123 173.947425 
L 280.267397 173.805092 
L 281.687671 173.448903 
L 283.107945 172.883582 
L 284.528219 172.115907 
L 286.303562 170.885108 
L 288.078904 169.372313 
L 290.209315 167.218592 
L 292.339726 164.739592 
L 294.825205 161.502932 
L 298.020822 156.922936 
L 302.281644 150.362008 
L 311.868493 135.45905 
L 315.419178 130.390218 
L 318.614795 126.19342 
L 321.455342 122.803008 
L 324.29589 119.7652 
L 326.78137 117.414834 
L 329.266849 115.364051 
L 331.752329 113.621656 
L 333.88274 112.378629 
L 336.013151 111.37007 
L 338.143562 110.598304 
L 340.273973 110.065071 
L 342.404384 109.771641 
L 344.534795 109.718909 
L 345.244932 109.754925 
L 345.244932 109.754925 
" clip-path="url(#p546a9efdd3)" style="fill: none; stroke-dasharray: 7.4,3.2; stroke-dashoffset: 0; stroke: #029e73; stroke-opacity: 0.75; stroke-width: 2"/>
   </g>
   <g id="line2d_38">
    <path d="M 86.4 198.035402 
L 88.530411 195.715898 
L 90.660822 193.702805 
L 92.791233 191.99779 
L 94.921644 190.601625 
L 96.696986 189.673854 
L 98.472329 188.959388 
L 100.247671 188.456535 
L 102.023014 188.162516 
L 103.798356 188.073495 
L 105.573699 188.184498 
L 107.349041 188.489075 
L 109.479452 189.098596 
L 111.609863 189.957852 
L 113.740274 191.045487 
L 116.225753 192.567942 
L 119.066301 194.580384 
L 122.972055 197.658704 
L 129.718356 203.015444 
L 132.203836 204.712323 
L 134.334247 205.935336 
L 136.464658 206.88515 
L 138.24 207.430358 
L 140.015342 207.723231 
L 141.435616 207.760556 
L 142.85589 207.612383 
L 144.276164 207.271263 
L 145.696438 206.731904 
L 147.116712 205.991243 
L 148.892055 204.781217 
L 150.667397 203.258622 
L 152.44274 201.431838 
L 154.218082 199.314096 
L 156.348493 196.413782 
L 158.833973 192.583342 
L 161.319452 188.339157 
L 164.515068 182.401114 
L 168.77589 173.925992 
L 179.072877 153.189511 
L 180.848219 150.053134 
L 181.913425 148.456243 
L 182.623562 147.623552 
L 183.333699 147.101711 
L 183.688767 147.012218 
L 184.043836 147.085388 
L 184.753973 147.683613 
L 186.529315 149.673227 
L 188.659726 152.410155 
L 190.790137 155.550373 
L 192.920548 159.1425 
L 195.050959 163.238473 
L 197.18137 167.893265 
L 199.311781 173.161248 
L 201.442192 179.08066 
L 203.927671 186.768813 
L 208.188493 200.28469 
L 209.253699 202.824118 
L 209.963836 203.97502 
L 210.318904 204.320144 
L 210.673973 204.470999 
L 211.029041 204.379176 
L 211.739178 203.55615 
L 214.934795 199.309304 
L 217.065205 196.837498 
L 219.195616 194.670909 
L 221.326027 192.811714 
L 223.456438 191.261101 
L 225.586849 190.019295 
L 227.362192 189.219657 
L 229.137534 188.632424 
L 230.912877 188.255277 
L 232.688219 188.084797 
L 234.463562 188.116457 
L 236.238904 188.344489 
L 238.369315 188.866749 
L 240.499726 189.644922 
L 242.630137 190.659065 
L 245.115616 192.107594 
L 247.956164 194.054353 
L 251.506849 196.796464 
L 260.028493 203.524992 
L 262.513973 205.146945 
L 264.644384 206.284966 
L 266.419726 207.013158 
L 268.195068 207.509904 
L 269.970411 207.749463 
L 271.390685 207.741239 
L 272.810959 207.545434 
L 274.231233 207.155167 
L 275.651507 206.565681 
L 277.071781 205.774481 
L 278.847123 204.50151 
L 280.622466 202.917243 
L 282.397808 201.031071 
L 284.528219 198.389337 
L 286.65863 195.365872 
L 289.14411 191.409624 
L 291.984658 186.412794 
L 295.180274 180.328944 
L 299.796164 171.023559 
L 307.607671 155.213823 
L 310.093151 150.645184 
L 311.513425 148.456243 
L 312.223562 147.623552 
L 312.933699 147.101711 
L 313.288767 147.012218 
L 313.643836 147.085388 
L 314.353973 147.683613 
L 316.129315 149.673227 
L 318.259726 152.410155 
L 320.390137 155.550373 
L 322.520548 159.1425 
L 324.650959 163.238473 
L 326.78137 167.893265 
L 328.911781 173.161248 
L 331.042192 179.08066 
L 333.527671 186.768813 
L 337.788493 200.28469 
L 338.853699 202.824118 
L 339.563836 203.97502 
L 339.918904 204.320144 
L 340.273973 204.470999 
L 340.629041 204.379176 
L 341.339178 203.55615 
L 344.534795 199.309304 
L 345.244932 198.451631 
L 345.244932 198.451631 
" clip-path="url(#p546a9efdd3)" style="fill: none; stroke: #029e73; stroke-width: 2; stroke-linecap: round"/>
   </g>
   <g id="patch_3">
    <path d="M 86.4 345.6 
L 86.4 86.4 
" style="fill: none; stroke: #262626; stroke-width: 1.25; stroke-linejoin: miter; stroke-linecap: square"/>
   </g>
   <g id="patch_4">
    <path d="M 86.4 345.6 
L 345.6 345.6 
" style="fill: none; stroke: #262626; stroke-width: 1.25; stroke-linejoin: miter; stroke-linecap: square"/>
   </g>
   <g id="legend_1">
    <g id="patch_5">
     <path d="M 239.62 338.6 
L 335.8 338.6 
Q 338.6 338.6 338.6 335.8 
L 338.6 277.789688 
Q 338.6 274.989688 335.8 274.989688 
L 239.62 274.989688 
Q 236.82 274.989688 236.82 277.789688 
L 236.82 335.8 
Q 236.82 338.6 239.62 338.6 
z
" style="fill: #ffffff; opacity: 0.8; stroke: #cccccc; stroke-linejoin: miter"/>
    </g>
    <g id="line2d_39">
     <path d="M 242.42 285.710625 
L 256.42 285.710625 
L 270.42 285.710625 
" style="fill: none; stroke: #de8f05; stroke-width: 2; stroke-linecap: round"/>
    </g>
    <g id="text_19">
     <!-- $\it{k}$ = 0.23 -->
     <g style="fill: #262626" transform="translate(281.62 290.610625)">
      <text>
       <tspan x="0" y="-0.359375" style="font-style: oblique; font-size: 14px; font-family: 'DejaVu Sans'; fill: #262626">k</tspan>
       <tspan x="8.107422" y="-0.359375" style="font-size: 14px; font-family: 'Arial'; fill: #262626"> </tspan>
       <tspan x="11.99707" y="-0.359375" style="font-size: 14px; font-family: 'Arial'; fill: #262626">=</tspan>
       <tspan x="20.172852" y="-0.359375" style="font-size: 14px; font-family: 'Arial'; fill: #262626"> </tspan>
       <tspan x="24.0625" y="-0.359375" style="font-size: 14px; font-family: 'Arial'; fill: #262626">0</tspan>
       <tspan x="31.848633" y="-0.359375" style="font-size: 14px; font-family: 'Arial'; fill: #262626">.</tspan>
       <tspan x="35.738281" y="-0.359375" style="font-size: 14px; font-family: 'Arial'; fill: #262626">2</tspan>
       <tspan x="43.524414" y="-0.359375" style="font-size: 14px; font-family: 'Arial'; fill: #262626">3</tspan>
      </text>
     </g>
    </g>
    <g id="line2d_40">
     <path d="M 242.42 305.514063 
L 256.42 305.514063 
L 270.42 305.514063 
" style="fill: none; stroke: #0173b2; stroke-width: 2; stroke-linecap: round"/>
    </g>
    <g id="text_20">
     <!-- $\it{k}$ = 0.41 -->
     <g style="fill: #262626" transform="translate(281.62 310.414062)">
      <text>
       <tspan x="0" y="-0.359375" style="font-style: oblique; font-size: 14px; font-family: 'DejaVu Sans'; fill: #262626">k</tspan>
       <tspan x="8.107422" y="-0.359375" style="font-size: 14px; font-family: 'Arial'; fill: #262626"> </tspan>
       <tspan x="11.99707" y="-0.359375" style="font-size: 14px; font-family: 'Arial'; fill: #262626">=</tspan>
       <tspan x="20.172852" y="-0.359375" style="font-size: 14px; font-family: 'Arial'; fill: #262626"> </tspan>
       <tspan x="24.0625" y="-0.359375" style="font-size: 14px; font-family: 'Arial'; fill: #262626">0</tspan>
       <tspan x="31.848633" y="-0.359375" style="font-size: 14px; font-family: 'Arial'; fill: #262626">.</tspan>
       <tspan x="35.738281" y="-0.359375" style="font-size: 14px; font-family: 'Arial'; fill: #262626">4</tspan>
       <tspan x="43.524414" y="-0.359375" style="font-size: 14px; font-family: 'Arial'; fill: #262626">1</tspan>
      </text>
     </g>
    </g>
    <g id="line2d_41">
     <path d="M 242.42 325.3175 
L 256.42 325.3175 
L 270.42 325.3175 
" style="fill: none; stroke: #029e73; stroke-width: 2; stroke-linecap: round"/>
    </g>
    <g id="text_21">
     <!-- $\it{k}$ = 0.60 -->
     <g style="fill: #262626" transform="translate(281.62 330.2175)">
      <text>
       <tspan x="0" y="-0.359375" style="font-style: oblique; font-size: 14px; font-family: 'DejaVu Sans'; fill: #262626">k</tspan>
       <tspan x="8.107422" y="-0.359375" style="font-size: 14px; font-family: 'Arial'; fill: #262626"> </tspan>
       <tspan x="11.99707" y="-0.359375" style="font-size: 14px; font-family: 'Arial'; fill: #262626">=</tspan>
       <tspan x="20.172852" y="-0.359375" style="font-size: 14px; font-family: 'Arial'; fill: #262626"> </tspan>
       <tspan x="24.0625" y="-0.359375" style="font-size: 14px; font-family: 'Arial'; fill: #262626">0</tspan>
       <tspan x="31.848633" y="-0.359375" style="font-size: 14px; font-family: 'Arial'; fill: #262626">.</tspan>
       <tspan x="35.738281" y="-0.359375" style="font-size: 14px; font-family: 'Arial'; fill: #262626">6</tspan>
       <tspan x="43.524414" y="-0.359375" style="font-size: 14px; font-family: 'Arial'; fill: #262626">0</tspan>
      </text>
     </g>
    </g>
   </g>
  </g>
 </g>
 <defs>
  <clipPath id="p546a9efdd3">
   <rect x="86.4" y="86.4" width="259.2" height="259.2"/>
  </clipPath>
 </defs>
</svg>
