<?xml version="1.0" encoding="utf-8" standalone="no"?>
<!DOCTYPE svg PUBLIC "-//W3C//DTD SVG 1.1//EN"
  "http://www.w3.org/Graphics/SVG/1.1/DTD/svg11.dtd">
<svg xmlns:xlink="http://www.w3.org/1999/xlink" width="432pt" height="432pt" viewBox="0 0 432 432" xmlns="http://www.w3.org/2000/svg" version="1.1">
 <metadata>
  <rdf:RDF xmlns:dc="http://purl.org/dc/elements/1.1/" xmlns:cc="http://creativecommons.org/ns#" xmlns:rdf="http://www.w3.org/1999/02/22-rdf-syntax-ns#">
   <cc:Work>
    <dc:type rdf:resource="http://purl.org/dc/dcmitype/StillImage"/>
    <dc:date>2024-05-31T10:53:17.754237</dc:date>
    <dc:format>image/svg+xml</dc:format>
    <dc:creator>
     <cc:Agent>
      <dc:title>Matplotlib v3.8.4, https://matplotlib.org/</dc:title>
     </cc:Agent>
    </dc:creator>
   </cc:Work>
  </rdf:RDF>
 </metadata>
 <defs>
  <style type="text/css">*{stroke-linejoin: round; stroke-linecap: butt}</style>
 </defs>
 <g id="figure_1">
  <g id="patch_1">
   <path d="M 0 432 
L 432 432 
L 432 0 
L 0 0 
L 0 432 
z
" style="fill: none"/>
  </g>
  <g id="axes_1">
   <g id="patch_2">
    <path d="M 86.4 345.6 
L 345.6 345.6 
L 345.6 86.4 
L 86.4 86.4 
L 86.4 345.6 
z
" style="fill: none"/>
   </g>
   <g id="matplotlib.axis_1">
    <g id="xtick_1">
     <g id="line2d_1">
      <defs>
       <path id="m2ce2f83fad" d="M 0 0 
L 0 6 
" style="stroke: #262626; stroke-width: 1.25"/>
      </defs>
      <g>
       <use xlink:href="#m2ce2f83fad" x="86.4" y="345.6" style="fill: #262626; stroke: #262626; stroke-width: 1.25"/>
      </g>
     </g>
     <g id="text_1">
      <text style="fill: #262626; font: 16px 'Arial', 'DejaVu Sans', 'Liberation Sans', 'Bitstream Vera Sans', sans-serif; text-anchor: middle" x="86.4" y="366.5525" transform="rotate(-0 86.4 366.5525)">Jan</text>
     </g>
    </g>
    <g id="xtick_2">
     <g id="line2d_2">
      <g>
       <use xlink:href="#m2ce2f83fad" x="97.2" y="345.6" style="fill: #262626; stroke: #262626; stroke-width: 1.25"/>
      </g>
     </g>
    </g>
    <g id="xtick_3">
     <g id="line2d_3">
      <g>
       <use xlink:href="#m2ce2f83fad" x="108" y="345.6" style="fill: #262626; stroke: #262626; stroke-width: 1.25"/>
      </g>
     </g>
    </g>
    <g id="xtick_4">
     <g id="line2d_4">
      <g>
       <use xlink:href="#m2ce2f83fad" x="118.8" y="345.6" style="fill: #262626; stroke: #262626; stroke-width: 1.25"/>
      </g>
     </g>
     <g id="text_2">
      <text style="fill: #262626; font: 16px 'Arial', 'DejaVu Sans', 'Liberation Sans', 'Bitstream Vera Sans', sans-serif; text-anchor: middle" x="118.8" y="366.5525" transform="rotate(-0 118.8 366.5525)">Apr</text>
     </g>
    </g>
    <g id="xtick_5">
     <g id="line2d_5">
      <g>
       <use xlink:href="#m2ce2f83fad" x="129.6" y="345.6" style="fill: #262626; stroke: #262626; stroke-width: 1.25"/>
      </g>
     </g>
    </g>
    <g id="xtick_6">
     <g id="line2d_6">
      <g>
       <use xlink:href="#m2ce2f83fad" x="140.4" y="345.6" style="fill: #262626; stroke: #262626; stroke-width: 1.25"/>
      </g>
     </g>
    </g>
    <g id="xtick_7">
     <g id="line2d_7">
      <g>
       <use xlink:href="#m2ce2f83fad" x="151.2" y="345.6" style="fill: #262626; stroke: #262626; stroke-width: 1.25"/>
      </g>
     </g>
     <g id="text_3">
      <text style="fill: #262626; font: 16px 'Arial', 'DejaVu Sans', 'Liberation Sans', 'Bitstream Vera Sans', sans-serif; text-anchor: middle" x="151.2" y="366.5525" transform="rotate(-0 151.2 366.5525)">Jul</text>
     </g>
    </g>
    <g id="xtick_8">
     <g id="line2d_8">
      <g>
       <use xlink:href="#m2ce2f83fad" x="162" y="345.6" style="fill: #262626; stroke: #262626; stroke-width: 1.25"/>
      </g>
     </g>
    </g>
    <g id="xtick_9">
     <g id="line2d_9">
      <g>
       <use xlink:href="#m2ce2f83fad" x="172.8" y="345.6" style="fill: #262626; stroke: #262626; stroke-width: 1.25"/>
      </g>
     </g>
    </g>
    <g id="xtick_10">
     <g id="line2d_10">
      <g>
       <use xlink:href="#m2ce2f83fad" x="183.6" y="345.6" style="fill: #262626; stroke: #262626; stroke-width: 1.25"/>
      </g>
     </g>
     <g id="text_4">
      <text style="fill: #262626; font: 16px 'Arial', 'DejaVu Sans', 'Liberation Sans', 'Bitstream Vera Sans', sans-serif; text-anchor: middle" x="183.6" y="366.5525" transform="rotate(-0 183.6 366.5525)">Oct</text>
     </g>
    </g>
    <g id="xtick_11">
     <g id="line2d_11">
      <g>
       <use xlink:href="#m2ce2f83fad" x="194.4" y="345.6" style="fill: #262626; stroke: #262626; stroke-width: 1.25"/>
      </g>
     </g>
    </g>
    <g id="xtick_12">
     <g id="line2d_12">
      <g>
       <use xlink:href="#m2ce2f83fad" x="205.2" y="345.6" style="fill: #262626; stroke: #262626; stroke-width: 1.25"/>
      </g>
     </g>
    </g>
    <g id="xtick_13">
     <g id="line2d_13">
      <g>
       <use xlink:href="#m2ce2f83fad" x="216" y="345.6" style="fill: #262626; stroke: #262626; stroke-width: 1.25"/>
      </g>
     </g>
     <g id="text_5">
      <text style="fill: #262626; font: 16px 'Arial', 'DejaVu Sans', 'Liberation Sans', 'Bitstream Vera Sans', sans-serif; text-anchor: middle" x="216" y="366.5525" transform="rotate(-0 216 366.5525)">Jan</text>
     </g>
    </g>
    <g id="xtick_14">
     <g id="line2d_14">
      <g>
       <use xlink:href="#m2ce2f83fad" x="226.8" y="345.6" style="fill: #262626; stroke: #262626; stroke-width: 1.25"/>
      </g>
     </g>
    </g>
    <g id="xtick_15">
     <g id="line2d_15">
      <g>
       <use xlink:href="#m2ce2f83fad" x="237.6" y="345.6" style="fill: #262626; stroke: #262626; stroke-width: 1.25"/>
      </g>
     </g>
    </g>
    <g id="xtick_16">
     <g id="line2d_16">
      <g>
       <use xlink:href="#m2ce2f83fad" x="248.4" y="345.6" style="fill: #262626; stroke: #262626; stroke-width: 1.25"/>
      </g>
     </g>
     <g id="text_6">
      <text style="fill: #262626; font: 16px 'Arial', 'DejaVu Sans', 'Liberation Sans', 'Bitstream Vera Sans', sans-serif; text-anchor: middle" x="248.4" y="366.5525" transform="rotate(-0 248.4 366.5525)">Apr</text>
     </g>
    </g>
    <g id="xtick_17">
     <g id="line2d_17">
      <g>
       <use xlink:href="#m2ce2f83fad" x="259.2" y="345.6" style="fill: #262626; stroke: #262626; stroke-width: 1.25"/>
      </g>
     </g>
    </g>
    <g id="xtick_18">
     <g id="line2d_18">
      <g>
       <use xlink:href="#m2ce2f83fad" x="270" y="345.6" style="fill: #262626; stroke: #262626; stroke-width: 1.25"/>
      </g>
     </g>
    </g>
    <g id="xtick_19">
     <g id="line2d_19">
      <g>
       <use xlink:href="#m2ce2f83fad" x="280.8" y="345.6" style="fill: #262626; stroke: #262626; stroke-width: 1.25"/>
      </g>
     </g>
     <g id="text_7">
      <text style="fill: #262626; font: 16px 'Arial', 'DejaVu Sans', 'Liberation Sans', 'Bitstream Vera Sans', sans-serif; text-anchor: middle" x="280.8" y="366.5525" transform="rotate(-0 280.8 366.5525)">Jul</text>
     </g>
    </g>
    <g id="xtick_20">
     <g id="line2d_20">
      <g>
       <use xlink:href="#m2ce2f83fad" x="291.6" y="345.6" style="fill: #262626; stroke: #262626; stroke-width: 1.25"/>
      </g>
     </g>
    </g>
    <g id="xtick_21">
     <g id="line2d_21">
      <g>
       <use xlink:href="#m2ce2f83fad" x="302.4" y="345.6" style="fill: #262626; stroke: #262626; stroke-width: 1.25"/>
      </g>
     </g>
    </g>
    <g id="xtick_22">
     <g id="line2d_22">
      <g>
       <use xlink:href="#m2ce2f83fad" x="313.2" y="345.6" style="fill: #262626; stroke: #262626; stroke-width: 1.25"/>
      </g>
     </g>
     <g id="text_8">
      <text style="fill: #262626; font: 16px 'Arial', 'DejaVu Sans', 'Liberation Sans', 'Bitstream Vera Sans', sans-serif; text-anchor: middle" x="313.2" y="366.5525" transform="rotate(-0 313.2 366.5525)">Oct</text>
     </g>
    </g>
    <g id="xtick_23">
     <g id="line2d_23">
      <g>
       <use xlink:href="#m2ce2f83fad" x="324" y="345.6" style="fill: #262626; stroke: #262626; stroke-width: 1.25"/>
      </g>
     </g>
    </g>
    <g id="xtick_24">
     <g id="line2d_24">
      <g>
       <use xlink:href="#m2ce2f83fad" x="334.8" y="345.6" style="fill: #262626; stroke: #262626; stroke-width: 1.25"/>
      </g>
     </g>
    </g>
    <g id="xtick_25">
     <g id="line2d_25">
      <g>
       <use xlink:href="#m2ce2f83fad" x="345.6" y="345.6" style="fill: #262626; stroke: #262626; stroke-width: 1.25"/>
      </g>
     </g>
     <g id="text_9">
      <text style="fill: #262626; font: 16px 'Arial', 'DejaVu Sans', 'Liberation Sans', 'Bitstream Vera Sans', sans-serif; text-anchor: middle" x="345.6" y="366.5525" transform="rotate(-0 345.6 366.5525)">Jan</text>
     </g>
    </g>
    <g id="text_10">
     <text style="fill: #262626; font: 16px 'Arial', 'DejaVu Sans', 'Liberation Sans', 'Bitstream Vera Sans', sans-serif; text-anchor: middle" x="216" y="385.185" transform="rotate(-0 216 385.185)"> </text>
    </g>
   </g>
   <g id="matplotlib.axis_2">
    <g id="ytick_1">
     <g id="line2d_26">
      <defs>
       <path id="m58bff6ec3f" d="M 0 0 
L -6 0 
" style="stroke: #262626; stroke-width: 1.25"/>
      </defs>
      <g>
       <use xlink:href="#m58bff6ec3f" x="86.4" y="345.6" style="fill: #262626; stroke: #262626; stroke-width: 1.25"/>
      </g>
     </g>
     <g id="text_11">
      <text style="fill: #262626; font: 16px 'Arial', 'DejaVu Sans', 'Liberation Sans', 'Bitstream Vera Sans', sans-serif; text-anchor: end" x="76.9" y="351.32625" transform="rotate(-0 76.9 351.32625)">0.0</text>
     </g>
    </g>
    <g id="ytick_2">
     <g id="line2d_27">
      <g>
       <use xlink:href="#m58bff6ec3f" x="86.4" y="302.4" style="fill: #262626; stroke: #262626; stroke-width: 1.25"/>
      </g>
     </g>
     <g id="text_12">
      <text style="fill: #262626; font: 16px 'Arial', 'DejaVu Sans', 'Liberation Sans', 'Bitstream Vera Sans', sans-serif; text-anchor: end" x="76.9" y="308.12625" transform="rotate(-0 76.9 308.12625)">0.1</text>
     </g>
    </g>
    <g id="ytick_3">
     <g id="line2d_28">
      <g>
       <use xlink:href="#m58bff6ec3f" x="86.4" y="259.2" style="fill: #262626; stroke: #262626; stroke-width: 1.25"/>
      </g>
     </g>
     <g id="text_13">
      <text style="fill: #262626; font: 16px 'Arial', 'DejaVu Sans', 'Liberation Sans', 'Bitstream Vera Sans', sans-serif; text-anchor: end" x="76.9" y="264.92625" transform="rotate(-0 76.9 264.92625)">0.2</text>
     </g>
    </g>
    <g id="ytick_4">
     <g id="line2d_29">
      <g>
       <use xlink:href="#m58bff6ec3f" x="86.4" y="216" style="fill: #262626; stroke: #262626; stroke-width: 1.25"/>
      </g>
     </g>
     <g id="text_14">
      <text style="fill: #262626; font: 16px 'Arial', 'DejaVu Sans', 'Liberation Sans', 'Bitstream Vera Sans', sans-serif; text-anchor: end" x="76.9" y="221.72625" transform="rotate(-0 76.9 221.72625)">0.3</text>
     </g>
    </g>
    <g id="ytick_5">
     <g id="line2d_30">
      <g>
       <use xlink:href="#m58bff6ec3f" x="86.4" y="172.8" style="fill: #262626; stroke: #262626; stroke-width: 1.25"/>
      </g>
     </g>
     <g id="text_15">
      <text style="fill: #262626; font: 16px 'Arial', 'DejaVu Sans', 'Liberation Sans', 'Bitstream Vera Sans', sans-serif; text-anchor: end" x="76.9" y="178.52625" transform="rotate(-0 76.9 178.52625)">0.4</text>
     </g>
    </g>
    <g id="ytick_6">
     <g id="line2d_31">
      <g>
       <use xlink:href="#m58bff6ec3f" x="86.4" y="129.6" style="fill: #262626; stroke: #262626; stroke-width: 1.25"/>
      </g>
     </g>
     <g id="text_16">
      <text style="fill: #262626; font: 16px 'Arial', 'DejaVu Sans', 'Liberation Sans', 'Bitstream Vera Sans', sans-serif; text-anchor: end" x="76.9" y="135.32625" transform="rotate(-0 76.9 135.32625)">0.5</text>
     </g>
    </g>
    <g id="ytick_7">
     <g id="line2d_32">
      <g>
       <use xlink:href="#m58bff6ec3f" x="86.4" y="86.4" style="fill: #262626; stroke: #262626; stroke-width: 1.25"/>
      </g>
     </g>
     <g id="text_17">
      <text style="fill: #262626; font: 16px 'Arial', 'DejaVu Sans', 'Liberation Sans', 'Bitstream Vera Sans', sans-serif; text-anchor: end" x="76.9" y="92.12625" transform="rotate(-0 76.9 92.12625)">0.6</text>
     </g>
    </g>
    <g id="text_18">
     <text style="fill: #262626; font: 16px 'Arial', 'DejaVu Sans', 'Liberation Sans', 'Bitstream Vera Sans', sans-serif; text-anchor: middle" x="47.48" y="216" transform="rotate(-90 47.48 216)">Case outbreak risk</text>
    </g>
   </g>
   <g id="PolyCollection_1">
    <defs>
     <path id="m53995a1145" d="M 210.6 -86.4 
L 183.6 -86.4 
L 183.6 -345.6 
L 210.6 -345.6 
L 210.6 -345.6 
L 210.6 -86.4 
z
"/>
    </defs>
    <g clip-path="url(#p3a0b28b352)">
     <use xlink:href="#m53995a1145" x="0" y="432" style="fill: #808080; fill-opacity: 0.5"/>
    </g>
   </g>
   <g id="PolyCollection_2">
    <defs>
     <path id="mdd76a13ad9" d="M 340.2 -86.4 
L 313.2 -86.4 
L 313.2 -345.6 
L 340.2 -345.6 
L 340.2 -345.6 
L 340.2 -86.4 
z
"/>
    </defs>
    <g clip-path="url(#p3a0b28b352)">
     <use xlink:href="#mdd76a13ad9" x="0" y="432" style="fill: #808080; fill-opacity: 0.5"/>
    </g>
   </g>
   <g id="line2d_33">
    <path d="M 86.4 211.2194 
L 88.92 211.50087 
L 91.44 212.012661 
L 93.96 212.753061 
L 96.48 213.719159 
L 99 214.906643 
L 101.88 216.527106 
L 104.76 218.416722 
L 107.64 220.559174 
L 110.88 223.244763 
L 114.48 226.523245 
L 118.8 230.76681 
L 131.4 243.38321 
L 134.28 245.876384 
L 136.8 247.802001 
L 139.32 249.435553 
L 141.48 250.569402 
L 143.64 251.43301 
L 145.44 251.933668 
L 147.24 252.228054 
L 149.04 252.312848 
L 150.84 252.188007 
L 152.64 251.856688 
L 154.44 251.325079 
L 156.6 250.435556 
L 158.76 249.290723 
L 161.28 247.664943 
L 163.8 245.768649 
L 166.68 243.331388 
L 170.28 239.987644 
L 176.04 234.28173 
L 182.88 227.559412 
L 186.84 223.951845 
L 190.44 220.961638 
L 193.68 218.555601 
L 196.56 216.671192 
L 199.44 215.044723 
L 202.32 213.690012 
L 204.84 212.735941 
L 207.36 212.003423 
L 209.88 211.496464 
L 212.4 211.21789 
L 214.92 211.16947 
L 217.44 211.351977 
L 219.96 211.765204 
L 222.48 212.407911 
L 225 213.277722 
L 227.52 214.370954 
L 230.4 215.887156 
L 233.28 217.677509 
L 236.16 219.727362 
L 239.4 222.319277 
L 243 225.510836 
L 246.96 229.323122 
L 253.44 235.932949 
L 259.2 241.700763 
L 262.44 244.664218 
L 265.32 247.009659 
L 267.84 248.774245 
L 270 250.034951 
L 272.16 251.036204 
L 273.96 251.657677 
L 275.76 252.076434 
L 277.56 252.287198 
L 279.36 252.287961 
L 281.16 252.079975 
L 282.96 251.667637 
L 285.12 250.913595 
L 287.28 249.893624 
L 289.44 248.630008 
L 291.96 246.882656 
L 294.84 244.581827 
L 298.08 241.692987 
L 302.4 237.521132 
L 313.92 226.214358 
L 317.88 222.718884 
L 321.12 220.127686 
L 324.36 217.819752 
L 327.24 216.030219 
L 330.12 214.504228 
L 333 213.254306 
L 335.52 212.394613 
L 338.04 211.758345 
L 340.56 211.348983 
L 343.08 211.168889 
L 345.24 211.198041 
L 345.24 211.198041 
" clip-path="url(#p3a0b28b352)" style="fill: none; stroke-dasharray: 7.4,3.2; stroke-dashoffset: 0; stroke: #dd8452; stroke-opacity: 0.75; stroke-width: 2"/>
   </g>
   <g id="line2d_34">
    <path d="M 86.4 267.021448 
L 88.92 265.453915 
L 91.44 264.130676 
L 93.96 263.055488 
L 96.48 262.230504 
L 99 261.655972 
L 101.52 261.329674 
L 104.04 261.246385 
L 106.56 261.397481 
L 109.08 261.770421 
L 111.96 262.446102 
L 114.84 263.355715 
L 118.08 264.605182 
L 122.76 266.680752 
L 129.6 269.736181 
L 132.84 270.929609 
L 135.36 271.642118 
L 137.88 272.111156 
L 140.04 272.286189 
L 142.2 272.227766 
L 144.36 271.918702 
L 146.52 271.347649 
L 148.68 270.509502 
L 150.84 269.405228 
L 153 268.04185 
L 155.16 266.431945 
L 157.68 264.265724 
L 160.56 261.453881 
L 163.8 257.936409 
L 167.76 253.266486 
L 174.6 244.757836 
L 179.28 239.086983 
L 181.44 236.8049 
L 182.52 235.919462 
L 183.24 235.520499 
L 183.96 235.371402 
L 184.68 235.608818 
L 186.48 236.876015 
L 189 238.953573 
L 191.16 241.011028 
L 193.32 243.352712 
L 195.48 246.006882 
L 197.64 249.001389 
L 199.8 252.359549 
L 202.32 256.741095 
L 205.56 262.924414 
L 207.72 266.945287 
L 208.8 268.657005 
L 209.88 269.934397 
L 210.6 270.406 
L 210.96 270.48446 
L 211.32 270.426033 
L 212.04 269.950619 
L 215.64 267.265029 
L 218.16 265.662999 
L 220.68 264.304605 
L 223.2 263.1938 
L 225.72 262.333002 
L 228.24 261.722757 
L 230.76 261.361254 
L 233.28 261.2437 
L 235.8 261.361982 
L 238.32 261.704162 
L 240.84 262.253786 
L 243.72 263.10855 
L 246.96 264.310236 
L 251.28 266.184979 
L 259.92 270.023291 
L 262.8 271.044468 
L 265.32 271.72512 
L 267.48 272.111156 
L 269.64 272.286189 
L 271.8 272.227766 
L 273.96 271.918702 
L 276.12 271.347649 
L 278.28 270.509502 
L 280.44 269.405228 
L 282.6 268.04185 
L 284.76 266.431945 
L 287.28 264.265724 
L 290.16 261.453881 
L 293.4 257.936409 
L 297.36 253.266486 
L 304.2 244.757836 
L 308.88 239.086983 
L 311.04 236.8049 
L 312.12 235.919462 
L 312.84 235.520499 
L 313.56 235.371402 
L 314.28 235.608818 
L 316.08 236.876015 
L 318.6 238.953573 
L 320.76 241.011028 
L 322.92 243.352712 
L 325.08 246.006882 
L 327.24 249.001389 
L 329.4 252.359549 
L 331.92 256.741095 
L 335.16 262.924414 
L 337.32 266.945287 
L 338.4 268.657005 
L 339.48 269.934397 
L 340.2 270.406 
L 340.56 270.48446 
L 340.92 270.426033 
L 341.64 269.950619 
L 345.24 267.265029 
L 345.24 267.265029 
" clip-path="url(#p3a0b28b352)" style="fill: none; stroke: #dd8452; stroke-width: 2; stroke-linecap: round"/>
   </g>
   <g id="line2d_35">
    <path d="M 86.4 151.506152 
L 88.56 151.796745 
L 90.72 152.309573 
L 92.88 153.043916 
L 95.04 153.99843 
L 97.2 155.171035 
L 99.72 156.810691 
L 102.24 158.736472 
L 104.76 160.939206 
L 107.64 163.779727 
L 110.52 166.940938 
L 113.76 170.839066 
L 117.36 175.520388 
L 122.4 182.476379 
L 129.6 192.424251 
L 132.84 196.528517 
L 135.36 199.40968 
L 137.52 201.598305 
L 139.68 203.479931 
L 141.48 204.784532 
L 143.28 205.828801 
L 145.08 206.597355 
L 146.88 207.079267 
L 148.32 207.2541 
L 149.76 207.24051 
L 151.2 207.039554 
L 152.64 206.654206 
L 154.44 205.920692 
L 156.24 204.919725 
L 158.04 203.667971 
L 160.2 201.862788 
L 162.36 199.763653 
L 164.88 196.999529 
L 167.76 193.511179 
L 171.72 188.327764 
L 184.32 171.508621 
L 187.92 167.219902 
L 191.16 163.714196 
L 194.04 160.920464 
L 196.92 158.457298 
L 199.44 156.58883 
L 201.96 154.998732 
L 204.48 153.694761 
L 206.64 152.809294 
L 208.8 152.141156 
L 210.96 151.692438 
L 213.12 151.464636 
L 215.28 151.458719 
L 217.44 151.675168 
L 219.6 152.11397 
L 221.76 152.774592 
L 223.92 153.655907 
L 226.08 154.756098 
L 228.6 156.312689 
L 231.12 158.157534 
L 233.64 160.282247 
L 236.16 162.675456 
L 239.04 165.719802 
L 242.28 169.502763 
L 245.88 174.083117 
L 250.2 179.958211 
L 260.28 193.833369 
L 263.16 197.383672 
L 265.68 200.17064 
L 267.84 202.261715 
L 270 204.031854 
L 271.8 205.234436 
L 273.6 206.170024 
L 275.4 206.824971 
L 276.84 207.140624 
L 278.28 207.268359 
L 279.72 207.207752 
L 281.16 206.960346 
L 282.96 206.393817 
L 284.76 205.551542 
L 286.56 204.448075 
L 288.36 203.10138 
L 290.52 201.193713 
L 293.04 198.616936 
L 295.92 195.293174 
L 299.16 191.197445 
L 304.2 184.411655 
L 311.76 174.246966 
L 315.72 169.317032 
L 318.96 165.616979 
L 321.84 162.629299 
L 324.72 159.95686 
L 327.24 157.895585 
L 329.76 156.105732 
L 332.28 154.596684 
L 334.8 153.375614 
L 336.96 152.562317 
L 339.12 151.967119 
L 341.28 151.5919 
L 343.44 151.437976 
L 345.24 151.479346 
L 345.24 151.479346 
" clip-path="url(#p3a0b28b352)" style="fill: none; stroke-dasharray: 7.4,3.2; stroke-dashoffset: 0; stroke: #4c72b0; stroke-opacity: 0.75; stroke-width: 2"/>
   </g>
   <g id="line2d_36">
    <path d="M 86.4 228.127466 
L 88.92 225.879817 
L 91.08 224.233507 
L 93.24 222.848326 
L 95.4 221.725668 
L 97.56 220.86559 
L 99.72 220.266706 
L 101.88 219.925857 
L 104.04 219.837508 
L 106.2 219.993857 
L 108.36 220.384174 
L 110.52 220.994485 
L 113.04 221.961045 
L 115.56 223.168607 
L 118.44 224.788872 
L 122.4 227.296558 
L 129.6 231.917872 
L 132.48 233.469774 
L 134.64 234.413384 
L 136.8 235.116052 
L 138.6 235.486749 
L 140.4 235.639084 
L 142.2 235.555113 
L 144 235.220816 
L 145.8 234.626349 
L 147.6 233.766458 
L 149.4 232.640341 
L 151.2 231.25157 
L 153 229.60809 
L 155.16 227.316623 
L 157.32 224.702651 
L 159.84 221.290223 
L 162.72 216.98718 
L 166.32 211.151478 
L 171.36 202.494035 
L 178.56 190.161534 
L 180.72 186.819506 
L 182.16 184.956232 
L 182.88 184.259178 
L 183.6 183.83626 
L 183.96 183.774056 
L 184.32 183.852036 
L 185.04 184.395759 
L 186.84 186.182447 
L 189 188.637941 
L 191.16 191.452322 
L 193.32 194.666731 
L 195.48 198.324618 
L 197.64 202.470586 
L 199.8 207.145671 
L 201.96 212.369322 
L 204.48 219.079166 
L 208.08 228.755061 
L 209.16 231.087558 
L 209.88 232.258732 
L 210.6 232.967858 
L 210.96 233.0928 
L 211.32 233.016611 
L 212.04 232.336153 
L 215.28 228.833628 
L 217.8 226.486271 
L 219.96 224.753338 
L 222.12 223.280944 
L 224.28 222.070683 
L 226.44 221.123144 
L 228.6 220.437474 
L 230.76 220.011094 
L 232.92 219.839346 
L 235.08 219.915125 
L 237.24 220.228868 
L 239.4 220.767609 
L 241.56 221.515113 
L 244.08 222.624117 
L 246.96 224.15546 
L 250.56 226.359251 
L 260.28 232.532936 
L 262.8 233.808257 
L 264.96 234.676579 
L 267.12 235.289246 
L 268.92 235.574969 
L 270.72 235.634725 
L 272.52 235.452089 
L 274.32 235.014642 
L 276.12 234.31439 
L 277.92 233.347855 
L 279.72 232.115997 
L 281.52 230.624163 
L 283.68 228.504522 
L 285.84 226.047994 
L 288.36 222.797105 
L 290.88 219.186846 
L 294.12 214.121747 
L 298.08 207.484815 
L 309.6 187.88607 
L 311.4 185.375539 
L 312.48 184.259178 
L 313.2 183.83626 
L 313.56 183.774056 
L 313.92 183.852036 
L 314.64 184.395759 
L 316.44 186.182447 
L 318.6 188.637941 
L 320.76 191.452322 
L 322.92 194.666731 
L 325.08 198.324618 
L 327.24 202.470586 
L 329.4 207.145671 
L 331.56 212.369322 
L 334.08 219.079166 
L 337.68 228.755061 
L 338.76 231.087558 
L 339.48 232.258732 
L 340.2 232.967858 
L 340.56 233.0928 
L 340.92 233.016611 
L 341.64 232.336153 
L 344.88 228.833628 
L 345.24 228.477013 
L 345.24 228.477013 
" clip-path="url(#p3a0b28b352)" style="fill: none; stroke: #4c72b0; stroke-width: 2; stroke-linecap: round"/>
   </g>
   <g id="line2d_37">
    <path d="M 86.4 109.786148 
L 88.56 110.104069 
L 90.72 110.670232 
L 92.88 111.484298 
L 95.04 112.545432 
L 97.2 113.852161 
L 99.36 115.402184 
L 101.88 117.513481 
L 104.4 119.943565 
L 106.92 122.681416 
L 109.8 126.167489 
L 112.68 130.004259 
L 115.92 134.686503 
L 119.88 140.818468 
L 132.48 160.712489 
L 135 164.149567 
L 137.16 166.784393 
L 139.32 169.072782 
L 141.12 170.678658 
L 142.92 171.983983 
L 144.36 172.798067 
L 145.8 173.398811 
L 147.24 173.780633 
L 148.68 173.940391 
L 150.12 173.877412 
L 151.56 173.593465 
L 153 173.092677 
L 154.44 172.3814 
L 156.24 171.209279 
L 158.04 169.74191 
L 159.84 168.003431 
L 162 165.597729 
L 164.52 162.41512 
L 167.4 158.386231 
L 171 152.949464 
L 183.96 132.961582 
L 187.56 128.025368 
L 190.44 124.421962 
L 193.32 121.166362 
L 195.84 118.625178 
L 198.36 116.385903 
L 200.88 114.45922 
L 203.04 113.062665 
L 205.2 111.905399 
L 207.36 110.990268 
L 209.52 110.319411 
L 211.68 109.894409 
L 213.84 109.716401 
L 216 109.786148 
L 218.16 110.104069 
L 220.32 110.670232 
L 222.48 111.484298 
L 224.64 112.545432 
L 226.8 113.852161 
L 228.96 115.402184 
L 231.48 117.513481 
L 234 119.943565 
L 236.52 122.681416 
L 239.4 126.167489 
L 242.28 130.004259 
L 245.52 134.686503 
L 249.48 140.818468 
L 262.08 160.712489 
L 264.6 164.149567 
L 266.76 166.784393 
L 268.92 169.072782 
L 270.72 170.678658 
L 272.52 171.983983 
L 273.96 172.798067 
L 275.4 173.398811 
L 276.84 173.780633 
L 278.28 173.940391 
L 279.72 173.877412 
L 281.16 173.593465 
L 282.6 173.092677 
L 284.04 172.3814 
L 285.84 171.209279 
L 287.64 169.74191 
L 289.44 168.003431 
L 291.6 165.597729 
L 294.12 162.41512 
L 297 158.386231 
L 300.6 152.949464 
L 313.56 132.961582 
L 317.16 128.025368 
L 320.04 124.421962 
L 322.92 121.166362 
L 325.44 118.625178 
L 327.96 116.385903 
L 330.48 114.45922 
L 332.64 113.062665 
L 334.8 111.905399 
L 336.96 110.990268 
L 339.12 110.319411 
L 341.28 109.894409 
L 343.44 109.716401 
L 345.24 109.757296 
L 345.24 109.757296 
" clip-path="url(#p3a0b28b352)" style="fill: none; stroke-dasharray: 7.4,3.2; stroke-dashoffset: 0; stroke: #55a868; stroke-opacity: 0.75; stroke-width: 2"/>
   </g>
   <g id="line2d_38">
    <path d="M 86.4 198.860622 
L 88.56 196.511594 
L 90.72 194.475888 
L 92.88 192.755256 
L 95.04 191.350516 
L 96.84 190.420863 
L 98.64 189.709235 
L 100.44 189.213745 
L 102.24 188.931302 
L 104.04 188.85767 
L 105.84 188.987343 
L 107.64 189.313237 
L 109.8 189.950633 
L 111.96 190.838691 
L 114.12 191.954042 
L 116.64 193.504432 
L 119.52 195.537903 
L 123.84 198.900872 
L 129.24 203.073714 
L 132.12 204.997383 
L 134.28 206.188623 
L 136.08 206.969755 
L 137.88 207.525311 
L 139.68 207.827391 
L 141.12 207.870483 
L 142.56 207.726043 
L 144 207.386101 
L 145.44 206.844857 
L 146.88 206.098931 
L 148.68 204.877199 
L 150.48 203.336866 
L 152.28 201.48627 
L 154.08 199.338856 
L 156.24 196.395728 
L 158.4 193.089921 
L 160.92 188.835586 
L 163.8 183.547779 
L 167.76 175.761348 
L 179.64 151.948533 
L 181.44 148.882196 
L 182.52 147.398785 
L 183.24 146.704583 
L 183.96 146.409799 
L 184.32 146.490708 
L 185.04 147.112429 
L 186.84 149.171779 
L 189 152.008773 
L 191.16 155.269003 
L 193.32 159.003719 
L 195.48 163.268021 
L 197.64 168.120031 
L 199.8 173.616378 
L 201.96 179.7925 
L 204.48 187.789252 
L 208.08 199.485048 
L 209.16 202.34651 
L 209.88 203.795558 
L 210.6 204.684251 
L 210.96 204.847695 
L 211.32 204.763635 
L 212.04 203.944377 
L 214.92 200.151749 
L 217.08 197.647069 
L 219.24 195.454476 
L 221.4 193.576107 
L 223.56 192.013411 
L 225.72 190.766477 
L 227.52 189.967852 
L 229.32 189.386158 
L 231.12 189.018934 
L 232.92 188.862402 
L 234.72 188.91148 
L 236.52 189.159845 
L 238.68 189.70931 
L 240.84 190.516151 
L 243 191.558625 
L 245.52 193.036842 
L 248.4 195.008054 
L 252.36 198.041764 
L 259.2 203.330891 
L 261.72 204.997383 
L 263.88 206.188623 
L 265.68 206.969755 
L 267.48 207.525311 
L 269.28 207.827391 
L 270.72 207.870483 
L 272.16 207.726043 
L 273.6 207.386101 
L 275.04 206.844857 
L 276.48 206.098931 
L 278.28 204.877199 
L 280.08 203.336866 
L 281.88 201.48627 
L 283.68 199.338856 
L 285.84 196.395728 
L 288 193.089921 
L 290.52 188.835586 
L 293.4 183.547779 
L 297.36 175.761348 
L 309.24 151.948533 
L 311.04 148.882196 
L 312.12 147.398785 
L 312.84 146.704583 
L 313.56 146.409799 
L 313.92 146.490708 
L 314.64 147.112429 
L 316.44 149.171779 
L 318.6 152.008773 
L 320.76 155.269003 
L 322.92 159.003719 
L 325.08 163.268021 
L 327.24 168.120031 
L 329.4 173.616378 
L 331.56 179.7925 
L 334.08 187.789252 
L 337.68 199.485048 
L 338.76 202.34651 
L 339.48 203.795558 
L 340.2 204.684251 
L 340.56 204.847695 
L 340.92 204.763635 
L 341.64 203.944377 
L 344.52 200.151749 
L 345.24 199.282392 
L 345.24 199.282392 
" clip-path="url(#p3a0b28b352)" style="fill: none; stroke: #55a868; stroke-width: 2; stroke-linecap: round"/>
   </g>
   <g id="patch_3">
    <path d="M 86.4 345.6 
L 86.4 86.4 
" style="fill: none; stroke: #262626; stroke-width: 1.25; stroke-linejoin: miter; stroke-linecap: square"/>
   </g>
   <g id="patch_4">
    <path d="M 86.4 345.6 
L 345.6 345.6 
" style="fill: none; stroke: #262626; stroke-width: 1.25; stroke-linejoin: miter; stroke-linecap: square"/>
   </g>
   <g id="legend_1">
    <g id="patch_5">
     <path d="M 239.62 338.6 
L 335.8 338.6 
Q 338.6 338.6 338.6 335.8 
L 338.6 277.789688 
Q 338.6 274.989688 335.8 274.989688 
L 239.62 274.989688 
Q 236.82 274.989688 236.82 277.789688 
L 236.82 335.8 
Q 236.82 338.6 239.62 338.6 
z
" style="fill: #ffffff; opacity: 0.8; stroke: #cccccc; stroke-linejoin: miter"/>
    </g>
    <g id="line2d_39">
     <path d="M 242.42 285.710625 
L 256.42 285.710625 
L 270.42 285.710625 
" style="fill: none; stroke: #dd8452; stroke-width: 2; stroke-linecap: round"/>
    </g>
    <g id="text_19">
     <!-- $\it{k}$ = 0.23 -->
     <g style="fill: #262626" transform="translate(281.62 290.610625)">
      <text>
       <tspan style="font: oblique 14px 'DejaVu Sans'" x="0" y="-0.359375">k</tspan>
       <tspan style="font: 14px 'Arial'" x="8.107422 11.99707 20.172852 24.0625 31.848633 35.738281 43.524414" y="-0.359375"> = 0.23</tspan>
      </text>
     </g>
    </g>
    <g id="line2d_40">
     <path d="M 242.42 305.514063 
L 256.42 305.514063 
L 270.42 305.514063 
" style="fill: none; stroke: #4c72b0; stroke-width: 2; stroke-linecap: round"/>
    </g>
    <g id="text_20">
     <!-- $\it{k}$ = 0.41 -->
     <g style="fill: #262626" transform="translate(281.62 310.414062)">
      <text>
       <tspan style="font: oblique 14px 'DejaVu Sans'" x="0" y="-0.359375">k</tspan>
       <tspan style="font: 14px 'Arial'" x="8.107422 11.99707 20.172852 24.0625 31.848633 35.738281 43.524414" y="-0.359375"> = 0.41</tspan>
      </text>
     </g>
    </g>
    <g id="line2d_41">
     <path d="M 242.42 325.3175 
L 256.42 325.3175 
L 270.42 325.3175 
" style="fill: none; stroke: #55a868; stroke-width: 2; stroke-linecap: round"/>
    </g>
    <g id="text_21">
     <!-- $\it{k}$ = 0.6 -->
     <g style="fill: #262626" transform="translate(281.62 330.2175)">
      <text>
       <tspan style="font: oblique 14px 'DejaVu Sans'" x="0" y="-0.359375">k</tspan>
       <tspan style="font: 14px 'Arial'" x="8.107422 11.99707 20.172852 24.0625 31.848633 35.738281" y="-0.359375"> = 0.6</tspan>
      </text>
     </g>
    </g>
   </g>
  </g>
 </g>
 <defs>
  <clipPath id="p3a0b28b352">
   <rect x="86.4" y="86.4" width="259.2" height="259.2"/>
  </clipPath>
 </defs>
</svg>
