<?xml version="1.0" encoding="utf-8" standalone="no"?>
<!DOCTYPE svg PUBLIC "-//W3C//DTD SVG 1.1//EN"
  "http://www.w3.org/Graphics/SVG/1.1/DTD/svg11.dtd">
<svg xmlns:xlink="http://www.w3.org/1999/xlink" width="432pt" height="432pt" viewBox="0 0 432 432" xmlns="http://www.w3.org/2000/svg" version="1.1">
 <metadata>
  <rdf:RDF xmlns:dc="http://purl.org/dc/elements/1.1/" xmlns:cc="http://creativecommons.org/ns#" xmlns:rdf="http://www.w3.org/1999/02/22-rdf-syntax-ns#">
   <cc:Work>
    <dc:type rdf:resource="http://purl.org/dc/dcmitype/StillImage"/>
    <dc:date>2024-06-21T17:57:47.878223</dc:date>
    <dc:format>image/svg+xml</dc:format>
    <dc:creator>
     <cc:Agent>
      <dc:title>Matplotlib v3.8.4, https://matplotlib.org/</dc:title>
     </cc:Agent>
    </dc:creator>
   </cc:Work>
  </rdf:RDF>
 </metadata>
 <defs>
  <style type="text/css">*{stroke-linejoin: round; stroke-linecap: butt}</style>
 </defs>
 <g id="figure_1">
  <g id="patch_1">
   <path d="M 0 432 
L 432 432 
L 432 0 
L 0 0 
L 0 432 
z
" style="fill: none"/>
  </g>
  <g id="axes_1">
   <g id="patch_2">
    <path d="M 86.4 345.6 
L 345.6 345.6 
L 345.6 86.4 
L 86.4 86.4 
L 86.4 345.6 
z
" style="fill: none"/>
   </g>
   <g id="matplotlib.axis_1">
    <g id="xtick_1">
     <g id="line2d_1">
      <defs>
       <path id="m854529c3e6" d="M 0 0 
L 0 6 
" style="stroke: #262626; stroke-width: 1.25"/>
      </defs>
      <g>
       <use xlink:href="#m854529c3e6" x="86.4" y="345.6" style="fill: #262626; stroke: #262626; stroke-width: 1.25"/>
      </g>
     </g>
     <g id="text_1">
      <text style="fill: #262626; font: 16px 'Arial', 'DejaVu Sans', 'Liberation Sans', 'Bitstream Vera Sans', sans-serif; text-anchor: middle" x="86.4" y="366.5525" transform="rotate(-0 86.4 366.5525)">Jan</text>
     </g>
    </g>
    <g id="xtick_2">
     <g id="line2d_2">
      <g>
       <use xlink:href="#m854529c3e6" x="97.2" y="345.6" style="fill: #262626; stroke: #262626; stroke-width: 1.25"/>
      </g>
     </g>
    </g>
    <g id="xtick_3">
     <g id="line2d_3">
      <g>
       <use xlink:href="#m854529c3e6" x="108" y="345.6" style="fill: #262626; stroke: #262626; stroke-width: 1.25"/>
      </g>
     </g>
    </g>
    <g id="xtick_4">
     <g id="line2d_4">
      <g>
       <use xlink:href="#m854529c3e6" x="118.8" y="345.6" style="fill: #262626; stroke: #262626; stroke-width: 1.25"/>
      </g>
     </g>
     <g id="text_2">
      <text style="fill: #262626; font: 16px 'Arial', 'DejaVu Sans', 'Liberation Sans', 'Bitstream Vera Sans', sans-serif; text-anchor: middle" x="118.8" y="366.5525" transform="rotate(-0 118.8 366.5525)">Apr</text>
     </g>
    </g>
    <g id="xtick_5">
     <g id="line2d_5">
      <g>
       <use xlink:href="#m854529c3e6" x="129.6" y="345.6" style="fill: #262626; stroke: #262626; stroke-width: 1.25"/>
      </g>
     </g>
    </g>
    <g id="xtick_6">
     <g id="line2d_6">
      <g>
       <use xlink:href="#m854529c3e6" x="140.4" y="345.6" style="fill: #262626; stroke: #262626; stroke-width: 1.25"/>
      </g>
     </g>
    </g>
    <g id="xtick_7">
     <g id="line2d_7">
      <g>
       <use xlink:href="#m854529c3e6" x="151.2" y="345.6" style="fill: #262626; stroke: #262626; stroke-width: 1.25"/>
      </g>
     </g>
     <g id="text_3">
      <text style="fill: #262626; font: 16px 'Arial', 'DejaVu Sans', 'Liberation Sans', 'Bitstream Vera Sans', sans-serif; text-anchor: middle" x="151.2" y="366.5525" transform="rotate(-0 151.2 366.5525)">Jul</text>
     </g>
    </g>
    <g id="xtick_8">
     <g id="line2d_8">
      <g>
       <use xlink:href="#m854529c3e6" x="162" y="345.6" style="fill: #262626; stroke: #262626; stroke-width: 1.25"/>
      </g>
     </g>
    </g>
    <g id="xtick_9">
     <g id="line2d_9">
      <g>
       <use xlink:href="#m854529c3e6" x="172.8" y="345.6" style="fill: #262626; stroke: #262626; stroke-width: 1.25"/>
      </g>
     </g>
    </g>
    <g id="xtick_10">
     <g id="line2d_10">
      <g>
       <use xlink:href="#m854529c3e6" x="183.6" y="345.6" style="fill: #262626; stroke: #262626; stroke-width: 1.25"/>
      </g>
     </g>
     <g id="text_4">
      <text style="fill: #262626; font: 16px 'Arial', 'DejaVu Sans', 'Liberation Sans', 'Bitstream Vera Sans', sans-serif; text-anchor: middle" x="183.6" y="366.5525" transform="rotate(-0 183.6 366.5525)">Oct</text>
     </g>
    </g>
    <g id="xtick_11">
     <g id="line2d_11">
      <g>
       <use xlink:href="#m854529c3e6" x="194.4" y="345.6" style="fill: #262626; stroke: #262626; stroke-width: 1.25"/>
      </g>
     </g>
    </g>
    <g id="xtick_12">
     <g id="line2d_12">
      <g>
       <use xlink:href="#m854529c3e6" x="205.2" y="345.6" style="fill: #262626; stroke: #262626; stroke-width: 1.25"/>
      </g>
     </g>
    </g>
    <g id="xtick_13">
     <g id="line2d_13">
      <g>
       <use xlink:href="#m854529c3e6" x="216" y="345.6" style="fill: #262626; stroke: #262626; stroke-width: 1.25"/>
      </g>
     </g>
     <g id="text_5">
      <text style="fill: #262626; font: 16px 'Arial', 'DejaVu Sans', 'Liberation Sans', 'Bitstream Vera Sans', sans-serif; text-anchor: middle" x="216" y="366.5525" transform="rotate(-0 216 366.5525)">Jan</text>
     </g>
    </g>
    <g id="xtick_14">
     <g id="line2d_14">
      <g>
       <use xlink:href="#m854529c3e6" x="226.8" y="345.6" style="fill: #262626; stroke: #262626; stroke-width: 1.25"/>
      </g>
     </g>
    </g>
    <g id="xtick_15">
     <g id="line2d_15">
      <g>
       <use xlink:href="#m854529c3e6" x="237.6" y="345.6" style="fill: #262626; stroke: #262626; stroke-width: 1.25"/>
      </g>
     </g>
    </g>
    <g id="xtick_16">
     <g id="line2d_16">
      <g>
       <use xlink:href="#m854529c3e6" x="248.4" y="345.6" style="fill: #262626; stroke: #262626; stroke-width: 1.25"/>
      </g>
     </g>
     <g id="text_6">
      <text style="fill: #262626; font: 16px 'Arial', 'DejaVu Sans', 'Liberation Sans', 'Bitstream Vera Sans', sans-serif; text-anchor: middle" x="248.4" y="366.5525" transform="rotate(-0 248.4 366.5525)">Apr</text>
     </g>
    </g>
    <g id="xtick_17">
     <g id="line2d_17">
      <g>
       <use xlink:href="#m854529c3e6" x="259.2" y="345.6" style="fill: #262626; stroke: #262626; stroke-width: 1.25"/>
      </g>
     </g>
    </g>
    <g id="xtick_18">
     <g id="line2d_18">
      <g>
       <use xlink:href="#m854529c3e6" x="270" y="345.6" style="fill: #262626; stroke: #262626; stroke-width: 1.25"/>
      </g>
     </g>
    </g>
    <g id="xtick_19">
     <g id="line2d_19">
      <g>
       <use xlink:href="#m854529c3e6" x="280.8" y="345.6" style="fill: #262626; stroke: #262626; stroke-width: 1.25"/>
      </g>
     </g>
     <g id="text_7">
      <text style="fill: #262626; font: 16px 'Arial', 'DejaVu Sans', 'Liberation Sans', 'Bitstream Vera Sans', sans-serif; text-anchor: middle" x="280.8" y="366.5525" transform="rotate(-0 280.8 366.5525)">Jul</text>
     </g>
    </g>
    <g id="xtick_20">
     <g id="line2d_20">
      <g>
       <use xlink:href="#m854529c3e6" x="291.6" y="345.6" style="fill: #262626; stroke: #262626; stroke-width: 1.25"/>
      </g>
     </g>
    </g>
    <g id="xtick_21">
     <g id="line2d_21">
      <g>
       <use xlink:href="#m854529c3e6" x="302.4" y="345.6" style="fill: #262626; stroke: #262626; stroke-width: 1.25"/>
      </g>
     </g>
    </g>
    <g id="xtick_22">
     <g id="line2d_22">
      <g>
       <use xlink:href="#m854529c3e6" x="313.2" y="345.6" style="fill: #262626; stroke: #262626; stroke-width: 1.25"/>
      </g>
     </g>
     <g id="text_8">
      <text style="fill: #262626; font: 16px 'Arial', 'DejaVu Sans', 'Liberation Sans', 'Bitstream Vera Sans', sans-serif; text-anchor: middle" x="313.2" y="366.5525" transform="rotate(-0 313.2 366.5525)">Oct</text>
     </g>
    </g>
    <g id="xtick_23">
     <g id="line2d_23">
      <g>
       <use xlink:href="#m854529c3e6" x="324" y="345.6" style="fill: #262626; stroke: #262626; stroke-width: 1.25"/>
      </g>
     </g>
    </g>
    <g id="xtick_24">
     <g id="line2d_24">
      <g>
       <use xlink:href="#m854529c3e6" x="334.8" y="345.6" style="fill: #262626; stroke: #262626; stroke-width: 1.25"/>
      </g>
     </g>
    </g>
    <g id="xtick_25">
     <g id="line2d_25">
      <g>
       <use xlink:href="#m854529c3e6" x="345.6" y="345.6" style="fill: #262626; stroke: #262626; stroke-width: 1.25"/>
      </g>
     </g>
     <g id="text_9">
      <text style="fill: #262626; font: 16px 'Arial', 'DejaVu Sans', 'Liberation Sans', 'Bitstream Vera Sans', sans-serif; text-anchor: middle" x="345.6" y="366.5525" transform="rotate(-0 345.6 366.5525)">Jan</text>
     </g>
    </g>
    <g id="text_10">
     <text style="fill: #262626; font: 16px 'Arial', 'DejaVu Sans', 'Liberation Sans', 'Bitstream Vera Sans', sans-serif; text-anchor: middle" x="216" y="385.185" transform="rotate(-0 216 385.185)"> </text>
    </g>
   </g>
   <g id="matplotlib.axis_2">
    <g id="ytick_1">
     <g id="line2d_26">
      <defs>
       <path id="mb95805b755" d="M 0 0 
L -6 0 
" style="stroke: #262626; stroke-width: 1.25"/>
      </defs>
      <g>
       <use xlink:href="#mb95805b755" x="86.4" y="345.6" style="fill: #262626; stroke: #262626; stroke-width: 1.25"/>
      </g>
     </g>
     <g id="text_11">
      <text style="fill: #262626; font: 16px 'Arial', 'DejaVu Sans', 'Liberation Sans', 'Bitstream Vera Sans', sans-serif; text-anchor: end" x="76.9" y="351.32625" transform="rotate(-0 76.9 351.32625)">0.0</text>
     </g>
    </g>
    <g id="ytick_2">
     <g id="line2d_27">
      <g>
       <use xlink:href="#mb95805b755" x="86.4" y="302.4" style="fill: #262626; stroke: #262626; stroke-width: 1.25"/>
      </g>
     </g>
     <g id="text_12">
      <text style="fill: #262626; font: 16px 'Arial', 'DejaVu Sans', 'Liberation Sans', 'Bitstream Vera Sans', sans-serif; text-anchor: end" x="76.9" y="308.12625" transform="rotate(-0 76.9 308.12625)">0.1</text>
     </g>
    </g>
    <g id="ytick_3">
     <g id="line2d_28">
      <g>
       <use xlink:href="#mb95805b755" x="86.4" y="259.2" style="fill: #262626; stroke: #262626; stroke-width: 1.25"/>
      </g>
     </g>
     <g id="text_13">
      <text style="fill: #262626; font: 16px 'Arial', 'DejaVu Sans', 'Liberation Sans', 'Bitstream Vera Sans', sans-serif; text-anchor: end" x="76.9" y="264.92625" transform="rotate(-0 76.9 264.92625)">0.2</text>
     </g>
    </g>
    <g id="ytick_4">
     <g id="line2d_29">
      <g>
       <use xlink:href="#mb95805b755" x="86.4" y="216" style="fill: #262626; stroke: #262626; stroke-width: 1.25"/>
      </g>
     </g>
     <g id="text_14">
      <text style="fill: #262626; font: 16px 'Arial', 'DejaVu Sans', 'Liberation Sans', 'Bitstream Vera Sans', sans-serif; text-anchor: end" x="76.9" y="221.72625" transform="rotate(-0 76.9 221.72625)">0.3</text>
     </g>
    </g>
    <g id="ytick_5">
     <g id="line2d_30">
      <g>
       <use xlink:href="#mb95805b755" x="86.4" y="172.8" style="fill: #262626; stroke: #262626; stroke-width: 1.25"/>
      </g>
     </g>
     <g id="text_15">
      <text style="fill: #262626; font: 16px 'Arial', 'DejaVu Sans', 'Liberation Sans', 'Bitstream Vera Sans', sans-serif; text-anchor: end" x="76.9" y="178.52625" transform="rotate(-0 76.9 178.52625)">0.4</text>
     </g>
    </g>
    <g id="ytick_6">
     <g id="line2d_31">
      <g>
       <use xlink:href="#mb95805b755" x="86.4" y="129.6" style="fill: #262626; stroke: #262626; stroke-width: 1.25"/>
      </g>
     </g>
     <g id="text_16">
      <text style="fill: #262626; font: 16px 'Arial', 'DejaVu Sans', 'Liberation Sans', 'Bitstream Vera Sans', sans-serif; text-anchor: end" x="76.9" y="135.32625" transform="rotate(-0 76.9 135.32625)">0.5</text>
     </g>
    </g>
    <g id="ytick_7">
     <g id="line2d_32">
      <g>
       <use xlink:href="#mb95805b755" x="86.4" y="86.4" style="fill: #262626; stroke: #262626; stroke-width: 1.25"/>
      </g>
     </g>
     <g id="text_17">
      <text style="fill: #262626; font: 16px 'Arial', 'DejaVu Sans', 'Liberation Sans', 'Bitstream Vera Sans', sans-serif; text-anchor: end" x="76.9" y="92.12625" transform="rotate(-0 76.9 92.12625)">0.6</text>
     </g>
    </g>
    <g id="text_18">
     <text style="fill: #262626; font: 16px 'Arial', 'DejaVu Sans', 'Liberation Sans', 'Bitstream Vera Sans', sans-serif; text-anchor: middle" x="47.48" y="216" transform="rotate(-90 47.48 216)">Outbreak risk</text>
    </g>
   </g>
   <g id="PolyCollection_1">
    <defs>
     <path id="m718c7c4e9f" d="M 210.6 -86.4 
L 183.6 -86.4 
L 183.6 -345.6 
L 210.6 -345.6 
L 210.6 -345.6 
L 210.6 -86.4 
z
"/>
    </defs>
    <g clip-path="url(#p7212a1d643)">
     <use xlink:href="#m718c7c4e9f" x="0" y="432" style="fill: #808080; fill-opacity: 0.5"/>
    </g>
   </g>
   <g id="PolyCollection_2">
    <defs>
     <path id="m362d118408" d="M 340.2 -86.4 
L 313.2 -86.4 
L 313.2 -345.6 
L 340.2 -345.6 
L 340.2 -345.6 
L 340.2 -86.4 
z
"/>
    </defs>
    <g clip-path="url(#p7212a1d643)">
     <use xlink:href="#m362d118408" x="0" y="432" style="fill: #808080; fill-opacity: 0.5"/>
    </g>
   </g>
   <g id="line2d_33">
    <path d="M 86.4 211.2194 
L 88.92 211.50087 
L 91.44 212.012661 
L 93.96 212.753061 
L 96.48 213.719159 
L 99 214.906643 
L 101.88 216.527106 
L 104.76 218.416722 
L 107.64 220.559174 
L 110.88 223.244763 
L 114.48 226.523245 
L 118.8 230.76681 
L 131.4 243.38321 
L 134.28 245.876384 
L 136.8 247.802001 
L 139.32 249.435553 
L 141.48 250.569402 
L 143.64 251.43301 
L 145.44 251.933668 
L 147.24 252.228054 
L 149.04 252.312848 
L 150.84 252.188007 
L 152.64 251.856688 
L 154.44 251.325079 
L 156.6 250.435556 
L 158.76 249.290723 
L 161.28 247.664943 
L 163.8 245.768649 
L 166.68 243.331388 
L 170.28 239.987644 
L 176.04 234.28173 
L 182.88 227.559412 
L 186.84 223.951845 
L 190.44 220.961638 
L 193.68 218.555601 
L 196.56 216.671192 
L 199.44 215.044723 
L 202.32 213.690012 
L 204.84 212.735941 
L 207.36 212.003423 
L 209.88 211.496464 
L 212.4 211.21789 
L 214.92 211.16947 
L 217.44 211.351977 
L 219.96 211.765204 
L 222.48 212.407911 
L 225 213.277722 
L 227.52 214.370954 
L 230.4 215.887156 
L 233.28 217.677509 
L 236.16 219.727362 
L 239.4 222.319277 
L 243 225.510836 
L 246.96 229.323122 
L 253.44 235.932949 
L 259.2 241.700763 
L 262.44 244.664218 
L 265.32 247.009659 
L 267.84 248.774245 
L 270 250.034951 
L 272.16 251.036204 
L 273.96 251.657677 
L 275.76 252.076434 
L 277.56 252.287198 
L 279.36 252.287961 
L 281.16 252.079975 
L 282.96 251.667637 
L 285.12 250.913595 
L 287.28 249.893624 
L 289.44 248.630008 
L 291.96 246.882656 
L 294.84 244.581827 
L 298.08 241.692987 
L 302.4 237.521132 
L 313.92 226.214358 
L 317.88 222.718884 
L 321.12 220.127686 
L 324.36 217.819752 
L 327.24 216.030219 
L 330.12 214.504228 
L 333 213.254306 
L 335.52 212.394613 
L 338.04 211.758345 
L 340.56 211.348983 
L 343.08 211.168889 
L 345.24 211.198041 
L 345.24 211.198041 
" clip-path="url(#p7212a1d643)" style="fill: none; stroke-dasharray: 7.4,3.2; stroke-dashoffset: 0; stroke: #de8f05; stroke-opacity: 0.75; stroke-width: 2"/>
   </g>
   <g id="line2d_34">
    <path d="M 86.4 266.979876 
L 88.92 265.448817 
L 91.44 264.162315 
L 93.96 263.123748 
L 96.48 262.334932 
L 99 261.795865 
L 101.52 261.504187 
L 104.04 261.454627 
L 106.56 261.638611 
L 109.08 262.043751 
L 111.96 262.755602 
L 114.84 263.700947 
L 118.08 264.990294 
L 122.76 267.12264 
L 129.6 270.255958 
L 132.84 271.481813 
L 135.36 272.216507 
L 137.88 272.704534 
L 140.04 272.893004 
L 142.2 272.845209 
L 144.36 272.543869 
L 146.52 271.977604 
L 148.68 271.141323 
L 150.84 270.036065 
L 153 268.668954 
L 155.16 267.052701 
L 157.68 264.875995 
L 160.56 262.048449 
L 163.8 258.509175 
L 167.76 253.807728 
L 174.6 245.236187 
L 179.28 239.519971 
L 181.44 237.217245 
L 182.52 236.321138 
L 183.24 235.914395 
L 183.96 235.756248 
L 184.68 235.982166 
L 186.48 237.218023 
L 189 239.250376 
L 191.16 241.267454 
L 193.32 243.567184 
L 195.48 246.177725 
L 197.64 249.126832 
L 199.8 252.437842 
L 202.32 256.762683 
L 205.56 262.874568 
L 208.08 267.455977 
L 209.16 269.036187 
L 209.88 269.823225 
L 210.6 270.294402 
L 210.96 270.374438 
L 211.32 270.31908 
L 212.04 269.853281 
L 215.28 267.461594 
L 217.8 265.861502 
L 220.32 264.504712 
L 222.84 263.395032 
L 225.36 262.534777 
L 227.88 261.924482 
L 230.4 261.56254 
L 232.92 261.44453 
L 235.44 261.562859 
L 237.96 261.906326 
L 240.48 262.459312 
L 243.36 263.321553 
L 246.6 264.538004 
L 250.56 266.278532 
L 260.28 270.693642 
L 263.16 271.714065 
L 265.68 272.38317 
L 267.84 272.75145 
L 270 272.901984 
L 272.16 272.812978 
L 274.32 272.468104 
L 276.48 271.857021 
L 278.64 270.975676 
L 280.8 269.82612 
L 282.96 268.416459 
L 285.12 266.760274 
L 287.64 264.541312 
L 290.52 261.672363 
L 293.76 258.096512 
L 297.72 253.365748 
L 310.32 237.932305 
L 311.76 236.589373 
L 312.84 235.914395 
L 313.56 235.756248 
L 314.28 235.982166 
L 316.08 237.218023 
L 318.6 239.250376 
L 320.76 241.267454 
L 322.92 243.567184 
L 325.08 246.177725 
L 327.24 249.126832 
L 329.4 252.437842 
L 331.92 256.762683 
L 335.16 262.874568 
L 337.68 267.455977 
L 338.76 269.036187 
L 339.48 269.823225 
L 340.2 270.294402 
L 340.56 270.374438 
L 340.92 270.31908 
L 341.64 269.853281 
L 344.88 267.461594 
L 345.24 267.218294 
L 345.24 267.218294 
" clip-path="url(#p7212a1d643)" style="fill: none; stroke: #de8f05; stroke-width: 2; stroke-linecap: round"/>
   </g>
   <g id="line2d_35">
    <path d="M 86.4 151.506152 
L 88.56 151.796745 
L 90.72 152.309573 
L 92.88 153.043916 
L 95.04 153.99843 
L 97.2 155.171035 
L 99.72 156.810691 
L 102.24 158.736472 
L 104.76 160.939206 
L 107.64 163.779727 
L 110.52 166.940938 
L 113.76 170.839066 
L 117.36 175.520388 
L 122.4 182.476379 
L 129.6 192.424251 
L 132.84 196.528517 
L 135.36 199.40968 
L 137.52 201.598305 
L 139.68 203.479931 
L 141.48 204.784532 
L 143.28 205.828801 
L 145.08 206.597355 
L 146.88 207.079267 
L 148.32 207.2541 
L 149.76 207.24051 
L 151.2 207.039554 
L 152.64 206.654206 
L 154.44 205.920692 
L 156.24 204.919725 
L 158.04 203.667971 
L 160.2 201.862788 
L 162.36 199.763653 
L 164.88 196.999529 
L 167.76 193.511179 
L 171.72 188.327764 
L 184.32 171.508621 
L 187.92 167.219902 
L 191.16 163.714196 
L 194.04 160.920464 
L 196.92 158.457298 
L 199.44 156.58883 
L 201.96 154.998732 
L 204.48 153.694761 
L 206.64 152.809294 
L 208.8 152.141156 
L 210.96 151.692438 
L 213.12 151.464636 
L 215.28 151.458719 
L 217.44 151.675168 
L 219.6 152.11397 
L 221.76 152.774592 
L 223.92 153.655907 
L 226.08 154.756098 
L 228.6 156.312689 
L 231.12 158.157534 
L 233.64 160.282247 
L 236.16 162.675456 
L 239.04 165.719802 
L 242.28 169.502763 
L 245.88 174.083117 
L 250.2 179.958211 
L 260.28 193.833369 
L 263.16 197.383672 
L 265.68 200.17064 
L 267.84 202.261715 
L 270 204.031854 
L 271.8 205.234436 
L 273.6 206.170024 
L 275.4 206.824971 
L 276.84 207.140624 
L 278.28 207.268359 
L 279.72 207.207752 
L 281.16 206.960346 
L 282.96 206.393817 
L 284.76 205.551542 
L 286.56 204.448075 
L 288.36 203.10138 
L 290.52 201.193713 
L 293.04 198.616936 
L 295.92 195.293174 
L 299.16 191.197445 
L 304.2 184.411655 
L 311.76 174.246966 
L 315.72 169.317032 
L 318.96 165.616979 
L 321.84 162.629299 
L 324.72 159.95686 
L 327.24 157.895585 
L 329.76 156.105732 
L 332.28 154.596684 
L 334.8 153.375614 
L 336.96 152.562317 
L 339.12 151.967119 
L 341.28 151.5919 
L 343.44 151.437976 
L 345.24 151.479346 
L 345.24 151.479346 
" clip-path="url(#p7212a1d643)" style="fill: none; stroke-dasharray: 7.4,3.2; stroke-dashoffset: 0; stroke: #0173b2; stroke-opacity: 0.75; stroke-width: 2"/>
   </g>
   <g id="line2d_36">
    <path d="M 86.4 228.066579 
L 88.92 225.871061 
L 91.08 224.2696 
L 93.24 222.929095 
L 95.4 221.850654 
L 97.56 221.03411 
L 99.72 220.477928 
L 101.88 220.178893 
L 104.04 220.131472 
L 106.2 220.327939 
L 108.36 220.75772 
L 110.52 221.407023 
L 113.04 222.418679 
L 115.56 223.671157 
L 118.44 225.342669 
L 122.4 227.92038 
L 129.6 232.662568 
L 132.48 234.257389 
L 134.64 235.229937 
L 136.8 235.958161 
L 138.6 236.347258 
L 140.4 236.515135 
L 142.2 236.443685 
L 144 236.118797 
L 145.8 235.530585 
L 147.6 234.67378 
L 149.4 233.547636 
L 151.2 232.155802 
L 153 230.506322 
L 155.16 228.203976 
L 157.32 225.575388 
L 159.84 222.141579 
L 162.72 217.809102 
L 166.32 211.930423 
L 171.36 203.204603 
L 178.56 190.767409 
L 180.72 187.394784 
L 182.16 185.511437 
L 182.88 184.803967 
L 183.6 184.369657 
L 183.96 184.301026 
L 184.32 184.371743 
L 185.04 184.898874 
L 186.84 186.643678 
L 189 189.047169 
L 191.16 191.807312 
L 193.32 194.965088 
L 195.48 198.563721 
L 197.64 202.647567 
L 199.8 207.257531 
L 201.96 212.413344 
L 204.48 219.042855 
L 208.08 228.619749 
L 209.16 230.933931 
L 209.88 232.098328 
L 210.6 232.806433 
L 210.96 232.933509 
L 211.32 232.86167 
L 212.04 232.195084 
L 215.28 228.757963 
L 217.8 226.46258 
L 219.96 224.774487 
L 222.12 223.346859 
L 224.28 222.180999 
L 226.44 221.277239 
L 228.6 220.634558 
L 230.76 220.250291 
L 232.92 220.119764 
L 235.08 220.235918 
L 237.24 220.58932 
L 239.4 221.167195 
L 241.92 222.103416 
L 244.44 223.291044 
L 247.32 224.904454 
L 250.92 227.196428 
L 259.92 233.087688 
L 262.44 234.434477 
L 264.6 235.369498 
L 266.76 236.05269 
L 268.56 236.399164 
L 270.36 236.520501 
L 272.16 236.399364 
L 273.96 236.022453 
L 275.76 235.380802 
L 277.56 234.470042 
L 279.36 233.290324 
L 281.16 231.846189 
L 282.96 230.146495 
L 285.12 227.787694 
L 287.28 225.107858 
L 289.8 221.622046 
L 292.68 217.241621 
L 296.28 211.32143 
L 301.68 201.938943 
L 308.16 190.767409 
L 310.32 187.394784 
L 311.76 185.511437 
L 312.48 184.803967 
L 313.2 184.369657 
L 313.56 184.301026 
L 313.92 184.371743 
L 314.64 184.898874 
L 316.44 186.643678 
L 318.6 189.047169 
L 320.76 191.807312 
L 322.92 194.965088 
L 325.08 198.563721 
L 327.24 202.647567 
L 329.4 207.257531 
L 331.56 212.413344 
L 334.08 219.042855 
L 337.68 228.619749 
L 338.76 230.933931 
L 339.48 232.098328 
L 340.2 232.806433 
L 340.56 232.933509 
L 340.92 232.86167 
L 341.64 232.195084 
L 344.88 228.757963 
L 345.24 228.408729 
L 345.24 228.408729 
" clip-path="url(#p7212a1d643)" style="fill: none; stroke: #0173b2; stroke-width: 2; stroke-linecap: round"/>
   </g>
   <g id="line2d_37">
    <path d="M 86.4 109.786148 
L 88.56 110.104069 
L 90.72 110.670232 
L 92.88 111.484298 
L 95.04 112.545432 
L 97.2 113.852161 
L 99.36 115.402184 
L 101.88 117.513481 
L 104.4 119.943565 
L 106.92 122.681416 
L 109.8 126.167489 
L 112.68 130.004259 
L 115.92 134.686503 
L 119.88 140.818468 
L 132.48 160.712489 
L 135 164.149567 
L 137.16 166.784393 
L 139.32 169.072782 
L 141.12 170.678658 
L 142.92 171.983983 
L 144.36 172.798067 
L 145.8 173.398811 
L 147.24 173.780633 
L 148.68 173.940391 
L 150.12 173.877412 
L 151.56 173.593465 
L 153 173.092677 
L 154.44 172.3814 
L 156.24 171.209279 
L 158.04 169.74191 
L 159.84 168.003431 
L 162 165.597729 
L 164.52 162.41512 
L 167.4 158.386231 
L 171 152.949464 
L 183.96 132.961582 
L 187.56 128.025368 
L 190.44 124.421962 
L 193.32 121.166362 
L 195.84 118.625178 
L 198.36 116.385903 
L 200.88 114.45922 
L 203.04 113.062665 
L 205.2 111.905399 
L 207.36 110.990268 
L 209.52 110.319411 
L 211.68 109.894409 
L 213.84 109.716401 
L 216 109.786148 
L 218.16 110.104069 
L 220.32 110.670232 
L 222.48 111.484298 
L 224.64 112.545432 
L 226.8 113.852161 
L 228.96 115.402184 
L 231.48 117.513481 
L 234 119.943565 
L 236.52 122.681416 
L 239.4 126.167489 
L 242.28 130.004259 
L 245.52 134.686503 
L 249.48 140.818468 
L 262.08 160.712489 
L 264.6 164.149567 
L 266.76 166.784393 
L 268.92 169.072782 
L 270.72 170.678658 
L 272.52 171.983983 
L 273.96 172.798067 
L 275.4 173.398811 
L 276.84 173.780633 
L 278.28 173.940391 
L 279.72 173.877412 
L 281.16 173.593465 
L 282.6 173.092677 
L 284.04 172.3814 
L 285.84 171.209279 
L 287.64 169.74191 
L 289.44 168.003431 
L 291.6 165.597729 
L 294.12 162.41512 
L 297 158.386231 
L 300.6 152.949464 
L 313.56 132.961582 
L 317.16 128.025368 
L 320.04 124.421962 
L 322.92 121.166362 
L 325.44 118.625178 
L 327.96 116.385903 
L 330.48 114.45922 
L 332.64 113.062665 
L 334.8 111.905399 
L 336.96 110.990268 
L 339.12 110.319411 
L 341.28 109.894409 
L 343.44 109.716401 
L 345.24 109.757296 
L 345.24 109.757296 
" clip-path="url(#p7212a1d643)" style="fill: none; stroke-dasharray: 7.4,3.2; stroke-dashoffset: 0; stroke: #029e73; stroke-opacity: 0.75; stroke-width: 2"/>
   </g>
   <g id="line2d_38">
    <path d="M 86.4 198.785967 
L 88.56 196.49067 
L 90.72 194.508774 
L 92.88 192.841683 
L 95.04 191.489905 
L 96.84 190.603755 
L 98.64 189.934954 
L 100.44 189.481568 
L 102.24 189.240499 
L 104.04 189.207546 
L 105.84 189.377273 
L 107.64 189.742711 
L 109.8 190.427094 
L 111.96 191.361817 
L 114.12 192.523729 
L 116.64 194.12853 
L 119.52 196.224317 
L 123.84 199.680272 
L 129.24 203.964121 
L 132.12 205.94153 
L 134.28 207.16922 
L 136.08 207.977611 
L 137.88 208.557227 
L 139.68 208.87985 
L 141.12 208.936671 
L 142.56 208.803464 
L 144 208.472194 
L 145.44 207.937038 
L 146.88 207.19459 
L 148.32 206.243754 
L 150.12 204.764222 
L 151.92 202.968478 
L 153.72 200.86915 
L 155.88 197.973911 
L 158.04 194.704408 
L 160.56 190.477109 
L 163.44 185.199765 
L 167.04 178.121733 
L 174.24 163.310522 
L 178.56 154.66842 
L 180.72 150.715731 
L 182.16 148.490737 
L 182.88 147.644123 
L 183.6 147.112638 
L 183.96 147.020549 
L 184.32 147.093155 
L 185.04 147.696019 
L 186.84 149.707898 
L 189 152.485826 
L 191.16 155.684243 
L 193.32 159.35414 
L 195.48 163.550267 
L 197.64 168.33034 
L 199.8 173.750681 
L 201.96 179.846841 
L 204.48 187.747605 
L 208.08 199.322387 
L 209.16 202.160852 
L 209.88 203.601167 
L 210.6 204.488202 
L 210.96 204.654089 
L 211.32 204.575224 
L 212.04 203.772784 
L 214.92 200.050396 
L 217.08 197.599244 
L 219.24 195.460466 
L 221.4 193.635821 
L 223.56 192.126409 
L 225.36 191.10926 
L 227.16 190.310266 
L 228.96 189.727909 
L 230.76 189.359851 
L 232.56 189.202625 
L 234.36 189.251474 
L 236.16 189.5004 
L 238.32 190.052355 
L 240.48 190.864481 
L 242.64 191.915999 
L 245.16 193.410871 
L 248.04 195.411059 
L 251.64 198.213919 
L 259.56 204.488159 
L 262.08 206.163441 
L 264.24 207.347738 
L 266.04 208.112791 
L 267.84 208.643134 
L 269.64 208.911355 
L 271.08 208.921534 
L 272.52 208.739492 
L 273.96 208.357691 
L 275.4 207.770945 
L 276.84 206.976409 
L 278.64 205.690493 
L 280.44 204.083273 
L 282.24 202.164307 
L 284.04 199.948167 
L 286.2 196.923572 
L 288.72 192.943096 
L 291.24 188.547733 
L 294.48 182.420507 
L 298.8 173.71552 
L 308.16 154.66842 
L 310.32 150.715731 
L 311.76 148.490737 
L 312.48 147.644123 
L 313.2 147.112638 
L 313.56 147.020549 
L 313.92 147.093155 
L 314.64 147.696019 
L 316.44 149.707898 
L 318.6 152.485826 
L 320.76 155.684243 
L 322.92 159.35414 
L 325.08 163.550267 
L 327.24 168.33034 
L 329.4 173.750681 
L 331.56 179.846841 
L 334.08 187.747605 
L 337.68 199.322387 
L 338.76 202.160852 
L 339.48 203.601167 
L 340.2 204.488202 
L 340.56 204.654089 
L 340.92 204.575224 
L 341.64 203.772784 
L 344.52 200.050396 
L 345.24 199.19882 
L 345.24 199.19882 
" clip-path="url(#p7212a1d643)" style="fill: none; stroke: #029e73; stroke-width: 2; stroke-linecap: round"/>
   </g>
   <g id="patch_3">
    <path d="M 86.4 345.6 
L 86.4 86.4 
" style="fill: none; stroke: #262626; stroke-width: 1.25; stroke-linejoin: miter; stroke-linecap: square"/>
   </g>
   <g id="patch_4">
    <path d="M 86.4 345.6 
L 345.6 345.6 
" style="fill: none; stroke: #262626; stroke-width: 1.25; stroke-linejoin: miter; stroke-linecap: square"/>
   </g>
   <g id="legend_1">
    <g id="patch_5">
     <path d="M 239.62 338.6 
L 335.8 338.6 
Q 338.6 338.6 338.6 335.8 
L 338.6 277.789688 
Q 338.6 274.989688 335.8 274.989688 
L 239.62 274.989688 
Q 236.82 274.989688 236.82 277.789688 
L 236.82 335.8 
Q 236.82 338.6 239.62 338.6 
z
" style="fill: #ffffff; opacity: 0.8; stroke: #cccccc; stroke-linejoin: miter"/>
    </g>
    <g id="line2d_39">
     <path d="M 242.42 285.710625 
L 256.42 285.710625 
L 270.42 285.710625 
" style="fill: none; stroke: #de8f05; stroke-width: 2; stroke-linecap: round"/>
    </g>
    <g id="text_19">
     <!-- $\it{k}$ = 0.23 -->
     <g style="fill: #262626" transform="translate(281.62 290.610625)">
      <text>
       <tspan style="font: oblique 14px 'DejaVu Sans'" x="0" y="-0.359375">k</tspan>
       <tspan style="font: 14px 'Arial'" x="8.107422 11.99707 20.172852 24.0625 31.848633 35.738281 43.524414" y="-0.359375"> = 0.23</tspan>
      </text>
     </g>
    </g>
    <g id="line2d_40">
     <path d="M 242.42 305.514063 
L 256.42 305.514063 
L 270.42 305.514063 
" style="fill: none; stroke: #0173b2; stroke-width: 2; stroke-linecap: round"/>
    </g>
    <g id="text_20">
     <!-- $\it{k}$ = 0.41 -->
     <g style="fill: #262626" transform="translate(281.62 310.414062)">
      <text>
       <tspan style="font: oblique 14px 'DejaVu Sans'" x="0" y="-0.359375">k</tspan>
       <tspan style="font: 14px 'Arial'" x="8.107422 11.99707 20.172852 24.0625 31.848633 35.738281 43.524414" y="-0.359375"> = 0.41</tspan>
      </text>
     </g>
    </g>
    <g id="line2d_41">
     <path d="M 242.42 325.3175 
L 256.42 325.3175 
L 270.42 325.3175 
" style="fill: none; stroke: #029e73; stroke-width: 2; stroke-linecap: round"/>
    </g>
    <g id="text_21">
     <!-- $\it{k}$ = 0.6 -->
     <g style="fill: #262626" transform="translate(281.62 330.2175)">
      <text>
       <tspan style="font: oblique 14px 'DejaVu Sans'" x="0" y="-0.359375">k</tspan>
       <tspan style="font: 14px 'Arial'" x="8.107422 11.99707 20.172852 24.0625 31.848633 35.738281" y="-0.359375"> = 0.6</tspan>
      </text>
     </g>
    </g>
   </g>
  </g>
 </g>
 <defs>
  <clipPath id="p7212a1d643">
   <rect x="86.4" y="86.4" width="259.2" height="259.2"/>
  </clipPath>
 </defs>
</svg>
