<?xml version="1.0" encoding="utf-8" standalone="no"?>
<!DOCTYPE svg PUBLIC "-//W3C//DTD SVG 1.1//EN"
  "http://www.w3.org/Graphics/SVG/1.1/DTD/svg11.dtd">
<svg xmlns:xlink="http://www.w3.org/1999/xlink" width="432pt" height="432pt" viewBox="0 0 432 432" xmlns="http://www.w3.org/2000/svg" version="1.1">
 <metadata>
  <rdf:RDF xmlns:dc="http://purl.org/dc/elements/1.1/" xmlns:cc="http://creativecommons.org/ns#" xmlns:rdf="http://www.w3.org/1999/02/22-rdf-syntax-ns#">
   <cc:Work>
    <dc:type rdf:resource="http://purl.org/dc/dcmitype/StillImage"/>
    <dc:date>2024-05-24T16:58:49.225319</dc:date>
    <dc:format>image/svg+xml</dc:format>
    <dc:creator>
     <cc:Agent>
      <dc:title>Matplotlib v3.8.4, https://matplotlib.org/</dc:title>
     </cc:Agent>
    </dc:creator>
   </cc:Work>
  </rdf:RDF>
 </metadata>
 <defs>
  <style type="text/css">*{stroke-linejoin: round; stroke-linecap: butt}</style>
 </defs>
 <g id="figure_1">
  <g id="patch_1">
   <path d="M 0 432 
L 432 432 
L 432 0 
L 0 0 
L 0 432 
z
" style="fill: none"/>
  </g>
  <g id="axes_1">
   <g id="patch_2">
    <path d="M 86.4 345.6 
L 345.6 345.6 
L 345.6 86.4 
L 86.4 86.4 
L 86.4 345.6 
z
" style="fill: none"/>
   </g>
   <g id="matplotlib.axis_1">
    <g id="xtick_1">
     <g id="line2d_1">
      <defs>
       <path id="m0e2fb48fd6" d="M 0 0 
L 0 6 
" style="stroke: #262626; stroke-width: 1.25"/>
      </defs>
      <g>
       <use xlink:href="#m0e2fb48fd6" x="86.4" y="345.6" style="fill: #262626; stroke: #262626; stroke-width: 1.25"/>
      </g>
     </g>
     <g id="text_1">
      <text style="fill: #262626; font: 16px 'Arial', 'DejaVu Sans', 'Liberation Sans', 'Bitstream Vera Sans', sans-serif; text-anchor: middle" x="86.4" y="366.5525" transform="rotate(-0 86.4 366.5525)">Jan</text>
     </g>
    </g>
    <g id="xtick_2">
     <g id="line2d_2">
      <g>
       <use xlink:href="#m0e2fb48fd6" x="97.2" y="345.6" style="fill: #262626; stroke: #262626; stroke-width: 1.25"/>
      </g>
     </g>
    </g>
    <g id="xtick_3">
     <g id="line2d_3">
      <g>
       <use xlink:href="#m0e2fb48fd6" x="108" y="345.6" style="fill: #262626; stroke: #262626; stroke-width: 1.25"/>
      </g>
     </g>
    </g>
    <g id="xtick_4">
     <g id="line2d_4">
      <g>
       <use xlink:href="#m0e2fb48fd6" x="118.8" y="345.6" style="fill: #262626; stroke: #262626; stroke-width: 1.25"/>
      </g>
     </g>
     <g id="text_2">
      <text style="fill: #262626; font: 16px 'Arial', 'DejaVu Sans', 'Liberation Sans', 'Bitstream Vera Sans', sans-serif; text-anchor: middle" x="118.8" y="366.5525" transform="rotate(-0 118.8 366.5525)">Apr</text>
     </g>
    </g>
    <g id="xtick_5">
     <g id="line2d_5">
      <g>
       <use xlink:href="#m0e2fb48fd6" x="129.6" y="345.6" style="fill: #262626; stroke: #262626; stroke-width: 1.25"/>
      </g>
     </g>
    </g>
    <g id="xtick_6">
     <g id="line2d_6">
      <g>
       <use xlink:href="#m0e2fb48fd6" x="140.4" y="345.6" style="fill: #262626; stroke: #262626; stroke-width: 1.25"/>
      </g>
     </g>
    </g>
    <g id="xtick_7">
     <g id="line2d_7">
      <g>
       <use xlink:href="#m0e2fb48fd6" x="151.2" y="345.6" style="fill: #262626; stroke: #262626; stroke-width: 1.25"/>
      </g>
     </g>
     <g id="text_3">
      <text style="fill: #262626; font: 16px 'Arial', 'DejaVu Sans', 'Liberation Sans', 'Bitstream Vera Sans', sans-serif; text-anchor: middle" x="151.2" y="366.5525" transform="rotate(-0 151.2 366.5525)">Jul</text>
     </g>
    </g>
    <g id="xtick_8">
     <g id="line2d_8">
      <g>
       <use xlink:href="#m0e2fb48fd6" x="162" y="345.6" style="fill: #262626; stroke: #262626; stroke-width: 1.25"/>
      </g>
     </g>
    </g>
    <g id="xtick_9">
     <g id="line2d_9">
      <g>
       <use xlink:href="#m0e2fb48fd6" x="172.8" y="345.6" style="fill: #262626; stroke: #262626; stroke-width: 1.25"/>
      </g>
     </g>
    </g>
    <g id="xtick_10">
     <g id="line2d_10">
      <g>
       <use xlink:href="#m0e2fb48fd6" x="183.6" y="345.6" style="fill: #262626; stroke: #262626; stroke-width: 1.25"/>
      </g>
     </g>
     <g id="text_4">
      <text style="fill: #262626; font: 16px 'Arial', 'DejaVu Sans', 'Liberation Sans', 'Bitstream Vera Sans', sans-serif; text-anchor: middle" x="183.6" y="366.5525" transform="rotate(-0 183.6 366.5525)">Oct</text>
     </g>
    </g>
    <g id="xtick_11">
     <g id="line2d_11">
      <g>
       <use xlink:href="#m0e2fb48fd6" x="194.4" y="345.6" style="fill: #262626; stroke: #262626; stroke-width: 1.25"/>
      </g>
     </g>
    </g>
    <g id="xtick_12">
     <g id="line2d_12">
      <g>
       <use xlink:href="#m0e2fb48fd6" x="205.2" y="345.6" style="fill: #262626; stroke: #262626; stroke-width: 1.25"/>
      </g>
     </g>
    </g>
    <g id="xtick_13">
     <g id="line2d_13">
      <g>
       <use xlink:href="#m0e2fb48fd6" x="216" y="345.6" style="fill: #262626; stroke: #262626; stroke-width: 1.25"/>
      </g>
     </g>
     <g id="text_5">
      <text style="fill: #262626; font: 16px 'Arial', 'DejaVu Sans', 'Liberation Sans', 'Bitstream Vera Sans', sans-serif; text-anchor: middle" x="216" y="366.5525" transform="rotate(-0 216 366.5525)">Jan</text>
     </g>
    </g>
    <g id="xtick_14">
     <g id="line2d_14">
      <g>
       <use xlink:href="#m0e2fb48fd6" x="216" y="345.6" style="fill: #262626; stroke: #262626; stroke-width: 1.25"/>
      </g>
     </g>
     <g id="text_6">
      <text style="fill: #262626; font: 16px 'Arial', 'DejaVu Sans', 'Liberation Sans', 'Bitstream Vera Sans', sans-serif; text-anchor: middle" x="216" y="366.5525" transform="rotate(-0 216 366.5525)">Jan</text>
     </g>
    </g>
    <g id="xtick_15">
     <g id="line2d_15">
      <g>
       <use xlink:href="#m0e2fb48fd6" x="226.8" y="345.6" style="fill: #262626; stroke: #262626; stroke-width: 1.25"/>
      </g>
     </g>
    </g>
    <g id="xtick_16">
     <g id="line2d_16">
      <g>
       <use xlink:href="#m0e2fb48fd6" x="237.6" y="345.6" style="fill: #262626; stroke: #262626; stroke-width: 1.25"/>
      </g>
     </g>
    </g>
    <g id="xtick_17">
     <g id="line2d_17">
      <g>
       <use xlink:href="#m0e2fb48fd6" x="248.4" y="345.6" style="fill: #262626; stroke: #262626; stroke-width: 1.25"/>
      </g>
     </g>
     <g id="text_7">
      <text style="fill: #262626; font: 16px 'Arial', 'DejaVu Sans', 'Liberation Sans', 'Bitstream Vera Sans', sans-serif; text-anchor: middle" x="248.4" y="366.5525" transform="rotate(-0 248.4 366.5525)">Apr</text>
     </g>
    </g>
    <g id="xtick_18">
     <g id="line2d_18">
      <g>
       <use xlink:href="#m0e2fb48fd6" x="259.2" y="345.6" style="fill: #262626; stroke: #262626; stroke-width: 1.25"/>
      </g>
     </g>
    </g>
    <g id="xtick_19">
     <g id="line2d_19">
      <g>
       <use xlink:href="#m0e2fb48fd6" x="270" y="345.6" style="fill: #262626; stroke: #262626; stroke-width: 1.25"/>
      </g>
     </g>
    </g>
    <g id="xtick_20">
     <g id="line2d_20">
      <g>
       <use xlink:href="#m0e2fb48fd6" x="280.8" y="345.6" style="fill: #262626; stroke: #262626; stroke-width: 1.25"/>
      </g>
     </g>
     <g id="text_8">
      <text style="fill: #262626; font: 16px 'Arial', 'DejaVu Sans', 'Liberation Sans', 'Bitstream Vera Sans', sans-serif; text-anchor: middle" x="280.8" y="366.5525" transform="rotate(-0 280.8 366.5525)">Jul</text>
     </g>
    </g>
    <g id="xtick_21">
     <g id="line2d_21">
      <g>
       <use xlink:href="#m0e2fb48fd6" x="291.6" y="345.6" style="fill: #262626; stroke: #262626; stroke-width: 1.25"/>
      </g>
     </g>
    </g>
    <g id="xtick_22">
     <g id="line2d_22">
      <g>
       <use xlink:href="#m0e2fb48fd6" x="302.4" y="345.6" style="fill: #262626; stroke: #262626; stroke-width: 1.25"/>
      </g>
     </g>
    </g>
    <g id="xtick_23">
     <g id="line2d_23">
      <g>
       <use xlink:href="#m0e2fb48fd6" x="313.2" y="345.6" style="fill: #262626; stroke: #262626; stroke-width: 1.25"/>
      </g>
     </g>
     <g id="text_9">
      <text style="fill: #262626; font: 16px 'Arial', 'DejaVu Sans', 'Liberation Sans', 'Bitstream Vera Sans', sans-serif; text-anchor: middle" x="313.2" y="366.5525" transform="rotate(-0 313.2 366.5525)">Oct</text>
     </g>
    </g>
    <g id="xtick_24">
     <g id="line2d_24">
      <g>
       <use xlink:href="#m0e2fb48fd6" x="324" y="345.6" style="fill: #262626; stroke: #262626; stroke-width: 1.25"/>
      </g>
     </g>
    </g>
    <g id="xtick_25">
     <g id="line2d_25">
      <g>
       <use xlink:href="#m0e2fb48fd6" x="334.8" y="345.6" style="fill: #262626; stroke: #262626; stroke-width: 1.25"/>
      </g>
     </g>
    </g>
    <g id="xtick_26">
     <g id="line2d_26">
      <g>
       <use xlink:href="#m0e2fb48fd6" x="345.6" y="345.6" style="fill: #262626; stroke: #262626; stroke-width: 1.25"/>
      </g>
     </g>
     <g id="text_10">
      <text style="fill: #262626; font: 16px 'Arial', 'DejaVu Sans', 'Liberation Sans', 'Bitstream Vera Sans', sans-serif; text-anchor: middle" x="345.6" y="366.5525" transform="rotate(-0 345.6 366.5525)">Jan</text>
     </g>
    </g>
    <g id="text_11">
     <text style="fill: #262626; font: 16px 'Arial', 'DejaVu Sans', 'Liberation Sans', 'Bitstream Vera Sans', sans-serif; text-anchor: middle" x="216" y="385.185" transform="rotate(-0 216 385.185)"> </text>
    </g>
   </g>
   <g id="matplotlib.axis_2">
    <g id="ytick_1">
     <g id="line2d_27">
      <defs>
       <path id="m15b377c82e" d="M 0 0 
L -6 0 
" style="stroke: #262626; stroke-width: 1.25"/>
      </defs>
      <g>
       <use xlink:href="#m15b377c82e" x="86.4" y="345.6" style="fill: #262626; stroke: #262626; stroke-width: 1.25"/>
      </g>
     </g>
     <g id="text_12">
      <text style="fill: #262626; font: 16px 'Arial', 'DejaVu Sans', 'Liberation Sans', 'Bitstream Vera Sans', sans-serif; text-anchor: end" x="76.9" y="351.32625" transform="rotate(-0 76.9 351.32625)">0.0</text>
     </g>
    </g>
    <g id="ytick_2">
     <g id="line2d_28">
      <g>
       <use xlink:href="#m15b377c82e" x="86.4" y="293.76" style="fill: #262626; stroke: #262626; stroke-width: 1.25"/>
      </g>
     </g>
     <g id="text_13">
      <text style="fill: #262626; font: 16px 'Arial', 'DejaVu Sans', 'Liberation Sans', 'Bitstream Vera Sans', sans-serif; text-anchor: end" x="76.9" y="299.48625" transform="rotate(-0 76.9 299.48625)">0.1</text>
     </g>
    </g>
    <g id="ytick_3">
     <g id="line2d_29">
      <g>
       <use xlink:href="#m15b377c82e" x="86.4" y="241.92" style="fill: #262626; stroke: #262626; stroke-width: 1.25"/>
      </g>
     </g>
     <g id="text_14">
      <text style="fill: #262626; font: 16px 'Arial', 'DejaVu Sans', 'Liberation Sans', 'Bitstream Vera Sans', sans-serif; text-anchor: end" x="76.9" y="247.64625" transform="rotate(-0 76.9 247.64625)">0.2</text>
     </g>
    </g>
    <g id="ytick_4">
     <g id="line2d_30">
      <g>
       <use xlink:href="#m15b377c82e" x="86.4" y="190.08" style="fill: #262626; stroke: #262626; stroke-width: 1.25"/>
      </g>
     </g>
     <g id="text_15">
      <text style="fill: #262626; font: 16px 'Arial', 'DejaVu Sans', 'Liberation Sans', 'Bitstream Vera Sans', sans-serif; text-anchor: end" x="76.9" y="195.80625" transform="rotate(-0 76.9 195.80625)">0.3</text>
     </g>
    </g>
    <g id="ytick_5">
     <g id="line2d_31">
      <g>
       <use xlink:href="#m15b377c82e" x="86.4" y="138.24" style="fill: #262626; stroke: #262626; stroke-width: 1.25"/>
      </g>
     </g>
     <g id="text_16">
      <text style="fill: #262626; font: 16px 'Arial', 'DejaVu Sans', 'Liberation Sans', 'Bitstream Vera Sans', sans-serif; text-anchor: end" x="76.9" y="143.96625" transform="rotate(-0 76.9 143.96625)">0.4</text>
     </g>
    </g>
    <g id="ytick_6">
     <g id="line2d_32">
      <g>
       <use xlink:href="#m15b377c82e" x="86.4" y="86.4" style="fill: #262626; stroke: #262626; stroke-width: 1.25"/>
      </g>
     </g>
     <g id="text_17">
      <text style="fill: #262626; font: 16px 'Arial', 'DejaVu Sans', 'Liberation Sans', 'Bitstream Vera Sans', sans-serif; text-anchor: end" x="76.9" y="92.12625" transform="rotate(-0 76.9 92.12625)">0.5</text>
     </g>
    </g>
    <g id="text_18">
     <text style="fill: #262626; font: 16px 'Arial', 'DejaVu Sans', 'Liberation Sans', 'Bitstream Vera Sans', sans-serif; text-anchor: middle" x="47.48" y="216" transform="rotate(-90 47.48 216)">Case outbreak risk</text>
    </g>
   </g>
   <g id="PolyCollection_1">
    <defs>
     <path id="m55f7ef7a42" d="M 205.2 -86.4 
L 183.6 -86.4 
L 183.6 -345.6 
L 205.2 -345.6 
L 205.2 -345.6 
L 205.2 -86.4 
z
"/>
    </defs>
    <g clip-path="url(#p3b13b05040)">
     <use xlink:href="#m55f7ef7a42" x="0" y="432" style="fill: #808080; fill-opacity: 0.5"/>
    </g>
   </g>
   <g id="PolyCollection_2">
    <defs>
     <path id="mec90fd694a" d="M 334.8 -86.4 
L 313.2 -86.4 
L 313.2 -345.6 
L 334.8 -345.6 
L 334.8 -345.6 
L 334.8 -86.4 
z
"/>
    </defs>
    <g clip-path="url(#p3b13b05040)">
     <use xlink:href="#mec90fd694a" x="0" y="432" style="fill: #808080; fill-opacity: 0.5"/>
    </g>
   </g>
   <g id="line2d_33">
    <path d="M 86.4 101.317623 
L 88.2 101.668897 
L 90 102.266041 
L 91.8 103.110039 
L 93.6 104.20203 
L 95.4 105.543245 
L 97.2 107.13494 
L 99.36 109.377249 
L 101.52 111.983542 
L 103.68 114.954588 
L 105.84 118.289783 
L 108.36 122.637415 
L 110.88 127.467713 
L 113.4 132.763814 
L 116.28 139.35132 
L 119.52 147.366672 
L 123.48 157.83139 
L 133.2 183.892606 
L 135.72 189.857709 
L 137.88 194.405217 
L 139.68 197.700412 
L 141.12 199.966174 
L 142.56 201.871971 
L 144 203.394837 
L 145.08 204.275067 
L 146.16 204.924966 
L 147.24 205.341376 
L 148.32 205.523048 
L 149.4 205.470598 
L 150.48 205.186428 
L 151.56 204.674629 
L 152.64 203.940862 
L 154.08 202.629687 
L 155.52 200.95704 
L 156.96 198.94678 
L 158.76 196.0001 
L 160.56 192.624672 
L 162.72 188.09335 
L 165.24 182.279446 
L 168.48 174.22837 
L 181.44 141.323768 
L 184.68 134.012555 
L 187.56 128.044472 
L 190.08 123.27327 
L 192.6 118.946672 
L 195.12 115.079633 
L 197.28 112.138025 
L 199.44 109.544507 
L 201.6 107.301024 
L 203.76 105.408472 
L 205.56 104.099616 
L 207.36 103.034623 
L 209.16 102.21343 
L 210.96 101.63602 
L 212.76 101.302487 
L 214.56 101.213084 
L 216.36 101.36825 
L 218.16 101.768627 
L 219.96 102.415057 
L 221.76 103.308559 
L 223.56 104.450294 
L 225.36 105.841506 
L 227.16 107.483442 
L 229.32 109.786321 
L 231.48 112.453383 
L 233.64 115.485207 
L 235.8 118.880903 
L 238.32 123.298206 
L 240.84 128.196289 
L 243.36 133.55699 
L 246.24 140.212165 
L 249.48 148.291586 
L 253.44 158.808009 
L 262.44 182.993801 
L 264.96 189.044831 
L 267.12 193.689476 
L 268.92 197.080916 
L 270.72 199.966174 
L 272.16 201.871971 
L 273.6 203.394837 
L 274.68 204.275067 
L 275.76 204.924966 
L 276.84 205.341376 
L 277.92 205.523048 
L 279 205.470598 
L 280.08 205.186428 
L 281.16 204.674629 
L 282.24 203.940862 
L 283.68 202.629687 
L 285.12 200.95704 
L 286.56 198.94678 
L 288.36 196.0001 
L 290.16 192.624672 
L 292.32 188.09335 
L 294.84 182.279446 
L 298.08 174.22837 
L 311.04 141.323768 
L 314.28 134.012555 
L 317.16 128.044472 
L 319.68 123.27327 
L 322.2 118.946672 
L 324.72 115.079633 
L 326.88 112.138025 
L 329.04 109.544507 
L 331.2 107.301024 
L 333.36 105.408472 
L 335.16 104.099616 
L 336.96 103.034623 
L 338.76 102.21343 
L 340.56 101.63602 
L 342.36 101.302487 
L 344.16 101.213084 
L 345.24 101.276798 
L 345.24 101.276798 
" clip-path="url(#p3b13b05040)" style="fill: none; stroke: #4c72b0; stroke-width: 2; stroke-linecap: round"/>
   </g>
   <g id="line2d_34">
    <path d="M 86.4 141.993945 
L 88.2 141.504083 
L 90 141.281076 
L 91.8 141.326006 
L 93.6 141.640133 
L 95.4 142.224799 
L 97.2 143.081294 
L 99 144.210762 
L 100.8 145.614061 
L 102.6 147.291538 
L 104.4 149.242821 
L 106.56 151.943743 
L 108.72 155.031943 
L 110.88 158.498731 
L 113.4 163.003393 
L 115.92 167.971856 
L 118.8 174.155045 
L 122.4 182.482812 
L 132.84 207.172951 
L 135 211.570212 
L 136.8 214.827759 
L 138.6 217.638538 
L 140.04 219.522277 
L 141.48 221.051358 
L 142.92 222.203206 
L 144 222.809082 
L 145.08 223.188014 
L 146.16 223.336814 
L 147.24 223.25407 
L 148.32 222.94012 
L 149.4 222.396975 
L 150.48 221.628197 
L 151.92 220.261183 
L 153.36 218.518062 
L 154.8 216.418498 
L 156.6 213.328102 
L 158.4 209.768016 
L 160.56 204.955564 
L 163.08 198.727788 
L 166.32 190.011941 
L 171.36 175.637775 
L 177.48 158.312716 
L 180.36 150.738856 
L 182.16 146.50979 
L 183.24 144.403012 
L 183.96 143.344806 
L 184.68 142.750662 
L 186.12 142.203344 
L 187.92 141.761557 
L 189.72 141.56303 
L 191.52 141.621876 
L 193.32 141.95156 
L 195.12 142.563834 
L 196.92 143.46744 
L 198.72 144.663476 
L 200.52 146.129626 
L 204.12 149.250391 
L 204.84 149.608575 
L 205.56 149.658462 
L 205.92 149.497167 
L 207 148.419681 
L 209.16 146.277649 
L 210.96 144.779108 
L 212.76 143.54565 
L 214.56 142.577387 
L 216.36 141.874677 
L 218.16 141.438098 
L 219.96 141.268581 
L 221.76 141.36726 
L 223.56 141.735378 
L 225.36 142.374296 
L 227.16 143.285323 
L 228.96 144.469492 
L 230.76 145.927612 
L 232.56 147.659923 
L 234.36 149.665836 
L 236.52 152.431726 
L 238.68 155.583751 
L 240.84 159.11247 
L 243.36 163.685716 
L 245.88 168.71689 
L 248.76 174.961264 
L 252.36 183.342477 
L 262.08 206.396857 
L 264.6 211.570212 
L 266.4 214.827759 
L 268.2 217.638538 
L 269.64 219.522277 
L 271.08 221.051358 
L 272.52 222.203206 
L 273.6 222.809082 
L 274.68 223.188014 
L 275.76 223.336814 
L 276.84 223.25407 
L 277.92 222.94012 
L 279 222.396975 
L 280.08 221.628197 
L 281.52 220.261183 
L 282.96 218.518062 
L 284.4 216.418498 
L 286.2 213.328102 
L 288 209.768016 
L 290.16 204.955564 
L 292.68 198.727788 
L 295.92 190.011941 
L 300.96 175.637775 
L 307.08 158.312716 
L 309.96 150.738856 
L 311.76 146.50979 
L 312.84 144.403012 
L 313.56 143.344806 
L 314.28 142.750662 
L 315.72 142.203344 
L 317.52 141.761557 
L 319.32 141.56303 
L 321.12 141.621876 
L 322.92 141.95156 
L 324.72 142.563834 
L 326.52 143.46744 
L 328.32 144.663476 
L 330.12 146.129626 
L 333.72 149.250391 
L 334.44 149.608575 
L 335.16 149.658462 
L 335.52 149.497167 
L 336.6 148.419681 
L 338.76 146.277649 
L 340.56 144.779108 
L 342.36 143.54565 
L 344.16 142.577387 
L 345.24 142.123864 
L 345.24 142.123864 
" clip-path="url(#p3b13b05040)" style="fill: none; stroke: #dd8452; stroke-width: 2; stroke-linecap: round"/>
   </g>
   <g id="patch_3">
    <path d="M 86.4 345.6 
L 86.4 86.4 
" style="fill: none; stroke: #262626; stroke-width: 1.25; stroke-linejoin: miter; stroke-linecap: square"/>
   </g>
   <g id="patch_4">
    <path d="M 86.4 345.6 
L 345.6 345.6 
" style="fill: none; stroke: #262626; stroke-width: 1.25; stroke-linejoin: miter; stroke-linecap: square"/>
   </g>
   <g id="legend_1">
    <g id="patch_5">
     <path d="M 96.2 338.6 
L 262.386563 338.6 
Q 265.186563 338.6 265.186563 335.8 
L 265.186563 297.593125 
Q 265.186563 294.793125 262.386563 294.793125 
L 96.2 294.793125 
Q 93.4 294.793125 93.4 297.593125 
L 93.4 335.8 
Q 93.4 338.6 96.2 338.6 
z
" style="fill: #ffffff; opacity: 0.8; stroke: #cccccc; stroke-linejoin: miter"/>
    </g>
    <g id="line2d_35">
     <path d="M 99 305.514063 
L 113 305.514063 
L 127 305.514063 
" style="fill: none; stroke: #4c72b0; stroke-width: 2; stroke-linecap: round"/>
    </g>
    <g id="text_19">
     <text style="fill: #262626; font: 14px 'Arial', 'DejaVu Sans', 'Liberation Sans', 'Bitstream Vera Sans', sans-serif; text-anchor: start" x="138.2" y="310.414062" transform="rotate(-0 138.2 310.414062)">Without vaccination</text>
    </g>
    <g id="line2d_36">
     <path d="M 99 325.3175 
L 113 325.3175 
L 127 325.3175 
" style="fill: none; stroke: #dd8452; stroke-width: 2; stroke-linecap: round"/>
    </g>
    <g id="text_20">
     <text style="fill: #262626; font: 14px 'Arial', 'DejaVu Sans', 'Liberation Sans', 'Bitstream Vera Sans', sans-serif; text-anchor: start" x="138.2" y="330.2175" transform="rotate(-0 138.2 330.2175)">With vaccination</text>
    </g>
   </g>
  </g>
 </g>
 <defs>
  <clipPath id="p3b13b05040">
   <rect x="86.4" y="86.4" width="259.2" height="259.2"/>
  </clipPath>
 </defs>
</svg>
