<?xml version="1.0" encoding="utf-8" standalone="no"?>
<!DOCTYPE svg PUBLIC "-//W3C//DTD SVG 1.1//EN"
  "http://www.w3.org/Graphics/SVG/1.1/DTD/svg11.dtd">
<svg xmlns:xlink="http://www.w3.org/1999/xlink" width="432pt" height="432pt" viewBox="0 0 432 432" xmlns="http://www.w3.org/2000/svg" version="1.1">
 <metadata>
  <rdf:RDF xmlns:dc="http://purl.org/dc/elements/1.1/" xmlns:cc="http://creativecommons.org/ns#" xmlns:rdf="http://www.w3.org/1999/02/22-rdf-syntax-ns#">
   <cc:Work>
    <dc:type rdf:resource="http://purl.org/dc/dcmitype/StillImage"/>
    <dc:date>2024-07-23T17:13:19.181176</dc:date>
    <dc:format>image/svg+xml</dc:format>
    <dc:creator>
     <cc:Agent>
      <dc:title>Matplotlib v3.8.4, https://matplotlib.org/</dc:title>
     </cc:Agent>
    </dc:creator>
   </cc:Work>
  </rdf:RDF>
 </metadata>
 <defs>
  <style type="text/css">*{stroke-linejoin: round; stroke-linecap: butt}</style>
 </defs>
 <g id="figure_1">
  <g id="patch_1">
   <path d="M 0 432 
L 432 432 
L 432 0 
L 0 0 
L 0 432 
z
" style="fill: none"/>
  </g>
  <g id="axes_1">
   <g id="patch_2">
    <path d="M 86.4 345.6 
L 345.6 345.6 
L 345.6 86.4 
L 86.4 86.4 
L 86.4 345.6 
z
" style="fill: none"/>
   </g>
   <g id="matplotlib.axis_1">
    <g id="xtick_1">
     <g id="line2d_1">
      <defs>
       <path id="m91bcdb2481" d="M 0 0 
L 0 6 
" style="stroke: #262626; stroke-width: 1.25"/>
      </defs>
      <g>
       <use xlink:href="#m91bcdb2481" x="86.4" y="345.6" style="fill: #262626; stroke: #262626; stroke-width: 1.25"/>
      </g>
     </g>
     <g id="text_1">
      <text style="fill: #262626; font: 16px 'Arial', 'DejaVu Sans', 'Liberation Sans', 'Bitstream Vera Sans', sans-serif; text-anchor: middle" x="86.4" y="366.5525" transform="rotate(-0 86.4 366.5525)">Jan</text>
     </g>
    </g>
    <g id="xtick_2">
     <g id="line2d_2">
      <g>
       <use xlink:href="#m91bcdb2481" x="97.2" y="345.6" style="fill: #262626; stroke: #262626; stroke-width: 1.25"/>
      </g>
     </g>
    </g>
    <g id="xtick_3">
     <g id="line2d_3">
      <g>
       <use xlink:href="#m91bcdb2481" x="108" y="345.6" style="fill: #262626; stroke: #262626; stroke-width: 1.25"/>
      </g>
     </g>
    </g>
    <g id="xtick_4">
     <g id="line2d_4">
      <g>
       <use xlink:href="#m91bcdb2481" x="118.8" y="345.6" style="fill: #262626; stroke: #262626; stroke-width: 1.25"/>
      </g>
     </g>
     <g id="text_2">
      <text style="fill: #262626; font: 16px 'Arial', 'DejaVu Sans', 'Liberation Sans', 'Bitstream Vera Sans', sans-serif; text-anchor: middle" x="118.8" y="366.5525" transform="rotate(-0 118.8 366.5525)">Apr</text>
     </g>
    </g>
    <g id="xtick_5">
     <g id="line2d_5">
      <g>
       <use xlink:href="#m91bcdb2481" x="129.6" y="345.6" style="fill: #262626; stroke: #262626; stroke-width: 1.25"/>
      </g>
     </g>
    </g>
    <g id="xtick_6">
     <g id="line2d_6">
      <g>
       <use xlink:href="#m91bcdb2481" x="140.4" y="345.6" style="fill: #262626; stroke: #262626; stroke-width: 1.25"/>
      </g>
     </g>
    </g>
    <g id="xtick_7">
     <g id="line2d_7">
      <g>
       <use xlink:href="#m91bcdb2481" x="151.2" y="345.6" style="fill: #262626; stroke: #262626; stroke-width: 1.25"/>
      </g>
     </g>
     <g id="text_3">
      <text style="fill: #262626; font: 16px 'Arial', 'DejaVu Sans', 'Liberation Sans', 'Bitstream Vera Sans', sans-serif; text-anchor: middle" x="151.2" y="366.5525" transform="rotate(-0 151.2 366.5525)">Jul</text>
     </g>
    </g>
    <g id="xtick_8">
     <g id="line2d_8">
      <g>
       <use xlink:href="#m91bcdb2481" x="162" y="345.6" style="fill: #262626; stroke: #262626; stroke-width: 1.25"/>
      </g>
     </g>
    </g>
    <g id="xtick_9">
     <g id="line2d_9">
      <g>
       <use xlink:href="#m91bcdb2481" x="172.8" y="345.6" style="fill: #262626; stroke: #262626; stroke-width: 1.25"/>
      </g>
     </g>
    </g>
    <g id="xtick_10">
     <g id="line2d_10">
      <g>
       <use xlink:href="#m91bcdb2481" x="183.6" y="345.6" style="fill: #262626; stroke: #262626; stroke-width: 1.25"/>
      </g>
     </g>
     <g id="text_4">
      <text style="fill: #262626; font: 16px 'Arial', 'DejaVu Sans', 'Liberation Sans', 'Bitstream Vera Sans', sans-serif; text-anchor: middle" x="183.6" y="366.5525" transform="rotate(-0 183.6 366.5525)">Oct</text>
     </g>
    </g>
    <g id="xtick_11">
     <g id="line2d_11">
      <g>
       <use xlink:href="#m91bcdb2481" x="194.4" y="345.6" style="fill: #262626; stroke: #262626; stroke-width: 1.25"/>
      </g>
     </g>
    </g>
    <g id="xtick_12">
     <g id="line2d_12">
      <g>
       <use xlink:href="#m91bcdb2481" x="205.2" y="345.6" style="fill: #262626; stroke: #262626; stroke-width: 1.25"/>
      </g>
     </g>
    </g>
    <g id="xtick_13">
     <g id="line2d_13">
      <g>
       <use xlink:href="#m91bcdb2481" x="216" y="345.6" style="fill: #262626; stroke: #262626; stroke-width: 1.25"/>
      </g>
     </g>
     <g id="text_5">
      <text style="fill: #262626; font: 16px 'Arial', 'DejaVu Sans', 'Liberation Sans', 'Bitstream Vera Sans', sans-serif; text-anchor: middle" x="216" y="366.5525" transform="rotate(-0 216 366.5525)">Jan</text>
     </g>
    </g>
    <g id="xtick_14">
     <g id="line2d_14">
      <g>
       <use xlink:href="#m91bcdb2481" x="226.8" y="345.6" style="fill: #262626; stroke: #262626; stroke-width: 1.25"/>
      </g>
     </g>
    </g>
    <g id="xtick_15">
     <g id="line2d_15">
      <g>
       <use xlink:href="#m91bcdb2481" x="237.6" y="345.6" style="fill: #262626; stroke: #262626; stroke-width: 1.25"/>
      </g>
     </g>
    </g>
    <g id="xtick_16">
     <g id="line2d_16">
      <g>
       <use xlink:href="#m91bcdb2481" x="248.4" y="345.6" style="fill: #262626; stroke: #262626; stroke-width: 1.25"/>
      </g>
     </g>
     <g id="text_6">
      <text style="fill: #262626; font: 16px 'Arial', 'DejaVu Sans', 'Liberation Sans', 'Bitstream Vera Sans', sans-serif; text-anchor: middle" x="248.4" y="366.5525" transform="rotate(-0 248.4 366.5525)">Apr</text>
     </g>
    </g>
    <g id="xtick_17">
     <g id="line2d_17">
      <g>
       <use xlink:href="#m91bcdb2481" x="259.2" y="345.6" style="fill: #262626; stroke: #262626; stroke-width: 1.25"/>
      </g>
     </g>
    </g>
    <g id="xtick_18">
     <g id="line2d_18">
      <g>
       <use xlink:href="#m91bcdb2481" x="270" y="345.6" style="fill: #262626; stroke: #262626; stroke-width: 1.25"/>
      </g>
     </g>
    </g>
    <g id="xtick_19">
     <g id="line2d_19">
      <g>
       <use xlink:href="#m91bcdb2481" x="280.8" y="345.6" style="fill: #262626; stroke: #262626; stroke-width: 1.25"/>
      </g>
     </g>
     <g id="text_7">
      <text style="fill: #262626; font: 16px 'Arial', 'DejaVu Sans', 'Liberation Sans', 'Bitstream Vera Sans', sans-serif; text-anchor: middle" x="280.8" y="366.5525" transform="rotate(-0 280.8 366.5525)">Jul</text>
     </g>
    </g>
    <g id="xtick_20">
     <g id="line2d_20">
      <g>
       <use xlink:href="#m91bcdb2481" x="291.6" y="345.6" style="fill: #262626; stroke: #262626; stroke-width: 1.25"/>
      </g>
     </g>
    </g>
    <g id="xtick_21">
     <g id="line2d_21">
      <g>
       <use xlink:href="#m91bcdb2481" x="302.4" y="345.6" style="fill: #262626; stroke: #262626; stroke-width: 1.25"/>
      </g>
     </g>
    </g>
    <g id="xtick_22">
     <g id="line2d_22">
      <g>
       <use xlink:href="#m91bcdb2481" x="313.2" y="345.6" style="fill: #262626; stroke: #262626; stroke-width: 1.25"/>
      </g>
     </g>
     <g id="text_8">
      <text style="fill: #262626; font: 16px 'Arial', 'DejaVu Sans', 'Liberation Sans', 'Bitstream Vera Sans', sans-serif; text-anchor: middle" x="313.2" y="366.5525" transform="rotate(-0 313.2 366.5525)">Oct</text>
     </g>
    </g>
    <g id="xtick_23">
     <g id="line2d_23">
      <g>
       <use xlink:href="#m91bcdb2481" x="324" y="345.6" style="fill: #262626; stroke: #262626; stroke-width: 1.25"/>
      </g>
     </g>
    </g>
    <g id="xtick_24">
     <g id="line2d_24">
      <g>
       <use xlink:href="#m91bcdb2481" x="334.8" y="345.6" style="fill: #262626; stroke: #262626; stroke-width: 1.25"/>
      </g>
     </g>
    </g>
    <g id="xtick_25">
     <g id="line2d_25">
      <g>
       <use xlink:href="#m91bcdb2481" x="345.6" y="345.6" style="fill: #262626; stroke: #262626; stroke-width: 1.25"/>
      </g>
     </g>
     <g id="text_9">
      <text style="fill: #262626; font: 16px 'Arial', 'DejaVu Sans', 'Liberation Sans', 'Bitstream Vera Sans', sans-serif; text-anchor: middle" x="345.6" y="366.5525" transform="rotate(-0 345.6 366.5525)">Jan</text>
     </g>
    </g>
    <g id="text_10">
     <text style="fill: #262626; font: 16px 'Arial', 'DejaVu Sans', 'Liberation Sans', 'Bitstream Vera Sans', sans-serif; text-anchor: middle" x="216" y="385.185" transform="rotate(-0 216 385.185)"> </text>
    </g>
   </g>
   <g id="matplotlib.axis_2">
    <g id="ytick_1">
     <g id="line2d_26">
      <defs>
       <path id="m3067f3651c" d="M 0 0 
L -6 0 
" style="stroke: #262626; stroke-width: 1.25"/>
      </defs>
      <g>
       <use xlink:href="#m3067f3651c" x="86.4" y="345.6" style="fill: #262626; stroke: #262626; stroke-width: 1.25"/>
      </g>
     </g>
     <g id="text_11">
      <text style="fill: #262626; font: 16px 'Arial', 'DejaVu Sans', 'Liberation Sans', 'Bitstream Vera Sans', sans-serif; text-anchor: end" x="76.9" y="351.32625" transform="rotate(-0 76.9 351.32625)">0.0</text>
     </g>
    </g>
    <g id="ytick_2">
     <g id="line2d_27">
      <g>
       <use xlink:href="#m3067f3651c" x="86.4" y="293.76" style="fill: #262626; stroke: #262626; stroke-width: 1.25"/>
      </g>
     </g>
     <g id="text_12">
      <text style="fill: #262626; font: 16px 'Arial', 'DejaVu Sans', 'Liberation Sans', 'Bitstream Vera Sans', sans-serif; text-anchor: end" x="76.9" y="299.48625" transform="rotate(-0 76.9 299.48625)">0.1</text>
     </g>
    </g>
    <g id="ytick_3">
     <g id="line2d_28">
      <g>
       <use xlink:href="#m3067f3651c" x="86.4" y="241.92" style="fill: #262626; stroke: #262626; stroke-width: 1.25"/>
      </g>
     </g>
     <g id="text_13">
      <text style="fill: #262626; font: 16px 'Arial', 'DejaVu Sans', 'Liberation Sans', 'Bitstream Vera Sans', sans-serif; text-anchor: end" x="76.9" y="247.64625" transform="rotate(-0 76.9 247.64625)">0.2</text>
     </g>
    </g>
    <g id="ytick_4">
     <g id="line2d_29">
      <g>
       <use xlink:href="#m3067f3651c" x="86.4" y="190.08" style="fill: #262626; stroke: #262626; stroke-width: 1.25"/>
      </g>
     </g>
     <g id="text_14">
      <text style="fill: #262626; font: 16px 'Arial', 'DejaVu Sans', 'Liberation Sans', 'Bitstream Vera Sans', sans-serif; text-anchor: end" x="76.9" y="195.80625" transform="rotate(-0 76.9 195.80625)">0.3</text>
     </g>
    </g>
    <g id="ytick_5">
     <g id="line2d_30">
      <g>
       <use xlink:href="#m3067f3651c" x="86.4" y="138.24" style="fill: #262626; stroke: #262626; stroke-width: 1.25"/>
      </g>
     </g>
     <g id="text_15">
      <text style="fill: #262626; font: 16px 'Arial', 'DejaVu Sans', 'Liberation Sans', 'Bitstream Vera Sans', sans-serif; text-anchor: end" x="76.9" y="143.96625" transform="rotate(-0 76.9 143.96625)">0.4</text>
     </g>
    </g>
    <g id="ytick_6">
     <g id="line2d_31">
      <g>
       <use xlink:href="#m3067f3651c" x="86.4" y="86.4" style="fill: #262626; stroke: #262626; stroke-width: 1.25"/>
      </g>
     </g>
     <g id="text_16">
      <text style="fill: #262626; font: 16px 'Arial', 'DejaVu Sans', 'Liberation Sans', 'Bitstream Vera Sans', sans-serif; text-anchor: end" x="76.9" y="92.12625" transform="rotate(-0 76.9 92.12625)">0.5</text>
     </g>
    </g>
    <g id="text_17">
     <text style="fill: #262626; font: 16px 'Arial', 'DejaVu Sans', 'Liberation Sans', 'Bitstream Vera Sans', sans-serif; text-anchor: middle" x="47.48" y="216" transform="rotate(-90 47.48 216)">Outbreak risk</text>
    </g>
   </g>
   <g id="PolyCollection_1">
    <defs>
     <path id="m40e27835c0" d="M 207 -86.4 
L 172.8 -86.4 
L 172.8 -345.6 
L 207 -345.6 
L 207 -345.6 
L 207 -86.4 
z
"/>
    </defs>
    <g clip-path="url(#p4fa36e115d)">
     <use xlink:href="#m40e27835c0" x="0" y="432" style="fill: #808080; fill-opacity: 0.5"/>
    </g>
   </g>
   <g id="PolyCollection_2">
    <defs>
     <path id="mef8fa9f68c" d="M 336.6 -86.4 
L 302.4 -86.4 
L 302.4 -345.6 
L 336.6 -345.6 
L 336.6 -345.6 
L 336.6 -86.4 
z
"/>
    </defs>
    <g clip-path="url(#p4fa36e115d)">
     <use xlink:href="#mef8fa9f68c" x="0" y="432" style="fill: #808080; fill-opacity: 0.5"/>
    </g>
   </g>
   <g id="line2d_32">
    <path d="M 86.4 101.317623 
L 88.2 101.668897 
L 90 102.266041 
L 91.8 103.110039 
L 93.6 104.20203 
L 95.4 105.543245 
L 97.2 107.13494 
L 99.36 109.377249 
L 101.52 111.983542 
L 103.68 114.954588 
L 105.84 118.289783 
L 108.36 122.637415 
L 110.88 127.467713 
L 113.4 132.763814 
L 116.28 139.35132 
L 119.52 147.366672 
L 123.48 157.83139 
L 133.2 183.892606 
L 135.72 189.857709 
L 137.88 194.405217 
L 139.68 197.700412 
L 141.12 199.966174 
L 142.56 201.871971 
L 144 203.394837 
L 145.08 204.275067 
L 146.16 204.924966 
L 147.24 205.341376 
L 148.32 205.523048 
L 149.4 205.470598 
L 150.48 205.186428 
L 151.56 204.674629 
L 152.64 203.940862 
L 154.08 202.629687 
L 155.52 200.95704 
L 156.96 198.94678 
L 158.76 196.0001 
L 160.56 192.624672 
L 162.72 188.09335 
L 165.24 182.279446 
L 168.48 174.22837 
L 181.44 141.323768 
L 184.68 134.012555 
L 187.56 128.044472 
L 190.08 123.27327 
L 192.6 118.946672 
L 195.12 115.079633 
L 197.28 112.138025 
L 199.44 109.544507 
L 201.6 107.301024 
L 203.76 105.408472 
L 205.56 104.099616 
L 207.36 103.034623 
L 209.16 102.21343 
L 210.96 101.63602 
L 212.76 101.302487 
L 214.56 101.213084 
L 216.36 101.36825 
L 218.16 101.768627 
L 219.96 102.415057 
L 221.76 103.308559 
L 223.56 104.450294 
L 225.36 105.841506 
L 227.16 107.483442 
L 229.32 109.786321 
L 231.48 112.453383 
L 233.64 115.485207 
L 235.8 118.880903 
L 238.32 123.298206 
L 240.84 128.196289 
L 243.36 133.55699 
L 246.24 140.212165 
L 249.48 148.291586 
L 253.44 158.808009 
L 262.44 182.993801 
L 264.96 189.044831 
L 267.12 193.689476 
L 268.92 197.080916 
L 270.72 199.966174 
L 272.16 201.871971 
L 273.6 203.394837 
L 274.68 204.275067 
L 275.76 204.924966 
L 276.84 205.341376 
L 277.92 205.523048 
L 279 205.470598 
L 280.08 205.186428 
L 281.16 204.674629 
L 282.24 203.940862 
L 283.68 202.629687 
L 285.12 200.95704 
L 286.56 198.94678 
L 288.36 196.0001 
L 290.16 192.624672 
L 292.32 188.09335 
L 294.84 182.279446 
L 298.08 174.22837 
L 311.04 141.323768 
L 314.28 134.012555 
L 317.16 128.044472 
L 319.68 123.27327 
L 322.2 118.946672 
L 324.72 115.079633 
L 326.88 112.138025 
L 329.04 109.544507 
L 331.2 107.301024 
L 333.36 105.408472 
L 335.16 104.099616 
L 336.96 103.034623 
L 338.76 102.21343 
L 340.56 101.63602 
L 342.36 101.302487 
L 344.16 101.213084 
L 345.24 101.276798 
L 345.24 101.276798 
" clip-path="url(#p4fa36e115d)" style="fill: none; stroke-dasharray: 7.4,3.2; stroke-dashoffset: 0; stroke: #029e73; stroke-opacity: 0.75; stroke-width: 2"/>
   </g>
   <g id="line2d_33">
    <path d="M 86.4 179.440456 
L 88.2 177.705967 
L 90 176.285775 
L 91.8 175.180932 
L 93.24 174.524786 
L 94.68 174.071548 
L 96.12 173.821678 
L 97.56 173.775439 
L 99 173.932916 
L 100.44 174.293955 
L 101.88 174.858277 
L 103.32 175.625217 
L 105.12 176.867009 
L 106.92 178.420081 
L 108.72 180.279479 
L 110.52 182.43803 
L 112.68 185.409165 
L 114.84 188.773661 
L 117.36 193.152859 
L 120.24 198.669429 
L 123.84 206.11539 
L 131.04 221.205509 
L 133.56 225.897687 
L 135.72 229.409355 
L 137.52 231.878241 
L 138.96 233.506576 
L 140.4 234.795752 
L 141.48 235.525847 
L 142.56 236.044097 
L 143.64 236.344383 
L 144.72 236.422316 
L 145.8 236.275239 
L 146.88 235.902107 
L 147.96 235.303489 
L 149.04 234.481478 
L 150.48 233.04428 
L 151.92 231.228541 
L 153.36 229.050331 
L 155.16 225.848129 
L 156.96 222.155958 
L 159.12 217.152187 
L 161.64 210.651668 
L 164.52 202.565502 
L 171.36 182.873643 
L 172.44 180.420935 
L 173.16 179.165731 
L 173.88 178.399743 
L 175.68 177.276119 
L 178.2 175.920091 
L 180.36 174.981214 
L 182.52 174.306014 
L 184.32 173.979547 
L 186.12 173.894211 
L 187.92 174.072189 
L 189.36 174.417846 
L 190.8 174.95459 
L 192.24 175.691237 
L 193.68 176.63596 
L 195.48 178.120094 
L 197.28 179.949 
L 199.08 182.118612 
L 201.24 185.117489 
L 204.84 190.276145 
L 205.92 191.345408 
L 206.64 191.691255 
L 207 191.699469 
L 207.36 191.563492 
L 207.72 191.24256 
L 208.8 189.491021 
L 210.96 185.959873 
L 213.12 182.866681 
L 214.92 180.631549 
L 216.72 178.709029 
L 218.52 177.100122 
L 220.32 175.805933 
L 222.12 174.827527 
L 223.56 174.272785 
L 225 173.921182 
L 226.44 173.773104 
L 227.88 173.828727 
L 229.32 174.088006 
L 230.76 174.550748 
L 232.2 175.216493 
L 234 176.332721 
L 235.8 177.761765 
L 237.6 179.499374 
L 239.4 181.539266 
L 241.56 184.373779 
L 243.72 187.610234 
L 246.24 191.855127 
L 248.76 196.544303 
L 252 203.083395 
L 262.08 223.954064 
L 264.24 227.721568 
L 266.04 230.451234 
L 267.48 232.315658 
L 268.92 233.861668 
L 270.36 235.062206 
L 271.44 235.722471 
L 272.52 236.168662 
L 273.6 236.395231 
L 274.68 236.398381 
L 275.76 236.175982 
L 276.84 235.72755 
L 277.92 235.05416 
L 279 234.1584 
L 280.44 232.625275 
L 281.88 230.717261 
L 283.32 228.451374 
L 285.12 225.14731 
L 286.92 221.363199 
L 289.08 216.263813 
L 291.6 209.674134 
L 294.84 200.46712 
L 300.6 183.791202 
L 302.04 180.420935 
L 302.76 179.165731 
L 303.48 178.399743 
L 305.28 177.276119 
L 307.8 175.920091 
L 309.96 174.981214 
L 312.12 174.306014 
L 313.92 173.979547 
L 315.72 173.894211 
L 317.52 174.072189 
L 318.96 174.417846 
L 320.4 174.95459 
L 321.84 175.691237 
L 323.28 176.63596 
L 325.08 178.120094 
L 326.88 179.949 
L 328.68 182.118612 
L 330.84 185.117489 
L 334.44 190.276145 
L 335.52 191.345408 
L 336.24 191.691255 
L 336.6 191.699469 
L 336.96 191.563492 
L 337.32 191.24256 
L 338.4 189.491021 
L 340.56 185.959873 
L 342.72 182.866681 
L 344.52 180.631549 
L 345.24 179.824977 
L 345.24 179.824977 
" clip-path="url(#p4fa36e115d)" style="fill: none; stroke: #029e73; stroke-width: 2; stroke-linecap: round"/>
   </g>
   <g id="patch_3">
    <path d="M 86.4 345.6 
L 86.4 86.4 
" style="fill: none; stroke: #262626; stroke-width: 1.25; stroke-linejoin: miter; stroke-linecap: square"/>
   </g>
   <g id="patch_4">
    <path d="M 86.4 345.6 
L 345.6 345.6 
" style="fill: none; stroke: #262626; stroke-width: 1.25; stroke-linejoin: miter; stroke-linecap: square"/>
   </g>
   <g id="legend_1">
    <g id="patch_5">
     <path d="M 154.055938 338.6 
L 335.8 338.6 
Q 338.6 338.6 338.6 335.8 
L 338.6 297.41375 
Q 338.6 294.61375 335.8 294.61375 
L 154.055938 294.61375 
Q 151.255938 294.61375 151.255938 297.41375 
L 151.255938 335.8 
Q 151.255938 338.6 154.055938 338.6 
z
" style="fill: #ffffff; opacity: 0.8; stroke: #cccccc; stroke-linejoin: miter"/>
    </g>
    <g id="line2d_34">
     <path d="M 156.855938 305.334688 
L 170.855938 305.334688 
L 184.855938 305.334688 
" style="fill: none; stroke-dasharray: 7.4,3.2; stroke-dashoffset: 0; stroke: #029e73; stroke-opacity: 0.75; stroke-width: 2"/>
    </g>
    <g id="text_18">
     <text style="fill: #262626; font: 14px 'Arial', 'DejaVu Sans', 'Liberation Sans', 'Bitstream Vera Sans', sans-serif; text-anchor: start" x="196.055938" y="310.234688" transform="rotate(-0 196.055938 310.234688)">Without vaccination</text>
    </g>
    <g id="line2d_35">
     <path d="M 156.855938 325.3175 
L 170.855938 325.3175 
L 184.855938 325.3175 
" style="fill: none; stroke: #029e73; stroke-width: 2; stroke-linecap: round"/>
    </g>
    <g id="text_19">
     <text style="fill: #262626; font: 14px 'Arial', 'DejaVu Sans', 'Liberation Sans', 'Bitstream Vera Sans', sans-serif; text-anchor: start" x="196.055938" y="330.2175" transform="rotate(-0 196.055938 330.2175)">Optimised vaccination</text>
    </g>
   </g>
  </g>
 </g>
 <defs>
  <clipPath id="p4fa36e115d">
   <rect x="86.4" y="86.4" width="259.2" height="259.2"/>
  </clipPath>
 </defs>
</svg>
