<?xml version="1.0" encoding="utf-8" standalone="no"?>
<!DOCTYPE svg PUBLIC "-//W3C//DTD SVG 1.1//EN"
  "http://www.w3.org/Graphics/SVG/1.1/DTD/svg11.dtd">
<svg xmlns:xlink="http://www.w3.org/1999/xlink" width="432pt" height="432pt" viewBox="0 0 432 432" xmlns="http://www.w3.org/2000/svg" version="1.1">
 <metadata>
  <rdf:RDF xmlns:dc="http://purl.org/dc/elements/1.1/" xmlns:cc="http://creativecommons.org/ns#" xmlns:rdf="http://www.w3.org/1999/02/22-rdf-syntax-ns#">
   <cc:Work>
    <dc:type rdf:resource="http://purl.org/dc/dcmitype/StillImage"/>
    <dc:date>2024-05-17T15:09:26.939255</dc:date>
    <dc:format>image/svg+xml</dc:format>
    <dc:creator>
     <cc:Agent>
      <dc:title>Matplotlib v3.8.4, https://matplotlib.org/</dc:title>
     </cc:Agent>
    </dc:creator>
   </cc:Work>
  </rdf:RDF>
 </metadata>
 <defs>
  <style type="text/css">*{stroke-linejoin: round; stroke-linecap: butt}</style>
 </defs>
 <g id="figure_1">
  <g id="patch_1">
   <path d="M 0 432 
L 432 432 
L 432 0 
L 0 0 
L 0 432 
z
" style="fill: none"/>
  </g>
  <g id="axes_1">
   <g id="patch_2">
    <path d="M 86.4 345.6 
L 345.6 345.6 
L 345.6 86.4 
L 86.4 86.4 
L 86.4 345.6 
z
" style="fill: none"/>
   </g>
   <g id="matplotlib.axis_1">
    <g id="xtick_1">
     <g id="line2d_1">
      <defs>
       <path id="mae9c1a47d6" d="M 0 0 
L 0 6 
" style="stroke: #262626; stroke-width: 1.25"/>
      </defs>
      <g>
       <use xlink:href="#mae9c1a47d6" x="86.4" y="345.6" style="fill: #262626; stroke: #262626; stroke-width: 1.25"/>
      </g>
     </g>
     <g id="text_1">
      <text style="fill: #262626; font: 16px 'Arial', 'DejaVu Sans', 'Liberation Sans', 'Bitstream Vera Sans', sans-serif; text-anchor: middle" x="86.4" y="366.5525" transform="rotate(-0 86.4 366.5525)">Jan</text>
     </g>
    </g>
    <g id="xtick_2">
     <g id="line2d_2">
      <g>
       <use xlink:href="#mae9c1a47d6" x="97.2" y="345.6" style="fill: #262626; stroke: #262626; stroke-width: 1.25"/>
      </g>
     </g>
    </g>
    <g id="xtick_3">
     <g id="line2d_3">
      <g>
       <use xlink:href="#mae9c1a47d6" x="108" y="345.6" style="fill: #262626; stroke: #262626; stroke-width: 1.25"/>
      </g>
     </g>
    </g>
    <g id="xtick_4">
     <g id="line2d_4">
      <g>
       <use xlink:href="#mae9c1a47d6" x="118.8" y="345.6" style="fill: #262626; stroke: #262626; stroke-width: 1.25"/>
      </g>
     </g>
     <g id="text_2">
      <text style="fill: #262626; font: 16px 'Arial', 'DejaVu Sans', 'Liberation Sans', 'Bitstream Vera Sans', sans-serif; text-anchor: middle" x="118.8" y="366.5525" transform="rotate(-0 118.8 366.5525)">Apr</text>
     </g>
    </g>
    <g id="xtick_5">
     <g id="line2d_5">
      <g>
       <use xlink:href="#mae9c1a47d6" x="129.6" y="345.6" style="fill: #262626; stroke: #262626; stroke-width: 1.25"/>
      </g>
     </g>
    </g>
    <g id="xtick_6">
     <g id="line2d_6">
      <g>
       <use xlink:href="#mae9c1a47d6" x="140.4" y="345.6" style="fill: #262626; stroke: #262626; stroke-width: 1.25"/>
      </g>
     </g>
    </g>
    <g id="xtick_7">
     <g id="line2d_7">
      <g>
       <use xlink:href="#mae9c1a47d6" x="151.2" y="345.6" style="fill: #262626; stroke: #262626; stroke-width: 1.25"/>
      </g>
     </g>
     <g id="text_3">
      <text style="fill: #262626; font: 16px 'Arial', 'DejaVu Sans', 'Liberation Sans', 'Bitstream Vera Sans', sans-serif; text-anchor: middle" x="151.2" y="366.5525" transform="rotate(-0 151.2 366.5525)">Jul</text>
     </g>
    </g>
    <g id="xtick_8">
     <g id="line2d_8">
      <g>
       <use xlink:href="#mae9c1a47d6" x="162" y="345.6" style="fill: #262626; stroke: #262626; stroke-width: 1.25"/>
      </g>
     </g>
    </g>
    <g id="xtick_9">
     <g id="line2d_9">
      <g>
       <use xlink:href="#mae9c1a47d6" x="172.8" y="345.6" style="fill: #262626; stroke: #262626; stroke-width: 1.25"/>
      </g>
     </g>
    </g>
    <g id="xtick_10">
     <g id="line2d_10">
      <g>
       <use xlink:href="#mae9c1a47d6" x="183.6" y="345.6" style="fill: #262626; stroke: #262626; stroke-width: 1.25"/>
      </g>
     </g>
     <g id="text_4">
      <text style="fill: #262626; font: 16px 'Arial', 'DejaVu Sans', 'Liberation Sans', 'Bitstream Vera Sans', sans-serif; text-anchor: middle" x="183.6" y="366.5525" transform="rotate(-0 183.6 366.5525)">Oct</text>
     </g>
    </g>
    <g id="xtick_11">
     <g id="line2d_11">
      <g>
       <use xlink:href="#mae9c1a47d6" x="194.4" y="345.6" style="fill: #262626; stroke: #262626; stroke-width: 1.25"/>
      </g>
     </g>
    </g>
    <g id="xtick_12">
     <g id="line2d_12">
      <g>
       <use xlink:href="#mae9c1a47d6" x="205.2" y="345.6" style="fill: #262626; stroke: #262626; stroke-width: 1.25"/>
      </g>
     </g>
    </g>
    <g id="xtick_13">
     <g id="line2d_13">
      <g>
       <use xlink:href="#mae9c1a47d6" x="216" y="345.6" style="fill: #262626; stroke: #262626; stroke-width: 1.25"/>
      </g>
     </g>
     <g id="text_5">
      <text style="fill: #262626; font: 16px 'Arial', 'DejaVu Sans', 'Liberation Sans', 'Bitstream Vera Sans', sans-serif; text-anchor: middle" x="216" y="366.5525" transform="rotate(-0 216 366.5525)">Jan</text>
     </g>
    </g>
    <g id="xtick_14">
     <g id="line2d_14">
      <g>
       <use xlink:href="#mae9c1a47d6" x="216" y="345.6" style="fill: #262626; stroke: #262626; stroke-width: 1.25"/>
      </g>
     </g>
     <g id="text_6">
      <text style="fill: #262626; font: 16px 'Arial', 'DejaVu Sans', 'Liberation Sans', 'Bitstream Vera Sans', sans-serif; text-anchor: middle" x="216" y="366.5525" transform="rotate(-0 216 366.5525)">Jan</text>
     </g>
    </g>
    <g id="xtick_15">
     <g id="line2d_15">
      <g>
       <use xlink:href="#mae9c1a47d6" x="226.8" y="345.6" style="fill: #262626; stroke: #262626; stroke-width: 1.25"/>
      </g>
     </g>
    </g>
    <g id="xtick_16">
     <g id="line2d_16">
      <g>
       <use xlink:href="#mae9c1a47d6" x="237.6" y="345.6" style="fill: #262626; stroke: #262626; stroke-width: 1.25"/>
      </g>
     </g>
    </g>
    <g id="xtick_17">
     <g id="line2d_17">
      <g>
       <use xlink:href="#mae9c1a47d6" x="248.4" y="345.6" style="fill: #262626; stroke: #262626; stroke-width: 1.25"/>
      </g>
     </g>
     <g id="text_7">
      <text style="fill: #262626; font: 16px 'Arial', 'DejaVu Sans', 'Liberation Sans', 'Bitstream Vera Sans', sans-serif; text-anchor: middle" x="248.4" y="366.5525" transform="rotate(-0 248.4 366.5525)">Apr</text>
     </g>
    </g>
    <g id="xtick_18">
     <g id="line2d_18">
      <g>
       <use xlink:href="#mae9c1a47d6" x="259.2" y="345.6" style="fill: #262626; stroke: #262626; stroke-width: 1.25"/>
      </g>
     </g>
    </g>
    <g id="xtick_19">
     <g id="line2d_19">
      <g>
       <use xlink:href="#mae9c1a47d6" x="270" y="345.6" style="fill: #262626; stroke: #262626; stroke-width: 1.25"/>
      </g>
     </g>
    </g>
    <g id="xtick_20">
     <g id="line2d_20">
      <g>
       <use xlink:href="#mae9c1a47d6" x="280.8" y="345.6" style="fill: #262626; stroke: #262626; stroke-width: 1.25"/>
      </g>
     </g>
     <g id="text_8">
      <text style="fill: #262626; font: 16px 'Arial', 'DejaVu Sans', 'Liberation Sans', 'Bitstream Vera Sans', sans-serif; text-anchor: middle" x="280.8" y="366.5525" transform="rotate(-0 280.8 366.5525)">Jul</text>
     </g>
    </g>
    <g id="xtick_21">
     <g id="line2d_21">
      <g>
       <use xlink:href="#mae9c1a47d6" x="291.6" y="345.6" style="fill: #262626; stroke: #262626; stroke-width: 1.25"/>
      </g>
     </g>
    </g>
    <g id="xtick_22">
     <g id="line2d_22">
      <g>
       <use xlink:href="#mae9c1a47d6" x="302.4" y="345.6" style="fill: #262626; stroke: #262626; stroke-width: 1.25"/>
      </g>
     </g>
    </g>
    <g id="xtick_23">
     <g id="line2d_23">
      <g>
       <use xlink:href="#mae9c1a47d6" x="313.2" y="345.6" style="fill: #262626; stroke: #262626; stroke-width: 1.25"/>
      </g>
     </g>
     <g id="text_9">
      <text style="fill: #262626; font: 16px 'Arial', 'DejaVu Sans', 'Liberation Sans', 'Bitstream Vera Sans', sans-serif; text-anchor: middle" x="313.2" y="366.5525" transform="rotate(-0 313.2 366.5525)">Oct</text>
     </g>
    </g>
    <g id="xtick_24">
     <g id="line2d_24">
      <g>
       <use xlink:href="#mae9c1a47d6" x="324" y="345.6" style="fill: #262626; stroke: #262626; stroke-width: 1.25"/>
      </g>
     </g>
    </g>
    <g id="xtick_25">
     <g id="line2d_25">
      <g>
       <use xlink:href="#mae9c1a47d6" x="334.8" y="345.6" style="fill: #262626; stroke: #262626; stroke-width: 1.25"/>
      </g>
     </g>
    </g>
    <g id="xtick_26">
     <g id="line2d_26">
      <g>
       <use xlink:href="#mae9c1a47d6" x="345.6" y="345.6" style="fill: #262626; stroke: #262626; stroke-width: 1.25"/>
      </g>
     </g>
     <g id="text_10">
      <text style="fill: #262626; font: 16px 'Arial', 'DejaVu Sans', 'Liberation Sans', 'Bitstream Vera Sans', sans-serif; text-anchor: middle" x="345.6" y="366.5525" transform="rotate(-0 345.6 366.5525)">Jan</text>
     </g>
    </g>
    <g id="text_11">
     <text style="fill: #262626; font: 16px 'Arial', 'DejaVu Sans', 'Liberation Sans', 'Bitstream Vera Sans', sans-serif; text-anchor: middle" x="216" y="385.185" transform="rotate(-0 216 385.185)"> </text>
    </g>
   </g>
   <g id="matplotlib.axis_2">
    <g id="ytick_1">
     <g id="line2d_27">
      <defs>
       <path id="mbe055d08b5" d="M 0 0 
L -6 0 
" style="stroke: #262626; stroke-width: 1.25"/>
      </defs>
      <g>
       <use xlink:href="#mbe055d08b5" x="86.4" y="345.6" style="fill: #262626; stroke: #262626; stroke-width: 1.25"/>
      </g>
     </g>
     <g id="text_12">
      <text style="fill: #262626; font: 16px 'Arial', 'DejaVu Sans', 'Liberation Sans', 'Bitstream Vera Sans', sans-serif; text-anchor: end" x="76.9" y="351.32625" transform="rotate(-0 76.9 351.32625)">0.0</text>
     </g>
    </g>
    <g id="ytick_2">
     <g id="line2d_28">
      <g>
       <use xlink:href="#mbe055d08b5" x="86.4" y="293.76" style="fill: #262626; stroke: #262626; stroke-width: 1.25"/>
      </g>
     </g>
     <g id="text_13">
      <text style="fill: #262626; font: 16px 'Arial', 'DejaVu Sans', 'Liberation Sans', 'Bitstream Vera Sans', sans-serif; text-anchor: end" x="76.9" y="299.48625" transform="rotate(-0 76.9 299.48625)">0.1</text>
     </g>
    </g>
    <g id="ytick_3">
     <g id="line2d_29">
      <g>
       <use xlink:href="#mbe055d08b5" x="86.4" y="241.92" style="fill: #262626; stroke: #262626; stroke-width: 1.25"/>
      </g>
     </g>
     <g id="text_14">
      <text style="fill: #262626; font: 16px 'Arial', 'DejaVu Sans', 'Liberation Sans', 'Bitstream Vera Sans', sans-serif; text-anchor: end" x="76.9" y="247.64625" transform="rotate(-0 76.9 247.64625)">0.2</text>
     </g>
    </g>
    <g id="ytick_4">
     <g id="line2d_30">
      <g>
       <use xlink:href="#mbe055d08b5" x="86.4" y="190.08" style="fill: #262626; stroke: #262626; stroke-width: 1.25"/>
      </g>
     </g>
     <g id="text_15">
      <text style="fill: #262626; font: 16px 'Arial', 'DejaVu Sans', 'Liberation Sans', 'Bitstream Vera Sans', sans-serif; text-anchor: end" x="76.9" y="195.80625" transform="rotate(-0 76.9 195.80625)">0.3</text>
     </g>
    </g>
    <g id="ytick_5">
     <g id="line2d_31">
      <g>
       <use xlink:href="#mbe055d08b5" x="86.4" y="138.24" style="fill: #262626; stroke: #262626; stroke-width: 1.25"/>
      </g>
     </g>
     <g id="text_16">
      <text style="fill: #262626; font: 16px 'Arial', 'DejaVu Sans', 'Liberation Sans', 'Bitstream Vera Sans', sans-serif; text-anchor: end" x="76.9" y="143.96625" transform="rotate(-0 76.9 143.96625)">0.4</text>
     </g>
    </g>
    <g id="ytick_6">
     <g id="line2d_32">
      <g>
       <use xlink:href="#mbe055d08b5" x="86.4" y="86.4" style="fill: #262626; stroke: #262626; stroke-width: 1.25"/>
      </g>
     </g>
     <g id="text_17">
      <text style="fill: #262626; font: 16px 'Arial', 'DejaVu Sans', 'Liberation Sans', 'Bitstream Vera Sans', sans-serif; text-anchor: end" x="76.9" y="92.12625" transform="rotate(-0 76.9 92.12625)">0.5</text>
     </g>
    </g>
    <g id="text_18">
     <text style="fill: #262626; font: 16px 'Arial', 'DejaVu Sans', 'Liberation Sans', 'Bitstream Vera Sans', sans-serif; text-anchor: middle" x="47.48" y="216" transform="rotate(-90 47.48 216)">Case outbreak risk</text>
    </g>
   </g>
   <g id="PolyCollection_1">
    <defs>
     <path id="m0a5981cc89" d="M 205.2 -86.4 
L 176.4 -86.4 
L 176.4 -345.6 
L 205.2 -345.6 
L 205.2 -345.6 
L 205.2 -86.4 
z
"/>
    </defs>
    <g clip-path="url(#pb37b06da56)">
     <use xlink:href="#m0a5981cc89" x="0" y="432" style="fill: #808080; fill-opacity: 0.5"/>
    </g>
   </g>
   <g id="PolyCollection_2">
    <defs>
     <path id="m99e94e6476" d="M 334.8 -86.4 
L 306 -86.4 
L 306 -345.6 
L 334.8 -345.6 
L 334.8 -345.6 
L 334.8 -86.4 
z
"/>
    </defs>
    <g clip-path="url(#pb37b06da56)">
     <use xlink:href="#m99e94e6476" x="0" y="432" style="fill: #808080; fill-opacity: 0.5"/>
    </g>
   </g>
   <g id="line2d_33">
    <path d="M 86.4 101.317623 
L 88.2 101.668897 
L 90 102.266041 
L 91.8 103.110039 
L 93.6 104.20203 
L 95.4 105.543245 
L 97.2 107.13494 
L 99.36 109.377249 
L 101.52 111.983542 
L 103.68 114.954588 
L 105.84 118.289783 
L 108.36 122.637415 
L 110.88 127.467713 
L 113.4 132.763814 
L 116.28 139.35132 
L 119.52 147.366672 
L 123.48 157.83139 
L 133.2 183.892606 
L 135.72 189.857709 
L 137.88 194.405217 
L 139.68 197.700412 
L 141.12 199.966174 
L 142.56 201.871971 
L 144 203.394837 
L 145.08 204.275067 
L 146.16 204.924966 
L 147.24 205.341376 
L 148.32 205.523048 
L 149.4 205.470598 
L 150.48 205.186428 
L 151.56 204.674629 
L 152.64 203.940862 
L 154.08 202.629687 
L 155.52 200.95704 
L 156.96 198.94678 
L 158.76 196.0001 
L 160.56 192.624672 
L 162.72 188.09335 
L 165.24 182.279446 
L 168.48 174.22837 
L 181.44 141.323768 
L 184.68 134.012555 
L 187.56 128.044472 
L 190.08 123.27327 
L 192.6 118.946672 
L 195.12 115.079633 
L 197.28 112.138025 
L 199.44 109.544507 
L 201.6 107.301024 
L 203.76 105.408472 
L 205.56 104.099616 
L 207.36 103.034623 
L 209.16 102.21343 
L 210.96 101.63602 
L 212.76 101.302487 
L 214.56 101.213084 
L 216.36 101.36825 
L 218.16 101.768627 
L 219.96 102.415057 
L 221.76 103.308559 
L 223.56 104.450294 
L 225.36 105.841506 
L 227.16 107.483442 
L 229.32 109.786321 
L 231.48 112.453383 
L 233.64 115.485207 
L 235.8 118.880903 
L 238.32 123.298206 
L 240.84 128.196289 
L 243.36 133.55699 
L 246.24 140.212165 
L 249.48 148.291586 
L 253.44 158.808009 
L 262.44 182.993801 
L 264.96 189.044831 
L 267.12 193.689476 
L 268.92 197.080916 
L 270.72 199.966174 
L 272.16 201.871971 
L 273.6 203.394837 
L 274.68 204.275067 
L 275.76 204.924966 
L 276.84 205.341376 
L 277.92 205.523048 
L 279 205.470598 
L 280.08 205.186428 
L 281.16 204.674629 
L 282.24 203.940862 
L 283.68 202.629687 
L 285.12 200.95704 
L 286.56 198.94678 
L 288.36 196.0001 
L 290.16 192.624672 
L 292.32 188.09335 
L 294.84 182.279446 
L 298.08 174.22837 
L 311.04 141.323768 
L 314.28 134.012555 
L 317.16 128.044472 
L 319.68 123.27327 
L 322.2 118.946672 
L 324.72 115.079633 
L 326.88 112.138025 
L 329.04 109.544507 
L 331.2 107.301024 
L 333.36 105.408472 
L 335.16 104.099616 
L 336.96 103.034623 
L 338.76 102.21343 
L 340.56 101.63602 
L 342.36 101.302487 
L 344.16 101.213084 
L 345.24 101.276798 
L 345.24 101.276798 
" clip-path="url(#pb37b06da56)" style="fill: none; stroke: #4c72b0; stroke-width: 2; stroke-linecap: round"/>
   </g>
   <g id="line2d_34">
    <path d="M 86.4 163.015717 
L 88.2 161.801581 
L 90 160.878741 
L 91.8 160.24848 
L 93.24 159.955796 
L 94.68 159.851893 
L 96.12 159.937378 
L 97.56 160.21272 
L 99 160.678253 
L 100.8 161.527957 
L 102.6 162.674965 
L 104.4 164.118173 
L 106.2 165.855475 
L 108 167.88328 
L 110.16 170.692343 
L 112.32 173.8981 
L 114.48 177.480589 
L 117 182.098793 
L 119.88 187.878408 
L 123.48 195.661352 
L 131.76 213.83225 
L 134.28 218.684224 
L 136.08 221.742745 
L 137.88 224.379009 
L 139.32 226.139994 
L 140.76 227.560352 
L 142.2 228.616451 
L 143.28 229.158309 
L 144.36 229.479263 
L 145.44 229.575439 
L 146.52 229.444711 
L 147.6 229.086657 
L 148.68 228.502499 
L 149.76 227.695022 
L 151.2 226.278505 
L 152.64 224.486471 
L 154.08 222.336682 
L 155.88 219.179086 
L 157.68 215.544006 
L 159.84 210.627935 
L 162.36 204.257358 
L 165.24 196.34668 
L 169.92 182.708956 
L 173.88 171.357999 
L 175.32 167.743888 
L 176.4 165.5685 
L 177.12 164.595522 
L 177.84 164.103707 
L 180 163.081736 
L 182.16 162.317298 
L 183.96 161.901178 
L 185.76 161.711758 
L 187.56 161.770787 
L 189.36 162.09792 
L 190.8 162.564609 
L 192.24 163.222477 
L 194.04 164.324701 
L 195.84 165.747417 
L 197.64 167.491713 
L 199.44 169.533379 
L 203.76 174.665892 
L 204.48 175.170314 
L 205.2 175.339574 
L 205.56 175.240532 
L 205.92 174.968905 
L 206.64 173.964982 
L 209.16 170.266792 
L 211.32 167.527586 
L 213.12 165.561291 
L 214.92 163.883521 
L 216.72 162.495191 
L 218.52 161.397408 
L 220.32 160.591461 
L 222.12 160.078588 
L 223.56 159.880222 
L 225 159.870943 
L 226.44 160.051303 
L 227.88 160.421687 
L 229.32 160.982419 
L 231.12 161.951114 
L 232.92 163.2168 
L 234.72 164.777967 
L 236.52 166.631995 
L 238.32 168.774605 
L 240.48 171.717685 
L 242.64 175.051596 
L 245.16 179.40479 
L 247.68 184.208928 
L 250.56 190.16 
L 254.88 199.686123 
L 260.28 211.595657 
L 262.8 216.676447 
L 264.96 220.566079 
L 266.76 223.379533 
L 268.2 225.300403 
L 269.64 226.894347 
L 271.08 228.135205 
L 272.16 228.821299 
L 273.24 229.290068 
L 274.32 229.536438 
L 275.4 229.557131 
L 276.48 229.350593 
L 277.56 228.91695 
L 278.64 228.257976 
L 279.72 227.376923 
L 281.16 225.86507 
L 282.6 223.981788 
L 284.04 221.745767 
L 285.84 218.488617 
L 287.64 214.764355 
L 289.8 209.756337 
L 292.32 203.300596 
L 295.56 194.292542 
L 304.56 168.591086 
L 305.64 166.219007 
L 306.36 165.01755 
L 307.08 164.313793 
L 308.52 163.559619 
L 310.68 162.665843 
L 312.48 162.125146 
L 314.28 161.796931 
L 316.08 161.704395 
L 317.88 161.868446 
L 319.32 162.197111 
L 320.76 162.710853 
L 322.2 163.417705 
L 324 164.583371 
L 325.8 166.070801 
L 327.6 167.87782 
L 329.76 170.416683 
L 333 174.330087 
L 333.72 174.950775 
L 334.44 175.306953 
L 334.8 175.339574 
L 335.16 175.240532 
L 335.52 174.968905 
L 336.24 173.964982 
L 338.76 170.266792 
L 340.92 167.527586 
L 342.72 165.561291 
L 344.52 163.883521 
L 345.24 163.293394 
L 345.24 163.293394 
" clip-path="url(#pb37b06da56)" style="fill: none; stroke: #dd8452; stroke-width: 2; stroke-linecap: round"/>
   </g>
   <g id="patch_3">
    <path d="M 86.4 345.6 
L 86.4 86.4 
" style="fill: none; stroke: #262626; stroke-width: 1.25; stroke-linejoin: miter; stroke-linecap: square"/>
   </g>
   <g id="patch_4">
    <path d="M 86.4 345.6 
L 345.6 345.6 
" style="fill: none; stroke: #262626; stroke-width: 1.25; stroke-linejoin: miter; stroke-linecap: square"/>
   </g>
   <g id="legend_1">
    <g id="patch_5">
     <path d="M 96.2 338.6 
L 262.386563 338.6 
Q 265.186563 338.6 265.186563 335.8 
L 265.186563 297.593125 
Q 265.186563 294.793125 262.386563 294.793125 
L 96.2 294.793125 
Q 93.4 294.793125 93.4 297.593125 
L 93.4 335.8 
Q 93.4 338.6 96.2 338.6 
z
" style="fill: #ffffff; opacity: 0.8; stroke: #cccccc; stroke-linejoin: miter"/>
    </g>
    <g id="line2d_35">
     <path d="M 99 305.514063 
L 113 305.514063 
L 127 305.514063 
" style="fill: none; stroke: #4c72b0; stroke-width: 2; stroke-linecap: round"/>
    </g>
    <g id="text_19">
     <text style="fill: #262626; font: 14px 'Arial', 'DejaVu Sans', 'Liberation Sans', 'Bitstream Vera Sans', sans-serif; text-anchor: start" x="138.2" y="310.414062" transform="rotate(-0 138.2 310.414062)">Without vaccination</text>
    </g>
    <g id="line2d_36">
     <path d="M 99 325.3175 
L 113 325.3175 
L 127 325.3175 
" style="fill: none; stroke: #dd8452; stroke-width: 2; stroke-linecap: round"/>
    </g>
    <g id="text_20">
     <text style="fill: #262626; font: 14px 'Arial', 'DejaVu Sans', 'Liberation Sans', 'Bitstream Vera Sans', sans-serif; text-anchor: start" x="138.2" y="330.2175" transform="rotate(-0 138.2 330.2175)">With vaccination</text>
    </g>
   </g>
  </g>
 </g>
 <defs>
  <clipPath id="pb37b06da56">
   <rect x="86.4" y="86.4" width="259.2" height="259.2"/>
  </clipPath>
 </defs>
</svg>
