<?xml version="1.0" encoding="utf-8" standalone="no"?>
<!DOCTYPE svg PUBLIC "-//W3C//DTD SVG 1.1//EN"
  "http://www.w3.org/Graphics/SVG/1.1/DTD/svg11.dtd">
<svg xmlns:xlink="http://www.w3.org/1999/xlink" width="432pt" height="432pt" viewBox="0 0 432 432" xmlns="http://www.w3.org/2000/svg" version="1.1">
 <metadata>
  <rdf:RDF xmlns:dc="http://purl.org/dc/elements/1.1/" xmlns:cc="http://creativecommons.org/ns#" xmlns:rdf="http://www.w3.org/1999/02/22-rdf-syntax-ns#">
   <cc:Work>
    <dc:type rdf:resource="http://purl.org/dc/dcmitype/StillImage"/>
    <dc:date>2024-05-30T15:30:08.076609</dc:date>
    <dc:format>image/svg+xml</dc:format>
    <dc:creator>
     <cc:Agent>
      <dc:title>Matplotlib v3.8.4, https://matplotlib.org/</dc:title>
     </cc:Agent>
    </dc:creator>
   </cc:Work>
  </rdf:RDF>
 </metadata>
 <defs>
  <style type="text/css">*{stroke-linejoin: round; stroke-linecap: butt}</style>
 </defs>
 <g id="figure_1">
  <g id="patch_1">
   <path d="M 0 432 
L 432 432 
L 432 0 
L 0 0 
L 0 432 
z
" style="fill: none"/>
  </g>
  <g id="axes_1">
   <g id="patch_2">
    <path d="M 86.4 345.6 
L 345.6 345.6 
L 345.6 86.4 
L 86.4 86.4 
L 86.4 345.6 
z
" style="fill: none"/>
   </g>
   <g id="matplotlib.axis_1">
    <g id="xtick_1">
     <g id="line2d_1">
      <defs>
       <path id="mf80d519db2" d="M 0 0 
L 0 6 
" style="stroke: #262626; stroke-width: 1.25"/>
      </defs>
      <g>
       <use xlink:href="#mf80d519db2" x="86.4" y="345.6" style="fill: #262626; stroke: #262626; stroke-width: 1.25"/>
      </g>
     </g>
     <g id="text_1">
      <text style="fill: #262626; font: 16px 'Arial', 'DejaVu Sans', 'Liberation Sans', 'Bitstream Vera Sans', sans-serif; text-anchor: middle" x="86.4" y="366.5525" transform="rotate(-0 86.4 366.5525)">Jan</text>
     </g>
    </g>
    <g id="xtick_2">
     <g id="line2d_2">
      <g>
       <use xlink:href="#mf80d519db2" x="97.2" y="345.6" style="fill: #262626; stroke: #262626; stroke-width: 1.25"/>
      </g>
     </g>
    </g>
    <g id="xtick_3">
     <g id="line2d_3">
      <g>
       <use xlink:href="#mf80d519db2" x="108" y="345.6" style="fill: #262626; stroke: #262626; stroke-width: 1.25"/>
      </g>
     </g>
    </g>
    <g id="xtick_4">
     <g id="line2d_4">
      <g>
       <use xlink:href="#mf80d519db2" x="118.8" y="345.6" style="fill: #262626; stroke: #262626; stroke-width: 1.25"/>
      </g>
     </g>
     <g id="text_2">
      <text style="fill: #262626; font: 16px 'Arial', 'DejaVu Sans', 'Liberation Sans', 'Bitstream Vera Sans', sans-serif; text-anchor: middle" x="118.8" y="366.5525" transform="rotate(-0 118.8 366.5525)">Apr</text>
     </g>
    </g>
    <g id="xtick_5">
     <g id="line2d_5">
      <g>
       <use xlink:href="#mf80d519db2" x="129.6" y="345.6" style="fill: #262626; stroke: #262626; stroke-width: 1.25"/>
      </g>
     </g>
    </g>
    <g id="xtick_6">
     <g id="line2d_6">
      <g>
       <use xlink:href="#mf80d519db2" x="140.4" y="345.6" style="fill: #262626; stroke: #262626; stroke-width: 1.25"/>
      </g>
     </g>
    </g>
    <g id="xtick_7">
     <g id="line2d_7">
      <g>
       <use xlink:href="#mf80d519db2" x="151.2" y="345.6" style="fill: #262626; stroke: #262626; stroke-width: 1.25"/>
      </g>
     </g>
     <g id="text_3">
      <text style="fill: #262626; font: 16px 'Arial', 'DejaVu Sans', 'Liberation Sans', 'Bitstream Vera Sans', sans-serif; text-anchor: middle" x="151.2" y="366.5525" transform="rotate(-0 151.2 366.5525)">Jul</text>
     </g>
    </g>
    <g id="xtick_8">
     <g id="line2d_8">
      <g>
       <use xlink:href="#mf80d519db2" x="162" y="345.6" style="fill: #262626; stroke: #262626; stroke-width: 1.25"/>
      </g>
     </g>
    </g>
    <g id="xtick_9">
     <g id="line2d_9">
      <g>
       <use xlink:href="#mf80d519db2" x="172.8" y="345.6" style="fill: #262626; stroke: #262626; stroke-width: 1.25"/>
      </g>
     </g>
    </g>
    <g id="xtick_10">
     <g id="line2d_10">
      <g>
       <use xlink:href="#mf80d519db2" x="183.6" y="345.6" style="fill: #262626; stroke: #262626; stroke-width: 1.25"/>
      </g>
     </g>
     <g id="text_4">
      <text style="fill: #262626; font: 16px 'Arial', 'DejaVu Sans', 'Liberation Sans', 'Bitstream Vera Sans', sans-serif; text-anchor: middle" x="183.6" y="366.5525" transform="rotate(-0 183.6 366.5525)">Oct</text>
     </g>
    </g>
    <g id="xtick_11">
     <g id="line2d_11">
      <g>
       <use xlink:href="#mf80d519db2" x="194.4" y="345.6" style="fill: #262626; stroke: #262626; stroke-width: 1.25"/>
      </g>
     </g>
    </g>
    <g id="xtick_12">
     <g id="line2d_12">
      <g>
       <use xlink:href="#mf80d519db2" x="205.2" y="345.6" style="fill: #262626; stroke: #262626; stroke-width: 1.25"/>
      </g>
     </g>
    </g>
    <g id="xtick_13">
     <g id="line2d_13">
      <g>
       <use xlink:href="#mf80d519db2" x="216" y="345.6" style="fill: #262626; stroke: #262626; stroke-width: 1.25"/>
      </g>
     </g>
     <g id="text_5">
      <text style="fill: #262626; font: 16px 'Arial', 'DejaVu Sans', 'Liberation Sans', 'Bitstream Vera Sans', sans-serif; text-anchor: middle" x="216" y="366.5525" transform="rotate(-0 216 366.5525)">Jan</text>
     </g>
    </g>
    <g id="xtick_14">
     <g id="line2d_14">
      <g>
       <use xlink:href="#mf80d519db2" x="216" y="345.6" style="fill: #262626; stroke: #262626; stroke-width: 1.25"/>
      </g>
     </g>
     <g id="text_6">
      <text style="fill: #262626; font: 16px 'Arial', 'DejaVu Sans', 'Liberation Sans', 'Bitstream Vera Sans', sans-serif; text-anchor: middle" x="216" y="366.5525" transform="rotate(-0 216 366.5525)">Jan</text>
     </g>
    </g>
    <g id="xtick_15">
     <g id="line2d_15">
      <g>
       <use xlink:href="#mf80d519db2" x="226.8" y="345.6" style="fill: #262626; stroke: #262626; stroke-width: 1.25"/>
      </g>
     </g>
    </g>
    <g id="xtick_16">
     <g id="line2d_16">
      <g>
       <use xlink:href="#mf80d519db2" x="237.6" y="345.6" style="fill: #262626; stroke: #262626; stroke-width: 1.25"/>
      </g>
     </g>
    </g>
    <g id="xtick_17">
     <g id="line2d_17">
      <g>
       <use xlink:href="#mf80d519db2" x="248.4" y="345.6" style="fill: #262626; stroke: #262626; stroke-width: 1.25"/>
      </g>
     </g>
     <g id="text_7">
      <text style="fill: #262626; font: 16px 'Arial', 'DejaVu Sans', 'Liberation Sans', 'Bitstream Vera Sans', sans-serif; text-anchor: middle" x="248.4" y="366.5525" transform="rotate(-0 248.4 366.5525)">Apr</text>
     </g>
    </g>
    <g id="xtick_18">
     <g id="line2d_18">
      <g>
       <use xlink:href="#mf80d519db2" x="259.2" y="345.6" style="fill: #262626; stroke: #262626; stroke-width: 1.25"/>
      </g>
     </g>
    </g>
    <g id="xtick_19">
     <g id="line2d_19">
      <g>
       <use xlink:href="#mf80d519db2" x="270" y="345.6" style="fill: #262626; stroke: #262626; stroke-width: 1.25"/>
      </g>
     </g>
    </g>
    <g id="xtick_20">
     <g id="line2d_20">
      <g>
       <use xlink:href="#mf80d519db2" x="280.8" y="345.6" style="fill: #262626; stroke: #262626; stroke-width: 1.25"/>
      </g>
     </g>
     <g id="text_8">
      <text style="fill: #262626; font: 16px 'Arial', 'DejaVu Sans', 'Liberation Sans', 'Bitstream Vera Sans', sans-serif; text-anchor: middle" x="280.8" y="366.5525" transform="rotate(-0 280.8 366.5525)">Jul</text>
     </g>
    </g>
    <g id="xtick_21">
     <g id="line2d_21">
      <g>
       <use xlink:href="#mf80d519db2" x="291.6" y="345.6" style="fill: #262626; stroke: #262626; stroke-width: 1.25"/>
      </g>
     </g>
    </g>
    <g id="xtick_22">
     <g id="line2d_22">
      <g>
       <use xlink:href="#mf80d519db2" x="302.4" y="345.6" style="fill: #262626; stroke: #262626; stroke-width: 1.25"/>
      </g>
     </g>
    </g>
    <g id="xtick_23">
     <g id="line2d_23">
      <g>
       <use xlink:href="#mf80d519db2" x="313.2" y="345.6" style="fill: #262626; stroke: #262626; stroke-width: 1.25"/>
      </g>
     </g>
     <g id="text_9">
      <text style="fill: #262626; font: 16px 'Arial', 'DejaVu Sans', 'Liberation Sans', 'Bitstream Vera Sans', sans-serif; text-anchor: middle" x="313.2" y="366.5525" transform="rotate(-0 313.2 366.5525)">Oct</text>
     </g>
    </g>
    <g id="xtick_24">
     <g id="line2d_24">
      <g>
       <use xlink:href="#mf80d519db2" x="324" y="345.6" style="fill: #262626; stroke: #262626; stroke-width: 1.25"/>
      </g>
     </g>
    </g>
    <g id="xtick_25">
     <g id="line2d_25">
      <g>
       <use xlink:href="#mf80d519db2" x="334.8" y="345.6" style="fill: #262626; stroke: #262626; stroke-width: 1.25"/>
      </g>
     </g>
    </g>
    <g id="xtick_26">
     <g id="line2d_26">
      <g>
       <use xlink:href="#mf80d519db2" x="345.6" y="345.6" style="fill: #262626; stroke: #262626; stroke-width: 1.25"/>
      </g>
     </g>
     <g id="text_10">
      <text style="fill: #262626; font: 16px 'Arial', 'DejaVu Sans', 'Liberation Sans', 'Bitstream Vera Sans', sans-serif; text-anchor: middle" x="345.6" y="366.5525" transform="rotate(-0 345.6 366.5525)">Jan</text>
     </g>
    </g>
    <g id="text_11">
     <text style="fill: #262626; font: 16px 'Arial', 'DejaVu Sans', 'Liberation Sans', 'Bitstream Vera Sans', sans-serif; text-anchor: middle" x="216" y="385.185" transform="rotate(-0 216 385.185)"> </text>
    </g>
   </g>
   <g id="matplotlib.axis_2">
    <g id="ytick_1">
     <g id="line2d_27">
      <defs>
       <path id="m9e92f6768f" d="M 0 0 
L -6 0 
" style="stroke: #262626; stroke-width: 1.25"/>
      </defs>
      <g>
       <use xlink:href="#m9e92f6768f" x="86.4" y="345.6" style="fill: #262626; stroke: #262626; stroke-width: 1.25"/>
      </g>
     </g>
     <g id="text_12">
      <text style="fill: #262626; font: 16px 'Arial', 'DejaVu Sans', 'Liberation Sans', 'Bitstream Vera Sans', sans-serif; text-anchor: end" x="76.9" y="351.32625" transform="rotate(-0 76.9 351.32625)">0.0</text>
     </g>
    </g>
    <g id="ytick_2">
     <g id="line2d_28">
      <g>
       <use xlink:href="#m9e92f6768f" x="86.4" y="293.76" style="fill: #262626; stroke: #262626; stroke-width: 1.25"/>
      </g>
     </g>
     <g id="text_13">
      <text style="fill: #262626; font: 16px 'Arial', 'DejaVu Sans', 'Liberation Sans', 'Bitstream Vera Sans', sans-serif; text-anchor: end" x="76.9" y="299.48625" transform="rotate(-0 76.9 299.48625)">0.1</text>
     </g>
    </g>
    <g id="ytick_3">
     <g id="line2d_29">
      <g>
       <use xlink:href="#m9e92f6768f" x="86.4" y="241.92" style="fill: #262626; stroke: #262626; stroke-width: 1.25"/>
      </g>
     </g>
     <g id="text_14">
      <text style="fill: #262626; font: 16px 'Arial', 'DejaVu Sans', 'Liberation Sans', 'Bitstream Vera Sans', sans-serif; text-anchor: end" x="76.9" y="247.64625" transform="rotate(-0 76.9 247.64625)">0.2</text>
     </g>
    </g>
    <g id="ytick_4">
     <g id="line2d_30">
      <g>
       <use xlink:href="#m9e92f6768f" x="86.4" y="190.08" style="fill: #262626; stroke: #262626; stroke-width: 1.25"/>
      </g>
     </g>
     <g id="text_15">
      <text style="fill: #262626; font: 16px 'Arial', 'DejaVu Sans', 'Liberation Sans', 'Bitstream Vera Sans', sans-serif; text-anchor: end" x="76.9" y="195.80625" transform="rotate(-0 76.9 195.80625)">0.3</text>
     </g>
    </g>
    <g id="ytick_5">
     <g id="line2d_31">
      <g>
       <use xlink:href="#m9e92f6768f" x="86.4" y="138.24" style="fill: #262626; stroke: #262626; stroke-width: 1.25"/>
      </g>
     </g>
     <g id="text_16">
      <text style="fill: #262626; font: 16px 'Arial', 'DejaVu Sans', 'Liberation Sans', 'Bitstream Vera Sans', sans-serif; text-anchor: end" x="76.9" y="143.96625" transform="rotate(-0 76.9 143.96625)">0.4</text>
     </g>
    </g>
    <g id="ytick_6">
     <g id="line2d_32">
      <g>
       <use xlink:href="#m9e92f6768f" x="86.4" y="86.4" style="fill: #262626; stroke: #262626; stroke-width: 1.25"/>
      </g>
     </g>
     <g id="text_17">
      <text style="fill: #262626; font: 16px 'Arial', 'DejaVu Sans', 'Liberation Sans', 'Bitstream Vera Sans', sans-serif; text-anchor: end" x="76.9" y="92.12625" transform="rotate(-0 76.9 92.12625)">0.5</text>
     </g>
    </g>
    <g id="text_18">
     <text style="fill: #262626; font: 16px 'Arial', 'DejaVu Sans', 'Liberation Sans', 'Bitstream Vera Sans', sans-serif; text-anchor: middle" x="47.48" y="216" transform="rotate(-90 47.48 216)">Case outbreak risk</text>
    </g>
   </g>
   <g id="PolyCollection_1">
    <defs>
     <path id="mdd53b7b686" d="M 205.2 -86.4 
L 172.8 -86.4 
L 172.8 -345.6 
L 205.2 -345.6 
L 205.2 -345.6 
L 205.2 -86.4 
z
"/>
    </defs>
    <g clip-path="url(#pc0eee4c89d)">
     <use xlink:href="#mdd53b7b686" x="0" y="432" style="fill: #808080; fill-opacity: 0.5"/>
    </g>
   </g>
   <g id="PolyCollection_2">
    <defs>
     <path id="m630e142337" d="M 334.8 -86.4 
L 302.4 -86.4 
L 302.4 -345.6 
L 334.8 -345.6 
L 334.8 -345.6 
L 334.8 -86.4 
z
"/>
    </defs>
    <g clip-path="url(#pc0eee4c89d)">
     <use xlink:href="#m630e142337" x="0" y="432" style="fill: #808080; fill-opacity: 0.5"/>
    </g>
   </g>
   <g id="line2d_33">
    <path d="M 86.4 101.317623 
L 88.2 101.668897 
L 90 102.266041 
L 91.8 103.110039 
L 93.6 104.20203 
L 95.4 105.543245 
L 97.2 107.13494 
L 99.36 109.377249 
L 101.52 111.983542 
L 103.68 114.954588 
L 105.84 118.289783 
L 108.36 122.637415 
L 110.88 127.467713 
L 113.4 132.763814 
L 116.28 139.35132 
L 119.52 147.366672 
L 123.48 157.83139 
L 133.2 183.892606 
L 135.72 189.857709 
L 137.88 194.405217 
L 139.68 197.700412 
L 141.12 199.966174 
L 142.56 201.871971 
L 144 203.394837 
L 145.08 204.275067 
L 146.16 204.924966 
L 147.24 205.341376 
L 148.32 205.523048 
L 149.4 205.470598 
L 150.48 205.186428 
L 151.56 204.674629 
L 152.64 203.940862 
L 154.08 202.629687 
L 155.52 200.95704 
L 156.96 198.94678 
L 158.76 196.0001 
L 160.56 192.624672 
L 162.72 188.09335 
L 165.24 182.279446 
L 168.48 174.22837 
L 181.44 141.323768 
L 184.68 134.012555 
L 187.56 128.044472 
L 190.08 123.27327 
L 192.6 118.946672 
L 195.12 115.079633 
L 197.28 112.138025 
L 199.44 109.544507 
L 201.6 107.301024 
L 203.76 105.408472 
L 205.56 104.099616 
L 207.36 103.034623 
L 209.16 102.21343 
L 210.96 101.63602 
L 212.76 101.302487 
L 214.56 101.213084 
L 216.36 101.36825 
L 218.16 101.768627 
L 219.96 102.415057 
L 221.76 103.308559 
L 223.56 104.450294 
L 225.36 105.841506 
L 227.16 107.483442 
L 229.32 109.786321 
L 231.48 112.453383 
L 233.64 115.485207 
L 235.8 118.880903 
L 238.32 123.298206 
L 240.84 128.196289 
L 243.36 133.55699 
L 246.24 140.212165 
L 249.48 148.291586 
L 253.44 158.808009 
L 262.44 182.993801 
L 264.96 189.044831 
L 267.12 193.689476 
L 268.92 197.080916 
L 270.72 199.966174 
L 272.16 201.871971 
L 273.6 203.394837 
L 274.68 204.275067 
L 275.76 204.924966 
L 276.84 205.341376 
L 277.92 205.523048 
L 279 205.470598 
L 280.08 205.186428 
L 281.16 204.674629 
L 282.24 203.940862 
L 283.68 202.629687 
L 285.12 200.95704 
L 286.56 198.94678 
L 288.36 196.0001 
L 290.16 192.624672 
L 292.32 188.09335 
L 294.84 182.279446 
L 298.08 174.22837 
L 311.04 141.323768 
L 314.28 134.012555 
L 317.16 128.044472 
L 319.68 123.27327 
L 322.2 118.946672 
L 324.72 115.079633 
L 326.88 112.138025 
L 329.04 109.544507 
L 331.2 107.301024 
L 333.36 105.408472 
L 335.16 104.099616 
L 336.96 103.034623 
L 338.76 102.21343 
L 340.56 101.63602 
L 342.36 101.302487 
L 344.16 101.213084 
L 345.24 101.276798 
L 345.24 101.276798 
" clip-path="url(#pc0eee4c89d)" style="fill: none; stroke: #4c72b0; stroke-width: 2; stroke-linecap: round"/>
   </g>
   <g id="line2d_34">
    <path d="M 86.4 178.244828 
L 88.2 176.458798 
L 90 174.989379 
L 91.8 173.837615 
L 93.24 173.145591 
L 94.68 172.657943 
L 96.12 172.374987 
L 97.56 172.296849 
L 99 172.423506 
L 100.44 172.754774 
L 101.88 173.290214 
L 103.32 174.028966 
L 105.12 175.236247 
L 106.92 176.755476 
L 108.72 178.581429 
L 110.52 180.706708 
L 112.68 183.637928 
L 114.84 186.962421 
L 117.36 191.295044 
L 120.24 196.759209 
L 123.84 204.14401 
L 131.4 219.853326 
L 133.92 224.461917 
L 135.72 227.358178 
L 137.52 229.841645 
L 138.96 231.487109 
L 140.4 232.797884 
L 141.84 233.75031 
L 142.92 234.218183 
L 144 234.468262 
L 145.08 234.496492 
L 146.16 234.300576 
L 147.24 233.879852 
L 148.32 233.235244 
L 149.4 232.3692 
L 150.84 230.876862 
L 152.28 229.0108 
L 153.72 226.787872 
L 155.52 223.538719 
L 157.32 219.810551 
L 159.48 214.779492 
L 162 208.270801 
L 165.24 199.169578 
L 171 182.717603 
L 172.08 180.176167 
L 172.8 178.809201 
L 173.52 177.870642 
L 174.24 177.431297 
L 176.4 176.529814 
L 178.92 175.717397 
L 181.08 175.282425 
L 182.88 175.146165 
L 184.68 175.24582 
L 186.48 175.607056 
L 187.92 176.100323 
L 189.36 176.787344 
L 190.8 177.678494 
L 192.6 179.093706 
L 194.4 180.857416 
L 196.2 182.975774 
L 198 185.433818 
L 200.52 189.300033 
L 202.68 192.544429 
L 203.76 193.789676 
L 204.48 194.296014 
L 204.84 194.403036 
L 205.2 194.383748 
L 205.56 194.209311 
L 205.92 193.836534 
L 207 191.873578 
L 209.52 187.278309 
L 211.68 183.816362 
L 213.84 180.804493 
L 215.64 178.63994 
L 217.44 176.790696 
L 219.24 175.257882 
L 221.04 174.042507 
L 222.84 173.145591 
L 224.28 172.657943 
L 225.72 172.374987 
L 227.16 172.296849 
L 228.6 172.423506 
L 230.04 172.754774 
L 231.48 173.290214 
L 232.92 174.028966 
L 234.72 175.236247 
L 236.52 176.755476 
L 238.32 178.581429 
L 240.12 180.706708 
L 242.28 183.637928 
L 244.44 186.962421 
L 246.96 191.295044 
L 249.84 196.759209 
L 253.44 204.14401 
L 261 219.853326 
L 263.52 224.461917 
L 265.32 227.358178 
L 267.12 229.841645 
L 268.56 231.487109 
L 270 232.797884 
L 271.44 233.75031 
L 272.52 234.218183 
L 273.6 234.468262 
L 274.68 234.496492 
L 275.76 234.300576 
L 276.84 233.879852 
L 277.92 233.235244 
L 279 232.3692 
L 280.44 230.876862 
L 281.88 229.0108 
L 283.32 226.787872 
L 285.12 223.538719 
L 286.92 219.810551 
L 289.08 214.779492 
L 291.6 208.270801 
L 294.84 199.169578 
L 300.6 182.717603 
L 301.68 180.176167 
L 302.4 178.809201 
L 303.12 177.870642 
L 303.84 177.431297 
L 306 176.529814 
L 308.52 175.717397 
L 310.68 175.282425 
L 312.48 175.146165 
L 314.28 175.24582 
L 316.08 175.607056 
L 317.52 176.100323 
L 318.96 176.787344 
L 320.4 177.678494 
L 322.2 179.093706 
L 324 180.857416 
L 325.8 182.975774 
L 327.6 185.433818 
L 330.12 189.300033 
L 332.28 192.544429 
L 333.36 193.789676 
L 334.08 194.296014 
L 334.44 194.403036 
L 334.8 194.383748 
L 335.16 194.209311 
L 335.52 193.836534 
L 336.6 191.873578 
L 339.12 187.278309 
L 341.28 183.816362 
L 343.44 180.804493 
L 345.24 178.63994 
L 345.24 178.63994 
" clip-path="url(#pc0eee4c89d)" style="fill: none; stroke: #dd8452; stroke-width: 2; stroke-linecap: round"/>
   </g>
   <g id="patch_3">
    <path d="M 86.4 345.6 
L 86.4 86.4 
" style="fill: none; stroke: #262626; stroke-width: 1.25; stroke-linejoin: miter; stroke-linecap: square"/>
   </g>
   <g id="patch_4">
    <path d="M 86.4 345.6 
L 345.6 345.6 
" style="fill: none; stroke: #262626; stroke-width: 1.25; stroke-linejoin: miter; stroke-linecap: square"/>
   </g>
   <g id="legend_1">
    <g id="patch_5">
     <path d="M 96.2 338.6 
L 262.386563 338.6 
Q 265.186563 338.6 265.186563 335.8 
L 265.186563 297.593125 
Q 265.186563 294.793125 262.386563 294.793125 
L 96.2 294.793125 
Q 93.4 294.793125 93.4 297.593125 
L 93.4 335.8 
Q 93.4 338.6 96.2 338.6 
z
" style="fill: #ffffff; opacity: 0.8; stroke: #cccccc; stroke-linejoin: miter"/>
    </g>
    <g id="line2d_35">
     <path d="M 99 305.514063 
L 113 305.514063 
L 127 305.514063 
" style="fill: none; stroke: #4c72b0; stroke-width: 2; stroke-linecap: round"/>
    </g>
    <g id="text_19">
     <text style="fill: #262626; font: 14px 'Arial', 'DejaVu Sans', 'Liberation Sans', 'Bitstream Vera Sans', sans-serif; text-anchor: start" x="138.2" y="310.414062" transform="rotate(-0 138.2 310.414062)">Without vaccination</text>
    </g>
    <g id="line2d_36">
     <path d="M 99 325.3175 
L 113 325.3175 
L 127 325.3175 
" style="fill: none; stroke: #dd8452; stroke-width: 2; stroke-linecap: round"/>
    </g>
    <g id="text_20">
     <text style="fill: #262626; font: 14px 'Arial', 'DejaVu Sans', 'Liberation Sans', 'Bitstream Vera Sans', sans-serif; text-anchor: start" x="138.2" y="330.2175" transform="rotate(-0 138.2 330.2175)">With vaccination</text>
    </g>
   </g>
  </g>
 </g>
 <defs>
  <clipPath id="pc0eee4c89d">
   <rect x="86.4" y="86.4" width="259.2" height="259.2"/>
  </clipPath>
 </defs>
</svg>
