<?xml version="1.0" encoding="utf-8" standalone="no"?>
<!DOCTYPE svg PUBLIC "-//W3C//DTD SVG 1.1//EN"
  "http://www.w3.org/Graphics/SVG/1.1/DTD/svg11.dtd">
<svg xmlns:xlink="http://www.w3.org/1999/xlink" width="432pt" height="432pt" viewBox="0 0 432 432" xmlns="http://www.w3.org/2000/svg" version="1.1">
 <metadata>
  <rdf:RDF xmlns:dc="http://purl.org/dc/elements/1.1/" xmlns:cc="http://creativecommons.org/ns#" xmlns:rdf="http://www.w3.org/1999/02/22-rdf-syntax-ns#">
   <cc:Work>
    <dc:type rdf:resource="http://purl.org/dc/dcmitype/StillImage"/>
    <dc:date>2024-06-19T19:26:02.763359</dc:date>
    <dc:format>image/svg+xml</dc:format>
    <dc:creator>
     <cc:Agent>
      <dc:title>Matplotlib v3.8.4, https://matplotlib.org/</dc:title>
     </cc:Agent>
    </dc:creator>
   </cc:Work>
  </rdf:RDF>
 </metadata>
 <defs>
  <style type="text/css">*{stroke-linejoin: round; stroke-linecap: butt}</style>
 </defs>
 <g id="figure_1">
  <g id="patch_1">
   <path d="M 0 432 
L 432 432 
L 432 0 
L 0 0 
L 0 432 
z
" style="fill: none"/>
  </g>
  <g id="axes_1">
   <g id="patch_2">
    <path d="M 86.4 345.6 
L 345.6 345.6 
L 345.6 86.4 
L 86.4 86.4 
L 86.4 345.6 
z
" style="fill: none"/>
   </g>
   <g id="matplotlib.axis_1">
    <g id="xtick_1">
     <g id="line2d_1">
      <defs>
       <path id="m01cd1753e3" d="M 0 0 
L 0 6 
" style="stroke: #262626; stroke-width: 1.25"/>
      </defs>
      <g>
       <use xlink:href="#m01cd1753e3" x="86.4" y="345.6" style="fill: #262626; stroke: #262626; stroke-width: 1.25"/>
      </g>
     </g>
     <g id="text_1">
      <text style="fill: #262626; font: 16px 'Arial', 'DejaVu Sans', 'Liberation Sans', 'Bitstream Vera Sans', sans-serif; text-anchor: middle" x="86.4" y="366.5525" transform="rotate(-0 86.4 366.5525)">Jan</text>
     </g>
    </g>
    <g id="xtick_2">
     <g id="line2d_2">
      <g>
       <use xlink:href="#m01cd1753e3" x="97.2" y="345.6" style="fill: #262626; stroke: #262626; stroke-width: 1.25"/>
      </g>
     </g>
    </g>
    <g id="xtick_3">
     <g id="line2d_3">
      <g>
       <use xlink:href="#m01cd1753e3" x="108" y="345.6" style="fill: #262626; stroke: #262626; stroke-width: 1.25"/>
      </g>
     </g>
    </g>
    <g id="xtick_4">
     <g id="line2d_4">
      <g>
       <use xlink:href="#m01cd1753e3" x="118.8" y="345.6" style="fill: #262626; stroke: #262626; stroke-width: 1.25"/>
      </g>
     </g>
     <g id="text_2">
      <text style="fill: #262626; font: 16px 'Arial', 'DejaVu Sans', 'Liberation Sans', 'Bitstream Vera Sans', sans-serif; text-anchor: middle" x="118.8" y="366.5525" transform="rotate(-0 118.8 366.5525)">Apr</text>
     </g>
    </g>
    <g id="xtick_5">
     <g id="line2d_5">
      <g>
       <use xlink:href="#m01cd1753e3" x="129.6" y="345.6" style="fill: #262626; stroke: #262626; stroke-width: 1.25"/>
      </g>
     </g>
    </g>
    <g id="xtick_6">
     <g id="line2d_6">
      <g>
       <use xlink:href="#m01cd1753e3" x="140.4" y="345.6" style="fill: #262626; stroke: #262626; stroke-width: 1.25"/>
      </g>
     </g>
    </g>
    <g id="xtick_7">
     <g id="line2d_7">
      <g>
       <use xlink:href="#m01cd1753e3" x="151.2" y="345.6" style="fill: #262626; stroke: #262626; stroke-width: 1.25"/>
      </g>
     </g>
     <g id="text_3">
      <text style="fill: #262626; font: 16px 'Arial', 'DejaVu Sans', 'Liberation Sans', 'Bitstream Vera Sans', sans-serif; text-anchor: middle" x="151.2" y="366.5525" transform="rotate(-0 151.2 366.5525)">Jul</text>
     </g>
    </g>
    <g id="xtick_8">
     <g id="line2d_8">
      <g>
       <use xlink:href="#m01cd1753e3" x="162" y="345.6" style="fill: #262626; stroke: #262626; stroke-width: 1.25"/>
      </g>
     </g>
    </g>
    <g id="xtick_9">
     <g id="line2d_9">
      <g>
       <use xlink:href="#m01cd1753e3" x="172.8" y="345.6" style="fill: #262626; stroke: #262626; stroke-width: 1.25"/>
      </g>
     </g>
    </g>
    <g id="xtick_10">
     <g id="line2d_10">
      <g>
       <use xlink:href="#m01cd1753e3" x="183.6" y="345.6" style="fill: #262626; stroke: #262626; stroke-width: 1.25"/>
      </g>
     </g>
     <g id="text_4">
      <text style="fill: #262626; font: 16px 'Arial', 'DejaVu Sans', 'Liberation Sans', 'Bitstream Vera Sans', sans-serif; text-anchor: middle" x="183.6" y="366.5525" transform="rotate(-0 183.6 366.5525)">Oct</text>
     </g>
    </g>
    <g id="xtick_11">
     <g id="line2d_11">
      <g>
       <use xlink:href="#m01cd1753e3" x="194.4" y="345.6" style="fill: #262626; stroke: #262626; stroke-width: 1.25"/>
      </g>
     </g>
    </g>
    <g id="xtick_12">
     <g id="line2d_12">
      <g>
       <use xlink:href="#m01cd1753e3" x="205.2" y="345.6" style="fill: #262626; stroke: #262626; stroke-width: 1.25"/>
      </g>
     </g>
    </g>
    <g id="xtick_13">
     <g id="line2d_13">
      <g>
       <use xlink:href="#m01cd1753e3" x="216" y="345.6" style="fill: #262626; stroke: #262626; stroke-width: 1.25"/>
      </g>
     </g>
     <g id="text_5">
      <text style="fill: #262626; font: 16px 'Arial', 'DejaVu Sans', 'Liberation Sans', 'Bitstream Vera Sans', sans-serif; text-anchor: middle" x="216" y="366.5525" transform="rotate(-0 216 366.5525)">Jan</text>
     </g>
    </g>
    <g id="xtick_14">
     <g id="line2d_14">
      <g>
       <use xlink:href="#m01cd1753e3" x="226.8" y="345.6" style="fill: #262626; stroke: #262626; stroke-width: 1.25"/>
      </g>
     </g>
    </g>
    <g id="xtick_15">
     <g id="line2d_15">
      <g>
       <use xlink:href="#m01cd1753e3" x="237.6" y="345.6" style="fill: #262626; stroke: #262626; stroke-width: 1.25"/>
      </g>
     </g>
    </g>
    <g id="xtick_16">
     <g id="line2d_16">
      <g>
       <use xlink:href="#m01cd1753e3" x="248.4" y="345.6" style="fill: #262626; stroke: #262626; stroke-width: 1.25"/>
      </g>
     </g>
     <g id="text_6">
      <text style="fill: #262626; font: 16px 'Arial', 'DejaVu Sans', 'Liberation Sans', 'Bitstream Vera Sans', sans-serif; text-anchor: middle" x="248.4" y="366.5525" transform="rotate(-0 248.4 366.5525)">Apr</text>
     </g>
    </g>
    <g id="xtick_17">
     <g id="line2d_17">
      <g>
       <use xlink:href="#m01cd1753e3" x="259.2" y="345.6" style="fill: #262626; stroke: #262626; stroke-width: 1.25"/>
      </g>
     </g>
    </g>
    <g id="xtick_18">
     <g id="line2d_18">
      <g>
       <use xlink:href="#m01cd1753e3" x="270" y="345.6" style="fill: #262626; stroke: #262626; stroke-width: 1.25"/>
      </g>
     </g>
    </g>
    <g id="xtick_19">
     <g id="line2d_19">
      <g>
       <use xlink:href="#m01cd1753e3" x="280.8" y="345.6" style="fill: #262626; stroke: #262626; stroke-width: 1.25"/>
      </g>
     </g>
     <g id="text_7">
      <text style="fill: #262626; font: 16px 'Arial', 'DejaVu Sans', 'Liberation Sans', 'Bitstream Vera Sans', sans-serif; text-anchor: middle" x="280.8" y="366.5525" transform="rotate(-0 280.8 366.5525)">Jul</text>
     </g>
    </g>
    <g id="xtick_20">
     <g id="line2d_20">
      <g>
       <use xlink:href="#m01cd1753e3" x="291.6" y="345.6" style="fill: #262626; stroke: #262626; stroke-width: 1.25"/>
      </g>
     </g>
    </g>
    <g id="xtick_21">
     <g id="line2d_21">
      <g>
       <use xlink:href="#m01cd1753e3" x="302.4" y="345.6" style="fill: #262626; stroke: #262626; stroke-width: 1.25"/>
      </g>
     </g>
    </g>
    <g id="xtick_22">
     <g id="line2d_22">
      <g>
       <use xlink:href="#m01cd1753e3" x="313.2" y="345.6" style="fill: #262626; stroke: #262626; stroke-width: 1.25"/>
      </g>
     </g>
     <g id="text_8">
      <text style="fill: #262626; font: 16px 'Arial', 'DejaVu Sans', 'Liberation Sans', 'Bitstream Vera Sans', sans-serif; text-anchor: middle" x="313.2" y="366.5525" transform="rotate(-0 313.2 366.5525)">Oct</text>
     </g>
    </g>
    <g id="xtick_23">
     <g id="line2d_23">
      <g>
       <use xlink:href="#m01cd1753e3" x="324" y="345.6" style="fill: #262626; stroke: #262626; stroke-width: 1.25"/>
      </g>
     </g>
    </g>
    <g id="xtick_24">
     <g id="line2d_24">
      <g>
       <use xlink:href="#m01cd1753e3" x="334.8" y="345.6" style="fill: #262626; stroke: #262626; stroke-width: 1.25"/>
      </g>
     </g>
    </g>
    <g id="xtick_25">
     <g id="line2d_25">
      <g>
       <use xlink:href="#m01cd1753e3" x="345.6" y="345.6" style="fill: #262626; stroke: #262626; stroke-width: 1.25"/>
      </g>
     </g>
     <g id="text_9">
      <text style="fill: #262626; font: 16px 'Arial', 'DejaVu Sans', 'Liberation Sans', 'Bitstream Vera Sans', sans-serif; text-anchor: middle" x="345.6" y="366.5525" transform="rotate(-0 345.6 366.5525)">Jan</text>
     </g>
    </g>
    <g id="text_10">
     <text style="fill: #262626; font: 16px 'Arial', 'DejaVu Sans', 'Liberation Sans', 'Bitstream Vera Sans', sans-serif; text-anchor: middle" x="216" y="385.185" transform="rotate(-0 216 385.185)"> </text>
    </g>
   </g>
   <g id="matplotlib.axis_2">
    <g id="ytick_1">
     <g id="line2d_26">
      <defs>
       <path id="m5995878834" d="M 0 0 
L -6 0 
" style="stroke: #262626; stroke-width: 1.25"/>
      </defs>
      <g>
       <use xlink:href="#m5995878834" x="86.4" y="345.6" style="fill: #262626; stroke: #262626; stroke-width: 1.25"/>
      </g>
     </g>
     <g id="text_11">
      <text style="fill: #262626; font: 16px 'Arial', 'DejaVu Sans', 'Liberation Sans', 'Bitstream Vera Sans', sans-serif; text-anchor: end" x="76.9" y="351.32625" transform="rotate(-0 76.9 351.32625)">0.0</text>
     </g>
    </g>
    <g id="ytick_2">
     <g id="line2d_27">
      <g>
       <use xlink:href="#m5995878834" x="86.4" y="293.76" style="fill: #262626; stroke: #262626; stroke-width: 1.25"/>
      </g>
     </g>
     <g id="text_12">
      <text style="fill: #262626; font: 16px 'Arial', 'DejaVu Sans', 'Liberation Sans', 'Bitstream Vera Sans', sans-serif; text-anchor: end" x="76.9" y="299.48625" transform="rotate(-0 76.9 299.48625)">0.1</text>
     </g>
    </g>
    <g id="ytick_3">
     <g id="line2d_28">
      <g>
       <use xlink:href="#m5995878834" x="86.4" y="241.92" style="fill: #262626; stroke: #262626; stroke-width: 1.25"/>
      </g>
     </g>
     <g id="text_13">
      <text style="fill: #262626; font: 16px 'Arial', 'DejaVu Sans', 'Liberation Sans', 'Bitstream Vera Sans', sans-serif; text-anchor: end" x="76.9" y="247.64625" transform="rotate(-0 76.9 247.64625)">0.2</text>
     </g>
    </g>
    <g id="ytick_4">
     <g id="line2d_29">
      <g>
       <use xlink:href="#m5995878834" x="86.4" y="190.08" style="fill: #262626; stroke: #262626; stroke-width: 1.25"/>
      </g>
     </g>
     <g id="text_14">
      <text style="fill: #262626; font: 16px 'Arial', 'DejaVu Sans', 'Liberation Sans', 'Bitstream Vera Sans', sans-serif; text-anchor: end" x="76.9" y="195.80625" transform="rotate(-0 76.9 195.80625)">0.3</text>
     </g>
    </g>
    <g id="ytick_5">
     <g id="line2d_30">
      <g>
       <use xlink:href="#m5995878834" x="86.4" y="138.24" style="fill: #262626; stroke: #262626; stroke-width: 1.25"/>
      </g>
     </g>
     <g id="text_15">
      <text style="fill: #262626; font: 16px 'Arial', 'DejaVu Sans', 'Liberation Sans', 'Bitstream Vera Sans', sans-serif; text-anchor: end" x="76.9" y="143.96625" transform="rotate(-0 76.9 143.96625)">0.4</text>
     </g>
    </g>
    <g id="ytick_6">
     <g id="line2d_31">
      <g>
       <use xlink:href="#m5995878834" x="86.4" y="86.4" style="fill: #262626; stroke: #262626; stroke-width: 1.25"/>
      </g>
     </g>
     <g id="text_16">
      <text style="fill: #262626; font: 16px 'Arial', 'DejaVu Sans', 'Liberation Sans', 'Bitstream Vera Sans', sans-serif; text-anchor: end" x="76.9" y="92.12625" transform="rotate(-0 76.9 92.12625)">0.5</text>
     </g>
    </g>
    <g id="text_17">
     <text style="fill: #262626; font: 16px 'Arial', 'DejaVu Sans', 'Liberation Sans', 'Bitstream Vera Sans', sans-serif; text-anchor: middle" x="47.48" y="216" transform="rotate(-90 47.48 216)">Outbreak risk</text>
    </g>
   </g>
   <g id="PolyCollection_1">
    <defs>
     <path id="md40c686264" d="M 210.6 -86.4 
L 183.6 -86.4 
L 183.6 -345.6 
L 210.6 -345.6 
L 210.6 -345.6 
L 210.6 -86.4 
z
"/>
    </defs>
    <g clip-path="url(#p98678bfe11)">
     <use xlink:href="#md40c686264" x="0" y="432" style="fill: #808080; fill-opacity: 0.5"/>
    </g>
   </g>
   <g id="PolyCollection_2">
    <defs>
     <path id="m43f6391038" d="M 340.2 -86.4 
L 313.2 -86.4 
L 313.2 -345.6 
L 340.2 -345.6 
L 340.2 -345.6 
L 340.2 -86.4 
z
"/>
    </defs>
    <g clip-path="url(#p98678bfe11)">
     <use xlink:href="#m43f6391038" x="0" y="432" style="fill: #808080; fill-opacity: 0.5"/>
    </g>
   </g>
   <g id="line2d_32">
    <path d="M 86.4 125.674223 
L 88.92 125.92878 
L 91.44 126.389723 
L 93.96 127.053399 
L 96.84 128.052917 
L 99.72 129.298404 
L 102.6 130.774693 
L 105.84 132.687449 
L 109.44 135.085727 
L 113.76 138.264795 
L 119.88 143.103919 
L 127.44 149.05161 
L 131.4 151.874585 
L 134.64 153.911973 
L 137.52 155.457921 
L 140.04 156.571174 
L 142.56 157.435949 
L 144.72 157.965192 
L 146.88 158.289852 
L 149.04 158.405018 
L 151.2 158.309286 
L 153.36 158.004768 
L 155.52 157.497 
L 158.04 156.659572 
L 160.56 155.576463 
L 163.44 154.068231 
L 166.32 152.311191 
L 169.92 149.834956 
L 174.24 146.578578 
L 188.64 135.474198 
L 192.6 132.830167 
L 195.84 130.914174 
L 199.08 129.257643 
L 201.96 128.025548 
L 204.84 127.036026 
L 207.72 126.301194 
L 210.24 125.874177 
L 212.76 125.652949 
L 215.28 125.639702 
L 217.8 125.834876 
L 220.32 126.237143 
L 222.84 126.843378 
L 225.72 127.779468 
L 228.6 128.964737 
L 231.48 130.384958 
L 234.72 132.240859 
L 238.32 134.585503 
L 242.28 137.444806 
L 247.68 141.659054 
L 257.4 149.320247 
L 261.36 152.114619 
L 264.6 154.119886 
L 267.48 155.631322 
L 270 156.710418 
L 272.52 157.538051 
L 274.68 158.033684 
L 276.84 158.323676 
L 279 158.403695 
L 281.16 158.272924 
L 283.32 157.934056 
L 285.48 157.393182 
L 288 156.51938 
L 290.52 155.403001 
L 293.4 153.861306 
L 296.64 151.83834 
L 300.24 149.309945 
L 304.92 145.734018 
L 317.16 136.244133 
L 321.12 133.520803 
L 324.72 131.318624 
L 327.96 129.601823 
L 330.84 128.311378 
L 333.72 127.259946 
L 336.6 126.460487 
L 339.12 125.975323 
L 341.64 125.694997 
L 344.16 125.622206 
L 345.24 125.654835 
L 345.24 125.654835 
" clip-path="url(#p98678bfe11)" style="fill: none; stroke-dasharray: 7.4,3.2; stroke-dashoffset: 0; stroke: #de8f05; stroke-opacity: 0.75; stroke-width: 2"/>
   </g>
   <g id="line2d_33">
    <path d="M 86.4 222.251344 
L 89.64 218.309106 
L 92.88 214.72999 
L 95.76 211.864786 
L 98.64 209.302339 
L 101.52 207.042158 
L 104.4 205.0774 
L 107.28 203.394852 
L 110.16 201.974556 
L 113.04 200.789689 
L 116.28 199.696629 
L 119.88 198.71334 
L 125.28 197.5025 
L 132.12 195.950779 
L 135.72 194.911947 
L 138.96 193.747229 
L 141.84 192.48343 
L 144.72 190.974342 
L 147.6 189.200821 
L 150.48 187.154394 
L 153.36 184.837157 
L 156.6 181.922645 
L 159.84 178.713711 
L 163.8 174.458275 
L 168.84 168.66607 
L 179.64 156.085575 
L 181.08 154.723078 
L 182.16 153.973918 
L 182.88 153.719354 
L 183.6 153.791502 
L 183.96 154.005613 
L 184.32 154.386678 
L 185.04 155.610974 
L 187.2 159.915782 
L 189.72 165.41031 
L 192.24 171.458159 
L 194.76 178.136822 
L 197.28 185.527565 
L 199.8 193.69615 
L 202.32 202.625978 
L 207.72 222.216812 
L 208.8 225.285744 
L 209.52 226.886198 
L 210.24 227.986849 
L 210.6 228.301149 
L 210.96 228.425337 
L 211.32 228.319427 
L 212.04 227.50817 
L 216.72 221.34482 
L 219.96 217.481739 
L 223.2 213.985504 
L 226.08 211.195723 
L 228.96 208.70913 
L 231.84 206.523699 
L 234.72 204.630942 
L 237.6 203.016123 
L 240.48 201.657431 
L 243.72 200.399523 
L 246.96 199.379648 
L 250.92 198.369328 
L 264.96 195.026684 
L 268.2 193.889292 
L 271.08 192.654315 
L 273.96 191.177151 
L 276.84 189.437365 
L 279.72 187.425159 
L 282.6 185.141286 
L 285.84 182.261732 
L 289.08 179.083486 
L 293.04 174.857957 
L 297.72 169.511448 
L 309.6 155.720308 
L 311.04 154.437476 
L 312.12 153.81438 
L 312.84 153.705035 
L 313.2 153.791502 
L 313.56 154.005613 
L 313.92 154.386678 
L 314.64 155.610974 
L 316.8 159.915782 
L 319.32 165.41031 
L 321.84 171.458159 
L 324.36 178.136822 
L 326.88 185.527565 
L 329.4 193.69615 
L 331.92 202.625978 
L 337.32 222.216812 
L 338.4 225.285744 
L 339.12 226.886198 
L 339.84 227.986849 
L 340.2 228.301149 
L 340.56 228.425337 
L 340.92 228.319427 
L 341.64 227.50817 
L 345.24 222.710956 
L 345.24 222.710956 
" clip-path="url(#p98678bfe11)" style="fill: none; stroke: #de8f05; stroke-width: 2; stroke-linecap: round"/>
   </g>
   <g id="line2d_34">
    <path d="M 86.4 112.687383 
L 88.56 113.036094 
L 90.72 113.651488 
L 92.88 114.5327 
L 95.04 115.678117 
L 97.2 117.085242 
L 99.36 118.750508 
L 101.52 120.669041 
L 104.04 123.218696 
L 106.56 126.090547 
L 109.44 129.743762 
L 112.32 133.758296 
L 115.56 138.647564 
L 119.52 145.034032 
L 131.76 165.124237 
L 134.64 169.223499 
L 136.8 171.960888 
L 138.96 174.347301 
L 140.76 176.031516 
L 142.56 177.412096 
L 144.36 178.468587 
L 145.8 179.069966 
L 147.24 179.448748 
L 148.68 179.602031 
L 150.12 179.529303 
L 151.56 179.232416 
L 153 178.715499 
L 154.44 177.984831 
L 156.24 176.78367 
L 158.04 175.281565 
L 159.84 173.502193 
L 162 171.038598 
L 164.52 167.775287 
L 167.4 163.635652 
L 171 158.031906 
L 185.4 135.099529 
L 188.64 130.571743 
L 191.52 126.897261 
L 194.4 123.59284 
L 196.92 121.028758 
L 199.44 118.786597 
L 201.6 117.130235 
L 203.76 115.725305 
L 205.92 114.576509 
L 208.08 113.687495 
L 210.24 113.061033 
L 212.4 112.699144 
L 214.56 112.603198 
L 216.36 112.726965 
L 218.52 113.120155 
L 220.68 113.779931 
L 222.84 114.70531 
L 225 115.894545 
L 227.16 117.344974 
L 229.32 119.052829 
L 231.84 121.363767 
L 234.36 124.007047 
L 236.88 126.967851 
L 239.76 130.715148 
L 243 135.347718 
L 246.6 140.926224 
L 251.28 148.639801 
L 259.56 162.357484 
L 262.8 167.230877 
L 265.32 170.632693 
L 267.48 173.201254 
L 269.28 175.055917 
L 271.08 176.621438 
L 272.88 177.874561 
L 274.32 178.639552 
L 275.76 179.185684 
L 277.2 179.50827 
L 278.64 179.605005 
L 280.08 179.475973 
L 281.52 179.123605 
L 282.96 178.55258 
L 284.4 177.769693 
L 286.2 176.506615 
L 288 174.947058 
L 289.8 173.115346 
L 291.96 170.596383 
L 294.48 167.279435 
L 297.36 163.093415 
L 300.96 157.453758 
L 314.28 136.15593 
L 317.52 131.543882 
L 320.4 127.782535 
L 323.28 124.382482 
L 325.8 121.729114 
L 328.32 119.3936 
L 330.84 117.388979 
L 333 115.941786 
L 335.16 114.750021 
L 337.32 113.817496 
L 339.48 113.147116 
L 341.64 112.74102 
L 343.8 112.600681 
L 345.24 112.655216 
L 345.24 112.655216 
" clip-path="url(#p98678bfe11)" style="fill: none; stroke-dasharray: 7.4,3.2; stroke-dashoffset: 0; stroke: #0173b2; stroke-opacity: 0.75; stroke-width: 2"/>
   </g>
   <g id="line2d_35">
    <path d="M 86.4 204.559895 
L 88.56 202.275868 
L 90.72 200.302108 
L 92.88 198.641194 
L 95.04 197.294634 
L 96.84 196.412687 
L 98.64 195.748339 
L 100.44 195.299908 
L 102.24 195.064438 
L 104.04 195.037767 
L 105.84 195.214394 
L 107.64 195.587184 
L 109.8 196.280634 
L 111.96 197.224147 
L 114.12 198.393902 
L 116.64 200.005691 
L 119.88 202.382568 
L 124.92 206.435645 
L 129.24 209.813349 
L 131.76 211.544358 
L 133.92 212.796766 
L 136.08 213.774386 
L 137.88 214.340454 
L 139.68 214.650925 
L 141.12 214.699384 
L 142.56 214.559237 
L 144 214.222557 
L 145.44 213.683531 
L 146.88 212.93866 
L 148.68 211.716343 
L 150.48 210.172794 
L 152.28 208.315618 
L 154.08 206.157363 
L 156.24 203.194187 
L 158.4 199.858886 
L 160.92 195.55573 
L 163.8 190.189948 
L 167.4 182.993533 
L 173.88 169.413703 
L 178.56 159.800891 
L 180.72 155.753741 
L 182.16 153.493724 
L 182.88 152.644761 
L 183.6 152.123589 
L 183.96 152.041232 
L 184.32 152.126091 
L 185.04 152.758648 
L 186.84 154.852414 
L 189 157.736602 
L 191.16 161.048774 
L 193.32 164.838105 
L 195.48 169.156466 
L 197.64 174.057081 
L 199.8 179.589037 
L 201.96 185.776013 
L 204.48 193.731426 
L 208.08 205.223698 
L 209.16 208.000717 
L 209.88 209.397993 
L 210.6 210.247719 
L 210.96 210.400211 
L 211.32 210.314004 
L 212.04 209.514101 
L 214.92 205.817106 
L 217.08 203.379279 
L 219.24 201.250045 
L 221.4 199.432421 
L 223.56 197.928594 
L 225.36 196.91566 
L 227.16 196.120932 
L 228.96 195.543205 
L 230.76 195.180349 
L 232.56 195.028996 
L 234.36 195.084388 
L 236.16 195.34042 
L 238.32 195.901357 
L 240.48 196.722491 
L 242.64 197.782415 
L 245.16 199.285389 
L 248.04 201.291202 
L 251.64 204.093523 
L 259.2 210.075082 
L 261.72 211.769772 
L 263.88 212.980293 
L 265.68 213.774386 
L 267.48 214.340454 
L 269.28 214.650925 
L 270.72 214.699384 
L 272.16 214.559237 
L 273.6 214.222557 
L 275.04 213.683531 
L 276.48 212.93866 
L 278.28 211.716343 
L 280.08 210.172794 
L 281.88 208.315618 
L 283.68 206.157363 
L 285.84 203.194187 
L 288 199.858886 
L 290.52 195.55573 
L 293.4 190.189948 
L 297 182.993533 
L 303.48 169.413703 
L 308.16 159.800891 
L 310.32 155.753741 
L 311.76 153.493724 
L 312.48 152.644761 
L 313.2 152.123589 
L 313.56 152.041232 
L 313.92 152.126091 
L 314.64 152.758648 
L 316.44 154.852414 
L 318.6 157.736602 
L 320.76 161.048774 
L 322.92 164.838105 
L 325.08 169.156466 
L 327.24 174.057081 
L 329.4 179.589037 
L 331.56 185.776013 
L 334.08 193.731426 
L 337.68 205.223698 
L 338.76 208.000717 
L 339.48 209.397993 
L 340.2 210.247719 
L 340.56 210.400211 
L 340.92 210.314004 
L 341.64 209.514101 
L 344.52 205.817106 
L 345.24 204.970474 
L 345.24 204.970474 
" clip-path="url(#p98678bfe11)" style="fill: none; stroke: #0173b2; stroke-width: 2; stroke-linecap: round"/>
   </g>
   <g id="line2d_36">
    <path d="M 86.4 101.317623 
L 88.2 101.668897 
L 90 102.266041 
L 91.8 103.110039 
L 93.6 104.20203 
L 95.4 105.543245 
L 97.2 107.13494 
L 99.36 109.377249 
L 101.52 111.983542 
L 103.68 114.954588 
L 105.84 118.289783 
L 108.36 122.637415 
L 110.88 127.467713 
L 113.4 132.763814 
L 116.28 139.35132 
L 119.52 147.366672 
L 123.48 157.83139 
L 133.2 183.892606 
L 135.72 189.857709 
L 137.88 194.405217 
L 139.68 197.700412 
L 141.12 199.966174 
L 142.56 201.871971 
L 144 203.394837 
L 145.08 204.275067 
L 146.16 204.924966 
L 147.24 205.341376 
L 148.32 205.523048 
L 149.4 205.470598 
L 150.48 205.186428 
L 151.56 204.674629 
L 152.64 203.940862 
L 154.08 202.629687 
L 155.52 200.95704 
L 156.96 198.94678 
L 158.76 196.0001 
L 160.56 192.624672 
L 162.72 188.09335 
L 165.24 182.279446 
L 168.48 174.22837 
L 181.44 141.323768 
L 184.68 134.012555 
L 187.56 128.044472 
L 190.08 123.27327 
L 192.6 118.946672 
L 195.12 115.079633 
L 197.28 112.138025 
L 199.44 109.544507 
L 201.6 107.301024 
L 203.76 105.408472 
L 205.56 104.099616 
L 207.36 103.034623 
L 209.16 102.21343 
L 210.96 101.63602 
L 212.76 101.302487 
L 214.56 101.213084 
L 216.36 101.36825 
L 218.16 101.768627 
L 219.96 102.415057 
L 221.76 103.308559 
L 223.56 104.450294 
L 225.36 105.841506 
L 227.16 107.483442 
L 229.32 109.786321 
L 231.48 112.453383 
L 233.64 115.485207 
L 235.8 118.880903 
L 238.32 123.298206 
L 240.84 128.196289 
L 243.36 133.55699 
L 246.24 140.212165 
L 249.48 148.291586 
L 253.44 158.808009 
L 262.44 182.993801 
L 264.96 189.044831 
L 267.12 193.689476 
L 268.92 197.080916 
L 270.72 199.966174 
L 272.16 201.871971 
L 273.6 203.394837 
L 274.68 204.275067 
L 275.76 204.924966 
L 276.84 205.341376 
L 277.92 205.523048 
L 279 205.470598 
L 280.08 205.186428 
L 281.16 204.674629 
L 282.24 203.940862 
L 283.68 202.629687 
L 285.12 200.95704 
L 286.56 198.94678 
L 288.36 196.0001 
L 290.16 192.624672 
L 292.32 188.09335 
L 294.84 182.279446 
L 298.08 174.22837 
L 311.04 141.323768 
L 314.28 134.012555 
L 317.16 128.044472 
L 319.68 123.27327 
L 322.2 118.946672 
L 324.72 115.079633 
L 326.88 112.138025 
L 329.04 109.544507 
L 331.2 107.301024 
L 333.36 105.408472 
L 335.16 104.099616 
L 336.96 103.034623 
L 338.76 102.21343 
L 340.56 101.63602 
L 342.36 101.302487 
L 344.16 101.213084 
L 345.24 101.276798 
L 345.24 101.276798 
" clip-path="url(#p98678bfe11)" style="fill: none; stroke-dasharray: 7.4,3.2; stroke-dashoffset: 0; stroke: #029e73; stroke-opacity: 0.75; stroke-width: 2"/>
   </g>
   <g id="line2d_37">
    <path d="M 86.4 188.987389 
L 88.2 187.296789 
L 90 185.903391 
L 91.8 184.809069 
L 93.6 184.01577 
L 95.04 183.599129 
L 96.48 183.377285 
L 97.92 183.351142 
L 99.36 183.521366 
L 100.8 183.888492 
L 102.24 184.452632 
L 104.04 185.434475 
L 105.84 186.722326 
L 107.64 188.313186 
L 109.44 190.201995 
L 111.24 192.381227 
L 113.4 195.364572 
L 115.56 198.725125 
L 118.08 203.07413 
L 120.96 208.511592 
L 125.28 217.244418 
L 130.32 227.347716 
L 132.84 231.897231 
L 135 235.31052 
L 136.8 237.713938 
L 138.24 239.300267 
L 139.68 240.556063 
L 141.12 241.457457 
L 142.2 241.889462 
L 143.28 242.105542 
L 144.36 242.101341 
L 145.44 241.87425 
L 146.52 241.423199 
L 147.6 240.748626 
L 148.68 239.852443 
L 150.12 238.318587 
L 151.56 236.408054 
L 153 234.136076 
L 154.8 230.816712 
L 156.6 227.005591 
L 158.76 221.854141 
L 161.28 215.169657 
L 164.16 206.842846 
L 168.12 194.640385 
L 177.12 166.613627 
L 180 158.393534 
L 181.8 153.84662 
L 182.88 151.617615 
L 183.6 150.525689 
L 183.96 150.16053 
L 184.32 149.964385 
L 185.04 150.040067 
L 186.48 150.602843 
L 187.92 151.382484 
L 189.36 152.376508 
L 190.8 153.597819 
L 192.24 155.059903 
L 194.04 157.247118 
L 195.84 159.859575 
L 197.64 162.925579 
L 199.44 166.473122 
L 201.24 170.524657 
L 203.04 175.08326 
L 205.2 181.142903 
L 208.44 190.432192 
L 209.52 192.904602 
L 210.24 194.060338 
L 210.6 194.418779 
L 210.96 194.586611 
L 211.32 194.511503 
L 212.04 193.717229 
L 214.56 190.55259 
L 216.36 188.625571 
L 218.16 186.994258 
L 219.96 185.660525 
L 221.76 184.626283 
L 223.56 183.893397 
L 225 183.525366 
L 226.44 183.352364 
L 227.88 183.37524 
L 229.32 183.594652 
L 230.76 184.011036 
L 232.2 184.624428 
L 234 185.667642 
L 235.8 187.016395 
L 237.6 188.667304 
L 239.4 190.614897 
L 241.56 193.332014 
L 243.72 196.444396 
L 245.88 199.923243 
L 248.4 204.39171 
L 251.64 210.649186 
L 261.72 230.651451 
L 263.88 234.23159 
L 265.68 236.80565 
L 267.12 238.546737 
L 268.56 239.971088 
L 270 241.05236 
L 271.08 241.625119 
L 272.16 241.985725 
L 273.24 242.12878 
L 274.32 242.050496 
L 275.4 241.748795 
L 276.48 241.223113 
L 277.56 240.474384 
L 278.64 239.504989 
L 280.08 237.875736 
L 281.52 235.87327 
L 282.96 233.513729 
L 284.76 230.092306 
L 286.56 226.188669 
L 288.72 220.940408 
L 291.24 214.164314 
L 294.12 205.762273 
L 298.44 192.371326 
L 306.36 167.686178 
L 309.24 159.374855 
L 311.04 154.693104 
L 312.12 152.297719 
L 312.84 151.020342 
L 313.56 150.16053 
L 313.92 149.964385 
L 314.64 150.040067 
L 316.08 150.602843 
L 317.52 151.382484 
L 318.96 152.376508 
L 320.4 153.597819 
L 321.84 155.059903 
L 323.64 157.247118 
L 325.44 159.859575 
L 327.24 162.925579 
L 329.04 166.473122 
L 330.84 170.524657 
L 332.64 175.08326 
L 334.8 181.142903 
L 338.04 190.432192 
L 339.12 192.904602 
L 339.84 194.060338 
L 340.2 194.418779 
L 340.56 194.586611 
L 340.92 194.511503 
L 341.64 193.717229 
L 344.16 190.55259 
L 345.24 189.361007 
L 345.24 189.361007 
" clip-path="url(#p98678bfe11)" style="fill: none; stroke: #029e73; stroke-width: 2; stroke-linecap: round"/>
   </g>
   <g id="patch_3">
    <path d="M 86.4 345.6 
L 86.4 86.4 
" style="fill: none; stroke: #262626; stroke-width: 1.25; stroke-linejoin: miter; stroke-linecap: square"/>
   </g>
   <g id="patch_4">
    <path d="M 86.4 345.6 
L 345.6 345.6 
" style="fill: none; stroke: #262626; stroke-width: 1.25; stroke-linejoin: miter; stroke-linecap: square"/>
   </g>
   <g id="legend_1">
    <g id="patch_5">
     <path d="M 247.88 338.6 
L 335.8 338.6 
Q 338.6 338.6 338.6 335.8 
L 338.6 277.789688 
Q 338.6 274.989688 335.8 274.989688 
L 247.88 274.989688 
Q 245.08 274.989688 245.08 277.789688 
L 245.08 335.8 
Q 245.08 338.6 247.88 338.6 
z
" style="fill: #ffffff; opacity: 0.8; stroke: #cccccc; stroke-linejoin: miter"/>
    </g>
    <g id="line2d_38">
     <path d="M 250.68 285.710625 
L 264.68 285.710625 
L 278.68 285.710625 
" style="fill: none; stroke: #de8f05; stroke-width: 2; stroke-linecap: round"/>
    </g>
    <g id="text_18">
     <!-- $\varepsilon$ = 0.1 -->
     <g style="fill: #262626" transform="translate(289.88 290.610625)">
      <text>
       <tspan style="font: oblique 14px 'DejaVu Sans'" x="0" y="-0.9375">ε</tspan>
       <tspan style="font: 14px 'Arial'" x="7.567383 11.457031 19.632812 23.522461 31.308594 35.198242" y="-0.9375"> = 0.1</tspan>
      </text>
     </g>
    </g>
    <g id="line2d_39">
     <path d="M 250.68 305.514063 
L 264.68 305.514063 
L 278.68 305.514063 
" style="fill: none; stroke: #0173b2; stroke-width: 2; stroke-linecap: round"/>
    </g>
    <g id="text_19">
     <!-- $\varepsilon$ = 0.2 -->
     <g style="fill: #262626" transform="translate(289.88 310.414062)">
      <text>
       <tspan style="font: oblique 14px 'DejaVu Sans'" x="0" y="-0.9375">ε</tspan>
       <tspan style="font: 14px 'Arial'" x="7.567383 11.457031 19.632812 23.522461 31.308594 35.198242" y="-0.9375"> = 0.2</tspan>
      </text>
     </g>
    </g>
    <g id="line2d_40">
     <path d="M 250.68 325.3175 
L 264.68 325.3175 
L 278.68 325.3175 
" style="fill: none; stroke: #029e73; stroke-width: 2; stroke-linecap: round"/>
    </g>
    <g id="text_20">
     <!-- $\varepsilon$ = 0.3 -->
     <g style="fill: #262626" transform="translate(289.88 330.2175)">
      <text>
       <tspan style="font: oblique 14px 'DejaVu Sans'" x="0" y="-0.9375">ε</tspan>
       <tspan style="font: 14px 'Arial'" x="7.567383 11.457031 19.632812 23.522461 31.308594 35.198242" y="-0.9375"> = 0.3</tspan>
      </text>
     </g>
    </g>
   </g>
  </g>
 </g>
 <defs>
  <clipPath id="p98678bfe11">
   <rect x="86.4" y="86.4" width="259.2" height="259.2"/>
  </clipPath>
 </defs>
</svg>
