<?xml version="1.0" encoding="utf-8" standalone="no"?>
<!DOCTYPE svg PUBLIC "-//W3C//DTD SVG 1.1//EN"
  "http://www.w3.org/Graphics/SVG/1.1/DTD/svg11.dtd">
<svg xmlns:xlink="http://www.w3.org/1999/xlink" width="432pt" height="432pt" viewBox="0 0 432 432" xmlns="http://www.w3.org/2000/svg" version="1.1">
 <metadata>
  <rdf:RDF xmlns:dc="http://purl.org/dc/elements/1.1/" xmlns:cc="http://creativecommons.org/ns#" xmlns:rdf="http://www.w3.org/1999/02/22-rdf-syntax-ns#">
   <cc:Work>
    <dc:type rdf:resource="http://purl.org/dc/dcmitype/StillImage"/>
    <dc:date>2024-09-24T13:52:52.854496</dc:date>
    <dc:format>image/svg+xml</dc:format>
    <dc:creator>
     <cc:Agent>
      <dc:title>Matplotlib v3.8.4, https://matplotlib.org/</dc:title>
     </cc:Agent>
    </dc:creator>
   </cc:Work>
  </rdf:RDF>
 </metadata>
 <defs>
  <style type="text/css">*{stroke-linejoin: round; stroke-linecap: butt}</style>
 </defs>
 <g id="figure_1">
  <g id="patch_1">
   <path d="M 0 432 
L 432 432 
L 432 0 
L 0 0 
L 0 432 
z
" style="fill: none"/>
  </g>
  <g id="axes_1">
   <g id="patch_2">
    <path d="M 86.4 345.6 
L 345.6 345.6 
L 345.6 86.4 
L 86.4 86.4 
L 86.4 345.6 
z
" style="fill: none"/>
   </g>
   <g id="matplotlib.axis_1">
    <g id="xtick_1">
     <g id="line2d_1">
      <defs>
       <path id="md6a222876e" d="M 0 0 
L 0 6 
" style="stroke: #262626; stroke-width: 1.25"/>
      </defs>
      <g>
       <use xlink:href="#md6a222876e" x="86.4" y="345.6" style="fill: #262626; stroke: #262626; stroke-width: 1.25"/>
      </g>
     </g>
     <g id="text_1">
      <text style="fill: #262626; font: 16px 'Arial', 'DejaVu Sans', 'Liberation Sans', 'Bitstream Vera Sans', sans-serif; text-anchor: middle" x="86.4" y="366.5525" transform="rotate(-0 86.4 366.5525)">Jan</text>
     </g>
    </g>
    <g id="xtick_2">
     <g id="line2d_2">
      <g>
       <use xlink:href="#md6a222876e" x="97.407123" y="345.6" style="fill: #262626; stroke: #262626; stroke-width: 1.25"/>
      </g>
     </g>
    </g>
    <g id="xtick_3">
     <g id="line2d_3">
      <g>
       <use xlink:href="#md6a222876e" x="107.349041" y="345.6" style="fill: #262626; stroke: #262626; stroke-width: 1.25"/>
      </g>
     </g>
    </g>
    <g id="xtick_4">
     <g id="line2d_4">
      <g>
       <use xlink:href="#md6a222876e" x="118.356164" y="345.6" style="fill: #262626; stroke: #262626; stroke-width: 1.25"/>
      </g>
     </g>
     <g id="text_2">
      <text style="fill: #262626; font: 16px 'Arial', 'DejaVu Sans', 'Liberation Sans', 'Bitstream Vera Sans', sans-serif; text-anchor: middle" x="118.356164" y="366.5525" transform="rotate(-0 118.356164 366.5525)">Apr</text>
     </g>
    </g>
    <g id="xtick_5">
     <g id="line2d_5">
      <g>
       <use xlink:href="#md6a222876e" x="129.008219" y="345.6" style="fill: #262626; stroke: #262626; stroke-width: 1.25"/>
      </g>
     </g>
    </g>
    <g id="xtick_6">
     <g id="line2d_6">
      <g>
       <use xlink:href="#md6a222876e" x="140.015342" y="345.6" style="fill: #262626; stroke: #262626; stroke-width: 1.25"/>
      </g>
     </g>
    </g>
    <g id="xtick_7">
     <g id="line2d_7">
      <g>
       <use xlink:href="#md6a222876e" x="150.667397" y="345.6" style="fill: #262626; stroke: #262626; stroke-width: 1.25"/>
      </g>
     </g>
     <g id="text_3">
      <text style="fill: #262626; font: 16px 'Arial', 'DejaVu Sans', 'Liberation Sans', 'Bitstream Vera Sans', sans-serif; text-anchor: middle" x="150.667397" y="366.5525" transform="rotate(-0 150.667397 366.5525)">Jul</text>
     </g>
    </g>
    <g id="xtick_8">
     <g id="line2d_8">
      <g>
       <use xlink:href="#md6a222876e" x="161.674521" y="345.6" style="fill: #262626; stroke: #262626; stroke-width: 1.25"/>
      </g>
     </g>
    </g>
    <g id="xtick_9">
     <g id="line2d_9">
      <g>
       <use xlink:href="#md6a222876e" x="172.681644" y="345.6" style="fill: #262626; stroke: #262626; stroke-width: 1.25"/>
      </g>
     </g>
    </g>
    <g id="xtick_10">
     <g id="line2d_10">
      <g>
       <use xlink:href="#md6a222876e" x="183.333699" y="345.6" style="fill: #262626; stroke: #262626; stroke-width: 1.25"/>
      </g>
     </g>
     <g id="text_4">
      <text style="fill: #262626; font: 16px 'Arial', 'DejaVu Sans', 'Liberation Sans', 'Bitstream Vera Sans', sans-serif; text-anchor: middle" x="183.333699" y="366.5525" transform="rotate(-0 183.333699 366.5525)">Oct</text>
     </g>
    </g>
    <g id="xtick_11">
     <g id="line2d_11">
      <g>
       <use xlink:href="#md6a222876e" x="194.340822" y="345.6" style="fill: #262626; stroke: #262626; stroke-width: 1.25"/>
      </g>
     </g>
    </g>
    <g id="xtick_12">
     <g id="line2d_12">
      <g>
       <use xlink:href="#md6a222876e" x="204.992877" y="345.6" style="fill: #262626; stroke: #262626; stroke-width: 1.25"/>
      </g>
     </g>
    </g>
    <g id="xtick_13">
     <g id="line2d_13">
      <g>
       <use xlink:href="#md6a222876e" x="216" y="345.6" style="fill: #262626; stroke: #262626; stroke-width: 1.25"/>
      </g>
     </g>
     <g id="text_5">
      <text style="fill: #262626; font: 16px 'Arial', 'DejaVu Sans', 'Liberation Sans', 'Bitstream Vera Sans', sans-serif; text-anchor: middle" x="216" y="366.5525" transform="rotate(-0 216 366.5525)">Jan</text>
     </g>
    </g>
    <g id="xtick_14">
     <g id="line2d_14">
      <g>
       <use xlink:href="#md6a222876e" x="227.007123" y="345.6" style="fill: #262626; stroke: #262626; stroke-width: 1.25"/>
      </g>
     </g>
    </g>
    <g id="xtick_15">
     <g id="line2d_15">
      <g>
       <use xlink:href="#md6a222876e" x="236.949041" y="345.6" style="fill: #262626; stroke: #262626; stroke-width: 1.25"/>
      </g>
     </g>
    </g>
    <g id="xtick_16">
     <g id="line2d_16">
      <g>
       <use xlink:href="#md6a222876e" x="247.956164" y="345.6" style="fill: #262626; stroke: #262626; stroke-width: 1.25"/>
      </g>
     </g>
     <g id="text_6">
      <text style="fill: #262626; font: 16px 'Arial', 'DejaVu Sans', 'Liberation Sans', 'Bitstream Vera Sans', sans-serif; text-anchor: middle" x="247.956164" y="366.5525" transform="rotate(-0 247.956164 366.5525)">Apr</text>
     </g>
    </g>
    <g id="xtick_17">
     <g id="line2d_17">
      <g>
       <use xlink:href="#md6a222876e" x="258.608219" y="345.6" style="fill: #262626; stroke: #262626; stroke-width: 1.25"/>
      </g>
     </g>
    </g>
    <g id="xtick_18">
     <g id="line2d_18">
      <g>
       <use xlink:href="#md6a222876e" x="269.615342" y="345.6" style="fill: #262626; stroke: #262626; stroke-width: 1.25"/>
      </g>
     </g>
    </g>
    <g id="xtick_19">
     <g id="line2d_19">
      <g>
       <use xlink:href="#md6a222876e" x="280.267397" y="345.6" style="fill: #262626; stroke: #262626; stroke-width: 1.25"/>
      </g>
     </g>
     <g id="text_7">
      <text style="fill: #262626; font: 16px 'Arial', 'DejaVu Sans', 'Liberation Sans', 'Bitstream Vera Sans', sans-serif; text-anchor: middle" x="280.267397" y="366.5525" transform="rotate(-0 280.267397 366.5525)">Jul</text>
     </g>
    </g>
    <g id="xtick_20">
     <g id="line2d_20">
      <g>
       <use xlink:href="#md6a222876e" x="291.274521" y="345.6" style="fill: #262626; stroke: #262626; stroke-width: 1.25"/>
      </g>
     </g>
    </g>
    <g id="xtick_21">
     <g id="line2d_21">
      <g>
       <use xlink:href="#md6a222876e" x="302.281644" y="345.6" style="fill: #262626; stroke: #262626; stroke-width: 1.25"/>
      </g>
     </g>
    </g>
    <g id="xtick_22">
     <g id="line2d_22">
      <g>
       <use xlink:href="#md6a222876e" x="312.933699" y="345.6" style="fill: #262626; stroke: #262626; stroke-width: 1.25"/>
      </g>
     </g>
     <g id="text_8">
      <text style="fill: #262626; font: 16px 'Arial', 'DejaVu Sans', 'Liberation Sans', 'Bitstream Vera Sans', sans-serif; text-anchor: middle" x="312.933699" y="366.5525" transform="rotate(-0 312.933699 366.5525)">Oct</text>
     </g>
    </g>
    <g id="xtick_23">
     <g id="line2d_23">
      <g>
       <use xlink:href="#md6a222876e" x="323.940822" y="345.6" style="fill: #262626; stroke: #262626; stroke-width: 1.25"/>
      </g>
     </g>
    </g>
    <g id="xtick_24">
     <g id="line2d_24">
      <g>
       <use xlink:href="#md6a222876e" x="334.592877" y="345.6" style="fill: #262626; stroke: #262626; stroke-width: 1.25"/>
      </g>
     </g>
    </g>
    <g id="xtick_25">
     <g id="line2d_25">
      <g>
       <use xlink:href="#md6a222876e" x="345.6" y="345.6" style="fill: #262626; stroke: #262626; stroke-width: 1.25"/>
      </g>
     </g>
     <g id="text_9">
      <text style="fill: #262626; font: 16px 'Arial', 'DejaVu Sans', 'Liberation Sans', 'Bitstream Vera Sans', sans-serif; text-anchor: middle" x="345.6" y="366.5525" transform="rotate(-0 345.6 366.5525)">Jan</text>
     </g>
    </g>
    <g id="text_10">
     <text style="fill: #262626; font: 16px 'Arial', 'DejaVu Sans', 'Liberation Sans', 'Bitstream Vera Sans', sans-serif; text-anchor: middle" x="216" y="385.185" transform="rotate(-0 216 385.185)"> </text>
    </g>
   </g>
   <g id="matplotlib.axis_2">
    <g id="ytick_1">
     <g id="line2d_26">
      <defs>
       <path id="m854b5af4d3" d="M 0 0 
L -6 0 
" style="stroke: #262626; stroke-width: 1.25"/>
      </defs>
      <g>
       <use xlink:href="#m854b5af4d3" x="86.4" y="345.6" style="fill: #262626; stroke: #262626; stroke-width: 1.25"/>
      </g>
     </g>
     <g id="text_11">
      <text style="fill: #262626; font: 16px 'Arial', 'DejaVu Sans', 'Liberation Sans', 'Bitstream Vera Sans', sans-serif; text-anchor: end" x="76.9" y="351.32625" transform="rotate(-0 76.9 351.32625)">0.0</text>
     </g>
    </g>
    <g id="ytick_2">
     <g id="line2d_27">
      <g>
       <use xlink:href="#m854b5af4d3" x="86.4" y="293.76" style="fill: #262626; stroke: #262626; stroke-width: 1.25"/>
      </g>
     </g>
     <g id="text_12">
      <text style="fill: #262626; font: 16px 'Arial', 'DejaVu Sans', 'Liberation Sans', 'Bitstream Vera Sans', sans-serif; text-anchor: end" x="76.9" y="299.48625" transform="rotate(-0 76.9 299.48625)">0.1</text>
     </g>
    </g>
    <g id="ytick_3">
     <g id="line2d_28">
      <g>
       <use xlink:href="#m854b5af4d3" x="86.4" y="241.92" style="fill: #262626; stroke: #262626; stroke-width: 1.25"/>
      </g>
     </g>
     <g id="text_13">
      <text style="fill: #262626; font: 16px 'Arial', 'DejaVu Sans', 'Liberation Sans', 'Bitstream Vera Sans', sans-serif; text-anchor: end" x="76.9" y="247.64625" transform="rotate(-0 76.9 247.64625)">0.2</text>
     </g>
    </g>
    <g id="ytick_4">
     <g id="line2d_29">
      <g>
       <use xlink:href="#m854b5af4d3" x="86.4" y="190.08" style="fill: #262626; stroke: #262626; stroke-width: 1.25"/>
      </g>
     </g>
     <g id="text_14">
      <text style="fill: #262626; font: 16px 'Arial', 'DejaVu Sans', 'Liberation Sans', 'Bitstream Vera Sans', sans-serif; text-anchor: end" x="76.9" y="195.80625" transform="rotate(-0 76.9 195.80625)">0.3</text>
     </g>
    </g>
    <g id="ytick_5">
     <g id="line2d_30">
      <g>
       <use xlink:href="#m854b5af4d3" x="86.4" y="138.24" style="fill: #262626; stroke: #262626; stroke-width: 1.25"/>
      </g>
     </g>
     <g id="text_15">
      <text style="fill: #262626; font: 16px 'Arial', 'DejaVu Sans', 'Liberation Sans', 'Bitstream Vera Sans', sans-serif; text-anchor: end" x="76.9" y="143.96625" transform="rotate(-0 76.9 143.96625)">0.4</text>
     </g>
    </g>
    <g id="ytick_6">
     <g id="line2d_31">
      <g>
       <use xlink:href="#m854b5af4d3" x="86.4" y="86.4" style="fill: #262626; stroke: #262626; stroke-width: 1.25"/>
      </g>
     </g>
     <g id="text_16">
      <text style="fill: #262626; font: 16px 'Arial', 'DejaVu Sans', 'Liberation Sans', 'Bitstream Vera Sans', sans-serif; text-anchor: end" x="76.9" y="92.12625" transform="rotate(-0 76.9 92.12625)">0.5</text>
     </g>
    </g>
    <g id="text_17">
     <text style="fill: #262626; font: 16px 'Arial', 'DejaVu Sans', 'Liberation Sans', 'Bitstream Vera Sans', sans-serif; text-anchor: middle" x="47.48" y="216" transform="rotate(-90 47.48 216)">Outbreak risk</text>
    </g>
   </g>
   <g id="PolyCollection_1">
    <defs>
     <path id="m219e1a77bf" d="M 210.318904 -86.4 
L 183.333699 -86.4 
L 183.333699 -345.6 
L 210.318904 -345.6 
L 210.318904 -345.6 
L 210.318904 -86.4 
z
"/>
    </defs>
    <g clip-path="url(#p0eb28cbad8)">
     <use xlink:href="#m219e1a77bf" x="0" y="432" style="fill: #808080; fill-opacity: 0.5"/>
    </g>
   </g>
   <g id="PolyCollection_2">
    <defs>
     <path id="mb227c6cc8d" d="M 339.918904 -86.4 
L 312.933699 -86.4 
L 312.933699 -345.6 
L 339.918904 -345.6 
L 339.918904 -345.6 
L 339.918904 -86.4 
z
"/>
    </defs>
    <g clip-path="url(#p0eb28cbad8)">
     <use xlink:href="#mb227c6cc8d" x="0" y="432" style="fill: #808080; fill-opacity: 0.5"/>
    </g>
   </g>
   <g id="line2d_32">
    <path d="M 86.4 125.671908 
L 88.885479 125.919554 
L 91.370959 126.368035 
L 94.211507 127.121991 
L 97.052055 128.125654 
L 99.892603 129.36774 
L 103.088219 131.031548 
L 106.283836 132.951615 
L 109.834521 135.345033 
L 114.095342 138.501825 
L 120.486575 143.570386 
L 127.587945 149.142445 
L 131.493699 151.919768 
L 134.689315 153.925607 
L 137.529863 155.450363 
L 140.015342 156.551765 
L 142.500822 157.411871 
L 144.986301 158.012713 
L 147.116712 158.311761 
L 149.247123 158.406698 
L 151.377534 158.296476 
L 153.507945 157.983372 
L 155.993425 157.369181 
L 158.478904 156.500408 
L 160.964384 155.396027 
L 163.804932 153.875391 
L 167.000548 151.883457 
L 170.551233 149.395466 
L 175.167123 145.875186 
L 187.594521 136.237398 
L 191.500274 133.549724 
L 195.050959 131.37194 
L 198.246575 129.668998 
L 201.087123 128.3836 
L 203.927671 127.329865 
L 206.768219 126.520446 
L 209.608767 125.964852 
L 212.094247 125.692118 
L 214.579726 125.621305 
L 217.065205 125.7533 
L 219.550685 126.087329 
L 222.036164 126.620927 
L 224.876712 127.469635 
L 227.71726 128.564211 
L 230.557808 129.892093 
L 233.753425 131.644597 
L 236.949041 133.643048 
L 240.854795 136.36744 
L 245.470685 139.883661 
L 259.673425 150.945597 
L 263.22411 153.288345 
L 266.064658 154.909968 
L 268.905205 156.260787 
L 271.390685 157.191895 
L 273.876164 157.868335 
L 276.006575 158.234609 
L 278.136986 158.397865 
L 280.267397 158.35594 
L 282.397808 158.110007 
L 284.528219 157.664515 
L 287.013699 156.902803 
L 289.499178 155.896779 
L 292.339726 154.475677 
L 295.180274 152.801859 
L 298.37589 150.670319 
L 302.281644 147.800488 
L 308.672877 142.781478 
L 315.774247 137.276642 
L 320.035068 134.255131 
L 323.585753 131.995534 
L 326.78137 130.207595 
L 329.976986 128.683797 
L 332.817534 127.570833 
L 335.658082 126.699324 
L 338.49863 126.079548 
L 340.98411 125.749518 
L 343.469589 125.62085 
L 345.244932 125.653047 
L 345.244932 125.653047 
" clip-path="url(#p0eb28cbad8)" style="fill: none; stroke-dasharray: 7.4,3.2; stroke-dashoffset: 0; stroke: #de8f05; stroke-opacity: 0.75; stroke-width: 2"/>
   </g>
   <g id="line2d_33">
    <path d="M 86.4 221.467368 
L 89.595616 217.497011 
L 92.791233 213.885232 
L 95.631781 210.98783 
L 98.472329 208.391084 
L 101.312877 206.095309 
L 104.153425 204.094662 
L 106.993973 202.377216 
L 109.834521 200.924363 
L 112.675068 199.711074 
L 115.870685 198.593275 
L 119.42137 197.595005 
L 124.03726 196.544044 
L 132.913973 194.577709 
L 136.464658 193.539446 
L 139.660274 192.372212 
L 142.500822 191.107288 
L 145.34137 189.600771 
L 148.181918 187.836028 
L 151.022466 185.80638 
L 153.863014 183.515399 
L 157.05863 180.642533 
L 160.609315 177.122173 
L 164.515068 172.922175 
L 169.486027 167.235464 
L 179.072877 156.14561 
L 180.848219 154.443709 
L 181.913425 153.711682 
L 182.623562 153.464848 
L 183.333699 153.540269 
L 183.688767 153.753744 
L 184.043836 154.132158 
L 184.753973 155.345509 
L 186.884384 159.604748 
L 189.369863 165.028703 
L 191.855342 170.984187 
L 194.340822 177.54448 
L 196.826301 184.787203 
L 199.311781 192.778382 
L 201.79726 201.516226 
L 207.478356 222.129428 
L 208.543562 225.14299 
L 209.253699 226.710125 
L 209.963836 227.781792 
L 210.318904 228.083592 
L 210.673973 228.196859 
L 211.029041 228.081929 
L 211.739178 227.257433 
L 216.710137 220.555067 
L 219.905753 216.662789 
L 223.10137 213.132928 
L 225.941918 210.310356 
L 228.782466 207.789034 
L 231.623014 205.567849 
L 234.463562 203.639352 
L 237.30411 201.990075 
L 240.144658 200.599703 
L 242.985205 199.441678 
L 246.180822 198.375452 
L 250.086575 197.333633 
L 255.767671 196.101229 
L 262.158904 194.669536 
L 265.709589 193.65436 
L 268.905205 192.514555 
L 271.745753 191.278171 
L 274.586301 189.802963 
L 277.426849 188.071076 
L 280.267397 186.074549 
L 283.107945 183.815704 
L 286.303562 180.976345 
L 289.854247 177.488211 
L 293.76 173.315766 
L 298.730959 167.649988 
L 309.027945 155.776964 
L 310.448219 154.443709 
L 311.513425 153.711682 
L 312.223562 153.464848 
L 312.933699 153.540269 
L 313.288767 153.753744 
L 313.643836 154.132158 
L 314.353973 155.345509 
L 316.484384 159.604748 
L 318.969863 165.028703 
L 321.455342 170.984187 
L 323.940822 177.54448 
L 326.426301 184.787203 
L 328.911781 192.778382 
L 331.39726 201.516226 
L 337.078356 222.129428 
L 338.143562 225.14299 
L 338.853699 226.710125 
L 339.563836 227.781792 
L 339.918904 228.083592 
L 340.273973 228.196859 
L 340.629041 228.081929 
L 341.339178 227.257433 
L 345.244932 221.929812 
L 345.244932 221.929812 
" clip-path="url(#p0eb28cbad8)" style="fill: none; stroke: #de8f05; stroke-width: 2; stroke-linecap: round"/>
   </g>
   <g id="line2d_34">
    <path d="M 86.4 112.683727 
L 88.530411 113.022938 
L 90.660822 113.621576 
L 92.791233 114.478824 
L 94.921644 115.593162 
L 97.052055 116.962244 
L 99.182466 118.582724 
L 101.667945 120.784854 
L 104.153425 123.313058 
L 106.638904 126.154079 
L 109.479452 129.761358 
L 112.32 133.719846 
L 115.515616 138.536436 
L 119.42137 144.825917 
L 131.848767 165.21522 
L 134.689315 169.252375 
L 137.174795 172.369931 
L 139.305205 174.666584 
L 141.080548 176.279266 
L 142.85589 177.593063 
L 144.631233 178.589043 
L 146.051507 179.147422 
L 147.471781 179.488628 
L 148.892055 179.610195 
L 150.312329 179.511924 
L 151.732603 179.195848 
L 153.152877 178.666147 
L 154.573151 177.929026 
L 156.348493 176.728396 
L 158.123836 175.235798 
L 159.899178 173.474081 
L 162.029589 171.041012 
L 164.515068 167.823699 
L 167.355616 163.746232 
L 170.906301 158.227275 
L 178.36274 146.058046 
L 182.97863 138.754674 
L 186.529315 133.512906 
L 189.724932 129.177686 
L 192.565479 125.681002 
L 195.406027 122.555662 
L 197.891507 120.146362 
L 200.376986 118.055097 
L 202.507397 116.523788 
L 204.637808 115.239119 
L 206.768219 114.205164 
L 208.89863 113.42507 
L 211.029041 112.901206 
L 213.159452 112.635268 
L 215.289863 112.628359 
L 217.420274 112.881021 
L 219.550685 113.393242 
L 221.681096 114.164418 
L 223.811507 115.193276 
L 225.941918 116.477763 
L 228.072329 118.014885 
L 230.20274 119.800513 
L 232.688219 122.190378 
L 235.173699 124.899209 
L 238.014247 128.365413 
L 240.854795 132.196859 
L 244.050411 136.892574 
L 247.956164 143.076104 
L 253.63726 152.566324 
L 259.318356 161.93216 
L 262.513973 166.780677 
L 264.999452 170.186874 
L 267.129863 172.778331 
L 269.260274 175.01197 
L 271.035616 176.566609 
L 272.810959 177.818206 
L 274.231233 178.589043 
L 275.651507 179.147422 
L 277.071781 179.488628 
L 278.492055 179.610195 
L 279.912329 179.511924 
L 281.332603 179.195848 
L 282.752877 178.666147 
L 284.173151 177.929026 
L 285.948493 176.728396 
L 287.723836 175.235798 
L 289.499178 173.474081 
L 291.629589 171.041012 
L 294.115068 167.823699 
L 296.955616 163.746232 
L 300.506301 158.227275 
L 307.96274 146.058046 
L 312.57863 138.754674 
L 316.129315 133.512906 
L 319.324932 129.177686 
L 322.165479 125.681002 
L 325.006027 122.555662 
L 327.491507 120.146362 
L 329.976986 118.055097 
L 332.107397 116.523788 
L 334.237808 115.239119 
L 336.368219 114.205164 
L 338.49863 113.42507 
L 340.629041 112.901206 
L 342.759452 112.635268 
L 344.889863 112.628359 
L 345.244932 112.652436 
L 345.244932 112.652436 
" clip-path="url(#p0eb28cbad8)" style="fill: none; stroke-dasharray: 7.4,3.2; stroke-dashoffset: 0; stroke: #0173b2; stroke-opacity: 0.75; stroke-width: 2"/>
   </g>
   <g id="line2d_35">
    <path d="M 86.4 203.809891 
L 88.530411 201.500342 
L 90.660822 199.494147 
L 92.791233 197.794145 
L 94.921644 196.402112 
L 96.696986 195.477712 
L 98.472329 194.766952 
L 100.247671 194.268401 
L 102.023014 193.979451 
L 103.798356 193.896329 
L 105.573699 194.014015 
L 107.349041 194.325925 
L 109.479452 194.944786 
L 111.609863 195.813464 
L 113.740274 196.909957 
L 116.225753 198.441095 
L 119.066301 200.459901 
L 122.972055 203.538346 
L 129.363288 208.60943 
L 132.203836 210.548409 
L 134.334247 211.755563 
L 136.464658 212.689332 
L 138.24 213.221838 
L 140.015342 213.503242 
L 141.435616 213.532599 
L 142.85589 213.377722 
L 144.276164 213.03125 
L 145.696438 212.487887 
L 147.116712 211.744468 
L 148.892055 210.532435 
L 150.667397 209.008857 
L 152.44274 207.18129 
L 154.218082 205.061952 
L 156.348493 202.157024 
L 158.478904 198.891275 
L 160.964384 194.681171 
L 163.804932 189.433562 
L 167.355616 182.394848 
L 173.746849 169.096645 
L 178.717808 158.968643 
L 180.848219 155.078185 
L 181.913425 153.458432 
L 182.623562 152.62349 
L 183.333699 152.111902 
L 183.688767 152.032047 
L 184.043836 152.117342 
L 184.753973 152.744915 
L 186.529315 154.815281 
L 188.659726 157.656711 
L 190.790137 160.908573 
L 192.920548 164.617797 
L 195.050959 168.833675 
L 197.18137 173.607088 
L 199.311781 178.985892 
L 201.442192 184.997684 
L 203.927671 192.74751 
L 207.833425 205.190055 
L 208.89863 207.904526 
L 209.608767 209.263221 
L 210.318904 210.078784 
L 210.673973 210.216422 
L 211.029041 210.117356 
L 211.739178 209.296834 
L 214.934795 205.07726 
L 217.420274 202.236659 
L 219.550685 200.128951 
L 221.681096 198.32666 
L 223.811507 196.831856 
L 225.941918 195.645469 
L 227.71726 194.892055 
L 229.492603 194.351244 
L 231.267945 194.020639 
L 233.043288 193.896707 
L 234.81863 193.974705 
L 236.593973 194.248379 
L 238.724384 194.823766 
L 240.854795 195.65222 
L 242.985205 196.712464 
L 245.470685 198.207441 
L 248.311233 200.19465 
L 252.216986 203.250241 
L 258.963288 208.60943 
L 261.803836 210.548409 
L 263.934247 211.755563 
L 266.064658 212.689332 
L 267.84 213.221838 
L 269.615342 213.503242 
L 271.035616 213.532599 
L 272.45589 213.377722 
L 273.876164 213.03125 
L 275.296438 212.487887 
L 276.716712 211.744468 
L 278.492055 210.532435 
L 280.267397 209.008857 
L 282.04274 207.18129 
L 283.818082 205.061952 
L 285.948493 202.157024 
L 288.078904 198.891275 
L 290.564384 194.681171 
L 293.404932 189.433562 
L 296.955616 182.394848 
L 303.346849 169.096645 
L 308.317808 158.968643 
L 310.448219 155.078185 
L 311.513425 153.458432 
L 312.223562 152.62349 
L 312.933699 152.111902 
L 313.288767 152.032047 
L 313.643836 152.117342 
L 314.353973 152.744915 
L 316.129315 154.815281 
L 318.259726 157.656711 
L 320.390137 160.908573 
L 322.520548 164.617797 
L 324.650959 168.833675 
L 326.78137 173.607088 
L 328.911781 178.985892 
L 331.042192 184.997684 
L 333.527671 192.74751 
L 337.433425 205.190055 
L 338.49863 207.904526 
L 339.208767 209.263221 
L 339.918904 210.078784 
L 340.273973 210.216422 
L 340.629041 210.117356 
L 341.339178 209.296834 
L 344.534795 205.07726 
L 345.244932 204.224071 
L 345.244932 204.224071 
" clip-path="url(#p0eb28cbad8)" style="fill: none; stroke: #0173b2; stroke-width: 2; stroke-linecap: round"/>
   </g>
   <g id="line2d_36">
    <path d="M 86.4 101.313171 
L 88.175342 101.654857 
L 89.950685 102.23568 
L 91.726027 103.056574 
L 93.50137 104.118615 
L 95.276712 105.422976 
L 97.052055 106.970851 
L 99.182466 109.151324 
L 101.312877 111.685658 
L 103.443288 114.574675 
L 105.573699 117.817959 
L 108.059178 122.046395 
L 110.544658 126.745661 
L 113.030137 131.900701 
L 115.870685 138.318353 
L 119.066301 146.139311 
L 122.972055 156.381147 
L 133.62411 184.863177 
L 136.109589 190.65438 
L 138.24 195.046257 
L 140.015342 198.212236 
L 141.435616 200.377855 
L 142.85589 202.188561 
L 144.276164 203.623234 
L 145.34137 204.442828 
L 146.406575 205.037463 
L 147.471781 205.404454 
L 148.536986 205.542926 
L 149.602192 205.453758 
L 150.667397 205.139514 
L 151.732603 204.604343 
L 152.797808 203.853868 
L 154.218082 202.530556 
L 155.638356 200.856875 
L 157.05863 198.855947 
L 158.833973 195.934111 
L 160.609315 192.596214 
L 162.739726 188.123428 
L 165.225205 182.391173 
L 168.420822 174.456261 
L 181.558356 141.106192 
L 184.753973 133.906123 
L 187.594521 128.023934 
L 190.435068 122.678411 
L 192.920548 118.466223 
L 195.406027 114.702615 
L 197.536438 111.840221 
L 199.666849 109.316814 
L 201.79726 107.134121 
L 203.927671 105.292917 
L 205.703014 104.019596 
L 207.478356 102.983527 
L 209.253699 102.184644 
L 211.029041 101.622925 
L 212.804384 101.298459 
L 214.579726 101.211484 
L 216.355068 101.362416 
L 218.130411 101.751863 
L 219.905753 102.380621 
L 221.681096 103.249654 
L 223.456438 104.360064 
L 225.231781 105.713032 
L 227.007123 107.30975 
L 229.137534 109.549106 
L 231.267945 112.142523 
L 233.398356 115.090655 
L 235.528767 118.392824 
L 238.014247 122.689158 
L 240.499726 127.454646 
L 242.985205 132.673056 
L 245.825753 139.157589 
L 249.02137 147.042916 
L 252.927123 157.339361 
L 262.869041 183.988018 
L 265.354521 189.867057 
L 267.484932 194.356573 
L 269.260274 197.618332 
L 271.035616 200.377855 
L 272.45589 202.188561 
L 273.876164 203.623234 
L 274.94137 204.442828 
L 276.006575 205.037463 
L 277.071781 205.404454 
L 278.136986 205.542926 
L 279.202192 205.453758 
L 280.267397 205.139514 
L 281.332603 204.604343 
L 282.397808 203.853868 
L 283.818082 202.530556 
L 285.238356 200.856875 
L 286.65863 198.855947 
L 288.433973 195.934111 
L 290.209315 192.596214 
L 292.339726 188.123428 
L 294.825205 182.391173 
L 298.020822 174.456261 
L 311.158356 141.106192 
L 314.353973 133.906123 
L 317.194521 128.023934 
L 320.035068 122.678411 
L 322.520548 118.466223 
L 325.006027 114.702615 
L 327.136438 111.840221 
L 329.266849 109.316814 
L 331.39726 107.134121 
L 333.527671 105.292917 
L 335.303014 104.019596 
L 337.078356 102.983527 
L 338.853699 102.184644 
L 340.629041 101.622925 
L 342.404384 101.298459 
L 344.179726 101.211484 
L 345.244932 101.27346 
L 345.244932 101.27346 
" clip-path="url(#p0eb28cbad8)" style="fill: none; stroke-dasharray: 7.4,3.2; stroke-dashoffset: 0; stroke: #029e73; stroke-opacity: 0.75; stroke-width: 2"/>
   </g>
   <g id="line2d_37">
    <path d="M 86.4 188.270694 
L 88.175342 186.555579 
L 89.950685 185.130218 
L 91.726027 183.996557 
L 93.50137 183.156504 
L 95.276712 182.612007 
L 96.696986 182.390507 
L 98.11726 182.360178 
L 99.537534 182.521763 
L 100.957808 182.875659 
L 102.378082 183.42201 
L 104.153425 184.375096 
L 105.928767 185.626975 
L 107.70411 187.174664 
L 109.479452 189.013209 
L 111.609863 191.593081 
L 113.740274 194.563249 
L 115.870685 197.897838 
L 118.356164 202.201059 
L 121.196712 207.567486 
L 125.457534 216.167362 
L 130.428493 226.112944 
L 132.913973 230.602661 
L 135.044384 233.984045 
L 136.819726 236.378056 
L 138.24 237.969497 
L 139.660274 239.2424 
L 141.080548 240.17316 
L 142.145753 240.63527 
L 143.210959 240.888215 
L 144.276164 240.927591 
L 145.34137 240.750502 
L 146.406575 240.355598 
L 147.471781 239.74301 
L 148.536986 238.914216 
L 149.95726 237.478022 
L 151.377534 235.673033 
L 152.797808 233.513314 
L 154.573151 230.341729 
L 156.348493 226.684278 
L 158.478904 221.72104 
L 160.964384 215.255191 
L 163.804932 207.167976 
L 167.710685 195.259958 
L 177.652603 164.523305 
L 180.138082 157.561118 
L 181.913425 153.231584 
L 182.97863 151.231888 
L 183.688767 150.382162 
L 184.043836 150.188097 
L 184.753973 150.261843 
L 186.174247 150.811937 
L 187.594521 151.570736 
L 189.014795 152.535515 
L 190.435068 153.718732 
L 192.210411 155.524713 
L 193.985753 157.717959 
L 195.761096 160.324851 
L 197.536438 163.372553 
L 199.311781 166.88748 
L 201.087123 170.890471 
L 203.217534 176.337533 
L 205.703014 183.414121 
L 208.188493 190.433863 
L 209.253699 192.839024 
L 209.963836 193.953094 
L 210.318904 194.292366 
L 210.673973 194.442563 
L 211.029041 194.35185 
L 211.739178 193.531628 
L 214.224658 190.273687 
L 216.355068 187.904567 
L 218.130411 186.247277 
L 219.905753 184.880102 
L 221.681096 183.804996 
L 223.456438 183.023897 
L 224.876712 182.612007 
L 226.296986 182.390507 
L 227.71726 182.360178 
L 229.137534 182.521763 
L 230.557808 182.875659 
L 231.978082 183.42201 
L 233.753425 184.375096 
L 235.528767 185.626975 
L 237.30411 187.174664 
L 239.079452 189.013209 
L 241.209863 191.593081 
L 243.340274 194.563249 
L 245.470685 197.897838 
L 247.956164 202.201059 
L 250.796712 207.567486 
L 255.057534 216.167362 
L 260.028493 226.112944 
L 262.513973 230.602661 
L 264.644384 233.984045 
L 266.419726 236.378056 
L 267.84 237.969497 
L 269.260274 239.2424 
L 270.680548 240.17316 
L 271.745753 240.63527 
L 272.810959 240.888215 
L 273.876164 240.927591 
L 274.94137 240.750502 
L 276.006575 240.355598 
L 277.071781 239.74301 
L 278.136986 238.914216 
L 279.55726 237.478022 
L 280.977534 235.673033 
L 282.397808 233.513314 
L 284.173151 230.341729 
L 285.948493 226.684278 
L 288.078904 221.72104 
L 290.564384 215.255191 
L 293.404932 207.167976 
L 297.310685 195.259958 
L 307.252603 164.523305 
L 309.738082 157.561118 
L 311.513425 153.231584 
L 312.57863 151.231888 
L 313.288767 150.382162 
L 313.643836 150.188097 
L 314.353973 150.261843 
L 315.774247 150.811937 
L 317.194521 151.570736 
L 318.614795 152.535515 
L 320.035068 153.718732 
L 321.810411 155.524713 
L 323.585753 157.717959 
L 325.361096 160.324851 
L 327.136438 163.372553 
L 328.911781 166.88748 
L 330.687123 170.890471 
L 332.817534 176.337533 
L 335.303014 183.414121 
L 337.788493 190.433863 
L 338.853699 192.839024 
L 339.563836 193.953094 
L 339.918904 194.292366 
L 340.273973 194.442563 
L 340.629041 194.35185 
L 341.339178 193.531628 
L 343.824658 190.273687 
L 345.244932 188.648346 
L 345.244932 188.648346 
" clip-path="url(#p0eb28cbad8)" style="fill: none; stroke: #029e73; stroke-width: 2; stroke-linecap: round"/>
   </g>
   <g id="patch_3">
    <path d="M 86.4 345.6 
L 86.4 86.4 
" style="fill: none; stroke: #262626; stroke-width: 1.25; stroke-linejoin: miter; stroke-linecap: square"/>
   </g>
   <g id="patch_4">
    <path d="M 86.4 345.6 
L 345.6 345.6 
" style="fill: none; stroke: #262626; stroke-width: 1.25; stroke-linejoin: miter; stroke-linecap: square"/>
   </g>
   <g id="legend_1">
    <g id="patch_5">
     <path d="M 247.88 338.6 
L 335.8 338.6 
Q 338.6 338.6 338.6 335.8 
L 338.6 277.789688 
Q 338.6 274.989688 335.8 274.989688 
L 247.88 274.989688 
Q 245.08 274.989688 245.08 277.789688 
L 245.08 335.8 
Q 245.08 338.6 247.88 338.6 
z
" style="fill: #ffffff; opacity: 0.8; stroke: #cccccc; stroke-linejoin: miter"/>
    </g>
    <g id="line2d_38">
     <path d="M 250.68 285.710625 
L 264.68 285.710625 
L 278.68 285.710625 
" style="fill: none; stroke: #de8f05; stroke-width: 2; stroke-linecap: round"/>
    </g>
    <g id="text_18">
     <!-- $\varepsilon$ = 0.1 -->
     <g style="fill: #262626" transform="translate(289.88 290.610625)">
      <text>
       <tspan style="font: oblique 14px 'DejaVu Sans'" x="0" y="-0.9375">ε</tspan>
       <tspan style="font: 14px 'Arial'" x="7.567383 11.457031 19.632812 23.522461 31.308594 35.198242" y="-0.9375"> = 0.1</tspan>
      </text>
     </g>
    </g>
    <g id="line2d_39">
     <path d="M 250.68 305.514063 
L 264.68 305.514063 
L 278.68 305.514063 
" style="fill: none; stroke: #0173b2; stroke-width: 2; stroke-linecap: round"/>
    </g>
    <g id="text_19">
     <!-- $\varepsilon$ = 0.2 -->
     <g style="fill: #262626" transform="translate(289.88 310.414062)">
      <text>
       <tspan style="font: oblique 14px 'DejaVu Sans'" x="0" y="-0.9375">ε</tspan>
       <tspan style="font: 14px 'Arial'" x="7.567383 11.457031 19.632812 23.522461 31.308594 35.198242" y="-0.9375"> = 0.2</tspan>
      </text>
     </g>
    </g>
    <g id="line2d_40">
     <path d="M 250.68 325.3175 
L 264.68 325.3175 
L 278.68 325.3175 
" style="fill: none; stroke: #029e73; stroke-width: 2; stroke-linecap: round"/>
    </g>
    <g id="text_20">
     <!-- $\varepsilon$ = 0.3 -->
     <g style="fill: #262626" transform="translate(289.88 330.2175)">
      <text>
       <tspan style="font: oblique 14px 'DejaVu Sans'" x="0" y="-0.9375">ε</tspan>
       <tspan style="font: 14px 'Arial'" x="7.567383 11.457031 19.632812 23.522461 31.308594 35.198242" y="-0.9375"> = 0.3</tspan>
      </text>
     </g>
    </g>
   </g>
  </g>
 </g>
 <defs>
  <clipPath id="p0eb28cbad8">
   <rect x="86.4" y="86.4" width="259.2" height="259.2"/>
  </clipPath>
 </defs>
</svg>
