<?xml version="1.0" encoding="utf-8" standalone="no"?>
<!DOCTYPE svg PUBLIC "-//W3C//DTD SVG 1.1//EN"
  "http://www.w3.org/Graphics/SVG/1.1/DTD/svg11.dtd">
<svg xmlns:xlink="http://www.w3.org/1999/xlink" width="432pt" height="432pt" viewBox="0 0 432 432" xmlns="http://www.w3.org/2000/svg" version="1.1">
 <metadata>
  <rdf:RDF xmlns:dc="http://purl.org/dc/elements/1.1/" xmlns:cc="http://creativecommons.org/ns#" xmlns:rdf="http://www.w3.org/1999/02/22-rdf-syntax-ns#">
   <cc:Work>
    <dc:type rdf:resource="http://purl.org/dc/dcmitype/StillImage"/>
    <dc:date>2024-06-19T19:26:02.714042</dc:date>
    <dc:format>image/svg+xml</dc:format>
    <dc:creator>
     <cc:Agent>
      <dc:title>Matplotlib v3.8.4, https://matplotlib.org/</dc:title>
     </cc:Agent>
    </dc:creator>
   </cc:Work>
  </rdf:RDF>
 </metadata>
 <defs>
  <style type="text/css">*{stroke-linejoin: round; stroke-linecap: butt}</style>
 </defs>
 <g id="figure_1">
  <g id="patch_1">
   <path d="M 0 432 
L 432 432 
L 432 0 
L 0 0 
L 0 432 
z
" style="fill: none"/>
  </g>
  <g id="axes_1">
   <g id="patch_2">
    <path d="M 86.4 345.6 
L 345.6 345.6 
L 345.6 86.4 
L 86.4 86.4 
L 86.4 345.6 
z
" style="fill: none"/>
   </g>
   <g id="matplotlib.axis_1">
    <g id="xtick_1">
     <g id="line2d_1">
      <defs>
       <path id="mb0c8d1c10c" d="M 0 0 
L 0 6 
" style="stroke: #262626; stroke-width: 1.25"/>
      </defs>
      <g>
       <use xlink:href="#mb0c8d1c10c" x="86.4" y="345.6" style="fill: #262626; stroke: #262626; stroke-width: 1.25"/>
      </g>
     </g>
     <g id="text_1">
      <text style="fill: #262626; font: 16px 'Arial', 'DejaVu Sans', 'Liberation Sans', 'Bitstream Vera Sans', sans-serif; text-anchor: middle" x="86.4" y="366.5525" transform="rotate(-0 86.4 366.5525)">Jan</text>
     </g>
    </g>
    <g id="xtick_2">
     <g id="line2d_2">
      <g>
       <use xlink:href="#mb0c8d1c10c" x="97.2" y="345.6" style="fill: #262626; stroke: #262626; stroke-width: 1.25"/>
      </g>
     </g>
    </g>
    <g id="xtick_3">
     <g id="line2d_3">
      <g>
       <use xlink:href="#mb0c8d1c10c" x="108" y="345.6" style="fill: #262626; stroke: #262626; stroke-width: 1.25"/>
      </g>
     </g>
    </g>
    <g id="xtick_4">
     <g id="line2d_4">
      <g>
       <use xlink:href="#mb0c8d1c10c" x="118.8" y="345.6" style="fill: #262626; stroke: #262626; stroke-width: 1.25"/>
      </g>
     </g>
     <g id="text_2">
      <text style="fill: #262626; font: 16px 'Arial', 'DejaVu Sans', 'Liberation Sans', 'Bitstream Vera Sans', sans-serif; text-anchor: middle" x="118.8" y="366.5525" transform="rotate(-0 118.8 366.5525)">Apr</text>
     </g>
    </g>
    <g id="xtick_5">
     <g id="line2d_5">
      <g>
       <use xlink:href="#mb0c8d1c10c" x="129.6" y="345.6" style="fill: #262626; stroke: #262626; stroke-width: 1.25"/>
      </g>
     </g>
    </g>
    <g id="xtick_6">
     <g id="line2d_6">
      <g>
       <use xlink:href="#mb0c8d1c10c" x="140.4" y="345.6" style="fill: #262626; stroke: #262626; stroke-width: 1.25"/>
      </g>
     </g>
    </g>
    <g id="xtick_7">
     <g id="line2d_7">
      <g>
       <use xlink:href="#mb0c8d1c10c" x="151.2" y="345.6" style="fill: #262626; stroke: #262626; stroke-width: 1.25"/>
      </g>
     </g>
     <g id="text_3">
      <text style="fill: #262626; font: 16px 'Arial', 'DejaVu Sans', 'Liberation Sans', 'Bitstream Vera Sans', sans-serif; text-anchor: middle" x="151.2" y="366.5525" transform="rotate(-0 151.2 366.5525)">Jul</text>
     </g>
    </g>
    <g id="xtick_8">
     <g id="line2d_8">
      <g>
       <use xlink:href="#mb0c8d1c10c" x="162" y="345.6" style="fill: #262626; stroke: #262626; stroke-width: 1.25"/>
      </g>
     </g>
    </g>
    <g id="xtick_9">
     <g id="line2d_9">
      <g>
       <use xlink:href="#mb0c8d1c10c" x="172.8" y="345.6" style="fill: #262626; stroke: #262626; stroke-width: 1.25"/>
      </g>
     </g>
    </g>
    <g id="xtick_10">
     <g id="line2d_10">
      <g>
       <use xlink:href="#mb0c8d1c10c" x="183.6" y="345.6" style="fill: #262626; stroke: #262626; stroke-width: 1.25"/>
      </g>
     </g>
     <g id="text_4">
      <text style="fill: #262626; font: 16px 'Arial', 'DejaVu Sans', 'Liberation Sans', 'Bitstream Vera Sans', sans-serif; text-anchor: middle" x="183.6" y="366.5525" transform="rotate(-0 183.6 366.5525)">Oct</text>
     </g>
    </g>
    <g id="xtick_11">
     <g id="line2d_11">
      <g>
       <use xlink:href="#mb0c8d1c10c" x="194.4" y="345.6" style="fill: #262626; stroke: #262626; stroke-width: 1.25"/>
      </g>
     </g>
    </g>
    <g id="xtick_12">
     <g id="line2d_12">
      <g>
       <use xlink:href="#mb0c8d1c10c" x="205.2" y="345.6" style="fill: #262626; stroke: #262626; stroke-width: 1.25"/>
      </g>
     </g>
    </g>
    <g id="xtick_13">
     <g id="line2d_13">
      <g>
       <use xlink:href="#mb0c8d1c10c" x="216" y="345.6" style="fill: #262626; stroke: #262626; stroke-width: 1.25"/>
      </g>
     </g>
     <g id="text_5">
      <text style="fill: #262626; font: 16px 'Arial', 'DejaVu Sans', 'Liberation Sans', 'Bitstream Vera Sans', sans-serif; text-anchor: middle" x="216" y="366.5525" transform="rotate(-0 216 366.5525)">Jan</text>
     </g>
    </g>
    <g id="xtick_14">
     <g id="line2d_14">
      <g>
       <use xlink:href="#mb0c8d1c10c" x="226.8" y="345.6" style="fill: #262626; stroke: #262626; stroke-width: 1.25"/>
      </g>
     </g>
    </g>
    <g id="xtick_15">
     <g id="line2d_15">
      <g>
       <use xlink:href="#mb0c8d1c10c" x="237.6" y="345.6" style="fill: #262626; stroke: #262626; stroke-width: 1.25"/>
      </g>
     </g>
    </g>
    <g id="xtick_16">
     <g id="line2d_16">
      <g>
       <use xlink:href="#mb0c8d1c10c" x="248.4" y="345.6" style="fill: #262626; stroke: #262626; stroke-width: 1.25"/>
      </g>
     </g>
     <g id="text_6">
      <text style="fill: #262626; font: 16px 'Arial', 'DejaVu Sans', 'Liberation Sans', 'Bitstream Vera Sans', sans-serif; text-anchor: middle" x="248.4" y="366.5525" transform="rotate(-0 248.4 366.5525)">Apr</text>
     </g>
    </g>
    <g id="xtick_17">
     <g id="line2d_17">
      <g>
       <use xlink:href="#mb0c8d1c10c" x="259.2" y="345.6" style="fill: #262626; stroke: #262626; stroke-width: 1.25"/>
      </g>
     </g>
    </g>
    <g id="xtick_18">
     <g id="line2d_18">
      <g>
       <use xlink:href="#mb0c8d1c10c" x="270" y="345.6" style="fill: #262626; stroke: #262626; stroke-width: 1.25"/>
      </g>
     </g>
    </g>
    <g id="xtick_19">
     <g id="line2d_19">
      <g>
       <use xlink:href="#mb0c8d1c10c" x="280.8" y="345.6" style="fill: #262626; stroke: #262626; stroke-width: 1.25"/>
      </g>
     </g>
     <g id="text_7">
      <text style="fill: #262626; font: 16px 'Arial', 'DejaVu Sans', 'Liberation Sans', 'Bitstream Vera Sans', sans-serif; text-anchor: middle" x="280.8" y="366.5525" transform="rotate(-0 280.8 366.5525)">Jul</text>
     </g>
    </g>
    <g id="xtick_20">
     <g id="line2d_20">
      <g>
       <use xlink:href="#mb0c8d1c10c" x="291.6" y="345.6" style="fill: #262626; stroke: #262626; stroke-width: 1.25"/>
      </g>
     </g>
    </g>
    <g id="xtick_21">
     <g id="line2d_21">
      <g>
       <use xlink:href="#mb0c8d1c10c" x="302.4" y="345.6" style="fill: #262626; stroke: #262626; stroke-width: 1.25"/>
      </g>
     </g>
    </g>
    <g id="xtick_22">
     <g id="line2d_22">
      <g>
       <use xlink:href="#mb0c8d1c10c" x="313.2" y="345.6" style="fill: #262626; stroke: #262626; stroke-width: 1.25"/>
      </g>
     </g>
     <g id="text_8">
      <text style="fill: #262626; font: 16px 'Arial', 'DejaVu Sans', 'Liberation Sans', 'Bitstream Vera Sans', sans-serif; text-anchor: middle" x="313.2" y="366.5525" transform="rotate(-0 313.2 366.5525)">Oct</text>
     </g>
    </g>
    <g id="xtick_23">
     <g id="line2d_23">
      <g>
       <use xlink:href="#mb0c8d1c10c" x="324" y="345.6" style="fill: #262626; stroke: #262626; stroke-width: 1.25"/>
      </g>
     </g>
    </g>
    <g id="xtick_24">
     <g id="line2d_24">
      <g>
       <use xlink:href="#mb0c8d1c10c" x="334.8" y="345.6" style="fill: #262626; stroke: #262626; stroke-width: 1.25"/>
      </g>
     </g>
    </g>
    <g id="xtick_25">
     <g id="line2d_25">
      <g>
       <use xlink:href="#mb0c8d1c10c" x="345.6" y="345.6" style="fill: #262626; stroke: #262626; stroke-width: 1.25"/>
      </g>
     </g>
     <g id="text_9">
      <text style="fill: #262626; font: 16px 'Arial', 'DejaVu Sans', 'Liberation Sans', 'Bitstream Vera Sans', sans-serif; text-anchor: middle" x="345.6" y="366.5525" transform="rotate(-0 345.6 366.5525)">Jan</text>
     </g>
    </g>
    <g id="text_10">
     <text style="fill: #262626; font: 16px 'Arial', 'DejaVu Sans', 'Liberation Sans', 'Bitstream Vera Sans', sans-serif; text-anchor: middle" x="216" y="385.185" transform="rotate(-0 216 385.185)"> </text>
    </g>
   </g>
   <g id="matplotlib.axis_2">
    <g id="ytick_1">
     <g id="line2d_26">
      <defs>
       <path id="mcbe5ce0429" d="M 0 0 
L -6 0 
" style="stroke: #262626; stroke-width: 1.25"/>
      </defs>
      <g>
       <use xlink:href="#mcbe5ce0429" x="86.4" y="345.6" style="fill: #262626; stroke: #262626; stroke-width: 1.25"/>
      </g>
     </g>
     <g id="text_11">
      <text style="fill: #262626; font: 16px 'Arial', 'DejaVu Sans', 'Liberation Sans', 'Bitstream Vera Sans', sans-serif; text-anchor: end" x="76.9" y="351.32625" transform="rotate(-0 76.9 351.32625)">0.0</text>
     </g>
    </g>
    <g id="ytick_2">
     <g id="line2d_27">
      <g>
       <use xlink:href="#mcbe5ce0429" x="86.4" y="308.571429" style="fill: #262626; stroke: #262626; stroke-width: 1.25"/>
      </g>
     </g>
     <g id="text_12">
      <text style="fill: #262626; font: 16px 'Arial', 'DejaVu Sans', 'Liberation Sans', 'Bitstream Vera Sans', sans-serif; text-anchor: end" x="76.9" y="314.297679" transform="rotate(-0 76.9 314.297679)">0.5</text>
     </g>
    </g>
    <g id="ytick_3">
     <g id="line2d_28">
      <g>
       <use xlink:href="#mcbe5ce0429" x="86.4" y="271.542857" style="fill: #262626; stroke: #262626; stroke-width: 1.25"/>
      </g>
     </g>
     <g id="text_13">
      <text style="fill: #262626; font: 16px 'Arial', 'DejaVu Sans', 'Liberation Sans', 'Bitstream Vera Sans', sans-serif; text-anchor: end" x="76.9" y="277.269107" transform="rotate(-0 76.9 277.269107)">1.0</text>
     </g>
    </g>
    <g id="ytick_4">
     <g id="line2d_29">
      <g>
       <use xlink:href="#mcbe5ce0429" x="86.4" y="234.514286" style="fill: #262626; stroke: #262626; stroke-width: 1.25"/>
      </g>
     </g>
     <g id="text_14">
      <text style="fill: #262626; font: 16px 'Arial', 'DejaVu Sans', 'Liberation Sans', 'Bitstream Vera Sans', sans-serif; text-anchor: end" x="76.9" y="240.240536" transform="rotate(-0 76.9 240.240536)">1.5</text>
     </g>
    </g>
    <g id="ytick_5">
     <g id="line2d_30">
      <g>
       <use xlink:href="#mcbe5ce0429" x="86.4" y="197.485714" style="fill: #262626; stroke: #262626; stroke-width: 1.25"/>
      </g>
     </g>
     <g id="text_15">
      <text style="fill: #262626; font: 16px 'Arial', 'DejaVu Sans', 'Liberation Sans', 'Bitstream Vera Sans', sans-serif; text-anchor: end" x="76.9" y="203.211964" transform="rotate(-0 76.9 203.211964)">2.0</text>
     </g>
    </g>
    <g id="ytick_6">
     <g id="line2d_31">
      <g>
       <use xlink:href="#mcbe5ce0429" x="86.4" y="160.457143" style="fill: #262626; stroke: #262626; stroke-width: 1.25"/>
      </g>
     </g>
     <g id="text_16">
      <text style="fill: #262626; font: 16px 'Arial', 'DejaVu Sans', 'Liberation Sans', 'Bitstream Vera Sans', sans-serif; text-anchor: end" x="76.9" y="166.183393" transform="rotate(-0 76.9 166.183393)">2.5</text>
     </g>
    </g>
    <g id="ytick_7">
     <g id="line2d_32">
      <g>
       <use xlink:href="#mcbe5ce0429" x="86.4" y="123.428571" style="fill: #262626; stroke: #262626; stroke-width: 1.25"/>
      </g>
     </g>
     <g id="text_17">
      <text style="fill: #262626; font: 16px 'Arial', 'DejaVu Sans', 'Liberation Sans', 'Bitstream Vera Sans', sans-serif; text-anchor: end" x="76.9" y="129.154821" transform="rotate(-0 76.9 129.154821)">3.0</text>
     </g>
    </g>
    <g id="ytick_8">
     <g id="line2d_33">
      <g>
       <use xlink:href="#mcbe5ce0429" x="86.4" y="86.4" style="fill: #262626; stroke: #262626; stroke-width: 1.25"/>
      </g>
     </g>
     <g id="text_18">
      <text style="fill: #262626; font: 16px 'Arial', 'DejaVu Sans', 'Liberation Sans', 'Bitstream Vera Sans', sans-serif; text-anchor: end" x="76.9" y="92.12625" transform="rotate(-0 76.9 92.12625)">3.5</text>
     </g>
    </g>
    <g id="text_19">
     <text style="fill: #262626; font: 16px 'Arial', 'DejaVu Sans', 'Liberation Sans', 'Bitstream Vera Sans', sans-serif; text-anchor: middle" x="47.48" y="216" transform="rotate(-90 47.48 216)">Instantaneous reproduction number</text>
    </g>
   </g>
   <g id="line2d_34">
    <path d="M 86.4 141.942857 
L 88.56 142.04428 
L 90.72 142.347439 
L 92.88 142.849011 
L 95.4 143.677502 
L 97.92 144.756138 
L 100.44 146.06884 
L 103.32 147.83043 
L 106.56 150.104086 
L 110.16 152.926704 
L 114.48 156.607806 
L 128.88 169.149074 
L 132.48 171.855675 
L 135.72 173.997634 
L 138.6 175.623158 
L 141.12 176.804287 
L 143.64 177.741718 
L 146.16 178.421475 
L 148.32 178.791249 
L 150.48 178.96015 
L 152.64 178.926329 
L 154.8 178.690155 
L 156.96 178.254217 
L 159.48 177.499633 
L 162 176.490985 
L 164.52 175.243309 
L 167.4 173.54872 
L 170.28 171.599318 
L 173.52 169.149074 
L 177.48 165.870196 
L 183.6 160.457143 
L 190.8 154.124884 
L 194.76 150.921581 
L 198 148.556389 
L 200.88 146.698347 
L 203.76 145.108104 
L 206.28 143.960793 
L 208.8 143.059405 
L 211.32 142.417377 
L 213.48 142.08086 
L 215.64 141.945677 
L 217.8 142.01331 
L 219.96 142.283017 
L 222.12 142.751843 
L 224.64 143.543501 
L 227.16 144.587303 
L 229.68 145.867687 
L 232.56 147.596039 
L 235.8 149.837785 
L 239.4 152.632668 
L 243.72 156.292335 
L 259.2 169.714286 
L 262.44 172.10856 
L 265.32 173.997634 
L 268.2 175.623158 
L 270.72 176.804287 
L 273.24 177.741718 
L 275.76 178.421475 
L 277.92 178.791249 
L 280.08 178.96015 
L 282.24 178.926329 
L 284.4 178.690155 
L 286.56 178.254217 
L 289.08 177.499633 
L 291.6 176.490985 
L 294.12 175.243309 
L 297 173.54872 
L 299.88 171.599318 
L 303.12 169.149074 
L 307.08 165.870196 
L 313.2 160.457143 
L 320.4 154.124884 
L 324.36 150.921581 
L 327.6 148.556389 
L 330.48 146.698347 
L 333.36 145.108104 
L 335.88 143.960793 
L 338.4 143.059405 
L 340.92 142.417377 
L 343.08 142.08086 
L 345.24 141.945677 
L 345.24 141.945677 
" clip-path="url(#pbe09bc4e88)" style="fill: none; stroke: #de8f05; stroke-width: 2; stroke-linecap: round"/>
   </g>
   <g id="line2d_35">
    <path d="M 86.4 123.428571 
L 87.84 123.518771 
L 89.64 123.884455 
L 91.44 124.528478 
L 93.24 125.445941 
L 95.04 126.62986 
L 96.84 128.071225 
L 99 130.125113 
L 101.16 132.511325 
L 103.68 135.680192 
L 106.2 139.218427 
L 109.08 143.646523 
L 112.68 149.631036 
L 117.72 158.519217 
L 125.64 172.512467 
L 129.24 178.408951 
L 132.12 182.741493 
L 134.64 186.17935 
L 137.16 189.233748 
L 139.32 191.511916 
L 141.48 193.449842 
L 143.28 194.789436 
L 145.08 195.867742 
L 146.88 196.676551 
L 148.68 197.209709 
L 150.48 197.463157 
L 151.92 197.463157 
L 153.36 197.282868 
L 155.16 196.805395 
L 156.96 196.05129 
L 158.76 195.026292 
L 160.56 193.738202 
L 162.36 192.196823 
L 164.52 190.029475 
L 166.68 187.538126 
L 169.2 184.25865 
L 171.72 180.624348 
L 174.96 175.51802 
L 178.92 168.786759 
L 186.12 155.944495 
L 191.16 147.18729 
L 194.76 141.386019 
L 197.64 137.154308 
L 200.16 133.821018 
L 202.32 131.27823 
L 204.48 129.055133 
L 206.64 127.176083 
L 208.44 125.887993 
L 210.24 124.862995 
L 212.04 124.108891 
L 213.84 123.631418 
L 215.64 123.434211 
L 217.08 123.479318 
L 218.52 123.704577 
L 220.32 124.237735 
L 222.12 125.046544 
L 223.92 126.124849 
L 225.72 127.464444 
L 227.52 129.055133 
L 229.68 131.27823 
L 231.84 133.821018 
L 234.36 137.154308 
L 237.24 141.386019 
L 240.48 146.585996 
L 244.44 153.391758 
L 257.76 176.6894 
L 261 181.695859 
L 263.88 185.710568 
L 266.4 188.822674 
L 268.56 191.15522 
L 270.72 193.151431 
L 272.52 194.542123 
L 274.32 195.673407 
L 276.12 196.536674 
L 277.92 197.125355 
L 279.72 197.434968 
L 281.16 197.480075 
L 282.6 197.344809 
L 284.4 196.923167 
L 286.2 196.223996 
L 288 195.252618 
L 289.8 194.016425 
L 291.6 192.524826 
L 293.76 190.413886 
L 295.92 187.974734 
L 298.44 184.750071 
L 300.96 181.163257 
L 303.84 176.6894 
L 307.44 170.6636 
L 312.84 161.103381 
L 320.04 148.401819 
L 323.64 142.505335 
L 326.52 138.172792 
L 329.04 134.734936 
L 331.56 131.680538 
L 333.72 129.40237 
L 335.88 127.464444 
L 337.68 126.124849 
L 339.48 125.046544 
L 341.28 124.237735 
L 343.08 123.704577 
L 344.88 123.451128 
L 345.24 123.434211 
L 345.24 123.434211 
" clip-path="url(#pbe09bc4e88)" style="fill: none; stroke: #0173b2; stroke-width: 2; stroke-linecap: round"/>
   </g>
   <g id="line2d_36">
    <path d="M 86.4 104.914286 
L 87.84 105.049585 
L 89.28 105.454825 
L 90.72 106.12803 
L 92.16 107.065922 
L 93.6 108.26393 
L 95.04 109.716218 
L 96.84 111.878265 
L 98.64 114.410027 
L 100.44 117.292236 
L 102.6 121.182412 
L 105.12 126.261545 
L 107.64 131.850457 
L 110.52 138.75482 
L 114.12 147.962719 
L 120.6 165.298022 
L 125.64 178.540128 
L 129.24 187.384854 
L 132.12 193.883669 
L 134.64 199.040453 
L 136.8 203.00544 
L 138.96 206.504258 
L 140.76 209.03602 
L 142.56 211.198068 
L 144.36 212.973946 
L 145.8 214.107423 
L 147.24 214.979521 
L 148.68 215.585992 
L 150.12 215.92388 
L 151.56 215.991541 
L 153 215.788643 
L 154.44 215.316175 
L 155.88 214.57644 
L 157.32 213.573041 
L 158.76 212.310867 
L 160.56 210.378732 
L 162.36 208.066664 
L 164.16 205.392258 
L 166.32 201.73353 
L 168.48 197.622569 
L 171 192.315217 
L 173.88 185.673072 
L 177.12 177.62083 
L 181.8 165.298022 
L 190.44 142.374157 
L 194.04 133.529431 
L 196.92 127.030617 
L 199.44 121.873832 
L 201.6 117.908846 
L 203.76 114.410027 
L 205.56 111.878265 
L 207.36 109.716218 
L 209.16 107.94034 
L 210.6 106.806863 
L 212.04 105.934764 
L 213.48 105.328294 
L 214.92 104.990405 
L 216.36 104.922745 
L 217.8 105.125643 
L 219.24 105.59811 
L 220.68 106.337846 
L 222.12 107.341244 
L 223.56 108.603419 
L 225.36 110.535554 
L 227.16 112.847622 
L 228.96 115.522028 
L 231.12 119.180756 
L 233.28 123.291717 
L 235.8 128.599069 
L 238.68 135.241213 
L 241.92 143.293456 
L 246.6 155.616264 
L 255.24 178.540128 
L 258.84 187.384854 
L 261.72 193.883669 
L 264.24 199.040453 
L 266.4 203.00544 
L 268.56 206.504258 
L 270.36 209.03602 
L 272.16 211.198068 
L 273.96 212.973946 
L 275.4 214.107423 
L 276.84 214.979521 
L 278.28 215.585992 
L 279.72 215.92388 
L 281.16 215.991541 
L 282.6 215.788643 
L 284.04 215.316175 
L 285.48 214.57644 
L 286.92 213.573041 
L 288.36 212.310867 
L 290.16 210.378732 
L 291.96 208.066664 
L 293.76 205.392258 
L 295.92 201.73353 
L 298.08 197.622569 
L 300.6 192.315217 
L 303.48 185.673072 
L 306.72 177.62083 
L 311.4 165.298022 
L 320.04 142.374157 
L 323.64 133.529431 
L 326.52 127.030617 
L 329.04 121.873832 
L 331.2 117.908846 
L 333.36 114.410027 
L 335.16 111.878265 
L 336.96 109.716218 
L 338.76 107.94034 
L 340.2 106.806863 
L 341.64 105.934764 
L 343.08 105.328294 
L 344.52 104.990405 
L 345.24 104.922745 
L 345.24 104.922745 
" clip-path="url(#pbe09bc4e88)" style="fill: none; stroke: #029e73; stroke-width: 2; stroke-linecap: round"/>
   </g>
   <g id="patch_3">
    <path d="M 86.4 345.6 
L 86.4 86.4 
" style="fill: none; stroke: #262626; stroke-width: 1.25; stroke-linejoin: miter; stroke-linecap: square"/>
   </g>
   <g id="patch_4">
    <path d="M 86.4 345.6 
L 345.6 345.6 
" style="fill: none; stroke: #262626; stroke-width: 1.25; stroke-linejoin: miter; stroke-linecap: square"/>
   </g>
   <g id="legend_1">
    <g id="patch_5">
     <path d="M 247.88 338.6 
L 335.8 338.6 
Q 338.6 338.6 338.6 335.8 
L 338.6 277.789688 
Q 338.6 274.989688 335.8 274.989688 
L 247.88 274.989688 
Q 245.08 274.989688 245.08 277.789688 
L 245.08 335.8 
Q 245.08 338.6 247.88 338.6 
z
" style="fill: #ffffff; opacity: 0.8; stroke: #cccccc; stroke-linejoin: miter"/>
    </g>
    <g id="line2d_37">
     <path d="M 250.68 285.710625 
L 264.68 285.710625 
L 278.68 285.710625 
" style="fill: none; stroke: #de8f05; stroke-width: 2; stroke-linecap: round"/>
    </g>
    <g id="text_20">
     <!-- $\varepsilon$ = 0.1 -->
     <g style="fill: #262626" transform="translate(289.88 290.610625)">
      <text>
       <tspan style="font: oblique 14px 'DejaVu Sans'" x="0" y="-0.9375">ε</tspan>
       <tspan style="font: 14px 'Arial'" x="7.567383 11.457031 19.632812 23.522461 31.308594 35.198242" y="-0.9375"> = 0.1</tspan>
      </text>
     </g>
    </g>
    <g id="line2d_38">
     <path d="M 250.68 305.514063 
L 264.68 305.514063 
L 278.68 305.514063 
" style="fill: none; stroke: #0173b2; stroke-width: 2; stroke-linecap: round"/>
    </g>
    <g id="text_21">
     <!-- $\varepsilon$ = 0.2 -->
     <g style="fill: #262626" transform="translate(289.88 310.414062)">
      <text>
       <tspan style="font: oblique 14px 'DejaVu Sans'" x="0" y="-0.9375">ε</tspan>
       <tspan style="font: 14px 'Arial'" x="7.567383 11.457031 19.632812 23.522461 31.308594 35.198242" y="-0.9375"> = 0.2</tspan>
      </text>
     </g>
    </g>
    <g id="line2d_39">
     <path d="M 250.68 325.3175 
L 264.68 325.3175 
L 278.68 325.3175 
" style="fill: none; stroke: #029e73; stroke-width: 2; stroke-linecap: round"/>
    </g>
    <g id="text_22">
     <!-- $\varepsilon$ = 0.3 -->
     <g style="fill: #262626" transform="translate(289.88 330.2175)">
      <text>
       <tspan style="font: oblique 14px 'DejaVu Sans'" x="0" y="-0.9375">ε</tspan>
       <tspan style="font: 14px 'Arial'" x="7.567383 11.457031 19.632812 23.522461 31.308594 35.198242" y="-0.9375"> = 0.3</tspan>
      </text>
     </g>
    </g>
   </g>
  </g>
 </g>
 <defs>
  <clipPath id="pbe09bc4e88">
   <rect x="86.4" y="86.4" width="259.2" height="259.2"/>
  </clipPath>
 </defs>
</svg>
