<?xml version="1.0" encoding="utf-8" standalone="no"?>
<!DOCTYPE svg PUBLIC "-//W3C//DTD SVG 1.1//EN"
  "http://www.w3.org/Graphics/SVG/1.1/DTD/svg11.dtd">
<svg xmlns:xlink="http://www.w3.org/1999/xlink" width="432pt" height="432pt" viewBox="0 0 432 432" xmlns="http://www.w3.org/2000/svg" version="1.1">
 <metadata>
  <rdf:RDF xmlns:dc="http://purl.org/dc/elements/1.1/" xmlns:cc="http://creativecommons.org/ns#" xmlns:rdf="http://www.w3.org/1999/02/22-rdf-syntax-ns#">
   <cc:Work>
    <dc:type rdf:resource="http://purl.org/dc/dcmitype/StillImage"/>
    <dc:date>2024-05-28T15:04:21.745307</dc:date>
    <dc:format>image/svg+xml</dc:format>
    <dc:creator>
     <cc:Agent>
      <dc:title>Matplotlib v3.8.4, https://matplotlib.org/</dc:title>
     </cc:Agent>
    </dc:creator>
   </cc:Work>
  </rdf:RDF>
 </metadata>
 <defs>
  <style type="text/css">*{stroke-linejoin: round; stroke-linecap: butt}</style>
 </defs>
 <g id="figure_1">
  <g id="patch_1">
   <path d="M 0 432 
L 432 432 
L 432 0 
L 0 0 
L 0 432 
z
" style="fill: none"/>
  </g>
  <g id="axes_1">
   <g id="patch_2">
    <path d="M 86.4 345.6 
L 345.6 345.6 
L 345.6 86.4 
L 86.4 86.4 
L 86.4 345.6 
z
" style="fill: none"/>
   </g>
   <g id="matplotlib.axis_1">
    <g id="xtick_1">
     <g id="line2d_1">
      <defs>
       <path id="m36d448ddde" d="M 0 0 
L 0 6 
" style="stroke: #262626; stroke-width: 1.25"/>
      </defs>
      <g>
       <use xlink:href="#m36d448ddde" x="86.4" y="345.6" style="fill: #262626; stroke: #262626; stroke-width: 1.25"/>
      </g>
     </g>
     <g id="text_1">
      <text style="fill: #262626; font: 16px 'Arial', 'DejaVu Sans', 'Liberation Sans', 'Bitstream Vera Sans', sans-serif; text-anchor: middle" x="86.4" y="366.5525" transform="rotate(-0 86.4 366.5525)">Jan</text>
     </g>
    </g>
    <g id="xtick_2">
     <g id="line2d_2">
      <g>
       <use xlink:href="#m36d448ddde" x="97.2" y="345.6" style="fill: #262626; stroke: #262626; stroke-width: 1.25"/>
      </g>
     </g>
    </g>
    <g id="xtick_3">
     <g id="line2d_3">
      <g>
       <use xlink:href="#m36d448ddde" x="108" y="345.6" style="fill: #262626; stroke: #262626; stroke-width: 1.25"/>
      </g>
     </g>
    </g>
    <g id="xtick_4">
     <g id="line2d_4">
      <g>
       <use xlink:href="#m36d448ddde" x="118.8" y="345.6" style="fill: #262626; stroke: #262626; stroke-width: 1.25"/>
      </g>
     </g>
     <g id="text_2">
      <text style="fill: #262626; font: 16px 'Arial', 'DejaVu Sans', 'Liberation Sans', 'Bitstream Vera Sans', sans-serif; text-anchor: middle" x="118.8" y="366.5525" transform="rotate(-0 118.8 366.5525)">Apr</text>
     </g>
    </g>
    <g id="xtick_5">
     <g id="line2d_5">
      <g>
       <use xlink:href="#m36d448ddde" x="129.6" y="345.6" style="fill: #262626; stroke: #262626; stroke-width: 1.25"/>
      </g>
     </g>
    </g>
    <g id="xtick_6">
     <g id="line2d_6">
      <g>
       <use xlink:href="#m36d448ddde" x="140.4" y="345.6" style="fill: #262626; stroke: #262626; stroke-width: 1.25"/>
      </g>
     </g>
    </g>
    <g id="xtick_7">
     <g id="line2d_7">
      <g>
       <use xlink:href="#m36d448ddde" x="151.2" y="345.6" style="fill: #262626; stroke: #262626; stroke-width: 1.25"/>
      </g>
     </g>
     <g id="text_3">
      <text style="fill: #262626; font: 16px 'Arial', 'DejaVu Sans', 'Liberation Sans', 'Bitstream Vera Sans', sans-serif; text-anchor: middle" x="151.2" y="366.5525" transform="rotate(-0 151.2 366.5525)">Jul</text>
     </g>
    </g>
    <g id="xtick_8">
     <g id="line2d_8">
      <g>
       <use xlink:href="#m36d448ddde" x="162" y="345.6" style="fill: #262626; stroke: #262626; stroke-width: 1.25"/>
      </g>
     </g>
    </g>
    <g id="xtick_9">
     <g id="line2d_9">
      <g>
       <use xlink:href="#m36d448ddde" x="172.8" y="345.6" style="fill: #262626; stroke: #262626; stroke-width: 1.25"/>
      </g>
     </g>
    </g>
    <g id="xtick_10">
     <g id="line2d_10">
      <g>
       <use xlink:href="#m36d448ddde" x="183.6" y="345.6" style="fill: #262626; stroke: #262626; stroke-width: 1.25"/>
      </g>
     </g>
     <g id="text_4">
      <text style="fill: #262626; font: 16px 'Arial', 'DejaVu Sans', 'Liberation Sans', 'Bitstream Vera Sans', sans-serif; text-anchor: middle" x="183.6" y="366.5525" transform="rotate(-0 183.6 366.5525)">Oct</text>
     </g>
    </g>
    <g id="xtick_11">
     <g id="line2d_11">
      <g>
       <use xlink:href="#m36d448ddde" x="194.4" y="345.6" style="fill: #262626; stroke: #262626; stroke-width: 1.25"/>
      </g>
     </g>
    </g>
    <g id="xtick_12">
     <g id="line2d_12">
      <g>
       <use xlink:href="#m36d448ddde" x="205.2" y="345.6" style="fill: #262626; stroke: #262626; stroke-width: 1.25"/>
      </g>
     </g>
    </g>
    <g id="xtick_13">
     <g id="line2d_13">
      <g>
       <use xlink:href="#m36d448ddde" x="216" y="345.6" style="fill: #262626; stroke: #262626; stroke-width: 1.25"/>
      </g>
     </g>
     <g id="text_5">
      <text style="fill: #262626; font: 16px 'Arial', 'DejaVu Sans', 'Liberation Sans', 'Bitstream Vera Sans', sans-serif; text-anchor: middle" x="216" y="366.5525" transform="rotate(-0 216 366.5525)">Jan</text>
     </g>
    </g>
    <g id="xtick_14">
     <g id="line2d_14">
      <g>
       <use xlink:href="#m36d448ddde" x="216" y="345.6" style="fill: #262626; stroke: #262626; stroke-width: 1.25"/>
      </g>
     </g>
     <g id="text_6">
      <text style="fill: #262626; font: 16px 'Arial', 'DejaVu Sans', 'Liberation Sans', 'Bitstream Vera Sans', sans-serif; text-anchor: middle" x="216" y="366.5525" transform="rotate(-0 216 366.5525)">Jan</text>
     </g>
    </g>
    <g id="xtick_15">
     <g id="line2d_15">
      <g>
       <use xlink:href="#m36d448ddde" x="226.8" y="345.6" style="fill: #262626; stroke: #262626; stroke-width: 1.25"/>
      </g>
     </g>
    </g>
    <g id="xtick_16">
     <g id="line2d_16">
      <g>
       <use xlink:href="#m36d448ddde" x="237.6" y="345.6" style="fill: #262626; stroke: #262626; stroke-width: 1.25"/>
      </g>
     </g>
    </g>
    <g id="xtick_17">
     <g id="line2d_17">
      <g>
       <use xlink:href="#m36d448ddde" x="248.4" y="345.6" style="fill: #262626; stroke: #262626; stroke-width: 1.25"/>
      </g>
     </g>
     <g id="text_7">
      <text style="fill: #262626; font: 16px 'Arial', 'DejaVu Sans', 'Liberation Sans', 'Bitstream Vera Sans', sans-serif; text-anchor: middle" x="248.4" y="366.5525" transform="rotate(-0 248.4 366.5525)">Apr</text>
     </g>
    </g>
    <g id="xtick_18">
     <g id="line2d_18">
      <g>
       <use xlink:href="#m36d448ddde" x="259.2" y="345.6" style="fill: #262626; stroke: #262626; stroke-width: 1.25"/>
      </g>
     </g>
    </g>
    <g id="xtick_19">
     <g id="line2d_19">
      <g>
       <use xlink:href="#m36d448ddde" x="270" y="345.6" style="fill: #262626; stroke: #262626; stroke-width: 1.25"/>
      </g>
     </g>
    </g>
    <g id="xtick_20">
     <g id="line2d_20">
      <g>
       <use xlink:href="#m36d448ddde" x="280.8" y="345.6" style="fill: #262626; stroke: #262626; stroke-width: 1.25"/>
      </g>
     </g>
     <g id="text_8">
      <text style="fill: #262626; font: 16px 'Arial', 'DejaVu Sans', 'Liberation Sans', 'Bitstream Vera Sans', sans-serif; text-anchor: middle" x="280.8" y="366.5525" transform="rotate(-0 280.8 366.5525)">Jul</text>
     </g>
    </g>
    <g id="xtick_21">
     <g id="line2d_21">
      <g>
       <use xlink:href="#m36d448ddde" x="291.6" y="345.6" style="fill: #262626; stroke: #262626; stroke-width: 1.25"/>
      </g>
     </g>
    </g>
    <g id="xtick_22">
     <g id="line2d_22">
      <g>
       <use xlink:href="#m36d448ddde" x="302.4" y="345.6" style="fill: #262626; stroke: #262626; stroke-width: 1.25"/>
      </g>
     </g>
    </g>
    <g id="xtick_23">
     <g id="line2d_23">
      <g>
       <use xlink:href="#m36d448ddde" x="313.2" y="345.6" style="fill: #262626; stroke: #262626; stroke-width: 1.25"/>
      </g>
     </g>
     <g id="text_9">
      <text style="fill: #262626; font: 16px 'Arial', 'DejaVu Sans', 'Liberation Sans', 'Bitstream Vera Sans', sans-serif; text-anchor: middle" x="313.2" y="366.5525" transform="rotate(-0 313.2 366.5525)">Oct</text>
     </g>
    </g>
    <g id="xtick_24">
     <g id="line2d_24">
      <g>
       <use xlink:href="#m36d448ddde" x="324" y="345.6" style="fill: #262626; stroke: #262626; stroke-width: 1.25"/>
      </g>
     </g>
    </g>
    <g id="xtick_25">
     <g id="line2d_25">
      <g>
       <use xlink:href="#m36d448ddde" x="334.8" y="345.6" style="fill: #262626; stroke: #262626; stroke-width: 1.25"/>
      </g>
     </g>
    </g>
    <g id="xtick_26">
     <g id="line2d_26">
      <g>
       <use xlink:href="#m36d448ddde" x="345.6" y="345.6" style="fill: #262626; stroke: #262626; stroke-width: 1.25"/>
      </g>
     </g>
     <g id="text_10">
      <text style="fill: #262626; font: 16px 'Arial', 'DejaVu Sans', 'Liberation Sans', 'Bitstream Vera Sans', sans-serif; text-anchor: middle" x="345.6" y="366.5525" transform="rotate(-0 345.6 366.5525)">Jan</text>
     </g>
    </g>
    <g id="text_11">
     <text style="fill: #262626; font: 16px 'Arial', 'DejaVu Sans', 'Liberation Sans', 'Bitstream Vera Sans', sans-serif; text-anchor: middle" x="216" y="385.185" transform="rotate(-0 216 385.185)"> </text>
    </g>
   </g>
   <g id="matplotlib.axis_2">
    <g id="ytick_1">
     <g id="line2d_27">
      <defs>
       <path id="mf93b5b9b9c" d="M 0 0 
L -6 0 
" style="stroke: #262626; stroke-width: 1.25"/>
      </defs>
      <g>
       <use xlink:href="#mf93b5b9b9c" x="86.4" y="345.6" style="fill: #262626; stroke: #262626; stroke-width: 1.25"/>
      </g>
     </g>
     <g id="text_12">
      <text style="fill: #262626; font: 16px 'Arial', 'DejaVu Sans', 'Liberation Sans', 'Bitstream Vera Sans', sans-serif; text-anchor: end" x="76.9" y="351.32625" transform="rotate(-0 76.9 351.32625)">0.0</text>
     </g>
    </g>
    <g id="ytick_2">
     <g id="line2d_28">
      <g>
       <use xlink:href="#mf93b5b9b9c" x="86.4" y="293.76" style="fill: #262626; stroke: #262626; stroke-width: 1.25"/>
      </g>
     </g>
     <g id="text_13">
      <text style="fill: #262626; font: 16px 'Arial', 'DejaVu Sans', 'Liberation Sans', 'Bitstream Vera Sans', sans-serif; text-anchor: end" x="76.9" y="299.48625" transform="rotate(-0 76.9 299.48625)">0.1</text>
     </g>
    </g>
    <g id="ytick_3">
     <g id="line2d_29">
      <g>
       <use xlink:href="#mf93b5b9b9c" x="86.4" y="241.92" style="fill: #262626; stroke: #262626; stroke-width: 1.25"/>
      </g>
     </g>
     <g id="text_14">
      <text style="fill: #262626; font: 16px 'Arial', 'DejaVu Sans', 'Liberation Sans', 'Bitstream Vera Sans', sans-serif; text-anchor: end" x="76.9" y="247.64625" transform="rotate(-0 76.9 247.64625)">0.2</text>
     </g>
    </g>
    <g id="ytick_4">
     <g id="line2d_30">
      <g>
       <use xlink:href="#mf93b5b9b9c" x="86.4" y="190.08" style="fill: #262626; stroke: #262626; stroke-width: 1.25"/>
      </g>
     </g>
     <g id="text_15">
      <text style="fill: #262626; font: 16px 'Arial', 'DejaVu Sans', 'Liberation Sans', 'Bitstream Vera Sans', sans-serif; text-anchor: end" x="76.9" y="195.80625" transform="rotate(-0 76.9 195.80625)">0.3</text>
     </g>
    </g>
    <g id="ytick_5">
     <g id="line2d_31">
      <g>
       <use xlink:href="#mf93b5b9b9c" x="86.4" y="138.24" style="fill: #262626; stroke: #262626; stroke-width: 1.25"/>
      </g>
     </g>
     <g id="text_16">
      <text style="fill: #262626; font: 16px 'Arial', 'DejaVu Sans', 'Liberation Sans', 'Bitstream Vera Sans', sans-serif; text-anchor: end" x="76.9" y="143.96625" transform="rotate(-0 76.9 143.96625)">0.4</text>
     </g>
    </g>
    <g id="ytick_6">
     <g id="line2d_32">
      <g>
       <use xlink:href="#mf93b5b9b9c" x="86.4" y="86.4" style="fill: #262626; stroke: #262626; stroke-width: 1.25"/>
      </g>
     </g>
     <g id="text_17">
      <text style="fill: #262626; font: 16px 'Arial', 'DejaVu Sans', 'Liberation Sans', 'Bitstream Vera Sans', sans-serif; text-anchor: end" x="76.9" y="92.12625" transform="rotate(-0 76.9 92.12625)">0.5</text>
     </g>
    </g>
    <g id="text_18">
     <text style="fill: #262626; font: 16px 'Arial', 'DejaVu Sans', 'Liberation Sans', 'Bitstream Vera Sans', sans-serif; text-anchor: middle" x="47.48" y="216" transform="rotate(-90 47.48 216)">Case outbreak risk</text>
    </g>
   </g>
   <g id="PolyCollection_1">
    <defs>
     <path id="mbd747354a8" d="M 212.4 -86.4 
L 162 -86.4 
L 162 -345.6 
L 212.4 -345.6 
L 212.4 -345.6 
L 212.4 -86.4 
z
"/>
    </defs>
    <g clip-path="url(#p06051ff590)">
     <use xlink:href="#mbd747354a8" x="0" y="432" style="fill: #808080; fill-opacity: 0.5"/>
    </g>
   </g>
   <g id="PolyCollection_2">
    <defs>
     <path id="m6fdaa63843" d="M 342 -86.4 
L 291.6 -86.4 
L 291.6 -345.6 
L 342 -345.6 
L 342 -345.6 
L 342 -86.4 
z
"/>
    </defs>
    <g clip-path="url(#p06051ff590)">
     <use xlink:href="#m6fdaa63843" x="0" y="432" style="fill: #808080; fill-opacity: 0.5"/>
    </g>
   </g>
   <g id="line2d_33">
    <path d="M 86.4 87.463431 
L 88.56 87.761626 
L 90.72 88.298596 
L 92.88 89.073413 
L 95.04 90.084465 
L 97.2 91.329335 
L 99.36 92.804642 
L 101.88 94.810931 
L 104.4 97.114918 
L 106.92 99.703647 
L 109.8 102.988912 
L 113.04 107.061185 
L 116.64 111.979157 
L 121.32 118.806169 
L 130.32 132.070096 
L 133.56 136.390206 
L 136.08 139.403856 
L 138.24 141.678428 
L 140.4 143.618434 
L 142.2 144.949415 
L 144 145.998983 
L 145.8 146.751204 
L 147.24 147.131193 
L 148.68 147.310203 
L 150.12 147.286964 
L 151.56 147.062351 
L 153 146.639341 
L 154.44 146.02292 
L 156.24 144.991037 
L 158.04 143.684926 
L 159.84 142.12528 
L 162 139.952423 
L 164.52 137.059033 
L 167.4 133.372754 
L 171 128.364608 
L 178.2 117.821749 
L 183.24 110.660132 
L 186.84 105.907113 
L 190.08 101.986682 
L 192.96 98.834665 
L 195.84 96.028395 
L 198.36 93.875407 
L 200.88 92.017713 
L 203.4 90.464759 
L 205.56 89.381684 
L 207.72 88.531202 
L 209.88 87.915886 
L 212.04 87.5376 
L 214.2 87.397587 
L 216.36 87.496527 
L 218.52 87.834557 
L 220.68 88.41125 
L 222.84 89.225571 
L 225 90.275785 
L 227.16 91.559325 
L 229.32 93.072629 
L 231.84 95.122109 
L 234.36 97.467651 
L 236.88 100.095778 
L 239.76 103.422606 
L 243 107.535841 
L 246.6 112.489814 
L 251.28 119.343612 
L 259.92 132.070096 
L 263.16 136.390206 
L 265.68 139.403856 
L 267.84 141.678428 
L 270 143.618434 
L 271.8 144.949415 
L 273.6 145.998983 
L 275.4 146.751204 
L 276.84 147.131193 
L 278.28 147.310203 
L 279.72 147.286964 
L 281.16 147.062351 
L 282.6 146.639341 
L 284.04 146.02292 
L 285.84 144.991037 
L 287.64 143.684926 
L 289.44 142.12528 
L 291.6 139.952423 
L 294.12 137.059033 
L 297 133.372754 
L 300.6 128.364608 
L 307.8 117.821749 
L 312.84 110.660132 
L 316.44 105.907113 
L 319.68 101.986682 
L 322.56 98.834665 
L 325.44 96.028395 
L 327.96 93.875407 
L 330.48 92.017713 
L 333 90.464759 
L 335.16 89.381684 
L 337.32 88.531202 
L 339.48 87.915886 
L 341.64 87.5376 
L 343.8 87.397587 
L 345.24 87.436977 
L 345.24 87.436977 
" clip-path="url(#p06051ff590)" style="fill: none; stroke: #4c72b0; stroke-width: 2; stroke-linecap: round"/>
   </g>
   <g id="line2d_34">
    <path d="M 86.4 156.901388 
L 88.56 154.850266 
L 90.72 153.112216 
L 92.88 151.686013 
L 94.68 150.733909 
L 96.48 149.994635 
L 98.28 149.465527 
L 100.08 149.143159 
L 101.88 149.023421 
L 103.68 149.101255 
L 105.48 149.37043 
L 107.64 149.935635 
L 109.8 150.750695 
L 111.96 151.797216 
L 114.48 153.28148 
L 117.36 155.273852 
L 120.6 157.803224 
L 126.36 162.656161 
L 130.68 166.148862 
L 133.56 168.176717 
L 135.72 169.449844 
L 137.88 170.454003 
L 139.68 171.051674 
L 141.48 171.406597 
L 143.28 171.498897 
L 144.72 171.373034 
L 146.16 171.063268 
L 147.6 170.565907 
L 149.4 169.678327 
L 151.2 168.497504 
L 153 167.031559 
L 154.8 165.296413 
L 156.96 162.90201 
L 161.64 157.479281 
L 162.36 156.96482 
L 163.08 156.761443 
L 165.96 156.547326 
L 168.48 156.092606 
L 171.36 155.336149 
L 176.04 153.823608 
L 181.44 152.104983 
L 184.68 151.299002 
L 187.56 150.820087 
L 190.08 150.630413 
L 192.6 150.688632 
L 194.76 150.956991 
L 196.92 151.443286 
L 199.08 152.161026 
L 201.24 153.121731 
L 203.4 154.333267 
L 205.56 155.793273 
L 208.44 158.045475 
L 210.6 159.670183 
L 211.68 160.198386 
L 212.4 160.285814 
L 212.76 160.201524 
L 213.12 159.994646 
L 214.2 158.844636 
L 216.72 156.182893 
L 218.88 154.236148 
L 221.04 152.602273 
L 223.2 151.279488 
L 225 150.412797 
L 226.8 149.757948 
L 228.6 149.311983 
L 230.4 149.07121 
L 232.2 149.031177 
L 234 149.186349 
L 236.16 149.620781 
L 238.32 150.312998 
L 240.48 151.24631 
L 243 152.612907 
L 245.52 154.242174 
L 248.4 156.366867 
L 252.36 159.599562 
L 259.92 165.874368 
L 262.8 167.941897 
L 264.96 169.255008 
L 267.12 170.307357 
L 268.92 170.950852 
L 270.72 171.356045 
L 272.52 171.502261 
L 273.96 171.421548 
L 275.4 171.15819 
L 276.84 170.707953 
L 278.64 169.879452 
L 280.44 168.756834 
L 282.24 167.346931 
L 284.04 165.663849 
L 286.2 163.321409 
L 291.6 157.192148 
L 292.32 156.818488 
L 293.4 156.731261 
L 295.56 156.547326 
L 298.08 156.092606 
L 300.96 155.336149 
L 305.64 153.823608 
L 311.04 152.104983 
L 314.28 151.299002 
L 317.16 150.820087 
L 319.68 150.630413 
L 322.2 150.688632 
L 324.36 150.956991 
L 326.52 151.443286 
L 328.68 152.161026 
L 330.84 153.121731 
L 333 154.333267 
L 335.16 155.793273 
L 338.04 158.045475 
L 340.2 159.670183 
L 341.28 160.198386 
L 342 160.285814 
L 342.36 160.201524 
L 342.72 159.994646 
L 343.8 158.844636 
L 345.24 157.273635 
L 345.24 157.273635 
" clip-path="url(#p06051ff590)" style="fill: none; stroke: #dd8452; stroke-width: 2; stroke-linecap: round"/>
   </g>
   <g id="patch_3">
    <path d="M 86.4 345.6 
L 86.4 86.4 
" style="fill: none; stroke: #262626; stroke-width: 1.25; stroke-linejoin: miter; stroke-linecap: square"/>
   </g>
   <g id="patch_4">
    <path d="M 86.4 345.6 
L 345.6 345.6 
" style="fill: none; stroke: #262626; stroke-width: 1.25; stroke-linejoin: miter; stroke-linecap: square"/>
   </g>
   <g id="legend_1">
    <g id="patch_5">
     <path d="M 96.2 338.6 
L 262.386563 338.6 
Q 265.186563 338.6 265.186563 335.8 
L 265.186563 297.593125 
Q 265.186563 294.793125 262.386563 294.793125 
L 96.2 294.793125 
Q 93.4 294.793125 93.4 297.593125 
L 93.4 335.8 
Q 93.4 338.6 96.2 338.6 
z
" style="fill: #ffffff; opacity: 0.8; stroke: #cccccc; stroke-linejoin: miter"/>
    </g>
    <g id="line2d_35">
     <path d="M 99 305.514063 
L 113 305.514063 
L 127 305.514063 
" style="fill: none; stroke: #4c72b0; stroke-width: 2; stroke-linecap: round"/>
    </g>
    <g id="text_19">
     <text style="fill: #262626; font: 14px 'Arial', 'DejaVu Sans', 'Liberation Sans', 'Bitstream Vera Sans', sans-serif; text-anchor: start" x="138.2" y="310.414062" transform="rotate(-0 138.2 310.414062)">Without vaccination</text>
    </g>
    <g id="line2d_36">
     <path d="M 99 325.3175 
L 113 325.3175 
L 127 325.3175 
" style="fill: none; stroke: #dd8452; stroke-width: 2; stroke-linecap: round"/>
    </g>
    <g id="text_20">
     <text style="fill: #262626; font: 14px 'Arial', 'DejaVu Sans', 'Liberation Sans', 'Bitstream Vera Sans', sans-serif; text-anchor: start" x="138.2" y="330.2175" transform="rotate(-0 138.2 330.2175)">With vaccination</text>
    </g>
   </g>
  </g>
 </g>
 <defs>
  <clipPath id="p06051ff590">
   <rect x="86.4" y="86.4" width="259.2" height="259.2"/>
  </clipPath>
 </defs>
</svg>
