<?xml version="1.0" encoding="utf-8" standalone="no"?>
<!DOCTYPE svg PUBLIC "-//W3C//DTD SVG 1.1//EN"
  "http://www.w3.org/Graphics/SVG/1.1/DTD/svg11.dtd">
<svg xmlns:xlink="http://www.w3.org/1999/xlink" width="432pt" height="432pt" viewBox="0 0 432 432" xmlns="http://www.w3.org/2000/svg" version="1.1">
 <metadata>
  <rdf:RDF xmlns:dc="http://purl.org/dc/elements/1.1/" xmlns:cc="http://creativecommons.org/ns#" xmlns:rdf="http://www.w3.org/1999/02/22-rdf-syntax-ns#">
   <cc:Work>
    <dc:type rdf:resource="http://purl.org/dc/dcmitype/StillImage"/>
    <dc:date>2024-05-21T13:16:11.494786</dc:date>
    <dc:format>image/svg+xml</dc:format>
    <dc:creator>
     <cc:Agent>
      <dc:title>Matplotlib v3.8.4, https://matplotlib.org/</dc:title>
     </cc:Agent>
    </dc:creator>
   </cc:Work>
  </rdf:RDF>
 </metadata>
 <defs>
  <style type="text/css">*{stroke-linejoin: round; stroke-linecap: butt}</style>
 </defs>
 <g id="figure_1">
  <g id="patch_1">
   <path d="M 0 432 
L 432 432 
L 432 0 
L 0 0 
L 0 432 
z
" style="fill: none"/>
  </g>
  <g id="axes_1">
   <g id="patch_2">
    <path d="M 86.4 345.6 
L 345.6 345.6 
L 345.6 86.4 
L 86.4 86.4 
L 86.4 345.6 
z
" style="fill: none"/>
   </g>
   <g id="matplotlib.axis_1">
    <g id="xtick_1">
     <g id="line2d_1">
      <defs>
       <path id="m660a57bbfd" d="M 0 0 
L 0 6 
" style="stroke: #262626; stroke-width: 1.25"/>
      </defs>
      <g>
       <use xlink:href="#m660a57bbfd" x="86.4" y="345.6" style="fill: #262626; stroke: #262626; stroke-width: 1.25"/>
      </g>
     </g>
     <g id="text_1">
      <text style="fill: #262626; font: 16px 'Arial', 'DejaVu Sans', 'Liberation Sans', 'Bitstream Vera Sans', sans-serif; text-anchor: middle" x="86.4" y="366.5525" transform="rotate(-0 86.4 366.5525)">Jan</text>
     </g>
    </g>
    <g id="xtick_2">
     <g id="line2d_2">
      <g>
       <use xlink:href="#m660a57bbfd" x="97.2" y="345.6" style="fill: #262626; stroke: #262626; stroke-width: 1.25"/>
      </g>
     </g>
    </g>
    <g id="xtick_3">
     <g id="line2d_3">
      <g>
       <use xlink:href="#m660a57bbfd" x="108" y="345.6" style="fill: #262626; stroke: #262626; stroke-width: 1.25"/>
      </g>
     </g>
    </g>
    <g id="xtick_4">
     <g id="line2d_4">
      <g>
       <use xlink:href="#m660a57bbfd" x="118.8" y="345.6" style="fill: #262626; stroke: #262626; stroke-width: 1.25"/>
      </g>
     </g>
     <g id="text_2">
      <text style="fill: #262626; font: 16px 'Arial', 'DejaVu Sans', 'Liberation Sans', 'Bitstream Vera Sans', sans-serif; text-anchor: middle" x="118.8" y="366.5525" transform="rotate(-0 118.8 366.5525)">Apr</text>
     </g>
    </g>
    <g id="xtick_5">
     <g id="line2d_5">
      <g>
       <use xlink:href="#m660a57bbfd" x="129.6" y="345.6" style="fill: #262626; stroke: #262626; stroke-width: 1.25"/>
      </g>
     </g>
    </g>
    <g id="xtick_6">
     <g id="line2d_6">
      <g>
       <use xlink:href="#m660a57bbfd" x="140.4" y="345.6" style="fill: #262626; stroke: #262626; stroke-width: 1.25"/>
      </g>
     </g>
    </g>
    <g id="xtick_7">
     <g id="line2d_7">
      <g>
       <use xlink:href="#m660a57bbfd" x="151.2" y="345.6" style="fill: #262626; stroke: #262626; stroke-width: 1.25"/>
      </g>
     </g>
     <g id="text_3">
      <text style="fill: #262626; font: 16px 'Arial', 'DejaVu Sans', 'Liberation Sans', 'Bitstream Vera Sans', sans-serif; text-anchor: middle" x="151.2" y="366.5525" transform="rotate(-0 151.2 366.5525)">Jul</text>
     </g>
    </g>
    <g id="xtick_8">
     <g id="line2d_8">
      <g>
       <use xlink:href="#m660a57bbfd" x="162" y="345.6" style="fill: #262626; stroke: #262626; stroke-width: 1.25"/>
      </g>
     </g>
    </g>
    <g id="xtick_9">
     <g id="line2d_9">
      <g>
       <use xlink:href="#m660a57bbfd" x="172.8" y="345.6" style="fill: #262626; stroke: #262626; stroke-width: 1.25"/>
      </g>
     </g>
    </g>
    <g id="xtick_10">
     <g id="line2d_10">
      <g>
       <use xlink:href="#m660a57bbfd" x="183.6" y="345.6" style="fill: #262626; stroke: #262626; stroke-width: 1.25"/>
      </g>
     </g>
     <g id="text_4">
      <text style="fill: #262626; font: 16px 'Arial', 'DejaVu Sans', 'Liberation Sans', 'Bitstream Vera Sans', sans-serif; text-anchor: middle" x="183.6" y="366.5525" transform="rotate(-0 183.6 366.5525)">Oct</text>
     </g>
    </g>
    <g id="xtick_11">
     <g id="line2d_11">
      <g>
       <use xlink:href="#m660a57bbfd" x="194.4" y="345.6" style="fill: #262626; stroke: #262626; stroke-width: 1.25"/>
      </g>
     </g>
    </g>
    <g id="xtick_12">
     <g id="line2d_12">
      <g>
       <use xlink:href="#m660a57bbfd" x="205.2" y="345.6" style="fill: #262626; stroke: #262626; stroke-width: 1.25"/>
      </g>
     </g>
    </g>
    <g id="xtick_13">
     <g id="line2d_13">
      <g>
       <use xlink:href="#m660a57bbfd" x="216" y="345.6" style="fill: #262626; stroke: #262626; stroke-width: 1.25"/>
      </g>
     </g>
     <g id="text_5">
      <text style="fill: #262626; font: 16px 'Arial', 'DejaVu Sans', 'Liberation Sans', 'Bitstream Vera Sans', sans-serif; text-anchor: middle" x="216" y="366.5525" transform="rotate(-0 216 366.5525)">Jan</text>
     </g>
    </g>
    <g id="xtick_14">
     <g id="line2d_14">
      <g>
       <use xlink:href="#m660a57bbfd" x="216" y="345.6" style="fill: #262626; stroke: #262626; stroke-width: 1.25"/>
      </g>
     </g>
     <g id="text_6">
      <text style="fill: #262626; font: 16px 'Arial', 'DejaVu Sans', 'Liberation Sans', 'Bitstream Vera Sans', sans-serif; text-anchor: middle" x="216" y="366.5525" transform="rotate(-0 216 366.5525)">Jan</text>
     </g>
    </g>
    <g id="xtick_15">
     <g id="line2d_15">
      <g>
       <use xlink:href="#m660a57bbfd" x="226.8" y="345.6" style="fill: #262626; stroke: #262626; stroke-width: 1.25"/>
      </g>
     </g>
    </g>
    <g id="xtick_16">
     <g id="line2d_16">
      <g>
       <use xlink:href="#m660a57bbfd" x="237.6" y="345.6" style="fill: #262626; stroke: #262626; stroke-width: 1.25"/>
      </g>
     </g>
    </g>
    <g id="xtick_17">
     <g id="line2d_17">
      <g>
       <use xlink:href="#m660a57bbfd" x="248.4" y="345.6" style="fill: #262626; stroke: #262626; stroke-width: 1.25"/>
      </g>
     </g>
     <g id="text_7">
      <text style="fill: #262626; font: 16px 'Arial', 'DejaVu Sans', 'Liberation Sans', 'Bitstream Vera Sans', sans-serif; text-anchor: middle" x="248.4" y="366.5525" transform="rotate(-0 248.4 366.5525)">Apr</text>
     </g>
    </g>
    <g id="xtick_18">
     <g id="line2d_18">
      <g>
       <use xlink:href="#m660a57bbfd" x="259.2" y="345.6" style="fill: #262626; stroke: #262626; stroke-width: 1.25"/>
      </g>
     </g>
    </g>
    <g id="xtick_19">
     <g id="line2d_19">
      <g>
       <use xlink:href="#m660a57bbfd" x="270" y="345.6" style="fill: #262626; stroke: #262626; stroke-width: 1.25"/>
      </g>
     </g>
    </g>
    <g id="xtick_20">
     <g id="line2d_20">
      <g>
       <use xlink:href="#m660a57bbfd" x="280.8" y="345.6" style="fill: #262626; stroke: #262626; stroke-width: 1.25"/>
      </g>
     </g>
     <g id="text_8">
      <text style="fill: #262626; font: 16px 'Arial', 'DejaVu Sans', 'Liberation Sans', 'Bitstream Vera Sans', sans-serif; text-anchor: middle" x="280.8" y="366.5525" transform="rotate(-0 280.8 366.5525)">Jul</text>
     </g>
    </g>
    <g id="xtick_21">
     <g id="line2d_21">
      <g>
       <use xlink:href="#m660a57bbfd" x="291.6" y="345.6" style="fill: #262626; stroke: #262626; stroke-width: 1.25"/>
      </g>
     </g>
    </g>
    <g id="xtick_22">
     <g id="line2d_22">
      <g>
       <use xlink:href="#m660a57bbfd" x="302.4" y="345.6" style="fill: #262626; stroke: #262626; stroke-width: 1.25"/>
      </g>
     </g>
    </g>
    <g id="xtick_23">
     <g id="line2d_23">
      <g>
       <use xlink:href="#m660a57bbfd" x="313.2" y="345.6" style="fill: #262626; stroke: #262626; stroke-width: 1.25"/>
      </g>
     </g>
     <g id="text_9">
      <text style="fill: #262626; font: 16px 'Arial', 'DejaVu Sans', 'Liberation Sans', 'Bitstream Vera Sans', sans-serif; text-anchor: middle" x="313.2" y="366.5525" transform="rotate(-0 313.2 366.5525)">Oct</text>
     </g>
    </g>
    <g id="xtick_24">
     <g id="line2d_24">
      <g>
       <use xlink:href="#m660a57bbfd" x="324" y="345.6" style="fill: #262626; stroke: #262626; stroke-width: 1.25"/>
      </g>
     </g>
    </g>
    <g id="xtick_25">
     <g id="line2d_25">
      <g>
       <use xlink:href="#m660a57bbfd" x="334.8" y="345.6" style="fill: #262626; stroke: #262626; stroke-width: 1.25"/>
      </g>
     </g>
    </g>
    <g id="xtick_26">
     <g id="line2d_26">
      <g>
       <use xlink:href="#m660a57bbfd" x="345.6" y="345.6" style="fill: #262626; stroke: #262626; stroke-width: 1.25"/>
      </g>
     </g>
     <g id="text_10">
      <text style="fill: #262626; font: 16px 'Arial', 'DejaVu Sans', 'Liberation Sans', 'Bitstream Vera Sans', sans-serif; text-anchor: middle" x="345.6" y="366.5525" transform="rotate(-0 345.6 366.5525)">Jan</text>
     </g>
    </g>
    <g id="text_11">
     <text style="fill: #262626; font: 16px 'Arial', 'DejaVu Sans', 'Liberation Sans', 'Bitstream Vera Sans', sans-serif; text-anchor: middle" x="216" y="385.185" transform="rotate(-0 216 385.185)"> </text>
    </g>
   </g>
   <g id="matplotlib.axis_2">
    <g id="ytick_1">
     <g id="line2d_27">
      <defs>
       <path id="m123652d093" d="M 0 0 
L -6 0 
" style="stroke: #262626; stroke-width: 1.25"/>
      </defs>
      <g>
       <use xlink:href="#m123652d093" x="86.4" y="345.6" style="fill: #262626; stroke: #262626; stroke-width: 1.25"/>
      </g>
     </g>
     <g id="text_12">
      <text style="fill: #262626; font: 16px 'Arial', 'DejaVu Sans', 'Liberation Sans', 'Bitstream Vera Sans', sans-serif; text-anchor: end" x="76.9" y="351.32625" transform="rotate(-0 76.9 351.32625)">0.0</text>
     </g>
    </g>
    <g id="ytick_2">
     <g id="line2d_28">
      <g>
       <use xlink:href="#m123652d093" x="86.4" y="293.76" style="fill: #262626; stroke: #262626; stroke-width: 1.25"/>
      </g>
     </g>
     <g id="text_13">
      <text style="fill: #262626; font: 16px 'Arial', 'DejaVu Sans', 'Liberation Sans', 'Bitstream Vera Sans', sans-serif; text-anchor: end" x="76.9" y="299.48625" transform="rotate(-0 76.9 299.48625)">0.1</text>
     </g>
    </g>
    <g id="ytick_3">
     <g id="line2d_29">
      <g>
       <use xlink:href="#m123652d093" x="86.4" y="241.92" style="fill: #262626; stroke: #262626; stroke-width: 1.25"/>
      </g>
     </g>
     <g id="text_14">
      <text style="fill: #262626; font: 16px 'Arial', 'DejaVu Sans', 'Liberation Sans', 'Bitstream Vera Sans', sans-serif; text-anchor: end" x="76.9" y="247.64625" transform="rotate(-0 76.9 247.64625)">0.2</text>
     </g>
    </g>
    <g id="ytick_4">
     <g id="line2d_30">
      <g>
       <use xlink:href="#m123652d093" x="86.4" y="190.08" style="fill: #262626; stroke: #262626; stroke-width: 1.25"/>
      </g>
     </g>
     <g id="text_15">
      <text style="fill: #262626; font: 16px 'Arial', 'DejaVu Sans', 'Liberation Sans', 'Bitstream Vera Sans', sans-serif; text-anchor: end" x="76.9" y="195.80625" transform="rotate(-0 76.9 195.80625)">0.3</text>
     </g>
    </g>
    <g id="ytick_5">
     <g id="line2d_31">
      <g>
       <use xlink:href="#m123652d093" x="86.4" y="138.24" style="fill: #262626; stroke: #262626; stroke-width: 1.25"/>
      </g>
     </g>
     <g id="text_16">
      <text style="fill: #262626; font: 16px 'Arial', 'DejaVu Sans', 'Liberation Sans', 'Bitstream Vera Sans', sans-serif; text-anchor: end" x="76.9" y="143.96625" transform="rotate(-0 76.9 143.96625)">0.4</text>
     </g>
    </g>
    <g id="ytick_6">
     <g id="line2d_32">
      <g>
       <use xlink:href="#m123652d093" x="86.4" y="86.4" style="fill: #262626; stroke: #262626; stroke-width: 1.25"/>
      </g>
     </g>
     <g id="text_17">
      <text style="fill: #262626; font: 16px 'Arial', 'DejaVu Sans', 'Liberation Sans', 'Bitstream Vera Sans', sans-serif; text-anchor: end" x="76.9" y="92.12625" transform="rotate(-0 76.9 92.12625)">0.5</text>
     </g>
    </g>
    <g id="text_18">
     <text style="fill: #262626; font: 16px 'Arial', 'DejaVu Sans', 'Liberation Sans', 'Bitstream Vera Sans', sans-serif; text-anchor: middle" x="47.48" y="216" transform="rotate(-90 47.48 216)">Case outbreak risk</text>
    </g>
   </g>
   <g id="PolyCollection_1">
    <defs>
     <path id="m69e85e050a" d="M 208.8 -86.4 
L 176.4 -86.4 
L 176.4 -345.6 
L 208.8 -345.6 
L 208.8 -345.6 
L 208.8 -86.4 
z
"/>
    </defs>
    <g clip-path="url(#pe8f0b91d4d)">
     <use xlink:href="#m69e85e050a" x="0" y="432" style="fill: #808080; fill-opacity: 0.5"/>
    </g>
   </g>
   <g id="PolyCollection_2">
    <defs>
     <path id="m3c843f9d64" d="M 338.4 -86.4 
L 306 -86.4 
L 306 -345.6 
L 338.4 -345.6 
L 338.4 -345.6 
L 338.4 -86.4 
z
"/>
    </defs>
    <g clip-path="url(#pe8f0b91d4d)">
     <use xlink:href="#m3c843f9d64" x="0" y="432" style="fill: #808080; fill-opacity: 0.5"/>
    </g>
   </g>
   <g id="line2d_33">
    <path d="M 86.4 147.644318 
L 88.2 147.984988 
L 90 148.538907 
L 91.8 149.305855 
L 93.6 150.285235 
L 95.76 151.739421 
L 97.92 153.495248 
L 100.08 155.548657 
L 102.24 157.893981 
L 104.76 160.988791 
L 107.28 164.45398 
L 110.16 168.839067 
L 113.04 173.634503 
L 116.28 179.445619 
L 120.6 187.687731 
L 129.6 205.065341 
L 132.48 210.108214 
L 135 214.084926 
L 137.16 217.082425 
L 138.96 219.242731 
L 140.76 221.06299 
L 142.2 222.25717 
L 143.64 223.207314 
L 145.08 223.905984 
L 146.52 224.348472 
L 147.96 224.532779 
L 149.4 224.459543 
L 150.84 224.131921 
L 152.28 223.555424 
L 153.72 222.737743 
L 155.16 221.688537 
L 156.96 220.068994 
L 158.76 218.131259 
L 160.92 215.426499 
L 163.08 212.358831 
L 165.6 208.397457 
L 168.84 202.842548 
L 173.16 194.942864 
L 182.16 178.377916 
L 185.76 172.250781 
L 189 167.166624 
L 191.88 163.055042 
L 194.4 159.807343 
L 196.92 156.909913 
L 199.44 154.380531 
L 201.6 152.516082 
L 203.76 150.93925 
L 205.92 149.655547 
L 208.08 148.66932 
L 209.88 148.077162 
L 211.68 147.695457 
L 213.48 147.525369 
L 215.28 147.567746 
L 217.08 147.823129 
L 218.88 148.291756 
L 220.68 148.973542 
L 222.48 149.868046 
L 224.64 151.221016 
L 226.8 152.876677 
L 228.96 154.831436 
L 231.12 157.080198 
L 233.64 160.065952 
L 236.16 163.427302 
L 238.68 167.1439 
L 241.56 171.791522 
L 244.8 177.465463 
L 248.76 184.894703 
L 260.64 207.643431 
L 263.16 211.86956 
L 265.32 215.129893 
L 267.48 217.985495 
L 269.28 220.013188 
L 271.08 221.690014 
L 272.52 222.763275 
L 273.96 223.588441 
L 275.4 224.159438 
L 276.84 224.472919 
L 278.28 224.528214 
L 279.72 224.327239 
L 281.16 223.87435 
L 282.6 223.176172 
L 284.04 222.241405 
L 285.84 220.756504 
L 287.64 218.942762 
L 289.44 216.827705 
L 291.6 213.934516 
L 294.12 210.140208 
L 297 205.364642 
L 300.6 198.939737 
L 314.28 174.041203 
L 317.52 168.810534 
L 320.4 164.548771 
L 323.28 160.700401 
L 325.8 157.700893 
L 328.32 155.064778 
L 330.48 153.105918 
L 332.64 151.432537 
L 334.8 150.050588 
L 336.96 148.964783 
L 338.76 148.288847 
L 340.56 147.822802 
L 342.36 147.567949 
L 344.16 147.525258 
L 345.24 147.60177 
L 345.24 147.60177 
" clip-path="url(#pe8f0b91d4d)" style="fill: none; stroke: #4c72b0; stroke-width: 2; stroke-linecap: round"/>
   </g>
   <g id="line2d_34">
    <path d="M 86.4 195.464289 
L 88.2 194.767984 
L 90 194.300003 
L 91.8 194.060754 
L 93.6 194.050146 
L 95.4 194.267581 
L 97.2 194.711875 
L 99 195.381064 
L 100.8 196.27226 
L 102.6 197.381531 
L 104.76 198.993159 
L 106.92 200.899609 
L 109.08 203.085434 
L 111.6 205.962232 
L 114.48 209.630981 
L 117.72 214.150419 
L 122.4 221.123227 
L 128.16 229.652655 
L 131.04 233.525505 
L 133.56 236.52012 
L 135.72 238.708341 
L 137.52 240.218423 
L 139.32 241.411515 
L 140.76 242.121117 
L 142.2 242.602192 
L 143.64 242.847302 
L 145.08 242.851532 
L 146.52 242.612383 
L 147.96 242.129716 
L 149.4 241.405655 
L 150.84 240.444502 
L 152.28 239.252565 
L 154.08 237.450689 
L 155.88 235.320762 
L 158.04 232.365038 
L 160.2 229.017265 
L 162.72 224.685684 
L 165.6 219.285721 
L 169.92 210.622325 
L 173.88 202.761478 
L 175.32 200.274062 
L 176.4 198.765446 
L 177.12 198.050247 
L 178.2 197.423137 
L 181.44 195.870416 
L 184.32 194.728595 
L 186.84 193.976153 
L 189 193.55095 
L 191.16 193.355162 
L 193.32 193.410731 
L 195.12 193.662582 
L 196.92 194.110527 
L 198.72 194.759748 
L 200.88 195.801314 
L 203.04 197.095439 
L 207 199.574408 
L 208.08 199.952803 
L 208.8 199.991233 
L 209.52 199.753773 
L 210.96 198.618794 
L 213.12 197.051165 
L 214.92 195.991343 
L 216.72 195.158401 
L 218.52 194.553361 
L 220.32 194.176861 
L 222.12 194.029088 
L 223.92 194.109806 
L 225.72 194.418174 
L 227.52 194.952693 
L 229.32 195.71109 
L 231.12 196.690065 
L 233.28 198.149672 
L 235.44 199.910405 
L 237.6 201.958721 
L 240.12 204.688379 
L 242.64 207.749836 
L 245.52 211.595441 
L 249.12 216.791724 
L 259.2 231.639488 
L 261.72 234.861083 
L 263.88 237.291905 
L 265.68 239.034362 
L 267.48 240.483263 
L 269.28 241.60984 
L 270.72 242.263145 
L 272.16 242.685825 
L 273.6 242.871081 
L 275.04 242.814607 
L 276.48 242.514505 
L 277.92 241.971199 
L 279.36 241.187381 
L 280.8 240.167865 
L 282.6 238.572534 
L 284.4 236.636851 
L 286.2 234.382072 
L 288.36 231.290213 
L 290.52 227.823067 
L 293.04 223.37561 
L 296.28 217.165951 
L 304.56 200.856675 
L 305.64 199.220977 
L 306.36 198.370148 
L 307.08 197.810993 
L 309.6 196.5312 
L 312.48 195.26619 
L 315 194.374837 
L 317.52 193.736362 
L 319.68 193.422934 
L 321.84 193.350282 
L 323.64 193.488441 
L 325.44 193.817831 
L 327.24 194.34594 
L 329.04 195.075802 
L 331.2 196.207954 
L 333.72 197.805979 
L 336.24 199.392864 
L 337.32 199.860969 
L 338.04 199.999497 
L 338.76 199.915554 
L 339.48 199.499799 
L 342 197.53828 
L 343.8 196.388125 
L 345.24 195.630878 
L 345.24 195.630878 
" clip-path="url(#pe8f0b91d4d)" style="fill: none; stroke: #dd8452; stroke-width: 2; stroke-linecap: round"/>
   </g>
   <g id="patch_3">
    <path d="M 86.4 345.6 
L 86.4 86.4 
" style="fill: none; stroke: #262626; stroke-width: 1.25; stroke-linejoin: miter; stroke-linecap: square"/>
   </g>
   <g id="patch_4">
    <path d="M 86.4 345.6 
L 345.6 345.6 
" style="fill: none; stroke: #262626; stroke-width: 1.25; stroke-linejoin: miter; stroke-linecap: square"/>
   </g>
   <g id="legend_1">
    <g id="patch_5">
     <path d="M 169.613438 137.206875 
L 335.8 137.206875 
Q 338.6 137.206875 338.6 134.406875 
L 338.6 96.2 
Q 338.6 93.4 335.8 93.4 
L 169.613438 93.4 
Q 166.813438 93.4 166.813438 96.2 
L 166.813438 134.406875 
Q 166.813438 137.206875 169.613438 137.206875 
z
" style="fill: #ffffff; opacity: 0.8; stroke: #cccccc; stroke-linejoin: miter"/>
    </g>
    <g id="line2d_35">
     <path d="M 172.413438 104.120937 
L 186.413438 104.120937 
L 200.413438 104.120937 
" style="fill: none; stroke: #4c72b0; stroke-width: 2; stroke-linecap: round"/>
    </g>
    <g id="text_19">
     <text style="fill: #262626; font: 14px 'Arial', 'DejaVu Sans', 'Liberation Sans', 'Bitstream Vera Sans', sans-serif; text-anchor: start" x="211.613438" y="109.020937" transform="rotate(-0 211.613438 109.020937)">Without vaccination</text>
    </g>
    <g id="line2d_36">
     <path d="M 172.413438 123.924375 
L 186.413438 123.924375 
L 200.413438 123.924375 
" style="fill: none; stroke: #dd8452; stroke-width: 2; stroke-linecap: round"/>
    </g>
    <g id="text_20">
     <text style="fill: #262626; font: 14px 'Arial', 'DejaVu Sans', 'Liberation Sans', 'Bitstream Vera Sans', sans-serif; text-anchor: start" x="211.613438" y="128.824375" transform="rotate(-0 211.613438 128.824375)">With vaccination</text>
    </g>
   </g>
  </g>
 </g>
 <defs>
  <clipPath id="pe8f0b91d4d">
   <rect x="86.4" y="86.4" width="259.2" height="259.2"/>
  </clipPath>
 </defs>
</svg>
