<?xml version="1.0" encoding="utf-8" standalone="no"?>
<!DOCTYPE svg PUBLIC "-//W3C//DTD SVG 1.1//EN"
  "http://www.w3.org/Graphics/SVG/1.1/DTD/svg11.dtd">
<svg xmlns:xlink="http://www.w3.org/1999/xlink" width="432pt" height="432pt" viewBox="0 0 432 432" xmlns="http://www.w3.org/2000/svg" version="1.1">
 <metadata>
  <rdf:RDF xmlns:dc="http://purl.org/dc/elements/1.1/" xmlns:cc="http://creativecommons.org/ns#" xmlns:rdf="http://www.w3.org/1999/02/22-rdf-syntax-ns#">
   <cc:Work>
    <dc:type rdf:resource="http://purl.org/dc/dcmitype/StillImage"/>
    <dc:date>2024-05-30T15:30:13.838842</dc:date>
    <dc:format>image/svg+xml</dc:format>
    <dc:creator>
     <cc:Agent>
      <dc:title>Matplotlib v3.8.4, https://matplotlib.org/</dc:title>
     </cc:Agent>
    </dc:creator>
   </cc:Work>
  </rdf:RDF>
 </metadata>
 <defs>
  <style type="text/css">*{stroke-linejoin: round; stroke-linecap: butt}</style>
 </defs>
 <g id="figure_1">
  <g id="patch_1">
   <path d="M 0 432 
L 432 432 
L 432 0 
L 0 0 
L 0 432 
z
" style="fill: none"/>
  </g>
  <g id="axes_1">
   <g id="patch_2">
    <path d="M 86.4 345.6 
L 345.6 345.6 
L 345.6 86.4 
L 86.4 86.4 
L 86.4 345.6 
z
" style="fill: none"/>
   </g>
   <g id="matplotlib.axis_1">
    <g id="xtick_1">
     <g id="line2d_1">
      <defs>
       <path id="mfc2bbc7635" d="M 0 0 
L 0 6 
" style="stroke: #262626; stroke-width: 1.25"/>
      </defs>
      <g>
       <use xlink:href="#mfc2bbc7635" x="86.4" y="345.6" style="fill: #262626; stroke: #262626; stroke-width: 1.25"/>
      </g>
     </g>
     <g id="text_1">
      <text style="fill: #262626; font: 16px 'Arial', 'DejaVu Sans', 'Liberation Sans', 'Bitstream Vera Sans', sans-serif; text-anchor: middle" x="86.4" y="366.5525" transform="rotate(-0 86.4 366.5525)">Jan</text>
     </g>
    </g>
    <g id="xtick_2">
     <g id="line2d_2">
      <g>
       <use xlink:href="#mfc2bbc7635" x="97.2" y="345.6" style="fill: #262626; stroke: #262626; stroke-width: 1.25"/>
      </g>
     </g>
    </g>
    <g id="xtick_3">
     <g id="line2d_3">
      <g>
       <use xlink:href="#mfc2bbc7635" x="108" y="345.6" style="fill: #262626; stroke: #262626; stroke-width: 1.25"/>
      </g>
     </g>
    </g>
    <g id="xtick_4">
     <g id="line2d_4">
      <g>
       <use xlink:href="#mfc2bbc7635" x="118.8" y="345.6" style="fill: #262626; stroke: #262626; stroke-width: 1.25"/>
      </g>
     </g>
     <g id="text_2">
      <text style="fill: #262626; font: 16px 'Arial', 'DejaVu Sans', 'Liberation Sans', 'Bitstream Vera Sans', sans-serif; text-anchor: middle" x="118.8" y="366.5525" transform="rotate(-0 118.8 366.5525)">Apr</text>
     </g>
    </g>
    <g id="xtick_5">
     <g id="line2d_5">
      <g>
       <use xlink:href="#mfc2bbc7635" x="129.6" y="345.6" style="fill: #262626; stroke: #262626; stroke-width: 1.25"/>
      </g>
     </g>
    </g>
    <g id="xtick_6">
     <g id="line2d_6">
      <g>
       <use xlink:href="#mfc2bbc7635" x="140.4" y="345.6" style="fill: #262626; stroke: #262626; stroke-width: 1.25"/>
      </g>
     </g>
    </g>
    <g id="xtick_7">
     <g id="line2d_7">
      <g>
       <use xlink:href="#mfc2bbc7635" x="151.2" y="345.6" style="fill: #262626; stroke: #262626; stroke-width: 1.25"/>
      </g>
     </g>
     <g id="text_3">
      <text style="fill: #262626; font: 16px 'Arial', 'DejaVu Sans', 'Liberation Sans', 'Bitstream Vera Sans', sans-serif; text-anchor: middle" x="151.2" y="366.5525" transform="rotate(-0 151.2 366.5525)">Jul</text>
     </g>
    </g>
    <g id="xtick_8">
     <g id="line2d_8">
      <g>
       <use xlink:href="#mfc2bbc7635" x="162" y="345.6" style="fill: #262626; stroke: #262626; stroke-width: 1.25"/>
      </g>
     </g>
    </g>
    <g id="xtick_9">
     <g id="line2d_9">
      <g>
       <use xlink:href="#mfc2bbc7635" x="172.8" y="345.6" style="fill: #262626; stroke: #262626; stroke-width: 1.25"/>
      </g>
     </g>
    </g>
    <g id="xtick_10">
     <g id="line2d_10">
      <g>
       <use xlink:href="#mfc2bbc7635" x="183.6" y="345.6" style="fill: #262626; stroke: #262626; stroke-width: 1.25"/>
      </g>
     </g>
     <g id="text_4">
      <text style="fill: #262626; font: 16px 'Arial', 'DejaVu Sans', 'Liberation Sans', 'Bitstream Vera Sans', sans-serif; text-anchor: middle" x="183.6" y="366.5525" transform="rotate(-0 183.6 366.5525)">Oct</text>
     </g>
    </g>
    <g id="xtick_11">
     <g id="line2d_11">
      <g>
       <use xlink:href="#mfc2bbc7635" x="194.4" y="345.6" style="fill: #262626; stroke: #262626; stroke-width: 1.25"/>
      </g>
     </g>
    </g>
    <g id="xtick_12">
     <g id="line2d_12">
      <g>
       <use xlink:href="#mfc2bbc7635" x="205.2" y="345.6" style="fill: #262626; stroke: #262626; stroke-width: 1.25"/>
      </g>
     </g>
    </g>
    <g id="xtick_13">
     <g id="line2d_13">
      <g>
       <use xlink:href="#mfc2bbc7635" x="216" y="345.6" style="fill: #262626; stroke: #262626; stroke-width: 1.25"/>
      </g>
     </g>
     <g id="text_5">
      <text style="fill: #262626; font: 16px 'Arial', 'DejaVu Sans', 'Liberation Sans', 'Bitstream Vera Sans', sans-serif; text-anchor: middle" x="216" y="366.5525" transform="rotate(-0 216 366.5525)">Jan</text>
     </g>
    </g>
    <g id="xtick_14">
     <g id="line2d_14">
      <g>
       <use xlink:href="#mfc2bbc7635" x="216" y="345.6" style="fill: #262626; stroke: #262626; stroke-width: 1.25"/>
      </g>
     </g>
     <g id="text_6">
      <text style="fill: #262626; font: 16px 'Arial', 'DejaVu Sans', 'Liberation Sans', 'Bitstream Vera Sans', sans-serif; text-anchor: middle" x="216" y="366.5525" transform="rotate(-0 216 366.5525)">Jan</text>
     </g>
    </g>
    <g id="xtick_15">
     <g id="line2d_15">
      <g>
       <use xlink:href="#mfc2bbc7635" x="226.8" y="345.6" style="fill: #262626; stroke: #262626; stroke-width: 1.25"/>
      </g>
     </g>
    </g>
    <g id="xtick_16">
     <g id="line2d_16">
      <g>
       <use xlink:href="#mfc2bbc7635" x="237.6" y="345.6" style="fill: #262626; stroke: #262626; stroke-width: 1.25"/>
      </g>
     </g>
    </g>
    <g id="xtick_17">
     <g id="line2d_17">
      <g>
       <use xlink:href="#mfc2bbc7635" x="248.4" y="345.6" style="fill: #262626; stroke: #262626; stroke-width: 1.25"/>
      </g>
     </g>
     <g id="text_7">
      <text style="fill: #262626; font: 16px 'Arial', 'DejaVu Sans', 'Liberation Sans', 'Bitstream Vera Sans', sans-serif; text-anchor: middle" x="248.4" y="366.5525" transform="rotate(-0 248.4 366.5525)">Apr</text>
     </g>
    </g>
    <g id="xtick_18">
     <g id="line2d_18">
      <g>
       <use xlink:href="#mfc2bbc7635" x="259.2" y="345.6" style="fill: #262626; stroke: #262626; stroke-width: 1.25"/>
      </g>
     </g>
    </g>
    <g id="xtick_19">
     <g id="line2d_19">
      <g>
       <use xlink:href="#mfc2bbc7635" x="270" y="345.6" style="fill: #262626; stroke: #262626; stroke-width: 1.25"/>
      </g>
     </g>
    </g>
    <g id="xtick_20">
     <g id="line2d_20">
      <g>
       <use xlink:href="#mfc2bbc7635" x="280.8" y="345.6" style="fill: #262626; stroke: #262626; stroke-width: 1.25"/>
      </g>
     </g>
     <g id="text_8">
      <text style="fill: #262626; font: 16px 'Arial', 'DejaVu Sans', 'Liberation Sans', 'Bitstream Vera Sans', sans-serif; text-anchor: middle" x="280.8" y="366.5525" transform="rotate(-0 280.8 366.5525)">Jul</text>
     </g>
    </g>
    <g id="xtick_21">
     <g id="line2d_21">
      <g>
       <use xlink:href="#mfc2bbc7635" x="291.6" y="345.6" style="fill: #262626; stroke: #262626; stroke-width: 1.25"/>
      </g>
     </g>
    </g>
    <g id="xtick_22">
     <g id="line2d_22">
      <g>
       <use xlink:href="#mfc2bbc7635" x="302.4" y="345.6" style="fill: #262626; stroke: #262626; stroke-width: 1.25"/>
      </g>
     </g>
    </g>
    <g id="xtick_23">
     <g id="line2d_23">
      <g>
       <use xlink:href="#mfc2bbc7635" x="313.2" y="345.6" style="fill: #262626; stroke: #262626; stroke-width: 1.25"/>
      </g>
     </g>
     <g id="text_9">
      <text style="fill: #262626; font: 16px 'Arial', 'DejaVu Sans', 'Liberation Sans', 'Bitstream Vera Sans', sans-serif; text-anchor: middle" x="313.2" y="366.5525" transform="rotate(-0 313.2 366.5525)">Oct</text>
     </g>
    </g>
    <g id="xtick_24">
     <g id="line2d_24">
      <g>
       <use xlink:href="#mfc2bbc7635" x="324" y="345.6" style="fill: #262626; stroke: #262626; stroke-width: 1.25"/>
      </g>
     </g>
    </g>
    <g id="xtick_25">
     <g id="line2d_25">
      <g>
       <use xlink:href="#mfc2bbc7635" x="334.8" y="345.6" style="fill: #262626; stroke: #262626; stroke-width: 1.25"/>
      </g>
     </g>
    </g>
    <g id="xtick_26">
     <g id="line2d_26">
      <g>
       <use xlink:href="#mfc2bbc7635" x="345.6" y="345.6" style="fill: #262626; stroke: #262626; stroke-width: 1.25"/>
      </g>
     </g>
     <g id="text_10">
      <text style="fill: #262626; font: 16px 'Arial', 'DejaVu Sans', 'Liberation Sans', 'Bitstream Vera Sans', sans-serif; text-anchor: middle" x="345.6" y="366.5525" transform="rotate(-0 345.6 366.5525)">Jan</text>
     </g>
    </g>
    <g id="text_11">
     <text style="fill: #262626; font: 16px 'Arial', 'DejaVu Sans', 'Liberation Sans', 'Bitstream Vera Sans', sans-serif; text-anchor: middle" x="216" y="385.185" transform="rotate(-0 216 385.185)"> </text>
    </g>
   </g>
   <g id="matplotlib.axis_2">
    <g id="ytick_1">
     <g id="line2d_27">
      <defs>
       <path id="m09f97de5e0" d="M 0 0 
L -6 0 
" style="stroke: #262626; stroke-width: 1.25"/>
      </defs>
      <g>
       <use xlink:href="#m09f97de5e0" x="86.4" y="345.6" style="fill: #262626; stroke: #262626; stroke-width: 1.25"/>
      </g>
     </g>
     <g id="text_12">
      <text style="fill: #262626; font: 16px 'Arial', 'DejaVu Sans', 'Liberation Sans', 'Bitstream Vera Sans', sans-serif; text-anchor: end" x="76.9" y="351.32625" transform="rotate(-0 76.9 351.32625)">0.0</text>
     </g>
    </g>
    <g id="ytick_2">
     <g id="line2d_28">
      <g>
       <use xlink:href="#m09f97de5e0" x="86.4" y="293.76" style="fill: #262626; stroke: #262626; stroke-width: 1.25"/>
      </g>
     </g>
     <g id="text_13">
      <text style="fill: #262626; font: 16px 'Arial', 'DejaVu Sans', 'Liberation Sans', 'Bitstream Vera Sans', sans-serif; text-anchor: end" x="76.9" y="299.48625" transform="rotate(-0 76.9 299.48625)">0.1</text>
     </g>
    </g>
    <g id="ytick_3">
     <g id="line2d_29">
      <g>
       <use xlink:href="#m09f97de5e0" x="86.4" y="241.92" style="fill: #262626; stroke: #262626; stroke-width: 1.25"/>
      </g>
     </g>
     <g id="text_14">
      <text style="fill: #262626; font: 16px 'Arial', 'DejaVu Sans', 'Liberation Sans', 'Bitstream Vera Sans', sans-serif; text-anchor: end" x="76.9" y="247.64625" transform="rotate(-0 76.9 247.64625)">0.2</text>
     </g>
    </g>
    <g id="ytick_4">
     <g id="line2d_30">
      <g>
       <use xlink:href="#m09f97de5e0" x="86.4" y="190.08" style="fill: #262626; stroke: #262626; stroke-width: 1.25"/>
      </g>
     </g>
     <g id="text_15">
      <text style="fill: #262626; font: 16px 'Arial', 'DejaVu Sans', 'Liberation Sans', 'Bitstream Vera Sans', sans-serif; text-anchor: end" x="76.9" y="195.80625" transform="rotate(-0 76.9 195.80625)">0.3</text>
     </g>
    </g>
    <g id="ytick_5">
     <g id="line2d_31">
      <g>
       <use xlink:href="#m09f97de5e0" x="86.4" y="138.24" style="fill: #262626; stroke: #262626; stroke-width: 1.25"/>
      </g>
     </g>
     <g id="text_16">
      <text style="fill: #262626; font: 16px 'Arial', 'DejaVu Sans', 'Liberation Sans', 'Bitstream Vera Sans', sans-serif; text-anchor: end" x="76.9" y="143.96625" transform="rotate(-0 76.9 143.96625)">0.4</text>
     </g>
    </g>
    <g id="ytick_6">
     <g id="line2d_32">
      <g>
       <use xlink:href="#m09f97de5e0" x="86.4" y="86.4" style="fill: #262626; stroke: #262626; stroke-width: 1.25"/>
      </g>
     </g>
     <g id="text_17">
      <text style="fill: #262626; font: 16px 'Arial', 'DejaVu Sans', 'Liberation Sans', 'Bitstream Vera Sans', sans-serif; text-anchor: end" x="76.9" y="92.12625" transform="rotate(-0 76.9 92.12625)">0.5</text>
     </g>
    </g>
    <g id="text_18">
     <text style="fill: #262626; font: 16px 'Arial', 'DejaVu Sans', 'Liberation Sans', 'Bitstream Vera Sans', sans-serif; text-anchor: middle" x="47.48" y="216" transform="rotate(-90 47.48 216)">Case outbreak risk</text>
    </g>
   </g>
   <g id="PolyCollection_1">
    <defs>
     <path id="m0e665bd938" d="M 210.6 -86.4 
L 183.6 -86.4 
L 183.6 -345.6 
L 210.6 -345.6 
L 210.6 -345.6 
L 210.6 -86.4 
z
"/>
    </defs>
    <g clip-path="url(#pad889de7a3)">
     <use xlink:href="#m0e665bd938" x="0" y="432" style="fill: #808080; fill-opacity: 0.5"/>
    </g>
   </g>
   <g id="PolyCollection_2">
    <defs>
     <path id="m7308214b35" d="M 340.2 -86.4 
L 313.2 -86.4 
L 313.2 -345.6 
L 340.2 -345.6 
L 340.2 -345.6 
L 340.2 -86.4 
z
"/>
    </defs>
    <g clip-path="url(#pad889de7a3)">
     <use xlink:href="#m7308214b35" x="0" y="432" style="fill: #808080; fill-opacity: 0.5"/>
    </g>
   </g>
   <g id="line2d_33">
    <path d="M 86.4 147.644318 
L 88.2 147.984988 
L 90 148.538907 
L 91.8 149.305855 
L 93.6 150.285235 
L 95.76 151.739421 
L 97.92 153.495248 
L 100.08 155.548657 
L 102.24 157.893981 
L 104.76 160.988791 
L 107.28 164.45398 
L 110.16 168.839067 
L 113.04 173.634503 
L 116.28 179.445619 
L 120.6 187.687731 
L 129.6 205.065341 
L 132.48 210.108214 
L 135 214.084926 
L 137.16 217.082425 
L 138.96 219.242731 
L 140.76 221.06299 
L 142.2 222.25717 
L 143.64 223.207314 
L 145.08 223.905984 
L 146.52 224.348472 
L 147.96 224.532779 
L 149.4 224.459543 
L 150.84 224.131921 
L 152.28 223.555424 
L 153.72 222.737743 
L 155.16 221.688537 
L 156.96 220.068994 
L 158.76 218.131259 
L 160.92 215.426499 
L 163.08 212.358831 
L 165.6 208.397457 
L 168.84 202.842548 
L 173.16 194.942864 
L 182.16 178.377916 
L 185.76 172.250781 
L 189 167.166624 
L 191.88 163.055042 
L 194.4 159.807343 
L 196.92 156.909913 
L 199.44 154.380531 
L 201.6 152.516082 
L 203.76 150.93925 
L 205.92 149.655547 
L 208.08 148.66932 
L 209.88 148.077162 
L 211.68 147.695457 
L 213.48 147.525369 
L 215.28 147.567746 
L 217.08 147.823129 
L 218.88 148.291756 
L 220.68 148.973542 
L 222.48 149.868046 
L 224.64 151.221016 
L 226.8 152.876677 
L 228.96 154.831436 
L 231.12 157.080198 
L 233.64 160.065952 
L 236.16 163.427302 
L 238.68 167.1439 
L 241.56 171.791522 
L 244.8 177.465463 
L 248.76 184.894703 
L 260.64 207.643431 
L 263.16 211.86956 
L 265.32 215.129893 
L 267.48 217.985495 
L 269.28 220.013188 
L 271.08 221.690014 
L 272.52 222.763275 
L 273.96 223.588441 
L 275.4 224.159438 
L 276.84 224.472919 
L 278.28 224.528214 
L 279.72 224.327239 
L 281.16 223.87435 
L 282.6 223.176172 
L 284.04 222.241405 
L 285.84 220.756504 
L 287.64 218.942762 
L 289.44 216.827705 
L 291.6 213.934516 
L 294.12 210.140208 
L 297 205.364642 
L 300.6 198.939737 
L 314.28 174.041203 
L 317.52 168.810534 
L 320.4 164.548771 
L 323.28 160.700401 
L 325.8 157.700893 
L 328.32 155.064778 
L 330.48 153.105918 
L 332.64 151.432537 
L 334.8 150.050588 
L 336.96 148.964783 
L 338.76 148.288847 
L 340.56 147.822802 
L 342.36 147.567949 
L 344.16 147.525258 
L 345.24 147.60177 
L 345.24 147.60177 
" clip-path="url(#pad889de7a3)" style="fill: none; stroke-dasharray: 7.4,3.2; stroke-dashoffset: 0; stroke: #dd8452; stroke-opacity: 0.75; stroke-width: 2"/>
   </g>
   <g id="line2d_34">
    <path d="M 86.4 252.523825 
L 88.56 250.030906 
L 90.72 247.880397 
L 92.88 246.079149 
L 94.68 244.848549 
L 96.48 243.865703 
L 98.28 243.131178 
L 100.08 242.644237 
L 101.88 242.402589 
L 103.68 242.4021 
L 105.48 242.636783 
L 107.28 243.098522 
L 109.08 243.776505 
L 111.24 244.856286 
L 113.4 246.198796 
L 115.92 248.048568 
L 118.8 250.44952 
L 124.2 255.333849 
L 127.8 258.454074 
L 130.32 260.369238 
L 132.48 261.740616 
L 134.28 262.645429 
L 136.08 263.299953 
L 137.88 263.676761 
L 139.32 263.76277 
L 140.76 263.64704 
L 142.2 263.322197 
L 143.64 262.782914 
L 145.08 262.025761 
L 146.52 261.049374 
L 148.32 259.521474 
L 150.12 257.65679 
L 151.92 255.464572 
L 154.08 252.420765 
L 156.24 248.955308 
L 158.76 244.430207 
L 161.28 239.453834 
L 164.52 232.52198 
L 168.48 223.486484 
L 178.56 200.18022 
L 180.36 196.583729 
L 181.44 194.748623 
L 182.52 193.348912 
L 183.24 192.795397 
L 183.6 192.678154 
L 183.96 192.695673 
L 184.32 192.881062 
L 185.04 193.706422 
L 186.84 196.311658 
L 188.64 199.269359 
L 190.44 202.602721 
L 192.24 206.3532 
L 194.04 210.563758 
L 195.84 215.274285 
L 198 221.623979 
L 200.16 228.716872 
L 203.04 239.027396 
L 205.92 249.258584 
L 207.36 253.686042 
L 208.44 256.381622 
L 209.16 257.758377 
L 209.88 258.704223 
L 210.24 258.984914 
L 210.6 259.118817 
L 210.96 259.088869 
L 211.32 258.866547 
L 212.04 257.93226 
L 214.92 253.895975 
L 217.08 251.23505 
L 219.24 248.912402 
L 221.4 246.935754 
L 223.2 245.557282 
L 225 244.425628 
L 226.8 243.542101 
L 228.6 242.906795 
L 230.4 242.518354 
L 232.2 242.373738 
L 234 242.468161 
L 235.8 242.794797 
L 237.6 243.344449 
L 239.4 244.105305 
L 241.56 245.276245 
L 243.72 246.698673 
L 246.24 248.624197 
L 249.48 251.404951 
L 258.12 259.030298 
L 260.64 260.857663 
L 262.8 262.130632 
L 264.6 262.938916 
L 266.4 263.485381 
L 267.84 263.716698 
L 269.28 263.753072 
L 270.72 263.585673 
L 272.16 263.207645 
L 273.6 262.614134 
L 275.04 261.80223 
L 276.48 260.771035 
L 278.28 259.175253 
L 280.08 257.244176 
L 281.88 254.987938 
L 284.04 251.871542 
L 286.2 248.339295 
L 288.72 243.745146 
L 291.6 237.960123 
L 294.84 230.916637 
L 299.16 220.957158 
L 307.44 201.730631 
L 309.6 197.260344 
L 311.04 194.748623 
L 312.12 193.348912 
L 312.84 192.795397 
L 313.2 192.678154 
L 313.56 192.695673 
L 313.92 192.881062 
L 314.64 193.706422 
L 316.44 196.311658 
L 318.24 199.269359 
L 320.04 202.602721 
L 321.84 206.3532 
L 323.64 210.563758 
L 325.44 215.274285 
L 327.6 221.623979 
L 329.76 228.716872 
L 332.64 239.027396 
L 335.52 249.258584 
L 336.96 253.686042 
L 338.04 256.381622 
L 338.76 257.758377 
L 339.48 258.704223 
L 339.84 258.984914 
L 340.2 259.118817 
L 340.56 259.088869 
L 340.92 258.866547 
L 341.64 257.93226 
L 344.52 253.895975 
L 345.24 252.972001 
L 345.24 252.972001 
" clip-path="url(#pad889de7a3)" style="fill: none; stroke: #dd8452; stroke-width: 2; stroke-linecap: round"/>
   </g>
   <g id="line2d_35">
    <path d="M 86.4 112.687383 
L 88.56 113.036094 
L 90.72 113.651488 
L 92.88 114.5327 
L 95.04 115.678117 
L 97.2 117.085242 
L 99.36 118.750508 
L 101.52 120.669041 
L 104.04 123.218696 
L 106.56 126.090547 
L 109.44 129.743762 
L 112.32 133.758296 
L 115.56 138.647564 
L 119.52 145.034032 
L 131.76 165.124237 
L 134.64 169.223499 
L 136.8 171.960888 
L 138.96 174.347301 
L 140.76 176.031516 
L 142.56 177.412096 
L 144.36 178.468587 
L 145.8 179.069966 
L 147.24 179.448748 
L 148.68 179.602031 
L 150.12 179.529303 
L 151.56 179.232416 
L 153 178.715499 
L 154.44 177.984831 
L 156.24 176.78367 
L 158.04 175.281565 
L 159.84 173.502193 
L 162 171.038598 
L 164.52 167.775287 
L 167.4 163.635652 
L 171 158.031906 
L 185.4 135.099529 
L 188.64 130.571743 
L 191.52 126.897261 
L 194.4 123.59284 
L 196.92 121.028758 
L 199.44 118.786597 
L 201.6 117.130235 
L 203.76 115.725305 
L 205.92 114.576509 
L 208.08 113.687495 
L 210.24 113.061033 
L 212.4 112.699144 
L 214.56 112.603198 
L 216.36 112.726965 
L 218.52 113.120155 
L 220.68 113.779931 
L 222.84 114.70531 
L 225 115.894545 
L 227.16 117.344974 
L 229.32 119.052829 
L 231.84 121.363767 
L 234.36 124.007047 
L 236.88 126.967851 
L 239.76 130.715148 
L 243 135.347718 
L 246.6 140.926224 
L 251.28 148.639801 
L 259.56 162.357484 
L 262.8 167.230877 
L 265.32 170.632693 
L 267.48 173.201254 
L 269.28 175.055917 
L 271.08 176.621438 
L 272.88 177.874561 
L 274.32 178.639552 
L 275.76 179.185684 
L 277.2 179.50827 
L 278.64 179.605005 
L 280.08 179.475973 
L 281.52 179.123605 
L 282.96 178.55258 
L 284.4 177.769693 
L 286.2 176.506615 
L 288 174.947058 
L 289.8 173.115346 
L 291.96 170.596383 
L 294.48 167.279435 
L 297.36 163.093415 
L 300.96 157.453758 
L 314.28 136.15593 
L 317.52 131.543882 
L 320.4 127.782535 
L 323.28 124.382482 
L 325.8 121.729114 
L 328.32 119.3936 
L 330.84 117.388979 
L 333 115.941786 
L 335.16 114.750021 
L 337.32 113.817496 
L 339.48 113.147116 
L 341.64 112.74102 
L 343.8 112.600681 
L 345.24 112.655216 
L 345.24 112.655216 
" clip-path="url(#pad889de7a3)" style="fill: none; stroke-dasharray: 7.4,3.2; stroke-dashoffset: 0; stroke: #4c72b0; stroke-opacity: 0.75; stroke-width: 2"/>
   </g>
   <g id="line2d_36">
    <path d="M 86.4 204.632959 
L 88.56 202.295339 
L 90.72 200.267759 
L 92.88 198.553177 
L 95.04 197.153442 
L 96.84 196.227773 
L 98.64 195.520364 
L 100.44 195.029595 
L 102.24 194.752537 
L 104.04 194.68501 
L 105.84 194.821456 
L 107.64 195.154641 
L 109.8 195.801131 
L 111.96 196.698136 
L 114.12 197.82163 
L 116.64 199.379552 
L 119.52 201.417701 
L 123.84 204.777198 
L 129.24 208.926496 
L 132.12 210.83077 
L 134.28 212.005949 
L 136.08 212.773595 
L 137.88 213.316274 
L 139.68 213.606695 
L 141.12 213.641671 
L 142.56 213.490389 
L 144 213.144979 
L 145.44 212.599643 
L 146.88 211.850901 
L 148.68 210.62713 
L 150.48 209.085815 
L 152.28 207.234447 
L 154.08 205.085427 
L 156.24 202.137592 
L 158.4 198.821948 
L 160.92 194.546652 
L 163.8 189.218331 
L 167.4 182.075573 
L 174.24 167.854988 
L 178.92 158.375451 
L 181.08 154.455781 
L 182.16 152.827478 
L 182.88 151.991014 
L 183.6 151.483512 
L 183.96 151.408868 
L 184.32 151.502443 
L 185.04 152.15491 
L 186.84 154.298936 
L 189 157.245529 
L 191.16 160.622786 
L 193.32 164.480077 
L 195.48 168.869541 
L 197.64 173.844703 
L 199.8 179.454805 
L 201.96 185.723186 
L 204.48 193.775 
L 208.08 205.386073 
L 209.16 208.18507 
L 209.88 209.590478 
L 210.6 210.441429 
L 210.96 210.591361 
L 211.32 210.499933 
L 212.04 209.683383 
L 215.28 205.480354 
L 217.44 203.040281 
L 219.6 200.90897 
L 221.76 199.089805 
L 223.92 197.584972 
L 225.72 196.571784 
L 227.52 195.777245 
L 229.32 195.200047 
L 231.12 194.83793 
L 232.92 194.687215 
L 234.72 194.742812 
L 236.52 194.998285 
L 238.68 195.556763 
L 240.84 196.372669 
L 243 197.423632 
L 245.52 198.910085 
L 248.4 200.88715 
L 252.36 203.920259 
L 258.84 208.926496 
L 261.72 210.83077 
L 263.88 212.005949 
L 265.68 212.773595 
L 267.48 213.316274 
L 269.28 213.606695 
L 270.72 213.641671 
L 272.16 213.490389 
L 273.6 213.144979 
L 275.04 212.599643 
L 276.48 211.850901 
L 278.28 210.62713 
L 280.08 209.085815 
L 281.88 207.234447 
L 283.68 205.085427 
L 285.84 202.137592 
L 288 198.821948 
L 290.52 194.546652 
L 293.4 189.218331 
L 297 182.075573 
L 303.84 167.854988 
L 308.52 158.375451 
L 310.68 154.455781 
L 311.76 152.827478 
L 312.48 151.991014 
L 313.2 151.483512 
L 313.56 151.408868 
L 313.92 151.502443 
L 314.64 152.15491 
L 316.44 154.298936 
L 318.6 157.245529 
L 320.76 160.622786 
L 322.92 164.480077 
L 325.08 168.869541 
L 327.24 173.844703 
L 329.4 179.454805 
L 331.56 185.723186 
L 334.08 193.775 
L 337.68 205.386073 
L 338.76 208.18507 
L 339.48 209.590478 
L 340.2 210.441429 
L 340.56 210.591361 
L 340.92 210.499933 
L 341.64 209.683383 
L 344.88 205.480354 
L 345.24 205.052416 
L 345.24 205.052416 
" clip-path="url(#pad889de7a3)" style="fill: none; stroke: #4c72b0; stroke-width: 2; stroke-linecap: round"/>
   </g>
   <g id="line2d_37">
    <path d="M 86.4 87.463431 
L 88.56 87.761626 
L 90.72 88.298596 
L 92.88 89.073413 
L 95.04 90.084465 
L 97.2 91.329335 
L 99.36 92.804642 
L 101.88 94.810931 
L 104.4 97.114918 
L 106.92 99.703647 
L 109.8 102.988912 
L 113.04 107.061185 
L 116.64 111.979157 
L 121.32 118.806169 
L 130.32 132.070096 
L 133.56 136.390206 
L 136.08 139.403856 
L 138.24 141.678428 
L 140.4 143.618434 
L 142.2 144.949415 
L 144 145.998983 
L 145.8 146.751204 
L 147.24 147.131193 
L 148.68 147.310203 
L 150.12 147.286964 
L 151.56 147.062351 
L 153 146.639341 
L 154.44 146.02292 
L 156.24 144.991037 
L 158.04 143.684926 
L 159.84 142.12528 
L 162 139.952423 
L 164.52 137.059033 
L 167.4 133.372754 
L 171 128.364608 
L 178.2 117.821749 
L 183.24 110.660132 
L 186.84 105.907113 
L 190.08 101.986682 
L 192.96 98.834665 
L 195.84 96.028395 
L 198.36 93.875407 
L 200.88 92.017713 
L 203.4 90.464759 
L 205.56 89.381684 
L 207.72 88.531202 
L 209.88 87.915886 
L 212.04 87.5376 
L 214.2 87.397587 
L 216.36 87.496527 
L 218.52 87.834557 
L 220.68 88.41125 
L 222.84 89.225571 
L 225 90.275785 
L 227.16 91.559325 
L 229.32 93.072629 
L 231.84 95.122109 
L 234.36 97.467651 
L 236.88 100.095778 
L 239.76 103.422606 
L 243 107.535841 
L 246.6 112.489814 
L 251.28 119.343612 
L 259.92 132.070096 
L 263.16 136.390206 
L 265.68 139.403856 
L 267.84 141.678428 
L 270 143.618434 
L 271.8 144.949415 
L 273.6 145.998983 
L 275.4 146.751204 
L 276.84 147.131193 
L 278.28 147.310203 
L 279.72 147.286964 
L 281.16 147.062351 
L 282.6 146.639341 
L 284.04 146.02292 
L 285.84 144.991037 
L 287.64 143.684926 
L 289.44 142.12528 
L 291.6 139.952423 
L 294.12 137.059033 
L 297 133.372754 
L 300.6 128.364608 
L 307.8 117.821749 
L 312.84 110.660132 
L 316.44 105.907113 
L 319.68 101.986682 
L 322.56 98.834665 
L 325.44 96.028395 
L 327.96 93.875407 
L 330.48 92.017713 
L 333 90.464759 
L 335.16 89.381684 
L 337.32 88.531202 
L 339.48 87.915886 
L 341.64 87.5376 
L 343.8 87.397587 
L 345.24 87.436977 
L 345.24 87.436977 
" clip-path="url(#pad889de7a3)" style="fill: none; stroke-dasharray: 7.4,3.2; stroke-dashoffset: 0; stroke: #55a868; stroke-opacity: 0.75; stroke-width: 2"/>
   </g>
   <g id="line2d_38">
    <path d="M 86.4 169.940422 
L 88.56 167.796912 
L 90.72 165.933138 
L 92.88 164.35109 
L 95.04 163.05189 
L 97.2 162.035377 
L 99.36 161.300116 
L 101.16 160.899878 
L 102.96 160.689596 
L 105.12 160.681854 
L 107.28 160.931737 
L 109.44 161.426261 
L 111.6 162.149098 
L 114.12 163.254039 
L 116.64 164.603322 
L 119.88 166.620518 
L 124.56 169.859049 
L 129.6 173.308849 
L 132.48 175.022843 
L 134.64 176.089515 
L 136.8 176.911578 
L 138.6 177.375165 
L 140.4 177.61083 
L 142.2 177.597205 
L 144 177.316936 
L 145.8 176.757063 
L 147.6 175.909695 
L 149.4 174.771958 
L 151.2 173.346 
L 153 171.63911 
L 155.16 169.237082 
L 157.32 166.476299 
L 159.84 162.850348 
L 162.72 158.254732 
L 165.96 152.641633 
L 170.64 144.02809 
L 179.28 128.051642 
L 181.44 124.491952 
L 182.52 123.021915 
L 183.24 122.300649 
L 183.96 121.952274 
L 184.32 122.001068 
L 185.04 122.555934 
L 186.84 124.430169 
L 189 127.005088 
L 191.16 129.951142 
L 193.32 133.308647 
L 195.48 137.119596 
L 197.64 141.427533 
L 199.8 146.277025 
L 201.96 151.706728 
L 204.12 157.722675 
L 209.52 173.284312 
L 210.24 174.601693 
L 210.6 175.04084 
L 210.96 175.283421 
L 211.32 175.270511 
L 212.04 174.558564 
L 215.28 170.716575 
L 217.8 168.134824 
L 219.96 166.224231 
L 222.12 164.595164 
L 224.28 163.248757 
L 226.44 162.185203 
L 228.6 161.403243 
L 230.76 160.899878 
L 232.56 160.689596 
L 234.72 160.681854 
L 236.88 160.931737 
L 239.04 161.426261 
L 241.2 162.149098 
L 243.72 163.254039 
L 246.24 164.603322 
L 249.48 166.620518 
L 254.16 169.859049 
L 259.2 173.308849 
L 262.08 175.022843 
L 264.24 176.089515 
L 266.4 176.911578 
L 268.2 177.375165 
L 270 177.61083 
L 271.8 177.597205 
L 273.6 177.316936 
L 275.4 176.757063 
L 277.2 175.909695 
L 279 174.771958 
L 280.8 173.346 
L 282.6 171.63911 
L 284.76 169.237082 
L 286.92 166.476299 
L 289.44 162.850348 
L 292.32 158.254732 
L 295.56 152.641633 
L 300.24 144.02809 
L 308.88 128.051642 
L 311.04 124.491952 
L 312.12 123.021915 
L 312.84 122.300649 
L 313.56 121.952274 
L 313.92 122.001068 
L 314.64 122.555934 
L 316.44 124.430169 
L 318.6 127.005088 
L 320.76 129.951142 
L 322.92 133.308647 
L 325.08 137.119596 
L 327.24 141.427533 
L 329.4 146.277025 
L 331.56 151.706728 
L 333.72 157.722675 
L 339.12 173.284312 
L 339.84 174.601693 
L 340.2 175.04084 
L 340.56 175.283421 
L 340.92 175.270511 
L 341.64 174.558564 
L 344.88 170.716575 
L 345.24 170.324659 
L 345.24 170.324659 
" clip-path="url(#pad889de7a3)" style="fill: none; stroke: #55a868; stroke-width: 2; stroke-linecap: round"/>
   </g>
   <g id="patch_3">
    <path d="M 86.4 345.6 
L 86.4 86.4 
" style="fill: none; stroke: #262626; stroke-width: 1.25; stroke-linejoin: miter; stroke-linecap: square"/>
   </g>
   <g id="patch_4">
    <path d="M 86.4 345.6 
L 345.6 345.6 
" style="fill: none; stroke: #262626; stroke-width: 1.25; stroke-linejoin: miter; stroke-linecap: square"/>
   </g>
   <g id="legend_1">
    <g id="patch_5">
     <path d="M 239.06 338.6 
L 335.8 338.6 
Q 338.6 338.6 338.6 335.8 
L 338.6 271.26 
Q 338.6 268.46 335.8 268.46 
L 239.06 268.46 
Q 236.26 268.46 236.26 271.26 
L 236.26 335.8 
Q 236.26 338.6 239.06 338.6 
z
" style="fill: #ffffff; opacity: 0.8; stroke: #cccccc; stroke-linejoin: miter"/>
    </g>
    <g id="line2d_39">
     <path d="M 241.86 281.3575 
L 255.86 281.3575 
L 269.86 281.3575 
" style="fill: none; stroke: #dd8452; stroke-width: 2; stroke-linecap: round"/>
    </g>
    <g id="text_19">
     <!-- $\it{\widebar{R}_0}$ = 2 -->
     <g style="fill: #262626" transform="translate(281.06 286.2575)">
      <text>
       <tspan style="font: 9.727539px 'STIXSizeOneSym'" x="11.150635" y="-5.03125">̅</tspan>
       <tspan style="font: oblique 14px 'DejaVu Sans'" x="0" y="-0.5625">R</tspan>
       <tspan style="font: 9.8px 'DejaVu Sans'" x="9.861523" y="1.734375">0</tspan>
       <tspan style="font: 14px 'Arial'" x="16.479395 20.369043 28.544824 32.434473" y="-0.5625"> = 2</tspan>
      </text>
     </g>
    </g>
    <g id="line2d_40">
     <path d="M 241.86 303.3375 
L 255.86 303.3375 
L 269.86 303.3375 
" style="fill: none; stroke: #4c72b0; stroke-width: 2; stroke-linecap: round"/>
    </g>
    <g id="text_20">
     <!-- $\it{\widebar{R}_0}$ = 2.5 -->
     <g style="fill: #262626" transform="translate(281.06 308.2375)">
      <text>
       <tspan style="font: 9.727539px 'STIXSizeOneSym'" x="11.150635" y="-5.03125">̅</tspan>
       <tspan style="font: oblique 14px 'DejaVu Sans'" x="0" y="-0.5625">R</tspan>
       <tspan style="font: 9.8px 'DejaVu Sans'" x="9.861523" y="1.734375">0</tspan>
       <tspan style="font: 14px 'Arial'" x="16.479395 20.369043 28.544824 32.434473 40.220605 44.110254" y="-0.5625"> = 2.5</tspan>
      </text>
     </g>
    </g>
    <g id="line2d_41">
     <path d="M 241.86 325.3175 
L 255.86 325.3175 
L 269.86 325.3175 
" style="fill: none; stroke: #55a868; stroke-width: 2; stroke-linecap: round"/>
    </g>
    <g id="text_21">
     <!-- $\it{\widebar{R}_0}$ = 3 -->
     <g style="fill: #262626" transform="translate(281.06 330.2175)">
      <text>
       <tspan style="font: 9.727539px 'STIXSizeOneSym'" x="11.150635" y="-5.03125">̅</tspan>
       <tspan style="font: oblique 14px 'DejaVu Sans'" x="0" y="-0.5625">R</tspan>
       <tspan style="font: 9.8px 'DejaVu Sans'" x="9.861523" y="1.734375">0</tspan>
       <tspan style="font: 14px 'Arial'" x="16.479395 20.369043 28.544824 32.434473" y="-0.5625"> = 3</tspan>
      </text>
     </g>
    </g>
   </g>
  </g>
 </g>
 <defs>
  <clipPath id="pad889de7a3">
   <rect x="86.4" y="86.4" width="259.2" height="259.2"/>
  </clipPath>
 </defs>
</svg>
