<?xml version="1.0" encoding="utf-8" standalone="no"?>
<!DOCTYPE svg PUBLIC "-//W3C//DTD SVG 1.1//EN"
  "http://www.w3.org/Graphics/SVG/1.1/DTD/svg11.dtd">
<svg xmlns:xlink="http://www.w3.org/1999/xlink" width="432pt" height="432pt" viewBox="0 0 432 432" xmlns="http://www.w3.org/2000/svg" version="1.1">
 <metadata>
  <rdf:RDF xmlns:dc="http://purl.org/dc/elements/1.1/" xmlns:cc="http://creativecommons.org/ns#" xmlns:rdf="http://www.w3.org/1999/02/22-rdf-syntax-ns#">
   <cc:Work>
    <dc:type rdf:resource="http://purl.org/dc/dcmitype/StillImage"/>
    <dc:date>2024-06-19T19:25:57.912147</dc:date>
    <dc:format>image/svg+xml</dc:format>
    <dc:creator>
     <cc:Agent>
      <dc:title>Matplotlib v3.8.4, https://matplotlib.org/</dc:title>
     </cc:Agent>
    </dc:creator>
   </cc:Work>
  </rdf:RDF>
 </metadata>
 <defs>
  <style type="text/css">*{stroke-linejoin: round; stroke-linecap: butt}</style>
 </defs>
 <g id="figure_1">
  <g id="patch_1">
   <path d="M 0 432 
L 432 432 
L 432 0 
L 0 0 
L 0 432 
z
" style="fill: none"/>
  </g>
  <g id="axes_1">
   <g id="patch_2">
    <path d="M 86.4 345.6 
L 345.6 345.6 
L 345.6 86.4 
L 86.4 86.4 
L 86.4 345.6 
z
" style="fill: none"/>
   </g>
   <g id="matplotlib.axis_1">
    <g id="xtick_1">
     <g id="line2d_1">
      <defs>
       <path id="mbe6d036949" d="M 0 0 
L 0 6 
" style="stroke: #262626; stroke-width: 1.25"/>
      </defs>
      <g>
       <use xlink:href="#mbe6d036949" x="86.4" y="345.6" style="fill: #262626; stroke: #262626; stroke-width: 1.25"/>
      </g>
     </g>
     <g id="text_1">
      <text style="fill: #262626; font: 16px 'Arial', 'DejaVu Sans', 'Liberation Sans', 'Bitstream Vera Sans', sans-serif; text-anchor: middle" x="86.4" y="366.5525" transform="rotate(-0 86.4 366.5525)">Jan</text>
     </g>
    </g>
    <g id="xtick_2">
     <g id="line2d_2">
      <g>
       <use xlink:href="#mbe6d036949" x="97.2" y="345.6" style="fill: #262626; stroke: #262626; stroke-width: 1.25"/>
      </g>
     </g>
    </g>
    <g id="xtick_3">
     <g id="line2d_3">
      <g>
       <use xlink:href="#mbe6d036949" x="108" y="345.6" style="fill: #262626; stroke: #262626; stroke-width: 1.25"/>
      </g>
     </g>
    </g>
    <g id="xtick_4">
     <g id="line2d_4">
      <g>
       <use xlink:href="#mbe6d036949" x="118.8" y="345.6" style="fill: #262626; stroke: #262626; stroke-width: 1.25"/>
      </g>
     </g>
     <g id="text_2">
      <text style="fill: #262626; font: 16px 'Arial', 'DejaVu Sans', 'Liberation Sans', 'Bitstream Vera Sans', sans-serif; text-anchor: middle" x="118.8" y="366.5525" transform="rotate(-0 118.8 366.5525)">Apr</text>
     </g>
    </g>
    <g id="xtick_5">
     <g id="line2d_5">
      <g>
       <use xlink:href="#mbe6d036949" x="129.6" y="345.6" style="fill: #262626; stroke: #262626; stroke-width: 1.25"/>
      </g>
     </g>
    </g>
    <g id="xtick_6">
     <g id="line2d_6">
      <g>
       <use xlink:href="#mbe6d036949" x="140.4" y="345.6" style="fill: #262626; stroke: #262626; stroke-width: 1.25"/>
      </g>
     </g>
    </g>
    <g id="xtick_7">
     <g id="line2d_7">
      <g>
       <use xlink:href="#mbe6d036949" x="151.2" y="345.6" style="fill: #262626; stroke: #262626; stroke-width: 1.25"/>
      </g>
     </g>
     <g id="text_3">
      <text style="fill: #262626; font: 16px 'Arial', 'DejaVu Sans', 'Liberation Sans', 'Bitstream Vera Sans', sans-serif; text-anchor: middle" x="151.2" y="366.5525" transform="rotate(-0 151.2 366.5525)">Jul</text>
     </g>
    </g>
    <g id="xtick_8">
     <g id="line2d_8">
      <g>
       <use xlink:href="#mbe6d036949" x="162" y="345.6" style="fill: #262626; stroke: #262626; stroke-width: 1.25"/>
      </g>
     </g>
    </g>
    <g id="xtick_9">
     <g id="line2d_9">
      <g>
       <use xlink:href="#mbe6d036949" x="172.8" y="345.6" style="fill: #262626; stroke: #262626; stroke-width: 1.25"/>
      </g>
     </g>
    </g>
    <g id="xtick_10">
     <g id="line2d_10">
      <g>
       <use xlink:href="#mbe6d036949" x="183.6" y="345.6" style="fill: #262626; stroke: #262626; stroke-width: 1.25"/>
      </g>
     </g>
     <g id="text_4">
      <text style="fill: #262626; font: 16px 'Arial', 'DejaVu Sans', 'Liberation Sans', 'Bitstream Vera Sans', sans-serif; text-anchor: middle" x="183.6" y="366.5525" transform="rotate(-0 183.6 366.5525)">Oct</text>
     </g>
    </g>
    <g id="xtick_11">
     <g id="line2d_11">
      <g>
       <use xlink:href="#mbe6d036949" x="194.4" y="345.6" style="fill: #262626; stroke: #262626; stroke-width: 1.25"/>
      </g>
     </g>
    </g>
    <g id="xtick_12">
     <g id="line2d_12">
      <g>
       <use xlink:href="#mbe6d036949" x="205.2" y="345.6" style="fill: #262626; stroke: #262626; stroke-width: 1.25"/>
      </g>
     </g>
    </g>
    <g id="xtick_13">
     <g id="line2d_13">
      <g>
       <use xlink:href="#mbe6d036949" x="216" y="345.6" style="fill: #262626; stroke: #262626; stroke-width: 1.25"/>
      </g>
     </g>
     <g id="text_5">
      <text style="fill: #262626; font: 16px 'Arial', 'DejaVu Sans', 'Liberation Sans', 'Bitstream Vera Sans', sans-serif; text-anchor: middle" x="216" y="366.5525" transform="rotate(-0 216 366.5525)">Jan</text>
     </g>
    </g>
    <g id="xtick_14">
     <g id="line2d_14">
      <g>
       <use xlink:href="#mbe6d036949" x="226.8" y="345.6" style="fill: #262626; stroke: #262626; stroke-width: 1.25"/>
      </g>
     </g>
    </g>
    <g id="xtick_15">
     <g id="line2d_15">
      <g>
       <use xlink:href="#mbe6d036949" x="237.6" y="345.6" style="fill: #262626; stroke: #262626; stroke-width: 1.25"/>
      </g>
     </g>
    </g>
    <g id="xtick_16">
     <g id="line2d_16">
      <g>
       <use xlink:href="#mbe6d036949" x="248.4" y="345.6" style="fill: #262626; stroke: #262626; stroke-width: 1.25"/>
      </g>
     </g>
     <g id="text_6">
      <text style="fill: #262626; font: 16px 'Arial', 'DejaVu Sans', 'Liberation Sans', 'Bitstream Vera Sans', sans-serif; text-anchor: middle" x="248.4" y="366.5525" transform="rotate(-0 248.4 366.5525)">Apr</text>
     </g>
    </g>
    <g id="xtick_17">
     <g id="line2d_17">
      <g>
       <use xlink:href="#mbe6d036949" x="259.2" y="345.6" style="fill: #262626; stroke: #262626; stroke-width: 1.25"/>
      </g>
     </g>
    </g>
    <g id="xtick_18">
     <g id="line2d_18">
      <g>
       <use xlink:href="#mbe6d036949" x="270" y="345.6" style="fill: #262626; stroke: #262626; stroke-width: 1.25"/>
      </g>
     </g>
    </g>
    <g id="xtick_19">
     <g id="line2d_19">
      <g>
       <use xlink:href="#mbe6d036949" x="280.8" y="345.6" style="fill: #262626; stroke: #262626; stroke-width: 1.25"/>
      </g>
     </g>
     <g id="text_7">
      <text style="fill: #262626; font: 16px 'Arial', 'DejaVu Sans', 'Liberation Sans', 'Bitstream Vera Sans', sans-serif; text-anchor: middle" x="280.8" y="366.5525" transform="rotate(-0 280.8 366.5525)">Jul</text>
     </g>
    </g>
    <g id="xtick_20">
     <g id="line2d_20">
      <g>
       <use xlink:href="#mbe6d036949" x="291.6" y="345.6" style="fill: #262626; stroke: #262626; stroke-width: 1.25"/>
      </g>
     </g>
    </g>
    <g id="xtick_21">
     <g id="line2d_21">
      <g>
       <use xlink:href="#mbe6d036949" x="302.4" y="345.6" style="fill: #262626; stroke: #262626; stroke-width: 1.25"/>
      </g>
     </g>
    </g>
    <g id="xtick_22">
     <g id="line2d_22">
      <g>
       <use xlink:href="#mbe6d036949" x="313.2" y="345.6" style="fill: #262626; stroke: #262626; stroke-width: 1.25"/>
      </g>
     </g>
     <g id="text_8">
      <text style="fill: #262626; font: 16px 'Arial', 'DejaVu Sans', 'Liberation Sans', 'Bitstream Vera Sans', sans-serif; text-anchor: middle" x="313.2" y="366.5525" transform="rotate(-0 313.2 366.5525)">Oct</text>
     </g>
    </g>
    <g id="xtick_23">
     <g id="line2d_23">
      <g>
       <use xlink:href="#mbe6d036949" x="324" y="345.6" style="fill: #262626; stroke: #262626; stroke-width: 1.25"/>
      </g>
     </g>
    </g>
    <g id="xtick_24">
     <g id="line2d_24">
      <g>
       <use xlink:href="#mbe6d036949" x="334.8" y="345.6" style="fill: #262626; stroke: #262626; stroke-width: 1.25"/>
      </g>
     </g>
    </g>
    <g id="xtick_25">
     <g id="line2d_25">
      <g>
       <use xlink:href="#mbe6d036949" x="345.6" y="345.6" style="fill: #262626; stroke: #262626; stroke-width: 1.25"/>
      </g>
     </g>
     <g id="text_9">
      <text style="fill: #262626; font: 16px 'Arial', 'DejaVu Sans', 'Liberation Sans', 'Bitstream Vera Sans', sans-serif; text-anchor: middle" x="345.6" y="366.5525" transform="rotate(-0 345.6 366.5525)">Jan</text>
     </g>
    </g>
    <g id="text_10">
     <text style="fill: #262626; font: 16px 'Arial', 'DejaVu Sans', 'Liberation Sans', 'Bitstream Vera Sans', sans-serif; text-anchor: middle" x="216" y="385.185" transform="rotate(-0 216 385.185)"> </text>
    </g>
   </g>
   <g id="matplotlib.axis_2">
    <g id="ytick_1">
     <g id="line2d_26">
      <defs>
       <path id="m2c64abfee9" d="M 0 0 
L -6 0 
" style="stroke: #262626; stroke-width: 1.25"/>
      </defs>
      <g>
       <use xlink:href="#m2c64abfee9" x="86.4" y="345.6" style="fill: #262626; stroke: #262626; stroke-width: 1.25"/>
      </g>
     </g>
     <g id="text_11">
      <text style="fill: #262626; font: 16px 'Arial', 'DejaVu Sans', 'Liberation Sans', 'Bitstream Vera Sans', sans-serif; text-anchor: end" x="76.9" y="351.32625" transform="rotate(-0 76.9 351.32625)">0.0</text>
     </g>
    </g>
    <g id="ytick_2">
     <g id="line2d_27">
      <g>
       <use xlink:href="#m2c64abfee9" x="86.4" y="293.76" style="fill: #262626; stroke: #262626; stroke-width: 1.25"/>
      </g>
     </g>
     <g id="text_12">
      <text style="fill: #262626; font: 16px 'Arial', 'DejaVu Sans', 'Liberation Sans', 'Bitstream Vera Sans', sans-serif; text-anchor: end" x="76.9" y="299.48625" transform="rotate(-0 76.9 299.48625)">0.1</text>
     </g>
    </g>
    <g id="ytick_3">
     <g id="line2d_28">
      <g>
       <use xlink:href="#m2c64abfee9" x="86.4" y="241.92" style="fill: #262626; stroke: #262626; stroke-width: 1.25"/>
      </g>
     </g>
     <g id="text_13">
      <text style="fill: #262626; font: 16px 'Arial', 'DejaVu Sans', 'Liberation Sans', 'Bitstream Vera Sans', sans-serif; text-anchor: end" x="76.9" y="247.64625" transform="rotate(-0 76.9 247.64625)">0.2</text>
     </g>
    </g>
    <g id="ytick_4">
     <g id="line2d_29">
      <g>
       <use xlink:href="#m2c64abfee9" x="86.4" y="190.08" style="fill: #262626; stroke: #262626; stroke-width: 1.25"/>
      </g>
     </g>
     <g id="text_14">
      <text style="fill: #262626; font: 16px 'Arial', 'DejaVu Sans', 'Liberation Sans', 'Bitstream Vera Sans', sans-serif; text-anchor: end" x="76.9" y="195.80625" transform="rotate(-0 76.9 195.80625)">0.3</text>
     </g>
    </g>
    <g id="ytick_5">
     <g id="line2d_30">
      <g>
       <use xlink:href="#m2c64abfee9" x="86.4" y="138.24" style="fill: #262626; stroke: #262626; stroke-width: 1.25"/>
      </g>
     </g>
     <g id="text_15">
      <text style="fill: #262626; font: 16px 'Arial', 'DejaVu Sans', 'Liberation Sans', 'Bitstream Vera Sans', sans-serif; text-anchor: end" x="76.9" y="143.96625" transform="rotate(-0 76.9 143.96625)">0.4</text>
     </g>
    </g>
    <g id="ytick_6">
     <g id="line2d_31">
      <g>
       <use xlink:href="#m2c64abfee9" x="86.4" y="86.4" style="fill: #262626; stroke: #262626; stroke-width: 1.25"/>
      </g>
     </g>
     <g id="text_16">
      <text style="fill: #262626; font: 16px 'Arial', 'DejaVu Sans', 'Liberation Sans', 'Bitstream Vera Sans', sans-serif; text-anchor: end" x="76.9" y="92.12625" transform="rotate(-0 76.9 92.12625)">0.5</text>
     </g>
    </g>
    <g id="text_17">
     <text style="fill: #262626; font: 16px 'Arial', 'DejaVu Sans', 'Liberation Sans', 'Bitstream Vera Sans', sans-serif; text-anchor: middle" x="47.48" y="216" transform="rotate(-90 47.48 216)">Outbreak risk</text>
    </g>
   </g>
   <g id="PolyCollection_1">
    <defs>
     <path id="maa12119831" d="M 210.6 -86.4 
L 183.6 -86.4 
L 183.6 -345.6 
L 210.6 -345.6 
L 210.6 -345.6 
L 210.6 -86.4 
z
"/>
    </defs>
    <g clip-path="url(#pf5b44a7191)">
     <use xlink:href="#maa12119831" x="0" y="432" style="fill: #808080; fill-opacity: 0.5"/>
    </g>
   </g>
   <g id="PolyCollection_2">
    <defs>
     <path id="m039ad8a6f0" d="M 340.2 -86.4 
L 313.2 -86.4 
L 313.2 -345.6 
L 340.2 -345.6 
L 340.2 -345.6 
L 340.2 -86.4 
z
"/>
    </defs>
    <g clip-path="url(#pf5b44a7191)">
     <use xlink:href="#m039ad8a6f0" x="0" y="432" style="fill: #808080; fill-opacity: 0.5"/>
    </g>
   </g>
   <g id="line2d_32">
    <path d="M 86.4 147.644318 
L 88.2 147.984988 
L 90 148.538907 
L 91.8 149.305855 
L 93.6 150.285235 
L 95.76 151.739421 
L 97.92 153.495248 
L 100.08 155.548657 
L 102.24 157.893981 
L 104.76 160.988791 
L 107.28 164.45398 
L 110.16 168.839067 
L 113.04 173.634503 
L 116.28 179.445619 
L 120.6 187.687731 
L 129.6 205.065341 
L 132.48 210.108214 
L 135 214.084926 
L 137.16 217.082425 
L 138.96 219.242731 
L 140.76 221.06299 
L 142.2 222.25717 
L 143.64 223.207314 
L 145.08 223.905984 
L 146.52 224.348472 
L 147.96 224.532779 
L 149.4 224.459543 
L 150.84 224.131921 
L 152.28 223.555424 
L 153.72 222.737743 
L 155.16 221.688537 
L 156.96 220.068994 
L 158.76 218.131259 
L 160.92 215.426499 
L 163.08 212.358831 
L 165.6 208.397457 
L 168.84 202.842548 
L 173.16 194.942864 
L 182.16 178.377916 
L 185.76 172.250781 
L 189 167.166624 
L 191.88 163.055042 
L 194.4 159.807343 
L 196.92 156.909913 
L 199.44 154.380531 
L 201.6 152.516082 
L 203.76 150.93925 
L 205.92 149.655547 
L 208.08 148.66932 
L 209.88 148.077162 
L 211.68 147.695457 
L 213.48 147.525369 
L 215.28 147.567746 
L 217.08 147.823129 
L 218.88 148.291756 
L 220.68 148.973542 
L 222.48 149.868046 
L 224.64 151.221016 
L 226.8 152.876677 
L 228.96 154.831436 
L 231.12 157.080198 
L 233.64 160.065952 
L 236.16 163.427302 
L 238.68 167.1439 
L 241.56 171.791522 
L 244.8 177.465463 
L 248.76 184.894703 
L 260.64 207.643431 
L 263.16 211.86956 
L 265.32 215.129893 
L 267.48 217.985495 
L 269.28 220.013188 
L 271.08 221.690014 
L 272.52 222.763275 
L 273.96 223.588441 
L 275.4 224.159438 
L 276.84 224.472919 
L 278.28 224.528214 
L 279.72 224.327239 
L 281.16 223.87435 
L 282.6 223.176172 
L 284.04 222.241405 
L 285.84 220.756504 
L 287.64 218.942762 
L 289.44 216.827705 
L 291.6 213.934516 
L 294.12 210.140208 
L 297 205.364642 
L 300.6 198.939737 
L 314.28 174.041203 
L 317.52 168.810534 
L 320.4 164.548771 
L 323.28 160.700401 
L 325.8 157.700893 
L 328.32 155.064778 
L 330.48 153.105918 
L 332.64 151.432537 
L 334.8 150.050588 
L 336.96 148.964783 
L 338.76 148.288847 
L 340.56 147.822802 
L 342.36 147.567949 
L 344.16 147.525258 
L 345.24 147.60177 
L 345.24 147.60177 
" clip-path="url(#pf5b44a7191)" style="fill: none; stroke-dasharray: 7.4,3.2; stroke-dashoffset: 0; stroke: #de8f05; stroke-opacity: 0.75; stroke-width: 2"/>
   </g>
   <g id="line2d_33">
    <path d="M 86.4 252.470586 
L 88.56 250.037879 
L 90.72 247.94831 
L 92.88 246.208271 
L 94.68 245.028596 
L 96.48 244.096391 
L 98.28 243.412098 
L 100.08 242.974908 
L 101.88 242.782504 
L 103.68 242.830779 
L 105.48 243.113811 
L 107.28 243.623582 
L 109.08 244.34941 
L 111.24 245.486465 
L 113.4 246.886168 
L 115.92 248.802531 
L 118.8 251.278878 
L 124.56 256.630962 
L 128.16 259.796001 
L 130.68 261.715868 
L 132.84 263.073784 
L 134.64 263.95564 
L 136.44 264.577272 
L 137.88 264.869282 
L 139.32 264.966348 
L 140.76 264.859226 
L 142.2 264.540648 
L 143.64 264.005389 
L 145.08 263.250119 
L 146.52 262.273557 
L 148.32 260.742671 
L 150.12 258.87204 
L 151.92 256.671012 
L 153.72 254.153095 
L 155.88 250.737984 
L 158.04 246.928492 
L 160.56 242.043853 
L 163.44 235.977095 
L 167.04 227.855508 
L 173.52 212.535141 
L 177.84 202.566021 
L 180 198.057074 
L 181.44 195.520234 
L 182.52 194.101048 
L 183.24 193.533214 
L 183.6 193.408011 
L 183.96 193.416739 
L 184.32 193.592152 
L 185.04 194.394602 
L 186.84 196.941273 
L 188.64 199.838192 
L 190.44 203.10813 
L 192.24 206.792208 
L 194.04 210.932987 
L 195.84 215.569976 
L 198 221.826317 
L 200.16 228.821439 
L 203.04 239.002243 
L 205.92 249.124336 
L 207.36 253.51423 
L 208.44 256.192188 
L 209.16 257.563073 
L 209.88 258.508319 
L 210.24 258.790876 
L 210.6 258.928204 
L 210.96 258.903361 
L 211.32 258.688078 
L 212.04 257.772304 
L 214.92 253.813076 
L 217.08 251.211793 
L 219.24 248.949781 
L 221.4 247.034267 
L 223.2 245.706795 
L 225 244.625972 
L 226.8 243.792937 
L 228.6 243.207674 
L 230.4 242.868781 
L 232.2 242.773214 
L 234 242.916223 
L 235.8 243.291068 
L 237.6 243.888664 
L 239.4 244.697313 
L 241.56 245.925492 
L 243.72 247.405094 
L 246.24 249.397117 
L 249.48 252.26217 
L 258.12 260.088733 
L 260.64 261.962614 
L 262.8 263.269545 
L 264.6 264.1017 
L 266.4 264.667958 
L 267.84 264.912216 
L 269.28 264.959028 
L 270.72 264.799641 
L 272.16 264.427309 
L 273.6 263.837276 
L 275.04 263.026735 
L 276.48 261.994863 
L 278.28 260.395494 
L 280.08 258.457891 
L 281.88 256.192278 
L 284.04 253.060975 
L 286.2 249.509953 
L 288.72 244.889189 
L 291.6 239.067908 
L 294.84 231.976945 
L 299.16 221.945194 
L 307.44 202.566021 
L 309.6 198.057074 
L 311.04 195.520234 
L 312.12 194.101048 
L 312.84 193.533214 
L 313.2 193.408011 
L 313.56 193.416739 
L 313.92 193.592152 
L 314.64 194.394602 
L 316.44 196.941273 
L 318.24 199.838192 
L 320.04 203.10813 
L 321.84 206.792208 
L 323.64 210.932987 
L 325.44 215.569976 
L 327.6 221.826317 
L 329.76 228.821439 
L 332.64 239.002243 
L 335.52 249.124336 
L 336.96 253.51423 
L 338.04 256.192188 
L 338.76 257.563073 
L 339.48 258.508319 
L 339.84 258.790876 
L 340.2 258.928204 
L 340.56 258.903361 
L 340.92 258.688078 
L 341.64 257.772304 
L 344.52 253.813076 
L 345.24 252.908835 
L 345.24 252.908835 
" clip-path="url(#pf5b44a7191)" style="fill: none; stroke: #de8f05; stroke-width: 2; stroke-linecap: round"/>
   </g>
   <g id="line2d_34">
    <path d="M 86.4 112.687383 
L 88.56 113.036094 
L 90.72 113.651488 
L 92.88 114.5327 
L 95.04 115.678117 
L 97.2 117.085242 
L 99.36 118.750508 
L 101.52 120.669041 
L 104.04 123.218696 
L 106.56 126.090547 
L 109.44 129.743762 
L 112.32 133.758296 
L 115.56 138.647564 
L 119.52 145.034032 
L 131.76 165.124237 
L 134.64 169.223499 
L 136.8 171.960888 
L 138.96 174.347301 
L 140.76 176.031516 
L 142.56 177.412096 
L 144.36 178.468587 
L 145.8 179.069966 
L 147.24 179.448748 
L 148.68 179.602031 
L 150.12 179.529303 
L 151.56 179.232416 
L 153 178.715499 
L 154.44 177.984831 
L 156.24 176.78367 
L 158.04 175.281565 
L 159.84 173.502193 
L 162 171.038598 
L 164.52 167.775287 
L 167.4 163.635652 
L 171 158.031906 
L 185.4 135.099529 
L 188.64 130.571743 
L 191.52 126.897261 
L 194.4 123.59284 
L 196.92 121.028758 
L 199.44 118.786597 
L 201.6 117.130235 
L 203.76 115.725305 
L 205.92 114.576509 
L 208.08 113.687495 
L 210.24 113.061033 
L 212.4 112.699144 
L 214.56 112.603198 
L 216.36 112.726965 
L 218.52 113.120155 
L 220.68 113.779931 
L 222.84 114.70531 
L 225 115.894545 
L 227.16 117.344974 
L 229.32 119.052829 
L 231.84 121.363767 
L 234.36 124.007047 
L 236.88 126.967851 
L 239.76 130.715148 
L 243 135.347718 
L 246.6 140.926224 
L 251.28 148.639801 
L 259.56 162.357484 
L 262.8 167.230877 
L 265.32 170.632693 
L 267.48 173.201254 
L 269.28 175.055917 
L 271.08 176.621438 
L 272.88 177.874561 
L 274.32 178.639552 
L 275.76 179.185684 
L 277.2 179.50827 
L 278.64 179.605005 
L 280.08 179.475973 
L 281.52 179.123605 
L 282.96 178.55258 
L 284.4 177.769693 
L 286.2 176.506615 
L 288 174.947058 
L 289.8 173.115346 
L 291.96 170.596383 
L 294.48 167.279435 
L 297.36 163.093415 
L 300.96 157.453758 
L 314.28 136.15593 
L 317.52 131.543882 
L 320.4 127.782535 
L 323.28 124.382482 
L 325.8 121.729114 
L 328.32 119.3936 
L 330.84 117.388979 
L 333 115.941786 
L 335.16 114.750021 
L 337.32 113.817496 
L 339.48 113.147116 
L 341.64 112.74102 
L 343.8 112.600681 
L 345.24 112.655216 
L 345.24 112.655216 
" clip-path="url(#pf5b44a7191)" style="fill: none; stroke-dasharray: 7.4,3.2; stroke-dashoffset: 0; stroke: #0173b2; stroke-opacity: 0.75; stroke-width: 2"/>
   </g>
   <g id="line2d_35">
    <path d="M 86.4 204.559895 
L 88.56 202.275868 
L 90.72 200.302108 
L 92.88 198.641194 
L 95.04 197.294634 
L 96.84 196.412687 
L 98.64 195.748339 
L 100.44 195.299908 
L 102.24 195.064438 
L 104.04 195.037767 
L 105.84 195.214394 
L 107.64 195.587184 
L 109.8 196.280634 
L 111.96 197.224147 
L 114.12 198.393902 
L 116.64 200.005691 
L 119.88 202.382568 
L 124.92 206.435645 
L 129.24 209.813349 
L 131.76 211.544358 
L 133.92 212.796766 
L 136.08 213.774386 
L 137.88 214.340454 
L 139.68 214.650925 
L 141.12 214.699384 
L 142.56 214.559237 
L 144 214.222557 
L 145.44 213.683531 
L 146.88 212.93866 
L 148.68 211.716343 
L 150.48 210.172794 
L 152.28 208.315618 
L 154.08 206.157363 
L 156.24 203.194187 
L 158.4 199.858886 
L 160.92 195.55573 
L 163.8 190.189948 
L 167.4 182.993533 
L 173.88 169.413703 
L 178.56 159.800891 
L 180.72 155.753741 
L 182.16 153.493724 
L 182.88 152.644761 
L 183.6 152.123589 
L 183.96 152.041232 
L 184.32 152.126091 
L 185.04 152.758648 
L 186.84 154.852414 
L 189 157.736602 
L 191.16 161.048774 
L 193.32 164.838105 
L 195.48 169.156466 
L 197.64 174.057081 
L 199.8 179.589037 
L 201.96 185.776013 
L 204.48 193.731426 
L 208.08 205.223698 
L 209.16 208.000717 
L 209.88 209.397993 
L 210.6 210.247719 
L 210.96 210.400211 
L 211.32 210.314004 
L 212.04 209.514101 
L 214.92 205.817106 
L 217.08 203.379279 
L 219.24 201.250045 
L 221.4 199.432421 
L 223.56 197.928594 
L 225.36 196.91566 
L 227.16 196.120932 
L 228.96 195.543205 
L 230.76 195.180349 
L 232.56 195.028996 
L 234.36 195.084388 
L 236.16 195.34042 
L 238.32 195.901357 
L 240.48 196.722491 
L 242.64 197.782415 
L 245.16 199.285389 
L 248.04 201.291202 
L 251.64 204.093523 
L 259.2 210.075082 
L 261.72 211.769772 
L 263.88 212.980293 
L 265.68 213.774386 
L 267.48 214.340454 
L 269.28 214.650925 
L 270.72 214.699384 
L 272.16 214.559237 
L 273.6 214.222557 
L 275.04 213.683531 
L 276.48 212.93866 
L 278.28 211.716343 
L 280.08 210.172794 
L 281.88 208.315618 
L 283.68 206.157363 
L 285.84 203.194187 
L 288 199.858886 
L 290.52 195.55573 
L 293.4 190.189948 
L 297 182.993533 
L 303.48 169.413703 
L 308.16 159.800891 
L 310.32 155.753741 
L 311.76 153.493724 
L 312.48 152.644761 
L 313.2 152.123589 
L 313.56 152.041232 
L 313.92 152.126091 
L 314.64 152.758648 
L 316.44 154.852414 
L 318.6 157.736602 
L 320.76 161.048774 
L 322.92 164.838105 
L 325.08 169.156466 
L 327.24 174.057081 
L 329.4 179.589037 
L 331.56 185.776013 
L 334.08 193.731426 
L 337.68 205.223698 
L 338.76 208.000717 
L 339.48 209.397993 
L 340.2 210.247719 
L 340.56 210.400211 
L 340.92 210.314004 
L 341.64 209.514101 
L 344.52 205.817106 
L 345.24 204.970474 
L 345.24 204.970474 
" clip-path="url(#pf5b44a7191)" style="fill: none; stroke: #0173b2; stroke-width: 2; stroke-linecap: round"/>
   </g>
   <g id="line2d_36">
    <path d="M 86.4 87.463431 
L 88.56 87.761626 
L 90.72 88.298596 
L 92.88 89.073413 
L 95.04 90.084465 
L 97.2 91.329335 
L 99.36 92.804642 
L 101.88 94.810931 
L 104.4 97.114918 
L 106.92 99.703647 
L 109.8 102.988912 
L 113.04 107.061185 
L 116.64 111.979157 
L 121.32 118.806169 
L 130.32 132.070096 
L 133.56 136.390206 
L 136.08 139.403856 
L 138.24 141.678428 
L 140.4 143.618434 
L 142.2 144.949415 
L 144 145.998983 
L 145.8 146.751204 
L 147.24 147.131193 
L 148.68 147.310203 
L 150.12 147.286964 
L 151.56 147.062351 
L 153 146.639341 
L 154.44 146.02292 
L 156.24 144.991037 
L 158.04 143.684926 
L 159.84 142.12528 
L 162 139.952423 
L 164.52 137.059033 
L 167.4 133.372754 
L 171 128.364608 
L 178.2 117.821749 
L 183.24 110.660132 
L 186.84 105.907113 
L 190.08 101.986682 
L 192.96 98.834665 
L 195.84 96.028395 
L 198.36 93.875407 
L 200.88 92.017713 
L 203.4 90.464759 
L 205.56 89.381684 
L 207.72 88.531202 
L 209.88 87.915886 
L 212.04 87.5376 
L 214.2 87.397587 
L 216.36 87.496527 
L 218.52 87.834557 
L 220.68 88.41125 
L 222.84 89.225571 
L 225 90.275785 
L 227.16 91.559325 
L 229.32 93.072629 
L 231.84 95.122109 
L 234.36 97.467651 
L 236.88 100.095778 
L 239.76 103.422606 
L 243 107.535841 
L 246.6 112.489814 
L 251.28 119.343612 
L 259.92 132.070096 
L 263.16 136.390206 
L 265.68 139.403856 
L 267.84 141.678428 
L 270 143.618434 
L 271.8 144.949415 
L 273.6 145.998983 
L 275.4 146.751204 
L 276.84 147.131193 
L 278.28 147.310203 
L 279.72 147.286964 
L 281.16 147.062351 
L 282.6 146.639341 
L 284.04 146.02292 
L 285.84 144.991037 
L 287.64 143.684926 
L 289.44 142.12528 
L 291.6 139.952423 
L 294.12 137.059033 
L 297 133.372754 
L 300.6 128.364608 
L 307.8 117.821749 
L 312.84 110.660132 
L 316.44 105.907113 
L 319.68 101.986682 
L 322.56 98.834665 
L 325.44 96.028395 
L 327.96 93.875407 
L 330.48 92.017713 
L 333 90.464759 
L 335.16 89.381684 
L 337.32 88.531202 
L 339.48 87.915886 
L 341.64 87.5376 
L 343.8 87.397587 
L 345.24 87.436977 
L 345.24 87.436977 
" clip-path="url(#pf5b44a7191)" style="fill: none; stroke-dasharray: 7.4,3.2; stroke-dashoffset: 0; stroke: #029e73; stroke-opacity: 0.75; stroke-width: 2"/>
   </g>
   <g id="line2d_37">
    <path d="M 86.4 169.865695 
L 88.56 167.770365 
L 90.72 165.954898 
L 92.88 164.420947 
L 95.04 163.169328 
L 97.2 162.199609 
L 99.36 161.510176 
L 101.16 161.147327 
L 102.96 160.973695 
L 105.12 161.008977 
L 107.28 161.30097 
L 109.44 161.836889 
L 111.6 162.60058 
L 114.12 163.75276 
L 116.64 165.149107 
L 119.88 167.226694 
L 124.56 170.551758 
L 129.6 174.090998 
L 132.48 175.85218 
L 134.64 176.951342 
L 136.8 177.80273 
L 138.6 178.287947 
L 140.4 178.542378 
L 142.2 178.5444 
L 144 178.276474 
L 145.44 177.858801 
L 147.24 177.075424 
L 149.04 175.998318 
L 150.84 174.628634 
L 152.64 172.972751 
L 154.44 171.041819 
L 156.6 168.383626 
L 158.76 165.385795 
L 161.28 161.51326 
L 164.16 156.681548 
L 167.76 150.202192 
L 174.6 137.309104 
L 179.28 128.695558 
L 181.44 125.102226 
L 182.52 123.615384 
L 183.24 122.882328 
L 183.96 122.520661 
L 184.32 122.561628 
L 185.04 123.098645 
L 186.84 124.928131 
L 189 127.447624 
L 191.16 130.336029 
L 193.32 133.633561 
L 195.48 137.382069 
L 197.64 141.624925 
L 199.8 146.406575 
L 201.96 151.765679 
L 204.12 157.708863 
L 209.52 173.112575 
L 210.24 174.421758 
L 210.6 174.859578 
L 210.96 175.103168 
L 211.32 175.094201 
L 212.04 174.397125 
L 215.28 170.625889 
L 217.8 168.100228 
L 219.96 166.237945 
L 222.12 164.657033 
L 224.28 163.358315 
L 226.44 162.341698 
L 228.6 161.605736 
L 230.76 161.147327 
L 232.56 160.973695 
L 234.72 161.008977 
L 236.88 161.30097 
L 239.04 161.836889 
L 241.2 162.60058 
L 243.72 163.75276 
L 246.24 165.149107 
L 249.48 167.226694 
L 254.16 170.551758 
L 259.2 174.090998 
L 262.08 175.85218 
L 264.24 176.951342 
L 266.4 177.80273 
L 268.2 178.287947 
L 270 178.542378 
L 271.8 178.5444 
L 273.6 178.276474 
L 275.04 177.858801 
L 276.84 177.075424 
L 278.64 175.998318 
L 280.44 174.628634 
L 282.24 172.972751 
L 284.04 171.041819 
L 286.2 168.383626 
L 288.36 165.385795 
L 290.88 161.51326 
L 293.76 156.681548 
L 297.36 150.202192 
L 304.2 137.309104 
L 308.88 128.695558 
L 311.04 125.102226 
L 312.12 123.615384 
L 312.84 122.882328 
L 313.56 122.520661 
L 313.92 122.561628 
L 314.64 123.098645 
L 316.44 124.928131 
L 318.6 127.447624 
L 320.76 130.336029 
L 322.92 133.633561 
L 325.08 137.382069 
L 327.24 141.624925 
L 329.4 146.406575 
L 331.56 151.765679 
L 333.72 157.708863 
L 339.12 173.112575 
L 339.84 174.421758 
L 340.2 174.859578 
L 340.56 175.103168 
L 340.92 175.094201 
L 341.64 174.397125 
L 344.88 170.625889 
L 345.24 170.241944 
L 345.24 170.241944 
" clip-path="url(#pf5b44a7191)" style="fill: none; stroke: #029e73; stroke-width: 2; stroke-linecap: round"/>
   </g>
   <g id="patch_3">
    <path d="M 86.4 345.6 
L 86.4 86.4 
" style="fill: none; stroke: #262626; stroke-width: 1.25; stroke-linejoin: miter; stroke-linecap: square"/>
   </g>
   <g id="patch_4">
    <path d="M 86.4 345.6 
L 345.6 345.6 
" style="fill: none; stroke: #262626; stroke-width: 1.25; stroke-linejoin: miter; stroke-linecap: square"/>
   </g>
   <g id="legend_1">
    <g id="patch_5">
     <path d="M 239.06 338.6 
L 335.8 338.6 
Q 338.6 338.6 338.6 335.8 
L 338.6 271.26 
Q 338.6 268.46 335.8 268.46 
L 239.06 268.46 
Q 236.26 268.46 236.26 271.26 
L 236.26 335.8 
Q 236.26 338.6 239.06 338.6 
z
" style="fill: #ffffff; opacity: 0.8; stroke: #cccccc; stroke-linejoin: miter"/>
    </g>
    <g id="line2d_38">
     <path d="M 241.86 281.3575 
L 255.86 281.3575 
L 269.86 281.3575 
" style="fill: none; stroke: #de8f05; stroke-width: 2; stroke-linecap: round"/>
    </g>
    <g id="text_18">
     <!-- $\it{\widebar{R}_0}$ = 2 -->
     <g style="fill: #262626" transform="translate(281.06 286.2575)">
      <text>
       <tspan style="font: 9.727539px 'STIXSizeOneSym'" x="11.150635" y="-5.03125">̅</tspan>
       <tspan style="font: oblique 14px 'DejaVu Sans'" x="0" y="-0.5625">R</tspan>
       <tspan style="font: 9.8px 'DejaVu Sans'" x="9.861523" y="1.734375">0</tspan>
       <tspan style="font: 14px 'Arial'" x="16.479395 20.369043 28.544824 32.434473" y="-0.5625"> = 2</tspan>
      </text>
     </g>
    </g>
    <g id="line2d_39">
     <path d="M 241.86 303.3375 
L 255.86 303.3375 
L 269.86 303.3375 
" style="fill: none; stroke: #0173b2; stroke-width: 2; stroke-linecap: round"/>
    </g>
    <g id="text_19">
     <!-- $\it{\widebar{R}_0}$ = 2.5 -->
     <g style="fill: #262626" transform="translate(281.06 308.2375)">
      <text>
       <tspan style="font: 9.727539px 'STIXSizeOneSym'" x="11.150635" y="-5.03125">̅</tspan>
       <tspan style="font: oblique 14px 'DejaVu Sans'" x="0" y="-0.5625">R</tspan>
       <tspan style="font: 9.8px 'DejaVu Sans'" x="9.861523" y="1.734375">0</tspan>
       <tspan style="font: 14px 'Arial'" x="16.479395 20.369043 28.544824 32.434473 40.220605 44.110254" y="-0.5625"> = 2.5</tspan>
      </text>
     </g>
    </g>
    <g id="line2d_40">
     <path d="M 241.86 325.3175 
L 255.86 325.3175 
L 269.86 325.3175 
" style="fill: none; stroke: #029e73; stroke-width: 2; stroke-linecap: round"/>
    </g>
    <g id="text_20">
     <!-- $\it{\widebar{R}_0}$ = 3 -->
     <g style="fill: #262626" transform="translate(281.06 330.2175)">
      <text>
       <tspan style="font: 9.727539px 'STIXSizeOneSym'" x="11.150635" y="-5.03125">̅</tspan>
       <tspan style="font: oblique 14px 'DejaVu Sans'" x="0" y="-0.5625">R</tspan>
       <tspan style="font: 9.8px 'DejaVu Sans'" x="9.861523" y="1.734375">0</tspan>
       <tspan style="font: 14px 'Arial'" x="16.479395 20.369043 28.544824 32.434473" y="-0.5625"> = 3</tspan>
      </text>
     </g>
    </g>
   </g>
  </g>
 </g>
 <defs>
  <clipPath id="pf5b44a7191">
   <rect x="86.4" y="86.4" width="259.2" height="259.2"/>
  </clipPath>
 </defs>
</svg>
