<?xml version="1.0" encoding="utf-8" standalone="no"?>
<!DOCTYPE svg PUBLIC "-//W3C//DTD SVG 1.1//EN"
  "http://www.w3.org/Graphics/SVG/1.1/DTD/svg11.dtd">
<svg xmlns:xlink="http://www.w3.org/1999/xlink" width="432pt" height="432pt" viewBox="0 0 432 432" xmlns="http://www.w3.org/2000/svg" version="1.1">
 <metadata>
  <rdf:RDF xmlns:dc="http://purl.org/dc/elements/1.1/" xmlns:cc="http://creativecommons.org/ns#" xmlns:rdf="http://www.w3.org/1999/02/22-rdf-syntax-ns#">
   <cc:Work>
    <dc:type rdf:resource="http://purl.org/dc/dcmitype/StillImage"/>
    <dc:date>2024-09-24T13:36:34.013057</dc:date>
    <dc:format>image/svg+xml</dc:format>
    <dc:creator>
     <cc:Agent>
      <dc:title>Matplotlib v3.8.4, https://matplotlib.org/</dc:title>
     </cc:Agent>
    </dc:creator>
   </cc:Work>
  </rdf:RDF>
 </metadata>
 <defs>
  <style type="text/css">*{stroke-linejoin: round; stroke-linecap: butt}</style>
 </defs>
 <g id="figure_1">
  <g id="patch_1">
   <path d="M 0 432 
L 432 432 
L 432 0 
L 0 0 
L 0 432 
z
" style="fill: none"/>
  </g>
  <g id="axes_1">
   <g id="patch_2">
    <path d="M 86.4 345.6 
L 345.6 345.6 
L 345.6 86.4 
L 86.4 86.4 
L 86.4 345.6 
z
" style="fill: none"/>
   </g>
   <g id="matplotlib.axis_1">
    <g id="xtick_1">
     <g id="line2d_1">
      <defs>
       <path id="m3790f098f0" d="M 0 0 
L 0 6 
" style="stroke: #262626; stroke-width: 1.25"/>
      </defs>
      <g>
       <use xlink:href="#m3790f098f0" x="86.4" y="345.6" style="fill: #262626; stroke: #262626; stroke-width: 1.25"/>
      </g>
     </g>
     <g id="text_1">
      <text style="fill: #262626; font: 16px 'Arial', 'DejaVu Sans', 'Liberation Sans', 'Bitstream Vera Sans', sans-serif; text-anchor: middle" x="86.4" y="366.5525" transform="rotate(-0 86.4 366.5525)">Jan</text>
     </g>
    </g>
    <g id="xtick_2">
     <g id="line2d_2">
      <g>
       <use xlink:href="#m3790f098f0" x="97.407123" y="345.6" style="fill: #262626; stroke: #262626; stroke-width: 1.25"/>
      </g>
     </g>
    </g>
    <g id="xtick_3">
     <g id="line2d_3">
      <g>
       <use xlink:href="#m3790f098f0" x="107.349041" y="345.6" style="fill: #262626; stroke: #262626; stroke-width: 1.25"/>
      </g>
     </g>
    </g>
    <g id="xtick_4">
     <g id="line2d_4">
      <g>
       <use xlink:href="#m3790f098f0" x="118.356164" y="345.6" style="fill: #262626; stroke: #262626; stroke-width: 1.25"/>
      </g>
     </g>
     <g id="text_2">
      <text style="fill: #262626; font: 16px 'Arial', 'DejaVu Sans', 'Liberation Sans', 'Bitstream Vera Sans', sans-serif; text-anchor: middle" x="118.356164" y="366.5525" transform="rotate(-0 118.356164 366.5525)">Apr</text>
     </g>
    </g>
    <g id="xtick_5">
     <g id="line2d_5">
      <g>
       <use xlink:href="#m3790f098f0" x="129.008219" y="345.6" style="fill: #262626; stroke: #262626; stroke-width: 1.25"/>
      </g>
     </g>
    </g>
    <g id="xtick_6">
     <g id="line2d_6">
      <g>
       <use xlink:href="#m3790f098f0" x="140.015342" y="345.6" style="fill: #262626; stroke: #262626; stroke-width: 1.25"/>
      </g>
     </g>
    </g>
    <g id="xtick_7">
     <g id="line2d_7">
      <g>
       <use xlink:href="#m3790f098f0" x="150.667397" y="345.6" style="fill: #262626; stroke: #262626; stroke-width: 1.25"/>
      </g>
     </g>
     <g id="text_3">
      <text style="fill: #262626; font: 16px 'Arial', 'DejaVu Sans', 'Liberation Sans', 'Bitstream Vera Sans', sans-serif; text-anchor: middle" x="150.667397" y="366.5525" transform="rotate(-0 150.667397 366.5525)">Jul</text>
     </g>
    </g>
    <g id="xtick_8">
     <g id="line2d_8">
      <g>
       <use xlink:href="#m3790f098f0" x="161.674521" y="345.6" style="fill: #262626; stroke: #262626; stroke-width: 1.25"/>
      </g>
     </g>
    </g>
    <g id="xtick_9">
     <g id="line2d_9">
      <g>
       <use xlink:href="#m3790f098f0" x="172.681644" y="345.6" style="fill: #262626; stroke: #262626; stroke-width: 1.25"/>
      </g>
     </g>
    </g>
    <g id="xtick_10">
     <g id="line2d_10">
      <g>
       <use xlink:href="#m3790f098f0" x="183.333699" y="345.6" style="fill: #262626; stroke: #262626; stroke-width: 1.25"/>
      </g>
     </g>
     <g id="text_4">
      <text style="fill: #262626; font: 16px 'Arial', 'DejaVu Sans', 'Liberation Sans', 'Bitstream Vera Sans', sans-serif; text-anchor: middle" x="183.333699" y="366.5525" transform="rotate(-0 183.333699 366.5525)">Oct</text>
     </g>
    </g>
    <g id="xtick_11">
     <g id="line2d_11">
      <g>
       <use xlink:href="#m3790f098f0" x="194.340822" y="345.6" style="fill: #262626; stroke: #262626; stroke-width: 1.25"/>
      </g>
     </g>
    </g>
    <g id="xtick_12">
     <g id="line2d_12">
      <g>
       <use xlink:href="#m3790f098f0" x="204.992877" y="345.6" style="fill: #262626; stroke: #262626; stroke-width: 1.25"/>
      </g>
     </g>
    </g>
    <g id="xtick_13">
     <g id="line2d_13">
      <g>
       <use xlink:href="#m3790f098f0" x="216" y="345.6" style="fill: #262626; stroke: #262626; stroke-width: 1.25"/>
      </g>
     </g>
     <g id="text_5">
      <text style="fill: #262626; font: 16px 'Arial', 'DejaVu Sans', 'Liberation Sans', 'Bitstream Vera Sans', sans-serif; text-anchor: middle" x="216" y="366.5525" transform="rotate(-0 216 366.5525)">Jan</text>
     </g>
    </g>
    <g id="xtick_14">
     <g id="line2d_14">
      <g>
       <use xlink:href="#m3790f098f0" x="227.007123" y="345.6" style="fill: #262626; stroke: #262626; stroke-width: 1.25"/>
      </g>
     </g>
    </g>
    <g id="xtick_15">
     <g id="line2d_15">
      <g>
       <use xlink:href="#m3790f098f0" x="236.949041" y="345.6" style="fill: #262626; stroke: #262626; stroke-width: 1.25"/>
      </g>
     </g>
    </g>
    <g id="xtick_16">
     <g id="line2d_16">
      <g>
       <use xlink:href="#m3790f098f0" x="247.956164" y="345.6" style="fill: #262626; stroke: #262626; stroke-width: 1.25"/>
      </g>
     </g>
     <g id="text_6">
      <text style="fill: #262626; font: 16px 'Arial', 'DejaVu Sans', 'Liberation Sans', 'Bitstream Vera Sans', sans-serif; text-anchor: middle" x="247.956164" y="366.5525" transform="rotate(-0 247.956164 366.5525)">Apr</text>
     </g>
    </g>
    <g id="xtick_17">
     <g id="line2d_17">
      <g>
       <use xlink:href="#m3790f098f0" x="258.608219" y="345.6" style="fill: #262626; stroke: #262626; stroke-width: 1.25"/>
      </g>
     </g>
    </g>
    <g id="xtick_18">
     <g id="line2d_18">
      <g>
       <use xlink:href="#m3790f098f0" x="269.615342" y="345.6" style="fill: #262626; stroke: #262626; stroke-width: 1.25"/>
      </g>
     </g>
    </g>
    <g id="xtick_19">
     <g id="line2d_19">
      <g>
       <use xlink:href="#m3790f098f0" x="280.267397" y="345.6" style="fill: #262626; stroke: #262626; stroke-width: 1.25"/>
      </g>
     </g>
     <g id="text_7">
      <text style="fill: #262626; font: 16px 'Arial', 'DejaVu Sans', 'Liberation Sans', 'Bitstream Vera Sans', sans-serif; text-anchor: middle" x="280.267397" y="366.5525" transform="rotate(-0 280.267397 366.5525)">Jul</text>
     </g>
    </g>
    <g id="xtick_20">
     <g id="line2d_20">
      <g>
       <use xlink:href="#m3790f098f0" x="291.274521" y="345.6" style="fill: #262626; stroke: #262626; stroke-width: 1.25"/>
      </g>
     </g>
    </g>
    <g id="xtick_21">
     <g id="line2d_21">
      <g>
       <use xlink:href="#m3790f098f0" x="302.281644" y="345.6" style="fill: #262626; stroke: #262626; stroke-width: 1.25"/>
      </g>
     </g>
    </g>
    <g id="xtick_22">
     <g id="line2d_22">
      <g>
       <use xlink:href="#m3790f098f0" x="312.933699" y="345.6" style="fill: #262626; stroke: #262626; stroke-width: 1.25"/>
      </g>
     </g>
     <g id="text_8">
      <text style="fill: #262626; font: 16px 'Arial', 'DejaVu Sans', 'Liberation Sans', 'Bitstream Vera Sans', sans-serif; text-anchor: middle" x="312.933699" y="366.5525" transform="rotate(-0 312.933699 366.5525)">Oct</text>
     </g>
    </g>
    <g id="xtick_23">
     <g id="line2d_23">
      <g>
       <use xlink:href="#m3790f098f0" x="323.940822" y="345.6" style="fill: #262626; stroke: #262626; stroke-width: 1.25"/>
      </g>
     </g>
    </g>
    <g id="xtick_24">
     <g id="line2d_24">
      <g>
       <use xlink:href="#m3790f098f0" x="334.592877" y="345.6" style="fill: #262626; stroke: #262626; stroke-width: 1.25"/>
      </g>
     </g>
    </g>
    <g id="xtick_25">
     <g id="line2d_25">
      <g>
       <use xlink:href="#m3790f098f0" x="345.6" y="345.6" style="fill: #262626; stroke: #262626; stroke-width: 1.25"/>
      </g>
     </g>
     <g id="text_9">
      <text style="fill: #262626; font: 16px 'Arial', 'DejaVu Sans', 'Liberation Sans', 'Bitstream Vera Sans', sans-serif; text-anchor: middle" x="345.6" y="366.5525" transform="rotate(-0 345.6 366.5525)">Jan</text>
     </g>
    </g>
    <g id="text_10">
     <text style="fill: #262626; font: 16px 'Arial', 'DejaVu Sans', 'Liberation Sans', 'Bitstream Vera Sans', sans-serif; text-anchor: middle" x="216" y="385.185" transform="rotate(-0 216 385.185)"> </text>
    </g>
   </g>
   <g id="matplotlib.axis_2">
    <g id="ytick_1">
     <g id="line2d_26">
      <defs>
       <path id="mebe3079510" d="M 0 0 
L -6 0 
" style="stroke: #262626; stroke-width: 1.25"/>
      </defs>
      <g>
       <use xlink:href="#mebe3079510" x="86.4" y="345.6" style="fill: #262626; stroke: #262626; stroke-width: 1.25"/>
      </g>
     </g>
     <g id="text_11">
      <text style="fill: #262626; font: 16px 'Arial', 'DejaVu Sans', 'Liberation Sans', 'Bitstream Vera Sans', sans-serif; text-anchor: end" x="76.9" y="351.32625" transform="rotate(-0 76.9 351.32625)">0.0</text>
     </g>
    </g>
    <g id="ytick_2">
     <g id="line2d_27">
      <g>
       <use xlink:href="#mebe3079510" x="86.4" y="293.76" style="fill: #262626; stroke: #262626; stroke-width: 1.25"/>
      </g>
     </g>
     <g id="text_12">
      <text style="fill: #262626; font: 16px 'Arial', 'DejaVu Sans', 'Liberation Sans', 'Bitstream Vera Sans', sans-serif; text-anchor: end" x="76.9" y="299.48625" transform="rotate(-0 76.9 299.48625)">0.1</text>
     </g>
    </g>
    <g id="ytick_3">
     <g id="line2d_28">
      <g>
       <use xlink:href="#mebe3079510" x="86.4" y="241.92" style="fill: #262626; stroke: #262626; stroke-width: 1.25"/>
      </g>
     </g>
     <g id="text_13">
      <text style="fill: #262626; font: 16px 'Arial', 'DejaVu Sans', 'Liberation Sans', 'Bitstream Vera Sans', sans-serif; text-anchor: end" x="76.9" y="247.64625" transform="rotate(-0 76.9 247.64625)">0.2</text>
     </g>
    </g>
    <g id="ytick_4">
     <g id="line2d_29">
      <g>
       <use xlink:href="#mebe3079510" x="86.4" y="190.08" style="fill: #262626; stroke: #262626; stroke-width: 1.25"/>
      </g>
     </g>
     <g id="text_14">
      <text style="fill: #262626; font: 16px 'Arial', 'DejaVu Sans', 'Liberation Sans', 'Bitstream Vera Sans', sans-serif; text-anchor: end" x="76.9" y="195.80625" transform="rotate(-0 76.9 195.80625)">0.3</text>
     </g>
    </g>
    <g id="ytick_5">
     <g id="line2d_30">
      <g>
       <use xlink:href="#mebe3079510" x="86.4" y="138.24" style="fill: #262626; stroke: #262626; stroke-width: 1.25"/>
      </g>
     </g>
     <g id="text_15">
      <text style="fill: #262626; font: 16px 'Arial', 'DejaVu Sans', 'Liberation Sans', 'Bitstream Vera Sans', sans-serif; text-anchor: end" x="76.9" y="143.96625" transform="rotate(-0 76.9 143.96625)">0.4</text>
     </g>
    </g>
    <g id="ytick_6">
     <g id="line2d_31">
      <g>
       <use xlink:href="#mebe3079510" x="86.4" y="86.4" style="fill: #262626; stroke: #262626; stroke-width: 1.25"/>
      </g>
     </g>
     <g id="text_16">
      <text style="fill: #262626; font: 16px 'Arial', 'DejaVu Sans', 'Liberation Sans', 'Bitstream Vera Sans', sans-serif; text-anchor: end" x="76.9" y="92.12625" transform="rotate(-0 76.9 92.12625)">0.5</text>
     </g>
    </g>
    <g id="text_17">
     <text style="fill: #262626; font: 16px 'Arial', 'DejaVu Sans', 'Liberation Sans', 'Bitstream Vera Sans', sans-serif; text-anchor: middle" x="47.48" y="216" transform="rotate(-90 47.48 216)">Outbreak risk</text>
    </g>
   </g>
   <g id="PolyCollection_1">
    <defs>
     <path id="mac03c7934e" d="M 210.318904 -86.4 
L 183.333699 -86.4 
L 183.333699 -345.6 
L 210.318904 -345.6 
L 210.318904 -345.6 
L 210.318904 -86.4 
z
"/>
    </defs>
    <g clip-path="url(#p47f2cce6d2)">
     <use xlink:href="#mac03c7934e" x="0" y="432" style="fill: #808080; fill-opacity: 0.5"/>
    </g>
   </g>
   <g id="PolyCollection_2">
    <defs>
     <path id="m4cea717a82" d="M 339.918904 -86.4 
L 312.933699 -86.4 
L 312.933699 -345.6 
L 339.918904 -345.6 
L 339.918904 -345.6 
L 339.918904 -86.4 
z
"/>
    </defs>
    <g clip-path="url(#p47f2cce6d2)">
     <use xlink:href="#m4cea717a82" x="0" y="432" style="fill: #808080; fill-opacity: 0.5"/>
    </g>
   </g>
   <g id="line2d_32">
    <path d="M 86.4 147.638702 
L 88.175342 147.97007 
L 89.950685 148.508865 
L 91.726027 149.254878 
L 93.50137 150.207547 
L 95.631781 151.622148 
L 97.762192 153.330334 
L 99.892603 155.328307 
L 102.023014 157.610775 
L 104.508493 160.623585 
L 106.993973 163.99855 
L 109.834521 168.272531 
L 112.675068 172.951512 
L 115.870685 178.630823 
L 120.131507 186.710408 
L 130.073425 205.861368 
L 132.913973 210.76899 
L 135.399452 214.62111 
L 137.529863 217.511697 
L 139.305205 219.585661 
L 141.080548 221.324287 
L 142.500822 222.457826 
L 143.921096 223.3524 
L 145.34137 224.001291 
L 146.761644 224.40037 
L 148.181918 224.548068 
L 149.602192 224.445308 
L 151.022466 224.095382 
L 152.44274 223.503805 
L 153.863014 222.678139 
L 155.283288 221.627803 
L 157.05863 220.01595 
L 158.833973 218.095201 
L 160.964384 215.421614 
L 163.094795 212.394947 
L 165.580274 208.49086 
L 168.77589 203.018971 
L 173.036712 195.23437 
L 182.268493 178.23933 
L 185.819178 172.200916 
L 189.014795 167.186234 
L 191.855342 163.125429 
L 194.340822 159.912322 
L 196.826301 157.039458 
L 199.311781 154.524039 
L 201.442192 152.662809 
L 203.572603 151.080927 
L 205.703014 149.783784 
L 207.833425 148.775642 
L 209.608767 148.158714 
L 211.38411 147.746307 
L 213.159452 147.539588 
L 214.934795 147.539414 
L 216.710137 147.746358 
L 218.485479 148.160701 
L 220.260822 148.782427 
L 222.036164 149.611191 
L 224.166575 150.877962 
L 226.296986 152.439748 
L 228.427397 154.293389 
L 230.557808 156.434378 
L 233.043288 159.287038 
L 235.528767 162.508972 
L 238.014247 166.082064 
L 240.854795 170.56446 
L 244.050411 176.057912 
L 247.601096 182.61361 
L 253.282192 193.668404 
L 258.608219 203.913683 
L 261.803836 209.586918 
L 264.289315 213.569347 
L 266.419726 216.594495 
L 268.195068 218.794818 
L 269.970411 220.670702 
L 271.745753 222.196526 
L 273.166027 223.151571 
L 274.586301 223.862371 
L 276.006575 224.324149 
L 277.426849 224.534701 
L 278.847123 224.494337 
L 280.267397 224.20577 
L 281.687671 223.673973 
L 283.107945 222.906016 
L 284.528219 221.910871 
L 286.303562 220.36387 
L 288.078904 218.502773 
L 290.209315 215.893177 
L 292.339726 212.921609 
L 294.825205 209.070055 
L 298.020822 203.646868 
L 302.281644 195.895325 
L 312.223562 177.616662 
L 315.774247 171.622417 
L 318.969863 166.657178 
L 321.810411 162.646349 
L 324.29589 159.480636 
L 326.78137 156.657876 
L 329.266849 154.194703 
L 331.39726 152.379602 
L 333.527671 150.844835 
L 335.658082 149.59559 
L 337.788493 148.635961 
L 339.563836 148.059829 
L 341.339178 147.688477 
L 343.114521 147.523007 
L 344.889863 147.564221 
L 345.244932 147.597316 
L 345.244932 147.597316 
" clip-path="url(#p47f2cce6d2)" style="fill: none; stroke-dasharray: 7.4,3.2; stroke-dashoffset: 0; stroke: #de8f05; stroke-opacity: 0.75; stroke-width: 2"/>
   </g>
   <g id="line2d_33">
    <path d="M 86.4 251.599191 
L 88.530411 249.130929 
L 90.660822 246.99812 
L 92.791233 245.207284 
L 94.566575 243.979653 
L 96.341918 242.994547 
L 98.11726 242.25263 
L 99.892603 241.753386 
L 101.667945 241.494775 
L 103.443288 241.473212 
L 105.21863 241.683422 
L 106.993973 242.11807 
L 108.769315 242.767494 
L 110.899726 243.812952 
L 113.030137 245.123559 
L 115.515616 246.943348 
L 118.356164 249.326492 
L 122.616986 253.253373 
L 127.587945 257.784452 
L 130.073425 259.778286 
L 132.203836 261.234268 
L 133.979178 262.222025 
L 135.754521 262.970581 
L 137.529863 263.452103 
L 138.950137 263.629222 
L 140.370411 263.610624 
L 141.790685 263.388517 
L 143.210959 262.956982 
L 144.631233 262.312102 
L 146.051507 261.451819 
L 147.826849 260.073419 
L 149.602192 258.361717 
L 151.377534 256.324419 
L 153.152877 253.973248 
L 155.283288 250.759577 
L 157.413699 247.149884 
L 159.899178 242.491743 
L 162.739726 236.668762 
L 166.290411 228.818667 
L 171.616438 216.374526 
L 177.297534 203.176814 
L 179.427945 198.655902 
L 180.848219 196.035141 
L 181.913425 194.472031 
L 182.623562 193.74366 
L 183.333699 193.388987 
L 183.688767 193.398903 
L 184.043836 193.57337 
L 184.753973 194.367963 
L 186.529315 196.882263 
L 188.659726 200.34414 
L 190.435068 203.627458 
L 192.210411 207.315129 
L 193.985753 211.447659 
L 195.761096 216.06233 
L 197.891507 222.269899 
L 200.021918 229.188358 
L 203.217534 240.502573 
L 205.703014 249.161086 
L 207.123288 253.457359 
L 208.188493 256.069258 
L 208.89863 257.399515 
L 209.608767 258.307618 
L 209.963836 258.573134 
L 210.318904 258.694503 
L 210.673973 258.654871 
L 211.029041 258.426132 
L 211.739178 257.486579 
L 214.579726 253.427034 
L 216.710137 250.739639 
L 218.840548 248.382367 
L 220.970959 246.362894 
L 223.10137 244.687218 
L 224.876712 243.556431 
L 226.652055 242.668611 
L 228.427397 242.023895 
L 230.20274 241.621215 
L 231.978082 241.457959 
L 233.753425 241.52984 
L 235.528767 241.830826 
L 237.30411 242.352691 
L 239.079452 243.084755 
L 241.209863 244.221841 
L 243.340274 245.613868 
L 245.825753 247.512607 
L 249.02137 250.281447 
L 258.963288 259.237053 
L 261.093699 260.779207 
L 263.22411 262.042645 
L 264.999452 262.841402 
L 266.774795 263.378351 
L 268.195068 263.602942 
L 269.615342 263.634082 
L 271.035616 263.463475 
L 272.45589 263.084745 
L 273.876164 262.493468 
L 275.296438 261.687125 
L 276.716712 260.665062 
L 278.492055 259.08599 
L 280.267397 257.177748 
L 282.04274 254.950467 
L 284.173151 251.876594 
L 286.303562 248.394773 
L 288.789041 243.867992 
L 291.629589 238.168469 
L 294.825205 231.227336 
L 299.086027 221.404197 
L 307.607671 201.618882 
L 309.738082 197.288331 
L 311.158356 194.940737 
L 311.868493 194.068867 
L 312.57863 193.51124 
L 312.933699 193.388987 
L 313.288767 193.398903 
L 313.643836 193.57337 
L 314.353973 194.367963 
L 316.129315 196.882263 
L 318.259726 200.34414 
L 320.035068 203.627458 
L 321.810411 207.315129 
L 323.585753 211.447659 
L 325.361096 216.06233 
L 327.491507 222.269899 
L 329.621918 229.188358 
L 332.817534 240.502573 
L 335.303014 249.161086 
L 336.723288 253.457359 
L 337.788493 256.069258 
L 338.49863 257.399515 
L 339.208767 258.307618 
L 339.563836 258.573134 
L 339.918904 258.694503 
L 340.273973 258.654871 
L 340.629041 258.426132 
L 341.339178 257.486579 
L 344.179726 253.427034 
L 345.244932 252.042641 
L 345.244932 252.042641 
" clip-path="url(#p47f2cce6d2)" style="fill: none; stroke: #de8f05; stroke-width: 2; stroke-linecap: round"/>
   </g>
   <g id="line2d_34">
    <path d="M 86.4 112.683727 
L 88.530411 113.022938 
L 90.660822 113.621576 
L 92.791233 114.478824 
L 94.921644 115.593162 
L 97.052055 116.962244 
L 99.182466 118.582724 
L 101.667945 120.784854 
L 104.153425 123.313058 
L 106.638904 126.154079 
L 109.479452 129.761358 
L 112.32 133.719846 
L 115.515616 138.536436 
L 119.42137 144.825917 
L 131.848767 165.21522 
L 134.689315 169.252375 
L 137.174795 172.369931 
L 139.305205 174.666584 
L 141.080548 176.279266 
L 142.85589 177.593063 
L 144.631233 178.589043 
L 146.051507 179.147422 
L 147.471781 179.488628 
L 148.892055 179.610195 
L 150.312329 179.511924 
L 151.732603 179.195848 
L 153.152877 178.666147 
L 154.573151 177.929026 
L 156.348493 176.728396 
L 158.123836 175.235798 
L 159.899178 173.474081 
L 162.029589 171.041012 
L 164.515068 167.823699 
L 167.355616 163.746232 
L 170.906301 158.227275 
L 178.36274 146.058046 
L 182.97863 138.754674 
L 186.529315 133.512906 
L 189.724932 129.177686 
L 192.565479 125.681002 
L 195.406027 122.555662 
L 197.891507 120.146362 
L 200.376986 118.055097 
L 202.507397 116.523788 
L 204.637808 115.239119 
L 206.768219 114.205164 
L 208.89863 113.42507 
L 211.029041 112.901206 
L 213.159452 112.635268 
L 215.289863 112.628359 
L 217.420274 112.881021 
L 219.550685 113.393242 
L 221.681096 114.164418 
L 223.811507 115.193276 
L 225.941918 116.477763 
L 228.072329 118.014885 
L 230.20274 119.800513 
L 232.688219 122.190378 
L 235.173699 124.899209 
L 238.014247 128.365413 
L 240.854795 132.196859 
L 244.050411 136.892574 
L 247.956164 143.076104 
L 253.63726 152.566324 
L 259.318356 161.93216 
L 262.513973 166.780677 
L 264.999452 170.186874 
L 267.129863 172.778331 
L 269.260274 175.01197 
L 271.035616 176.566609 
L 272.810959 177.818206 
L 274.231233 178.589043 
L 275.651507 179.147422 
L 277.071781 179.488628 
L 278.492055 179.610195 
L 279.912329 179.511924 
L 281.332603 179.195848 
L 282.752877 178.666147 
L 284.173151 177.929026 
L 285.948493 176.728396 
L 287.723836 175.235798 
L 289.499178 173.474081 
L 291.629589 171.041012 
L 294.115068 167.823699 
L 296.955616 163.746232 
L 300.506301 158.227275 
L 307.96274 146.058046 
L 312.57863 138.754674 
L 316.129315 133.512906 
L 319.324932 129.177686 
L 322.165479 125.681002 
L 325.006027 122.555662 
L 327.491507 120.146362 
L 329.976986 118.055097 
L 332.107397 116.523788 
L 334.237808 115.239119 
L 336.368219 114.205164 
L 338.49863 113.42507 
L 340.629041 112.901206 
L 342.759452 112.635268 
L 344.889863 112.628359 
L 345.244932 112.652436 
L 345.244932 112.652436 
" clip-path="url(#p47f2cce6d2)" style="fill: none; stroke-dasharray: 7.4,3.2; stroke-dashoffset: 0; stroke: #0173b2; stroke-opacity: 0.75; stroke-width: 2"/>
   </g>
   <g id="line2d_35">
    <path d="M 86.4 203.809891 
L 88.530411 201.500342 
L 90.660822 199.494147 
L 92.791233 197.794145 
L 94.921644 196.402112 
L 96.696986 195.477712 
L 98.472329 194.766952 
L 100.247671 194.268401 
L 102.023014 193.979451 
L 103.798356 193.896329 
L 105.573699 194.014015 
L 107.349041 194.325925 
L 109.479452 194.944786 
L 111.609863 195.813464 
L 113.740274 196.909957 
L 116.225753 198.441095 
L 119.066301 200.459901 
L 122.972055 203.538346 
L 129.363288 208.60943 
L 132.203836 210.548409 
L 134.334247 211.755563 
L 136.464658 212.689332 
L 138.24 213.221838 
L 140.015342 213.503242 
L 141.435616 213.532599 
L 142.85589 213.377722 
L 144.276164 213.03125 
L 145.696438 212.487887 
L 147.116712 211.744468 
L 148.892055 210.532435 
L 150.667397 209.008857 
L 152.44274 207.18129 
L 154.218082 205.061952 
L 156.348493 202.157024 
L 158.478904 198.891275 
L 160.964384 194.681171 
L 163.804932 189.433562 
L 167.355616 182.394848 
L 173.746849 169.096645 
L 178.717808 158.968643 
L 180.848219 155.078185 
L 181.913425 153.458432 
L 182.623562 152.62349 
L 183.333699 152.111902 
L 183.688767 152.032047 
L 184.043836 152.117342 
L 184.753973 152.744915 
L 186.529315 154.815281 
L 188.659726 157.656711 
L 190.790137 160.908573 
L 192.920548 164.617797 
L 195.050959 168.833675 
L 197.18137 173.607088 
L 199.311781 178.985892 
L 201.442192 184.997684 
L 203.927671 192.74751 
L 207.833425 205.190055 
L 208.89863 207.904526 
L 209.608767 209.263221 
L 210.318904 210.078784 
L 210.673973 210.216422 
L 211.029041 210.117356 
L 211.739178 209.296834 
L 214.934795 205.07726 
L 217.420274 202.236659 
L 219.550685 200.128951 
L 221.681096 198.32666 
L 223.811507 196.831856 
L 225.941918 195.645469 
L 227.71726 194.892055 
L 229.492603 194.351244 
L 231.267945 194.020639 
L 233.043288 193.896707 
L 234.81863 193.974705 
L 236.593973 194.248379 
L 238.724384 194.823766 
L 240.854795 195.65222 
L 242.985205 196.712464 
L 245.470685 198.207441 
L 248.311233 200.19465 
L 252.216986 203.250241 
L 258.963288 208.60943 
L 261.803836 210.548409 
L 263.934247 211.755563 
L 266.064658 212.689332 
L 267.84 213.221838 
L 269.615342 213.503242 
L 271.035616 213.532599 
L 272.45589 213.377722 
L 273.876164 213.03125 
L 275.296438 212.487887 
L 276.716712 211.744468 
L 278.492055 210.532435 
L 280.267397 209.008857 
L 282.04274 207.18129 
L 283.818082 205.061952 
L 285.948493 202.157024 
L 288.078904 198.891275 
L 290.564384 194.681171 
L 293.404932 189.433562 
L 296.955616 182.394848 
L 303.346849 169.096645 
L 308.317808 158.968643 
L 310.448219 155.078185 
L 311.513425 153.458432 
L 312.223562 152.62349 
L 312.933699 152.111902 
L 313.288767 152.032047 
L 313.643836 152.117342 
L 314.353973 152.744915 
L 316.129315 154.815281 
L 318.259726 157.656711 
L 320.390137 160.908573 
L 322.520548 164.617797 
L 324.650959 168.833675 
L 326.78137 173.607088 
L 328.911781 178.985892 
L 331.042192 184.997684 
L 333.527671 192.74751 
L 337.433425 205.190055 
L 338.49863 207.904526 
L 339.208767 209.263221 
L 339.918904 210.078784 
L 340.273973 210.216422 
L 340.629041 210.117356 
L 341.339178 209.296834 
L 344.534795 205.07726 
L 345.244932 204.224071 
L 345.244932 204.224071 
" clip-path="url(#p47f2cce6d2)" style="fill: none; stroke: #0173b2; stroke-width: 2; stroke-linecap: round"/>
   </g>
   <g id="line2d_36">
    <path d="M 86.4 87.460688 
L 88.530411 87.750766 
L 90.660822 88.273131 
L 92.791233 89.026905 
L 94.921644 90.010569 
L 97.052055 91.221851 
L 99.537534 92.918401 
L 102.023014 94.913449 
L 104.508493 97.197532 
L 107.349041 100.145538 
L 110.189589 103.429591 
L 113.385205 107.484503 
L 116.93589 112.364255 
L 121.551781 119.115482 
L 130.428493 132.186633 
L 133.62411 136.439871 
L 136.109589 139.409547 
L 138.24 141.654767 
L 140.370411 143.575098 
L 142.145753 144.898193 
L 143.921096 145.948327 
L 145.696438 146.709968 
L 147.116712 147.103961 
L 148.536986 147.302659 
L 149.95726 147.304605 
L 151.377534 147.110377 
L 152.797808 146.722551 
L 154.573151 145.972545 
L 156.348493 144.939899 
L 158.123836 143.641241 
L 160.254247 141.760052 
L 162.384658 139.564318 
L 164.870137 136.663408 
L 167.710685 132.990567 
L 171.26137 128.0254 
L 185.46411 107.709 
L 188.659726 103.686367 
L 191.855342 100.028266 
L 194.69589 97.12116 
L 197.18137 94.864634 
L 199.666849 92.890122 
L 202.152329 91.207913 
L 204.637808 89.825901 
L 206.768219 88.884802 
L 208.89863 88.171454 
L 211.029041 87.687937 
L 213.159452 87.435711 
L 215.289863 87.415683 
L 217.420274 87.628237 
L 219.550685 88.073241 
L 221.681096 88.750014 
L 223.811507 89.657261 
L 225.941918 90.792975 
L 228.072329 92.154301 
L 230.557808 94.02242 
L 233.043288 96.183975 
L 235.528767 98.627803 
L 238.369315 101.74741 
L 241.209863 105.187708 
L 244.405479 109.394302 
L 248.311233 114.919583 
L 254.702466 124.436405 
L 259.673425 131.690386 
L 262.869041 135.989003 
L 265.354521 139.006865 
L 267.484932 141.301961 
L 269.615342 143.279375 
L 271.390685 144.654841 
L 273.166027 145.760944 
L 274.94137 146.581318 
L 276.361644 147.02367 
L 277.781918 147.271408 
L 279.202192 147.322567 
L 280.622466 147.177218 
L 282.04274 146.837444 
L 283.463014 146.307269 
L 285.238356 145.385892 
L 287.013699 144.191415 
L 288.789041 142.742553 
L 290.919452 140.698852 
L 293.404932 137.947169 
L 296.245479 134.406055 
L 299.441096 130.049414 
L 304.412055 122.838545 
L 311.868493 112.034857 
L 315.774247 106.786479 
L 318.969863 102.840084 
L 321.810411 99.646488 
L 324.650959 96.781998 
L 327.136438 94.565026 
L 329.621918 92.631703 
L 332.107397 90.991945 
L 334.237808 89.825901 
L 336.368219 88.884802 
L 338.49863 88.171454 
L 340.629041 87.687937 
L 342.759452 87.435711 
L 344.889863 87.415683 
L 345.244932 87.434954 
L 345.244932 87.434954 
" clip-path="url(#p47f2cce6d2)" style="fill: none; stroke-dasharray: 7.4,3.2; stroke-dashoffset: 0; stroke: #029e73; stroke-opacity: 0.75; stroke-width: 2"/>
   </g>
   <g id="line2d_37">
    <path d="M 86.4 169.199734 
L 88.885479 166.757047 
L 91.01589 164.959956 
L 93.146301 163.438686 
L 95.276712 162.194071 
L 97.407123 161.225969 
L 99.537534 160.532744 
L 101.667945 160.111162 
L 103.798356 159.955752 
L 105.928767 160.058957 
L 108.059178 160.410552 
L 110.189589 160.9971 
L 112.32 161.802088 
L 114.805479 162.990019 
L 117.646027 164.627004 
L 120.841644 166.738738 
L 132.558904 174.769903 
L 135.044384 176.024391 
L 137.174795 176.835365 
L 138.950137 177.289558 
L 140.725479 177.516942 
L 142.500822 177.497277 
L 144.276164 177.21411 
L 146.051507 176.655486 
L 147.826849 175.814168 
L 149.602192 174.687712 
L 151.377534 173.278652 
L 153.152877 171.594278 
L 155.283288 169.22635 
L 157.413699 166.506827 
L 159.899178 162.936544 
L 162.739726 158.411822 
L 165.935342 152.88324 
L 170.551233 144.389988 
L 179.072877 128.586419 
L 181.203288 125.052417 
L 182.268493 123.589445 
L 182.97863 122.868564 
L 183.688767 122.514242 
L 184.043836 122.556153 
L 184.753973 123.089404 
L 186.529315 124.899522 
L 188.659726 127.383123 
L 190.790137 130.22069 
L 192.920548 133.450716 
L 195.050959 137.11302 
L 197.18137 141.248943 
L 199.311781 145.900849 
L 201.442192 151.106982 
L 203.572603 156.880789 
L 206.768219 166.336811 
L 208.543562 171.355855 
L 209.608767 173.724734 
L 210.318904 174.721798 
L 210.673973 174.951016 
L 211.029041 174.929875 
L 211.739178 174.214288 
L 214.934795 170.359765 
L 217.420274 167.75846 
L 219.550685 165.824092 
L 221.681096 164.164771 
L 223.811507 162.781788 
L 225.941918 161.675527 
L 228.072329 160.845149 
L 230.20274 160.28828 
L 232.333151 160.000608 
L 234.463562 159.975592 
L 236.593973 160.204469 
L 238.724384 160.675405 
L 240.854795 161.373479 
L 243.340274 162.45026 
L 245.825753 163.775055 
L 248.666301 165.536535 
L 252.572055 168.248125 
L 260.028493 173.48705 
L 262.869041 175.15807 
L 264.999452 176.177978 
L 267.129863 176.943252 
L 268.905205 177.353881 
L 270.680548 177.533357 
L 272.45589 177.462165 
L 274.231233 177.124724 
L 276.006575 176.509982 
L 277.781918 175.611671 
L 279.55726 174.428345 
L 281.332603 172.963484 
L 283.107945 171.225316 
L 285.238356 168.796649 
L 287.368767 166.021754 
L 289.854247 162.394997 
L 292.694795 157.817851 
L 296.245479 151.606841 
L 301.216438 142.387692 
L 308.317808 129.212996 
L 310.448219 125.601672 
L 311.868493 123.589445 
L 312.57863 122.868564 
L 313.288767 122.514242 
L 313.643836 122.556153 
L 314.353973 123.089404 
L 316.129315 124.899522 
L 318.259726 127.383123 
L 320.390137 130.22069 
L 322.520548 133.450716 
L 324.650959 137.11302 
L 326.78137 141.248943 
L 328.911781 145.900849 
L 331.042192 151.106982 
L 333.172603 156.880789 
L 336.368219 166.336811 
L 338.143562 171.355855 
L 339.208767 173.724734 
L 339.918904 174.721798 
L 340.273973 174.951016 
L 340.629041 174.929875 
L 341.339178 174.214288 
L 344.534795 170.359765 
L 345.244932 169.578924 
L 345.244932 169.578924 
" clip-path="url(#p47f2cce6d2)" style="fill: none; stroke: #029e73; stroke-width: 2; stroke-linecap: round"/>
   </g>
   <g id="patch_3">
    <path d="M 86.4 345.6 
L 86.4 86.4 
" style="fill: none; stroke: #262626; stroke-width: 1.25; stroke-linejoin: miter; stroke-linecap: square"/>
   </g>
   <g id="patch_4">
    <path d="M 86.4 345.6 
L 345.6 345.6 
" style="fill: none; stroke: #262626; stroke-width: 1.25; stroke-linejoin: miter; stroke-linecap: square"/>
   </g>
   <g id="legend_1">
    <g id="patch_5">
     <path d="M 239.06 338.6 
L 335.8 338.6 
Q 338.6 338.6 338.6 335.8 
L 338.6 271.26 
Q 338.6 268.46 335.8 268.46 
L 239.06 268.46 
Q 236.26 268.46 236.26 271.26 
L 236.26 335.8 
Q 236.26 338.6 239.06 338.6 
z
" style="fill: #ffffff; opacity: 0.8; stroke: #cccccc; stroke-linejoin: miter"/>
    </g>
    <g id="line2d_38">
     <path d="M 241.86 281.3575 
L 255.86 281.3575 
L 269.86 281.3575 
" style="fill: none; stroke: #de8f05; stroke-width: 2; stroke-linecap: round"/>
    </g>
    <g id="text_18">
     <!-- $\it{\widebar{R}_0}$ = 2 -->
     <g style="fill: #262626" transform="translate(281.06 286.2575)">
      <text>
       <tspan style="font: 9.727539px 'STIXSizeOneSym'" x="11.150635" y="-5.03125">̅</tspan>
       <tspan style="font: oblique 14px 'DejaVu Sans'" x="0" y="-0.5625">R</tspan>
       <tspan style="font: 9.8px 'DejaVu Sans'" x="9.861523" y="1.734375">0</tspan>
       <tspan style="font: 14px 'Arial'" x="16.479395 20.369043 28.544824 32.434473" y="-0.5625"> = 2</tspan>
      </text>
     </g>
    </g>
    <g id="line2d_39">
     <path d="M 241.86 303.3375 
L 255.86 303.3375 
L 269.86 303.3375 
" style="fill: none; stroke: #0173b2; stroke-width: 2; stroke-linecap: round"/>
    </g>
    <g id="text_19">
     <!-- $\it{\widebar{R}_0}$ = 2.5 -->
     <g style="fill: #262626" transform="translate(281.06 308.2375)">
      <text>
       <tspan style="font: 9.727539px 'STIXSizeOneSym'" x="11.150635" y="-5.03125">̅</tspan>
       <tspan style="font: oblique 14px 'DejaVu Sans'" x="0" y="-0.5625">R</tspan>
       <tspan style="font: 9.8px 'DejaVu Sans'" x="9.861523" y="1.734375">0</tspan>
       <tspan style="font: 14px 'Arial'" x="16.479395 20.369043 28.544824 32.434473 40.220605 44.110254" y="-0.5625"> = 2.5</tspan>
      </text>
     </g>
    </g>
    <g id="line2d_40">
     <path d="M 241.86 325.3175 
L 255.86 325.3175 
L 269.86 325.3175 
" style="fill: none; stroke: #029e73; stroke-width: 2; stroke-linecap: round"/>
    </g>
    <g id="text_20">
     <!-- $\it{\widebar{R}_0}$ = 3 -->
     <g style="fill: #262626" transform="translate(281.06 330.2175)">
      <text>
       <tspan style="font: 9.727539px 'STIXSizeOneSym'" x="11.150635" y="-5.03125">̅</tspan>
       <tspan style="font: oblique 14px 'DejaVu Sans'" x="0" y="-0.5625">R</tspan>
       <tspan style="font: 9.8px 'DejaVu Sans'" x="9.861523" y="1.734375">0</tspan>
       <tspan style="font: 14px 'Arial'" x="16.479395 20.369043 28.544824 32.434473" y="-0.5625"> = 3</tspan>
      </text>
     </g>
    </g>
   </g>
  </g>
 </g>
 <defs>
  <clipPath id="p47f2cce6d2">
   <rect x="86.4" y="86.4" width="259.2" height="259.2"/>
  </clipPath>
 </defs>
</svg>
