<?xml version="1.0" encoding="utf-8" standalone="no"?>
<!DOCTYPE svg PUBLIC "-//W3C//DTD SVG 1.1//EN"
  "http://www.w3.org/Graphics/SVG/1.1/DTD/svg11.dtd">
<svg xmlns:xlink="http://www.w3.org/1999/xlink" width="432pt" height="432pt" viewBox="0 0 432 432" xmlns="http://www.w3.org/2000/svg" version="1.1">
 <metadata>
  <rdf:RDF xmlns:dc="http://purl.org/dc/elements/1.1/" xmlns:cc="http://creativecommons.org/ns#" xmlns:rdf="http://www.w3.org/1999/02/22-rdf-syntax-ns#">
   <cc:Work>
    <dc:type rdf:resource="http://purl.org/dc/dcmitype/StillImage"/>
    <dc:date>2024-05-30T15:30:13.775004</dc:date>
    <dc:format>image/svg+xml</dc:format>
    <dc:creator>
     <cc:Agent>
      <dc:title>Matplotlib v3.8.4, https://matplotlib.org/</dc:title>
     </cc:Agent>
    </dc:creator>
   </cc:Work>
  </rdf:RDF>
 </metadata>
 <defs>
  <style type="text/css">*{stroke-linejoin: round; stroke-linecap: butt}</style>
 </defs>
 <g id="figure_1">
  <g id="patch_1">
   <path d="M 0 432 
L 432 432 
L 432 0 
L 0 0 
L 0 432 
z
" style="fill: none"/>
  </g>
  <g id="axes_1">
   <g id="patch_2">
    <path d="M 86.4 345.6 
L 345.6 345.6 
L 345.6 86.4 
L 86.4 86.4 
L 86.4 345.6 
z
" style="fill: none"/>
   </g>
   <g id="matplotlib.axis_1">
    <g id="xtick_1">
     <g id="line2d_1">
      <defs>
       <path id="mbdde43b4d9" d="M 0 0 
L 0 6 
" style="stroke: #262626; stroke-width: 1.25"/>
      </defs>
      <g>
       <use xlink:href="#mbdde43b4d9" x="86.4" y="345.6" style="fill: #262626; stroke: #262626; stroke-width: 1.25"/>
      </g>
     </g>
     <g id="text_1">
      <text style="fill: #262626; font: 16px 'Arial', 'DejaVu Sans', 'Liberation Sans', 'Bitstream Vera Sans', sans-serif; text-anchor: middle" x="86.4" y="366.5525" transform="rotate(-0 86.4 366.5525)">Jan</text>
     </g>
    </g>
    <g id="xtick_2">
     <g id="line2d_2">
      <g>
       <use xlink:href="#mbdde43b4d9" x="97.2" y="345.6" style="fill: #262626; stroke: #262626; stroke-width: 1.25"/>
      </g>
     </g>
    </g>
    <g id="xtick_3">
     <g id="line2d_3">
      <g>
       <use xlink:href="#mbdde43b4d9" x="108" y="345.6" style="fill: #262626; stroke: #262626; stroke-width: 1.25"/>
      </g>
     </g>
    </g>
    <g id="xtick_4">
     <g id="line2d_4">
      <g>
       <use xlink:href="#mbdde43b4d9" x="118.8" y="345.6" style="fill: #262626; stroke: #262626; stroke-width: 1.25"/>
      </g>
     </g>
     <g id="text_2">
      <text style="fill: #262626; font: 16px 'Arial', 'DejaVu Sans', 'Liberation Sans', 'Bitstream Vera Sans', sans-serif; text-anchor: middle" x="118.8" y="366.5525" transform="rotate(-0 118.8 366.5525)">Apr</text>
     </g>
    </g>
    <g id="xtick_5">
     <g id="line2d_5">
      <g>
       <use xlink:href="#mbdde43b4d9" x="129.6" y="345.6" style="fill: #262626; stroke: #262626; stroke-width: 1.25"/>
      </g>
     </g>
    </g>
    <g id="xtick_6">
     <g id="line2d_6">
      <g>
       <use xlink:href="#mbdde43b4d9" x="140.4" y="345.6" style="fill: #262626; stroke: #262626; stroke-width: 1.25"/>
      </g>
     </g>
    </g>
    <g id="xtick_7">
     <g id="line2d_7">
      <g>
       <use xlink:href="#mbdde43b4d9" x="151.2" y="345.6" style="fill: #262626; stroke: #262626; stroke-width: 1.25"/>
      </g>
     </g>
     <g id="text_3">
      <text style="fill: #262626; font: 16px 'Arial', 'DejaVu Sans', 'Liberation Sans', 'Bitstream Vera Sans', sans-serif; text-anchor: middle" x="151.2" y="366.5525" transform="rotate(-0 151.2 366.5525)">Jul</text>
     </g>
    </g>
    <g id="xtick_8">
     <g id="line2d_8">
      <g>
       <use xlink:href="#mbdde43b4d9" x="162" y="345.6" style="fill: #262626; stroke: #262626; stroke-width: 1.25"/>
      </g>
     </g>
    </g>
    <g id="xtick_9">
     <g id="line2d_9">
      <g>
       <use xlink:href="#mbdde43b4d9" x="172.8" y="345.6" style="fill: #262626; stroke: #262626; stroke-width: 1.25"/>
      </g>
     </g>
    </g>
    <g id="xtick_10">
     <g id="line2d_10">
      <g>
       <use xlink:href="#mbdde43b4d9" x="183.6" y="345.6" style="fill: #262626; stroke: #262626; stroke-width: 1.25"/>
      </g>
     </g>
     <g id="text_4">
      <text style="fill: #262626; font: 16px 'Arial', 'DejaVu Sans', 'Liberation Sans', 'Bitstream Vera Sans', sans-serif; text-anchor: middle" x="183.6" y="366.5525" transform="rotate(-0 183.6 366.5525)">Oct</text>
     </g>
    </g>
    <g id="xtick_11">
     <g id="line2d_11">
      <g>
       <use xlink:href="#mbdde43b4d9" x="194.4" y="345.6" style="fill: #262626; stroke: #262626; stroke-width: 1.25"/>
      </g>
     </g>
    </g>
    <g id="xtick_12">
     <g id="line2d_12">
      <g>
       <use xlink:href="#mbdde43b4d9" x="205.2" y="345.6" style="fill: #262626; stroke: #262626; stroke-width: 1.25"/>
      </g>
     </g>
    </g>
    <g id="xtick_13">
     <g id="line2d_13">
      <g>
       <use xlink:href="#mbdde43b4d9" x="216" y="345.6" style="fill: #262626; stroke: #262626; stroke-width: 1.25"/>
      </g>
     </g>
     <g id="text_5">
      <text style="fill: #262626; font: 16px 'Arial', 'DejaVu Sans', 'Liberation Sans', 'Bitstream Vera Sans', sans-serif; text-anchor: middle" x="216" y="366.5525" transform="rotate(-0 216 366.5525)">Jan</text>
     </g>
    </g>
    <g id="xtick_14">
     <g id="line2d_14">
      <g>
       <use xlink:href="#mbdde43b4d9" x="216" y="345.6" style="fill: #262626; stroke: #262626; stroke-width: 1.25"/>
      </g>
     </g>
     <g id="text_6">
      <text style="fill: #262626; font: 16px 'Arial', 'DejaVu Sans', 'Liberation Sans', 'Bitstream Vera Sans', sans-serif; text-anchor: middle" x="216" y="366.5525" transform="rotate(-0 216 366.5525)">Jan</text>
     </g>
    </g>
    <g id="xtick_15">
     <g id="line2d_15">
      <g>
       <use xlink:href="#mbdde43b4d9" x="226.8" y="345.6" style="fill: #262626; stroke: #262626; stroke-width: 1.25"/>
      </g>
     </g>
    </g>
    <g id="xtick_16">
     <g id="line2d_16">
      <g>
       <use xlink:href="#mbdde43b4d9" x="237.6" y="345.6" style="fill: #262626; stroke: #262626; stroke-width: 1.25"/>
      </g>
     </g>
    </g>
    <g id="xtick_17">
     <g id="line2d_17">
      <g>
       <use xlink:href="#mbdde43b4d9" x="248.4" y="345.6" style="fill: #262626; stroke: #262626; stroke-width: 1.25"/>
      </g>
     </g>
     <g id="text_7">
      <text style="fill: #262626; font: 16px 'Arial', 'DejaVu Sans', 'Liberation Sans', 'Bitstream Vera Sans', sans-serif; text-anchor: middle" x="248.4" y="366.5525" transform="rotate(-0 248.4 366.5525)">Apr</text>
     </g>
    </g>
    <g id="xtick_18">
     <g id="line2d_18">
      <g>
       <use xlink:href="#mbdde43b4d9" x="259.2" y="345.6" style="fill: #262626; stroke: #262626; stroke-width: 1.25"/>
      </g>
     </g>
    </g>
    <g id="xtick_19">
     <g id="line2d_19">
      <g>
       <use xlink:href="#mbdde43b4d9" x="270" y="345.6" style="fill: #262626; stroke: #262626; stroke-width: 1.25"/>
      </g>
     </g>
    </g>
    <g id="xtick_20">
     <g id="line2d_20">
      <g>
       <use xlink:href="#mbdde43b4d9" x="280.8" y="345.6" style="fill: #262626; stroke: #262626; stroke-width: 1.25"/>
      </g>
     </g>
     <g id="text_8">
      <text style="fill: #262626; font: 16px 'Arial', 'DejaVu Sans', 'Liberation Sans', 'Bitstream Vera Sans', sans-serif; text-anchor: middle" x="280.8" y="366.5525" transform="rotate(-0 280.8 366.5525)">Jul</text>
     </g>
    </g>
    <g id="xtick_21">
     <g id="line2d_21">
      <g>
       <use xlink:href="#mbdde43b4d9" x="291.6" y="345.6" style="fill: #262626; stroke: #262626; stroke-width: 1.25"/>
      </g>
     </g>
    </g>
    <g id="xtick_22">
     <g id="line2d_22">
      <g>
       <use xlink:href="#mbdde43b4d9" x="302.4" y="345.6" style="fill: #262626; stroke: #262626; stroke-width: 1.25"/>
      </g>
     </g>
    </g>
    <g id="xtick_23">
     <g id="line2d_23">
      <g>
       <use xlink:href="#mbdde43b4d9" x="313.2" y="345.6" style="fill: #262626; stroke: #262626; stroke-width: 1.25"/>
      </g>
     </g>
     <g id="text_9">
      <text style="fill: #262626; font: 16px 'Arial', 'DejaVu Sans', 'Liberation Sans', 'Bitstream Vera Sans', sans-serif; text-anchor: middle" x="313.2" y="366.5525" transform="rotate(-0 313.2 366.5525)">Oct</text>
     </g>
    </g>
    <g id="xtick_24">
     <g id="line2d_24">
      <g>
       <use xlink:href="#mbdde43b4d9" x="324" y="345.6" style="fill: #262626; stroke: #262626; stroke-width: 1.25"/>
      </g>
     </g>
    </g>
    <g id="xtick_25">
     <g id="line2d_25">
      <g>
       <use xlink:href="#mbdde43b4d9" x="334.8" y="345.6" style="fill: #262626; stroke: #262626; stroke-width: 1.25"/>
      </g>
     </g>
    </g>
    <g id="xtick_26">
     <g id="line2d_26">
      <g>
       <use xlink:href="#mbdde43b4d9" x="345.6" y="345.6" style="fill: #262626; stroke: #262626; stroke-width: 1.25"/>
      </g>
     </g>
     <g id="text_10">
      <text style="fill: #262626; font: 16px 'Arial', 'DejaVu Sans', 'Liberation Sans', 'Bitstream Vera Sans', sans-serif; text-anchor: middle" x="345.6" y="366.5525" transform="rotate(-0 345.6 366.5525)">Jan</text>
     </g>
    </g>
    <g id="text_11">
     <text style="fill: #262626; font: 16px 'Arial', 'DejaVu Sans', 'Liberation Sans', 'Bitstream Vera Sans', sans-serif; text-anchor: middle" x="216" y="385.185" transform="rotate(-0 216 385.185)"> </text>
    </g>
   </g>
   <g id="matplotlib.axis_2">
    <g id="ytick_1">
     <g id="line2d_27">
      <defs>
       <path id="m0a2d14881c" d="M 0 0 
L -6 0 
" style="stroke: #262626; stroke-width: 1.25"/>
      </defs>
      <g>
       <use xlink:href="#m0a2d14881c" x="86.4" y="345.6" style="fill: #262626; stroke: #262626; stroke-width: 1.25"/>
      </g>
     </g>
     <g id="text_12">
      <text style="fill: #262626; font: 16px 'Arial', 'DejaVu Sans', 'Liberation Sans', 'Bitstream Vera Sans', sans-serif; text-anchor: end" x="76.9" y="351.32625" transform="rotate(-0 76.9 351.32625)">0.0</text>
     </g>
    </g>
    <g id="ytick_2">
     <g id="line2d_28">
      <g>
       <use xlink:href="#m0a2d14881c" x="86.4" y="313.2" style="fill: #262626; stroke: #262626; stroke-width: 1.25"/>
      </g>
     </g>
     <g id="text_13">
      <text style="fill: #262626; font: 16px 'Arial', 'DejaVu Sans', 'Liberation Sans', 'Bitstream Vera Sans', sans-serif; text-anchor: end" x="76.9" y="318.92625" transform="rotate(-0 76.9 318.92625)">0.5</text>
     </g>
    </g>
    <g id="ytick_3">
     <g id="line2d_29">
      <g>
       <use xlink:href="#m0a2d14881c" x="86.4" y="280.8" style="fill: #262626; stroke: #262626; stroke-width: 1.25"/>
      </g>
     </g>
     <g id="text_14">
      <text style="fill: #262626; font: 16px 'Arial', 'DejaVu Sans', 'Liberation Sans', 'Bitstream Vera Sans', sans-serif; text-anchor: end" x="76.9" y="286.52625" transform="rotate(-0 76.9 286.52625)">1.0</text>
     </g>
    </g>
    <g id="ytick_4">
     <g id="line2d_30">
      <g>
       <use xlink:href="#m0a2d14881c" x="86.4" y="248.4" style="fill: #262626; stroke: #262626; stroke-width: 1.25"/>
      </g>
     </g>
     <g id="text_15">
      <text style="fill: #262626; font: 16px 'Arial', 'DejaVu Sans', 'Liberation Sans', 'Bitstream Vera Sans', sans-serif; text-anchor: end" x="76.9" y="254.12625" transform="rotate(-0 76.9 254.12625)">1.5</text>
     </g>
    </g>
    <g id="ytick_5">
     <g id="line2d_31">
      <g>
       <use xlink:href="#m0a2d14881c" x="86.4" y="216" style="fill: #262626; stroke: #262626; stroke-width: 1.25"/>
      </g>
     </g>
     <g id="text_16">
      <text style="fill: #262626; font: 16px 'Arial', 'DejaVu Sans', 'Liberation Sans', 'Bitstream Vera Sans', sans-serif; text-anchor: end" x="76.9" y="221.72625" transform="rotate(-0 76.9 221.72625)">2.0</text>
     </g>
    </g>
    <g id="ytick_6">
     <g id="line2d_32">
      <g>
       <use xlink:href="#m0a2d14881c" x="86.4" y="183.6" style="fill: #262626; stroke: #262626; stroke-width: 1.25"/>
      </g>
     </g>
     <g id="text_17">
      <text style="fill: #262626; font: 16px 'Arial', 'DejaVu Sans', 'Liberation Sans', 'Bitstream Vera Sans', sans-serif; text-anchor: end" x="76.9" y="189.32625" transform="rotate(-0 76.9 189.32625)">2.5</text>
     </g>
    </g>
    <g id="ytick_7">
     <g id="line2d_33">
      <g>
       <use xlink:href="#m0a2d14881c" x="86.4" y="151.2" style="fill: #262626; stroke: #262626; stroke-width: 1.25"/>
      </g>
     </g>
     <g id="text_18">
      <text style="fill: #262626; font: 16px 'Arial', 'DejaVu Sans', 'Liberation Sans', 'Bitstream Vera Sans', sans-serif; text-anchor: end" x="76.9" y="156.92625" transform="rotate(-0 76.9 156.92625)">3.0</text>
     </g>
    </g>
    <g id="ytick_8">
     <g id="line2d_34">
      <g>
       <use xlink:href="#m0a2d14881c" x="86.4" y="118.8" style="fill: #262626; stroke: #262626; stroke-width: 1.25"/>
      </g>
     </g>
     <g id="text_19">
      <text style="fill: #262626; font: 16px 'Arial', 'DejaVu Sans', 'Liberation Sans', 'Bitstream Vera Sans', sans-serif; text-anchor: end" x="76.9" y="124.52625" transform="rotate(-0 76.9 124.52625)">3.5</text>
     </g>
    </g>
    <g id="ytick_9">
     <g id="line2d_35">
      <g>
       <use xlink:href="#m0a2d14881c" x="86.4" y="86.4" style="fill: #262626; stroke: #262626; stroke-width: 1.25"/>
      </g>
     </g>
     <g id="text_20">
      <text style="fill: #262626; font: 16px 'Arial', 'DejaVu Sans', 'Liberation Sans', 'Bitstream Vera Sans', sans-serif; text-anchor: end" x="76.9" y="92.12625" transform="rotate(-0 76.9 92.12625)">4.0</text>
     </g>
    </g>
    <g id="text_21">
     <text style="fill: #262626; font: 16px 'Arial', 'DejaVu Sans', 'Liberation Sans', 'Bitstream Vera Sans', sans-serif; text-anchor: middle" x="47.48" y="216" transform="rotate(-90 47.48 216)">Instantaneous reproduction number</text>
    </g>
   </g>
   <g id="line2d_36">
    <path d="M 86.4 190.08 
L 88.2 190.178633 
L 90 190.473783 
L 91.8 190.963203 
L 93.96 191.801595 
L 96.12 192.905111 
L 98.28 194.261659 
L 100.8 196.144128 
L 103.32 198.322603 
L 106.2 201.132899 
L 109.44 204.63742 
L 113.4 209.29141 
L 119.52 216.904595 
L 126 224.865162 
L 129.6 228.96 
L 132.84 232.311985 
L 135.72 234.956688 
L 138.24 236.96972 
L 140.4 238.447378 
L 142.56 239.679098 
L 144.72 240.651385 
L 146.88 241.353586 
L 148.68 241.726796 
L 150.48 241.90421 
L 152.28 241.884478 
L 154.08 241.667748 
L 155.88 241.255672 
L 158.04 240.507841 
L 160.2 239.491498 
L 162.36 238.217776 
L 164.52 236.700632 
L 167.04 234.645288 
L 169.56 232.311985 
L 172.44 229.349787 
L 176.04 225.288897 
L 180.36 220.054781 
L 192.24 205.457386 
L 195.84 201.50572 
L 198.72 198.656135 
L 201.24 196.437928 
L 203.76 194.511346 
L 205.92 193.113998 
L 208.08 191.967394 
L 210.24 191.084097 
L 212.4 190.473783 
L 214.2 190.178633 
L 216 190.08 
L 217.8 190.178633 
L 219.6 190.473783 
L 221.4 190.963203 
L 223.56 191.801595 
L 225.72 192.905111 
L 227.88 194.261659 
L 230.4 196.144128 
L 232.92 198.322603 
L 235.8 201.132899 
L 239.04 204.63742 
L 243 209.29141 
L 249.12 216.904595 
L 255.6 224.865162 
L 259.2 228.96 
L 262.44 232.311985 
L 265.32 234.956688 
L 267.84 236.96972 
L 270 238.447378 
L 272.16 239.679098 
L 274.32 240.651385 
L 276.48 241.353586 
L 278.28 241.726796 
L 280.08 241.90421 
L 281.88 241.884478 
L 283.68 241.667748 
L 285.48 241.255672 
L 287.64 240.507841 
L 289.8 239.491498 
L 291.96 238.217776 
L 294.12 236.700632 
L 296.64 234.645288 
L 299.16 232.311985 
L 302.04 229.349787 
L 305.64 225.288897 
L 309.96 220.054781 
L 321.84 205.457386 
L 325.44 201.50572 
L 328.32 198.656135 
L 330.84 196.437928 
L 333.36 194.511346 
L 335.52 193.113998 
L 337.68 191.967394 
L 339.84 191.084097 
L 342 190.473783 
L 343.8 190.178633 
L 345.24 190.083948 
L 345.24 190.083948 
" clip-path="url(#pa25aaa154e)" style="fill: none; stroke: #dd8452; stroke-width: 2; stroke-linecap: round"/>
   </g>
   <g id="line2d_37">
    <path d="M 86.4 151.2 
L 88.2 151.323292 
L 90 151.692229 
L 91.8 152.304003 
L 93.6 153.153959 
L 95.4 154.235628 
L 97.56 155.827779 
L 99.72 157.724209 
L 101.88 159.90414 
L 104.4 162.773681 
L 107.28 166.430616 
L 110.52 170.940311 
L 114.48 176.863661 
L 128.52 198.309292 
L 131.76 202.644242 
L 134.64 206.106931 
L 137.16 208.779529 
L 139.32 210.772926 
L 141.48 212.468611 
L 143.64 213.848006 
L 145.44 214.744879 
L 147.24 215.404721 
L 149.04 215.822509 
L 150.84 215.995065 
L 152.64 215.921075 
L 154.44 215.601102 
L 156.24 215.037582 
L 158.04 214.234802 
L 159.84 213.198873 
L 161.64 211.937679 
L 163.8 210.140526 
L 165.96 208.05259 
L 168.48 205.279832 
L 171 202.183877 
L 173.88 198.309292 
L 177.48 193.072843 
L 182.52 185.295685 
L 190.44 173.051592 
L 194.04 167.892168 
L 196.92 164.101193 
L 199.44 161.093069 
L 201.96 158.420471 
L 204.12 156.427074 
L 206.28 154.731389 
L 208.44 153.351994 
L 210.24 152.455121 
L 212.04 151.795279 
L 213.84 151.377491 
L 215.64 151.204935 
L 217.44 151.278925 
L 219.24 151.598898 
L 221.04 152.162418 
L 222.84 152.965198 
L 224.64 154.001127 
L 226.44 155.262321 
L 228.6 157.059474 
L 230.76 159.14741 
L 233.28 161.920168 
L 235.8 165.016123 
L 238.68 168.890708 
L 242.28 174.127157 
L 247.32 181.904315 
L 255.24 194.148408 
L 258.84 199.307832 
L 261.72 203.098807 
L 264.24 206.106931 
L 266.76 208.779529 
L 268.92 210.772926 
L 271.08 212.468611 
L 273.24 213.848006 
L 275.04 214.744879 
L 276.84 215.404721 
L 278.64 215.822509 
L 280.44 215.995065 
L 282.24 215.921075 
L 284.04 215.601102 
L 285.84 215.037582 
L 287.64 214.234802 
L 289.44 213.198873 
L 291.24 211.937679 
L 293.4 210.140526 
L 295.56 208.05259 
L 298.08 205.279832 
L 300.6 202.183877 
L 303.48 198.309292 
L 307.08 193.072843 
L 312.12 185.295685 
L 320.04 173.051592 
L 323.64 167.892168 
L 326.52 164.101193 
L 329.04 161.093069 
L 331.56 158.420471 
L 333.72 156.427074 
L 335.88 154.731389 
L 338.04 153.351994 
L 339.84 152.455121 
L 341.64 151.795279 
L 343.44 151.377491 
L 345.24 151.204935 
L 345.24 151.204935 
" clip-path="url(#pa25aaa154e)" style="fill: none; stroke: #4c72b0; stroke-width: 2; stroke-linecap: round"/>
   </g>
   <g id="line2d_38">
    <path d="M 86.4 112.32 
L 87.84 112.41471 
L 89.28 112.698377 
L 90.72 113.169621 
L 92.52 114.018871 
L 94.32 115.151092 
L 96.12 116.557666 
L 97.92 118.22789 
L 100.08 120.562142 
L 102.24 123.232069 
L 104.76 126.732023 
L 107.64 131.17532 
L 110.88 136.635296 
L 114.84 143.781346 
L 128.16 168.24387 
L 131.4 173.500652 
L 133.92 177.215798 
L 136.44 180.543108 
L 138.6 183.048631 
L 140.76 185.205214 
L 142.56 186.718647 
L 144.36 187.961762 
L 146.16 188.925098 
L 147.96 189.601323 
L 149.4 189.93205 
L 150.84 190.074078 
L 152.28 190.026716 
L 153.72 189.790194 
L 155.16 189.365665 
L 156.96 188.573855 
L 158.76 187.497607 
L 160.56 186.145113 
L 162.36 184.526665 
L 164.52 182.250949 
L 166.68 179.635032 
L 169.2 176.191582 
L 171.72 172.375566 
L 174.6 167.631398 
L 178.2 161.262884 
L 183.96 150.52145 
L 190.44 138.54191 
L 194.04 132.350602 
L 196.92 127.801432 
L 199.44 124.191683 
L 201.96 120.984565 
L 204.12 118.592488 
L 206.28 116.557666 
L 208.08 115.151092 
L 209.88 114.018871 
L 211.68 113.169621 
L 213.48 112.609806 
L 214.92 112.373284 
L 216.36 112.325922 
L 217.8 112.46795 
L 219.24 112.798677 
L 221.04 113.474902 
L 222.84 114.438238 
L 224.64 115.681353 
L 226.44 117.194786 
L 228.24 118.967019 
L 230.4 121.416192 
L 232.56 124.191683 
L 235.08 127.801432 
L 237.96 132.350602 
L 241.2 137.902257 
L 245.52 145.78895 
L 256.32 165.764704 
L 259.56 171.22468 
L 262.44 175.667977 
L 264.96 179.167931 
L 267.12 181.837858 
L 269.28 184.17211 
L 271.44 186.145113 
L 273.24 187.497607 
L 275.04 188.573855 
L 276.84 189.365665 
L 278.64 189.867011 
L 280.08 190.056315 
L 281.52 190.056315 
L 282.96 189.867011 
L 284.4 189.489325 
L 286.2 188.755196 
L 288 187.735249 
L 289.8 186.437247 
L 291.6 184.871068 
L 293.76 182.654581 
L 295.92 180.093471 
L 298.44 176.707575 
L 300.96 172.94142 
L 303.84 168.24387 
L 307.44 161.91678 
L 312.84 151.87855 
L 320.04 138.54191 
L 323.64 132.350602 
L 326.52 127.801432 
L 329.04 124.191683 
L 331.56 120.984565 
L 333.72 118.592488 
L 335.88 116.557666 
L 337.68 115.151092 
L 339.48 114.018871 
L 341.28 113.169621 
L 343.08 112.609806 
L 344.52 112.373284 
L 345.24 112.325922 
L 345.24 112.325922 
" clip-path="url(#pa25aaa154e)" style="fill: none; stroke: #55a868; stroke-width: 2; stroke-linecap: round"/>
   </g>
   <g id="patch_3">
    <path d="M 86.4 345.6 
L 86.4 86.4 
" style="fill: none; stroke: #262626; stroke-width: 1.25; stroke-linejoin: miter; stroke-linecap: square"/>
   </g>
   <g id="patch_4">
    <path d="M 86.4 345.6 
L 345.6 345.6 
" style="fill: none; stroke: #262626; stroke-width: 1.25; stroke-linejoin: miter; stroke-linecap: square"/>
   </g>
   <g id="legend_1">
    <g id="patch_5">
     <path d="M 239.06 338.6 
L 335.8 338.6 
Q 338.6 338.6 338.6 335.8 
L 338.6 271.26 
Q 338.6 268.46 335.8 268.46 
L 239.06 268.46 
Q 236.26 268.46 236.26 271.26 
L 236.26 335.8 
Q 236.26 338.6 239.06 338.6 
z
" style="fill: #ffffff; opacity: 0.8; stroke: #cccccc; stroke-linejoin: miter"/>
    </g>
    <g id="line2d_39">
     <path d="M 241.86 281.3575 
L 255.86 281.3575 
L 269.86 281.3575 
" style="fill: none; stroke: #dd8452; stroke-width: 2; stroke-linecap: round"/>
    </g>
    <g id="text_22">
     <!-- $\it{\widebar{R}_0}$ = 2 -->
     <g style="fill: #262626" transform="translate(281.06 286.2575)">
      <text>
       <tspan style="font: 9.727539px 'STIXSizeOneSym'" x="11.150635" y="-5.03125">̅</tspan>
       <tspan style="font: oblique 14px 'DejaVu Sans'" x="0" y="-0.5625">R</tspan>
       <tspan style="font: 9.8px 'DejaVu Sans'" x="9.861523" y="1.734375">0</tspan>
       <tspan style="font: 14px 'Arial'" x="16.479395 20.369043 28.544824 32.434473" y="-0.5625"> = 2</tspan>
      </text>
     </g>
    </g>
    <g id="line2d_40">
     <path d="M 241.86 303.3375 
L 255.86 303.3375 
L 269.86 303.3375 
" style="fill: none; stroke: #4c72b0; stroke-width: 2; stroke-linecap: round"/>
    </g>
    <g id="text_23">
     <!-- $\it{\widebar{R}_0}$ = 2.5 -->
     <g style="fill: #262626" transform="translate(281.06 308.2375)">
      <text>
       <tspan style="font: 9.727539px 'STIXSizeOneSym'" x="11.150635" y="-5.03125">̅</tspan>
       <tspan style="font: oblique 14px 'DejaVu Sans'" x="0" y="-0.5625">R</tspan>
       <tspan style="font: 9.8px 'DejaVu Sans'" x="9.861523" y="1.734375">0</tspan>
       <tspan style="font: 14px 'Arial'" x="16.479395 20.369043 28.544824 32.434473 40.220605 44.110254" y="-0.5625"> = 2.5</tspan>
      </text>
     </g>
    </g>
    <g id="line2d_41">
     <path d="M 241.86 325.3175 
L 255.86 325.3175 
L 269.86 325.3175 
" style="fill: none; stroke: #55a868; stroke-width: 2; stroke-linecap: round"/>
    </g>
    <g id="text_24">
     <!-- $\it{\widebar{R}_0}$ = 3 -->
     <g style="fill: #262626" transform="translate(281.06 330.2175)">
      <text>
       <tspan style="font: 9.727539px 'STIXSizeOneSym'" x="11.150635" y="-5.03125">̅</tspan>
       <tspan style="font: oblique 14px 'DejaVu Sans'" x="0" y="-0.5625">R</tspan>
       <tspan style="font: 9.8px 'DejaVu Sans'" x="9.861523" y="1.734375">0</tspan>
       <tspan style="font: 14px 'Arial'" x="16.479395 20.369043 28.544824 32.434473" y="-0.5625"> = 3</tspan>
      </text>
     </g>
    </g>
   </g>
  </g>
 </g>
 <defs>
  <clipPath id="pa25aaa154e">
   <rect x="86.4" y="86.4" width="259.2" height="259.2"/>
  </clipPath>
 </defs>
</svg>
