<?xml version="1.0" encoding="utf-8" standalone="no"?>
<!DOCTYPE svg PUBLIC "-//W3C//DTD SVG 1.1//EN"
  "http://www.w3.org/Graphics/SVG/1.1/DTD/svg11.dtd">
<svg xmlns:xlink="http://www.w3.org/1999/xlink" width="432pt" height="432pt" viewBox="0 0 432 432" xmlns="http://www.w3.org/2000/svg" version="1.1">
 <metadata>
  <rdf:RDF xmlns:dc="http://purl.org/dc/elements/1.1/" xmlns:cc="http://creativecommons.org/ns#" xmlns:rdf="http://www.w3.org/1999/02/22-rdf-syntax-ns#">
   <cc:Work>
    <dc:type rdf:resource="http://purl.org/dc/dcmitype/StillImage"/>
    <dc:date>2024-05-15T12:57:37.320871</dc:date>
    <dc:format>image/svg+xml</dc:format>
    <dc:creator>
     <cc:Agent>
      <dc:title>Matplotlib v3.8.4, https://matplotlib.org/</dc:title>
     </cc:Agent>
    </dc:creator>
   </cc:Work>
  </rdf:RDF>
 </metadata>
 <defs>
  <style type="text/css">*{stroke-linejoin: round; stroke-linecap: butt}</style>
 </defs>
 <g id="figure_1">
  <g id="patch_1">
   <path d="M 0 432 
L 432 432 
L 432 0 
L 0 0 
L 0 432 
z
" style="fill: none"/>
  </g>
  <g id="axes_1">
   <g id="patch_2">
    <path d="M 86.4 345.6 
L 345.6 345.6 
L 345.6 86.4 
L 86.4 86.4 
L 86.4 345.6 
z
" style="fill: none"/>
   </g>
   <g id="matplotlib.axis_1">
    <g id="xtick_1">
     <g id="line2d_1">
      <defs>
       <path id="m74c8c37761" d="M 0 0 
L 0 6 
" style="stroke: #262626; stroke-width: 1.25"/>
      </defs>
      <g>
       <use xlink:href="#m74c8c37761" x="86.4" y="345.6" style="fill: #262626; stroke: #262626; stroke-width: 1.25"/>
      </g>
     </g>
     <g id="text_1">
      <text style="fill: #262626; font: 16px 'Arial', 'DejaVu Sans', 'Liberation Sans', 'Bitstream Vera Sans', sans-serif; text-anchor: middle" x="86.4" y="366.5525" transform="rotate(-0 86.4 366.5525)">Jan</text>
     </g>
    </g>
    <g id="xtick_2">
     <g id="line2d_2">
      <g>
       <use xlink:href="#m74c8c37761" x="97.2" y="345.6" style="fill: #262626; stroke: #262626; stroke-width: 1.25"/>
      </g>
     </g>
    </g>
    <g id="xtick_3">
     <g id="line2d_3">
      <g>
       <use xlink:href="#m74c8c37761" x="108" y="345.6" style="fill: #262626; stroke: #262626; stroke-width: 1.25"/>
      </g>
     </g>
    </g>
    <g id="xtick_4">
     <g id="line2d_4">
      <g>
       <use xlink:href="#m74c8c37761" x="118.8" y="345.6" style="fill: #262626; stroke: #262626; stroke-width: 1.25"/>
      </g>
     </g>
     <g id="text_2">
      <text style="fill: #262626; font: 16px 'Arial', 'DejaVu Sans', 'Liberation Sans', 'Bitstream Vera Sans', sans-serif; text-anchor: middle" x="118.8" y="366.5525" transform="rotate(-0 118.8 366.5525)">Apr</text>
     </g>
    </g>
    <g id="xtick_5">
     <g id="line2d_5">
      <g>
       <use xlink:href="#m74c8c37761" x="129.6" y="345.6" style="fill: #262626; stroke: #262626; stroke-width: 1.25"/>
      </g>
     </g>
    </g>
    <g id="xtick_6">
     <g id="line2d_6">
      <g>
       <use xlink:href="#m74c8c37761" x="140.4" y="345.6" style="fill: #262626; stroke: #262626; stroke-width: 1.25"/>
      </g>
     </g>
    </g>
    <g id="xtick_7">
     <g id="line2d_7">
      <g>
       <use xlink:href="#m74c8c37761" x="151.2" y="345.6" style="fill: #262626; stroke: #262626; stroke-width: 1.25"/>
      </g>
     </g>
     <g id="text_3">
      <text style="fill: #262626; font: 16px 'Arial', 'DejaVu Sans', 'Liberation Sans', 'Bitstream Vera Sans', sans-serif; text-anchor: middle" x="151.2" y="366.5525" transform="rotate(-0 151.2 366.5525)">Jul</text>
     </g>
    </g>
    <g id="xtick_8">
     <g id="line2d_8">
      <g>
       <use xlink:href="#m74c8c37761" x="162" y="345.6" style="fill: #262626; stroke: #262626; stroke-width: 1.25"/>
      </g>
     </g>
    </g>
    <g id="xtick_9">
     <g id="line2d_9">
      <g>
       <use xlink:href="#m74c8c37761" x="172.8" y="345.6" style="fill: #262626; stroke: #262626; stroke-width: 1.25"/>
      </g>
     </g>
    </g>
    <g id="xtick_10">
     <g id="line2d_10">
      <g>
       <use xlink:href="#m74c8c37761" x="183.6" y="345.6" style="fill: #262626; stroke: #262626; stroke-width: 1.25"/>
      </g>
     </g>
     <g id="text_4">
      <text style="fill: #262626; font: 16px 'Arial', 'DejaVu Sans', 'Liberation Sans', 'Bitstream Vera Sans', sans-serif; text-anchor: middle" x="183.6" y="366.5525" transform="rotate(-0 183.6 366.5525)">Oct</text>
     </g>
    </g>
    <g id="xtick_11">
     <g id="line2d_11">
      <g>
       <use xlink:href="#m74c8c37761" x="194.4" y="345.6" style="fill: #262626; stroke: #262626; stroke-width: 1.25"/>
      </g>
     </g>
    </g>
    <g id="xtick_12">
     <g id="line2d_12">
      <g>
       <use xlink:href="#m74c8c37761" x="205.2" y="345.6" style="fill: #262626; stroke: #262626; stroke-width: 1.25"/>
      </g>
     </g>
    </g>
    <g id="xtick_13">
     <g id="line2d_13">
      <g>
       <use xlink:href="#m74c8c37761" x="216" y="345.6" style="fill: #262626; stroke: #262626; stroke-width: 1.25"/>
      </g>
     </g>
     <g id="text_5">
      <text style="fill: #262626; font: 16px 'Arial', 'DejaVu Sans', 'Liberation Sans', 'Bitstream Vera Sans', sans-serif; text-anchor: middle" x="216" y="366.5525" transform="rotate(-0 216 366.5525)">Jan</text>
     </g>
    </g>
    <g id="xtick_14">
     <g id="line2d_14">
      <g>
       <use xlink:href="#m74c8c37761" x="216" y="345.6" style="fill: #262626; stroke: #262626; stroke-width: 1.25"/>
      </g>
     </g>
     <g id="text_6">
      <text style="fill: #262626; font: 16px 'Arial', 'DejaVu Sans', 'Liberation Sans', 'Bitstream Vera Sans', sans-serif; text-anchor: middle" x="216" y="366.5525" transform="rotate(-0 216 366.5525)">Jan</text>
     </g>
    </g>
    <g id="xtick_15">
     <g id="line2d_15">
      <g>
       <use xlink:href="#m74c8c37761" x="226.8" y="345.6" style="fill: #262626; stroke: #262626; stroke-width: 1.25"/>
      </g>
     </g>
    </g>
    <g id="xtick_16">
     <g id="line2d_16">
      <g>
       <use xlink:href="#m74c8c37761" x="237.6" y="345.6" style="fill: #262626; stroke: #262626; stroke-width: 1.25"/>
      </g>
     </g>
    </g>
    <g id="xtick_17">
     <g id="line2d_17">
      <g>
       <use xlink:href="#m74c8c37761" x="248.4" y="345.6" style="fill: #262626; stroke: #262626; stroke-width: 1.25"/>
      </g>
     </g>
     <g id="text_7">
      <text style="fill: #262626; font: 16px 'Arial', 'DejaVu Sans', 'Liberation Sans', 'Bitstream Vera Sans', sans-serif; text-anchor: middle" x="248.4" y="366.5525" transform="rotate(-0 248.4 366.5525)">Apr</text>
     </g>
    </g>
    <g id="xtick_18">
     <g id="line2d_18">
      <g>
       <use xlink:href="#m74c8c37761" x="259.2" y="345.6" style="fill: #262626; stroke: #262626; stroke-width: 1.25"/>
      </g>
     </g>
    </g>
    <g id="xtick_19">
     <g id="line2d_19">
      <g>
       <use xlink:href="#m74c8c37761" x="270" y="345.6" style="fill: #262626; stroke: #262626; stroke-width: 1.25"/>
      </g>
     </g>
    </g>
    <g id="xtick_20">
     <g id="line2d_20">
      <g>
       <use xlink:href="#m74c8c37761" x="280.8" y="345.6" style="fill: #262626; stroke: #262626; stroke-width: 1.25"/>
      </g>
     </g>
     <g id="text_8">
      <text style="fill: #262626; font: 16px 'Arial', 'DejaVu Sans', 'Liberation Sans', 'Bitstream Vera Sans', sans-serif; text-anchor: middle" x="280.8" y="366.5525" transform="rotate(-0 280.8 366.5525)">Jul</text>
     </g>
    </g>
    <g id="xtick_21">
     <g id="line2d_21">
      <g>
       <use xlink:href="#m74c8c37761" x="291.6" y="345.6" style="fill: #262626; stroke: #262626; stroke-width: 1.25"/>
      </g>
     </g>
    </g>
    <g id="xtick_22">
     <g id="line2d_22">
      <g>
       <use xlink:href="#m74c8c37761" x="302.4" y="345.6" style="fill: #262626; stroke: #262626; stroke-width: 1.25"/>
      </g>
     </g>
    </g>
    <g id="xtick_23">
     <g id="line2d_23">
      <g>
       <use xlink:href="#m74c8c37761" x="313.2" y="345.6" style="fill: #262626; stroke: #262626; stroke-width: 1.25"/>
      </g>
     </g>
     <g id="text_9">
      <text style="fill: #262626; font: 16px 'Arial', 'DejaVu Sans', 'Liberation Sans', 'Bitstream Vera Sans', sans-serif; text-anchor: middle" x="313.2" y="366.5525" transform="rotate(-0 313.2 366.5525)">Oct</text>
     </g>
    </g>
    <g id="xtick_24">
     <g id="line2d_24">
      <g>
       <use xlink:href="#m74c8c37761" x="324" y="345.6" style="fill: #262626; stroke: #262626; stroke-width: 1.25"/>
      </g>
     </g>
    </g>
    <g id="xtick_25">
     <g id="line2d_25">
      <g>
       <use xlink:href="#m74c8c37761" x="334.8" y="345.6" style="fill: #262626; stroke: #262626; stroke-width: 1.25"/>
      </g>
     </g>
    </g>
    <g id="xtick_26">
     <g id="line2d_26">
      <g>
       <use xlink:href="#m74c8c37761" x="345.6" y="345.6" style="fill: #262626; stroke: #262626; stroke-width: 1.25"/>
      </g>
     </g>
     <g id="text_10">
      <text style="fill: #262626; font: 16px 'Arial', 'DejaVu Sans', 'Liberation Sans', 'Bitstream Vera Sans', sans-serif; text-anchor: middle" x="345.6" y="366.5525" transform="rotate(-0 345.6 366.5525)">Jan</text>
     </g>
    </g>
    <g id="text_11">
     <text style="fill: #262626; font: 16px 'Arial', 'DejaVu Sans', 'Liberation Sans', 'Bitstream Vera Sans', sans-serif; text-anchor: middle" x="216" y="385.185" transform="rotate(-0 216 385.185)"> </text>
    </g>
   </g>
   <g id="matplotlib.axis_2">
    <g id="ytick_1">
     <g id="line2d_27">
      <defs>
       <path id="m3c3a71a949" d="M 0 0 
L -6 0 
" style="stroke: #262626; stroke-width: 1.25"/>
      </defs>
      <g>
       <use xlink:href="#m3c3a71a949" x="86.4" y="345.6" style="fill: #262626; stroke: #262626; stroke-width: 1.25"/>
      </g>
     </g>
     <g id="text_12">
      <text style="fill: #262626; font: 16px 'Arial', 'DejaVu Sans', 'Liberation Sans', 'Bitstream Vera Sans', sans-serif; text-anchor: end" x="76.9" y="351.32625" transform="rotate(-0 76.9 351.32625)">0.0</text>
     </g>
    </g>
    <g id="ytick_2">
     <g id="line2d_28">
      <g>
       <use xlink:href="#m3c3a71a949" x="86.4" y="293.76" style="fill: #262626; stroke: #262626; stroke-width: 1.25"/>
      </g>
     </g>
     <g id="text_13">
      <text style="fill: #262626; font: 16px 'Arial', 'DejaVu Sans', 'Liberation Sans', 'Bitstream Vera Sans', sans-serif; text-anchor: end" x="76.9" y="299.48625" transform="rotate(-0 76.9 299.48625)">0.1</text>
     </g>
    </g>
    <g id="ytick_3">
     <g id="line2d_29">
      <g>
       <use xlink:href="#m3c3a71a949" x="86.4" y="241.92" style="fill: #262626; stroke: #262626; stroke-width: 1.25"/>
      </g>
     </g>
     <g id="text_14">
      <text style="fill: #262626; font: 16px 'Arial', 'DejaVu Sans', 'Liberation Sans', 'Bitstream Vera Sans', sans-serif; text-anchor: end" x="76.9" y="247.64625" transform="rotate(-0 76.9 247.64625)">0.2</text>
     </g>
    </g>
    <g id="ytick_4">
     <g id="line2d_30">
      <g>
       <use xlink:href="#m3c3a71a949" x="86.4" y="190.08" style="fill: #262626; stroke: #262626; stroke-width: 1.25"/>
      </g>
     </g>
     <g id="text_15">
      <text style="fill: #262626; font: 16px 'Arial', 'DejaVu Sans', 'Liberation Sans', 'Bitstream Vera Sans', sans-serif; text-anchor: end" x="76.9" y="195.80625" transform="rotate(-0 76.9 195.80625)">0.3</text>
     </g>
    </g>
    <g id="ytick_5">
     <g id="line2d_31">
      <g>
       <use xlink:href="#m3c3a71a949" x="86.4" y="138.24" style="fill: #262626; stroke: #262626; stroke-width: 1.25"/>
      </g>
     </g>
     <g id="text_16">
      <text style="fill: #262626; font: 16px 'Arial', 'DejaVu Sans', 'Liberation Sans', 'Bitstream Vera Sans', sans-serif; text-anchor: end" x="76.9" y="143.96625" transform="rotate(-0 76.9 143.96625)">0.4</text>
     </g>
    </g>
    <g id="ytick_6">
     <g id="line2d_32">
      <g>
       <use xlink:href="#m3c3a71a949" x="86.4" y="86.4" style="fill: #262626; stroke: #262626; stroke-width: 1.25"/>
      </g>
     </g>
     <g id="text_17">
      <text style="fill: #262626; font: 16px 'Arial', 'DejaVu Sans', 'Liberation Sans', 'Bitstream Vera Sans', sans-serif; text-anchor: end" x="76.9" y="92.12625" transform="rotate(-0 76.9 92.12625)">0.5</text>
     </g>
    </g>
    <g id="text_18">
     <text style="fill: #262626; font: 16px 'Arial', 'DejaVu Sans', 'Liberation Sans', 'Bitstream Vera Sans', sans-serif; text-anchor: middle" x="47.48" y="216" transform="rotate(-90 47.48 216)">Case outbreak risk</text>
    </g>
   </g>
   <g id="PolyCollection_1">
    <defs>
     <path id="m541c96818d" d="M 201.6 -86.4 
L 172.8 -86.4 
L 172.8 -345.6 
L 201.6 -345.6 
L 201.6 -345.6 
L 201.6 -86.4 
z
"/>
    </defs>
    <g clip-path="url(#pcabbf8557f)">
     <use xlink:href="#m541c96818d" x="0" y="432" style="fill: #808080; fill-opacity: 0.5"/>
    </g>
   </g>
   <g id="PolyCollection_2">
    <defs>
     <path id="m71f028d8ad" d="M 331.2 -86.4 
L 302.4 -86.4 
L 302.4 -345.6 
L 331.2 -345.6 
L 331.2 -345.6 
L 331.2 -86.4 
z
"/>
    </defs>
    <g clip-path="url(#pcabbf8557f)">
     <use xlink:href="#m71f028d8ad" x="0" y="432" style="fill: #808080; fill-opacity: 0.5"/>
    </g>
   </g>
   <g id="line2d_33">
    <path d="M 86.4 134.609523 
L 88.2 135.044007 
L 90 135.761374 
L 91.8 136.763242 
L 93.6 138.051467 
L 95.4 139.628084 
L 97.2 141.495239 
L 99 143.655078 
L 101.16 146.636043 
L 103.32 150.044205 
L 105.48 153.881202 
L 107.64 158.146725 
L 110.16 163.660278 
L 112.68 169.740154 
L 115.56 177.351095 
L 118.44 185.609153 
L 122.04 196.683561 
L 128.88 218.772574 
L 132.12 228.78785 
L 134.64 235.883227 
L 136.8 241.254132 
L 138.6 245.112606 
L 140.04 247.744017 
L 141.48 249.94086 
L 142.92 251.684096 
L 144 252.686751 
L 145.08 253.425591 
L 146.16 253.900523 
L 147.24 254.113283 
L 148.32 254.067229 
L 149.4 253.767147 
L 150.48 253.219082 
L 151.56 252.430191 
L 152.64 251.408622 
L 154.08 249.700323 
L 155.52 247.618153 
L 157.32 244.529277 
L 159.12 240.951503 
L 161.28 236.095471 
L 163.8 229.788886 
L 166.68 221.947507 
L 171 209.449301 
L 178.56 187.492755 
L 182.16 177.747463 
L 185.4 169.635372 
L 188.28 163.040433 
L 190.8 157.788714 
L 193.32 153.046359 
L 195.48 149.399014 
L 197.64 146.143997 
L 199.8 143.285369 
L 201.96 140.825506 
L 203.76 139.081161 
L 205.56 137.614984 
L 207.36 136.427181 
L 209.16 135.517924 
L 210.96 134.887458 
L 212.76 134.53618 
L 214.2 134.45657 
L 215.64 134.556448 
L 217.08 134.836349 
L 218.88 135.440383 
L 220.68 136.328241 
L 222.48 137.501687 
L 224.28 138.962694 
L 226.08 140.713374 
L 227.88 142.755887 
L 229.68 145.092318 
L 231.84 148.286586 
L 234 151.909063 
L 236.16 155.960518 
L 238.32 160.439324 
L 240.84 166.197667 
L 243.36 172.513833 
L 246.24 180.37643 
L 249.48 189.951364 
L 253.44 202.445745 
L 261.36 227.71593 
L 263.88 234.918952 
L 266.04 240.411903 
L 267.84 244.389844 
L 269.28 247.125986 
L 270.72 249.433566 
L 272.16 251.291559 
L 273.24 252.381784 
L 274.32 253.208669 
L 275.4 253.771464 
L 276.48 254.071317 
L 277.56 254.111069 
L 278.64 253.89505 
L 279.72 253.428904 
L 280.8 252.71943 
L 281.88 251.774458 
L 283.32 250.163411 
L 284.76 248.172367 
L 286.2 245.826656 
L 288 242.437607 
L 289.8 238.594396 
L 291.96 233.46816 
L 294.48 226.915006 
L 297.72 217.849122 
L 304.92 196.753943 
L 309.24 184.498849 
L 312.84 174.967402 
L 315.72 167.929677 
L 318.6 161.489174 
L 321.12 156.380961 
L 323.64 151.787325 
L 325.8 148.270174 
L 327.96 145.146932 
L 330.12 142.421027 
L 332.28 140.094406 
L 334.08 138.461297 
L 335.88 137.106449 
L 337.68 136.030041 
L 339.48 135.232264 
L 341.28 134.713416 
L 343.08 134.473968 
L 344.52 134.484043 
L 345.24 134.556448 
L 345.24 134.556448 
" clip-path="url(#pcabbf8557f)" style="fill: none; stroke: #4c72b0; stroke-width: 2; stroke-linecap: round"/>
   </g>
   <g id="line2d_34">
    <path d="M 86.4 225.499829 
L 88.2 224.343015 
L 89.64 223.653654 
L 91.08 223.176119 
L 92.52 222.912311 
L 93.96 222.86419 
L 95.4 223.0338 
L 96.84 223.423288 
L 98.28 224.034817 
L 99.72 224.870511 
L 101.16 225.932465 
L 102.96 227.581108 
L 104.76 229.589749 
L 106.56 231.960804 
L 108.36 234.69509 
L 110.16 237.790662 
L 112.32 241.972956 
L 114.48 246.641894 
L 117 252.640596 
L 120.24 261.017176 
L 127.08 278.97863 
L 129.24 283.964468 
L 131.04 287.633075 
L 132.84 290.779477 
L 134.28 292.886383 
L 135.72 294.611582 
L 137.16 295.947319 
L 138.24 296.692094 
L 139.32 297.217096 
L 140.4 297.523734 
L 141.48 297.613895 
L 142.56 297.489734 
L 143.64 297.153508 
L 144.72 296.607476 
L 145.8 295.853904 
L 147.24 294.530203 
L 148.68 292.847213 
L 150.12 290.811354 
L 151.56 288.430409 
L 153.36 284.983931 
L 155.16 281.038172 
L 157.32 275.690167 
L 159.48 269.742499 
L 162 262.171573 
L 165.6 250.565464 
L 169.56 237.83628 
L 171 233.760475 
L 172.08 231.201126 
L 172.8 229.868003 
L 173.52 228.960558 
L 174.6 228.340975 
L 176.76 227.430528 
L 178.56 226.908347 
L 180.36 226.649114 
L 181.8 226.660706 
L 183.24 226.890079 
L 184.68 227.357176 
L 186.12 228.080018 
L 187.56 229.073727 
L 189 230.348642 
L 190.44 231.907177 
L 192.24 234.236138 
L 194.4 237.489681 
L 198 243.111177 
L 199.08 244.437584 
L 199.8 245.087383 
L 200.52 245.46771 
L 201.24 245.487407 
L 201.6 245.3267 
L 201.96 245.02993 
L 202.32 244.569624 
L 204.48 240.463804 
L 206.64 236.682441 
L 208.8 233.344716 
L 210.96 230.45714 
L 212.76 228.398578 
L 214.56 226.65931 
L 216.36 225.24238 
L 218.16 224.150921 
L 219.6 223.514348 
L 221.04 223.090062 
L 222.48 222.879987 
L 223.92 222.886096 
L 225.36 223.110474 
L 226.8 223.555272 
L 228.24 224.222645 
L 229.68 225.114703 
L 231.12 226.233543 
L 232.92 227.953942 
L 234.72 230.034914 
L 236.52 232.478615 
L 238.32 235.285429 
L 240.48 239.128835 
L 242.64 243.476937 
L 244.8 248.299151 
L 247.32 254.448161 
L 250.92 263.908287 
L 255.96 277.201735 
L 258.48 283.174169 
L 260.28 286.939112 
L 262.08 290.194703 
L 263.52 292.394986 
L 264.96 294.216601 
L 266.4 295.65009 
L 267.48 296.468303 
L 268.56 297.066439 
L 269.64 297.445677 
L 270.72 297.607765 
L 271.8 297.554797 
L 272.88 297.289006 
L 273.96 296.812656 
L 275.04 296.128017 
L 276.48 294.89504 
L 277.92 293.30131 
L 279.36 291.353004 
L 280.8 289.057508 
L 282.6 285.714056 
L 284.4 281.865841 
L 286.56 276.625342 
L 288.72 270.771742 
L 291.24 263.288533 
L 294.48 252.930123 
L 299.52 236.766635 
L 300.96 232.846974 
L 302.04 230.489383 
L 302.76 229.351215 
L 303.48 228.713474 
L 305.28 227.850904 
L 307.08 227.193021 
L 308.88 226.770584 
L 310.32 226.632741 
L 311.76 226.696832 
L 313.2 226.983827 
L 314.64 227.513264 
L 316.08 228.302547 
L 317.52 229.365829 
L 318.96 230.711827 
L 320.4 232.340249 
L 322.2 234.748126 
L 324.36 238.06465 
L 327.6 243.111177 
L 328.68 244.437584 
L 329.4 245.087383 
L 330.12 245.46771 
L 330.84 245.487407 
L 331.2 245.3267 
L 331.56 245.02993 
L 331.92 244.569624 
L 334.08 240.463804 
L 336.24 236.682441 
L 338.4 233.344716 
L 340.56 230.45714 
L 342.36 228.398578 
L 344.16 226.65931 
L 345.24 225.770271 
L 345.24 225.770271 
" clip-path="url(#pcabbf8557f)" style="fill: none; stroke: #dd8452; stroke-width: 2; stroke-linecap: round"/>
   </g>
   <g id="patch_3">
    <path d="M 86.4 345.6 
L 86.4 86.4 
" style="fill: none; stroke: #262626; stroke-width: 1.25; stroke-linejoin: miter; stroke-linecap: square"/>
   </g>
   <g id="patch_4">
    <path d="M 86.4 345.6 
L 345.6 345.6 
" style="fill: none; stroke: #262626; stroke-width: 1.25; stroke-linejoin: miter; stroke-linecap: square"/>
   </g>
   <g id="legend_1">
    <g id="patch_5">
     <path d="M 96.2 338.6 
L 262.386563 338.6 
Q 265.186563 338.6 265.186563 335.8 
L 265.186563 297.593125 
Q 265.186563 294.793125 262.386563 294.793125 
L 96.2 294.793125 
Q 93.4 294.793125 93.4 297.593125 
L 93.4 335.8 
Q 93.4 338.6 96.2 338.6 
z
" style="fill: #ffffff; opacity: 0.8; stroke: #cccccc; stroke-linejoin: miter"/>
    </g>
    <g id="line2d_35">
     <path d="M 99 305.514063 
L 113 305.514063 
L 127 305.514063 
" style="fill: none; stroke: #4c72b0; stroke-width: 2; stroke-linecap: round"/>
    </g>
    <g id="text_19">
     <text style="fill: #262626; font: 14px 'Arial', 'DejaVu Sans', 'Liberation Sans', 'Bitstream Vera Sans', sans-serif; text-anchor: start" x="138.2" y="310.414062" transform="rotate(-0 138.2 310.414062)">Without vaccination</text>
    </g>
    <g id="line2d_36">
     <path d="M 99 325.3175 
L 113 325.3175 
L 127 325.3175 
" style="fill: none; stroke: #dd8452; stroke-width: 2; stroke-linecap: round"/>
    </g>
    <g id="text_20">
     <text style="fill: #262626; font: 14px 'Arial', 'DejaVu Sans', 'Liberation Sans', 'Bitstream Vera Sans', sans-serif; text-anchor: start" x="138.2" y="330.2175" transform="rotate(-0 138.2 330.2175)">With vaccination</text>
    </g>
   </g>
  </g>
 </g>
 <defs>
  <clipPath id="pcabbf8557f">
   <rect x="86.4" y="86.4" width="259.2" height="259.2"/>
  </clipPath>
 </defs>
</svg>
