<?xml version="1.0" encoding="utf-8" standalone="no"?>
<!DOCTYPE svg PUBLIC "-//W3C//DTD SVG 1.1//EN"
  "http://www.w3.org/Graphics/SVG/1.1/DTD/svg11.dtd">
<svg xmlns:xlink="http://www.w3.org/1999/xlink" width="432pt" height="432pt" viewBox="0 0 432 432" xmlns="http://www.w3.org/2000/svg" version="1.1">
 <metadata>
  <rdf:RDF xmlns:dc="http://purl.org/dc/elements/1.1/" xmlns:cc="http://creativecommons.org/ns#" xmlns:rdf="http://www.w3.org/1999/02/22-rdf-syntax-ns#">
   <cc:Work>
    <dc:type rdf:resource="http://purl.org/dc/dcmitype/StillImage"/>
    <dc:date>2024-05-14T15:42:14.087209</dc:date>
    <dc:format>image/svg+xml</dc:format>
    <dc:creator>
     <cc:Agent>
      <dc:title>Matplotlib v3.8.4, https://matplotlib.org/</dc:title>
     </cc:Agent>
    </dc:creator>
   </cc:Work>
  </rdf:RDF>
 </metadata>
 <defs>
  <style type="text/css">*{stroke-linejoin: round; stroke-linecap: butt}</style>
 </defs>
 <g id="figure_1">
  <g id="patch_1">
   <path d="M 0 432 
L 432 432 
L 432 0 
L 0 0 
L 0 432 
z
" style="fill: none"/>
  </g>
  <g id="axes_1">
   <g id="patch_2">
    <path d="M 86.4 345.6 
L 345.6 345.6 
L 345.6 86.4 
L 86.4 86.4 
L 86.4 345.6 
z
" style="fill: none"/>
   </g>
   <g id="matplotlib.axis_1">
    <g id="xtick_1">
     <g id="line2d_1">
      <defs>
       <path id="m3aae4bf549" d="M 0 0 
L 0 6 
" style="stroke: #262626; stroke-width: 1.25"/>
      </defs>
      <g>
       <use xlink:href="#m3aae4bf549" x="86.4" y="345.6" style="fill: #262626; stroke: #262626; stroke-width: 1.25"/>
      </g>
     </g>
     <g id="text_1">
      <text style="fill: #262626; font: 16px 'Arial', 'DejaVu Sans', 'Liberation Sans', 'Bitstream Vera Sans', sans-serif; text-anchor: middle" x="86.4" y="366.5525" transform="rotate(-0 86.4 366.5525)">Jan</text>
     </g>
    </g>
    <g id="xtick_2">
     <g id="line2d_2">
      <g>
       <use xlink:href="#m3aae4bf549" x="97.2" y="345.6" style="fill: #262626; stroke: #262626; stroke-width: 1.25"/>
      </g>
     </g>
    </g>
    <g id="xtick_3">
     <g id="line2d_3">
      <g>
       <use xlink:href="#m3aae4bf549" x="108" y="345.6" style="fill: #262626; stroke: #262626; stroke-width: 1.25"/>
      </g>
     </g>
    </g>
    <g id="xtick_4">
     <g id="line2d_4">
      <g>
       <use xlink:href="#m3aae4bf549" x="118.8" y="345.6" style="fill: #262626; stroke: #262626; stroke-width: 1.25"/>
      </g>
     </g>
     <g id="text_2">
      <text style="fill: #262626; font: 16px 'Arial', 'DejaVu Sans', 'Liberation Sans', 'Bitstream Vera Sans', sans-serif; text-anchor: middle" x="118.8" y="366.5525" transform="rotate(-0 118.8 366.5525)">Apr</text>
     </g>
    </g>
    <g id="xtick_5">
     <g id="line2d_5">
      <g>
       <use xlink:href="#m3aae4bf549" x="129.6" y="345.6" style="fill: #262626; stroke: #262626; stroke-width: 1.25"/>
      </g>
     </g>
    </g>
    <g id="xtick_6">
     <g id="line2d_6">
      <g>
       <use xlink:href="#m3aae4bf549" x="140.4" y="345.6" style="fill: #262626; stroke: #262626; stroke-width: 1.25"/>
      </g>
     </g>
    </g>
    <g id="xtick_7">
     <g id="line2d_7">
      <g>
       <use xlink:href="#m3aae4bf549" x="151.2" y="345.6" style="fill: #262626; stroke: #262626; stroke-width: 1.25"/>
      </g>
     </g>
     <g id="text_3">
      <text style="fill: #262626; font: 16px 'Arial', 'DejaVu Sans', 'Liberation Sans', 'Bitstream Vera Sans', sans-serif; text-anchor: middle" x="151.2" y="366.5525" transform="rotate(-0 151.2 366.5525)">Jul</text>
     </g>
    </g>
    <g id="xtick_8">
     <g id="line2d_8">
      <g>
       <use xlink:href="#m3aae4bf549" x="162" y="345.6" style="fill: #262626; stroke: #262626; stroke-width: 1.25"/>
      </g>
     </g>
    </g>
    <g id="xtick_9">
     <g id="line2d_9">
      <g>
       <use xlink:href="#m3aae4bf549" x="172.8" y="345.6" style="fill: #262626; stroke: #262626; stroke-width: 1.25"/>
      </g>
     </g>
    </g>
    <g id="xtick_10">
     <g id="line2d_10">
      <g>
       <use xlink:href="#m3aae4bf549" x="183.6" y="345.6" style="fill: #262626; stroke: #262626; stroke-width: 1.25"/>
      </g>
     </g>
     <g id="text_4">
      <text style="fill: #262626; font: 16px 'Arial', 'DejaVu Sans', 'Liberation Sans', 'Bitstream Vera Sans', sans-serif; text-anchor: middle" x="183.6" y="366.5525" transform="rotate(-0 183.6 366.5525)">Oct</text>
     </g>
    </g>
    <g id="xtick_11">
     <g id="line2d_11">
      <g>
       <use xlink:href="#m3aae4bf549" x="194.4" y="345.6" style="fill: #262626; stroke: #262626; stroke-width: 1.25"/>
      </g>
     </g>
    </g>
    <g id="xtick_12">
     <g id="line2d_12">
      <g>
       <use xlink:href="#m3aae4bf549" x="205.2" y="345.6" style="fill: #262626; stroke: #262626; stroke-width: 1.25"/>
      </g>
     </g>
    </g>
    <g id="xtick_13">
     <g id="line2d_13">
      <g>
       <use xlink:href="#m3aae4bf549" x="216" y="345.6" style="fill: #262626; stroke: #262626; stroke-width: 1.25"/>
      </g>
     </g>
     <g id="text_5">
      <text style="fill: #262626; font: 16px 'Arial', 'DejaVu Sans', 'Liberation Sans', 'Bitstream Vera Sans', sans-serif; text-anchor: middle" x="216" y="366.5525" transform="rotate(-0 216 366.5525)">Jan</text>
     </g>
    </g>
    <g id="xtick_14">
     <g id="line2d_14">
      <g>
       <use xlink:href="#m3aae4bf549" x="216" y="345.6" style="fill: #262626; stroke: #262626; stroke-width: 1.25"/>
      </g>
     </g>
     <g id="text_6">
      <text style="fill: #262626; font: 16px 'Arial', 'DejaVu Sans', 'Liberation Sans', 'Bitstream Vera Sans', sans-serif; text-anchor: middle" x="216" y="366.5525" transform="rotate(-0 216 366.5525)">Jan</text>
     </g>
    </g>
    <g id="xtick_15">
     <g id="line2d_15">
      <g>
       <use xlink:href="#m3aae4bf549" x="226.8" y="345.6" style="fill: #262626; stroke: #262626; stroke-width: 1.25"/>
      </g>
     </g>
    </g>
    <g id="xtick_16">
     <g id="line2d_16">
      <g>
       <use xlink:href="#m3aae4bf549" x="237.6" y="345.6" style="fill: #262626; stroke: #262626; stroke-width: 1.25"/>
      </g>
     </g>
    </g>
    <g id="xtick_17">
     <g id="line2d_17">
      <g>
       <use xlink:href="#m3aae4bf549" x="248.4" y="345.6" style="fill: #262626; stroke: #262626; stroke-width: 1.25"/>
      </g>
     </g>
     <g id="text_7">
      <text style="fill: #262626; font: 16px 'Arial', 'DejaVu Sans', 'Liberation Sans', 'Bitstream Vera Sans', sans-serif; text-anchor: middle" x="248.4" y="366.5525" transform="rotate(-0 248.4 366.5525)">Apr</text>
     </g>
    </g>
    <g id="xtick_18">
     <g id="line2d_18">
      <g>
       <use xlink:href="#m3aae4bf549" x="259.2" y="345.6" style="fill: #262626; stroke: #262626; stroke-width: 1.25"/>
      </g>
     </g>
    </g>
    <g id="xtick_19">
     <g id="line2d_19">
      <g>
       <use xlink:href="#m3aae4bf549" x="270" y="345.6" style="fill: #262626; stroke: #262626; stroke-width: 1.25"/>
      </g>
     </g>
    </g>
    <g id="xtick_20">
     <g id="line2d_20">
      <g>
       <use xlink:href="#m3aae4bf549" x="280.8" y="345.6" style="fill: #262626; stroke: #262626; stroke-width: 1.25"/>
      </g>
     </g>
     <g id="text_8">
      <text style="fill: #262626; font: 16px 'Arial', 'DejaVu Sans', 'Liberation Sans', 'Bitstream Vera Sans', sans-serif; text-anchor: middle" x="280.8" y="366.5525" transform="rotate(-0 280.8 366.5525)">Jul</text>
     </g>
    </g>
    <g id="xtick_21">
     <g id="line2d_21">
      <g>
       <use xlink:href="#m3aae4bf549" x="291.6" y="345.6" style="fill: #262626; stroke: #262626; stroke-width: 1.25"/>
      </g>
     </g>
    </g>
    <g id="xtick_22">
     <g id="line2d_22">
      <g>
       <use xlink:href="#m3aae4bf549" x="302.4" y="345.6" style="fill: #262626; stroke: #262626; stroke-width: 1.25"/>
      </g>
     </g>
    </g>
    <g id="xtick_23">
     <g id="line2d_23">
      <g>
       <use xlink:href="#m3aae4bf549" x="313.2" y="345.6" style="fill: #262626; stroke: #262626; stroke-width: 1.25"/>
      </g>
     </g>
     <g id="text_9">
      <text style="fill: #262626; font: 16px 'Arial', 'DejaVu Sans', 'Liberation Sans', 'Bitstream Vera Sans', sans-serif; text-anchor: middle" x="313.2" y="366.5525" transform="rotate(-0 313.2 366.5525)">Oct</text>
     </g>
    </g>
    <g id="xtick_24">
     <g id="line2d_24">
      <g>
       <use xlink:href="#m3aae4bf549" x="324" y="345.6" style="fill: #262626; stroke: #262626; stroke-width: 1.25"/>
      </g>
     </g>
    </g>
    <g id="xtick_25">
     <g id="line2d_25">
      <g>
       <use xlink:href="#m3aae4bf549" x="334.8" y="345.6" style="fill: #262626; stroke: #262626; stroke-width: 1.25"/>
      </g>
     </g>
    </g>
    <g id="xtick_26">
     <g id="line2d_26">
      <g>
       <use xlink:href="#m3aae4bf549" x="345.6" y="345.6" style="fill: #262626; stroke: #262626; stroke-width: 1.25"/>
      </g>
     </g>
     <g id="text_10">
      <text style="fill: #262626; font: 16px 'Arial', 'DejaVu Sans', 'Liberation Sans', 'Bitstream Vera Sans', sans-serif; text-anchor: middle" x="345.6" y="366.5525" transform="rotate(-0 345.6 366.5525)">Jan</text>
     </g>
    </g>
    <g id="text_11">
     <text style="fill: #262626; font: 16px 'Arial', 'DejaVu Sans', 'Liberation Sans', 'Bitstream Vera Sans', sans-serif; text-anchor: middle" x="216" y="385.185" transform="rotate(-0 216 385.185)"> </text>
    </g>
   </g>
   <g id="matplotlib.axis_2">
    <g id="ytick_1">
     <g id="line2d_27">
      <defs>
       <path id="m55e6d79a7b" d="M 0 0 
L -6 0 
" style="stroke: #262626; stroke-width: 1.25"/>
      </defs>
      <g>
       <use xlink:href="#m55e6d79a7b" x="86.4" y="345.6" style="fill: #262626; stroke: #262626; stroke-width: 1.25"/>
      </g>
     </g>
     <g id="text_12">
      <text style="fill: #262626; font: 16px 'Arial', 'DejaVu Sans', 'Liberation Sans', 'Bitstream Vera Sans', sans-serif; text-anchor: end" x="76.9" y="351.32625" transform="rotate(-0 76.9 351.32625)">0.0</text>
     </g>
    </g>
    <g id="ytick_2">
     <g id="line2d_28">
      <g>
       <use xlink:href="#m55e6d79a7b" x="86.4" y="293.76" style="fill: #262626; stroke: #262626; stroke-width: 1.25"/>
      </g>
     </g>
     <g id="text_13">
      <text style="fill: #262626; font: 16px 'Arial', 'DejaVu Sans', 'Liberation Sans', 'Bitstream Vera Sans', sans-serif; text-anchor: end" x="76.9" y="299.48625" transform="rotate(-0 76.9 299.48625)">0.1</text>
     </g>
    </g>
    <g id="ytick_3">
     <g id="line2d_29">
      <g>
       <use xlink:href="#m55e6d79a7b" x="86.4" y="241.92" style="fill: #262626; stroke: #262626; stroke-width: 1.25"/>
      </g>
     </g>
     <g id="text_14">
      <text style="fill: #262626; font: 16px 'Arial', 'DejaVu Sans', 'Liberation Sans', 'Bitstream Vera Sans', sans-serif; text-anchor: end" x="76.9" y="247.64625" transform="rotate(-0 76.9 247.64625)">0.2</text>
     </g>
    </g>
    <g id="ytick_4">
     <g id="line2d_30">
      <g>
       <use xlink:href="#m55e6d79a7b" x="86.4" y="190.08" style="fill: #262626; stroke: #262626; stroke-width: 1.25"/>
      </g>
     </g>
     <g id="text_15">
      <text style="fill: #262626; font: 16px 'Arial', 'DejaVu Sans', 'Liberation Sans', 'Bitstream Vera Sans', sans-serif; text-anchor: end" x="76.9" y="195.80625" transform="rotate(-0 76.9 195.80625)">0.3</text>
     </g>
    </g>
    <g id="ytick_5">
     <g id="line2d_31">
      <g>
       <use xlink:href="#m55e6d79a7b" x="86.4" y="138.24" style="fill: #262626; stroke: #262626; stroke-width: 1.25"/>
      </g>
     </g>
     <g id="text_16">
      <text style="fill: #262626; font: 16px 'Arial', 'DejaVu Sans', 'Liberation Sans', 'Bitstream Vera Sans', sans-serif; text-anchor: end" x="76.9" y="143.96625" transform="rotate(-0 76.9 143.96625)">0.4</text>
     </g>
    </g>
    <g id="ytick_6">
     <g id="line2d_32">
      <g>
       <use xlink:href="#m55e6d79a7b" x="86.4" y="86.4" style="fill: #262626; stroke: #262626; stroke-width: 1.25"/>
      </g>
     </g>
     <g id="text_17">
      <text style="fill: #262626; font: 16px 'Arial', 'DejaVu Sans', 'Liberation Sans', 'Bitstream Vera Sans', sans-serif; text-anchor: end" x="76.9" y="92.12625" transform="rotate(-0 76.9 92.12625)">0.5</text>
     </g>
    </g>
    <g id="text_18">
     <text style="fill: #262626; font: 16px 'Arial', 'DejaVu Sans', 'Liberation Sans', 'Bitstream Vera Sans', sans-serif; text-anchor: middle" x="47.48" y="216" transform="rotate(-90 47.48 216)">Case outbreak risk</text>
    </g>
   </g>
   <g id="PolyCollection_1">
    <defs>
     <path id="mdeb7b8ef8e" d="M 201.6 -86.4 
L 176.4 -86.4 
L 176.4 -345.6 
L 201.6 -345.6 
L 201.6 -345.6 
L 201.6 -86.4 
z
"/>
    </defs>
    <g clip-path="url(#p5eee9046e7)">
     <use xlink:href="#mdeb7b8ef8e" x="0" y="432" style="fill: #808080; fill-opacity: 0.5"/>
    </g>
   </g>
   <g id="PolyCollection_2">
    <defs>
     <path id="md2ae67f870" d="M 331.2 -86.4 
L 306 -86.4 
L 306 -345.6 
L 331.2 -345.6 
L 331.2 -345.6 
L 331.2 -86.4 
z
"/>
    </defs>
    <g clip-path="url(#p5eee9046e7)">
     <use xlink:href="#md2ae67f870" x="0" y="432" style="fill: #808080; fill-opacity: 0.5"/>
    </g>
   </g>
   <g id="line2d_33">
    <path d="M 86.4 68.49855 
L 88.2 69.004643 
L 90 69.775241 
L 91.8 70.813219 
L 93.6 72.122158 
L 95.4 73.70632 
L 97.2 75.570602 
L 99 77.720465 
L 101.16 80.68564 
L 103.32 84.081444 
L 105.48 87.918916 
L 107.64 92.208606 
L 109.8 96.959615 
L 112.32 103.093687 
L 114.84 109.865691 
L 117.36 117.262881 
L 120.24 126.43603 
L 123.48 137.541128 
L 128.52 155.781037 
L 132.48 169.864103 
L 135 178.080849 
L 137.16 184.333283 
L 138.96 188.821322 
L 140.4 191.861089 
L 141.84 194.362933 
L 142.92 195.865718 
L 144 197.036805 
L 145.08 197.869727 
L 146.16 198.361499 
L 147.24 198.512473 
L 147.96 198.425392 
L 149.04 198.017576 
L 150.12 197.28462 
L 151.2 196.23722 
L 152.28 194.888297 
L 153.72 192.646664 
L 155.16 189.93546 
L 156.96 185.953511 
L 158.76 181.399338 
L 160.92 175.315043 
L 163.8 166.426722 
L 168.12 152.189979 
L 174.6 130.856588 
L 178.2 119.821511 
L 181.08 111.646826 
L 183.96 104.136653 
L 186.48 98.144953 
L 189 92.709733 
L 191.52 87.835629 
L 193.68 84.103109 
L 195.84 80.777836 
L 198 77.854846 
L 200.16 75.328589 
L 202.32 73.193482 
L 204.12 71.709259 
L 205.92 70.490426 
L 207.72 69.534807 
L 209.52 68.840764 
L 211.32 68.407255 
L 213.12 68.233883 
L 214.92 68.320934 
L 216.72 68.6694 
L 218.52 69.280997 
L 220.32 70.158162 
L 222.12 71.304055 
L 223.92 72.722535 
L 225.72 74.418124 
L 227.52 76.395954 
L 229.32 78.661688 
L 231.48 81.76918 
L 233.64 85.310989 
L 235.8 89.298076 
L 237.96 93.740634 
L 240.12 98.647003 
L 242.64 104.96368 
L 245.16 111.916414 
L 247.68 119.487009 
L 250.56 128.838747 
L 254.16 141.386186 
L 263.52 174.662028 
L 265.68 181.313831 
L 267.48 186.214657 
L 268.92 189.629453 
L 270.36 192.538477 
L 271.8 194.900171 
L 272.88 196.293328 
L 273.96 197.352237 
L 275.04 198.071606 
L 276.12 198.44958 
L 276.84 198.512473 
L 277.56 198.425392 
L 278.64 198.017576 
L 279.72 197.28462 
L 280.8 196.23722 
L 281.88 194.888297 
L 283.32 192.646664 
L 284.76 189.93546 
L 286.56 185.953511 
L 288.36 181.399338 
L 290.52 175.315043 
L 293.4 166.426722 
L 297.72 152.189979 
L 304.2 130.856588 
L 307.8 119.821511 
L 310.68 111.646826 
L 313.56 104.136653 
L 316.08 98.144953 
L 318.6 92.709733 
L 321.12 87.835629 
L 323.28 84.103109 
L 325.44 80.777836 
L 327.6 77.854846 
L 329.76 75.328589 
L 331.92 73.193482 
L 333.72 71.709259 
L 335.52 70.490426 
L 337.32 69.534807 
L 339.12 68.840764 
L 340.92 68.407255 
L 342.72 68.233883 
L 344.52 68.320934 
L 345.24 68.428871 
L 345.24 68.428871 
" clip-path="url(#p5eee9046e7)" style="fill: none; stroke: #4c72b0; stroke-width: 2; stroke-linecap: round"/>
   </g>
   <g id="line2d_34">
    <path d="M 86.4 148.315305 
L 87.84 147.980756 
L 89.28 147.845479 
L 90.72 147.910725 
L 92.16 148.178139 
L 93.6 148.649822 
L 95.04 149.328285 
L 96.48 150.216487 
L 98.28 151.626738 
L 100.08 153.377004 
L 101.88 155.475035 
L 103.68 157.928974 
L 105.48 160.746971 
L 107.28 163.936612 
L 109.44 168.263465 
L 111.6 173.140532 
L 113.76 178.564827 
L 116.28 185.559972 
L 118.8 193.207207 
L 122.04 203.782789 
L 129.6 228.812559 
L 131.76 235.053925 
L 133.56 239.626493 
L 135 242.790885 
L 136.44 245.465222 
L 137.88 247.613129 
L 138.96 248.862383 
L 140.04 249.792813 
L 141.12 250.399356 
L 142.2 250.679313 
L 143.28 250.632085 
L 144.36 250.258925 
L 145.44 249.562746 
L 146.52 248.547979 
L 147.6 247.220532 
L 148.68 245.587747 
L 150.12 242.951091 
L 151.56 239.812099 
L 153.36 235.226998 
L 155.16 229.970298 
L 157.32 222.885692 
L 159.84 213.741842 
L 163.08 201.002093 
L 172.08 164.836496 
L 173.88 158.690058 
L 175.32 154.612097 
L 176.4 152.345007 
L 177.12 151.330479 
L 178.2 150.327378 
L 179.64 149.243369 
L 181.08 148.397862 
L 182.52 147.808363 
L 183.96 147.492283 
L 185.4 147.465896 
L 186.48 147.645181 
L 187.56 148.001249 
L 188.64 148.538535 
L 190.08 149.541399 
L 191.52 150.870556 
L 192.96 152.511488 
L 194.76 154.939348 
L 199.08 161.085792 
L 199.8 161.775595 
L 200.52 162.197397 
L 201.24 162.243382 
L 201.6 162.08827 
L 202.32 161.38241 
L 206.64 155.335587 
L 208.44 153.329069 
L 210.24 151.63748 
L 212.04 150.25811 
L 213.84 149.189191 
L 215.28 148.557044 
L 216.72 148.123178 
L 218.16 147.88814 
L 219.6 147.852946 
L 221.04 148.019041 
L 222.48 148.3883 
L 223.92 148.963031 
L 225.36 149.745972 
L 226.8 150.74026 
L 228.6 152.285624 
L 230.4 154.17403 
L 232.2 156.413444 
L 234 159.012042 
L 235.8 161.977836 
L 237.6 165.318007 
L 239.76 169.827933 
L 241.92 174.888337 
L 244.08 180.492017 
L 246.6 187.682663 
L 249.48 196.65506 
L 253.44 209.868752 
L 258.12 225.449209 
L 260.64 233.055539 
L 262.44 237.874723 
L 264.24 242.044082 
L 265.68 244.844747 
L 267.12 247.127111 
L 268.2 248.481067 
L 269.28 249.518459 
L 270.36 250.233374 
L 271.44 250.622359 
L 272.52 250.684139 
L 273.6 250.419378 
L 274.68 249.830454 
L 275.76 248.921299 
L 276.84 247.697334 
L 277.92 246.165422 
L 279.36 243.658392 
L 280.8 240.64242 
L 282.24 237.14564 
L 284.04 232.148821 
L 285.84 226.52581 
L 288 219.069335 
L 290.52 209.594243 
L 294.12 195.125052 
L 300.6 168.870105 
L 302.76 161.040647 
L 304.2 156.529444 
L 305.28 153.765577 
L 306 152.345007 
L 306.72 151.330479 
L 307.8 150.327378 
L 309.24 149.243369 
L 310.68 148.397862 
L 312.12 147.808363 
L 313.56 147.492283 
L 315 147.465896 
L 316.08 147.645181 
L 317.16 148.001249 
L 318.24 148.538535 
L 319.68 149.541399 
L 321.12 150.870556 
L 322.56 152.511488 
L 324.36 154.939348 
L 328.68 161.085792 
L 329.4 161.775595 
L 330.12 162.197397 
L 330.84 162.243382 
L 331.2 162.08827 
L 331.92 161.38241 
L 336.24 155.335587 
L 338.04 153.329069 
L 339.84 151.63748 
L 341.64 150.25811 
L 343.44 149.189191 
L 344.88 148.557044 
L 345.24 148.429977 
L 345.24 148.429977 
" clip-path="url(#p5eee9046e7)" style="fill: none; stroke: #dd8452; stroke-width: 2; stroke-linecap: round"/>
   </g>
   <g id="patch_3">
    <path d="M 86.4 345.6 
L 86.4 86.4 
" style="fill: none; stroke: #262626; stroke-width: 1.25; stroke-linejoin: miter; stroke-linecap: square"/>
   </g>
   <g id="patch_4">
    <path d="M 86.4 345.6 
L 345.6 345.6 
" style="fill: none; stroke: #262626; stroke-width: 1.25; stroke-linejoin: miter; stroke-linecap: square"/>
   </g>
   <g id="legend_1">
    <g id="patch_5">
     <path d="M 96.2 338.6 
L 262.386563 338.6 
Q 265.186563 338.6 265.186563 335.8 
L 265.186563 297.593125 
Q 265.186563 294.793125 262.386563 294.793125 
L 96.2 294.793125 
Q 93.4 294.793125 93.4 297.593125 
L 93.4 335.8 
Q 93.4 338.6 96.2 338.6 
z
" style="fill: #ffffff; opacity: 0.8; stroke: #cccccc; stroke-linejoin: miter"/>
    </g>
    <g id="line2d_35">
     <path d="M 99 305.514063 
L 113 305.514063 
L 127 305.514063 
" style="fill: none; stroke: #4c72b0; stroke-width: 2; stroke-linecap: round"/>
    </g>
    <g id="text_19">
     <text style="fill: #262626; font: 14px 'Arial', 'DejaVu Sans', 'Liberation Sans', 'Bitstream Vera Sans', sans-serif; text-anchor: start" x="138.2" y="310.414062" transform="rotate(-0 138.2 310.414062)">Without vaccination</text>
    </g>
    <g id="line2d_36">
     <path d="M 99 325.3175 
L 113 325.3175 
L 127 325.3175 
" style="fill: none; stroke: #dd8452; stroke-width: 2; stroke-linecap: round"/>
    </g>
    <g id="text_20">
     <text style="fill: #262626; font: 14px 'Arial', 'DejaVu Sans', 'Liberation Sans', 'Bitstream Vera Sans', sans-serif; text-anchor: start" x="138.2" y="330.2175" transform="rotate(-0 138.2 330.2175)">With vaccination</text>
    </g>
   </g>
  </g>
 </g>
 <defs>
  <clipPath id="p5eee9046e7">
   <rect x="86.4" y="86.4" width="259.2" height="259.2"/>
  </clipPath>
 </defs>
</svg>
