<?xml version="1.0" encoding="utf-8" standalone="no"?>
<!DOCTYPE svg PUBLIC "-//W3C//DTD SVG 1.1//EN"
  "http://www.w3.org/Graphics/SVG/1.1/DTD/svg11.dtd">
<svg xmlns:xlink="http://www.w3.org/1999/xlink" width="432pt" height="432pt" viewBox="0 0 432 432" xmlns="http://www.w3.org/2000/svg" version="1.1">
 <metadata>
  <rdf:RDF xmlns:dc="http://purl.org/dc/elements/1.1/" xmlns:cc="http://creativecommons.org/ns#" xmlns:rdf="http://www.w3.org/1999/02/22-rdf-syntax-ns#">
   <cc:Work>
    <dc:type rdf:resource="http://purl.org/dc/dcmitype/StillImage"/>
    <dc:date>2024-05-15T12:57:37.819562</dc:date>
    <dc:format>image/svg+xml</dc:format>
    <dc:creator>
     <cc:Agent>
      <dc:title>Matplotlib v3.8.4, https://matplotlib.org/</dc:title>
     </cc:Agent>
    </dc:creator>
   </cc:Work>
  </rdf:RDF>
 </metadata>
 <defs>
  <style type="text/css">*{stroke-linejoin: round; stroke-linecap: butt}</style>
 </defs>
 <g id="figure_1">
  <g id="patch_1">
   <path d="M 0 432 
L 432 432 
L 432 0 
L 0 0 
L 0 432 
z
" style="fill: none"/>
  </g>
  <g id="axes_1">
   <g id="patch_2">
    <path d="M 86.4 345.6 
L 345.6 345.6 
L 345.6 86.4 
L 86.4 86.4 
L 86.4 345.6 
z
" style="fill: none"/>
   </g>
   <g id="matplotlib.axis_1">
    <g id="xtick_1">
     <g id="line2d_1">
      <defs>
       <path id="m6f3af954a6" d="M 0 0 
L 0 6 
" style="stroke: #262626; stroke-width: 1.25"/>
      </defs>
      <g>
       <use xlink:href="#m6f3af954a6" x="86.4" y="345.6" style="fill: #262626; stroke: #262626; stroke-width: 1.25"/>
      </g>
     </g>
     <g id="text_1">
      <text style="fill: #262626; font: 16px 'Arial', 'DejaVu Sans', 'Liberation Sans', 'Bitstream Vera Sans', sans-serif; text-anchor: middle" x="86.4" y="366.5525" transform="rotate(-0 86.4 366.5525)">Jan</text>
     </g>
    </g>
    <g id="xtick_2">
     <g id="line2d_2">
      <g>
       <use xlink:href="#m6f3af954a6" x="97.2" y="345.6" style="fill: #262626; stroke: #262626; stroke-width: 1.25"/>
      </g>
     </g>
    </g>
    <g id="xtick_3">
     <g id="line2d_3">
      <g>
       <use xlink:href="#m6f3af954a6" x="108" y="345.6" style="fill: #262626; stroke: #262626; stroke-width: 1.25"/>
      </g>
     </g>
    </g>
    <g id="xtick_4">
     <g id="line2d_4">
      <g>
       <use xlink:href="#m6f3af954a6" x="118.8" y="345.6" style="fill: #262626; stroke: #262626; stroke-width: 1.25"/>
      </g>
     </g>
     <g id="text_2">
      <text style="fill: #262626; font: 16px 'Arial', 'DejaVu Sans', 'Liberation Sans', 'Bitstream Vera Sans', sans-serif; text-anchor: middle" x="118.8" y="366.5525" transform="rotate(-0 118.8 366.5525)">Apr</text>
     </g>
    </g>
    <g id="xtick_5">
     <g id="line2d_5">
      <g>
       <use xlink:href="#m6f3af954a6" x="129.6" y="345.6" style="fill: #262626; stroke: #262626; stroke-width: 1.25"/>
      </g>
     </g>
    </g>
    <g id="xtick_6">
     <g id="line2d_6">
      <g>
       <use xlink:href="#m6f3af954a6" x="140.4" y="345.6" style="fill: #262626; stroke: #262626; stroke-width: 1.25"/>
      </g>
     </g>
    </g>
    <g id="xtick_7">
     <g id="line2d_7">
      <g>
       <use xlink:href="#m6f3af954a6" x="151.2" y="345.6" style="fill: #262626; stroke: #262626; stroke-width: 1.25"/>
      </g>
     </g>
     <g id="text_3">
      <text style="fill: #262626; font: 16px 'Arial', 'DejaVu Sans', 'Liberation Sans', 'Bitstream Vera Sans', sans-serif; text-anchor: middle" x="151.2" y="366.5525" transform="rotate(-0 151.2 366.5525)">Jul</text>
     </g>
    </g>
    <g id="xtick_8">
     <g id="line2d_8">
      <g>
       <use xlink:href="#m6f3af954a6" x="162" y="345.6" style="fill: #262626; stroke: #262626; stroke-width: 1.25"/>
      </g>
     </g>
    </g>
    <g id="xtick_9">
     <g id="line2d_9">
      <g>
       <use xlink:href="#m6f3af954a6" x="172.8" y="345.6" style="fill: #262626; stroke: #262626; stroke-width: 1.25"/>
      </g>
     </g>
    </g>
    <g id="xtick_10">
     <g id="line2d_10">
      <g>
       <use xlink:href="#m6f3af954a6" x="183.6" y="345.6" style="fill: #262626; stroke: #262626; stroke-width: 1.25"/>
      </g>
     </g>
     <g id="text_4">
      <text style="fill: #262626; font: 16px 'Arial', 'DejaVu Sans', 'Liberation Sans', 'Bitstream Vera Sans', sans-serif; text-anchor: middle" x="183.6" y="366.5525" transform="rotate(-0 183.6 366.5525)">Oct</text>
     </g>
    </g>
    <g id="xtick_11">
     <g id="line2d_11">
      <g>
       <use xlink:href="#m6f3af954a6" x="194.4" y="345.6" style="fill: #262626; stroke: #262626; stroke-width: 1.25"/>
      </g>
     </g>
    </g>
    <g id="xtick_12">
     <g id="line2d_12">
      <g>
       <use xlink:href="#m6f3af954a6" x="205.2" y="345.6" style="fill: #262626; stroke: #262626; stroke-width: 1.25"/>
      </g>
     </g>
    </g>
    <g id="xtick_13">
     <g id="line2d_13">
      <g>
       <use xlink:href="#m6f3af954a6" x="216" y="345.6" style="fill: #262626; stroke: #262626; stroke-width: 1.25"/>
      </g>
     </g>
     <g id="text_5">
      <text style="fill: #262626; font: 16px 'Arial', 'DejaVu Sans', 'Liberation Sans', 'Bitstream Vera Sans', sans-serif; text-anchor: middle" x="216" y="366.5525" transform="rotate(-0 216 366.5525)">Jan</text>
     </g>
    </g>
    <g id="xtick_14">
     <g id="line2d_14">
      <g>
       <use xlink:href="#m6f3af954a6" x="216" y="345.6" style="fill: #262626; stroke: #262626; stroke-width: 1.25"/>
      </g>
     </g>
     <g id="text_6">
      <text style="fill: #262626; font: 16px 'Arial', 'DejaVu Sans', 'Liberation Sans', 'Bitstream Vera Sans', sans-serif; text-anchor: middle" x="216" y="366.5525" transform="rotate(-0 216 366.5525)">Jan</text>
     </g>
    </g>
    <g id="xtick_15">
     <g id="line2d_15">
      <g>
       <use xlink:href="#m6f3af954a6" x="226.8" y="345.6" style="fill: #262626; stroke: #262626; stroke-width: 1.25"/>
      </g>
     </g>
    </g>
    <g id="xtick_16">
     <g id="line2d_16">
      <g>
       <use xlink:href="#m6f3af954a6" x="237.6" y="345.6" style="fill: #262626; stroke: #262626; stroke-width: 1.25"/>
      </g>
     </g>
    </g>
    <g id="xtick_17">
     <g id="line2d_17">
      <g>
       <use xlink:href="#m6f3af954a6" x="248.4" y="345.6" style="fill: #262626; stroke: #262626; stroke-width: 1.25"/>
      </g>
     </g>
     <g id="text_7">
      <text style="fill: #262626; font: 16px 'Arial', 'DejaVu Sans', 'Liberation Sans', 'Bitstream Vera Sans', sans-serif; text-anchor: middle" x="248.4" y="366.5525" transform="rotate(-0 248.4 366.5525)">Apr</text>
     </g>
    </g>
    <g id="xtick_18">
     <g id="line2d_18">
      <g>
       <use xlink:href="#m6f3af954a6" x="259.2" y="345.6" style="fill: #262626; stroke: #262626; stroke-width: 1.25"/>
      </g>
     </g>
    </g>
    <g id="xtick_19">
     <g id="line2d_19">
      <g>
       <use xlink:href="#m6f3af954a6" x="270" y="345.6" style="fill: #262626; stroke: #262626; stroke-width: 1.25"/>
      </g>
     </g>
    </g>
    <g id="xtick_20">
     <g id="line2d_20">
      <g>
       <use xlink:href="#m6f3af954a6" x="280.8" y="345.6" style="fill: #262626; stroke: #262626; stroke-width: 1.25"/>
      </g>
     </g>
     <g id="text_8">
      <text style="fill: #262626; font: 16px 'Arial', 'DejaVu Sans', 'Liberation Sans', 'Bitstream Vera Sans', sans-serif; text-anchor: middle" x="280.8" y="366.5525" transform="rotate(-0 280.8 366.5525)">Jul</text>
     </g>
    </g>
    <g id="xtick_21">
     <g id="line2d_21">
      <g>
       <use xlink:href="#m6f3af954a6" x="291.6" y="345.6" style="fill: #262626; stroke: #262626; stroke-width: 1.25"/>
      </g>
     </g>
    </g>
    <g id="xtick_22">
     <g id="line2d_22">
      <g>
       <use xlink:href="#m6f3af954a6" x="302.4" y="345.6" style="fill: #262626; stroke: #262626; stroke-width: 1.25"/>
      </g>
     </g>
    </g>
    <g id="xtick_23">
     <g id="line2d_23">
      <g>
       <use xlink:href="#m6f3af954a6" x="313.2" y="345.6" style="fill: #262626; stroke: #262626; stroke-width: 1.25"/>
      </g>
     </g>
     <g id="text_9">
      <text style="fill: #262626; font: 16px 'Arial', 'DejaVu Sans', 'Liberation Sans', 'Bitstream Vera Sans', sans-serif; text-anchor: middle" x="313.2" y="366.5525" transform="rotate(-0 313.2 366.5525)">Oct</text>
     </g>
    </g>
    <g id="xtick_24">
     <g id="line2d_24">
      <g>
       <use xlink:href="#m6f3af954a6" x="324" y="345.6" style="fill: #262626; stroke: #262626; stroke-width: 1.25"/>
      </g>
     </g>
    </g>
    <g id="xtick_25">
     <g id="line2d_25">
      <g>
       <use xlink:href="#m6f3af954a6" x="334.8" y="345.6" style="fill: #262626; stroke: #262626; stroke-width: 1.25"/>
      </g>
     </g>
    </g>
    <g id="xtick_26">
     <g id="line2d_26">
      <g>
       <use xlink:href="#m6f3af954a6" x="345.6" y="345.6" style="fill: #262626; stroke: #262626; stroke-width: 1.25"/>
      </g>
     </g>
     <g id="text_10">
      <text style="fill: #262626; font: 16px 'Arial', 'DejaVu Sans', 'Liberation Sans', 'Bitstream Vera Sans', sans-serif; text-anchor: middle" x="345.6" y="366.5525" transform="rotate(-0 345.6 366.5525)">Jan</text>
     </g>
    </g>
    <g id="text_11">
     <text style="fill: #262626; font: 16px 'Arial', 'DejaVu Sans', 'Liberation Sans', 'Bitstream Vera Sans', sans-serif; text-anchor: middle" x="216" y="385.185" transform="rotate(-0 216 385.185)"> </text>
    </g>
   </g>
   <g id="matplotlib.axis_2">
    <g id="ytick_1">
     <g id="line2d_27">
      <defs>
       <path id="mc6d8b7485a" d="M 0 0 
L -6 0 
" style="stroke: #262626; stroke-width: 1.25"/>
      </defs>
      <g>
       <use xlink:href="#mc6d8b7485a" x="86.4" y="345.6" style="fill: #262626; stroke: #262626; stroke-width: 1.25"/>
      </g>
     </g>
     <g id="text_12">
      <text style="fill: #262626; font: 16px 'Arial', 'DejaVu Sans', 'Liberation Sans', 'Bitstream Vera Sans', sans-serif; text-anchor: end" x="76.9" y="351.32625" transform="rotate(-0 76.9 351.32625)">0.0</text>
     </g>
    </g>
    <g id="ytick_2">
     <g id="line2d_28">
      <g>
       <use xlink:href="#mc6d8b7485a" x="86.4" y="293.76" style="fill: #262626; stroke: #262626; stroke-width: 1.25"/>
      </g>
     </g>
     <g id="text_13">
      <text style="fill: #262626; font: 16px 'Arial', 'DejaVu Sans', 'Liberation Sans', 'Bitstream Vera Sans', sans-serif; text-anchor: end" x="76.9" y="299.48625" transform="rotate(-0 76.9 299.48625)">0.1</text>
     </g>
    </g>
    <g id="ytick_3">
     <g id="line2d_29">
      <g>
       <use xlink:href="#mc6d8b7485a" x="86.4" y="241.92" style="fill: #262626; stroke: #262626; stroke-width: 1.25"/>
      </g>
     </g>
     <g id="text_14">
      <text style="fill: #262626; font: 16px 'Arial', 'DejaVu Sans', 'Liberation Sans', 'Bitstream Vera Sans', sans-serif; text-anchor: end" x="76.9" y="247.64625" transform="rotate(-0 76.9 247.64625)">0.2</text>
     </g>
    </g>
    <g id="ytick_4">
     <g id="line2d_30">
      <g>
       <use xlink:href="#mc6d8b7485a" x="86.4" y="190.08" style="fill: #262626; stroke: #262626; stroke-width: 1.25"/>
      </g>
     </g>
     <g id="text_15">
      <text style="fill: #262626; font: 16px 'Arial', 'DejaVu Sans', 'Liberation Sans', 'Bitstream Vera Sans', sans-serif; text-anchor: end" x="76.9" y="195.80625" transform="rotate(-0 76.9 195.80625)">0.3</text>
     </g>
    </g>
    <g id="ytick_5">
     <g id="line2d_31">
      <g>
       <use xlink:href="#mc6d8b7485a" x="86.4" y="138.24" style="fill: #262626; stroke: #262626; stroke-width: 1.25"/>
      </g>
     </g>
     <g id="text_16">
      <text style="fill: #262626; font: 16px 'Arial', 'DejaVu Sans', 'Liberation Sans', 'Bitstream Vera Sans', sans-serif; text-anchor: end" x="76.9" y="143.96625" transform="rotate(-0 76.9 143.96625)">0.4</text>
     </g>
    </g>
    <g id="ytick_6">
     <g id="line2d_32">
      <g>
       <use xlink:href="#mc6d8b7485a" x="86.4" y="86.4" style="fill: #262626; stroke: #262626; stroke-width: 1.25"/>
      </g>
     </g>
     <g id="text_17">
      <text style="fill: #262626; font: 16px 'Arial', 'DejaVu Sans', 'Liberation Sans', 'Bitstream Vera Sans', sans-serif; text-anchor: end" x="76.9" y="92.12625" transform="rotate(-0 76.9 92.12625)">0.5</text>
     </g>
    </g>
    <g id="text_18">
     <text style="fill: #262626; font: 16px 'Arial', 'DejaVu Sans', 'Liberation Sans', 'Bitstream Vera Sans', sans-serif; text-anchor: middle" x="47.48" y="216" transform="rotate(-90 47.48 216)">Case outbreak risk</text>
    </g>
   </g>
   <g id="PolyCollection_1">
    <defs>
     <path id="mb7a1e2611a" d="M 201.6 -86.4 
L 172.8 -86.4 
L 172.8 -345.6 
L 201.6 -345.6 
L 201.6 -345.6 
L 201.6 -86.4 
z
"/>
    </defs>
    <g clip-path="url(#pbcfb053c16)">
     <use xlink:href="#mb7a1e2611a" x="0" y="432" style="fill: #808080; fill-opacity: 0.5"/>
    </g>
   </g>
   <g id="PolyCollection_2">
    <defs>
     <path id="m09e7c4438b" d="M 331.2 -86.4 
L 302.4 -86.4 
L 302.4 -345.6 
L 331.2 -345.6 
L 331.2 -345.6 
L 331.2 -86.4 
z
"/>
    </defs>
    <g clip-path="url(#pbcfb053c16)">
     <use xlink:href="#m09e7c4438b" x="0" y="432" style="fill: #808080; fill-opacity: 0.5"/>
    </g>
   </g>
   <g id="line2d_33">
    <path d="M 86.4 101.31665 
L 88.2 101.667796 
L 90 102.264814 
L 91.8 103.10869 
L 93.6 104.20056 
L 95.4 105.541657 
L 97.2 107.133234 
L 99.36 109.375407 
L 101.52 111.981567 
L 103.68 114.952484 
L 105.84 118.287557 
L 108.36 122.635057 
L 110.88 127.465239 
L 113.4 132.761247 
L 116.28 139.348688 
L 119.52 147.364041 
L 123.48 157.828919 
L 133.2 183.891706 
L 135.72 189.857516 
L 137.88 194.405697 
L 139.68 197.701477 
L 141.12 199.967712 
L 142.56 201.873974 
L 144 203.39729 
L 145.08 204.277843 
L 146.16 204.92805 
L 147.24 205.344748 
L 148.32 205.526689 
L 149.4 205.474485 
L 150.48 205.190539 
L 151.56 204.678939 
L 152.64 203.945345 
L 154.08 202.634361 
L 155.52 200.961861 
L 156.96 198.9517 
L 158.76 196.005084 
L 160.56 192.629657 
L 162.72 188.098258 
L 165.24 182.284177 
L 168.48 174.232764 
L 181.44 141.326321 
L 184.68 134.014653 
L 187.56 128.046188 
L 190.08 123.274671 
L 192.6 118.947776 
L 195.12 115.080459 
L 197.28 112.138625 
L 199.44 109.544893 
L 201.6 107.301207 
L 203.76 105.408461 
L 205.56 104.09945 
L 207.36 103.034308 
L 209.16 102.21297 
L 210.96 101.63542 
L 212.76 101.301751 
L 214.56 101.212214 
L 216.36 101.36725 
L 218.16 101.767501 
L 219.96 102.413806 
L 221.76 103.307186 
L 223.56 104.448801 
L 225.36 105.839894 
L 227.16 107.481714 
L 229.32 109.784456 
L 231.48 112.451386 
L 233.64 115.483083 
L 235.8 118.878658 
L 238.32 123.295831 
L 240.84 128.1938 
L 243.36 133.554413 
L 246.24 140.209528 
L 249.48 148.288961 
L 253.44 158.805564 
L 262.44 182.992808 
L 264.96 189.044531 
L 267.12 193.68984 
L 268.92 197.081863 
L 270.72 199.967712 
L 272.16 201.873974 
L 273.6 203.39729 
L 274.68 204.277843 
L 275.76 204.92805 
L 276.84 205.344748 
L 277.92 205.526689 
L 279 205.474485 
L 280.08 205.190539 
L 281.16 204.678939 
L 282.24 203.945345 
L 283.68 202.634361 
L 285.12 200.961861 
L 286.56 198.9517 
L 288.36 196.005084 
L 290.16 192.629657 
L 292.32 188.098258 
L 294.84 182.284177 
L 298.08 174.232764 
L 311.04 141.326321 
L 314.28 134.014653 
L 317.16 128.046188 
L 319.68 123.274671 
L 322.2 118.947776 
L 324.72 115.080459 
L 326.88 112.138625 
L 329.04 109.544893 
L 331.2 107.301207 
L 333.36 105.408461 
L 335.16 104.09945 
L 336.96 103.034308 
L 338.76 102.21297 
L 340.56 101.63542 
L 342.36 101.301751 
L 344.16 101.212214 
L 345.24 101.275851 
L 345.24 101.275851 
" clip-path="url(#pbcfb053c16)" style="fill: none; stroke: #4c72b0; stroke-width: 2; stroke-linecap: round"/>
   </g>
   <g id="line2d_34">
    <path d="M 86.4 180.608938 
L 88.2 179.493855 
L 90 178.664338 
L 91.8 178.121594 
L 93.24 177.894762 
L 94.68 177.852977 
L 96.12 177.996961 
L 97.56 178.32736 
L 99 178.844689 
L 100.8 179.754673 
L 102.6 180.957354 
L 104.4 182.451953 
L 106.2 184.236505 
L 108 186.307561 
L 110.16 189.16304 
L 112.32 192.408457 
L 114.84 196.658545 
L 117.36 201.359836 
L 120.24 207.192296 
L 124.56 216.524672 
L 129.6 227.374309 
L 132.12 232.321913 
L 134.28 236.087363 
L 136.08 238.78912 
L 137.52 240.615331 
L 138.96 242.110455 
L 140.4 243.249079 
L 141.48 243.856713 
L 142.56 244.245763 
L 143.64 244.411364 
L 144.72 244.350294 
L 145.8 244.06097 
L 146.88 243.54328 
L 147.96 242.798606 
L 149.04 241.829707 
L 150.48 240.196271 
L 151.92 238.184732 
L 153.36 235.81182 
L 155.16 232.368466 
L 156.96 228.438145 
L 159.12 223.153256 
L 161.64 216.332595 
L 164.88 206.806904 
L 171 188.530059 
L 172.08 185.909765 
L 172.8 184.511518 
L 173.52 183.560325 
L 174.6 182.960699 
L 176.76 182.070077 
L 178.92 181.430097 
L 180.72 181.135808 
L 182.52 181.09831 
L 183.96 181.276554 
L 185.4 181.658158 
L 186.84 182.259094 
L 188.28 183.094488 
L 189.72 184.178132 
L 191.16 185.521233 
L 192.6 187.129738 
L 194.4 189.50455 
L 196.56 192.794232 
L 199.08 196.707769 
L 200.16 198.020509 
L 200.88 198.575408 
L 201.24 198.707142 
L 201.6 198.71236 
L 201.96 198.563638 
L 202.32 198.218982 
L 203.4 196.35373 
L 205.92 192.098379 
L 208.08 188.888571 
L 210.24 186.086501 
L 212.4 183.692173 
L 214.2 182.00862 
L 216 180.608938 
L 217.8 179.493855 
L 219.6 178.664338 
L 221.4 178.121594 
L 222.84 177.894762 
L 224.28 177.852977 
L 225.72 177.996961 
L 227.16 178.32736 
L 228.6 178.844689 
L 230.4 179.754673 
L 232.2 180.957354 
L 234 182.451953 
L 235.8 184.236505 
L 237.6 186.307561 
L 239.76 189.16304 
L 241.92 192.408457 
L 244.44 196.658545 
L 246.96 201.359836 
L 249.84 207.192296 
L 254.16 216.524672 
L 259.2 227.374309 
L 261.72 232.321913 
L 263.88 236.087363 
L 265.68 238.78912 
L 267.12 240.615331 
L 268.56 242.110455 
L 270 243.249079 
L 271.08 243.856713 
L 272.16 244.245763 
L 273.24 244.411364 
L 274.32 244.350294 
L 275.4 244.06097 
L 276.48 243.54328 
L 277.56 242.798606 
L 278.64 241.829707 
L 280.08 240.196271 
L 281.52 238.184732 
L 282.96 235.81182 
L 284.76 232.368466 
L 286.56 228.438145 
L 288.72 223.153256 
L 291.24 216.332595 
L 294.48 206.806904 
L 300.6 188.530059 
L 301.68 185.909765 
L 302.4 184.511518 
L 303.12 183.560325 
L 304.2 182.960699 
L 306.36 182.070077 
L 308.52 181.430097 
L 310.32 181.135808 
L 312.12 181.09831 
L 313.56 181.276554 
L 315 181.658158 
L 316.44 182.259094 
L 317.88 183.094488 
L 319.32 184.178132 
L 320.76 185.521233 
L 322.2 187.129738 
L 324 189.50455 
L 326.16 192.794232 
L 328.68 196.707769 
L 329.76 198.020509 
L 330.48 198.575408 
L 330.84 198.707142 
L 331.2 198.71236 
L 331.56 198.563638 
L 331.92 198.218982 
L 333 196.35373 
L 335.52 192.098379 
L 337.68 188.888571 
L 339.84 186.086501 
L 342 183.692173 
L 343.8 182.00862 
L 345.24 180.866129 
L 345.24 180.866129 
" clip-path="url(#pbcfb053c16)" style="fill: none; stroke: #dd8452; stroke-width: 2; stroke-linecap: round"/>
   </g>
   <g id="patch_3">
    <path d="M 86.4 345.6 
L 86.4 86.4 
" style="fill: none; stroke: #262626; stroke-width: 1.25; stroke-linejoin: miter; stroke-linecap: square"/>
   </g>
   <g id="patch_4">
    <path d="M 86.4 345.6 
L 345.6 345.6 
" style="fill: none; stroke: #262626; stroke-width: 1.25; stroke-linejoin: miter; stroke-linecap: square"/>
   </g>
   <g id="legend_1">
    <g id="patch_5">
     <path d="M 96.2 338.6 
L 262.386563 338.6 
Q 265.186563 338.6 265.186563 335.8 
L 265.186563 297.593125 
Q 265.186563 294.793125 262.386563 294.793125 
L 96.2 294.793125 
Q 93.4 294.793125 93.4 297.593125 
L 93.4 335.8 
Q 93.4 338.6 96.2 338.6 
z
" style="fill: #ffffff; opacity: 0.8; stroke: #cccccc; stroke-linejoin: miter"/>
    </g>
    <g id="line2d_35">
     <path d="M 99 305.514063 
L 113 305.514063 
L 127 305.514063 
" style="fill: none; stroke: #4c72b0; stroke-width: 2; stroke-linecap: round"/>
    </g>
    <g id="text_19">
     <text style="fill: #262626; font: 14px 'Arial', 'DejaVu Sans', 'Liberation Sans', 'Bitstream Vera Sans', sans-serif; text-anchor: start" x="138.2" y="310.414062" transform="rotate(-0 138.2 310.414062)">Without vaccination</text>
    </g>
    <g id="line2d_36">
     <path d="M 99 325.3175 
L 113 325.3175 
L 127 325.3175 
" style="fill: none; stroke: #dd8452; stroke-width: 2; stroke-linecap: round"/>
    </g>
    <g id="text_20">
     <text style="fill: #262626; font: 14px 'Arial', 'DejaVu Sans', 'Liberation Sans', 'Bitstream Vera Sans', sans-serif; text-anchor: start" x="138.2" y="330.2175" transform="rotate(-0 138.2 330.2175)">With vaccination</text>
    </g>
   </g>
  </g>
 </g>
 <defs>
  <clipPath id="pbcfb053c16">
   <rect x="86.4" y="86.4" width="259.2" height="259.2"/>
  </clipPath>
 </defs>
</svg>
