<?xml version="1.0" encoding="utf-8" standalone="no"?>
<!DOCTYPE svg PUBLIC "-//W3C//DTD SVG 1.1//EN"
  "http://www.w3.org/Graphics/SVG/1.1/DTD/svg11.dtd">
<svg xmlns:xlink="http://www.w3.org/1999/xlink" width="432pt" height="432pt" viewBox="0 0 432 432" xmlns="http://www.w3.org/2000/svg" version="1.1">
 <metadata>
  <rdf:RDF xmlns:dc="http://purl.org/dc/elements/1.1/" xmlns:cc="http://creativecommons.org/ns#" xmlns:rdf="http://www.w3.org/1999/02/22-rdf-syntax-ns#">
   <cc:Work>
    <dc:type rdf:resource="http://purl.org/dc/dcmitype/StillImage"/>
    <dc:date>2024-05-15T12:57:38.348450</dc:date>
    <dc:format>image/svg+xml</dc:format>
    <dc:creator>
     <cc:Agent>
      <dc:title>Matplotlib v3.8.4, https://matplotlib.org/</dc:title>
     </cc:Agent>
    </dc:creator>
   </cc:Work>
  </rdf:RDF>
 </metadata>
 <defs>
  <style type="text/css">*{stroke-linejoin: round; stroke-linecap: butt}</style>
 </defs>
 <g id="figure_1">
  <g id="patch_1">
   <path d="M 0 432 
L 432 432 
L 432 0 
L 0 0 
L 0 432 
z
" style="fill: none"/>
  </g>
  <g id="axes_1">
   <g id="patch_2">
    <path d="M 86.4 345.6 
L 345.6 345.6 
L 345.6 86.4 
L 86.4 86.4 
L 86.4 345.6 
z
" style="fill: none"/>
   </g>
   <g id="matplotlib.axis_1">
    <g id="xtick_1">
     <g id="line2d_1">
      <defs>
       <path id="mcd70c1b614" d="M 0 0 
L 0 6 
" style="stroke: #262626; stroke-width: 1.25"/>
      </defs>
      <g>
       <use xlink:href="#mcd70c1b614" x="86.4" y="345.6" style="fill: #262626; stroke: #262626; stroke-width: 1.25"/>
      </g>
     </g>
     <g id="text_1">
      <text style="fill: #262626; font: 16px 'Arial', 'DejaVu Sans', 'Liberation Sans', 'Bitstream Vera Sans', sans-serif; text-anchor: middle" x="86.4" y="366.5525" transform="rotate(-0 86.4 366.5525)">Jan</text>
     </g>
    </g>
    <g id="xtick_2">
     <g id="line2d_2">
      <g>
       <use xlink:href="#mcd70c1b614" x="97.2" y="345.6" style="fill: #262626; stroke: #262626; stroke-width: 1.25"/>
      </g>
     </g>
    </g>
    <g id="xtick_3">
     <g id="line2d_3">
      <g>
       <use xlink:href="#mcd70c1b614" x="108" y="345.6" style="fill: #262626; stroke: #262626; stroke-width: 1.25"/>
      </g>
     </g>
    </g>
    <g id="xtick_4">
     <g id="line2d_4">
      <g>
       <use xlink:href="#mcd70c1b614" x="118.8" y="345.6" style="fill: #262626; stroke: #262626; stroke-width: 1.25"/>
      </g>
     </g>
     <g id="text_2">
      <text style="fill: #262626; font: 16px 'Arial', 'DejaVu Sans', 'Liberation Sans', 'Bitstream Vera Sans', sans-serif; text-anchor: middle" x="118.8" y="366.5525" transform="rotate(-0 118.8 366.5525)">Apr</text>
     </g>
    </g>
    <g id="xtick_5">
     <g id="line2d_5">
      <g>
       <use xlink:href="#mcd70c1b614" x="129.6" y="345.6" style="fill: #262626; stroke: #262626; stroke-width: 1.25"/>
      </g>
     </g>
    </g>
    <g id="xtick_6">
     <g id="line2d_6">
      <g>
       <use xlink:href="#mcd70c1b614" x="140.4" y="345.6" style="fill: #262626; stroke: #262626; stroke-width: 1.25"/>
      </g>
     </g>
    </g>
    <g id="xtick_7">
     <g id="line2d_7">
      <g>
       <use xlink:href="#mcd70c1b614" x="151.2" y="345.6" style="fill: #262626; stroke: #262626; stroke-width: 1.25"/>
      </g>
     </g>
     <g id="text_3">
      <text style="fill: #262626; font: 16px 'Arial', 'DejaVu Sans', 'Liberation Sans', 'Bitstream Vera Sans', sans-serif; text-anchor: middle" x="151.2" y="366.5525" transform="rotate(-0 151.2 366.5525)">Jul</text>
     </g>
    </g>
    <g id="xtick_8">
     <g id="line2d_8">
      <g>
       <use xlink:href="#mcd70c1b614" x="162" y="345.6" style="fill: #262626; stroke: #262626; stroke-width: 1.25"/>
      </g>
     </g>
    </g>
    <g id="xtick_9">
     <g id="line2d_9">
      <g>
       <use xlink:href="#mcd70c1b614" x="172.8" y="345.6" style="fill: #262626; stroke: #262626; stroke-width: 1.25"/>
      </g>
     </g>
    </g>
    <g id="xtick_10">
     <g id="line2d_10">
      <g>
       <use xlink:href="#mcd70c1b614" x="183.6" y="345.6" style="fill: #262626; stroke: #262626; stroke-width: 1.25"/>
      </g>
     </g>
     <g id="text_4">
      <text style="fill: #262626; font: 16px 'Arial', 'DejaVu Sans', 'Liberation Sans', 'Bitstream Vera Sans', sans-serif; text-anchor: middle" x="183.6" y="366.5525" transform="rotate(-0 183.6 366.5525)">Oct</text>
     </g>
    </g>
    <g id="xtick_11">
     <g id="line2d_11">
      <g>
       <use xlink:href="#mcd70c1b614" x="194.4" y="345.6" style="fill: #262626; stroke: #262626; stroke-width: 1.25"/>
      </g>
     </g>
    </g>
    <g id="xtick_12">
     <g id="line2d_12">
      <g>
       <use xlink:href="#mcd70c1b614" x="205.2" y="345.6" style="fill: #262626; stroke: #262626; stroke-width: 1.25"/>
      </g>
     </g>
    </g>
    <g id="xtick_13">
     <g id="line2d_13">
      <g>
       <use xlink:href="#mcd70c1b614" x="216" y="345.6" style="fill: #262626; stroke: #262626; stroke-width: 1.25"/>
      </g>
     </g>
     <g id="text_5">
      <text style="fill: #262626; font: 16px 'Arial', 'DejaVu Sans', 'Liberation Sans', 'Bitstream Vera Sans', sans-serif; text-anchor: middle" x="216" y="366.5525" transform="rotate(-0 216 366.5525)">Jan</text>
     </g>
    </g>
    <g id="xtick_14">
     <g id="line2d_14">
      <g>
       <use xlink:href="#mcd70c1b614" x="216" y="345.6" style="fill: #262626; stroke: #262626; stroke-width: 1.25"/>
      </g>
     </g>
     <g id="text_6">
      <text style="fill: #262626; font: 16px 'Arial', 'DejaVu Sans', 'Liberation Sans', 'Bitstream Vera Sans', sans-serif; text-anchor: middle" x="216" y="366.5525" transform="rotate(-0 216 366.5525)">Jan</text>
     </g>
    </g>
    <g id="xtick_15">
     <g id="line2d_15">
      <g>
       <use xlink:href="#mcd70c1b614" x="226.8" y="345.6" style="fill: #262626; stroke: #262626; stroke-width: 1.25"/>
      </g>
     </g>
    </g>
    <g id="xtick_16">
     <g id="line2d_16">
      <g>
       <use xlink:href="#mcd70c1b614" x="237.6" y="345.6" style="fill: #262626; stroke: #262626; stroke-width: 1.25"/>
      </g>
     </g>
    </g>
    <g id="xtick_17">
     <g id="line2d_17">
      <g>
       <use xlink:href="#mcd70c1b614" x="248.4" y="345.6" style="fill: #262626; stroke: #262626; stroke-width: 1.25"/>
      </g>
     </g>
     <g id="text_7">
      <text style="fill: #262626; font: 16px 'Arial', 'DejaVu Sans', 'Liberation Sans', 'Bitstream Vera Sans', sans-serif; text-anchor: middle" x="248.4" y="366.5525" transform="rotate(-0 248.4 366.5525)">Apr</text>
     </g>
    </g>
    <g id="xtick_18">
     <g id="line2d_18">
      <g>
       <use xlink:href="#mcd70c1b614" x="259.2" y="345.6" style="fill: #262626; stroke: #262626; stroke-width: 1.25"/>
      </g>
     </g>
    </g>
    <g id="xtick_19">
     <g id="line2d_19">
      <g>
       <use xlink:href="#mcd70c1b614" x="270" y="345.6" style="fill: #262626; stroke: #262626; stroke-width: 1.25"/>
      </g>
     </g>
    </g>
    <g id="xtick_20">
     <g id="line2d_20">
      <g>
       <use xlink:href="#mcd70c1b614" x="280.8" y="345.6" style="fill: #262626; stroke: #262626; stroke-width: 1.25"/>
      </g>
     </g>
     <g id="text_8">
      <text style="fill: #262626; font: 16px 'Arial', 'DejaVu Sans', 'Liberation Sans', 'Bitstream Vera Sans', sans-serif; text-anchor: middle" x="280.8" y="366.5525" transform="rotate(-0 280.8 366.5525)">Jul</text>
     </g>
    </g>
    <g id="xtick_21">
     <g id="line2d_21">
      <g>
       <use xlink:href="#mcd70c1b614" x="291.6" y="345.6" style="fill: #262626; stroke: #262626; stroke-width: 1.25"/>
      </g>
     </g>
    </g>
    <g id="xtick_22">
     <g id="line2d_22">
      <g>
       <use xlink:href="#mcd70c1b614" x="302.4" y="345.6" style="fill: #262626; stroke: #262626; stroke-width: 1.25"/>
      </g>
     </g>
    </g>
    <g id="xtick_23">
     <g id="line2d_23">
      <g>
       <use xlink:href="#mcd70c1b614" x="313.2" y="345.6" style="fill: #262626; stroke: #262626; stroke-width: 1.25"/>
      </g>
     </g>
     <g id="text_9">
      <text style="fill: #262626; font: 16px 'Arial', 'DejaVu Sans', 'Liberation Sans', 'Bitstream Vera Sans', sans-serif; text-anchor: middle" x="313.2" y="366.5525" transform="rotate(-0 313.2 366.5525)">Oct</text>
     </g>
    </g>
    <g id="xtick_24">
     <g id="line2d_24">
      <g>
       <use xlink:href="#mcd70c1b614" x="324" y="345.6" style="fill: #262626; stroke: #262626; stroke-width: 1.25"/>
      </g>
     </g>
    </g>
    <g id="xtick_25">
     <g id="line2d_25">
      <g>
       <use xlink:href="#mcd70c1b614" x="334.8" y="345.6" style="fill: #262626; stroke: #262626; stroke-width: 1.25"/>
      </g>
     </g>
    </g>
    <g id="xtick_26">
     <g id="line2d_26">
      <g>
       <use xlink:href="#mcd70c1b614" x="345.6" y="345.6" style="fill: #262626; stroke: #262626; stroke-width: 1.25"/>
      </g>
     </g>
     <g id="text_10">
      <text style="fill: #262626; font: 16px 'Arial', 'DejaVu Sans', 'Liberation Sans', 'Bitstream Vera Sans', sans-serif; text-anchor: middle" x="345.6" y="366.5525" transform="rotate(-0 345.6 366.5525)">Jan</text>
     </g>
    </g>
    <g id="text_11">
     <text style="fill: #262626; font: 16px 'Arial', 'DejaVu Sans', 'Liberation Sans', 'Bitstream Vera Sans', sans-serif; text-anchor: middle" x="216" y="385.185" transform="rotate(-0 216 385.185)"> </text>
    </g>
   </g>
   <g id="matplotlib.axis_2">
    <g id="ytick_1">
     <g id="line2d_27">
      <defs>
       <path id="m67939c68c1" d="M 0 0 
L -6 0 
" style="stroke: #262626; stroke-width: 1.25"/>
      </defs>
      <g>
       <use xlink:href="#m67939c68c1" x="86.4" y="345.6" style="fill: #262626; stroke: #262626; stroke-width: 1.25"/>
      </g>
     </g>
     <g id="text_12">
      <text style="fill: #262626; font: 16px 'Arial', 'DejaVu Sans', 'Liberation Sans', 'Bitstream Vera Sans', sans-serif; text-anchor: end" x="76.9" y="351.32625" transform="rotate(-0 76.9 351.32625)">0.0</text>
     </g>
    </g>
    <g id="ytick_2">
     <g id="line2d_28">
      <g>
       <use xlink:href="#m67939c68c1" x="86.4" y="293.76" style="fill: #262626; stroke: #262626; stroke-width: 1.25"/>
      </g>
     </g>
     <g id="text_13">
      <text style="fill: #262626; font: 16px 'Arial', 'DejaVu Sans', 'Liberation Sans', 'Bitstream Vera Sans', sans-serif; text-anchor: end" x="76.9" y="299.48625" transform="rotate(-0 76.9 299.48625)">0.1</text>
     </g>
    </g>
    <g id="ytick_3">
     <g id="line2d_29">
      <g>
       <use xlink:href="#m67939c68c1" x="86.4" y="241.92" style="fill: #262626; stroke: #262626; stroke-width: 1.25"/>
      </g>
     </g>
     <g id="text_14">
      <text style="fill: #262626; font: 16px 'Arial', 'DejaVu Sans', 'Liberation Sans', 'Bitstream Vera Sans', sans-serif; text-anchor: end" x="76.9" y="247.64625" transform="rotate(-0 76.9 247.64625)">0.2</text>
     </g>
    </g>
    <g id="ytick_4">
     <g id="line2d_30">
      <g>
       <use xlink:href="#m67939c68c1" x="86.4" y="190.08" style="fill: #262626; stroke: #262626; stroke-width: 1.25"/>
      </g>
     </g>
     <g id="text_15">
      <text style="fill: #262626; font: 16px 'Arial', 'DejaVu Sans', 'Liberation Sans', 'Bitstream Vera Sans', sans-serif; text-anchor: end" x="76.9" y="195.80625" transform="rotate(-0 76.9 195.80625)">0.3</text>
     </g>
    </g>
    <g id="ytick_5">
     <g id="line2d_31">
      <g>
       <use xlink:href="#m67939c68c1" x="86.4" y="138.24" style="fill: #262626; stroke: #262626; stroke-width: 1.25"/>
      </g>
     </g>
     <g id="text_16">
      <text style="fill: #262626; font: 16px 'Arial', 'DejaVu Sans', 'Liberation Sans', 'Bitstream Vera Sans', sans-serif; text-anchor: end" x="76.9" y="143.96625" transform="rotate(-0 76.9 143.96625)">0.4</text>
     </g>
    </g>
    <g id="ytick_6">
     <g id="line2d_32">
      <g>
       <use xlink:href="#m67939c68c1" x="86.4" y="86.4" style="fill: #262626; stroke: #262626; stroke-width: 1.25"/>
      </g>
     </g>
     <g id="text_17">
      <text style="fill: #262626; font: 16px 'Arial', 'DejaVu Sans', 'Liberation Sans', 'Bitstream Vera Sans', sans-serif; text-anchor: end" x="76.9" y="92.12625" transform="rotate(-0 76.9 92.12625)">0.5</text>
     </g>
    </g>
    <g id="text_18">
     <text style="fill: #262626; font: 16px 'Arial', 'DejaVu Sans', 'Liberation Sans', 'Bitstream Vera Sans', sans-serif; text-anchor: middle" x="47.48" y="216" transform="rotate(-90 47.48 216)">Case outbreak risk</text>
    </g>
   </g>
   <g id="PolyCollection_1">
    <defs>
     <path id="md0a30a76a2" d="M 201.6 -86.4 
L 172.8 -86.4 
L 172.8 -345.6 
L 201.6 -345.6 
L 201.6 -345.6 
L 201.6 -86.4 
z
"/>
    </defs>
    <g clip-path="url(#p7524c11442)">
     <use xlink:href="#md0a30a76a2" x="0" y="432" style="fill: #808080; fill-opacity: 0.5"/>
    </g>
   </g>
   <g id="PolyCollection_2">
    <defs>
     <path id="m5db80c359a" d="M 331.2 -86.4 
L 302.4 -86.4 
L 302.4 -345.6 
L 331.2 -345.6 
L 331.2 -345.6 
L 331.2 -86.4 
z
"/>
    </defs>
    <g clip-path="url(#p7524c11442)">
     <use xlink:href="#m5db80c359a" x="0" y="432" style="fill: #808080; fill-opacity: 0.5"/>
    </g>
   </g>
   <g id="line2d_33">
    <path d="M 86.4 77.261144 
L 88.2 77.5624 
L 90 78.083948 
L 91.8 78.826484 
L 93.6 79.790818 
L 95.4 80.97782 
L 97.56 82.697347 
L 99.72 84.740027 
L 101.88 87.106634 
L 104.04 89.79706 
L 106.2 92.809831 
L 108.72 96.727407 
L 111.24 101.068691 
L 114.12 106.526472 
L 117 112.473852 
L 120.24 119.671119 
L 124.56 129.87306 
L 132.48 148.767339 
L 135.36 154.998827 
L 137.52 159.197116 
L 139.32 162.294892 
L 141.12 164.964234 
L 142.56 166.755268 
L 144 168.214925 
L 145.44 169.324648 
L 146.52 169.918938 
L 147.6 170.304883 
L 148.68 170.480445 
L 149.76 170.445315 
L 150.84 170.200888 
L 151.92 169.750203 
L 153 169.097861 
L 154.44 167.925036 
L 155.88 166.422572 
L 157.32 164.612012 
L 159.12 161.953072 
L 160.92 158.903769 
L 163.08 154.808479 
L 165.6 149.555364 
L 169.2 141.457739 
L 180.72 115.01797 
L 183.96 108.305541 
L 186.84 102.800572 
L 189.72 97.781507 
L 192.24 93.814613 
L 194.76 90.259517 
L 197.28 87.125318 
L 199.44 84.777926 
L 201.6 82.745402 
L 203.76 81.028506 
L 205.92 79.627409 
L 207.72 78.700972 
L 209.52 77.993631 
L 211.32 77.505305 
L 213.12 77.23601 
L 214.92 77.185892 
L 216.72 77.355251 
L 218.52 77.744548 
L 220.32 78.3544 
L 222.12 79.185554 
L 223.92 80.23885 
L 225.72 81.515162 
L 227.88 83.342283 
L 230.04 85.492887 
L 232.2 87.967502 
L 234.36 90.765624 
L 236.88 94.436117 
L 239.4 98.536895 
L 241.92 103.05498 
L 244.8 108.702189 
L 248.04 115.612633 
L 251.64 123.85676 
L 257.4 137.724693 
L 262.08 148.767339 
L 264.96 154.998827 
L 267.12 159.197116 
L 268.92 162.294892 
L 270.72 164.964234 
L 272.16 166.755268 
L 273.6 168.214925 
L 275.04 169.324648 
L 276.12 169.918938 
L 277.2 170.304883 
L 278.28 170.480445 
L 279.36 170.445315 
L 280.44 170.200888 
L 281.52 169.750203 
L 282.6 169.097861 
L 284.04 167.925036 
L 285.48 166.422572 
L 286.92 164.612012 
L 288.72 161.953072 
L 290.52 158.903769 
L 292.68 154.808479 
L 295.2 149.555364 
L 298.8 141.457739 
L 310.32 115.01797 
L 313.56 108.305541 
L 316.44 102.800572 
L 319.32 97.781507 
L 321.84 93.814613 
L 324.36 90.259517 
L 326.88 87.125318 
L 329.04 84.777926 
L 331.2 82.745402 
L 333.36 81.028506 
L 335.52 79.627409 
L 337.32 78.700972 
L 339.12 77.993631 
L 340.92 77.505305 
L 342.72 77.23601 
L 344.52 77.185892 
L 345.24 77.227276 
L 345.24 77.227276 
" clip-path="url(#p7524c11442)" style="fill: none; stroke: #4c72b0; stroke-width: 2; stroke-linecap: round"/>
   </g>
   <g id="line2d_34">
    <path d="M 86.4 148.322845 
L 88.2 147.284701 
L 90 146.501927 
L 91.8 145.975107 
L 93.6 145.704926 
L 95.4 145.692072 
L 97.2 145.937236 
L 99 146.440874 
L 100.8 147.203021 
L 102.6 148.223228 
L 104.4 149.500207 
L 106.2 151.031602 
L 108.36 153.199869 
L 110.52 155.719412 
L 112.68 158.5759 
L 115.2 162.307099 
L 117.72 166.424348 
L 120.96 172.18391 
L 125.64 181.065254 
L 130.68 190.532961 
L 133.2 194.83659 
L 135.36 198.110254 
L 137.16 200.457146 
L 138.6 202.039659 
L 140.04 203.328214 
L 141.48 204.297203 
L 142.56 204.801172 
L 143.64 205.10592 
L 144.72 205.205697 
L 145.8 205.096441 
L 146.88 204.775683 
L 147.96 204.242658 
L 149.04 203.49823 
L 150.48 202.181268 
L 151.92 200.503076 
L 153.36 198.478094 
L 155.16 195.487724 
L 156.96 192.028407 
L 159.12 187.329928 
L 161.64 181.217454 
L 164.52 173.605376 
L 171.72 154.035401 
L 172.8 151.868488 
L 173.52 150.931951 
L 174.24 150.529783 
L 176.76 149.542567 
L 178.92 148.929171 
L 180.72 148.624897 
L 182.52 148.543764 
L 184.32 148.716293 
L 185.76 149.056217 
L 187.2 149.590668 
L 188.64 150.332972 
L 190.08 151.295868 
L 191.52 152.490945 
L 192.96 153.927451 
L 194.76 156.066902 
L 196.56 158.559708 
L 200.16 163.751001 
L 200.88 164.439717 
L 201.6 164.747489 
L 201.96 164.687004 
L 202.32 164.421494 
L 203.4 162.737026 
L 205.92 158.852742 
L 208.08 155.920929 
L 210.24 153.358463 
L 212.4 151.164074 
L 214.2 149.616008 
L 216 148.322845 
L 217.8 147.284701 
L 219.6 146.501927 
L 221.4 145.975107 
L 223.2 145.704926 
L 225 145.692072 
L 226.8 145.937236 
L 228.6 146.440874 
L 230.4 147.203021 
L 232.2 148.223228 
L 234 149.500207 
L 235.8 151.031602 
L 237.96 153.199869 
L 240.12 155.719412 
L 242.28 158.5759 
L 244.8 162.307099 
L 247.32 166.424348 
L 250.56 172.18391 
L 255.24 181.065254 
L 260.28 190.532961 
L 262.8 194.83659 
L 264.96 198.110254 
L 266.76 200.457146 
L 268.2 202.039659 
L 269.64 203.328214 
L 271.08 204.297203 
L 272.16 204.801172 
L 273.24 205.10592 
L 274.32 205.205697 
L 275.4 205.096441 
L 276.48 204.775683 
L 277.56 204.242658 
L 278.64 203.49823 
L 280.08 202.181268 
L 281.52 200.503076 
L 282.96 198.478094 
L 284.76 195.487724 
L 286.56 192.028407 
L 288.72 187.329928 
L 291.24 181.217454 
L 294.12 173.605376 
L 301.32 154.035401 
L 302.4 151.868488 
L 303.12 150.931951 
L 303.84 150.529783 
L 306.36 149.542567 
L 308.52 148.929171 
L 310.32 148.624897 
L 312.12 148.543764 
L 313.92 148.716293 
L 315.36 149.056217 
L 316.8 149.590668 
L 318.24 150.332972 
L 319.68 151.295868 
L 321.12 152.490945 
L 322.56 153.927451 
L 324.36 156.066902 
L 326.16 158.559708 
L 329.76 163.751001 
L 330.48 164.439717 
L 331.2 164.747489 
L 331.56 164.687004 
L 331.92 164.421494 
L 333 162.737026 
L 335.52 158.852742 
L 337.68 155.920929 
L 339.84 153.358463 
L 342 151.164074 
L 343.8 149.616008 
L 345.24 148.561079 
L 345.24 148.561079 
" clip-path="url(#p7524c11442)" style="fill: none; stroke: #dd8452; stroke-width: 2; stroke-linecap: round"/>
   </g>
   <g id="patch_3">
    <path d="M 86.4 345.6 
L 86.4 86.4 
" style="fill: none; stroke: #262626; stroke-width: 1.25; stroke-linejoin: miter; stroke-linecap: square"/>
   </g>
   <g id="patch_4">
    <path d="M 86.4 345.6 
L 345.6 345.6 
" style="fill: none; stroke: #262626; stroke-width: 1.25; stroke-linejoin: miter; stroke-linecap: square"/>
   </g>
   <g id="legend_1">
    <g id="patch_5">
     <path d="M 96.2 338.6 
L 262.386563 338.6 
Q 265.186563 338.6 265.186563 335.8 
L 265.186563 297.593125 
Q 265.186563 294.793125 262.386563 294.793125 
L 96.2 294.793125 
Q 93.4 294.793125 93.4 297.593125 
L 93.4 335.8 
Q 93.4 338.6 96.2 338.6 
z
" style="fill: #ffffff; opacity: 0.8; stroke: #cccccc; stroke-linejoin: miter"/>
    </g>
    <g id="line2d_35">
     <path d="M 99 305.514063 
L 113 305.514063 
L 127 305.514063 
" style="fill: none; stroke: #4c72b0; stroke-width: 2; stroke-linecap: round"/>
    </g>
    <g id="text_19">
     <text style="fill: #262626; font: 14px 'Arial', 'DejaVu Sans', 'Liberation Sans', 'Bitstream Vera Sans', sans-serif; text-anchor: start" x="138.2" y="310.414062" transform="rotate(-0 138.2 310.414062)">Without vaccination</text>
    </g>
    <g id="line2d_36">
     <path d="M 99 325.3175 
L 113 325.3175 
L 127 325.3175 
" style="fill: none; stroke: #dd8452; stroke-width: 2; stroke-linecap: round"/>
    </g>
    <g id="text_20">
     <text style="fill: #262626; font: 14px 'Arial', 'DejaVu Sans', 'Liberation Sans', 'Bitstream Vera Sans', sans-serif; text-anchor: start" x="138.2" y="330.2175" transform="rotate(-0 138.2 330.2175)">With vaccination</text>
    </g>
   </g>
  </g>
 </g>
 <defs>
  <clipPath id="p7524c11442">
   <rect x="86.4" y="86.4" width="259.2" height="259.2"/>
  </clipPath>
 </defs>
</svg>
