<?xml version="1.0" encoding="utf-8" standalone="no"?>
<!DOCTYPE svg PUBLIC "-//W3C//DTD SVG 1.1//EN"
  "http://www.w3.org/Graphics/SVG/1.1/DTD/svg11.dtd">
<svg xmlns:xlink="http://www.w3.org/1999/xlink" width="432pt" height="432pt" viewBox="0 0 432 432" xmlns="http://www.w3.org/2000/svg" version="1.1">
 <metadata>
  <rdf:RDF xmlns:dc="http://purl.org/dc/elements/1.1/" xmlns:cc="http://creativecommons.org/ns#" xmlns:rdf="http://www.w3.org/1999/02/22-rdf-syntax-ns#">
   <cc:Work>
    <dc:type rdf:resource="http://purl.org/dc/dcmitype/StillImage"/>
    <dc:date>2024-05-30T09:40:52.071147</dc:date>
    <dc:format>image/svg+xml</dc:format>
    <dc:creator>
     <cc:Agent>
      <dc:title>Matplotlib v3.8.4, https://matplotlib.org/</dc:title>
     </cc:Agent>
    </dc:creator>
   </cc:Work>
  </rdf:RDF>
 </metadata>
 <defs>
  <style type="text/css">*{stroke-linejoin: round; stroke-linecap: butt}</style>
 </defs>
 <g id="figure_1">
  <g id="patch_1">
   <path d="M 0 432 
L 432 432 
L 432 0 
L 0 0 
L 0 432 
z
" style="fill: none"/>
  </g>
  <g id="axes_1">
   <g id="patch_2">
    <path d="M 86.4 345.6 
L 345.6 345.6 
L 345.6 86.4 
L 86.4 86.4 
L 86.4 345.6 
z
" style="fill: none"/>
   </g>
   <g id="matplotlib.axis_1">
    <g id="xtick_1">
     <g id="line2d_1">
      <defs>
       <path id="mdd2ea1389b" d="M 0 0 
L 0 6 
" style="stroke: #262626; stroke-width: 1.25"/>
      </defs>
      <g>
       <use xlink:href="#mdd2ea1389b" x="86.4" y="345.6" style="fill: #262626; stroke: #262626; stroke-width: 1.25"/>
      </g>
     </g>
     <g id="text_1">
      <text style="fill: #262626; font: 16px 'Arial', 'DejaVu Sans', 'Liberation Sans', 'Bitstream Vera Sans', sans-serif; text-anchor: middle" x="86.4" y="366.5525" transform="rotate(-0 86.4 366.5525)">0</text>
     </g>
    </g>
    <g id="xtick_2">
     <g id="line2d_2">
      <g>
       <use xlink:href="#mdd2ea1389b" x="129.6" y="345.6" style="fill: #262626; stroke: #262626; stroke-width: 1.25"/>
      </g>
     </g>
     <g id="text_2">
      <text style="fill: #262626; font: 16px 'Arial', 'DejaVu Sans', 'Liberation Sans', 'Bitstream Vera Sans', sans-serif; text-anchor: middle" x="129.6" y="366.5525" transform="rotate(-0 129.6 366.5525)">60</text>
     </g>
    </g>
    <g id="xtick_3">
     <g id="line2d_3">
      <g>
       <use xlink:href="#mdd2ea1389b" x="172.8" y="345.6" style="fill: #262626; stroke: #262626; stroke-width: 1.25"/>
      </g>
     </g>
     <g id="text_3">
      <text style="fill: #262626; font: 16px 'Arial', 'DejaVu Sans', 'Liberation Sans', 'Bitstream Vera Sans', sans-serif; text-anchor: middle" x="172.8" y="366.5525" transform="rotate(-0 172.8 366.5525)">120</text>
     </g>
    </g>
    <g id="xtick_4">
     <g id="line2d_4">
      <g>
       <use xlink:href="#mdd2ea1389b" x="216" y="345.6" style="fill: #262626; stroke: #262626; stroke-width: 1.25"/>
      </g>
     </g>
     <g id="text_4">
      <text style="fill: #262626; font: 16px 'Arial', 'DejaVu Sans', 'Liberation Sans', 'Bitstream Vera Sans', sans-serif; text-anchor: middle" x="216" y="366.5525" transform="rotate(-0 216 366.5525)">180</text>
     </g>
    </g>
    <g id="xtick_5">
     <g id="line2d_5">
      <g>
       <use xlink:href="#mdd2ea1389b" x="259.2" y="345.6" style="fill: #262626; stroke: #262626; stroke-width: 1.25"/>
      </g>
     </g>
     <g id="text_5">
      <text style="fill: #262626; font: 16px 'Arial', 'DejaVu Sans', 'Liberation Sans', 'Bitstream Vera Sans', sans-serif; text-anchor: middle" x="259.2" y="366.5525" transform="rotate(-0 259.2 366.5525)">240</text>
     </g>
    </g>
    <g id="xtick_6">
     <g id="line2d_6">
      <g>
       <use xlink:href="#mdd2ea1389b" x="302.4" y="345.6" style="fill: #262626; stroke: #262626; stroke-width: 1.25"/>
      </g>
     </g>
     <g id="text_6">
      <text style="fill: #262626; font: 16px 'Arial', 'DejaVu Sans', 'Liberation Sans', 'Bitstream Vera Sans', sans-serif; text-anchor: middle" x="302.4" y="366.5525" transform="rotate(-0 302.4 366.5525)">300</text>
     </g>
    </g>
    <g id="xtick_7">
     <g id="line2d_7">
      <g>
       <use xlink:href="#mdd2ea1389b" x="345.6" y="345.6" style="fill: #262626; stroke: #262626; stroke-width: 1.25"/>
      </g>
     </g>
     <g id="text_7">
      <text style="fill: #262626; font: 16px 'Arial', 'DejaVu Sans', 'Liberation Sans', 'Bitstream Vera Sans', sans-serif; text-anchor: middle" x="345.6" y="366.5525" transform="rotate(-0 345.6 366.5525)">360</text>
     </g>
    </g>
    <g id="text_8">
     <text style="fill: #262626; font: 16px 'Arial', 'DejaVu Sans', 'Liberation Sans', 'Bitstream Vera Sans', sans-serif; text-anchor: middle" x="216" y="385.38" transform="rotate(-0 216 385.38)">Time since vaccination (days)</text>
    </g>
   </g>
   <g id="matplotlib.axis_2">
    <g id="ytick_1">
     <g id="line2d_8">
      <defs>
       <path id="m700132d264" d="M 0 0 
L -6 0 
" style="stroke: #262626; stroke-width: 1.25"/>
      </defs>
      <g>
       <use xlink:href="#m700132d264" x="86.4" y="345.6" style="fill: #262626; stroke: #262626; stroke-width: 1.25"/>
      </g>
     </g>
     <g id="text_9">
      <text style="fill: #262626; font: 16px 'Arial', 'DejaVu Sans', 'Liberation Sans', 'Bitstream Vera Sans', sans-serif; text-anchor: end" x="76.9" y="351.32625" transform="rotate(-0 76.9 351.32625)">0</text>
     </g>
    </g>
    <g id="ytick_2">
     <g id="line2d_9">
      <g>
       <use xlink:href="#m700132d264" x="86.4" y="308.571429" style="fill: #262626; stroke: #262626; stroke-width: 1.25"/>
      </g>
     </g>
     <g id="text_10">
      <text style="fill: #262626; font: 16px 'Arial', 'DejaVu Sans', 'Liberation Sans', 'Bitstream Vera Sans', sans-serif; text-anchor: end" x="76.9" y="314.297679" transform="rotate(-0 76.9 314.297679)">2000</text>
     </g>
    </g>
    <g id="ytick_3">
     <g id="line2d_10">
      <g>
       <use xlink:href="#m700132d264" x="86.4" y="271.542857" style="fill: #262626; stroke: #262626; stroke-width: 1.25"/>
      </g>
     </g>
     <g id="text_11">
      <text style="fill: #262626; font: 16px 'Arial', 'DejaVu Sans', 'Liberation Sans', 'Bitstream Vera Sans', sans-serif; text-anchor: end" x="76.9" y="277.269107" transform="rotate(-0 76.9 277.269107)">4000</text>
     </g>
    </g>
    <g id="ytick_4">
     <g id="line2d_11">
      <g>
       <use xlink:href="#m700132d264" x="86.4" y="234.514286" style="fill: #262626; stroke: #262626; stroke-width: 1.25"/>
      </g>
     </g>
     <g id="text_12">
      <text style="fill: #262626; font: 16px 'Arial', 'DejaVu Sans', 'Liberation Sans', 'Bitstream Vera Sans', sans-serif; text-anchor: end" x="76.9" y="240.240536" transform="rotate(-0 76.9 240.240536)">6000</text>
     </g>
    </g>
    <g id="ytick_5">
     <g id="line2d_12">
      <g>
       <use xlink:href="#m700132d264" x="86.4" y="197.485714" style="fill: #262626; stroke: #262626; stroke-width: 1.25"/>
      </g>
     </g>
     <g id="text_13">
      <text style="fill: #262626; font: 16px 'Arial', 'DejaVu Sans', 'Liberation Sans', 'Bitstream Vera Sans', sans-serif; text-anchor: end" x="76.9" y="203.211964" transform="rotate(-0 76.9 203.211964)">8000</text>
     </g>
    </g>
    <g id="ytick_6">
     <g id="line2d_13">
      <g>
       <use xlink:href="#m700132d264" x="86.4" y="160.457143" style="fill: #262626; stroke: #262626; stroke-width: 1.25"/>
      </g>
     </g>
     <g id="text_14">
      <text style="fill: #262626; font: 16px 'Arial', 'DejaVu Sans', 'Liberation Sans', 'Bitstream Vera Sans', sans-serif; text-anchor: end" x="76.9" y="166.183393" transform="rotate(-0 76.9 166.183393)">10000</text>
     </g>
    </g>
    <g id="ytick_7">
     <g id="line2d_14">
      <g>
       <use xlink:href="#m700132d264" x="86.4" y="123.428571" style="fill: #262626; stroke: #262626; stroke-width: 1.25"/>
      </g>
     </g>
     <g id="text_15">
      <text style="fill: #262626; font: 16px 'Arial', 'DejaVu Sans', 'Liberation Sans', 'Bitstream Vera Sans', sans-serif; text-anchor: end" x="76.9" y="129.154821" transform="rotate(-0 76.9 129.154821)">12000</text>
     </g>
    </g>
    <g id="ytick_8">
     <g id="line2d_15">
      <g>
       <use xlink:href="#m700132d264" x="86.4" y="86.4" style="fill: #262626; stroke: #262626; stroke-width: 1.25"/>
      </g>
     </g>
     <g id="text_16">
      <text style="fill: #262626; font: 16px 'Arial', 'DejaVu Sans', 'Liberation Sans', 'Bitstream Vera Sans', sans-serif; text-anchor: end" x="76.9" y="92.12625" transform="rotate(-0 76.9 92.12625)">14000</text>
     </g>
    </g>
    <g id="text_17">
     <text style="fill: #262626; font: 16px 'Arial', 'DejaVu Sans', 'Liberation Sans', 'Bitstream Vera Sans', sans-serif; text-anchor: middle" x="25.045" y="216" transform="rotate(-90 25.045 216)">IgG(S) antibody titre (AU/mL)</text>
    </g>
   </g>
   <g id="PolyCollection_1">
    <defs>
     <path id="m612a126ed3" d="M 86.4 -107.734071 
L 86.4 -86.407456 
L 87.12 -86.407276 
L 87.84 -86.407101 
L 88.56 -86.406931 
L 89.28 -86.406764 
L 90 -95.439215 
L 90.72 -99.35968 
L 91.44 -100.912858 
L 92.16 -101.50732 
L 92.88 -101.707336 
L 93.6 -101.737641 
L 94.32 -101.699445 
L 95.04 -101.632441 
L 95.76 -101.499525 
L 96.48 -101.338431 
L 97.2 -101.166321 
L 97.92 -100.988939 
L 98.64 -100.811453 
L 99.36 -100.663504 
L 100.08 -100.536217 
L 100.8 -100.410628 
L 101.52 -100.258481 
L 102.24 -100.136879 
L 102.96 -100.021168 
L 103.68 -99.897639 
L 104.4 -99.766937 
L 105.12 -99.644775 
L 105.84 -99.537452 
L 106.56 -99.419122 
L 107.28 -99.284093 
L 108 -99.074637 
L 108.72 -98.808103 
L 109.44 -98.68295 
L 110.16 -98.503141 
L 110.88 -98.411399 
L 111.6 -98.31504 
L 112.32 -98.192062 
L 113.04 -97.991407 
L 113.76 -97.826377 
L 114.48 -97.773988 
L 115.2 -97.69848 
L 115.92 -97.549969 
L 116.64 -97.40704 
L 117.36 -97.284024 
L 118.08 -97.153474 
L 118.8 -97.007687 
L 119.52 -96.844835 
L 120.24 -96.719395 
L 120.96 -96.618417 
L 121.68 -96.527244 
L 122.4 -96.445937 
L 123.12 -96.344067 
L 123.84 -96.180925 
L 124.56 -96.022263 
L 125.28 -95.879924 
L 126 -95.734776 
L 126.72 -95.601129 
L 127.44 -95.472338 
L 128.16 -95.35489 
L 128.88 -95.235721 
L 129.6 -95.114189 
L 130.32 -94.918741 
L 131.04 -94.776151 
L 131.76 -94.680248 
L 132.48 -94.517856 
L 133.2 -94.386754 
L 133.92 -94.22881 
L 134.64 -94.059784 
L 135.36 -93.934988 
L 136.08 -93.796736 
L 136.8 -93.639171 
L 137.52 -93.486805 
L 138.24 -93.375971 
L 138.96 -93.266922 
L 139.68 -93.098839 
L 140.4 -93.027747 
L 141.12 -92.962297 
L 141.84 -92.856469 
L 142.56 -92.770528 
L 143.28 -92.673501 
L 144 -92.535627 
L 144.72 -92.485869 
L 145.44 -92.387755 
L 146.16 -92.298049 
L 146.88 -92.206607 
L 147.6 -92.112246 
L 148.32 -92.014554 
L 149.04 -91.914847 
L 149.76 -91.828837 
L 150.48 -91.770509 
L 151.2 -91.693967 
L 151.92 -91.623994 
L 152.64 -91.558445 
L 153.36 -91.495401 
L 154.08 -91.430111 
L 154.8 -91.312769 
L 155.52 -91.256431 
L 156.24 -91.141874 
L 156.96 -91.055478 
L 157.68 -90.976793 
L 158.4 -90.902411 
L 159.12 -90.849369 
L 159.84 -90.820311 
L 160.56 -90.797019 
L 161.28 -90.757679 
L 162 -90.627687 
L 162.72 -90.495362 
L 163.44 -90.417806 
L 164.16 -90.378442 
L 164.88 -90.33729 
L 165.6 -90.295521 
L 166.32 -90.191655 
L 167.04 -90.137589 
L 167.76 -90.082964 
L 168.48 -90.032475 
L 169.2 -89.923976 
L 169.92 -89.86114 
L 170.64 -89.799231 
L 171.36 -89.741624 
L 172.08 -89.675302 
L 172.8 -89.588921 
L 173.52 -89.508555 
L 174.24 -89.428569 
L 174.96 -89.347952 
L 175.68 -89.272816 
L 176.4 -89.195071 
L 177.12 -89.123734 
L 177.84 -89.053576 
L 178.56 -88.97498 
L 179.28 -88.89575 
L 180 -88.825339 
L 180.72 -88.779761 
L 181.44 -88.723581 
L 182.16 -88.661337 
L 182.88 -88.603424 
L 183.6 -88.545852 
L 184.32 -88.48842 
L 185.04 -88.434968 
L 185.76 -88.386784 
L 186.48 -88.350558 
L 187.2 -88.314036 
L 187.92 -88.276342 
L 188.64 -88.241209 
L 189.36 -88.20768 
L 190.08 -88.172154 
L 190.8 -88.137956 
L 191.52 -88.106255 
L 192.24 -88.073684 
L 192.96 -88.040635 
L 193.68 -88.010045 
L 194.4 -87.98053 
L 195.12 -87.949311 
L 195.84 -87.91975 
L 196.56 -87.892155 
L 197.28 -87.863294 
L 198 -87.834617 
L 198.72 -87.808163 
L 199.44 -87.779496 
L 200.16 -87.741919 
L 200.88 -87.706431 
L 201.6 -87.669999 
L 202.32 -87.635074 
L 203.04 -87.602397 
L 203.76 -87.569155 
L 204.48 -87.536725 
L 205.2 -87.506531 
L 205.92 -87.476273 
L 206.64 -87.446204 
L 207.36 -87.418236 
L 208.08 -87.390712 
L 208.8 -87.362897 
L 209.52 -87.336946 
L 210.24 -87.311884 
L 210.96 -87.287121 
L 211.68 -87.268956 
L 212.4 -87.249945 
L 213.12 -87.231531 
L 213.84 -87.214448 
L 214.56 -87.197058 
L 215.28 -87.179505 
L 216 -87.163233 
L 216.72 -87.147371 
L 217.44 -87.130813 
L 218.16 -87.115223 
L 218.88 -87.100551 
L 219.6 -87.085211 
L 220.32 -87.070281 
L 221.04 -87.056458 
L 221.76 -87.04245 
L 222.48 -87.028237 
L 223.2 -87.015061 
L 223.92 -87.002282 
L 224.64 -86.988899 
L 225.36 -86.976278 
L 226.08 -86.964431 
L 226.8 -86.952066 
L 227.52 -86.939989 
L 228.24 -86.928814 
L 228.96 -86.917532 
L 229.68 -86.906049 
L 230.4 -86.895394 
L 231.12 -86.885094 
L 231.84 -86.873196 
L 232.56 -86.860164 
L 233.28 -86.846483 
L 234 -86.832878 
L 234.72 -86.820256 
L 235.44 -86.807922 
L 236.16 -86.795489 
L 236.88 -86.783898 
L 237.6 -86.772715 
L 238.32 -86.761343 
L 239.04 -86.750691 
L 239.76 -86.740538 
L 240.48 -86.730158 
L 241.2 -86.720365 
L 241.92 -86.711124 
L 242.64 -86.701675 
L 243.36 -86.692673 
L 244.08 -86.684241 
L 244.8 -86.675658 
L 245.52 -86.66884 
L 246.24 -86.663799 
L 246.96 -86.659001 
L 247.68 -86.653921 
L 248.4 -86.649036 
L 249.12 -86.644577 
L 249.84 -86.640508 
L 250.56 -86.636397 
L 251.28 -86.632122 
L 252 -86.628151 
L 252.72 -86.624373 
L 253.44 -86.620346 
L 254.16 -86.61577 
L 254.88 -86.609728 
L 255.6 -86.605505 
L 256.32 -86.60167 
L 257.04 -86.59784 
L 257.76 -86.593872 
L 258.48 -86.590169 
L 259.2 -86.585724 
L 259.92 -86.580985 
L 260.64 -86.576329 
L 261.36 -86.572008 
L 262.08 -86.567693 
L 262.8 -86.563344 
L 263.52 -86.559301 
L 264.24 -86.55537 
L 264.96 -86.551328 
L 265.68 -86.547383 
L 266.4 -86.543266 
L 267.12 -86.539178 
L 267.84 -86.535377 
L 268.56 -86.531638 
L 269.28 -86.527866 
L 270 -86.524348 
L 270.72 -86.520949 
L 271.44 -86.517479 
L 272.16 -86.514219 
L 272.88 -86.51112 
L 273.6 -86.507939 
L 274.32 -86.504918 
L 275.04 -86.502079 
L 275.76 -86.499176 
L 276.48 -86.496377 
L 277.2 -86.493767 
L 277.92 -86.491125 
L 278.64 -86.48854 
L 279.36 -86.486147 
L 280.08 -86.483754 
L 280.8 -86.481371 
L 281.52 -86.479158 
L 282.24 -86.476985 
L 282.96 -86.474786 
L 283.68 -86.472736 
L 284.4 -86.47076 
L 285.12 -86.468736 
L 285.84 -86.466836 
L 286.56 -86.465033 
L 287.28 -86.463179 
L 288 -86.461417 
L 288.72 -86.459764 
L 289.44 -86.458073 
L 290.16 -86.456439 
L 290.88 -86.454918 
L 291.6 -86.453381 
L 292.32 -86.451868 
L 293.04 -86.450464 
L 293.76 -86.449067 
L 294.48 -86.447777 
L 295.2 -86.446658 
L 295.92 -86.445605 
L 296.64 -86.444512 
L 297.36 -86.443453 
L 298.08 -86.442469 
L 298.8 -86.441471 
L 299.52 -86.440473 
L 300.24 -86.439546 
L 300.96 -86.438595 
L 301.68 -86.437561 
L 302.4 -86.436551 
L 303.12 -86.435524 
L 303.84 -86.434564 
L 304.56 -86.433644 
L 305.28 -86.432699 
L 306 -86.431807 
L 306.72 -86.430965 
L 307.44 -86.4301 
L 308.16 -86.429271 
L 308.88 -86.428497 
L 309.6 -86.427708 
L 310.32 -86.426938 
L 311.04 -86.426223 
L 311.76 -86.425506 
L 312.48 -86.424793 
L 313.2 -86.424131 
L 313.92 -86.423479 
L 314.64 -86.42282 
L 315.36 -86.422205 
L 316.08 -86.421612 
L 316.8 -86.421004 
L 317.52 -86.420433 
L 318.24 -86.419892 
L 318.96 -86.419335 
L 319.68 -86.418806 
L 320.4 -86.41831 
L 321.12 -86.417803 
L 321.84 -86.417312 
L 322.56 -86.416855 
L 323.28 -86.416393 
L 324 -86.415938 
L 324.72 -86.415514 
L 325.44 -86.415095 
L 326.16 -86.414673 
L 326.88 -86.41428 
L 327.6 -86.413899 
L 328.32 -86.41351 
L 329.04 -86.413145 
L 329.76 -86.412797 
L 330.48 -86.412439 
L 331.2 -86.4121 
L 331.92 -86.411813 
L 332.64 -86.411555 
L 333.36 -86.411316 
L 334.08 -86.411081 
L 334.8 -86.410837 
L 335.52 -86.410609 
L 336.24 -86.410392 
L 336.96 -86.410165 
L 337.68 -86.409947 
L 338.4 -86.409743 
L 339.12 -86.409515 
L 339.84 -86.409263 
L 340.56 -86.409006 
L 341.28 -86.408765 
L 342 -86.408536 
L 342.72 -86.408299 
L 343.44 -86.408075 
L 344.16 -86.407865 
L 344.88 -86.407651 
L 344.88 -107.827311 
L 344.88 -107.827311 
L 344.16 -107.946661 
L 343.44 -108.07256 
L 342.72 -108.17618 
L 342 -108.29159 
L 341.28 -108.464942 
L 340.56 -108.643127 
L 339.84 -108.825456 
L 339.12 -109.002121 
L 338.4 -109.179992 
L 337.68 -109.373347 
L 336.96 -109.551241 
L 336.24 -109.716917 
L 335.52 -109.912647 
L 334.8 -110.123874 
L 334.08 -110.328445 
L 333.36 -110.518076 
L 332.64 -110.697356 
L 331.92 -110.884929 
L 331.2 -111.084361 
L 330.48 -111.285081 
L 329.76 -111.482312 
L 329.04 -111.678192 
L 328.32 -111.882518 
L 327.6 -112.086881 
L 326.88 -112.284036 
L 326.16 -112.492352 
L 325.44 -112.664994 
L 324.72 -112.815346 
L 324 -113.038564 
L 323.28 -113.200118 
L 322.56 -113.390554 
L 321.84 -113.565828 
L 321.12 -113.671591 
L 320.4 -113.79054 
L 319.68 -113.89366 
L 318.96 -113.986645 
L 318.24 -114.110468 
L 317.52 -114.228193 
L 316.8 -114.413856 
L 316.08 -114.676083 
L 315.36 -114.925575 
L 314.64 -115.161025 
L 313.92 -115.39568 
L 313.2 -115.64592 
L 312.48 -115.830803 
L 311.76 -116.011887 
L 311.04 -116.23233 
L 310.32 -116.434916 
L 309.6 -116.604333 
L 308.88 -116.769772 
L 308.16 -116.965392 
L 307.44 -117.164023 
L 306.72 -117.349122 
L 306 -117.52858 
L 305.28 -117.727093 
L 304.56 -117.923276 
L 303.84 -118.103584 
L 303.12 -118.298168 
L 302.4 -118.511344 
L 301.68 -118.692956 
L 300.96 -118.86315 
L 300.24 -119.091498 
L 299.52 -119.324633 
L 298.8 -119.522731 
L 298.08 -119.696996 
L 297.36 -119.897514 
L 296.64 -120.116231 
L 295.92 -120.323637 
L 295.2 -120.517629 
L 294.48 -120.724192 
L 293.76 -120.938602 
L 293.04 -121.139861 
L 292.32 -121.323986 
L 291.6 -121.534626 
L 290.88 -121.754557 
L 290.16 -121.937256 
L 289.44 -122.120065 
L 288.72 -122.364227 
L 288 -122.601289 
L 287.28 -122.797651 
L 286.56 -122.978399 
L 285.84 -123.196358 
L 285.12 -123.423619 
L 284.4 -123.632886 
L 283.68 -123.831151 
L 282.96 -124.053261 
L 282.24 -124.277193 
L 281.52 -124.479549 
L 280.8 -124.690113 
L 280.08 -124.933947 
L 279.36 -125.145069 
L 278.64 -125.328992 
L 277.92 -125.575042 
L 277.2 -125.840354 
L 276.48 -126.066305 
L 275.76 -126.259083 
L 275.04 -126.488016 
L 274.32 -126.906334 
L 273.6 -127.260192 
L 272.88 -127.490198 
L 272.16 -127.746104 
L 271.44 -128.002977 
L 270.72 -128.230804 
L 270 -128.467437 
L 269.28 -128.739306 
L 268.56 -128.975726 
L 267.84 -129.183238 
L 267.12 -129.39057 
L 266.4 -129.571147 
L 265.68 -129.728618 
L 264.96 -129.834668 
L 264.24 -130.005298 
L 263.52 -130.268628 
L 262.8 -130.525432 
L 262.08 -130.75802 
L 261.36 -131.160851 
L 260.64 -131.611671 
L 259.92 -132.065612 
L 259.2 -132.314172 
L 258.48 -132.611822 
L 257.76 -132.891626 
L 257.04 -133.121144 
L 256.32 -133.388192 
L 255.6 -133.712525 
L 254.88 -134.003911 
L 254.16 -134.24554 
L 253.44 -134.495158 
L 252.72 -134.790034 
L 252 -135.060927 
L 251.28 -135.274228 
L 250.56 -135.521053 
L 249.84 -135.722428 
L 249.12 -135.908332 
L 248.4 -136.212224 
L 247.68 -136.530205 
L 246.96 -136.888768 
L 246.24 -137.202939 
L 245.52 -137.485139 
L 244.8 -137.851122 
L 244.08 -138.17891 
L 243.36 -138.532993 
L 242.64 -138.788352 
L 241.92 -139.098155 
L 241.2 -139.41933 
L 240.48 -139.713255 
L 239.76 -139.992205 
L 239.04 -140.307492 
L 238.32 -140.622627 
L 237.6 -140.906104 
L 236.88 -141.20459 
L 236.16 -141.548302 
L 235.44 -141.843433 
L 234.72 -142.101874 
L 234 -142.451157 
L 233.28 -142.823313 
L 232.56 -143.28578 
L 231.84 -143.826831 
L 231.12 -144.359568 
L 230.4 -144.926501 
L 229.68 -145.321128 
L 228.96 -145.684999 
L 228.24 -146.046471 
L 227.52 -146.441956 
L 226.8 -146.819194 
L 226.08 -147.164583 
L 225.36 -147.498885 
L 224.64 -147.82307 
L 223.92 -148.328757 
L 223.2 -148.677925 
L 222.48 -149.132567 
L 221.76 -149.574303 
L 221.04 -149.946767 
L 220.32 -150.291207 
L 219.6 -150.699701 
L 218.88 -151.129518 
L 218.16 -151.525696 
L 217.44 -151.904238 
L 216.72 -152.326554 
L 216 -152.752737 
L 215.28 -153.139421 
L 214.56 -153.536447 
L 213.84 -153.993414 
L 213.12 -154.397923 
L 212.4 -154.748513 
L 211.68 -155.197685 
L 210.96 -155.691157 
L 210.24 -156.118837 
L 209.52 -156.485837 
L 208.8 -156.898706 
L 208.08 -157.361737 
L 207.36 -157.79816 
L 206.64 -158.137055 
L 205.92 -158.618791 
L 205.2 -159.097046 
L 204.48 -159.524125 
L 203.76 -159.930491 
L 203.04 -160.419193 
L 202.32 -160.881473 
L 201.6 -161.268392 
L 200.88 -161.710447 
L 200.16 -162.249018 
L 199.44 -162.736983 
L 198.72 -163.359833 
L 198 -164.137042 
L 197.28 -164.871645 
L 196.56 -165.530511 
L 195.84 -166.046307 
L 195.12 -166.514825 
L 194.4 -166.916049 
L 193.68 -167.244446 
L 192.96 -167.624773 
L 192.24 -168.064022 
L 191.52 -168.46121 
L 190.8 -168.809233 
L 190.08 -169.205656 
L 189.36 -169.639743 
L 188.64 -170.055788 
L 187.92 -170.956732 
L 187.2 -171.890034 
L 186.48 -172.788306 
L 185.76 -173.66994 
L 185.04 -174.64873 
L 184.32 -175.611423 
L 183.6 -176.497839 
L 182.88 -177.422772 
L 182.16 -178.469999 
L 181.44 -179.435514 
L 180.72 -180.167865 
L 180 -180.808218 
L 179.28 -181.423466 
L 178.56 -182.199768 
L 177.84 -182.9679 
L 177.12 -183.633914 
L 176.4 -184.246425 
L 175.68 -184.952714 
L 174.96 -185.696465 
L 174.24 -186.391622 
L 173.52 -187.049964 
L 172.8 -187.773649 
L 172.08 -188.446804 
L 171.36 -188.983014 
L 170.64 -189.447251 
L 169.92 -190.051187 
L 169.2 -190.699838 
L 168.48 -191.247797 
L 167.76 -191.728936 
L 167.04 -192.576657 
L 166.32 -193.545432 
L 165.6 -194.499794 
L 164.88 -195.599034 
L 164.16 -196.622399 
L 163.44 -197.401288 
L 162.72 -198.123601 
L 162 -198.883102 
L 161.28 -199.70218 
L 160.56 -200.453111 
L 159.84 -201.158437 
L 159.12 -201.991863 
L 158.4 -202.799342 
L 157.68 -203.483358 
L 156.96 -204.234495 
L 156.24 -205.155845 
L 155.52 -205.826236 
L 154.8 -206.614881 
L 154.08 -207.164135 
L 153.36 -207.840149 
L 152.64 -208.355319 
L 151.92 -208.737167 
L 151.2 -209.306951 
L 150.48 -209.862091 
L 149.76 -210.388276 
L 149.04 -210.891341 
L 148.32 -211.567255 
L 147.6 -212.430695 
L 146.88 -213.342741 
L 146.16 -214.49984 
L 145.44 -215.867333 
L 144.72 -217.219769 
L 144 -218.510161 
L 143.28 -219.815748 
L 142.56 -221.23566 
L 141.84 -222.621414 
L 141.12 -223.924995 
L 140.4 -225.220227 
L 139.68 -225.893003 
L 138.96 -226.539517 
L 138.24 -228.243328 
L 137.52 -229.530038 
L 136.8 -231.141787 
L 136.08 -232.701261 
L 135.36 -234.207749 
L 134.64 -235.67467 
L 133.92 -236.697315 
L 133.2 -237.994976 
L 132.48 -239.849792 
L 131.76 -241.859272 
L 131.04 -243.022249 
L 130.32 -243.753314 
L 129.6 -244.443735 
L 128.88 -244.937444 
L 128.16 -245.441017 
L 127.44 -246.167658 
L 126.72 -246.828081 
L 126 -247.319077 
L 125.28 -248.219014 
L 124.56 -250.629837 
L 123.84 -253.05879 
L 123.12 -255.631792 
L 122.4 -258.275808 
L 121.68 -260.75254 
L 120.96 -263.369148 
L 120.24 -264.945081 
L 119.52 -266.249231 
L 118.8 -267.619436 
L 118.08 -269.814697 
L 117.36 -272.048027 
L 116.64 -274.093611 
L 115.92 -276.380672 
L 115.2 -278.224537 
L 114.48 -279.066423 
L 113.76 -279.794203 
L 113.04 -280.883472 
L 112.32 -281.417492 
L 111.6 -282.051469 
L 110.88 -282.881207 
L 110.16 -284.093732 
L 109.44 -285.516715 
L 108.72 -286.701491 
L 108 -287.55111 
L 107.28 -288.590803 
L 106.56 -289.629973 
L 105.84 -290.525368 
L 105.12 -291.427979 
L 104.4 -292.526769 
L 103.68 -293.528073 
L 102.96 -295.610199 
L 102.24 -297.804795 
L 101.52 -300.074249 
L 100.8 -302.209862 
L 100.08 -303.193483 
L 99.36 -305.30276 
L 98.64 -306.84243 
L 97.92 -308.302481 
L 97.2 -309.719733 
L 96.48 -311.192968 
L 95.76 -312.598494 
L 95.04 -313.883607 
L 94.32 -315.054936 
L 93.6 -315.778716 
L 92.88 -315.996763 
L 92.16 -313.527002 
L 91.44 -304.512463 
L 90.72 -279.916998 
L 90 -222.555534 
L 89.28 -107.439831 
L 88.56 -107.427367 
L 87.84 -107.532323 
L 87.12 -107.634745 
L 86.4 -107.734071 
z
" style="stroke: #ffffff; stroke-opacity: 0.5"/>
    </defs>
    <g clip-path="url(#p239149859d)">
     <use xlink:href="#m612a126ed3" x="0" y="432" style="fill: #4c72b0; fill-opacity: 0.5; stroke: #ffffff; stroke-opacity: 0.5"/>
    </g>
   </g>
   <g id="line2d_16">
    <path d="M 86.4 342.026324 
L 89.28 342.142285 
L 90 302.402567 
L 90.72 283.682198 
L 91.44 276.195878 
L 92.16 273.395458 
L 92.88 272.532754 
L 93.6 272.494529 
L 94.32 272.790227 
L 95.76 273.717529 
L 108.72 283.03739 
L 118.8 289.852948 
L 132.48 298.217604 
L 143.28 304.092881 
L 151.92 308.321974 
L 162.72 313.063052 
L 171.36 316.441926 
L 179.28 319.241028 
L 188.64 322.194416 
L 196.56 324.440003 
L 205.2 326.637832 
L 213.84 328.598287 
L 221.76 330.208919 
L 230.4 331.786588 
L 239.76 333.302246 
L 251.28 334.92607 
L 264.96 336.558467 
L 279.36 337.988826 
L 293.76 339.174662 
L 308.16 340.161236 
L 326.88 341.201613 
L 344.88 341.99814 
L 344.88 341.99814 
" clip-path="url(#p239149859d)" style="fill: none; stroke: #4c72b0; stroke-width: 2; stroke-linecap: round"/>
   </g>
   <g id="patch_3">
    <path d="M 86.4 345.6 
L 86.4 86.4 
" style="fill: none; stroke: #262626; stroke-width: 1.25; stroke-linejoin: miter; stroke-linecap: square"/>
   </g>
   <g id="patch_4">
    <path d="M 86.4 345.6 
L 345.6 345.6 
" style="fill: none; stroke: #262626; stroke-width: 1.25; stroke-linejoin: miter; stroke-linecap: square"/>
   </g>
  </g>
 </g>
 <defs>
  <clipPath id="p239149859d">
   <rect x="86.4" y="86.4" width="259.2" height="259.2"/>
  </clipPath>
 </defs>
</svg>
