<?xml version="1.0" encoding="utf-8" standalone="no"?>
<!DOCTYPE svg PUBLIC "-//W3C//DTD SVG 1.1//EN"
  "http://www.w3.org/Graphics/SVG/1.1/DTD/svg11.dtd">
<svg xmlns:xlink="http://www.w3.org/1999/xlink" width="432pt" height="432pt" viewBox="0 0 432 432" xmlns="http://www.w3.org/2000/svg" version="1.1">
 <metadata>
  <rdf:RDF xmlns:dc="http://purl.org/dc/elements/1.1/" xmlns:cc="http://creativecommons.org/ns#" xmlns:rdf="http://www.w3.org/1999/02/22-rdf-syntax-ns#">
   <cc:Work>
    <dc:type rdf:resource="http://purl.org/dc/dcmitype/StillImage"/>
    <dc:date>2024-09-16T15:53:02.953131</dc:date>
    <dc:format>image/svg+xml</dc:format>
    <dc:creator>
     <cc:Agent>
      <dc:title>Matplotlib v3.8.4, https://matplotlib.org/</dc:title>
     </cc:Agent>
    </dc:creator>
   </cc:Work>
  </rdf:RDF>
 </metadata>
 <defs>
  <style type="text/css">*{stroke-linejoin: round; stroke-linecap: butt}</style>
 </defs>
 <g id="figure_1">
  <g id="patch_1">
   <path d="M 0 432 
L 432 432 
L 432 0 
L 0 0 
L 0 432 
z
" style="fill: none"/>
  </g>
  <g id="axes_1">
   <g id="patch_2">
    <path d="M 86.4 345.6 
L 345.6 345.6 
L 345.6 86.4 
L 86.4 86.4 
L 86.4 345.6 
z
" style="fill: none"/>
   </g>
   <g id="matplotlib.axis_1">
    <g id="xtick_1">
     <g id="line2d_1">
      <defs>
       <path id="m5c5e4361e3" d="M 0 0 
L 0 6 
" style="stroke: #262626; stroke-width: 1.25"/>
      </defs>
      <g>
       <use xlink:href="#m5c5e4361e3" x="86.4" y="345.6" style="fill: #262626; stroke: #262626; stroke-width: 1.25"/>
      </g>
     </g>
     <g id="text_1">
      <text style="fill: #262626; font: 16px 'Arial', 'DejaVu Sans', 'Liberation Sans', 'Bitstream Vera Sans', sans-serif; text-anchor: middle" x="86.4" y="366.5525" transform="rotate(-0 86.4 366.5525)">0</text>
     </g>
    </g>
    <g id="xtick_2">
     <g id="line2d_2">
      <g>
       <use xlink:href="#m5c5e4361e3" x="129.6" y="345.6" style="fill: #262626; stroke: #262626; stroke-width: 1.25"/>
      </g>
     </g>
     <g id="text_2">
      <text style="fill: #262626; font: 16px 'Arial', 'DejaVu Sans', 'Liberation Sans', 'Bitstream Vera Sans', sans-serif; text-anchor: middle" x="129.6" y="366.5525" transform="rotate(-0 129.6 366.5525)">60</text>
     </g>
    </g>
    <g id="xtick_3">
     <g id="line2d_3">
      <g>
       <use xlink:href="#m5c5e4361e3" x="172.8" y="345.6" style="fill: #262626; stroke: #262626; stroke-width: 1.25"/>
      </g>
     </g>
     <g id="text_3">
      <text style="fill: #262626; font: 16px 'Arial', 'DejaVu Sans', 'Liberation Sans', 'Bitstream Vera Sans', sans-serif; text-anchor: middle" x="172.8" y="366.5525" transform="rotate(-0 172.8 366.5525)">120</text>
     </g>
    </g>
    <g id="xtick_4">
     <g id="line2d_4">
      <g>
       <use xlink:href="#m5c5e4361e3" x="216" y="345.6" style="fill: #262626; stroke: #262626; stroke-width: 1.25"/>
      </g>
     </g>
     <g id="text_4">
      <text style="fill: #262626; font: 16px 'Arial', 'DejaVu Sans', 'Liberation Sans', 'Bitstream Vera Sans', sans-serif; text-anchor: middle" x="216" y="366.5525" transform="rotate(-0 216 366.5525)">180</text>
     </g>
    </g>
    <g id="xtick_5">
     <g id="line2d_5">
      <g>
       <use xlink:href="#m5c5e4361e3" x="259.2" y="345.6" style="fill: #262626; stroke: #262626; stroke-width: 1.25"/>
      </g>
     </g>
     <g id="text_5">
      <text style="fill: #262626; font: 16px 'Arial', 'DejaVu Sans', 'Liberation Sans', 'Bitstream Vera Sans', sans-serif; text-anchor: middle" x="259.2" y="366.5525" transform="rotate(-0 259.2 366.5525)">240</text>
     </g>
    </g>
    <g id="xtick_6">
     <g id="line2d_6">
      <g>
       <use xlink:href="#m5c5e4361e3" x="302.4" y="345.6" style="fill: #262626; stroke: #262626; stroke-width: 1.25"/>
      </g>
     </g>
     <g id="text_6">
      <text style="fill: #262626; font: 16px 'Arial', 'DejaVu Sans', 'Liberation Sans', 'Bitstream Vera Sans', sans-serif; text-anchor: middle" x="302.4" y="366.5525" transform="rotate(-0 302.4 366.5525)">300</text>
     </g>
    </g>
    <g id="xtick_7">
     <g id="line2d_7">
      <g>
       <use xlink:href="#m5c5e4361e3" x="345.6" y="345.6" style="fill: #262626; stroke: #262626; stroke-width: 1.25"/>
      </g>
     </g>
     <g id="text_7">
      <text style="fill: #262626; font: 16px 'Arial', 'DejaVu Sans', 'Liberation Sans', 'Bitstream Vera Sans', sans-serif; text-anchor: middle" x="345.6" y="366.5525" transform="rotate(-0 345.6 366.5525)">360</text>
     </g>
    </g>
    <g id="text_8">
     <text style="fill: #262626; font: 16px 'Arial', 'DejaVu Sans', 'Liberation Sans', 'Bitstream Vera Sans', sans-serif; text-anchor: middle" x="216" y="385.38" transform="rotate(-0 216 385.38)">Time since vaccination (days)</text>
    </g>
   </g>
   <g id="matplotlib.axis_2">
    <g id="ytick_1">
     <g id="line2d_8">
      <defs>
       <path id="mb0e94f1db3" d="M 0 0 
L -6 0 
" style="stroke: #262626; stroke-width: 1.25"/>
      </defs>
      <g>
       <use xlink:href="#mb0e94f1db3" x="86.4" y="345.6" style="fill: #262626; stroke: #262626; stroke-width: 1.25"/>
      </g>
     </g>
     <g id="text_9">
      <text style="fill: #262626; font: 16px 'Arial', 'DejaVu Sans', 'Liberation Sans', 'Bitstream Vera Sans', sans-serif; text-anchor: end" x="76.9" y="351.32625" transform="rotate(-0 76.9 351.32625)">0</text>
     </g>
    </g>
    <g id="ytick_2">
     <g id="line2d_9">
      <g>
       <use xlink:href="#mb0e94f1db3" x="86.4" y="293.76" style="fill: #262626; stroke: #262626; stroke-width: 1.25"/>
      </g>
     </g>
     <g id="text_10">
      <text style="fill: #262626; font: 16px 'Arial', 'DejaVu Sans', 'Liberation Sans', 'Bitstream Vera Sans', sans-serif; text-anchor: end" x="76.9" y="299.48625" transform="rotate(-0 76.9 299.48625)">1</text>
     </g>
    </g>
    <g id="ytick_3">
     <g id="line2d_10">
      <g>
       <use xlink:href="#mb0e94f1db3" x="86.4" y="241.92" style="fill: #262626; stroke: #262626; stroke-width: 1.25"/>
      </g>
     </g>
     <g id="text_11">
      <text style="fill: #262626; font: 16px 'Arial', 'DejaVu Sans', 'Liberation Sans', 'Bitstream Vera Sans', sans-serif; text-anchor: end" x="76.9" y="247.64625" transform="rotate(-0 76.9 247.64625)">2</text>
     </g>
    </g>
    <g id="ytick_4">
     <g id="line2d_11">
      <g>
       <use xlink:href="#mb0e94f1db3" x="86.4" y="190.08" style="fill: #262626; stroke: #262626; stroke-width: 1.25"/>
      </g>
     </g>
     <g id="text_12">
      <text style="fill: #262626; font: 16px 'Arial', 'DejaVu Sans', 'Liberation Sans', 'Bitstream Vera Sans', sans-serif; text-anchor: end" x="76.9" y="195.80625" transform="rotate(-0 76.9 195.80625)">3</text>
     </g>
    </g>
    <g id="ytick_5">
     <g id="line2d_12">
      <g>
       <use xlink:href="#mb0e94f1db3" x="86.4" y="138.24" style="fill: #262626; stroke: #262626; stroke-width: 1.25"/>
      </g>
     </g>
     <g id="text_13">
      <text style="fill: #262626; font: 16px 'Arial', 'DejaVu Sans', 'Liberation Sans', 'Bitstream Vera Sans', sans-serif; text-anchor: end" x="76.9" y="143.96625" transform="rotate(-0 76.9 143.96625)">4</text>
     </g>
    </g>
    <g id="ytick_6">
     <g id="line2d_13">
      <g>
       <use xlink:href="#mb0e94f1db3" x="86.4" y="86.4" style="fill: #262626; stroke: #262626; stroke-width: 1.25"/>
      </g>
     </g>
     <g id="text_14">
      <text style="fill: #262626; font: 16px 'Arial', 'DejaVu Sans', 'Liberation Sans', 'Bitstream Vera Sans', sans-serif; text-anchor: end" x="76.9" y="92.12625" transform="rotate(-0 76.9 92.12625)">5</text>
     </g>
    </g>
    <g id="text_15">
     <!-- log$_{10}$[IgG(S) antibody titre (AU/mL)] -->
     <g style="fill: #262626" transform="translate(60.4825 342.16) rotate(-90)">
      <text>
       <tspan style="font: 16px 'Arial'" x="0 3.554688 12.453125 36.19375 40.639063 45.084375 53.982813 66.428125 71.75625 82.428125 87.75625 92.201562 101.1 109.998437 114.44375 117.998437 126.896875 135.795312 144.69375 152.69375 157.139062 161.584375 165.139062 169.584375 174.9125 183.810937 188.25625 193.584375 204.25625 215.810937 220.25625 233.584375 242.482812 247.810937" y="-0.34375">log[IgG(S) antibody titre (AU/mL)]</tspan>
       <tspan style="font: 11.2px 'DejaVu Sans'" x="21.504687 28.630469" y="2.28125">10</tspan>
      </text>
     </g>
    </g>
   </g>
   <g id="PolyCollection_1">
    <defs>
     <path id="mb43576baf6" d="M 86.4 -244.469509 
L 86.4 -76.187163 
L 87.12 -75.614835 
L 87.84 -75.090588 
L 88.56 -74.528899 
L 89.28 -74.041756 
L 90 -224.297423 
L 90.72 -232.612098 
L 91.44 -235.201001 
L 92.16 -236.102074 
L 92.88 -236.374052 
L 93.6 -236.398055 
L 94.32 -236.314891 
L 95.04 -236.187336 
L 95.76 -236.041362 
L 96.48 -235.882391 
L 97.2 -235.723475 
L 97.92 -235.548404 
L 98.64 -235.301203 
L 99.36 -235.121364 
L 100.08 -235.012704 
L 100.8 -234.793056 
L 101.52 -234.611374 
L 102.24 -234.316607 
L 102.96 -234.081428 
L 103.68 -233.836926 
L 104.4 -233.614131 
L 105.12 -233.363544 
L 105.84 -233.196402 
L 106.56 -233.002933 
L 107.28 -232.821318 
L 108 -232.605753 
L 108.72 -232.345226 
L 109.44 -232.167709 
L 110.16 -231.951757 
L 110.88 -231.637769 
L 111.6 -231.393504 
L 112.32 -231.129362 
L 113.04 -230.901329 
L 113.76 -230.629961 
L 114.48 -230.363629 
L 115.2 -230.085 
L 115.92 -229.787472 
L 116.64 -229.563023 
L 117.36 -229.304226 
L 118.08 -229.017962 
L 118.8 -228.822639 
L 119.52 -228.620384 
L 120.24 -228.31625 
L 120.96 -227.944301 
L 121.68 -227.761471 
L 122.4 -227.58067 
L 123.12 -227.391591 
L 123.84 -227.173536 
L 124.56 -226.864366 
L 125.28 -226.675616 
L 126 -226.481379 
L 126.72 -226.166893 
L 127.44 -225.759218 
L 128.16 -225.412386 
L 128.88 -225.082448 
L 129.6 -224.726526 
L 130.32 -224.440917 
L 131.04 -224.080624 
L 131.76 -223.820291 
L 132.48 -223.522019 
L 133.2 -223.148635 
L 133.92 -222.735509 
L 134.64 -222.495422 
L 135.36 -222.168097 
L 136.08 -221.840456 
L 136.8 -221.521687 
L 137.52 -221.191616 
L 138.24 -220.817313 
L 138.96 -220.475314 
L 139.68 -220.112042 
L 140.4 -219.8808 
L 141.12 -219.479838 
L 141.84 -219.118467 
L 142.56 -218.828714 
L 143.28 -218.529099 
L 144 -218.220389 
L 144.72 -217.921551 
L 145.44 -217.596915 
L 146.16 -217.174854 
L 146.88 -216.694982 
L 147.6 -216.352536 
L 148.32 -215.997255 
L 149.04 -215.65701 
L 149.76 -215.240122 
L 150.48 -214.863407 
L 151.2 -214.489021 
L 151.92 -214.119349 
L 152.64 -213.742212 
L 153.36 -213.381022 
L 154.08 -212.865815 
L 154.8 -212.434244 
L 155.52 -212.011907 
L 156.24 -211.729224 
L 156.96 -211.328367 
L 157.68 -211.087994 
L 158.4 -210.692698 
L 159.12 -210.282144 
L 159.84 -209.895891 
L 160.56 -209.49148 
L 161.28 -209.040592 
L 162 -208.679421 
L 162.72 -208.389316 
L 163.44 -208.069056 
L 164.16 -207.719981 
L 164.88 -207.23337 
L 165.6 -206.8183 
L 166.32 -206.326527 
L 167.04 -205.911372 
L 167.76 -205.478495 
L 168.48 -205.02973 
L 169.2 -204.570997 
L 169.92 -204.129684 
L 170.64 -203.732733 
L 171.36 -203.329044 
L 172.08 -202.89623 
L 172.8 -202.459442 
L 173.52 -202.046286 
L 174.24 -201.601663 
L 174.96 -201.142102 
L 175.68 -200.659425 
L 176.4 -200.219899 
L 177.12 -199.789408 
L 177.84 -199.358412 
L 178.56 -198.925891 
L 179.28 -198.487777 
L 180 -197.984165 
L 180.72 -197.509137 
L 181.44 -197.00778 
L 182.16 -196.578929 
L 182.88 -196.122917 
L 183.6 -195.601638 
L 184.32 -195.049929 
L 185.04 -194.457987 
L 185.76 -193.891519 
L 186.48 -193.331906 
L 187.2 -192.833354 
L 187.92 -192.324965 
L 188.64 -191.798871 
L 189.36 -191.268629 
L 190.08 -190.77461 
L 190.8 -190.290713 
L 191.52 -189.910165 
L 192.24 -189.51518 
L 192.96 -188.982696 
L 193.68 -188.483842 
L 194.4 -187.915272 
L 195.12 -187.455689 
L 195.84 -187.026375 
L 196.56 -186.513919 
L 197.28 -186.1075 
L 198 -185.624094 
L 198.72 -185.009952 
L 199.44 -184.418855 
L 200.16 -183.866341 
L 200.88 -183.394018 
L 201.6 -182.855341 
L 202.32 -182.420878 
L 203.04 -181.904246 
L 203.76 -181.346954 
L 204.48 -180.911291 
L 205.2 -180.488212 
L 205.92 -180.004275 
L 206.64 -179.652149 
L 207.36 -179.182028 
L 208.08 -178.754287 
L 208.8 -178.239234 
L 209.52 -177.750953 
L 210.24 -177.21151 
L 210.96 -176.658358 
L 211.68 -176.162966 
L 212.4 -175.708814 
L 213.12 -175.15887 
L 213.84 -174.535342 
L 214.56 -173.961096 
L 215.28 -173.434593 
L 216 -172.911622 
L 216.72 -172.350439 
L 217.44 -171.819748 
L 218.16 -171.324313 
L 218.88 -170.818352 
L 219.6 -170.413309 
L 220.32 -169.988254 
L 221.04 -169.46598 
L 221.76 -168.981507 
L 222.48 -168.387803 
L 223.2 -167.819896 
L 223.92 -167.282915 
L 224.64 -166.827869 
L 225.36 -166.395456 
L 226.08 -165.870726 
L 226.8 -165.324382 
L 227.52 -164.777309 
L 228.24 -164.218678 
L 228.96 -163.737569 
L 229.68 -163.218988 
L 230.4 -162.664322 
L 231.12 -162.131998 
L 231.84 -161.682138 
L 232.56 -161.152916 
L 233.28 -160.593052 
L 234 -159.994401 
L 234.72 -159.444188 
L 235.44 -158.905571 
L 236.16 -158.444406 
L 236.88 -158.025877 
L 237.6 -157.590897 
L 238.32 -157.09516 
L 239.04 -156.50823 
L 239.76 -155.866947 
L 240.48 -155.252809 
L 241.2 -154.631038 
L 241.92 -154.10939 
L 242.64 -153.535751 
L 243.36 -153.013324 
L 244.08 -152.483608 
L 244.8 -151.945138 
L 245.52 -151.394571 
L 246.24 -150.844665 
L 246.96 -150.281353 
L 247.68 -149.773343 
L 248.4 -149.17759 
L 249.12 -148.668618 
L 249.84 -148.159861 
L 250.56 -147.637374 
L 251.28 -147.078573 
L 252 -146.451492 
L 252.72 -145.85001 
L 253.44 -145.224794 
L 254.16 -144.593189 
L 254.88 -144.047289 
L 255.6 -143.572415 
L 256.32 -143.116933 
L 257.04 -142.531172 
L 257.76 -142.021034 
L 258.48 -141.455081 
L 259.2 -140.915804 
L 259.92 -140.387345 
L 260.64 -139.88363 
L 261.36 -139.39631 
L 262.08 -138.87197 
L 262.8 -138.372716 
L 263.52 -137.883216 
L 264.24 -137.349829 
L 264.96 -136.750381 
L 265.68 -136.236455 
L 266.4 -135.606048 
L 267.12 -135.145338 
L 267.84 -134.61769 
L 268.56 -134.105578 
L 269.28 -133.605949 
L 270 -133.112929 
L 270.72 -132.585971 
L 271.44 -132.04494 
L 272.16 -131.521134 
L 272.88 -131.016834 
L 273.6 -130.482373 
L 274.32 -129.949946 
L 275.04 -129.443753 
L 275.76 -128.929336 
L 276.48 -128.485468 
L 277.2 -127.911471 
L 277.92 -127.334735 
L 278.64 -126.77165 
L 279.36 -126.304939 
L 280.08 -125.794359 
L 280.8 -125.256788 
L 281.52 -124.734621 
L 282.24 -124.272419 
L 282.96 -123.811128 
L 283.68 -123.318776 
L 284.4 -122.718612 
L 285.12 -122.16617 
L 285.84 -121.581849 
L 286.56 -121.016244 
L 287.28 -120.417959 
L 288 -119.826841 
L 288.72 -119.260972 
L 289.44 -118.670655 
L 290.16 -118.073993 
L 290.88 -117.506448 
L 291.6 -116.95561 
L 292.32 -116.432299 
L 293.04 -115.860163 
L 293.76 -115.276019 
L 294.48 -114.655516 
L 295.2 -114.155377 
L 295.92 -113.677053 
L 296.64 -113.150454 
L 297.36 -112.613771 
L 298.08 -112.103383 
L 298.8 -111.62575 
L 299.52 -111.140094 
L 300.24 -110.630843 
L 300.96 -110.144832 
L 301.68 -109.669595 
L 302.4 -109.161353 
L 303.12 -108.619356 
L 303.84 -108.023792 
L 304.56 -107.438623 
L 305.28 -106.878469 
L 306 -106.291491 
L 306.72 -105.701274 
L 307.44 -105.183605 
L 308.16 -104.686828 
L 308.88 -104.160839 
L 309.6 -103.635548 
L 310.32 -103.137701 
L 311.04 -102.626939 
L 311.76 -102.096924 
L 312.48 -101.592761 
L 313.2 -101.090293 
L 313.92 -100.555528 
L 314.64 -100.038858 
L 315.36 -99.54162 
L 316.08 -99.013082 
L 316.8 -98.489776 
L 317.52 -97.991904 
L 318.24 -97.475852 
L 318.96 -96.945753 
L 319.68 -96.357733 
L 320.4 -95.771824 
L 321.12 -95.203376 
L 321.84 -94.600421 
L 322.56 -94.007352 
L 323.28 -93.439374 
L 324 -92.843905 
L 324.72 -92.244469 
L 325.44 -91.726236 
L 326.16 -91.271608 
L 326.88 -90.791185 
L 327.6 -90.269055 
L 328.32 -89.619232 
L 329.04 -89.033131 
L 329.76 -88.402413 
L 330.48 -87.799182 
L 331.2 -87.273227 
L 331.92 -86.717872 
L 332.64 -86.175569 
L 333.36 -85.655474 
L 334.08 -85.107951 
L 334.8 -84.573493 
L 335.52 -84.06046 
L 336.24 -83.558012 
L 336.96 -83.069783 
L 337.68 -82.49044 
L 338.4 -81.935667 
L 339.12 -81.353412 
L 339.84 -80.784772 
L 340.56 -80.20801 
L 341.28 -79.635072 
L 342 -79.042353 
L 342.72 -78.476948 
L 343.44 -77.902868 
L 344.16 -77.328875 
L 344.88 -76.755693 
L 344.88 -244.607796 
L 344.88 -244.607796 
L 344.16 -244.756323 
L 343.44 -244.905616 
L 342.72 -245.061626 
L 342 -245.210534 
L 341.28 -245.385062 
L 340.56 -245.587143 
L 339.84 -245.782701 
L 339.12 -245.972968 
L 338.4 -246.158261 
L 337.68 -246.274736 
L 336.96 -246.389055 
L 336.24 -246.490229 
L 335.52 -246.614995 
L 334.8 -246.723873 
L 334.08 -246.872616 
L 333.36 -247.059201 
L 332.64 -247.201086 
L 331.92 -247.337039 
L 331.2 -247.542714 
L 330.48 -247.730023 
L 329.76 -247.905945 
L 329.04 -248.019442 
L 328.32 -248.12655 
L 327.6 -248.279696 
L 326.88 -248.431544 
L 326.16 -248.579162 
L 325.44 -248.73595 
L 324.72 -248.830498 
L 324 -249.001357 
L 323.28 -249.167808 
L 322.56 -249.273236 
L 321.84 -249.372515 
L 321.12 -249.50743 
L 320.4 -249.695106 
L 319.68 -249.808861 
L 318.96 -249.970503 
L 318.24 -250.124253 
L 317.52 -250.224538 
L 316.8 -250.36902 
L 316.08 -250.528767 
L 315.36 -250.687281 
L 314.64 -250.855809 
L 313.92 -250.97179 
L 313.2 -251.104724 
L 312.48 -251.231626 
L 311.76 -251.37611 
L 311.04 -251.535635 
L 310.32 -251.757596 
L 309.6 -251.911606 
L 308.88 -252.036488 
L 308.16 -252.119504 
L 307.44 -252.226488 
L 306.72 -252.357573 
L 306 -252.447477 
L 305.28 -252.533008 
L 304.56 -252.689944 
L 303.84 -252.877974 
L 303.12 -253.028127 
L 302.4 -253.11805 
L 301.68 -253.221562 
L 300.96 -253.319233 
L 300.24 -253.421889 
L 299.52 -253.521406 
L 298.8 -253.655333 
L 298.08 -253.844898 
L 297.36 -254.008393 
L 296.64 -254.13902 
L 295.92 -254.270283 
L 295.2 -254.446177 
L 294.48 -254.607776 
L 293.76 -254.762693 
L 293.04 -254.901286 
L 292.32 -255.028557 
L 291.6 -255.144729 
L 290.88 -255.283194 
L 290.16 -255.42072 
L 289.44 -255.542959 
L 288.72 -255.688367 
L 288 -255.852626 
L 287.28 -255.987069 
L 286.56 -256.120432 
L 285.84 -256.248289 
L 285.12 -256.37848 
L 284.4 -256.566917 
L 283.68 -256.747591 
L 282.96 -256.9395 
L 282.24 -257.057139 
L 281.52 -257.217567 
L 280.8 -257.345795 
L 280.08 -257.509575 
L 279.36 -257.637783 
L 278.64 -257.751084 
L 277.92 -257.870012 
L 277.2 -258.002879 
L 276.48 -258.132567 
L 275.76 -258.255582 
L 275.04 -258.365915 
L 274.32 -258.497712 
L 273.6 -258.607218 
L 272.88 -258.733696 
L 272.16 -258.888065 
L 271.44 -259.023364 
L 270.72 -259.218942 
L 270 -259.346808 
L 269.28 -259.476535 
L 268.56 -259.600065 
L 267.84 -259.71028 
L 267.12 -259.841523 
L 266.4 -260.026034 
L 265.68 -260.171436 
L 264.96 -260.303463 
L 264.24 -260.442403 
L 263.52 -260.601701 
L 262.8 -260.755371 
L 262.08 -260.892583 
L 261.36 -261.012503 
L 260.64 -261.127686 
L 259.92 -261.265087 
L 259.2 -261.40449 
L 258.48 -261.569031 
L 257.76 -261.774722 
L 257.04 -261.91936 
L 256.32 -262.031476 
L 255.6 -262.187019 
L 254.88 -262.336693 
L 254.16 -262.476338 
L 253.44 -262.608771 
L 252.72 -262.810477 
L 252 -262.982592 
L 251.28 -263.147353 
L 250.56 -263.321361 
L 249.84 -263.479054 
L 249.12 -263.677211 
L 248.4 -263.829446 
L 247.68 -263.999901 
L 246.96 -264.173212 
L 246.24 -264.367432 
L 245.52 -264.503489 
L 244.8 -264.703353 
L 244.08 -264.896403 
L 243.36 -265.040967 
L 242.64 -265.157212 
L 241.92 -265.336303 
L 241.2 -265.474262 
L 240.48 -265.587634 
L 239.76 -265.716073 
L 239.04 -265.858528 
L 238.32 -265.994855 
L 237.6 -266.160496 
L 236.88 -266.313937 
L 236.16 -266.450894 
L 235.44 -266.562983 
L 234.72 -266.689575 
L 234 -266.823758 
L 233.28 -266.996461 
L 232.56 -267.162732 
L 231.84 -267.365572 
L 231.12 -267.494304 
L 230.4 -267.670545 
L 229.68 -267.76561 
L 228.96 -267.893352 
L 228.24 -267.997477 
L 227.52 -268.174921 
L 226.8 -268.260743 
L 226.08 -268.433855 
L 225.36 -268.625399 
L 224.64 -268.794715 
L 223.92 -268.932754 
L 223.2 -269.039874 
L 222.48 -269.191537 
L 221.76 -269.396747 
L 221.04 -269.500017 
L 220.32 -269.647061 
L 219.6 -269.824399 
L 218.88 -269.988982 
L 218.16 -270.141405 
L 217.44 -270.284601 
L 216.72 -270.443979 
L 216 -270.605972 
L 215.28 -270.770867 
L 214.56 -270.910044 
L 213.84 -271.069428 
L 213.12 -271.204614 
L 212.4 -271.389839 
L 211.68 -271.550224 
L 210.96 -271.702073 
L 210.24 -271.849843 
L 209.52 -271.990058 
L 208.8 -272.160957 
L 208.08 -272.329087 
L 207.36 -272.482777 
L 206.64 -272.639194 
L 205.92 -272.843151 
L 205.2 -273.015645 
L 204.48 -273.175403 
L 203.76 -273.333372 
L 203.04 -273.49494 
L 202.32 -273.637981 
L 201.6 -273.782343 
L 200.88 -273.893622 
L 200.16 -274.034746 
L 199.44 -274.178227 
L 198.72 -274.310079 
L 198 -274.448983 
L 197.28 -274.623094 
L 196.56 -274.77171 
L 195.84 -274.917751 
L 195.12 -275.085669 
L 194.4 -275.247163 
L 193.68 -275.426008 
L 192.96 -275.55989 
L 192.24 -275.69614 
L 191.52 -275.82721 
L 190.8 -275.968048 
L 190.08 -276.126323 
L 189.36 -276.28953 
L 188.64 -276.461957 
L 187.92 -276.648255 
L 187.2 -276.80555 
L 186.48 -276.96632 
L 185.76 -277.127473 
L 185.04 -277.286299 
L 184.32 -277.429031 
L 183.6 -277.582438 
L 182.88 -277.770493 
L 182.16 -277.912736 
L 181.44 -278.097242 
L 180.72 -278.265007 
L 180 -278.441284 
L 179.28 -278.663525 
L 178.56 -278.854098 
L 177.84 -279.05514 
L 177.12 -279.205862 
L 176.4 -279.382445 
L 175.68 -279.484096 
L 174.96 -279.641868 
L 174.24 -279.770903 
L 173.52 -279.876324 
L 172.8 -279.967078 
L 172.08 -280.035404 
L 171.36 -280.095103 
L 170.64 -280.256834 
L 169.92 -280.454049 
L 169.2 -280.633196 
L 168.48 -280.772271 
L 167.76 -281.005878 
L 167.04 -281.17571 
L 166.32 -281.307695 
L 165.6 -281.42608 
L 164.88 -281.580594 
L 164.16 -281.759531 
L 163.44 -281.965874 
L 162.72 -282.104132 
L 162 -282.215876 
L 161.28 -282.410172 
L 160.56 -282.592516 
L 159.84 -282.806839 
L 159.12 -282.949729 
L 158.4 -283.140378 
L 157.68 -283.301632 
L 156.96 -283.486756 
L 156.24 -283.672498 
L 155.52 -283.829062 
L 154.8 -283.958756 
L 154.08 -284.126181 
L 153.36 -284.265682 
L 152.64 -284.384847 
L 151.92 -284.53661 
L 151.2 -284.721223 
L 150.48 -284.945354 
L 149.76 -285.106337 
L 149.04 -285.293204 
L 148.32 -285.43579 
L 147.6 -285.649497 
L 146.88 -285.816267 
L 146.16 -285.968083 
L 145.44 -286.132084 
L 144.72 -286.327968 
L 144 -286.550163 
L 143.28 -286.652306 
L 142.56 -286.793404 
L 141.84 -286.976559 
L 141.12 -287.143531 
L 140.4 -287.292993 
L 139.68 -287.438054 
L 138.96 -287.618835 
L 138.24 -287.795209 
L 137.52 -287.964148 
L 136.8 -288.134974 
L 136.08 -288.302219 
L 135.36 -288.454251 
L 134.64 -288.626223 
L 133.92 -288.881671 
L 133.2 -288.992939 
L 132.48 -289.163412 
L 131.76 -289.350687 
L 131.04 -289.592031 
L 130.32 -289.740885 
L 129.6 -289.878305 
L 128.88 -290.025408 
L 128.16 -290.166788 
L 127.44 -290.316332 
L 126.72 -290.512214 
L 126 -290.643097 
L 125.28 -290.849659 
L 124.56 -291.01956 
L 123.84 -291.211917 
L 123.12 -291.455634 
L 122.4 -291.629919 
L 121.68 -291.810802 
L 120.96 -291.937141 
L 120.24 -292.099637 
L 119.52 -292.245007 
L 118.8 -292.406928 
L 118.08 -292.57741 
L 117.36 -292.821352 
L 116.64 -293.025307 
L 115.92 -293.155996 
L 115.2 -293.317066 
L 114.48 -293.528464 
L 113.76 -293.71225 
L 113.04 -293.905353 
L 112.32 -294.069638 
L 111.6 -294.234765 
L 110.88 -294.369313 
L 110.16 -294.517983 
L 109.44 -294.697635 
L 108.72 -294.881206 
L 108 -295.008166 
L 107.28 -295.205382 
L 106.56 -295.342117 
L 105.84 -295.582216 
L 105.12 -295.728268 
L 104.4 -296.031445 
L 103.68 -296.255542 
L 102.96 -296.367874 
L 102.24 -296.58389 
L 101.52 -296.658823 
L 100.8 -296.793595 
L 100.08 -296.929359 
L 99.36 -297.149382 
L 98.64 -297.292103 
L 97.92 -297.437193 
L 97.2 -297.595762 
L 96.48 -297.730951 
L 95.76 -297.921351 
L 95.04 -298.062545 
L 94.32 -298.159486 
L 93.6 -298.271015 
L 92.88 -298.311617 
L 92.16 -298.008478 
L 91.44 -297.115709 
L 90.72 -294.610982 
L 90 -286.666664 
L 89.28 -244.051706 
L 88.56 -244.150372 
L 87.84 -244.258445 
L 87.12 -244.364733 
L 86.4 -244.469509 
z
" style="stroke: #ffffff; stroke-opacity: 0.5"/>
    </defs>
    <g clip-path="url(#p32b5b7d964)">
     <use xlink:href="#mb43576baf6" x="0" y="432" style="fill: #0173b2; fill-opacity: 0.5; stroke: #ffffff; stroke-opacity: 0.5"/>
    </g>
   </g>
   <g id="line2d_14">
    <path d="M 86.4 254.89374 
L 89.28 256.052245 
L 90 176.600092 
L 90.72 168.457018 
L 91.44 165.88116 
L 92.16 164.988754 
L 92.88 164.72095 
L 94.32 164.801206 
L 97.92 165.594739 
L 109.44 168.476122 
L 136.08 176.072231 
L 148.32 179.926474 
L 169.2 186.903781 
L 182.88 191.703739 
L 202.32 198.762348 
L 221.04 205.765142 
L 239.04 212.643735 
L 265.68 223.01007 
L 311.76 241.296844 
L 344.88 254.602779 
L 344.88 254.602779 
" clip-path="url(#p32b5b7d964)" style="fill: none; stroke: #0173b2; stroke-width: 2; stroke-linecap: round"/>
   </g>
   <g id="patch_3">
    <path d="M 86.4 345.6 
L 86.4 86.4 
" style="fill: none; stroke: #262626; stroke-width: 1.25; stroke-linejoin: miter; stroke-linecap: square"/>
   </g>
   <g id="patch_4">
    <path d="M 86.4 345.6 
L 345.6 345.6 
" style="fill: none; stroke: #262626; stroke-width: 1.25; stroke-linejoin: miter; stroke-linecap: square"/>
   </g>
  </g>
 </g>
 <defs>
  <clipPath id="p32b5b7d964">
   <rect x="86.4" y="86.4" width="259.2" height="259.2"/>
  </clipPath>
 </defs>
</svg>
