<?xml version="1.0" encoding="utf-8" standalone="no"?>
<!DOCTYPE svg PUBLIC "-//W3C//DTD SVG 1.1//EN"
  "http://www.w3.org/Graphics/SVG/1.1/DTD/svg11.dtd">
<svg xmlns:xlink="http://www.w3.org/1999/xlink" width="432pt" height="432pt" viewBox="0 0 432 432" xmlns="http://www.w3.org/2000/svg" version="1.1">
 <metadata>
  <rdf:RDF xmlns:dc="http://purl.org/dc/elements/1.1/" xmlns:cc="http://creativecommons.org/ns#" xmlns:rdf="http://www.w3.org/1999/02/22-rdf-syntax-ns#">
   <cc:Work>
    <dc:type rdf:resource="http://purl.org/dc/dcmitype/StillImage"/>
    <dc:date>2024-05-17T14:07:33.107331</dc:date>
    <dc:format>image/svg+xml</dc:format>
    <dc:creator>
     <cc:Agent>
      <dc:title>Matplotlib v3.8.4, https://matplotlib.org/</dc:title>
     </cc:Agent>
    </dc:creator>
   </cc:Work>
  </rdf:RDF>
 </metadata>
 <defs>
  <style type="text/css">*{stroke-linejoin: round; stroke-linecap: butt}</style>
 </defs>
 <g id="figure_1">
  <g id="patch_1">
   <path d="M 0 432 
L 432 432 
L 432 0 
L 0 0 
L 0 432 
z
" style="fill: none"/>
  </g>
  <g id="axes_1">
   <g id="patch_2">
    <path d="M 86.4 345.6 
L 345.6 345.6 
L 345.6 86.4 
L 86.4 86.4 
L 86.4 345.6 
z
" style="fill: none"/>
   </g>
   <g id="matplotlib.axis_1">
    <g id="xtick_1">
     <g id="line2d_1">
      <defs>
       <path id="m2109c0463a" d="M 0 0 
L 0 6 
" style="stroke: #262626; stroke-width: 1.25"/>
      </defs>
      <g>
       <use xlink:href="#m2109c0463a" x="86.4" y="345.6" style="fill: #262626; stroke: #262626; stroke-width: 1.25"/>
      </g>
     </g>
     <g id="text_1">
      <text style="fill: #262626; font: 16px 'Arial', 'DejaVu Sans', 'Liberation Sans', 'Bitstream Vera Sans', sans-serif; text-anchor: middle" x="86.4" y="366.5525" transform="rotate(-0 86.4 366.5525)">0</text>
     </g>
    </g>
    <g id="xtick_2">
     <g id="line2d_2">
      <g>
       <use xlink:href="#m2109c0463a" x="129.6" y="345.6" style="fill: #262626; stroke: #262626; stroke-width: 1.25"/>
      </g>
     </g>
     <g id="text_2">
      <text style="fill: #262626; font: 16px 'Arial', 'DejaVu Sans', 'Liberation Sans', 'Bitstream Vera Sans', sans-serif; text-anchor: middle" x="129.6" y="366.5525" transform="rotate(-0 129.6 366.5525)">60</text>
     </g>
    </g>
    <g id="xtick_3">
     <g id="line2d_3">
      <g>
       <use xlink:href="#m2109c0463a" x="172.8" y="345.6" style="fill: #262626; stroke: #262626; stroke-width: 1.25"/>
      </g>
     </g>
     <g id="text_3">
      <text style="fill: #262626; font: 16px 'Arial', 'DejaVu Sans', 'Liberation Sans', 'Bitstream Vera Sans', sans-serif; text-anchor: middle" x="172.8" y="366.5525" transform="rotate(-0 172.8 366.5525)">120</text>
     </g>
    </g>
    <g id="xtick_4">
     <g id="line2d_4">
      <g>
       <use xlink:href="#m2109c0463a" x="216" y="345.6" style="fill: #262626; stroke: #262626; stroke-width: 1.25"/>
      </g>
     </g>
     <g id="text_4">
      <text style="fill: #262626; font: 16px 'Arial', 'DejaVu Sans', 'Liberation Sans', 'Bitstream Vera Sans', sans-serif; text-anchor: middle" x="216" y="366.5525" transform="rotate(-0 216 366.5525)">180</text>
     </g>
    </g>
    <g id="xtick_5">
     <g id="line2d_5">
      <g>
       <use xlink:href="#m2109c0463a" x="259.2" y="345.6" style="fill: #262626; stroke: #262626; stroke-width: 1.25"/>
      </g>
     </g>
     <g id="text_5">
      <text style="fill: #262626; font: 16px 'Arial', 'DejaVu Sans', 'Liberation Sans', 'Bitstream Vera Sans', sans-serif; text-anchor: middle" x="259.2" y="366.5525" transform="rotate(-0 259.2 366.5525)">240</text>
     </g>
    </g>
    <g id="xtick_6">
     <g id="line2d_6">
      <g>
       <use xlink:href="#m2109c0463a" x="302.4" y="345.6" style="fill: #262626; stroke: #262626; stroke-width: 1.25"/>
      </g>
     </g>
     <g id="text_6">
      <text style="fill: #262626; font: 16px 'Arial', 'DejaVu Sans', 'Liberation Sans', 'Bitstream Vera Sans', sans-serif; text-anchor: middle" x="302.4" y="366.5525" transform="rotate(-0 302.4 366.5525)">300</text>
     </g>
    </g>
    <g id="xtick_7">
     <g id="line2d_7">
      <g>
       <use xlink:href="#m2109c0463a" x="345.6" y="345.6" style="fill: #262626; stroke: #262626; stroke-width: 1.25"/>
      </g>
     </g>
     <g id="text_7">
      <text style="fill: #262626; font: 16px 'Arial', 'DejaVu Sans', 'Liberation Sans', 'Bitstream Vera Sans', sans-serif; text-anchor: middle" x="345.6" y="366.5525" transform="rotate(-0 345.6 366.5525)">360</text>
     </g>
    </g>
    <g id="text_8">
     <text style="fill: #262626; font: 16px 'Arial', 'DejaVu Sans', 'Liberation Sans', 'Bitstream Vera Sans', sans-serif; text-anchor: middle" x="216" y="385.38" transform="rotate(-0 216 385.38)">Time since vaccination (days)</text>
    </g>
   </g>
   <g id="matplotlib.axis_2">
    <g id="ytick_1">
     <g id="line2d_8">
      <defs>
       <path id="m54236dc25b" d="M 0 0 
L -6 0 
" style="stroke: #262626; stroke-width: 1.25"/>
      </defs>
      <g>
       <use xlink:href="#m54236dc25b" x="86.4" y="345.6" style="fill: #262626; stroke: #262626; stroke-width: 1.25"/>
      </g>
     </g>
     <g id="text_9">
      <text style="fill: #262626; font: 16px 'Arial', 'DejaVu Sans', 'Liberation Sans', 'Bitstream Vera Sans', sans-serif; text-anchor: end" x="76.9" y="351.32625" transform="rotate(-0 76.9 351.32625)">0</text>
     </g>
    </g>
    <g id="ytick_2">
     <g id="line2d_9">
      <g>
       <use xlink:href="#m54236dc25b" x="86.4" y="308.571429" style="fill: #262626; stroke: #262626; stroke-width: 1.25"/>
      </g>
     </g>
     <g id="text_10">
      <text style="fill: #262626; font: 16px 'Arial', 'DejaVu Sans', 'Liberation Sans', 'Bitstream Vera Sans', sans-serif; text-anchor: end" x="76.9" y="314.297679" transform="rotate(-0 76.9 314.297679)">2000</text>
     </g>
    </g>
    <g id="ytick_3">
     <g id="line2d_10">
      <g>
       <use xlink:href="#m54236dc25b" x="86.4" y="271.542857" style="fill: #262626; stroke: #262626; stroke-width: 1.25"/>
      </g>
     </g>
     <g id="text_11">
      <text style="fill: #262626; font: 16px 'Arial', 'DejaVu Sans', 'Liberation Sans', 'Bitstream Vera Sans', sans-serif; text-anchor: end" x="76.9" y="277.269107" transform="rotate(-0 76.9 277.269107)">4000</text>
     </g>
    </g>
    <g id="ytick_4">
     <g id="line2d_11">
      <g>
       <use xlink:href="#m54236dc25b" x="86.4" y="234.514286" style="fill: #262626; stroke: #262626; stroke-width: 1.25"/>
      </g>
     </g>
     <g id="text_12">
      <text style="fill: #262626; font: 16px 'Arial', 'DejaVu Sans', 'Liberation Sans', 'Bitstream Vera Sans', sans-serif; text-anchor: end" x="76.9" y="240.240536" transform="rotate(-0 76.9 240.240536)">6000</text>
     </g>
    </g>
    <g id="ytick_5">
     <g id="line2d_12">
      <g>
       <use xlink:href="#m54236dc25b" x="86.4" y="197.485714" style="fill: #262626; stroke: #262626; stroke-width: 1.25"/>
      </g>
     </g>
     <g id="text_13">
      <text style="fill: #262626; font: 16px 'Arial', 'DejaVu Sans', 'Liberation Sans', 'Bitstream Vera Sans', sans-serif; text-anchor: end" x="76.9" y="203.211964" transform="rotate(-0 76.9 203.211964)">8000</text>
     </g>
    </g>
    <g id="ytick_6">
     <g id="line2d_13">
      <g>
       <use xlink:href="#m54236dc25b" x="86.4" y="160.457143" style="fill: #262626; stroke: #262626; stroke-width: 1.25"/>
      </g>
     </g>
     <g id="text_14">
      <text style="fill: #262626; font: 16px 'Arial', 'DejaVu Sans', 'Liberation Sans', 'Bitstream Vera Sans', sans-serif; text-anchor: end" x="76.9" y="166.183393" transform="rotate(-0 76.9 166.183393)">10000</text>
     </g>
    </g>
    <g id="ytick_7">
     <g id="line2d_14">
      <g>
       <use xlink:href="#m54236dc25b" x="86.4" y="123.428571" style="fill: #262626; stroke: #262626; stroke-width: 1.25"/>
      </g>
     </g>
     <g id="text_15">
      <text style="fill: #262626; font: 16px 'Arial', 'DejaVu Sans', 'Liberation Sans', 'Bitstream Vera Sans', sans-serif; text-anchor: end" x="76.9" y="129.154821" transform="rotate(-0 76.9 129.154821)">12000</text>
     </g>
    </g>
    <g id="ytick_8">
     <g id="line2d_15">
      <g>
       <use xlink:href="#m54236dc25b" x="86.4" y="86.4" style="fill: #262626; stroke: #262626; stroke-width: 1.25"/>
      </g>
     </g>
     <g id="text_16">
      <text style="fill: #262626; font: 16px 'Arial', 'DejaVu Sans', 'Liberation Sans', 'Bitstream Vera Sans', sans-serif; text-anchor: end" x="76.9" y="92.12625" transform="rotate(-0 76.9 92.12625)">14000</text>
     </g>
    </g>
    <g id="text_17">
     <text style="fill: #262626; font: 16px 'Arial', 'DejaVu Sans', 'Liberation Sans', 'Bitstream Vera Sans', sans-serif; text-anchor: middle" x="25.045" y="216" transform="rotate(-90 25.045 216)">Antibody titre (AU)</text>
    </g>
   </g>
   <g id="PolyCollection_1">
    <defs>
     <path id="m0085871ccd" d="M 86.4 -86.4 
L 86.4 -86.4 
L 87.12 -86.4 
L 87.84 -86.4 
L 88.56 -86.4 
L 89.28 -86.4 
L 90 -94.967108 
L 90.72 -99.133716 
L 91.44 -100.818992 
L 92.16 -101.468183 
L 92.88 -101.69063 
L 93.6 -101.731257 
L 94.32 -101.696057 
L 95.04 -101.631738 
L 95.76 -101.499335 
L 96.48 -101.338215 
L 97.2 -101.16626 
L 97.92 -100.988973 
L 98.64 -100.811422 
L 99.36 -100.663615 
L 100.08 -100.536014 
L 100.8 -100.410289 
L 101.52 -100.258433 
L 102.24 -100.137686 
L 102.96 -100.021589 
L 103.68 -99.897269 
L 104.4 -99.766393 
L 105.12 -99.645255 
L 105.84 -99.538614 
L 106.56 -99.419665 
L 107.28 -99.283935 
L 108 -99.058971 
L 108.72 -98.808391 
L 109.44 -98.68253 
L 110.16 -98.500194 
L 110.88 -98.412296 
L 111.6 -98.31515 
L 112.32 -98.191461 
L 113.04 -97.990422 
L 113.76 -97.836373 
L 114.48 -97.773022 
L 115.2 -97.698472 
L 115.92 -97.549913 
L 116.64 -97.406974 
L 117.36 -97.28415 
L 118.08 -97.153724 
L 118.8 -97.007731 
L 119.52 -96.850182 
L 120.24 -96.718917 
L 120.96 -96.618394 
L 121.68 -96.527083 
L 122.4 -96.442977 
L 123.12 -96.331277 
L 123.84 -96.186428 
L 124.56 -96.031115 
L 125.28 -95.872568 
L 126 -95.727589 
L 126.72 -95.599644 
L 127.44 -95.473154 
L 128.16 -95.35499 
L 128.88 -95.235598 
L 129.6 -95.114153 
L 130.32 -94.915425 
L 131.04 -94.776144 
L 131.76 -94.678305 
L 132.48 -94.523516 
L 133.2 -94.381746 
L 133.92 -94.224871 
L 134.64 -94.06811 
L 135.36 -93.929702 
L 136.08 -93.789042 
L 136.8 -93.639906 
L 137.52 -93.494086 
L 138.24 -93.376039 
L 138.96 -93.263288 
L 139.68 -93.097416 
L 140.4 -93.0271 
L 141.12 -92.964637 
L 141.84 -92.862323 
L 142.56 -92.770422 
L 143.28 -92.673407 
L 144 -92.540176 
L 144.72 -92.483702 
L 145.44 -92.38781 
L 146.16 -92.298388 
L 146.88 -92.207493 
L 147.6 -92.1131 
L 148.32 -92.013077 
L 149.04 -91.914185 
L 149.76 -91.828803 
L 150.48 -91.770202 
L 151.2 -91.694305 
L 151.92 -91.623979 
L 152.64 -91.557849 
L 153.36 -91.495208 
L 154.08 -91.430092 
L 154.8 -91.312359 
L 155.52 -91.253655 
L 156.24 -91.14186 
L 156.96 -91.055584 
L 157.68 -90.976644 
L 158.4 -90.902493 
L 159.12 -90.846806 
L 159.84 -90.822606 
L 160.56 -90.797633 
L 161.28 -90.757769 
L 162 -90.627638 
L 162.72 -90.495305 
L 163.44 -90.418253 
L 164.16 -90.378557 
L 164.88 -90.337132 
L 165.6 -90.295544 
L 166.32 -90.189263 
L 167.04 -90.139424 
L 167.76 -90.085209 
L 168.48 -90.031395 
L 169.2 -89.924001 
L 169.92 -89.861013 
L 170.64 -89.79915 
L 171.36 -89.741783 
L 172.08 -89.675255 
L 172.8 -89.588926 
L 173.52 -89.508598 
L 174.24 -89.428523 
L 174.96 -89.34795 
L 175.68 -89.272855 
L 176.4 -89.197048 
L 177.12 -89.124196 
L 177.84 -89.053595 
L 178.56 -88.974993 
L 179.28 -88.895747 
L 180 -88.824772 
L 180.72 -88.777649 
L 181.44 -88.723538 
L 182.16 -88.661314 
L 182.88 -88.603502 
L 183.6 -88.545806 
L 184.32 -88.488378 
L 185.04 -88.435036 
L 185.76 -88.387444 
L 186.48 -88.349301 
L 187.2 -88.313967 
L 187.92 -88.277593 
L 188.64 -88.240677 
L 189.36 -88.206558 
L 190.08 -88.173393 
L 190.8 -88.138261 
L 191.52 -88.105043 
L 192.24 -88.074041 
L 192.96 -88.041571 
L 193.68 -88.009333 
L 194.4 -87.979825 
L 195.12 -87.950431 
L 195.84 -87.919744 
L 196.56 -87.891085 
L 197.28 -87.86395 
L 198 -87.835231 
L 198.72 -87.807359 
L 199.44 -87.779531 
L 200.16 -87.741877 
L 200.88 -87.706421 
L 201.6 -87.670046 
L 202.32 -87.635044 
L 203.04 -87.602367 
L 203.76 -87.569203 
L 204.48 -87.536714 
L 205.2 -87.506491 
L 205.92 -87.476313 
L 206.64 -87.446213 
L 207.36 -87.418194 
L 208.08 -87.39074 
L 208.8 -87.362919 
L 209.52 -87.336909 
L 210.24 -87.311895 
L 210.96 -87.287485 
L 211.68 -87.268836 
L 212.4 -87.249669 
L 213.12 -87.231759 
L 213.84 -87.214651 
L 214.56 -87.196719 
L 215.28 -87.179553 
L 216 -87.163553 
L 216.72 -87.147087 
L 217.44 -87.130693 
L 218.16 -87.115507 
L 218.88 -87.100496 
L 219.6 -87.084974 
L 220.32 -87.070446 
L 221.04 -87.056647 
L 221.76 -87.042175 
L 222.48 -87.028256 
L 223.2 -87.015323 
L 223.92 -87.002066 
L 224.64 -86.988787 
L 225.36 -86.976499 
L 226.08 -86.964416 
L 226.8 -86.951866 
L 227.52 -86.940108 
L 228.24 -86.928981 
L 228.96 -86.91731 
L 229.68 -86.906051 
L 230.4 -86.895607 
L 231.12 -86.884903 
L 231.84 -86.873151 
L 232.56 -86.860303 
L 233.28 -86.846328 
L 234 -86.83289 
L 234.72 -86.820398 
L 235.44 -86.807787 
L 236.16 -86.795472 
L 236.88 -86.784032 
L 237.6 -86.772604 
L 238.32 -86.761303 
L 239.04 -86.750811 
L 239.76 -86.740459 
L 240.48 -86.7301 
L 241.2 -86.720467 
L 241.92 -86.711085 
L 242.64 -86.701606 
L 243.36 -86.692755 
L 244.08 -86.684243 
L 244.8 -86.675581 
L 245.52 -86.668851 
L 246.24 -86.663786 
L 246.96 -86.659003 
L 247.68 -86.653932 
L 248.4 -86.649028 
L 249.12 -86.644771 
L 249.84 -86.640533 
L 250.56 -86.636193 
L 251.28 -86.632192 
L 252 -86.628332 
L 252.72 -86.624201 
L 253.44 -86.620273 
L 254.16 -86.615942 
L 254.88 -86.609742 
L 255.6 -86.6055 
L 256.32 -86.601661 
L 257.04 -86.597851 
L 257.76 -86.593874 
L 258.48 -86.590161 
L 259.2 -86.585731 
L 259.92 -86.580975 
L 260.64 -86.57633 
L 261.36 -86.572017 
L 262.08 -86.567685 
L 262.8 -86.563342 
L 263.52 -86.559309 
L 264.24 -86.555364 
L 264.96 -86.551324 
L 265.68 -86.547288 
L 266.4 -86.54321 
L 267.12 -86.539318 
L 267.84 -86.535327 
L 268.56 -86.531549 
L 269.28 -86.527987 
L 270 -86.524341 
L 270.72 -86.520841 
L 271.44 -86.517569 
L 272.16 -86.514248 
L 272.88 -86.511008 
L 273.6 -86.507993 
L 274.32 -86.504975 
L 275.04 -86.50198 
L 275.76 -86.499195 
L 276.48 -86.496453 
L 277.2 -86.49369 
L 277.92 -86.491112 
L 278.64 -86.488628 
L 279.36 -86.486093 
L 280.08 -86.483716 
L 280.8 -86.481456 
L 281.52 -86.479131 
L 282.24 -86.476927 
L 282.96 -86.474857 
L 283.68 -86.472735 
L 284.4 -86.470692 
L 285.12 -86.468788 
L 285.84 -86.466857 
L 286.56 -86.464965 
L 287.28 -86.463208 
L 288 -86.461455 
L 288.72 -86.459706 
L 289.44 -86.458081 
L 290.16 -86.456487 
L 290.88 -86.454875 
L 291.6 -86.453369 
L 292.32 -86.45192 
L 293.04 -86.450437 
L 293.76 -86.449041 
L 294.48 -86.447787 
L 295.2 -86.446699 
L 295.92 -86.445569 
L 296.64 -86.4445 
L 297.36 -86.443495 
L 298.08 -86.442455 
L 298.8 -86.441443 
L 299.52 -86.440503 
L 300.24 -86.439554 
L 300.96 -86.438599 
L 301.68 -86.437553 
L 302.4 -86.436555 
L 303.12 -86.435529 
L 303.84 -86.434558 
L 304.56 -86.433643 
L 305.28 -86.432705 
L 306 -86.431803 
L 306.72 -86.430961 
L 307.44 -86.430106 
L 308.16 -86.429269 
L 308.88 -86.428491 
L 309.6 -86.427714 
L 310.32 -86.426939 
L 311.04 -86.426217 
L 311.76 -86.425511 
L 312.48 -86.424795 
L 313.2 -86.424125 
L 313.92 -86.423482 
L 314.64 -86.422823 
L 315.36 -86.422201 
L 316.08 -86.421612 
L 316.8 -86.421008 
L 317.52 -86.420431 
L 318.24 -86.41989 
L 318.96 -86.419339 
L 319.68 -86.418804 
L 320.4 -86.418307 
L 321.12 -86.417807 
L 321.84 -86.417312 
L 322.56 -86.416851 
L 323.28 -86.416397 
L 324 -86.415938 
L 324.72 -86.415511 
L 325.44 -86.415098 
L 326.16 -86.414675 
L 326.88 -86.414278 
L 327.6 -86.4139 
L 328.32 -86.413512 
L 329.04 -86.413143 
L 329.76 -86.412796 
L 330.48 -86.412442 
L 331.2 -86.412099 
L 331.92 -86.411816 
L 332.64 -86.411567 
L 333.36 -86.411314 
L 334.08 -86.411071 
L 334.8 -86.410845 
L 335.52 -86.410613 
L 336.24 -86.410382 
L 336.96 -86.410167 
L 337.68 -86.409956 
L 338.4 -86.409737 
L 339.12 -86.409515 
L 339.84 -86.409263 
L 340.56 -86.409006 
L 341.28 -86.408766 
L 342 -86.408536 
L 342.72 -86.408299 
L 343.44 -86.408076 
L 344.16 -86.407865 
L 344.88 -86.407651 
L 344.88 -107.84188 
L 344.88 -107.84188 
L 344.16 -107.947884 
L 343.44 -108.062539 
L 342.72 -108.164798 
L 342 -108.289753 
L 341.28 -108.463426 
L 340.56 -108.645206 
L 339.84 -108.823864 
L 339.12 -108.997013 
L 338.4 -109.185926 
L 337.68 -109.373156 
L 336.96 -109.539756 
L 336.24 -109.717233 
L 335.52 -109.926171 
L 334.8 -110.135915 
L 334.08 -110.329783 
L 333.36 -110.507858 
L 332.64 -110.688979 
L 331.92 -110.887159 
L 331.2 -111.088154 
L 330.48 -111.284545 
L 329.76 -111.477914 
L 329.04 -111.679471 
L 328.32 -111.884265 
L 327.6 -112.080899 
L 326.88 -112.282674 
L 326.16 -112.500736 
L 325.44 -112.677215 
L 324.72 -112.818408 
L 324 -113.031394 
L 323.28 -113.234206 
L 322.56 -113.400196 
L 321.84 -113.541952 
L 321.12 -113.681941 
L 320.4 -113.775803 
L 319.68 -113.884938 
L 318.96 -114.010192 
L 318.24 -114.109379 
L 317.52 -114.195685 
L 316.8 -114.440811 
L 316.08 -114.676292 
L 315.36 -114.904669 
L 314.64 -115.146847 
L 313.92 -115.400101 
L 313.2 -115.652358 
L 312.48 -115.849397 
L 311.76 -116.04418 
L 311.04 -116.208568 
L 310.32 -116.378542 
L 309.6 -116.596963 
L 308.88 -116.804943 
L 308.16 -116.979204 
L 307.44 -117.144804 
L 306.72 -117.342431 
L 306 -117.54497 
L 305.28 -117.732035 
L 304.56 -117.911703 
L 303.84 -118.113057 
L 303.12 -118.313333 
L 302.4 -118.495564 
L 301.68 -118.688431 
L 300.96 -118.906701 
L 300.24 -119.095922 
L 299.52 -119.265225 
L 298.8 -119.4889 
L 298.08 -119.724945 
L 297.36 -119.927313 
L 296.64 -120.103832 
L 295.92 -120.306171 
L 295.2 -120.528975 
L 294.48 -120.738546 
L 293.76 -120.932753 
L 293.04 -121.127908 
L 292.32 -121.343536 
L 291.6 -121.543959 
L 290.88 -121.727824 
L 290.16 -121.94606 
L 289.44 -122.166648 
L 288.72 -122.349458 
L 288 -122.538416 
L 287.28 -122.785106 
L 286.56 -123.01879 
L 285.84 -123.211868 
L 285.12 -123.398023 
L 284.4 -123.624631 
L 283.68 -123.852785 
L 282.96 -124.058943 
L 282.24 -124.259267 
L 281.52 -124.489657 
L 280.8 -124.713139 
L 280.08 -124.913302 
L 279.36 -125.132672 
L 278.64 -125.378527 
L 277.92 -125.58749 
L 277.2 -125.776107 
L 276.48 -126.029933 
L 275.76 -126.292013 
L 275.04 -126.511766 
L 274.32 -126.903508 
L 273.6 -127.248642 
L 272.88 -127.512491 
L 272.16 -127.754548 
L 271.44 -127.98493 
L 270.72 -128.23929 
L 270 -128.492434 
L 269.28 -128.720343 
L 268.56 -128.96091 
L 267.84 -129.236257 
L 267.12 -129.42349 
L 266.4 -129.573264 
L 265.68 -129.697797 
L 264.96 -129.853209 
L 264.24 -130.051153 
L 263.52 -130.260864 
L 262.8 -130.495963 
L 262.08 -130.766034 
L 261.36 -131.163918 
L 260.64 -131.606942 
L 259.92 -132.061166 
L 259.2 -132.347346 
L 258.48 -132.606631 
L 257.76 -132.858503 
L 257.04 -133.157723 
L 256.32 -133.433096 
L 255.6 -133.662868 
L 254.88 -133.933467 
L 254.16 -134.257892 
L 253.44 -134.547474 
L 252.72 -134.787997 
L 252 -135.044954 
L 251.28 -135.285297 
L 250.56 -135.528841 
L 249.84 -135.712546 
L 249.12 -135.899572 
L 248.4 -136.232635 
L 247.68 -136.537921 
L 246.96 -136.857147 
L 246.24 -137.217964 
L 245.52 -137.535382 
L 244.8 -137.819461 
L 244.08 -138.132266 
L 243.36 -138.517822 
L 242.64 -138.846158 
L 241.92 -139.116703 
L 241.2 -139.381175 
L 240.48 -139.703694 
L 239.76 -140.024855 
L 239.04 -140.312998 
L 238.32 -140.596244 
L 237.6 -140.923221 
L 236.88 -141.23629 
L 236.16 -141.515962 
L 235.44 -141.828519 
L 234.72 -142.173784 
L 234 -142.464614 
L 233.28 -142.731435 
L 232.56 -143.244937 
L 231.84 -143.780958 
L 231.12 -144.363768 
L 230.4 -144.903616 
L 229.68 -145.304817 
L 228.96 -145.699432 
L 228.24 -146.064071 
L 227.52 -146.420807 
L 226.8 -146.817041 
L 226.08 -147.19571 
L 225.36 -147.521251 
L 224.64 -147.739437 
L 223.92 -148.360693 
L 223.2 -148.722024 
L 222.48 -149.074521 
L 221.76 -149.523998 
L 221.04 -149.966809 
L 220.32 -150.339975 
L 219.6 -150.685469 
L 218.88 -151.101179 
L 218.16 -151.533334 
L 217.44 -151.931113 
L 216.72 -152.312131 
L 216 -152.739209 
L 215.28 -153.165084 
L 214.56 -153.552441 
L 213.84 -153.950067 
L 213.12 -154.409356 
L 212.4 -154.81314 
L 211.68 -155.166043 
L 210.96 -155.621392 
L 210.24 -156.114438 
L 209.52 -156.539368 
L 208.8 -156.907188 
L 208.08 -157.327632 
L 207.36 -157.791016 
L 206.64 -158.168085 
L 205.92 -158.599915 
L 205.2 -159.073294 
L 204.48 -159.539997 
L 203.76 -159.964915 
L 203.04 -160.376601 
L 202.32 -160.871147 
L 201.6 -161.33221 
L 200.88 -161.719365 
L 200.16 -162.168904 
L 199.44 -162.735074 
L 198.72 -163.401777 
L 198 -164.109905 
L 197.28 -164.81764 
L 196.56 -165.491514 
L 195.84 -166.117131 
L 195.12 -166.483563 
L 194.4 -166.839927 
L 193.68 -167.262839 
L 192.96 -167.666565 
L 192.24 -168.014053 
L 191.52 -168.410172 
L 190.8 -168.855547 
L 190.08 -169.220504 
L 189.36 -169.545729 
L 188.64 -170.049399 
L 187.92 -170.973977 
L 187.2 -171.887092 
L 186.48 -172.767235 
L 185.76 -173.689458 
L 185.04 -174.668885 
L 184.32 -175.589173 
L 183.6 -176.470352 
L 182.88 -177.453082 
L 182.16 -178.488302 
L 181.44 -179.381065 
L 180.72 -180.152065 
L 180 -180.895296 
L 179.28 -181.54115 
L 178.56 -182.170173 
L 177.84 -182.892886 
L 177.12 -183.619496 
L 176.4 -184.285363 
L 175.68 -184.935911 
L 174.96 -185.671427 
L 174.24 -186.389868 
L 173.52 -187.044521 
L 172.8 -187.744602 
L 172.08 -188.412576 
L 171.36 -188.992547 
L 170.64 -189.504807 
L 169.92 -190.031825 
L 169.2 -190.662638 
L 168.48 -191.213578 
L 167.76 -191.676281 
L 167.04 -192.533489 
L 166.32 -193.549683 
L 165.6 -194.515533 
L 164.88 -195.578901 
L 164.16 -196.592225 
L 163.44 -197.392977 
L 162.72 -198.121018 
L 162 -198.847709 
L 161.28 -199.700815 
L 160.56 -200.479293 
L 159.84 -201.149793 
L 159.12 -201.928049 
L 158.4 -202.822668 
L 157.68 -203.623602 
L 156.96 -204.314524 
L 156.24 -205.015811 
L 155.52 -205.890241 
L 154.8 -206.691804 
L 154.08 -207.05678 
L 153.36 -207.71034 
L 152.64 -208.357104 
L 151.92 -208.848128 
L 151.2 -209.237685 
L 150.48 -209.781513 
L 149.76 -210.411301 
L 149.04 -210.991281 
L 148.32 -211.503333 
L 147.6 -212.457145 
L 146.88 -213.418374 
L 146.16 -214.509477 
L 145.44 -215.859513 
L 144.72 -217.198414 
L 144 -218.471105 
L 143.28 -219.889058 
L 142.56 -221.259582 
L 141.84 -222.599274 
L 141.12 -223.852098 
L 140.4 -225.112557 
L 139.68 -225.837092 
L 138.96 -226.589507 
L 138.24 -228.153403 
L 137.52 -229.532733 
L 136.8 -231.140482 
L 136.08 -232.699438 
L 135.36 -234.2167 
L 134.64 -235.655685 
L 133.92 -236.662285 
L 133.2 -237.788081 
L 132.48 -239.889817 
L 131.76 -242.007164 
L 131.04 -243.158869 
L 130.32 -243.789032 
L 129.6 -244.304317 
L 128.88 -244.887204 
L 128.16 -245.597704 
L 127.44 -246.155241 
L 126.72 -246.601808 
L 126 -247.310388 
L 125.28 -248.249888 
L 124.56 -250.669619 
L 123.84 -252.976182 
L 123.12 -255.533053 
L 122.4 -258.258162 
L 121.68 -260.794697 
L 120.96 -263.30526 
L 120.24 -264.932991 
L 119.52 -266.371398 
L 118.8 -267.643419 
L 118.08 -269.817836 
L 117.36 -272.04977 
L 116.64 -274.096539 
L 115.92 -276.382331 
L 115.2 -278.03492 
L 114.48 -279.087717 
L 113.76 -279.992737 
L 113.04 -280.639225 
L 112.32 -281.443198 
L 111.6 -282.238103 
L 110.88 -282.784417 
L 110.16 -283.883192 
L 109.44 -285.520318 
L 108.72 -286.786071 
L 108 -287.568988 
L 107.28 -288.464858 
L 106.56 -289.630106 
L 105.84 -290.662042 
L 105.12 -291.48646 
L 104.4 -292.40309 
L 103.68 -293.51653 
L 102.96 -295.619344 
L 102.24 -297.809174 
L 101.52 -300.070452 
L 100.8 -302.119201 
L 100.08 -303.201033 
L 99.36 -305.328684 
L 98.64 -306.795873 
L 97.92 -308.287735 
L 97.2 -309.759081 
L 96.48 -311.16686 
L 95.76 -312.590745 
L 95.04 -313.900402 
L 94.32 -315.003874 
L 93.6 -315.77752 
L 92.88 -315.964924 
L 92.16 -313.382742 
L 91.44 -304.286818 
L 90.72 -279.277893 
L 90 -216.194526 
L 89.28 -86.4 
L 88.56 -86.4 
L 87.84 -86.4 
L 87.12 -86.4 
L 86.4 -86.4 
z
" style="stroke: #ffffff; stroke-opacity: 0.5"/>
    </defs>
    <g clip-path="url(#p135b71142e)">
     <use xlink:href="#m0085871ccd" x="0" y="432" style="fill: #4c72b0; fill-opacity: 0.5; stroke: #ffffff; stroke-opacity: 0.5"/>
    </g>
   </g>
   <g id="line2d_16">
    <path d="M 86.4 345.6 
L 89.28 345.6 
L 90 304.465332 
L 90.72 284.540038 
L 91.44 276.552177 
L 92.16 273.547584 
L 92.88 272.595828 
L 93.6 272.517727 
L 94.32 272.804132 
L 95.76 273.720167 
L 110.16 284.090847 
L 124.56 293.493639 
L 128.16 295.655789 
L 131.76 297.797814 
L 138.24 301.4266 
L 153.36 308.989257 
L 157.68 310.91367 
L 165.6 314.222371 
L 174.24 317.4861 
L 181.44 319.954044 
L 189.36 322.417169 
L 199.44 325.199701 
L 205.92 326.81259 
L 216.72 329.208291 
L 227.52 331.28371 
L 239.04 333.191366 
L 249.84 334.735763 
L 262.8 336.320929 
L 275.76 337.654796 
L 288 338.726772 
L 303.84 339.884211 
L 321.84 340.944786 
L 340.56 341.822046 
L 344.88 341.998265 
L 344.88 341.998265 
" clip-path="url(#p135b71142e)" style="fill: none; stroke: #4c72b0; stroke-width: 2; stroke-linecap: round"/>
   </g>
   <g id="patch_3">
    <path d="M 86.4 345.6 
L 86.4 86.4 
" style="fill: none; stroke: #262626; stroke-width: 1.25; stroke-linejoin: miter; stroke-linecap: square"/>
   </g>
   <g id="patch_4">
    <path d="M 86.4 345.6 
L 345.6 345.6 
" style="fill: none; stroke: #262626; stroke-width: 1.25; stroke-linejoin: miter; stroke-linecap: square"/>
   </g>
  </g>
 </g>
 <defs>
  <clipPath id="p135b71142e">
   <rect x="86.4" y="86.4" width="259.2" height="259.2"/>
  </clipPath>
 </defs>
</svg>
