<?xml version="1.0" encoding="utf-8" standalone="no"?>
<!DOCTYPE svg PUBLIC "-//W3C//DTD SVG 1.1//EN"
  "http://www.w3.org/Graphics/SVG/1.1/DTD/svg11.dtd">
<svg xmlns:xlink="http://www.w3.org/1999/xlink" width="432pt" height="432pt" viewBox="0 0 432 432" xmlns="http://www.w3.org/2000/svg" version="1.1">
 <metadata>
  <rdf:RDF xmlns:dc="http://purl.org/dc/elements/1.1/" xmlns:cc="http://creativecommons.org/ns#" xmlns:rdf="http://www.w3.org/1999/02/22-rdf-syntax-ns#">
   <cc:Work>
    <dc:type rdf:resource="http://purl.org/dc/dcmitype/StillImage"/>
    <dc:date>2024-09-23T20:12:51.461747</dc:date>
    <dc:format>image/svg+xml</dc:format>
    <dc:creator>
     <cc:Agent>
      <dc:title>Matplotlib v3.8.4, https://matplotlib.org/</dc:title>
     </cc:Agent>
    </dc:creator>
   </cc:Work>
  </rdf:RDF>
 </metadata>
 <defs>
  <style type="text/css">*{stroke-linejoin: round; stroke-linecap: butt}</style>
 </defs>
 <g id="figure_1">
  <g id="patch_1">
   <path d="M 0 432 
L 432 432 
L 432 0 
L 0 0 
L 0 432 
z
" style="fill: none"/>
  </g>
  <g id="axes_1">
   <g id="patch_2">
    <path d="M 86.4 345.6 
L 345.6 345.6 
L 345.6 86.4 
L 86.4 86.4 
L 86.4 345.6 
z
" style="fill: none"/>
   </g>
   <g id="matplotlib.axis_1">
    <g id="xtick_1">
     <g id="line2d_1">
      <defs>
       <path id="mdcc4fa0872" d="M 0 0 
L 0 6 
" style="stroke: #262626; stroke-width: 1.25"/>
      </defs>
      <g>
       <use xlink:href="#mdcc4fa0872" x="86.4" y="345.6" style="fill: #262626; stroke: #262626; stroke-width: 1.25"/>
      </g>
     </g>
     <g id="text_1">
      <text style="fill: #262626; font: 16px 'Arial', 'DejaVu Sans', 'Liberation Sans', 'Bitstream Vera Sans', sans-serif; text-anchor: middle" x="86.4" y="366.5525" transform="rotate(-0 86.4 366.5525)">0</text>
     </g>
    </g>
    <g id="xtick_2">
     <g id="line2d_2">
      <g>
       <use xlink:href="#mdcc4fa0872" x="129.008219" y="345.6" style="fill: #262626; stroke: #262626; stroke-width: 1.25"/>
      </g>
     </g>
     <g id="text_2">
      <text style="fill: #262626; font: 16px 'Arial', 'DejaVu Sans', 'Liberation Sans', 'Bitstream Vera Sans', sans-serif; text-anchor: middle" x="129.008219" y="366.5525" transform="rotate(-0 129.008219 366.5525)">60</text>
     </g>
    </g>
    <g id="xtick_3">
     <g id="line2d_3">
      <g>
       <use xlink:href="#mdcc4fa0872" x="171.616438" y="345.6" style="fill: #262626; stroke: #262626; stroke-width: 1.25"/>
      </g>
     </g>
     <g id="text_3">
      <text style="fill: #262626; font: 16px 'Arial', 'DejaVu Sans', 'Liberation Sans', 'Bitstream Vera Sans', sans-serif; text-anchor: middle" x="171.616438" y="366.5525" transform="rotate(-0 171.616438 366.5525)">120</text>
     </g>
    </g>
    <g id="xtick_4">
     <g id="line2d_4">
      <g>
       <use xlink:href="#mdcc4fa0872" x="214.224658" y="345.6" style="fill: #262626; stroke: #262626; stroke-width: 1.25"/>
      </g>
     </g>
     <g id="text_4">
      <text style="fill: #262626; font: 16px 'Arial', 'DejaVu Sans', 'Liberation Sans', 'Bitstream Vera Sans', sans-serif; text-anchor: middle" x="214.224658" y="366.5525" transform="rotate(-0 214.224658 366.5525)">180</text>
     </g>
    </g>
    <g id="xtick_5">
     <g id="line2d_5">
      <g>
       <use xlink:href="#mdcc4fa0872" x="256.832877" y="345.6" style="fill: #262626; stroke: #262626; stroke-width: 1.25"/>
      </g>
     </g>
     <g id="text_5">
      <text style="fill: #262626; font: 16px 'Arial', 'DejaVu Sans', 'Liberation Sans', 'Bitstream Vera Sans', sans-serif; text-anchor: middle" x="256.832877" y="366.5525" transform="rotate(-0 256.832877 366.5525)">240</text>
     </g>
    </g>
    <g id="xtick_6">
     <g id="line2d_6">
      <g>
       <use xlink:href="#mdcc4fa0872" x="299.441096" y="345.6" style="fill: #262626; stroke: #262626; stroke-width: 1.25"/>
      </g>
     </g>
     <g id="text_6">
      <text style="fill: #262626; font: 16px 'Arial', 'DejaVu Sans', 'Liberation Sans', 'Bitstream Vera Sans', sans-serif; text-anchor: middle" x="299.441096" y="366.5525" transform="rotate(-0 299.441096 366.5525)">300</text>
     </g>
    </g>
    <g id="xtick_7">
     <g id="line2d_7">
      <g>
       <use xlink:href="#mdcc4fa0872" x="342.049315" y="345.6" style="fill: #262626; stroke: #262626; stroke-width: 1.25"/>
      </g>
     </g>
     <g id="text_7">
      <text style="fill: #262626; font: 16px 'Arial', 'DejaVu Sans', 'Liberation Sans', 'Bitstream Vera Sans', sans-serif; text-anchor: middle" x="342.049315" y="366.5525" transform="rotate(-0 342.049315 366.5525)">360</text>
     </g>
    </g>
    <g id="text_8">
     <text style="fill: #262626; font: 16px 'Arial', 'DejaVu Sans', 'Liberation Sans', 'Bitstream Vera Sans', sans-serif; text-anchor: middle" x="216" y="385.38" transform="rotate(-0 216 385.38)">Time since vaccination (days)</text>
    </g>
   </g>
   <g id="matplotlib.axis_2">
    <g id="ytick_1">
     <g id="line2d_8">
      <defs>
       <path id="m9c9f8354d2" d="M 0 0 
L -6 0 
" style="stroke: #262626; stroke-width: 1.25"/>
      </defs>
      <g>
       <use xlink:href="#m9c9f8354d2" x="86.4" y="345.6" style="fill: #262626; stroke: #262626; stroke-width: 1.25"/>
      </g>
     </g>
     <g id="text_9">
      <text style="fill: #262626; font: 16px 'Arial', 'DejaVu Sans', 'Liberation Sans', 'Bitstream Vera Sans', sans-serif; text-anchor: end" x="76.9" y="351.32625" transform="rotate(-0 76.9 351.32625)">0</text>
     </g>
    </g>
    <g id="ytick_2">
     <g id="line2d_9">
      <g>
       <use xlink:href="#m9c9f8354d2" x="86.4" y="293.76" style="fill: #262626; stroke: #262626; stroke-width: 1.25"/>
      </g>
     </g>
     <g id="text_10">
      <text style="fill: #262626; font: 16px 'Arial', 'DejaVu Sans', 'Liberation Sans', 'Bitstream Vera Sans', sans-serif; text-anchor: end" x="76.9" y="299.48625" transform="rotate(-0 76.9 299.48625)">1</text>
     </g>
    </g>
    <g id="ytick_3">
     <g id="line2d_10">
      <g>
       <use xlink:href="#m9c9f8354d2" x="86.4" y="241.92" style="fill: #262626; stroke: #262626; stroke-width: 1.25"/>
      </g>
     </g>
     <g id="text_11">
      <text style="fill: #262626; font: 16px 'Arial', 'DejaVu Sans', 'Liberation Sans', 'Bitstream Vera Sans', sans-serif; text-anchor: end" x="76.9" y="247.64625" transform="rotate(-0 76.9 247.64625)">2</text>
     </g>
    </g>
    <g id="ytick_4">
     <g id="line2d_11">
      <g>
       <use xlink:href="#m9c9f8354d2" x="86.4" y="190.08" style="fill: #262626; stroke: #262626; stroke-width: 1.25"/>
      </g>
     </g>
     <g id="text_12">
      <text style="fill: #262626; font: 16px 'Arial', 'DejaVu Sans', 'Liberation Sans', 'Bitstream Vera Sans', sans-serif; text-anchor: end" x="76.9" y="195.80625" transform="rotate(-0 76.9 195.80625)">3</text>
     </g>
    </g>
    <g id="ytick_5">
     <g id="line2d_12">
      <g>
       <use xlink:href="#m9c9f8354d2" x="86.4" y="138.24" style="fill: #262626; stroke: #262626; stroke-width: 1.25"/>
      </g>
     </g>
     <g id="text_13">
      <text style="fill: #262626; font: 16px 'Arial', 'DejaVu Sans', 'Liberation Sans', 'Bitstream Vera Sans', sans-serif; text-anchor: end" x="76.9" y="143.96625" transform="rotate(-0 76.9 143.96625)">4</text>
     </g>
    </g>
    <g id="ytick_6">
     <g id="line2d_13">
      <g>
       <use xlink:href="#m9c9f8354d2" x="86.4" y="86.4" style="fill: #262626; stroke: #262626; stroke-width: 1.25"/>
      </g>
     </g>
     <g id="text_14">
      <text style="fill: #262626; font: 16px 'Arial', 'DejaVu Sans', 'Liberation Sans', 'Bitstream Vera Sans', sans-serif; text-anchor: end" x="76.9" y="92.12625" transform="rotate(-0 76.9 92.12625)">5</text>
     </g>
    </g>
    <g id="text_15">
     <!-- log$_{10}$[IgG(S) antibody titre (AU/mL)] -->
     <g style="fill: #262626" transform="translate(60.4825 342.16) rotate(-90)">
      <text>
       <tspan style="font: 16px 'Arial'" x="0 3.554688 12.453125 36.19375 40.639063 45.084375 53.982813 66.428125 71.75625 82.428125 87.75625 92.201562 101.1 109.998437 114.44375 117.998437 126.896875 135.795312 144.69375 152.69375 157.139062 161.584375 165.139062 169.584375 174.9125 183.810937 188.25625 193.584375 204.25625 215.810937 220.25625 233.584375 242.482812 247.810937" y="-0.34375">log[IgG(S) antibody titre (AU/mL)]</tspan>
       <tspan style="font: 11.2px 'DejaVu Sans'" x="21.504687 28.630469" y="2.28125">10</tspan>
      </text>
     </g>
    </g>
   </g>
   <g id="PolyCollection_1">
    <defs>
     <path id="m5a167c608d" d="M 86.4 -243.813447 
L 86.4 -73.521381 
L 87.110137 -72.93209 
L 87.820274 -72.347267 
L 88.530411 -71.762619 
L 89.240548 -71.178619 
L 89.950685 -224.269372 
L 90.660822 -232.610377 
L 91.370959 -235.244586 
L 92.081096 -236.113293 
L 92.791233 -236.373427 
L 93.50137 -236.397389 
L 94.211507 -236.314895 
L 94.921644 -236.187129 
L 95.631781 -236.041456 
L 96.341918 -235.882279 
L 97.052055 -235.723387 
L 97.762192 -235.548429 
L 98.472329 -235.306768 
L 99.182466 -235.120044 
L 99.892603 -235.011359 
L 100.60274 -234.794068 
L 101.312877 -234.612331 
L 102.023014 -234.316021 
L 102.733151 -234.090763 
L 103.443288 -233.837674 
L 104.153425 -233.613749 
L 104.863562 -233.361486 
L 105.573699 -233.212844 
L 106.283836 -233.003423 
L 106.993973 -232.820573 
L 107.70411 -232.605228 
L 108.414247 -232.345236 
L 109.124384 -232.16764 
L 109.834521 -231.956702 
L 110.544658 -231.638285 
L 111.254795 -231.393548 
L 111.964932 -231.129299 
L 112.675068 -230.901653 
L 113.385205 -230.63528 
L 114.095342 -230.353049 
L 114.805479 -230.082962 
L 115.515616 -229.786202 
L 116.225753 -229.562789 
L 116.93589 -229.303136 
L 117.646027 -229.017856 
L 118.356164 -228.822951 
L 119.066301 -228.621045 
L 119.776438 -228.310508 
L 120.486575 -227.965649 
L 121.196712 -227.762267 
L 121.906849 -227.581374 
L 122.616986 -227.391421 
L 123.327123 -227.171857 
L 124.03726 -226.860799 
L 124.747397 -226.675063 
L 125.457534 -226.479966 
L 126.167671 -226.173385 
L 126.877808 -225.760074 
L 127.587945 -225.393671 
L 128.298082 -225.0829 
L 129.008219 -224.74713 
L 129.718356 -224.432798 
L 130.428493 -224.10538 
L 131.13863 -223.820881 
L 131.848767 -223.523477 
L 132.558904 -223.125618 
L 133.269041 -222.7317 
L 133.979178 -222.495925 
L 134.689315 -222.14874 
L 135.399452 -221.828706 
L 136.109589 -221.519445 
L 136.819726 -221.196653 
L 137.529863 -220.817283 
L 138.24 -220.475273 
L 138.950137 -220.111958 
L 139.660274 -219.880782 
L 140.370411 -219.47968 
L 141.080548 -219.099041 
L 141.790685 -218.829404 
L 142.500822 -218.5334 
L 143.210959 -218.221273 
L 143.921096 -217.924002 
L 144.631233 -217.586959 
L 145.34137 -217.175005 
L 146.051507 -216.693109 
L 146.761644 -216.358466 
L 147.471781 -215.987357 
L 148.181918 -215.657023 
L 148.892055 -215.240277 
L 149.602192 -214.866161 
L 150.312329 -214.490287 
L 151.022466 -214.113777 
L 151.732603 -213.719576 
L 152.44274 -213.394757 
L 153.152877 -212.866265 
L 153.863014 -212.441859 
L 154.573151 -212.016811 
L 155.283288 -211.733719 
L 155.993425 -211.308834 
L 156.703562 -211.091472 
L 157.413699 -210.668689 
L 158.123836 -210.282345 
L 158.833973 -209.896715 
L 159.54411 -209.483326 
L 160.254247 -209.029824 
L 160.964384 -208.679459 
L 161.674521 -208.387495 
L 162.384658 -208.066853 
L 163.094795 -207.720027 
L 163.804932 -207.232646 
L 164.515068 -206.801683 
L 165.225205 -206.323079 
L 165.935342 -205.911055 
L 166.645479 -205.477859 
L 167.355616 -205.030901 
L 168.065753 -204.570987 
L 168.77589 -204.136118 
L 169.486027 -203.729558 
L 170.196164 -203.329098 
L 170.906301 -202.899588 
L 171.616438 -202.459352 
L 172.326575 -202.034051 
L 173.036712 -201.601959 
L 173.746849 -201.148938 
L 174.456986 -200.640721 
L 175.167123 -200.222691 
L 175.87726 -199.793991 
L 176.587397 -199.358981 
L 177.297534 -198.925808 
L 178.007671 -198.487306 
L 178.717808 -197.982604 
L 179.427945 -197.502544 
L 180.138082 -197.027408 
L 180.848219 -196.587781 
L 181.558356 -196.116827 
L 182.268493 -195.601639 
L 182.97863 -195.049923 
L 183.688767 -194.458132 
L 184.398904 -193.890868 
L 185.109041 -193.331904 
L 185.819178 -192.836571 
L 186.529315 -192.30841 
L 187.239452 -191.793894 
L 187.949589 -191.275027 
L 188.659726 -190.775566 
L 189.369863 -190.290646 
L 190.08 -189.909494 
L 190.790137 -189.515735 
L 191.500274 -188.98051 
L 192.210411 -188.48572 
L 192.920548 -187.912853 
L 193.630685 -187.456484 
L 194.340822 -187.028808 
L 195.050959 -186.528374 
L 195.761096 -186.098753 
L 196.471233 -185.624606 
L 197.18137 -185.013069 
L 197.891507 -184.429377 
L 198.601644 -183.870928 
L 199.311781 -183.392621 
L 200.021918 -182.87119 
L 200.732055 -182.419722 
L 201.442192 -181.898111 
L 202.152329 -181.356687 
L 202.862466 -180.911247 
L 203.572603 -180.492898 
L 204.28274 -180.005437 
L 204.992877 -179.65172 
L 205.703014 -179.181395 
L 206.413151 -178.755344 
L 207.123288 -178.25428 
L 207.833425 -177.74872 
L 208.543562 -177.213357 
L 209.253699 -176.658286 
L 209.963836 -176.151441 
L 210.673973 -175.710896 
L 211.38411 -175.177164 
L 212.094247 -174.538781 
L 212.804384 -173.984348 
L 213.514521 -173.434947 
L 214.224658 -172.911117 
L 214.934795 -172.350727 
L 215.644932 -171.811736 
L 216.355068 -171.316659 
L 217.065205 -170.824529 
L 217.775342 -170.412141 
L 218.485479 -169.989338 
L 219.195616 -169.471634 
L 219.905753 -168.984201 
L 220.61589 -168.381392 
L 221.326027 -167.828146 
L 222.036164 -167.298666 
L 222.746301 -166.840978 
L 223.456438 -166.388737 
L 224.166575 -165.865682 
L 224.876712 -165.323613 
L 225.586849 -164.762482 
L 226.296986 -164.218343 
L 227.007123 -163.744727 
L 227.71726 -163.231731 
L 228.427397 -162.659611 
L 229.137534 -162.13246 
L 229.847671 -161.682154 
L 230.557808 -161.152997 
L 231.267945 -160.592878 
L 231.978082 -160.000273 
L 232.688219 -159.438352 
L 233.398356 -158.906081 
L 234.108493 -158.444405 
L 234.81863 -158.018871 
L 235.528767 -157.596304 
L 236.238904 -157.095254 
L 236.949041 -156.503692 
L 237.659178 -155.889083 
L 238.369315 -155.240497 
L 239.079452 -154.634616 
L 239.789589 -154.124366 
L 240.499726 -153.537999 
L 241.209863 -153.019846 
L 241.92 -152.50091 
L 242.630137 -151.945147 
L 243.340274 -151.402221 
L 244.050411 -150.84466 
L 244.760548 -150.282386 
L 245.470685 -149.760186 
L 246.180822 -149.199996 
L 246.890959 -148.668421 
L 247.601096 -148.163158 
L 248.311233 -147.643462 
L 249.02137 -147.07512 
L 249.731507 -146.452935 
L 250.441644 -145.853083 
L 251.151781 -145.221161 
L 251.861918 -144.593916 
L 252.572055 -144.044782 
L 253.282192 -143.559974 
L 253.992329 -143.103835 
L 254.702466 -142.530872 
L 255.412603 -142.017677 
L 256.12274 -141.459094 
L 256.832877 -140.91505 
L 257.543014 -140.393939 
L 258.253151 -139.884614 
L 258.963288 -139.381505 
L 259.673425 -138.893701 
L 260.383562 -138.373784 
L 261.093699 -137.860555 
L 261.803836 -137.34852 
L 262.513973 -136.751663 
L 263.22411 -136.239324 
L 263.934247 -135.608692 
L 264.644384 -135.144964 
L 265.354521 -134.624763 
L 266.064658 -134.101486 
L 266.774795 -133.6054 
L 267.484932 -133.106095 
L 268.195068 -132.581296 
L 268.905205 -132.041251 
L 269.615342 -131.526586 
L 270.325479 -131.017743 
L 271.035616 -130.476536 
L 271.745753 -129.953132 
L 272.45589 -129.449048 
L 273.166027 -128.928856 
L 273.876164 -128.485141 
L 274.586301 -127.91158 
L 275.296438 -127.334735 
L 276.006575 -126.772904 
L 276.716712 -126.305971 
L 277.426849 -125.792611 
L 278.136986 -125.251418 
L 278.847123 -124.734728 
L 279.55726 -124.27251 
L 280.267397 -123.810967 
L 280.977534 -123.318817 
L 281.687671 -122.718529 
L 282.397808 -122.164116 
L 283.107945 -121.581842 
L 283.818082 -121.016229 
L 284.528219 -120.417977 
L 285.238356 -119.826842 
L 285.948493 -119.260951 
L 286.65863 -118.670671 
L 287.368767 -118.074147 
L 288.078904 -117.506477 
L 288.789041 -116.943679 
L 289.499178 -116.434738 
L 290.209315 -115.866429 
L 290.919452 -115.283414 
L 291.629589 -114.663588 
L 292.339726 -114.154415 
L 293.049863 -113.678174 
L 293.76 -113.146806 
L 294.470137 -112.620728 
L 295.180274 -112.12684 
L 295.890411 -111.61699 
L 296.600548 -111.12286 
L 297.310685 -110.650722 
L 298.020822 -110.149642 
L 298.730959 -109.646104 
L 299.441096 -109.170207 
L 300.151233 -108.609452 
L 300.86137 -108.016478 
L 301.571507 -107.451745 
L 302.281644 -106.876297 
L 302.991781 -106.280009 
L 303.701918 -105.70949 
L 304.412055 -105.183788 
L 305.122192 -104.686493 
L 305.832329 -104.160898 
L 306.542466 -103.635698 
L 307.252603 -103.137899 
L 307.96274 -102.626659 
L 308.672877 -102.096925 
L 309.383014 -101.592799 
L 310.093151 -101.090279 
L 310.803288 -100.555495 
L 311.513425 -100.038884 
L 312.223562 -99.541643 
L 312.933699 -99.012879 
L 313.643836 -98.489487 
L 314.353973 -97.992415 
L 315.06411 -97.475774 
L 315.774247 -96.945289 
L 316.484384 -96.355103 
L 317.194521 -95.777766 
L 317.904658 -95.201432 
L 318.614795 -94.595757 
L 319.324932 -94.012051 
L 320.035068 -93.44178 
L 320.745205 -92.837754 
L 321.455342 -92.247322 
L 322.165479 -91.726138 
L 322.875616 -91.271275 
L 323.585753 -90.791542 
L 324.29589 -90.269107 
L 325.006027 -89.618783 
L 325.716164 -89.043257 
L 326.426301 -88.39834 
L 327.136438 -87.807123 
L 327.846575 -87.269213 
L 328.556712 -86.712868 
L 329.266849 -86.18143 
L 329.976986 -85.657674 
L 330.687123 -85.100918 
L 331.39726 -84.573572 
L 332.107397 -84.060628 
L 332.817534 -83.557813 
L 333.527671 -83.077238 
L 334.237808 -82.507337 
L 334.947945 -81.915863 
L 335.658082 -81.350549 
L 336.368219 -80.792332 
L 337.078356 -80.202318 
L 337.788493 -79.624869 
L 338.49863 -79.065008 
L 339.208767 -78.47382 
L 339.918904 -77.894434 
L 340.629041 -77.339173 
L 341.339178 -76.756446 
L 342.049315 -76.168721 
L 342.759452 -75.623135 
L 343.469589 -75.097913 
L 344.179726 -74.543183 
L 344.889863 -74.044414 
L 344.889863 -244.025325 
L 344.889863 -244.025325 
L 344.179726 -244.144421 
L 343.469589 -244.247028 
L 342.759452 -244.365852 
L 342.049315 -244.475435 
L 341.339178 -244.603256 
L 340.629041 -244.767086 
L 339.918904 -244.930298 
L 339.208767 -245.069474 
L 338.49863 -245.204863 
L 337.788493 -245.384332 
L 337.078356 -245.58675 
L 336.368219 -245.782945 
L 335.658082 -245.973575 
L 334.947945 -246.156826 
L 334.237808 -246.273741 
L 333.527671 -246.399334 
L 332.817534 -246.495109 
L 332.107397 -246.599103 
L 331.39726 -246.722322 
L 330.687123 -246.869877 
L 329.976986 -247.056089 
L 329.266849 -247.209491 
L 328.556712 -247.345195 
L 327.846575 -247.530894 
L 327.136438 -247.72252 
L 326.426301 -247.90391 
L 325.716164 -248.02228 
L 325.006027 -248.124486 
L 324.29589 -248.278296 
L 323.585753 -248.434039 
L 322.875616 -248.579578 
L 322.165479 -248.730067 
L 321.455342 -248.833156 
L 320.745205 -249.015494 
L 320.035068 -249.15744 
L 319.324932 -249.264715 
L 318.614795 -249.377037 
L 317.904658 -249.516911 
L 317.194521 -249.681086 
L 316.484384 -249.807539 
L 315.774247 -249.970021 
L 315.06411 -250.125129 
L 314.353973 -250.228483 
L 313.643836 -250.372239 
L 312.933699 -250.534009 
L 312.223562 -250.694417 
L 311.513425 -250.846001 
L 310.803288 -250.959527 
L 310.093151 -251.106298 
L 309.383014 -251.242613 
L 308.672877 -251.353127 
L 307.96274 -251.547395 
L 307.252603 -251.752749 
L 306.542466 -251.91308 
L 305.832329 -252.026573 
L 305.122192 -252.119362 
L 304.412055 -252.239039 
L 303.701918 -252.360936 
L 302.991781 -252.441833 
L 302.281644 -252.53374 
L 301.571507 -252.681198 
L 300.86137 -252.866855 
L 300.151233 -253.01235 
L 299.441096 -253.112834 
L 298.730959 -253.226568 
L 298.020822 -253.325721 
L 297.310685 -253.432975 
L 296.600548 -253.526874 
L 295.890411 -253.655963 
L 295.180274 -253.842797 
L 294.470137 -254.008436 
L 293.76 -254.13918 
L 293.049863 -254.266342 
L 292.339726 -254.443043 
L 291.629589 -254.604157 
L 290.919452 -254.768815 
L 290.209315 -254.901134 
L 289.499178 -255.019808 
L 288.789041 -255.153226 
L 288.078904 -255.280692 
L 287.368767 -255.418028 
L 286.65863 -255.564149 
L 285.948493 -255.705346 
L 285.238356 -255.833028 
L 284.528219 -255.97709 
L 283.818082 -256.123147 
L 283.107945 -256.248708 
L 282.397808 -256.379615 
L 281.687671 -256.567417 
L 280.977534 -256.748366 
L 280.267397 -256.938453 
L 279.55726 -257.057026 
L 278.847123 -257.233897 
L 278.136986 -257.364991 
L 277.426849 -257.5037 
L 276.716712 -257.636518 
L 276.006575 -257.74471 
L 275.296438 -257.855855 
L 274.586301 -258.002151 
L 273.876164 -258.139854 
L 273.166027 -258.251927 
L 272.45589 -258.36882 
L 271.745753 -258.489247 
L 271.035616 -258.621646 
L 270.325479 -258.738659 
L 269.615342 -258.885559 
L 268.905205 -259.034032 
L 268.195068 -259.215941 
L 267.484932 -259.349928 
L 266.774795 -259.470981 
L 266.064658 -259.597594 
L 265.354521 -259.722686 
L 264.644384 -259.839913 
L 263.934247 -260.037835 
L 263.22411 -260.171555 
L 262.513973 -260.304966 
L 261.803836 -260.443663 
L 261.093699 -260.601191 
L 260.383562 -260.755457 
L 259.673425 -260.892548 
L 258.963288 -261.012398 
L 258.253151 -261.128593 
L 257.543014 -261.264617 
L 256.832877 -261.404098 
L 256.12274 -261.574258 
L 255.412603 -261.768952 
L 254.702466 -261.903187 
L 253.992329 -262.038858 
L 253.282192 -262.196624 
L 252.572055 -262.336654 
L 251.861918 -262.476073 
L 251.151781 -262.60861 
L 250.441644 -262.795262 
L 249.731507 -262.986087 
L 249.02137 -263.146211 
L 248.311233 -263.320566 
L 247.601096 -263.482924 
L 246.890959 -263.681179 
L 246.180822 -263.836823 
L 245.470685 -264.000443 
L 244.760548 -264.180171 
L 244.050411 -264.368905 
L 243.340274 -264.503351 
L 242.630137 -264.703397 
L 241.92 -264.8873 
L 241.209863 -265.030444 
L 240.499726 -265.171823 
L 239.789589 -265.362628 
L 239.079452 -265.476628 
L 238.369315 -265.596122 
L 237.659178 -265.721292 
L 236.949041 -265.84184 
L 236.238904 -265.980988 
L 235.528767 -266.149719 
L 234.81863 -266.302096 
L 234.108493 -266.452157 
L 233.398356 -266.561799 
L 232.688219 -266.695668 
L 231.978082 -266.832767 
L 231.267945 -266.98114 
L 230.557808 -267.158121 
L 229.847671 -267.36757 
L 229.137534 -267.493866 
L 228.427397 -267.671296 
L 227.71726 -267.770125 
L 227.007123 -267.894048 
L 226.296986 -268.014244 
L 225.586849 -268.177186 
L 224.876712 -268.260425 
L 224.166575 -268.410476 
L 223.456438 -268.606631 
L 222.746301 -268.794109 
L 222.036164 -268.92501 
L 221.326027 -269.040198 
L 220.61589 -269.191644 
L 219.905753 -269.399308 
L 219.195616 -269.497857 
L 218.485479 -269.647385 
L 217.775342 -269.8213 
L 217.065205 -269.996818 
L 216.355068 -270.140789 
L 215.644932 -270.293215 
L 214.934795 -270.441801 
L 214.224658 -270.602878 
L 213.514521 -270.771094 
L 212.804384 -270.906534 
L 212.094247 -271.068988 
L 211.38411 -271.205455 
L 210.673973 -271.389852 
L 209.963836 -271.536294 
L 209.253699 -271.698693 
L 208.543562 -271.853097 
L 207.833425 -271.994672 
L 207.123288 -272.159675 
L 206.413151 -272.32586 
L 205.703014 -272.481329 
L 204.992877 -272.639189 
L 204.28274 -272.842472 
L 203.572603 -273.015683 
L 202.862466 -273.176156 
L 202.152329 -273.332924 
L 201.442192 -273.494627 
L 200.732055 -273.638716 
L 200.021918 -273.785881 
L 199.311781 -273.896061 
L 198.601644 -274.034741 
L 197.891507 -274.182036 
L 197.18137 -274.317758 
L 196.471233 -274.44897 
L 195.761096 -274.620011 
L 195.050959 -274.777531 
L 194.340822 -274.92081 
L 193.630685 -275.085737 
L 192.920548 -275.247079 
L 192.210411 -275.423798 
L 191.500274 -275.552448 
L 190.790137 -275.700163 
L 190.08 -275.828838 
L 189.369863 -275.963562 
L 188.659726 -276.126402 
L 187.949589 -276.290136 
L 187.239452 -276.462199 
L 186.529315 -276.647951 
L 185.819178 -276.805755 
L 185.109041 -276.959197 
L 184.398904 -277.127155 
L 183.688767 -277.290877 
L 182.97863 -277.423983 
L 182.268493 -277.578983 
L 181.558356 -277.776366 
L 180.848219 -277.918734 
L 180.138082 -278.095706 
L 179.427945 -278.270028 
L 178.717808 -278.450582 
L 178.007671 -278.662071 
L 177.297534 -278.85444 
L 176.587397 -279.055066 
L 175.87726 -279.206827 
L 175.167123 -279.392026 
L 174.456986 -279.482872 
L 173.746849 -279.641684 
L 173.036712 -279.772359 
L 172.326575 -279.865089 
L 171.616438 -279.945839 
L 170.906301 -280.034253 
L 170.196164 -280.126578 
L 169.486027 -280.25647 
L 168.77589 -280.44154 
L 168.065753 -280.640101 
L 167.355616 -280.781296 
L 166.645479 -281.002537 
L 165.935342 -281.175988 
L 165.225205 -281.312226 
L 164.515068 -281.426327 
L 163.804932 -281.578236 
L 163.094795 -281.769729 
L 162.384658 -281.968325 
L 161.674521 -282.112042 
L 160.964384 -282.214387 
L 160.254247 -282.409256 
L 159.54411 -282.593068 
L 158.833973 -282.814696 
L 158.123836 -282.94941 
L 157.413699 -283.139723 
L 156.703562 -283.296972 
L 155.993425 -283.485505 
L 155.283288 -283.671986 
L 154.573151 -283.820324 
L 153.863014 -283.97475 
L 153.152877 -284.124949 
L 152.44274 -284.257376 
L 151.732603 -284.385737 
L 151.022466 -284.538104 
L 150.312329 -284.721272 
L 149.602192 -284.945171 
L 148.892055 -285.106226 
L 148.181918 -285.281614 
L 147.471781 -285.433932 
L 146.761644 -285.64922 
L 146.051507 -285.817174 
L 145.34137 -285.969732 
L 144.631233 -286.114651 
L 143.921096 -286.327096 
L 143.210959 -286.550806 
L 142.500822 -286.659699 
L 141.790685 -286.803323 
L 141.080548 -286.970889 
L 140.370411 -287.143311 
L 139.660274 -287.289924 
L 138.950137 -287.454922 
L 138.24 -287.631499 
L 137.529863 -287.78172 
L 136.819726 -287.956002 
L 136.109589 -288.135518 
L 135.399452 -288.304429 
L 134.689315 -288.450704 
L 133.979178 -288.626306 
L 133.269041 -288.889981 
L 132.558904 -288.99302 
L 131.848767 -289.163593 
L 131.13863 -289.351123 
L 130.428493 -289.59122 
L 129.718356 -289.74128 
L 129.008219 -289.878415 
L 128.298082 -290.025213 
L 127.587945 -290.166407 
L 126.877808 -290.317625 
L 126.167671 -290.511872 
L 125.457534 -290.625308 
L 124.747397 -290.850178 
L 124.03726 -291.009926 
L 123.327123 -291.21208 
L 122.616986 -291.455821 
L 121.906849 -291.630478 
L 121.196712 -291.811148 
L 120.486575 -291.937269 
L 119.776438 -292.099106 
L 119.066301 -292.245579 
L 118.356164 -292.406467 
L 117.646027 -292.578104 
L 116.93589 -292.821816 
L 116.225753 -293.025321 
L 115.515616 -293.168782 
L 114.805479 -293.316775 
L 114.095342 -293.52844 
L 113.385205 -293.712112 
L 112.675068 -293.910813 
L 111.964932 -294.073482 
L 111.254795 -294.234505 
L 110.544658 -294.365873 
L 109.834521 -294.526699 
L 109.124384 -294.697878 
L 108.414247 -294.881979 
L 107.70411 -295.00017 
L 106.993973 -295.205056 
L 106.283836 -295.344512 
L 105.573699 -295.593822 
L 104.863562 -295.728194 
L 104.153425 -296.031679 
L 103.443288 -296.251562 
L 102.733151 -296.386242 
L 102.023014 -296.583784 
L 101.312877 -296.669824 
L 100.60274 -296.804763 
L 99.892603 -296.928331 
L 99.182466 -297.145161 
L 98.472329 -297.292199 
L 97.762192 -297.434461 
L 97.052055 -297.593657 
L 96.341918 -297.730872 
L 95.631781 -297.918723 
L 94.921644 -298.063657 
L 94.211507 -298.161123 
L 93.50137 -298.266049 
L 92.791233 -298.309231 
L 92.081096 -298.00268 
L 91.370959 -297.168967 
L 90.660822 -294.588331 
L 89.950685 -286.641959 
L 89.240548 -243.263296 
L 88.530411 -243.374652 
L 87.820274 -243.541013 
L 87.110137 -243.668204 
L 86.4 -243.813447 
z
" style="stroke: #ffffff; stroke-opacity: 0.5"/>
    </defs>
    <g clip-path="url(#pa5c63bc97a)">
     <use xlink:href="#m5a167c608d" x="0" y="432" style="fill: #0173b2; fill-opacity: 0.5; stroke: #ffffff; stroke-opacity: 0.5"/>
    </g>
   </g>
   <g id="line2d_14">
    <path d="M 86.4 256.34604 
L 89.240548 257.512036 
L 89.950685 176.641086 
L 90.660822 168.469164 
L 91.370959 165.885667 
L 92.081096 164.99066 
L 92.791233 164.721736 
L 94.211507 164.801423 
L 97.762192 165.594792 
L 109.834521 168.678891 
L 122.616986 172.22848 
L 148.181918 180.163131 
L 158.833973 183.722433 
L 173.036712 188.654406 
L 187.239452 193.76748 
L 209.253699 201.971204 
L 245.470685 215.984973 
L 279.55726 229.544232 
L 308.672877 241.296803 
L 344.889863 256.05517 
L 344.889863 256.05517 
" clip-path="url(#pa5c63bc97a)" style="fill: none; stroke: #0173b2; stroke-width: 2; stroke-linecap: round"/>
   </g>
   <g id="patch_3">
    <path d="M 86.4 345.6 
L 86.4 86.4 
" style="fill: none; stroke: #262626; stroke-width: 1.25; stroke-linejoin: miter; stroke-linecap: square"/>
   </g>
   <g id="patch_4">
    <path d="M 86.4 345.6 
L 345.6 345.6 
" style="fill: none; stroke: #262626; stroke-width: 1.25; stroke-linejoin: miter; stroke-linecap: square"/>
   </g>
  </g>
 </g>
 <defs>
  <clipPath id="pa5c63bc97a">
   <rect x="86.4" y="86.4" width="259.2" height="259.2"/>
  </clipPath>
 </defs>
</svg>
