<?xml version="1.0" encoding="utf-8" standalone="no"?>
<!DOCTYPE svg PUBLIC "-//W3C//DTD SVG 1.1//EN"
  "http://www.w3.org/Graphics/SVG/1.1/DTD/svg11.dtd">
<svg xmlns:xlink="http://www.w3.org/1999/xlink" width="432pt" height="432pt" viewBox="0 0 432 432" xmlns="http://www.w3.org/2000/svg" version="1.1">
 <metadata>
  <rdf:RDF xmlns:dc="http://purl.org/dc/elements/1.1/" xmlns:cc="http://creativecommons.org/ns#" xmlns:rdf="http://www.w3.org/1999/02/22-rdf-syntax-ns#">
   <cc:Work>
    <dc:type rdf:resource="http://purl.org/dc/dcmitype/StillImage"/>
    <dc:date>2024-09-23T20:12:51.547477</dc:date>
    <dc:format>image/svg+xml</dc:format>
    <dc:creator>
     <cc:Agent>
      <dc:title>Matplotlib v3.8.4, https://matplotlib.org/</dc:title>
     </cc:Agent>
    </dc:creator>
   </cc:Work>
  </rdf:RDF>
 </metadata>
 <defs>
  <style type="text/css">*{stroke-linejoin: round; stroke-linecap: butt}</style>
 </defs>
 <g id="figure_1">
  <g id="patch_1">
   <path d="M 0 432 
L 432 432 
L 432 0 
L 0 0 
L 0 432 
z
" style="fill: none"/>
  </g>
  <g id="axes_1">
   <g id="patch_2">
    <path d="M 86.4 345.6 
L 345.6 345.6 
L 345.6 86.4 
L 86.4 86.4 
L 86.4 345.6 
z
" style="fill: none"/>
   </g>
   <g id="matplotlib.axis_1">
    <g id="xtick_1">
     <g id="line2d_1">
      <defs>
       <path id="m3f34170b72" d="M 0 0 
L 0 6 
" style="stroke: #262626; stroke-width: 1.25"/>
      </defs>
      <g>
       <use xlink:href="#m3f34170b72" x="86.4" y="345.6" style="fill: #262626; stroke: #262626; stroke-width: 1.25"/>
      </g>
     </g>
     <g id="text_1">
      <text style="fill: #262626; font: 16px 'Arial', 'DejaVu Sans', 'Liberation Sans', 'Bitstream Vera Sans', sans-serif; text-anchor: middle" x="86.4" y="366.5525" transform="rotate(-0 86.4 366.5525)">0</text>
     </g>
    </g>
    <g id="xtick_2">
     <g id="line2d_2">
      <g>
       <use xlink:href="#m3f34170b72" x="129.008219" y="345.6" style="fill: #262626; stroke: #262626; stroke-width: 1.25"/>
      </g>
     </g>
     <g id="text_2">
      <text style="fill: #262626; font: 16px 'Arial', 'DejaVu Sans', 'Liberation Sans', 'Bitstream Vera Sans', sans-serif; text-anchor: middle" x="129.008219" y="366.5525" transform="rotate(-0 129.008219 366.5525)">60</text>
     </g>
    </g>
    <g id="xtick_3">
     <g id="line2d_3">
      <g>
       <use xlink:href="#m3f34170b72" x="171.616438" y="345.6" style="fill: #262626; stroke: #262626; stroke-width: 1.25"/>
      </g>
     </g>
     <g id="text_3">
      <text style="fill: #262626; font: 16px 'Arial', 'DejaVu Sans', 'Liberation Sans', 'Bitstream Vera Sans', sans-serif; text-anchor: middle" x="171.616438" y="366.5525" transform="rotate(-0 171.616438 366.5525)">120</text>
     </g>
    </g>
    <g id="xtick_4">
     <g id="line2d_4">
      <g>
       <use xlink:href="#m3f34170b72" x="214.224658" y="345.6" style="fill: #262626; stroke: #262626; stroke-width: 1.25"/>
      </g>
     </g>
     <g id="text_4">
      <text style="fill: #262626; font: 16px 'Arial', 'DejaVu Sans', 'Liberation Sans', 'Bitstream Vera Sans', sans-serif; text-anchor: middle" x="214.224658" y="366.5525" transform="rotate(-0 214.224658 366.5525)">180</text>
     </g>
    </g>
    <g id="xtick_5">
     <g id="line2d_5">
      <g>
       <use xlink:href="#m3f34170b72" x="256.832877" y="345.6" style="fill: #262626; stroke: #262626; stroke-width: 1.25"/>
      </g>
     </g>
     <g id="text_5">
      <text style="fill: #262626; font: 16px 'Arial', 'DejaVu Sans', 'Liberation Sans', 'Bitstream Vera Sans', sans-serif; text-anchor: middle" x="256.832877" y="366.5525" transform="rotate(-0 256.832877 366.5525)">240</text>
     </g>
    </g>
    <g id="xtick_6">
     <g id="line2d_6">
      <g>
       <use xlink:href="#m3f34170b72" x="299.441096" y="345.6" style="fill: #262626; stroke: #262626; stroke-width: 1.25"/>
      </g>
     </g>
     <g id="text_6">
      <text style="fill: #262626; font: 16px 'Arial', 'DejaVu Sans', 'Liberation Sans', 'Bitstream Vera Sans', sans-serif; text-anchor: middle" x="299.441096" y="366.5525" transform="rotate(-0 299.441096 366.5525)">300</text>
     </g>
    </g>
    <g id="xtick_7">
     <g id="line2d_7">
      <g>
       <use xlink:href="#m3f34170b72" x="342.049315" y="345.6" style="fill: #262626; stroke: #262626; stroke-width: 1.25"/>
      </g>
     </g>
     <g id="text_7">
      <text style="fill: #262626; font: 16px 'Arial', 'DejaVu Sans', 'Liberation Sans', 'Bitstream Vera Sans', sans-serif; text-anchor: middle" x="342.049315" y="366.5525" transform="rotate(-0 342.049315 366.5525)">360</text>
     </g>
    </g>
    <g id="text_8">
     <text style="fill: #262626; font: 16px 'Arial', 'DejaVu Sans', 'Liberation Sans', 'Bitstream Vera Sans', sans-serif; text-anchor: middle" x="216" y="385.38" transform="rotate(-0 216 385.38)">Time since vaccination (days)</text>
    </g>
   </g>
   <g id="matplotlib.axis_2">
    <g id="ytick_1">
     <g id="line2d_8">
      <defs>
       <path id="m3eb28e9841" d="M 0 0 
L -6 0 
" style="stroke: #262626; stroke-width: 1.25"/>
      </defs>
      <g>
       <use xlink:href="#m3eb28e9841" x="86.4" y="345.6" style="fill: #262626; stroke: #262626; stroke-width: 1.25"/>
      </g>
     </g>
     <g id="text_9">
      <text style="fill: #262626; font: 16px 'Arial', 'DejaVu Sans', 'Liberation Sans', 'Bitstream Vera Sans', sans-serif; text-anchor: end" x="76.9" y="351.32625" transform="rotate(-0 76.9 351.32625)">0.0</text>
     </g>
    </g>
    <g id="ytick_2">
     <g id="line2d_9">
      <g>
       <use xlink:href="#m3eb28e9841" x="86.4" y="293.76" style="fill: #262626; stroke: #262626; stroke-width: 1.25"/>
      </g>
     </g>
     <g id="text_10">
      <text style="fill: #262626; font: 16px 'Arial', 'DejaVu Sans', 'Liberation Sans', 'Bitstream Vera Sans', sans-serif; text-anchor: end" x="76.9" y="299.48625" transform="rotate(-0 76.9 299.48625)">0.2</text>
     </g>
    </g>
    <g id="ytick_3">
     <g id="line2d_10">
      <g>
       <use xlink:href="#m3eb28e9841" x="86.4" y="241.92" style="fill: #262626; stroke: #262626; stroke-width: 1.25"/>
      </g>
     </g>
     <g id="text_11">
      <text style="fill: #262626; font: 16px 'Arial', 'DejaVu Sans', 'Liberation Sans', 'Bitstream Vera Sans', sans-serif; text-anchor: end" x="76.9" y="247.64625" transform="rotate(-0 76.9 247.64625)">0.4</text>
     </g>
    </g>
    <g id="ytick_4">
     <g id="line2d_11">
      <g>
       <use xlink:href="#m3eb28e9841" x="86.4" y="190.08" style="fill: #262626; stroke: #262626; stroke-width: 1.25"/>
      </g>
     </g>
     <g id="text_12">
      <text style="fill: #262626; font: 16px 'Arial', 'DejaVu Sans', 'Liberation Sans', 'Bitstream Vera Sans', sans-serif; text-anchor: end" x="76.9" y="195.80625" transform="rotate(-0 76.9 195.80625)">0.6</text>
     </g>
    </g>
    <g id="ytick_5">
     <g id="line2d_12">
      <g>
       <use xlink:href="#m3eb28e9841" x="86.4" y="138.24" style="fill: #262626; stroke: #262626; stroke-width: 1.25"/>
      </g>
     </g>
     <g id="text_13">
      <text style="fill: #262626; font: 16px 'Arial', 'DejaVu Sans', 'Liberation Sans', 'Bitstream Vera Sans', sans-serif; text-anchor: end" x="76.9" y="143.96625" transform="rotate(-0 76.9 143.96625)">0.8</text>
     </g>
    </g>
    <g id="ytick_6">
     <g id="line2d_13">
      <g>
       <use xlink:href="#m3eb28e9841" x="86.4" y="86.4" style="fill: #262626; stroke: #262626; stroke-width: 1.25"/>
      </g>
     </g>
     <g id="text_14">
      <text style="fill: #262626; font: 16px 'Arial', 'DejaVu Sans', 'Liberation Sans', 'Bitstream Vera Sans', sans-serif; text-anchor: end" x="76.9" y="92.12625" transform="rotate(-0 76.9 92.12625)">1.0</text>
     </g>
    </g>
    <g id="text_15">
     <text style="fill: #262626; font: 16px 'Arial', 'DejaVu Sans', 'Liberation Sans', 'Bitstream Vera Sans', sans-serif; text-anchor: middle" x="47.2925" y="216" transform="rotate(-90 47.2925 216)">Relative susceptibility</text>
    </g>
   </g>
   <g id="PolyCollection_1">
    <defs>
     <path id="m662033f6df" d="M 86.4 -345.58903 
L 86.4 -208.670723 
L 87.110137 -209.231873 
L 87.820274 -209.723487 
L 88.530411 -210.366776 
L 89.240548 -210.797525 
L 89.950685 -103.119502 
L 90.660822 -97.055623 
L 91.370959 -95.585842 
L 92.081096 -95.154195 
L 92.791233 -95.000455 
L 93.50137 -95.021954 
L 94.211507 -95.074406 
L 94.921644 -95.123403 
L 95.631781 -95.19676 
L 96.341918 -95.292726 
L 97.052055 -95.36346 
L 97.762192 -95.446207 
L 98.472329 -95.520772 
L 99.182466 -95.598465 
L 99.892603 -95.714197 
L 100.60274 -95.780777 
L 101.312877 -95.854008 
L 102.023014 -95.900987 
L 102.733151 -96.009701 
L 103.443288 -96.084504 
L 104.153425 -96.207836 
L 104.863562 -96.380539 
L 105.573699 -96.457935 
L 106.283836 -96.603061 
L 106.993973 -96.685114 
L 107.70411 -96.806813 
L 108.414247 -96.877642 
L 109.124384 -96.98889 
L 109.834521 -97.093344 
L 110.544658 -97.192379 
L 111.254795 -97.273924 
L 111.964932 -97.37468 
L 112.675068 -97.477373 
L 113.385205 -97.604059 
L 114.095342 -97.722391 
L 114.805479 -97.860237 
L 115.515616 -97.957567 
L 116.225753 -98.052668 
L 116.93589 -98.188852 
L 117.646027 -98.353938 
L 118.356164 -98.471519 
L 119.066301 -98.582736 
L 119.776438 -98.684834 
L 120.486575 -98.798584 
L 121.196712 -98.887924 
L 121.906849 -99.016972 
L 122.616986 -99.142926 
L 123.327123 -99.320697 
L 124.03726 -99.469914 
L 124.747397 -99.588985 
L 125.457534 -99.758334 
L 126.167671 -99.844539 
L 126.877808 -99.993382 
L 127.587945 -100.110331 
L 128.298082 -100.220382 
L 129.008219 -100.335685 
L 129.718356 -100.444219 
L 130.428493 -100.563894 
L 131.13863 -100.757379 
L 131.848767 -100.910224 
L 132.558904 -101.050582 
L 133.269041 -101.135982 
L 133.979178 -101.356661 
L 134.689315 -101.505346 
L 135.399452 -101.630257 
L 136.109589 -101.775702 
L 136.819726 -101.931704 
L 137.529863 -102.084575 
L 138.24 -102.21747 
L 138.950137 -102.375026 
L 139.660274 -102.523574 
L 140.370411 -102.656653 
L 141.080548 -102.814468 
L 141.790685 -102.969206 
L 142.500822 -103.102917 
L 143.210959 -103.204961 
L 143.921096 -103.416427 
L 144.631233 -103.61953 
L 145.34137 -103.759366 
L 146.051507 -103.907714 
L 146.761644 -104.072391 
L 147.471781 -104.285575 
L 148.181918 -104.437841 
L 148.892055 -104.614656 
L 149.602192 -104.778429 
L 150.312329 -105.008369 
L 151.022466 -105.198449 
L 151.732603 -105.357928 
L 152.44274 -105.493246 
L 153.152877 -105.633783 
L 153.863014 -105.794331 
L 154.573151 -105.960681 
L 155.283288 -106.121705 
L 155.993425 -106.32586 
L 156.703562 -106.53423 
L 157.413699 -106.709547 
L 158.123836 -106.923598 
L 158.833973 -107.076356 
L 159.54411 -107.329936 
L 160.254247 -107.5424 
L 160.964384 -107.769791 
L 161.674521 -107.890087 
L 162.384658 -108.060073 
L 163.094795 -108.296979 
L 163.804932 -108.527637 
L 164.515068 -108.712181 
L 165.225205 -108.851709 
L 165.935342 -109.019342 
L 166.645479 -109.2344 
L 167.355616 -109.511394 
L 168.065753 -109.689749 
L 168.77589 -109.942668 
L 169.486027 -110.18064 
L 170.196164 -110.348954 
L 170.906301 -110.469224 
L 171.616438 -110.584894 
L 172.326575 -110.690987 
L 173.036712 -110.813338 
L 173.746849 -110.986696 
L 174.456986 -111.198858 
L 175.167123 -111.320953 
L 175.87726 -111.571531 
L 176.587397 -111.778537 
L 177.297534 -112.054529 
L 178.007671 -112.321669 
L 178.717808 -112.61821 
L 179.427945 -112.87375 
L 180.138082 -113.122564 
L 180.848219 -113.377279 
L 181.558356 -113.583738 
L 182.268493 -113.872292 
L 182.97863 -114.100774 
L 183.688767 -114.298313 
L 184.398904 -114.542991 
L 185.109041 -114.795955 
L 185.819178 -115.028799 
L 186.529315 -115.270003 
L 187.239452 -115.556202 
L 187.949589 -115.823514 
L 188.659726 -116.079869 
L 189.369863 -116.336752 
L 190.08 -116.550741 
L 190.790137 -116.756362 
L 191.500274 -116.993908 
L 192.210411 -117.202099 
L 192.920548 -117.490084 
L 193.630685 -117.755034 
L 194.340822 -118.027883 
L 195.050959 -118.266577 
L 195.761096 -118.53078 
L 196.471233 -118.819788 
L 197.18137 -119.043006 
L 197.891507 -119.275279 
L 198.601644 -119.528954 
L 199.311781 -119.769318 
L 200.021918 -119.961342 
L 200.732055 -120.219292 
L 201.442192 -120.473479 
L 202.152329 -120.760671 
L 202.862466 -121.041051 
L 203.572603 -121.330059 
L 204.28274 -121.644291 
L 204.992877 -122.016112 
L 205.703014 -122.307123 
L 206.413151 -122.595672 
L 207.123288 -122.906255 
L 207.833425 -123.21683 
L 208.543562 -123.485062 
L 209.253699 -123.779455 
L 209.963836 -124.091188 
L 210.673973 -124.374133 
L 211.38411 -124.732917 
L 212.094247 -125.000241 
L 212.804384 -125.320475 
L 213.514521 -125.589128 
L 214.224658 -125.924913 
L 214.934795 -126.248656 
L 215.644932 -126.549213 
L 216.355068 -126.859462 
L 217.065205 -127.154291 
L 217.775342 -127.516085 
L 218.485479 -127.877141 
L 219.195616 -128.189617 
L 219.905753 -128.396598 
L 220.61589 -128.835457 
L 221.326027 -129.15783 
L 222.036164 -129.404335 
L 222.746301 -129.685848 
L 223.456438 -130.091599 
L 224.166575 -130.51937 
L 224.876712 -130.848845 
L 225.586849 -131.032447 
L 226.296986 -131.393605 
L 227.007123 -131.661491 
L 227.71726 -131.939002 
L 228.427397 -132.161274 
L 229.137534 -132.562469 
L 229.847671 -132.849707 
L 230.557808 -133.329149 
L 231.267945 -133.737267 
L 231.978082 -134.081537 
L 232.688219 -134.401368 
L 233.398356 -134.715257 
L 234.108493 -134.973519 
L 234.81863 -135.328709 
L 235.528767 -135.691413 
L 236.238904 -136.095451 
L 236.949041 -136.430539 
L 237.659178 -136.722221 
L 238.369315 -137.026453 
L 239.079452 -137.31819 
L 239.789589 -137.597694 
L 240.499726 -138.068098 
L 241.209863 -138.418728 
L 241.92 -138.775556 
L 242.630137 -139.236663 
L 243.340274 -139.741669 
L 244.050411 -140.083072 
L 244.760548 -140.565056 
L 245.470685 -141.026993 
L 246.180822 -141.45003 
L 246.890959 -141.854663 
L 247.601096 -142.373205 
L 248.311233 -142.800462 
L 249.02137 -143.26191 
L 249.731507 -143.68808 
L 250.441644 -144.198942 
L 251.151781 -144.701764 
L 251.861918 -145.06069 
L 252.572055 -145.439936 
L 253.282192 -145.82258 
L 253.992329 -146.255771 
L 254.702466 -146.630059 
L 255.412603 -147.001987 
L 256.12274 -147.544262 
L 256.832877 -148.020942 
L 257.543014 -148.413583 
L 258.253151 -148.798137 
L 258.963288 -149.127923 
L 259.673425 -149.469325 
L 260.383562 -149.861381 
L 261.093699 -150.304517 
L 261.803836 -150.759168 
L 262.513973 -151.161259 
L 263.22411 -151.549603 
L 263.934247 -151.940395 
L 264.644384 -152.521662 
L 265.354521 -152.867527 
L 266.064658 -153.237902 
L 266.774795 -153.614154 
L 267.484932 -153.975165 
L 268.195068 -154.376211 
L 268.905205 -154.923147 
L 269.615342 -155.371635 
L 270.325479 -155.817211 
L 271.035616 -156.173435 
L 271.745753 -156.577888 
L 272.45589 -156.947047 
L 273.166027 -157.306533 
L 273.876164 -157.652268 
L 274.586301 -158.078499 
L 275.296438 -158.533049 
L 276.006575 -158.879565 
L 276.716712 -159.217852 
L 277.426849 -159.634446 
L 278.136986 -160.071055 
L 278.847123 -160.485138 
L 279.55726 -161.046022 
L 280.267397 -161.423444 
L 280.977534 -162.030856 
L 281.687671 -162.611742 
L 282.397808 -163.217371 
L 283.107945 -163.641167 
L 283.818082 -164.048921 
L 284.528219 -164.524775 
L 285.238356 -164.995757 
L 285.948493 -165.414519 
L 286.65863 -165.879061 
L 287.368767 -166.361408 
L 288.078904 -166.816225 
L 288.789041 -167.239629 
L 289.499178 -167.684107 
L 290.209315 -168.080577 
L 290.919452 -168.523861 
L 291.629589 -169.077281 
L 292.339726 -169.620703 
L 293.049863 -170.218855 
L 293.76 -170.650696 
L 294.470137 -171.095903 
L 295.180274 -171.661666 
L 295.890411 -172.302125 
L 296.600548 -172.746057 
L 297.310685 -173.069687 
L 298.020822 -173.440082 
L 298.730959 -173.783199 
L 299.441096 -174.177586 
L 300.151233 -174.52675 
L 300.86137 -175.033509 
L 301.571507 -175.68218 
L 302.281644 -176.198987 
L 302.991781 -176.521806 
L 303.701918 -176.806404 
L 304.412055 -177.236028 
L 305.122192 -177.658739 
L 305.832329 -177.987094 
L 306.542466 -178.389443 
L 307.252603 -178.959189 
L 307.96274 -179.691216 
L 308.672877 -180.386046 
L 309.383014 -180.782306 
L 310.093151 -181.272058 
L 310.803288 -181.800573 
L 311.513425 -182.210216 
L 312.223562 -182.75832 
L 312.933699 -183.339717 
L 313.643836 -183.92748 
L 314.353973 -184.450971 
L 315.06411 -184.828014 
L 315.774247 -185.39492 
L 316.484384 -185.99011 
L 317.194521 -186.454238 
L 317.904658 -187.058024 
L 318.614795 -187.573486 
L 319.324932 -187.988094 
L 320.035068 -188.384636 
L 320.745205 -188.910173 
L 321.455342 -189.586631 
L 322.165479 -189.969742 
L 322.875616 -190.529869 
L 323.585753 -191.072514 
L 324.29589 -191.654203 
L 325.006027 -192.229678 
L 325.716164 -192.612618 
L 326.426301 -193.056645 
L 327.136438 -193.738148 
L 327.846575 -194.459496 
L 328.556712 -195.15984 
L 329.266849 -195.672425 
L 329.976986 -196.252646 
L 330.687123 -196.958056 
L 331.39726 -197.517845 
L 332.107397 -197.985855 
L 332.817534 -198.381213 
L 333.527671 -198.745626 
L 334.237808 -199.223908 
L 334.947945 -199.66956 
L 335.658082 -200.368861 
L 336.368219 -201.097306 
L 337.078356 -201.84802 
L 337.788493 -202.623553 
L 338.49863 -203.311964 
L 339.208767 -203.831749 
L 339.918904 -204.366499 
L 340.629041 -204.994116 
L 341.339178 -205.624635 
L 342.049315 -206.116913 
L 342.759452 -206.539184 
L 343.469589 -206.997289 
L 344.179726 -207.393058 
L 344.889863 -207.852625 
L 344.889863 -345.588681 
L 344.889863 -345.588681 
L 344.179726 -345.588339 
L 343.469589 -345.587945 
L 342.759452 -345.587561 
L 342.049315 -345.587148 
L 341.339178 -345.586689 
L 340.629041 -345.586217 
L 339.918904 -345.585751 
L 339.208767 -345.585249 
L 338.49863 -345.584718 
L 337.788493 -345.584198 
L 337.078356 -345.583643 
L 336.368219 -345.583055 
L 335.658082 -345.58248 
L 334.947945 -345.581878 
L 334.237808 -345.581225 
L 333.527671 -345.580575 
L 332.817534 -345.580008 
L 332.107397 -345.579398 
L 331.39726 -345.578756 
L 330.687123 -345.578076 
L 329.976986 -345.577334 
L 329.266849 -345.576613 
L 328.556712 -345.575858 
L 327.846575 -345.575041 
L 327.136438 -345.574225 
L 326.426301 -345.573298 
L 325.716164 -345.572248 
L 325.006027 -345.571276 
L 324.29589 -345.570137 
L 323.585753 -345.56919 
L 322.875616 -345.568293 
L 322.165479 -345.567419 
L 321.455342 -345.566388 
L 320.745205 -345.56518 
L 320.035068 -345.563899 
L 319.324932 -345.562647 
L 318.614795 -345.561321 
L 317.904658 -345.559894 
L 317.194521 -345.558488 
L 316.484384 -345.55703 
L 315.774247 -345.555486 
L 315.06411 -345.554052 
L 314.353973 -345.552611 
L 313.643836 -345.551181 
L 312.933699 -345.549629 
L 312.223562 -345.548012 
L 311.513425 -345.546443 
L 310.803288 -345.544763 
L 310.093151 -345.542968 
L 309.383014 -345.541229 
L 308.672877 -345.539431 
L 307.96274 -345.537482 
L 307.252603 -345.535541 
L 306.542466 -345.533594 
L 305.832329 -345.531476 
L 305.122192 -345.529289 
L 304.412055 -345.527155 
L 303.701918 -345.524829 
L 302.991781 -345.522221 
L 302.281644 -345.519399 
L 301.571507 -345.516578 
L 300.86137 -345.513713 
L 300.151233 -345.5106 
L 299.441096 -345.507552 
L 298.730959 -345.504884 
L 298.020822 -345.501978 
L 297.310685 -345.498998 
L 296.600548 -345.496106 
L 295.890411 -345.492992 
L 295.180274 -345.489681 
L 294.470137 -345.486375 
L 293.76 -345.482746 
L 293.049863 -345.478962 
L 292.339726 -345.475467 
L 291.629589 -345.471619 
L 290.919452 -345.466773 
L 290.209315 -345.462049 
L 289.499178 -345.457283 
L 288.789041 -345.452875 
L 288.078904 -345.447842 
L 287.368767 -345.442592 
L 286.65863 -345.436879 
L 285.948493 -345.431022 
L 285.238356 -345.42521 
L 284.528219 -345.418925 
L 283.818082 -345.412335 
L 283.107945 -345.405883 
L 282.397808 -345.399011 
L 281.687671 -345.392241 
L 280.977534 -345.384654 
L 280.267397 -345.378227 
L 279.55726 -345.372027 
L 278.847123 -345.365643 
L 278.136986 -345.358296 
L 277.426849 -345.350354 
L 276.716712 -345.342579 
L 276.006575 -345.335297 
L 275.296438 -345.326262 
L 274.586301 -345.316665 
L 273.876164 -345.30679 
L 273.166027 -345.298915 
L 272.45589 -345.289413 
L 271.745753 -345.27992 
L 271.035616 -345.269757 
L 270.325479 -345.258908 
L 269.615342 -345.248384 
L 268.905205 -345.23741 
L 268.195068 -345.225526 
L 267.484932 -345.213605 
L 266.774795 -345.201912 
L 266.064658 -345.189945 
L 265.354521 -345.176932 
L 264.644384 -345.163587 
L 263.934247 -345.151337 
L 263.22411 -345.134125 
L 262.513973 -345.119658 
L 261.803836 -345.102237 
L 261.093699 -345.086791 
L 260.383562 -345.070829 
L 259.673425 -345.054153 
L 258.963288 -345.038031 
L 258.253151 -345.020906 
L 257.543014 -345.003038 
L 256.832877 -344.984187 
L 256.12274 -344.963873 
L 255.412603 -344.942321 
L 254.702466 -344.921878 
L 253.992329 -344.898305 
L 253.282192 -344.878956 
L 252.572055 -344.857806 
L 251.861918 -344.833103 
L 251.151781 -344.803881 
L 250.441644 -344.773319 
L 249.731507 -344.743226 
L 249.02137 -344.710859 
L 248.311233 -344.68023 
L 247.601096 -344.651304 
L 246.890959 -344.622313 
L 246.180822 -344.590858 
L 245.470685 -344.556619 
L 244.760548 -344.52366 
L 244.050411 -344.487012 
L 243.340274 -344.449445 
L 242.630137 -344.411652 
L 241.92 -344.371685 
L 241.209863 -344.333159 
L 240.499726 -344.293492 
L 239.789589 -344.247111 
L 239.079452 -344.20542 
L 238.369315 -344.154253 
L 237.659178 -344.09741 
L 236.949041 -344.041496 
L 236.238904 -343.985726 
L 235.528767 -343.936942 
L 234.81863 -343.894662 
L 234.108493 -343.851006 
L 233.398356 -343.802387 
L 232.688219 -343.744666 
L 231.978082 -343.681732 
L 231.267945 -343.613065 
L 230.557808 -343.545922 
L 229.847671 -343.480425 
L 229.137534 -343.42306 
L 228.427397 -343.353947 
L 227.71726 -343.276475 
L 227.007123 -343.20476 
L 226.296986 -343.136607 
L 225.586849 -343.055932 
L 224.876712 -342.969997 
L 224.166575 -342.884255 
L 223.456438 -342.7989 
L 222.746301 -342.722968 
L 222.036164 -342.644048 
L 221.326027 -342.550077 
L 220.61589 -342.448733 
L 219.905753 -342.334523 
L 219.195616 -342.239192 
L 218.485479 -342.134932 
L 217.775342 -342.047422 
L 217.065205 -341.95997 
L 216.355068 -341.852827 
L 215.644932 -341.741909 
L 214.934795 -341.617473 
L 214.224658 -341.483909 
L 213.514521 -341.355078 
L 212.804384 -341.215698 
L 212.094247 -341.070483 
L 211.38411 -340.897421 
L 210.673973 -340.747765 
L 209.963836 -340.620728 
L 209.253699 -340.470532 
L 208.543562 -340.30095 
L 207.833425 -340.132198 
L 207.123288 -339.968018 
L 206.413151 -339.800541 
L 205.703014 -339.654322 
L 204.992877 -339.488724 
L 204.28274 -339.361226 
L 203.572603 -339.18126 
L 202.862466 -339.022783 
L 202.152329 -338.849855 
L 201.442192 -338.633701 
L 200.732055 -338.419098 
L 200.021918 -338.22818 
L 199.311781 -338.00154 
L 198.601644 -337.787713 
L 197.891507 -337.530675 
L 197.18137 -337.253277 
L 196.471233 -336.952758 
L 195.761096 -336.712596 
L 195.050959 -336.489445 
L 194.340822 -336.222691 
L 193.630685 -335.988783 
L 192.920548 -335.733005 
L 192.210411 -335.40266 
L 191.500274 -335.108827 
L 190.790137 -334.781848 
L 190.08 -334.535104 
L 189.369863 -334.291143 
L 188.659726 -333.973334 
L 187.949589 -333.637106 
L 187.239452 -333.278025 
L 186.529315 -332.911859 
L 185.819178 -332.525259 
L 185.109041 -332.152579 
L 184.398904 -331.719972 
L 183.688767 -331.267538 
L 182.97863 -330.780766 
L 182.268493 -330.313008 
L 181.558356 -329.863753 
L 180.848219 -329.442298 
L 180.138082 -329.039388 
L 179.427945 -328.593422 
L 178.717808 -328.131513 
L 178.007671 -327.633362 
L 177.297534 -327.189913 
L 176.587397 -326.741947 
L 175.87726 -326.281991 
L 175.167123 -325.818635 
L 174.456986 -325.357015 
L 173.746849 -324.782532 
L 173.036712 -324.257942 
L 172.326575 -323.746403 
L 171.616438 -323.232055 
L 170.906301 -322.688124 
L 170.196164 -322.145961 
L 169.486027 -321.63009 
L 168.77589 -321.095958 
L 168.065753 -320.512859 
L 167.355616 -319.882729 
L 166.645479 -319.256893 
L 165.935342 -318.637479 
L 165.225205 -318.036425 
L 164.515068 -317.323455 
L 163.804932 -316.667658 
L 163.094795 -315.910026 
L 162.384658 -315.360413 
L 161.674521 -314.844463 
L 160.964384 -314.368049 
L 160.254247 -313.787944 
L 159.54411 -313.023335 
L 158.833973 -312.312699 
L 158.123836 -311.637908 
L 157.413699 -310.950251 
L 156.703562 -310.184282 
L 155.993425 -309.784966 
L 155.283288 -308.993479 
L 154.573151 -308.458059 
L 153.863014 -307.641929 
L 153.152877 -306.812256 
L 152.44274 -305.75827 
L 151.732603 -305.098939 
L 151.022466 -304.286839 
L 150.312329 -303.498923 
L 149.602192 -302.7003 
L 148.892055 -301.893393 
L 148.181918 -300.980347 
L 147.471781 -300.245931 
L 146.761644 -299.409546 
L 146.051507 -298.645036 
L 145.34137 -297.526852 
L 144.631233 -296.554747 
L 143.921096 -295.74825 
L 143.210959 -295.028591 
L 142.500822 -294.264507 
L 141.790685 -293.531901 
L 141.080548 -292.85776 
L 140.370411 -291.895057 
L 139.660274 -290.866632 
L 138.950137 -290.267396 
L 138.24 -289.315984 
L 137.529863 -288.409611 
L 136.819726 -287.392049 
L 136.109589 -286.516155 
L 135.399452 -285.668319 
L 134.689315 -284.782021 
L 133.979178 -283.810303 
L 133.269041 -283.14435 
L 132.558904 -282.020836 
L 131.848767 -280.87231 
L 131.13863 -280.004785 
L 130.428493 -279.167739 
L 129.718356 -278.195799 
L 129.008219 -277.254066 
L 128.298082 -276.238827 
L 127.587945 -275.290691 
L 126.877808 -274.162431 
L 126.167671 -272.876352 
L 125.457534 -271.913311 
L 124.747397 -271.296481 
L 124.03726 -270.706388 
L 123.327123 -269.711934 
L 122.616986 -269.00535 
L 121.906849 -268.390982 
L 121.196712 -267.803299 
L 120.486575 -267.139505 
L 119.776438 -266.006683 
L 119.066301 -264.978854 
L 118.356164 -264.306685 
L 117.646027 -263.654951 
L 116.93589 -262.695976 
L 116.225753 -261.818003 
L 115.515616 -261.058702 
L 114.805479 -260.044657 
L 114.095342 -259.116423 
L 113.385205 -258.14111 
L 112.675068 -257.215672 
L 111.964932 -256.421049 
L 111.254795 -255.49443 
L 110.544658 -254.632239 
L 109.834521 -253.504842 
L 109.124384 -252.754552 
L 108.414247 -252.120769 
L 107.70411 -251.18956 
L 106.993973 -250.415277 
L 106.283836 -249.755745 
L 105.573699 -248.998063 
L 104.863562 -248.45881 
L 104.153425 -247.540893 
L 103.443288 -246.723258 
L 102.733151 -245.796006 
L 102.023014 -244.968003 
L 101.312877 -243.875026 
L 100.60274 -243.202598 
L 99.892603 -242.396604 
L 99.182466 -241.992655 
L 98.472329 -241.297425 
L 97.762192 -240.395411 
L 97.052055 -239.740835 
L 96.341918 -239.145283 
L 95.631781 -238.54764 
L 94.921644 -237.999829 
L 94.211507 -237.518695 
L 93.50137 -237.207716 
L 92.791233 -237.298071 
L 92.081096 -238.277598 
L 91.370959 -241.529119 
L 90.660822 -251.171079 
L 89.950685 -278.68208 
L 89.240548 -345.590464 
L 88.530411 -345.590125 
L 87.820274 -345.589774 
L 87.110137 -345.58941 
L 86.4 -345.58903 
z
" style="stroke: #ffffff; stroke-opacity: 0.5"/>
    </defs>
    <g clip-path="url(#pe84d667925)">
     <use xlink:href="#m662033f6df" x="0" y="432" style="fill: #0173b2; fill-opacity: 0.5; stroke: #ffffff; stroke-opacity: 0.5"/>
    </g>
   </g>
   <g id="line2d_14">
    <path d="M 86.4 109.070261 
L 89.240548 108.349932 
L 89.950685 258.4405 
L 90.660822 280.898495 
L 91.370959 287.208376 
L 92.081096 289.296748 
L 92.791233 289.912235 
L 93.50137 289.936437 
L 94.921644 289.40427 
L 97.762192 287.855844 
L 103.443288 284.434384 
L 111.964932 278.706282 
L 123.327123 269.951681 
L 129.718356 264.529591 
L 133.269041 261.390714 
L 143.921096 251.370241 
L 154.573151 240.727268 
L 172.326575 222.258069 
L 194.340822 199.610109 
L 205.703014 188.534514 
L 214.934795 179.990081 
L 221.326027 174.329492 
L 229.847671 167.177971 
L 238.369315 160.450239 
L 244.760548 155.694285 
L 251.151781 151.18173 
L 258.963288 146.004277 
L 266.064658 141.610331 
L 272.45589 137.898265 
L 280.267397 133.666414 
L 287.368767 130.0933 
L 295.180274 126.455619 
L 303.701918 122.812164 
L 310.803288 120.014494 
L 318.614795 117.182084 
L 325.716164 114.805848 
L 334.237808 112.191017 
L 342.049315 110.004112 
L 344.889863 109.253666 
L 344.889863 109.253666 
" clip-path="url(#pe84d667925)" style="fill: none; stroke: #0173b2; stroke-width: 2; stroke-linecap: round"/>
   </g>
   <g id="patch_3">
    <path d="M 86.4 345.6 
L 86.4 86.4 
" style="fill: none; stroke: #262626; stroke-width: 1.25; stroke-linejoin: miter; stroke-linecap: square"/>
   </g>
   <g id="patch_4">
    <path d="M 86.4 345.6 
L 345.6 345.6 
" style="fill: none; stroke: #262626; stroke-width: 1.25; stroke-linejoin: miter; stroke-linecap: square"/>
   </g>
  </g>
 </g>
 <defs>
  <clipPath id="pe84d667925">
   <rect x="86.4" y="86.4" width="259.2" height="259.2"/>
  </clipPath>
 </defs>
</svg>
