<?xml version="1.0" encoding="utf-8" standalone="no"?>
<!DOCTYPE svg PUBLIC "-//W3C//DTD SVG 1.1//EN"
  "http://www.w3.org/Graphics/SVG/1.1/DTD/svg11.dtd">
<svg xmlns:xlink="http://www.w3.org/1999/xlink" width="432pt" height="432pt" viewBox="0 0 432 432" xmlns="http://www.w3.org/2000/svg" version="1.1">
 <metadata>
  <rdf:RDF xmlns:dc="http://purl.org/dc/elements/1.1/" xmlns:cc="http://creativecommons.org/ns#" xmlns:rdf="http://www.w3.org/1999/02/22-rdf-syntax-ns#">
   <cc:Work>
    <dc:type rdf:resource="http://purl.org/dc/dcmitype/StillImage"/>
    <dc:date>2024-05-31T10:45:29.364910</dc:date>
    <dc:format>image/svg+xml</dc:format>
    <dc:creator>
     <cc:Agent>
      <dc:title>Matplotlib v3.8.4, https://matplotlib.org/</dc:title>
     </cc:Agent>
    </dc:creator>
   </cc:Work>
  </rdf:RDF>
 </metadata>
 <defs>
  <style type="text/css">*{stroke-linejoin: round; stroke-linecap: butt}</style>
 </defs>
 <g id="figure_1">
  <g id="patch_1">
   <path d="M 0 432 
L 432 432 
L 432 0 
L 0 0 
L 0 432 
z
" style="fill: none"/>
  </g>
  <g id="axes_1">
   <g id="patch_2">
    <path d="M 86.4 345.6 
L 345.6 345.6 
L 345.6 86.4 
L 86.4 86.4 
L 86.4 345.6 
z
" style="fill: none"/>
   </g>
   <g id="matplotlib.axis_1">
    <g id="xtick_1">
     <g id="line2d_1">
      <defs>
       <path id="m2c07eebf66" d="M 0 0 
L 0 6 
" style="stroke: #262626; stroke-width: 1.25"/>
      </defs>
      <g>
       <use xlink:href="#m2c07eebf66" x="86.4" y="345.6" style="fill: #262626; stroke: #262626; stroke-width: 1.25"/>
      </g>
     </g>
     <g id="text_1">
      <text style="fill: #262626; font: 16px 'Arial', 'DejaVu Sans', 'Liberation Sans', 'Bitstream Vera Sans', sans-serif; text-anchor: middle" x="86.4" y="366.5525" transform="rotate(-0 86.4 366.5525)">0</text>
     </g>
    </g>
    <g id="xtick_2">
     <g id="line2d_2">
      <g>
       <use xlink:href="#m2c07eebf66" x="129.6" y="345.6" style="fill: #262626; stroke: #262626; stroke-width: 1.25"/>
      </g>
     </g>
     <g id="text_2">
      <text style="fill: #262626; font: 16px 'Arial', 'DejaVu Sans', 'Liberation Sans', 'Bitstream Vera Sans', sans-serif; text-anchor: middle" x="129.6" y="366.5525" transform="rotate(-0 129.6 366.5525)">60</text>
     </g>
    </g>
    <g id="xtick_3">
     <g id="line2d_3">
      <g>
       <use xlink:href="#m2c07eebf66" x="172.8" y="345.6" style="fill: #262626; stroke: #262626; stroke-width: 1.25"/>
      </g>
     </g>
     <g id="text_3">
      <text style="fill: #262626; font: 16px 'Arial', 'DejaVu Sans', 'Liberation Sans', 'Bitstream Vera Sans', sans-serif; text-anchor: middle" x="172.8" y="366.5525" transform="rotate(-0 172.8 366.5525)">120</text>
     </g>
    </g>
    <g id="xtick_4">
     <g id="line2d_4">
      <g>
       <use xlink:href="#m2c07eebf66" x="216" y="345.6" style="fill: #262626; stroke: #262626; stroke-width: 1.25"/>
      </g>
     </g>
     <g id="text_4">
      <text style="fill: #262626; font: 16px 'Arial', 'DejaVu Sans', 'Liberation Sans', 'Bitstream Vera Sans', sans-serif; text-anchor: middle" x="216" y="366.5525" transform="rotate(-0 216 366.5525)">180</text>
     </g>
    </g>
    <g id="xtick_5">
     <g id="line2d_5">
      <g>
       <use xlink:href="#m2c07eebf66" x="259.2" y="345.6" style="fill: #262626; stroke: #262626; stroke-width: 1.25"/>
      </g>
     </g>
     <g id="text_5">
      <text style="fill: #262626; font: 16px 'Arial', 'DejaVu Sans', 'Liberation Sans', 'Bitstream Vera Sans', sans-serif; text-anchor: middle" x="259.2" y="366.5525" transform="rotate(-0 259.2 366.5525)">240</text>
     </g>
    </g>
    <g id="xtick_6">
     <g id="line2d_6">
      <g>
       <use xlink:href="#m2c07eebf66" x="302.4" y="345.6" style="fill: #262626; stroke: #262626; stroke-width: 1.25"/>
      </g>
     </g>
     <g id="text_6">
      <text style="fill: #262626; font: 16px 'Arial', 'DejaVu Sans', 'Liberation Sans', 'Bitstream Vera Sans', sans-serif; text-anchor: middle" x="302.4" y="366.5525" transform="rotate(-0 302.4 366.5525)">300</text>
     </g>
    </g>
    <g id="xtick_7">
     <g id="line2d_7">
      <g>
       <use xlink:href="#m2c07eebf66" x="345.6" y="345.6" style="fill: #262626; stroke: #262626; stroke-width: 1.25"/>
      </g>
     </g>
     <g id="text_7">
      <text style="fill: #262626; font: 16px 'Arial', 'DejaVu Sans', 'Liberation Sans', 'Bitstream Vera Sans', sans-serif; text-anchor: middle" x="345.6" y="366.5525" transform="rotate(-0 345.6 366.5525)">360</text>
     </g>
    </g>
    <g id="text_8">
     <text style="fill: #262626; font: 16px 'Arial', 'DejaVu Sans', 'Liberation Sans', 'Bitstream Vera Sans', sans-serif; text-anchor: middle" x="216" y="385.38" transform="rotate(-0 216 385.38)">Time since vaccination (days)</text>
    </g>
   </g>
   <g id="matplotlib.axis_2">
    <g id="ytick_1">
     <g id="line2d_8">
      <defs>
       <path id="m4a2ca8849b" d="M 0 0 
L -6 0 
" style="stroke: #262626; stroke-width: 1.25"/>
      </defs>
      <g>
       <use xlink:href="#m4a2ca8849b" x="86.4" y="345.6" style="fill: #262626; stroke: #262626; stroke-width: 1.25"/>
      </g>
     </g>
     <g id="text_9">
      <text style="fill: #262626; font: 16px 'Arial', 'DejaVu Sans', 'Liberation Sans', 'Bitstream Vera Sans', sans-serif; text-anchor: end" x="76.9" y="351.32625" transform="rotate(-0 76.9 351.32625)">0.0</text>
     </g>
    </g>
    <g id="ytick_2">
     <g id="line2d_9">
      <g>
       <use xlink:href="#m4a2ca8849b" x="86.4" y="293.76" style="fill: #262626; stroke: #262626; stroke-width: 1.25"/>
      </g>
     </g>
     <g id="text_10">
      <text style="fill: #262626; font: 16px 'Arial', 'DejaVu Sans', 'Liberation Sans', 'Bitstream Vera Sans', sans-serif; text-anchor: end" x="76.9" y="299.48625" transform="rotate(-0 76.9 299.48625)">0.2</text>
     </g>
    </g>
    <g id="ytick_3">
     <g id="line2d_10">
      <g>
       <use xlink:href="#m4a2ca8849b" x="86.4" y="241.92" style="fill: #262626; stroke: #262626; stroke-width: 1.25"/>
      </g>
     </g>
     <g id="text_11">
      <text style="fill: #262626; font: 16px 'Arial', 'DejaVu Sans', 'Liberation Sans', 'Bitstream Vera Sans', sans-serif; text-anchor: end" x="76.9" y="247.64625" transform="rotate(-0 76.9 247.64625)">0.4</text>
     </g>
    </g>
    <g id="ytick_4">
     <g id="line2d_11">
      <g>
       <use xlink:href="#m4a2ca8849b" x="86.4" y="190.08" style="fill: #262626; stroke: #262626; stroke-width: 1.25"/>
      </g>
     </g>
     <g id="text_12">
      <text style="fill: #262626; font: 16px 'Arial', 'DejaVu Sans', 'Liberation Sans', 'Bitstream Vera Sans', sans-serif; text-anchor: end" x="76.9" y="195.80625" transform="rotate(-0 76.9 195.80625)">0.6</text>
     </g>
    </g>
    <g id="ytick_5">
     <g id="line2d_12">
      <g>
       <use xlink:href="#m4a2ca8849b" x="86.4" y="138.24" style="fill: #262626; stroke: #262626; stroke-width: 1.25"/>
      </g>
     </g>
     <g id="text_13">
      <text style="fill: #262626; font: 16px 'Arial', 'DejaVu Sans', 'Liberation Sans', 'Bitstream Vera Sans', sans-serif; text-anchor: end" x="76.9" y="143.96625" transform="rotate(-0 76.9 143.96625)">0.8</text>
     </g>
    </g>
    <g id="ytick_6">
     <g id="line2d_13">
      <g>
       <use xlink:href="#m4a2ca8849b" x="86.4" y="86.4" style="fill: #262626; stroke: #262626; stroke-width: 1.25"/>
      </g>
     </g>
     <g id="text_14">
      <text style="fill: #262626; font: 16px 'Arial', 'DejaVu Sans', 'Liberation Sans', 'Bitstream Vera Sans', sans-serif; text-anchor: end" x="76.9" y="92.12625" transform="rotate(-0 76.9 92.12625)">1.0</text>
     </g>
    </g>
    <g id="text_15">
     <text style="fill: #262626; font: 16px 'Arial', 'DejaVu Sans', 'Liberation Sans', 'Bitstream Vera Sans', sans-serif; text-anchor: middle" x="47.2925" y="216" transform="rotate(-90 47.2925 216)">Relative susceptibility</text>
    </g>
   </g>
   <g id="PolyCollection_1">
    <defs>
     <path id="m6ac943f7df" d="M 86.4 -345.593035 
L 86.4 -203.670247 
L 87.12 -204.073674 
L 87.84 -204.491939 
L 88.56 -204.92294 
L 89.28 -204.872001 
L 90 -102.934466 
L 90.72 -96.953748 
L 91.44 -95.438306 
L 92.16 -94.974562 
L 92.88 -94.854671 
L 93.6 -94.865159 
L 94.32 -94.900074 
L 95.04 -94.95711 
L 95.76 -95.020452 
L 96.48 -95.090653 
L 97.2 -95.165289 
L 97.92 -95.238152 
L 98.64 -95.314328 
L 99.36 -95.395907 
L 100.08 -95.509797 
L 100.8 -95.563759 
L 101.52 -95.682864 
L 102.24 -95.812412 
L 102.96 -95.940701 
L 103.68 -96.065259 
L 104.4 -96.126134 
L 105.12 -96.193703 
L 105.84 -96.249813 
L 106.56 -96.306036 
L 107.28 -96.371994 
L 108 -96.438751 
L 108.72 -96.493883 
L 109.44 -96.57165 
L 110.16 -96.666437 
L 110.88 -96.748419 
L 111.6 -96.805174 
L 112.32 -96.8489 
L 113.04 -96.885978 
L 113.76 -96.962328 
L 114.48 -97.013877 
L 115.2 -97.074056 
L 115.92 -97.207942 
L 116.64 -97.378131 
L 117.36 -97.534318 
L 118.08 -97.709283 
L 118.8 -97.885969 
L 119.52 -97.998581 
L 120.24 -98.107563 
L 120.96 -98.241699 
L 121.68 -98.470436 
L 122.4 -98.694125 
L 123.12 -98.941027 
L 123.84 -99.189692 
L 124.56 -99.432366 
L 125.28 -99.681257 
L 126 -99.776134 
L 126.72 -99.828252 
L 127.44 -99.898991 
L 128.16 -99.977638 
L 128.88 -100.03251 
L 129.6 -100.086693 
L 130.32 -100.163224 
L 131.04 -100.245119 
L 131.76 -100.377201 
L 132.48 -100.610649 
L 133.2 -100.83218 
L 133.92 -100.990722 
L 134.64 -101.117793 
L 135.36 -101.303463 
L 136.08 -101.498397 
L 136.8 -101.704844 
L 137.52 -101.923396 
L 138.24 -102.101775 
L 138.96 -102.343514 
L 139.68 -102.436898 
L 140.4 -102.535093 
L 141.12 -102.727113 
L 141.84 -102.924393 
L 142.56 -103.138638 
L 143.28 -103.363186 
L 144 -103.574293 
L 144.72 -103.787461 
L 145.44 -104.015831 
L 146.16 -104.252056 
L 146.88 -104.456261 
L 147.6 -104.620049 
L 148.32 -104.77745 
L 149.04 -104.902283 
L 149.76 -104.996124 
L 150.48 -105.095158 
L 151.2 -105.200634 
L 151.92 -105.309977 
L 152.64 -105.383859 
L 153.36 -105.48436 
L 154.08 -105.617652 
L 154.8 -105.727136 
L 155.52 -105.88623 
L 156.24 -106.023247 
L 156.96 -106.214288 
L 157.68 -106.372417 
L 158.4 -106.518323 
L 159.12 -106.69295 
L 159.84 -106.87594 
L 160.56 -107.033034 
L 161.28 -107.202572 
L 162 -107.390195 
L 162.72 -107.566791 
L 163.44 -107.737141 
L 164.16 -107.923504 
L 164.88 -108.172661 
L 165.6 -108.445881 
L 166.32 -108.687919 
L 167.04 -108.938319 
L 167.76 -109.161399 
L 168.48 -109.28967 
L 169.2 -109.437307 
L 169.92 -109.614203 
L 170.64 -109.781004 
L 171.36 -109.910628 
L 172.08 -110.061899 
L 172.8 -110.254188 
L 173.52 -110.463928 
L 174.24 -110.657499 
L 174.96 -110.864814 
L 175.68 -111.090017 
L 176.4 -111.307202 
L 177.12 -111.49821 
L 177.84 -111.708768 
L 178.56 -111.955412 
L 179.28 -112.208806 
L 180 -112.412692 
L 180.72 -112.627886 
L 181.44 -112.877782 
L 182.16 -113.213551 
L 182.88 -113.586101 
L 183.6 -113.922587 
L 184.32 -114.25181 
L 185.04 -114.617123 
L 185.76 -114.997062 
L 186.48 -115.346816 
L 187.2 -115.71078 
L 187.92 -116.097392 
L 188.64 -116.478963 
L 189.36 -116.657715 
L 190.08 -116.846165 
L 190.8 -117.020069 
L 191.52 -117.174147 
L 192.24 -117.351627 
L 192.96 -117.54998 
L 193.68 -117.723453 
L 194.4 -117.874567 
L 195.12 -118.060961 
L 195.84 -118.281064 
L 196.56 -118.526441 
L 197.28 -118.844634 
L 198 -119.205813 
L 198.72 -119.595463 
L 199.44 -119.913448 
L 200.16 -120.166156 
L 200.88 -120.448862 
L 201.6 -120.683913 
L 202.32 -120.891945 
L 203.04 -121.143345 
L 203.76 -121.412523 
L 204.48 -121.639067 
L 205.2 -121.879871 
L 205.92 -122.152877 
L 206.64 -122.431505 
L 207.36 -122.629737 
L 208.08 -122.887765 
L 208.8 -123.164962 
L 209.52 -123.415167 
L 210.24 -123.640016 
L 210.96 -123.904984 
L 211.68 -124.214721 
L 212.4 -124.500464 
L 213.12 -124.726047 
L 213.84 -124.989151 
L 214.56 -125.290093 
L 215.28 -125.554757 
L 216 -125.815487 
L 216.72 -126.106286 
L 217.44 -126.398047 
L 218.16 -126.662678 
L 218.88 -126.942843 
L 219.6 -127.250565 
L 220.32 -127.54671 
L 221.04 -127.799254 
L 221.76 -128.075334 
L 222.48 -128.406838 
L 223.2 -128.752635 
L 223.92 -129.021487 
L 224.64 -129.416065 
L 225.36 -129.672276 
L 226.08 -129.939209 
L 226.8 -130.217954 
L 227.52 -130.525892 
L 228.24 -130.852655 
L 228.96 -131.154793 
L 229.68 -131.462486 
L 230.4 -131.800282 
L 231.12 -132.293142 
L 231.84 -132.76459 
L 232.56 -133.251851 
L 233.28 -133.675194 
L 234 -134.020517 
L 234.72 -134.348523 
L 235.44 -134.593657 
L 236.16 -134.87618 
L 236.88 -135.20876 
L 237.6 -135.500712 
L 238.32 -135.780705 
L 239.04 -136.095139 
L 239.76 -136.413116 
L 240.48 -136.697306 
L 241.2 -136.999703 
L 241.92 -137.333647 
L 242.64 -137.659294 
L 243.36 -137.93035 
L 244.08 -138.310206 
L 244.8 -138.666058 
L 245.52 -139.068243 
L 246.24 -139.381915 
L 246.96 -139.734831 
L 247.68 -140.142452 
L 248.4 -140.508322 
L 249.12 -140.861905 
L 249.84 -141.080086 
L 250.56 -141.318093 
L 251.28 -141.612208 
L 252 -141.868503 
L 252.72 -142.196891 
L 253.44 -142.558076 
L 254.16 -142.866879 
L 254.88 -143.168527 
L 255.6 -143.535913 
L 256.32 -143.949543 
L 257.04 -144.293871 
L 257.76 -144.592486 
L 258.48 -144.959961 
L 259.2 -145.3552 
L 259.92 -145.688693 
L 260.64 -146.305994 
L 261.36 -146.929759 
L 262.08 -147.496354 
L 262.8 -147.82747 
L 263.52 -148.196542 
L 264.24 -148.578831 
L 264.96 -148.828603 
L 265.68 -148.984656 
L 266.4 -149.217624 
L 267.12 -149.486572 
L 267.84 -149.797761 
L 268.56 -150.111792 
L 269.28 -150.472733 
L 270 -150.892037 
L 270.72 -151.260736 
L 271.44 -151.619021 
L 272.16 -152.026735 
L 272.88 -152.43715 
L 273.6 -152.809716 
L 274.32 -153.389795 
L 275.04 -154.086468 
L 275.76 -154.472779 
L 276.48 -154.800915 
L 277.2 -155.188863 
L 277.92 -155.649041 
L 278.64 -156.080352 
L 279.36 -156.405658 
L 280.08 -156.78218 
L 280.8 -157.221208 
L 281.52 -157.60396 
L 282.24 -157.975019 
L 282.96 -158.389364 
L 283.68 -158.804244 
L 284.4 -159.177912 
L 285.12 -159.575768 
L 285.84 -160.011893 
L 286.56 -160.434185 
L 287.28 -160.787404 
L 288 -161.17428 
L 288.72 -161.645757 
L 289.44 -162.13646 
L 290.16 -162.507297 
L 290.88 -162.880892 
L 291.6 -163.334614 
L 292.32 -163.773305 
L 293.04 -164.160131 
L 293.76 -164.586579 
L 294.48 -165.045107 
L 295.2 -165.491017 
L 295.92 -165.913554 
L 296.64 -166.36939 
L 297.36 -166.854711 
L 298.08 -167.303878 
L 298.8 -167.697558 
L 299.52 -168.14887 
L 300.24 -168.68524 
L 300.96 -169.216164 
L 301.68 -169.615497 
L 302.4 -170.045071 
L 303.12 -170.553909 
L 303.84 -171.022765 
L 304.56 -171.460999 
L 305.28 -171.942004 
L 306 -172.433215 
L 306.72 -172.881209 
L 307.44 -173.347236 
L 308.16 -173.851858 
L 308.88 -174.353466 
L 309.6 -174.781311 
L 310.32 -175.222914 
L 311.04 -175.755657 
L 311.76 -176.341208 
L 312.48 -176.826818 
L 313.2 -177.326993 
L 313.92 -178.011107 
L 314.64 -178.66014 
L 315.36 -179.318829 
L 316.08 -180.025064 
L 316.8 -180.776651 
L 317.52 -181.314589 
L 318.24 -181.65815 
L 318.96 -182.021655 
L 319.68 -182.296053 
L 320.4 -182.601874 
L 321.12 -182.956603 
L 321.84 -183.273755 
L 322.56 -183.803042 
L 323.28 -184.383317 
L 324 -184.879897 
L 324.72 -185.572634 
L 325.44 -186.043578 
L 326.16 -186.588735 
L 326.88 -187.25286 
L 327.6 -187.887823 
L 328.32 -188.552693 
L 329.04 -189.224348 
L 329.76 -189.874781 
L 330.48 -190.536256 
L 331.2 -191.216292 
L 331.92 -191.898934 
L 332.64 -192.547343 
L 333.36 -193.172865 
L 334.08 -193.840786 
L 334.8 -194.56879 
L 335.52 -195.328658 
L 336.24 -196.040136 
L 336.96 -196.647942 
L 337.68 -197.306464 
L 338.4 -198.029168 
L 339.12 -198.700419 
L 339.84 -199.373234 
L 340.56 -200.074218 
L 341.28 -200.76579 
L 342 -201.444804 
L 342.72 -201.900096 
L 343.44 -202.311225 
L 344.16 -202.813905 
L 344.88 -203.293512 
L 344.88 -345.59279 
L 344.88 -345.59279 
L 344.16 -345.592517 
L 343.44 -345.592246 
L 342.72 -345.591955 
L 342 -345.591645 
L 341.28 -345.591341 
L 340.56 -345.591019 
L 339.84 -345.590673 
L 339.12 -345.590329 
L 338.4 -345.590016 
L 337.68 -345.589734 
L 336.96 -345.589429 
L 336.24 -345.58911 
L 335.52 -345.588804 
L 334.8 -345.588478 
L 334.08 -345.588127 
L 333.36 -345.587787 
L 332.64 -345.587439 
L 331.92 -345.58706 
L 331.2 -345.586634 
L 330.48 -345.586128 
L 329.76 -345.585588 
L 329.04 -345.585058 
L 328.32 -345.584497 
L 327.6 -345.583893 
L 326.88 -345.583295 
L 326.16 -345.582673 
L 325.44 -345.582 
L 324.72 -345.581323 
L 324 -345.580634 
L 323.28 -345.579885 
L 322.56 -345.579119 
L 321.84 -345.578352 
L 321.12 -345.577521 
L 320.4 -345.576655 
L 319.68 -345.5758 
L 318.96 -345.57488 
L 318.24 -345.573901 
L 317.52 -345.57294 
L 316.8 -345.571917 
L 316.08 -345.570818 
L 315.36 -345.569735 
L 314.64 -345.568602 
L 313.92 -345.567375 
L 313.2 -345.56615 
L 312.48 -345.564894 
L 311.76 -345.563528 
L 311.04 -345.56214 
L 310.32 -345.560744 
L 309.6 -345.559228 
L 308.88 -345.557657 
L 308.16 -345.556101 
L 307.44 -345.55442 
L 306.72 -345.552647 
L 306 -345.550906 
L 305.28 -345.549045 
L 304.56 -345.547052 
L 303.84 -345.545094 
L 303.12 -345.543032 
L 302.4 -345.540804 
L 301.68 -345.538591 
L 300.96 -345.536306 
L 300.24 -345.534184 
L 299.52 -345.532101 
L 298.8 -345.529836 
L 298.08 -345.527554 
L 297.36 -345.525287 
L 296.64 -345.522825 
L 295.92 -345.520264 
L 295.2 -345.517776 
L 294.48 -345.515111 
L 293.76 -345.512012 
L 293.04 -345.508625 
L 292.32 -345.505187 
L 291.6 -345.501447 
L 290.88 -345.497607 
L 290.16 -345.493773 
L 289.44 -345.489614 
L 288.72 -345.485266 
L 288 -345.480977 
L 287.28 -345.476357 
L 286.56 -345.47145 
L 285.84 -345.466632 
L 285.12 -345.461503 
L 284.4 -345.455988 
L 283.68 -345.450552 
L 282.96 -345.444857 
L 282.24 -345.438687 
L 281.52 -345.43253 
L 280.8 -345.4262 
L 280.08 -345.419315 
L 279.36 -345.412336 
L 278.64 -345.405287 
L 277.92 -345.397601 
L 277.2 -345.389668 
L 276.48 -345.381756 
L 275.76 -345.373189 
L 275.04 -345.364212 
L 274.32 -345.355352 
L 273.6 -345.345831 
L 272.88 -345.335704 
L 272.16 -345.325744 
L 271.44 -345.315167 
L 270.72 -345.303794 
L 270 -345.292547 
L 269.28 -345.280794 
L 268.56 -345.268069 
L 267.84 -345.255332 
L 267.12 -345.242259 
L 266.4 -345.228059 
L 265.68 -345.213622 
L 264.96 -345.199657 
L 264.24 -345.185216 
L 263.52 -345.171053 
L 262.8 -345.156357 
L 262.08 -345.14041 
L 261.36 -345.124449 
L 260.64 -345.10833 
L 259.92 -345.090806 
L 259.2 -345.072814 
L 258.48 -345.055796 
L 257.76 -345.041513 
L 257.04 -345.026106 
L 256.32 -345.011132 
L 255.6 -344.996044 
L 254.88 -344.979316 
L 254.16 -344.955185 
L 253.44 -344.936753 
L 252.72 -344.920425 
L 252 -344.905017 
L 251.28 -344.888725 
L 250.56 -344.871083 
L 249.84 -344.854017 
L 249.12 -344.837026 
L 248.4 -344.818297 
L 247.68 -344.797645 
L 246.96 -344.776029 
L 246.24 -344.755483 
L 245.52 -344.733754 
L 244.8 -344.704151 
L 244.08 -344.666533 
L 243.36 -344.629198 
L 242.64 -344.588938 
L 241.92 -344.546241 
L 241.2 -344.50406 
L 240.48 -344.458913 
L 239.76 -344.410563 
L 239.04 -344.362794 
L 238.32 -344.312173 
L 237.6 -344.25758 
L 236.88 -344.203351 
L 236.16 -344.146581 
L 235.44 -344.08507 
L 234.72 -344.023437 
L 234 -343.959734 
L 233.28 -343.890389 
L 232.56 -343.819969 
L 231.84 -343.752257 
L 231.12 -343.689915 
L 230.4 -343.635547 
L 229.68 -343.578917 
L 228.96 -343.51745 
L 228.24 -343.456629 
L 227.52 -343.395968 
L 226.8 -343.329949 
L 226.08 -343.261871 
L 225.36 -343.196196 
L 224.64 -343.125747 
L 223.92 -343.05052 
L 223.2 -342.978179 
L 222.48 -342.903092 
L 221.76 -342.821529 
L 221.04 -342.740582 
L 220.32 -342.660162 
L 219.6 -342.572714 
L 218.88 -342.482237 
L 218.16 -342.395113 
L 217.44 -342.301925 
L 216.72 -342.202263 
L 216 -342.106148 
L 215.28 -342.006901 
L 214.56 -341.899117 
L 213.84 -341.791611 
L 213.12 -341.68531 
L 212.4 -341.569981 
L 211.68 -341.450108 
L 210.96 -341.334826 
L 210.24 -341.176514 
L 209.52 -341.014972 
L 208.8 -340.84633 
L 208.08 -340.664062 
L 207.36 -340.482217 
L 206.64 -340.29595 
L 205.92 -340.094066 
L 205.2 -339.889258 
L 204.48 -339.683273 
L 203.76 -339.460282 
L 203.04 -339.229893 
L 202.32 -339.001676 
L 201.6 -338.75588 
L 200.88 -338.497491 
L 200.16 -338.243913 
L 199.44 -337.973411 
L 198.72 -337.765749 
L 198 -337.573138 
L 197.28 -337.36328 
L 196.56 -337.150982 
L 195.84 -336.947014 
L 195.12 -336.727458 
L 194.4 -336.494412 
L 193.68 -336.273028 
L 192.96 -336.042554 
L 192.24 -335.792336 
L 191.52 -335.544554 
L 190.8 -335.302287 
L 190.08 -335.039744 
L 189.36 -334.765729 
L 188.64 -334.505954 
L 187.92 -334.232579 
L 187.2 -333.937959 
L 186.48 -333.651252 
L 185.76 -333.365681 
L 185.04 -332.984072 
L 184.32 -332.558461 
L 183.6 -332.098585 
L 182.88 -331.635025 
L 182.16 -331.166289 
L 181.44 -330.659858 
L 180.72 -330.200536 
L 180 -329.8264 
L 179.28 -329.245892 
L 178.56 -328.589225 
L 177.84 -327.934413 
L 177.12 -327.347231 
L 176.4 -326.747737 
L 175.68 -326.091761 
L 174.96 -325.45536 
L 174.24 -324.770066 
L 173.52 -324.087777 
L 172.8 -323.400082 
L 172.08 -322.658668 
L 171.36 -322.087992 
L 170.64 -321.591438 
L 169.92 -321.056859 
L 169.2 -320.513344 
L 168.48 -319.572926 
L 167.76 -319.134565 
L 167.04 -318.659819 
L 166.32 -318.189468 
L 165.6 -317.284755 
L 164.88 -316.920558 
L 164.16 -316.561562 
L 163.44 -316.218009 
L 162.72 -315.540734 
L 162 -314.384223 
L 161.28 -313.247315 
L 160.56 -312.903164 
L 159.84 -312.699395 
L 159.12 -312.445173 
L 158.4 -311.981112 
L 157.68 -311.33038 
L 156.96 -310.642115 
L 156.24 -309.886633 
L 155.52 -308.88544 
L 154.8 -308.39335 
L 154.08 -307.369182 
L 153.36 -306.79983 
L 152.64 -306.250462 
L 151.92 -305.679707 
L 151.2 -305.070973 
L 150.48 -304.405782 
L 149.76 -303.899397 
L 149.04 -303.153553 
L 148.32 -302.290319 
L 147.6 -301.446077 
L 146.88 -300.632157 
L 146.16 -299.844919 
L 145.44 -299.074164 
L 144.72 -298.232979 
L 144 -297.80711 
L 143.28 -296.629857 
L 142.56 -295.803882 
L 141.84 -295.074065 
L 141.12 -294.177782 
L 140.4 -293.624813 
L 139.68 -293.025352 
L 138.96 -291.613176 
L 138.24 -290.700908 
L 137.52 -289.776985 
L 136.8 -288.51237 
L 136.08 -287.211484 
L 135.36 -286.075968 
L 134.64 -285.055817 
L 133.92 -283.681605 
L 133.2 -282.405412 
L 132.48 -281.352034 
L 131.76 -280.054805 
L 131.04 -279.292679 
L 130.32 -278.16508 
L 129.6 -276.630308 
L 128.88 -275.682347 
L 128.16 -274.757612 
L 127.44 -273.850924 
L 126.72 -272.86203 
L 126 -271.841828 
L 125.28 -270.740766 
L 124.56 -269.668054 
L 123.84 -268.480585 
L 123.12 -267.268702 
L 122.4 -266.516627 
L 121.68 -265.918938 
L 120.96 -265.251496 
L 120.24 -264.515672 
L 119.52 -263.606558 
L 118.8 -262.434557 
L 118.08 -261.393255 
L 117.36 -260.467088 
L 116.64 -259.599833 
L 115.92 -258.598888 
L 115.2 -257.566419 
L 114.48 -257.044241 
L 113.76 -256.682851 
L 113.04 -255.551724 
L 112.32 -254.189336 
L 111.6 -253.361185 
L 110.88 -252.715793 
L 110.16 -252.104193 
L 109.44 -250.914248 
L 108.72 -250.092505 
L 108 -248.360354 
L 107.28 -247.01607 
L 106.56 -246.157182 
L 105.84 -245.409516 
L 105.12 -244.735417 
L 104.4 -243.972722 
L 103.68 -243.162186 
L 102.96 -242.401297 
L 102.24 -241.693103 
L 101.52 -240.953555 
L 100.8 -240.035018 
L 100.08 -239.282431 
L 99.36 -238.524826 
L 98.64 -237.650728 
L 97.92 -236.611278 
L 97.2 -235.582338 
L 96.48 -234.593366 
L 95.76 -233.675984 
L 95.04 -232.92504 
L 94.32 -232.548452 
L 93.6 -232.33437 
L 92.88 -232.504117 
L 92.16 -233.631648 
L 91.44 -237.055636 
L 90.72 -246.534329 
L 90 -274.106266 
L 89.28 -345.593891 
L 88.56 -345.593688 
L 87.84 -345.593478 
L 87.12 -345.593261 
L 86.4 -345.593035 
z
" style="stroke: #ffffff; stroke-opacity: 0.5"/>
    </defs>
    <g clip-path="url(#pfe288b8e55)">
     <use xlink:href="#m6ac943f7df" x="0" y="432" style="fill: #4c72b0; fill-opacity: 0.5; stroke: #ffffff; stroke-opacity: 0.5"/>
    </g>
   </g>
   <g id="line2d_14">
    <path d="M 86.4 108.821723 
L 89.28 108.140024 
L 90 259.276552 
L 90.72 281.544064 
L 91.44 287.784176 
L 92.16 289.844118 
L 92.88 290.446087 
L 93.6 290.462352 
L 95.04 289.919836 
L 97.92 288.352995 
L 103.68 284.886757 
L 112.32 279.074425 
L 123.12 270.7864 
L 135.36 260.098768 
L 138.96 256.76449 
L 145.44 250.506084 
L 163.44 232.160832 
L 175.68 219.332966 
L 183.6 211.065793 
L 191.52 202.929182 
L 200.16 194.262405 
L 205.92 188.641399 
L 212.4 182.492572 
L 221.76 174.029022 
L 228.24 168.435218 
L 235.44 162.524359 
L 243.36 156.40272 
L 251.28 150.66783 
L 259.2 145.331483 
L 267.12 140.393308 
L 274.32 136.2312 
L 280.8 132.742901 
L 287.28 129.490152 
L 295.2 125.813062 
L 303.84 122.161734 
L 311.04 119.380629 
L 318.24 116.816599 
L 326.16 114.235749 
L 334.08 111.882664 
L 342 109.734724 
L 344.88 109.000742 
L 344.88 109.000742 
" clip-path="url(#pfe288b8e55)" style="fill: none; stroke: #4c72b0; stroke-width: 2; stroke-linecap: round"/>
   </g>
   <g id="patch_3">
    <path d="M 86.4 345.6 
L 86.4 86.4 
" style="fill: none; stroke: #262626; stroke-width: 1.25; stroke-linejoin: miter; stroke-linecap: square"/>
   </g>
   <g id="patch_4">
    <path d="M 86.4 345.6 
L 345.6 345.6 
" style="fill: none; stroke: #262626; stroke-width: 1.25; stroke-linejoin: miter; stroke-linecap: square"/>
   </g>
  </g>
 </g>
 <defs>
  <clipPath id="pfe288b8e55">
   <rect x="86.4" y="86.4" width="259.2" height="259.2"/>
  </clipPath>
 </defs>
</svg>
