<?xml version="1.0" encoding="utf-8" standalone="no"?>
<!DOCTYPE svg PUBLIC "-//W3C//DTD SVG 1.1//EN"
  "http://www.w3.org/Graphics/SVG/1.1/DTD/svg11.dtd">
<svg xmlns:xlink="http://www.w3.org/1999/xlink" width="432pt" height="432pt" viewBox="0 0 432 432" xmlns="http://www.w3.org/2000/svg" version="1.1">
 <metadata>
  <rdf:RDF xmlns:dc="http://purl.org/dc/elements/1.1/" xmlns:cc="http://creativecommons.org/ns#" xmlns:rdf="http://www.w3.org/1999/02/22-rdf-syntax-ns#">
   <cc:Work>
    <dc:type rdf:resource="http://purl.org/dc/dcmitype/StillImage"/>
    <dc:date>2024-05-17T14:07:33.145480</dc:date>
    <dc:format>image/svg+xml</dc:format>
    <dc:creator>
     <cc:Agent>
      <dc:title>Matplotlib v3.8.4, https://matplotlib.org/</dc:title>
     </cc:Agent>
    </dc:creator>
   </cc:Work>
  </rdf:RDF>
 </metadata>
 <defs>
  <style type="text/css">*{stroke-linejoin: round; stroke-linecap: butt}</style>
 </defs>
 <g id="figure_1">
  <g id="patch_1">
   <path d="M 0 432 
L 432 432 
L 432 0 
L 0 0 
L 0 432 
z
" style="fill: none"/>
  </g>
  <g id="axes_1">
   <g id="patch_2">
    <path d="M 86.4 345.6 
L 345.6 345.6 
L 345.6 86.4 
L 86.4 86.4 
L 86.4 345.6 
z
" style="fill: none"/>
   </g>
   <g id="matplotlib.axis_1">
    <g id="xtick_1">
     <g id="line2d_1">
      <defs>
       <path id="md9c97096d6" d="M 0 0 
L 0 6 
" style="stroke: #262626; stroke-width: 1.25"/>
      </defs>
      <g>
       <use xlink:href="#md9c97096d6" x="86.4" y="345.6" style="fill: #262626; stroke: #262626; stroke-width: 1.25"/>
      </g>
     </g>
     <g id="text_1">
      <text style="fill: #262626; font: 16px 'Arial', 'DejaVu Sans', 'Liberation Sans', 'Bitstream Vera Sans', sans-serif; text-anchor: middle" x="86.4" y="366.5525" transform="rotate(-0 86.4 366.5525)">0</text>
     </g>
    </g>
    <g id="xtick_2">
     <g id="line2d_2">
      <g>
       <use xlink:href="#md9c97096d6" x="129.6" y="345.6" style="fill: #262626; stroke: #262626; stroke-width: 1.25"/>
      </g>
     </g>
     <g id="text_2">
      <text style="fill: #262626; font: 16px 'Arial', 'DejaVu Sans', 'Liberation Sans', 'Bitstream Vera Sans', sans-serif; text-anchor: middle" x="129.6" y="366.5525" transform="rotate(-0 129.6 366.5525)">60</text>
     </g>
    </g>
    <g id="xtick_3">
     <g id="line2d_3">
      <g>
       <use xlink:href="#md9c97096d6" x="172.8" y="345.6" style="fill: #262626; stroke: #262626; stroke-width: 1.25"/>
      </g>
     </g>
     <g id="text_3">
      <text style="fill: #262626; font: 16px 'Arial', 'DejaVu Sans', 'Liberation Sans', 'Bitstream Vera Sans', sans-serif; text-anchor: middle" x="172.8" y="366.5525" transform="rotate(-0 172.8 366.5525)">120</text>
     </g>
    </g>
    <g id="xtick_4">
     <g id="line2d_4">
      <g>
       <use xlink:href="#md9c97096d6" x="216" y="345.6" style="fill: #262626; stroke: #262626; stroke-width: 1.25"/>
      </g>
     </g>
     <g id="text_4">
      <text style="fill: #262626; font: 16px 'Arial', 'DejaVu Sans', 'Liberation Sans', 'Bitstream Vera Sans', sans-serif; text-anchor: middle" x="216" y="366.5525" transform="rotate(-0 216 366.5525)">180</text>
     </g>
    </g>
    <g id="xtick_5">
     <g id="line2d_5">
      <g>
       <use xlink:href="#md9c97096d6" x="259.2" y="345.6" style="fill: #262626; stroke: #262626; stroke-width: 1.25"/>
      </g>
     </g>
     <g id="text_5">
      <text style="fill: #262626; font: 16px 'Arial', 'DejaVu Sans', 'Liberation Sans', 'Bitstream Vera Sans', sans-serif; text-anchor: middle" x="259.2" y="366.5525" transform="rotate(-0 259.2 366.5525)">240</text>
     </g>
    </g>
    <g id="xtick_6">
     <g id="line2d_6">
      <g>
       <use xlink:href="#md9c97096d6" x="302.4" y="345.6" style="fill: #262626; stroke: #262626; stroke-width: 1.25"/>
      </g>
     </g>
     <g id="text_6">
      <text style="fill: #262626; font: 16px 'Arial', 'DejaVu Sans', 'Liberation Sans', 'Bitstream Vera Sans', sans-serif; text-anchor: middle" x="302.4" y="366.5525" transform="rotate(-0 302.4 366.5525)">300</text>
     </g>
    </g>
    <g id="xtick_7">
     <g id="line2d_7">
      <g>
       <use xlink:href="#md9c97096d6" x="345.6" y="345.6" style="fill: #262626; stroke: #262626; stroke-width: 1.25"/>
      </g>
     </g>
     <g id="text_7">
      <text style="fill: #262626; font: 16px 'Arial', 'DejaVu Sans', 'Liberation Sans', 'Bitstream Vera Sans', sans-serif; text-anchor: middle" x="345.6" y="366.5525" transform="rotate(-0 345.6 366.5525)">360</text>
     </g>
    </g>
    <g id="text_8">
     <text style="fill: #262626; font: 16px 'Arial', 'DejaVu Sans', 'Liberation Sans', 'Bitstream Vera Sans', sans-serif; text-anchor: middle" x="216" y="385.38" transform="rotate(-0 216 385.38)">Time since vaccination (days)</text>
    </g>
   </g>
   <g id="matplotlib.axis_2">
    <g id="ytick_1">
     <g id="line2d_8">
      <defs>
       <path id="m68197e8d95" d="M 0 0 
L -6 0 
" style="stroke: #262626; stroke-width: 1.25"/>
      </defs>
      <g>
       <use xlink:href="#m68197e8d95" x="86.4" y="345.6" style="fill: #262626; stroke: #262626; stroke-width: 1.25"/>
      </g>
     </g>
     <g id="text_9">
      <text style="fill: #262626; font: 16px 'Arial', 'DejaVu Sans', 'Liberation Sans', 'Bitstream Vera Sans', sans-serif; text-anchor: end" x="76.9" y="351.32625" transform="rotate(-0 76.9 351.32625)">0.0</text>
     </g>
    </g>
    <g id="ytick_2">
     <g id="line2d_9">
      <g>
       <use xlink:href="#m68197e8d95" x="86.4" y="293.76" style="fill: #262626; stroke: #262626; stroke-width: 1.25"/>
      </g>
     </g>
     <g id="text_10">
      <text style="fill: #262626; font: 16px 'Arial', 'DejaVu Sans', 'Liberation Sans', 'Bitstream Vera Sans', sans-serif; text-anchor: end" x="76.9" y="299.48625" transform="rotate(-0 76.9 299.48625)">0.2</text>
     </g>
    </g>
    <g id="ytick_3">
     <g id="line2d_10">
      <g>
       <use xlink:href="#m68197e8d95" x="86.4" y="241.92" style="fill: #262626; stroke: #262626; stroke-width: 1.25"/>
      </g>
     </g>
     <g id="text_11">
      <text style="fill: #262626; font: 16px 'Arial', 'DejaVu Sans', 'Liberation Sans', 'Bitstream Vera Sans', sans-serif; text-anchor: end" x="76.9" y="247.64625" transform="rotate(-0 76.9 247.64625)">0.4</text>
     </g>
    </g>
    <g id="ytick_4">
     <g id="line2d_11">
      <g>
       <use xlink:href="#m68197e8d95" x="86.4" y="190.08" style="fill: #262626; stroke: #262626; stroke-width: 1.25"/>
      </g>
     </g>
     <g id="text_12">
      <text style="fill: #262626; font: 16px 'Arial', 'DejaVu Sans', 'Liberation Sans', 'Bitstream Vera Sans', sans-serif; text-anchor: end" x="76.9" y="195.80625" transform="rotate(-0 76.9 195.80625)">0.6</text>
     </g>
    </g>
    <g id="ytick_5">
     <g id="line2d_12">
      <g>
       <use xlink:href="#m68197e8d95" x="86.4" y="138.24" style="fill: #262626; stroke: #262626; stroke-width: 1.25"/>
      </g>
     </g>
     <g id="text_13">
      <text style="fill: #262626; font: 16px 'Arial', 'DejaVu Sans', 'Liberation Sans', 'Bitstream Vera Sans', sans-serif; text-anchor: end" x="76.9" y="143.96625" transform="rotate(-0 76.9 143.96625)">0.8</text>
     </g>
    </g>
    <g id="ytick_6">
     <g id="line2d_13">
      <g>
       <use xlink:href="#m68197e8d95" x="86.4" y="86.4" style="fill: #262626; stroke: #262626; stroke-width: 1.25"/>
      </g>
     </g>
     <g id="text_14">
      <text style="fill: #262626; font: 16px 'Arial', 'DejaVu Sans', 'Liberation Sans', 'Bitstream Vera Sans', sans-serif; text-anchor: end" x="76.9" y="92.12625" transform="rotate(-0 76.9 92.12625)">1.0</text>
     </g>
    </g>
    <g id="text_15">
     <text style="fill: #262626; font: 16px 'Arial', 'DejaVu Sans', 'Liberation Sans', 'Bitstream Vera Sans', sans-serif; text-anchor: middle" x="47.2925" y="216" transform="rotate(-90 47.2925 216)">Relative susceptibility</text>
    </g>
   </g>
   <g id="PolyCollection_1">
    <defs>
     <path id="m9ad364b58a" d="M 86.4 -345.6 
L 86.4 -345.6 
L 87.12 -345.6 
L 87.84 -345.6 
L 88.56 -345.6 
L 89.28 -345.6 
L 90 -102.625115 
L 90.72 -96.011238 
L 91.44 -94.560407 
L 92.16 -94.122962 
L 92.88 -94.00605 
L 93.6 -94.014455 
L 94.32 -94.049241 
L 95.04 -94.099323 
L 95.76 -94.159494 
L 96.48 -94.22582 
L 97.2 -94.292339 
L 97.92 -94.36291 
L 98.64 -94.435582 
L 99.36 -94.508172 
L 100.08 -94.615461 
L 100.8 -94.670942 
L 101.52 -94.777797 
L 102.24 -94.898518 
L 102.96 -95.0183 
L 103.68 -95.136067 
L 104.4 -95.199506 
L 105.12 -95.252324 
L 105.84 -95.300295 
L 106.56 -95.360978 
L 107.28 -95.430359 
L 108 -95.484329 
L 108.72 -95.53195 
L 109.44 -95.609854 
L 110.16 -95.712316 
L 110.88 -95.782185 
L 111.6 -95.817252 
L 112.32 -95.86868 
L 113.04 -95.921186 
L 113.76 -95.963771 
L 114.48 -96.023936 
L 115.2 -96.094744 
L 115.92 -96.207699 
L 116.64 -96.367729 
L 117.36 -96.514832 
L 118.08 -96.679518 
L 118.8 -96.84442 
L 119.52 -96.942905 
L 120.24 -97.056218 
L 120.96 -97.18703 
L 121.68 -97.394291 
L 122.4 -97.610753 
L 123.12 -97.851584 
L 123.84 -98.085701 
L 124.56 -98.304055 
L 125.28 -98.540806 
L 126 -98.634682 
L 126.72 -98.706205 
L 127.44 -98.751612 
L 128.16 -98.808774 
L 128.88 -98.882286 
L 129.6 -98.943121 
L 130.32 -98.997353 
L 131.04 -99.064303 
L 131.76 -99.188309 
L 132.48 -99.421791 
L 133.2 -99.660844 
L 133.92 -99.791957 
L 134.64 -99.911075 
L 135.36 -100.084553 
L 136.08 -100.271615 
L 136.8 -100.468389 
L 137.52 -100.676353 
L 138.24 -100.858983 
L 138.96 -101.070939 
L 139.68 -101.174782 
L 140.4 -101.275971 
L 141.12 -101.454869 
L 141.84 -101.636343 
L 142.56 -101.834535 
L 143.28 -102.041877 
L 144 -102.261453 
L 144.72 -102.463049 
L 145.44 -102.679897 
L 146.16 -102.903672 
L 146.88 -103.088374 
L 147.6 -103.253986 
L 148.32 -103.421088 
L 149.04 -103.511916 
L 149.76 -103.61582 
L 150.48 -103.729858 
L 151.2 -103.829351 
L 151.92 -103.901206 
L 152.64 -103.992533 
L 153.36 -104.114091 
L 154.08 -104.238392 
L 154.8 -104.308454 
L 155.52 -104.463976 
L 156.24 -104.63627 
L 156.96 -104.776476 
L 157.68 -104.916413 
L 158.4 -105.080915 
L 159.12 -105.26762 
L 159.84 -105.432643 
L 160.56 -105.576785 
L 161.28 -105.74647 
L 162 -105.935318 
L 162.72 -106.09866 
L 163.44 -106.264666 
L 164.16 -106.45002 
L 164.88 -106.688828 
L 165.6 -106.944678 
L 166.32 -107.181846 
L 167.04 -107.436434 
L 167.76 -107.655323 
L 168.48 -107.775049 
L 169.2 -107.919115 
L 169.92 -108.086103 
L 170.64 -108.227304 
L 171.36 -108.366061 
L 172.08 -108.524975 
L 172.8 -108.710433 
L 173.52 -108.907653 
L 174.24 -109.094762 
L 174.96 -109.303154 
L 175.68 -109.519885 
L 176.4 -109.714497 
L 177.12 -109.916578 
L 177.84 -110.140488 
L 178.56 -110.366802 
L 179.28 -110.56666 
L 180 -110.774852 
L 180.72 -111.018252 
L 181.44 -111.275127 
L 182.16 -111.578292 
L 182.88 -111.937762 
L 183.6 -112.287109 
L 184.32 -112.607273 
L 185.04 -112.948895 
L 185.76 -113.32083 
L 186.48 -113.679136 
L 187.2 -114.028689 
L 187.92 -114.399441 
L 188.64 -114.783469 
L 189.36 -114.996191 
L 190.08 -115.134874 
L 190.8 -115.29194 
L 191.52 -115.485623 
L 192.24 -115.65967 
L 192.96 -115.813819 
L 193.68 -115.99465 
L 194.4 -116.186171 
L 195.12 -116.349166 
L 195.84 -116.518373 
L 196.56 -116.811073 
L 197.28 -117.131763 
L 198 -117.474774 
L 198.72 -117.824445 
L 199.44 -118.159735 
L 200.16 -118.449171 
L 200.88 -118.682124 
L 201.6 -118.885042 
L 202.32 -119.129525 
L 203.04 -119.395214 
L 203.76 -119.619153 
L 204.48 -119.853004 
L 205.2 -120.113055 
L 205.92 -120.380309 
L 206.64 -120.627224 
L 207.36 -120.845297 
L 208.08 -121.116499 
L 208.8 -121.365686 
L 209.52 -121.586152 
L 210.24 -121.843763 
L 210.96 -122.146656 
L 211.68 -122.430276 
L 212.4 -122.652682 
L 213.12 -122.909982 
L 213.84 -123.206396 
L 214.56 -123.466295 
L 215.28 -123.722372 
L 216 -124.007383 
L 216.72 -124.296858 
L 217.44 -124.55826 
L 218.16 -124.834417 
L 218.88 -125.138252 
L 219.6 -125.434335 
L 220.32 -125.683304 
L 221.04 -125.955203 
L 221.76 -126.281954 
L 222.48 -126.618283 
L 223.2 -126.885279 
L 223.92 -127.162075 
L 224.64 -127.645488 
L 225.36 -127.817517 
L 226.08 -128.076448 
L 226.8 -128.381062 
L 227.52 -128.703833 
L 228.24 -128.99796 
L 228.96 -129.302013 
L 229.68 -129.635217 
L 230.4 -129.978437 
L 231.12 -130.447501 
L 231.84 -130.963433 
L 232.56 -131.446873 
L 233.28 -131.918211 
L 234 -132.166298 
L 234.72 -132.439314 
L 235.44 -132.766957 
L 236.16 -133.066886 
L 236.88 -133.338008 
L 237.6 -133.644626 
L 238.32 -133.968423 
L 239.04 -134.251891 
L 239.76 -134.543151 
L 240.48 -134.871264 
L 241.2 -135.204505 
L 241.92 -135.480604 
L 242.64 -135.765735 
L 243.36 -136.115472 
L 244.08 -136.531415 
L 244.8 -136.873119 
L 245.52 -137.186792 
L 246.24 -137.541098 
L 246.96 -137.948835 
L 247.68 -138.314071 
L 248.4 -138.667361 
L 249.12 -139.057341 
L 249.84 -139.278408 
L 250.56 -139.49705 
L 251.28 -139.789231 
L 252 -140.080179 
L 252.72 -140.394147 
L 253.44 -140.690789 
L 254.16 -141.051504 
L 254.88 -141.460349 
L 255.6 -141.805256 
L 256.32 -142.100892 
L 257.04 -142.458629 
L 257.76 -142.851622 
L 258.48 -143.185812 
L 259.2 -143.533303 
L 259.92 -143.92096 
L 260.64 -144.545226 
L 261.36 -145.164922 
L 262.08 -145.730764 
L 262.8 -146.119869 
L 263.52 -146.46199 
L 264.24 -146.769885 
L 264.96 -147.062847 
L 265.68 -147.294446 
L 266.4 -147.481087 
L 267.12 -147.706847 
L 267.84 -147.991001 
L 268.56 -148.412826 
L 269.28 -148.785264 
L 270 -149.141478 
L 270.72 -149.541054 
L 271.44 -149.9468 
L 272.16 -150.317736 
L 272.88 -150.711309 
L 273.6 -151.144913 
L 274.32 -151.719372 
L 275.04 -152.381561 
L 275.76 -152.757776 
L 276.48 -153.211028 
L 277.2 -153.654802 
L 277.92 -153.987672 
L 278.64 -154.359586 
L 279.36 -154.801422 
L 280.08 -155.199593 
L 280.8 -155.566191 
L 281.52 -155.979247 
L 282.24 -156.409259 
L 282.96 -156.786654 
L 283.68 -157.178485 
L 284.4 -157.616243 
L 285.12 -158.055373 
L 285.84 -158.419387 
L 286.56 -158.800101 
L 287.28 -159.265239 
L 288 -159.761501 
L 288.72 -160.145312 
L 289.44 -160.519722 
L 290.16 -160.975586 
L 290.88 -161.431037 
L 291.6 -161.818236 
L 292.32 -162.243967 
L 293.04 -162.706317 
L 293.76 -163.128673 
L 294.48 -163.552709 
L 295.2 -164.014513 
L 295.92 -164.510346 
L 296.64 -164.96504 
L 297.36 -165.365175 
L 298.08 -165.82792 
L 298.8 -166.373163 
L 299.52 -166.895366 
L 300.24 -167.29425 
L 300.96 -167.743796 
L 301.68 -168.267314 
L 302.4 -168.73438 
L 303.12 -169.179588 
L 303.84 -169.673307 
L 304.56 -170.174414 
L 305.28 -170.6256 
L 306 -171.099463 
L 306.72 -171.617303 
L 307.44 -172.127434 
L 308.16 -172.558623 
L 308.88 -173.016066 
L 309.6 -173.567062 
L 310.32 -174.151708 
L 311.04 -174.610969 
L 311.76 -175.058686 
L 312.48 -175.593871 
L 313.2 -176.140455 
L 313.92 -176.847952 
L 314.64 -177.567108 
L 315.36 -178.263235 
L 316.08 -178.927363 
L 316.8 -179.62007 
L 317.52 -180.349801 
L 318.24 -180.608686 
L 318.96 -180.907675 
L 319.68 -181.287422 
L 320.4 -181.620208 
L 321.12 -181.907885 
L 321.84 -182.339508 
L 322.56 -182.779688 
L 323.28 -183.299106 
L 324 -183.939674 
L 324.72 -184.619478 
L 325.44 -185.074176 
L 326.16 -185.647117 
L 326.88 -186.362204 
L 327.6 -187.031001 
L 328.32 -187.689415 
L 329.04 -188.382234 
L 329.76 -189.071255 
L 330.48 -189.739061 
L 331.2 -190.424139 
L 331.92 -191.132469 
L 332.64 -191.838123 
L 333.36 -192.489463 
L 334.08 -193.135853 
L 334.8 -193.84639 
L 335.52 -194.623311 
L 336.24 -195.405823 
L 336.96 -196.077173 
L 337.68 -196.713046 
L 338.4 -197.434356 
L 339.12 -198.16932 
L 339.84 -198.849369 
L 340.56 -199.557672 
L 341.28 -200.285236 
L 342 -200.986897 
L 342.72 -201.495586 
L 343.44 -201.914304 
L 344.16 -202.386575 
L 344.88 -202.825767 
L 344.88 -345.59486 
L 344.88 -345.59486 
L 344.16 -345.594659 
L 343.44 -345.594459 
L 342.72 -345.594244 
L 342 -345.594015 
L 341.28 -345.59379 
L 340.56 -345.593552 
L 339.84 -345.593295 
L 339.12 -345.59304 
L 338.4 -345.592813 
L 337.68 -345.592588 
L 336.96 -345.592368 
L 336.24 -345.592143 
L 335.52 -345.591899 
L 334.8 -345.591652 
L 334.08 -345.591409 
L 333.36 -345.591146 
L 332.64 -345.59087 
L 331.92 -345.590595 
L 331.2 -345.590281 
L 330.48 -345.589896 
L 329.76 -345.589494 
L 329.04 -345.589097 
L 328.32 -345.588669 
L 327.6 -345.588214 
L 326.88 -345.587766 
L 326.16 -345.587291 
L 325.44 -345.586779 
L 324.72 -345.586273 
L 324 -345.585745 
L 323.28 -345.585172 
L 322.56 -345.584598 
L 321.84 -345.58401 
L 321.12 -345.58337 
L 320.4 -345.582718 
L 319.68 -345.582062 
L 318.96 -345.58135 
L 318.24 -345.580608 
L 317.52 -345.579871 
L 316.8 -345.579075 
L 316.08 -345.578235 
L 315.36 -345.577407 
L 314.64 -345.576523 
L 313.92 -345.575575 
L 313.2 -345.57464 
L 312.48 -345.573657 
L 311.76 -345.572594 
L 311.04 -345.571534 
L 310.32 -345.570439 
L 309.6 -345.569251 
L 308.88 -345.568047 
L 308.16 -345.566827 
L 307.44 -345.565502 
L 306.72 -345.564134 
L 306 -345.56277 
L 305.28 -345.561295 
L 304.56 -345.559744 
L 303.84 -345.558214 
L 303.12 -345.556574 
L 302.4 -345.554823 
L 301.68 -345.553099 
L 300.96 -345.551275 
L 300.24 -345.549591 
L 299.52 -345.547903 
L 298.8 -345.546215 
L 298.08 -345.544383 
L 297.36 -345.542482 
L 296.64 -345.540626 
L 295.92 -345.538635 
L 295.2 -345.536511 
L 294.48 -345.534447 
L 293.76 -345.532044 
L 293.04 -345.529342 
L 292.32 -345.526439 
L 291.6 -345.52357 
L 290.88 -345.520559 
L 290.16 -345.517296 
L 289.44 -345.514038 
L 288.72 -345.510678 
L 288 -345.507022 
L 287.28 -345.503315 
L 286.56 -345.499562 
L 285.84 -345.495475 
L 285.12 -345.491258 
L 284.4 -345.487054 
L 283.68 -345.482493 
L 282.96 -345.477705 
L 282.24 -345.47298 
L 281.52 -345.467897 
L 280.8 -345.462476 
L 280.08 -345.457146 
L 279.36 -345.451481 
L 278.64 -345.445373 
L 277.92 -345.439318 
L 277.2 -345.43297 
L 276.48 -345.42609 
L 275.76 -345.419188 
L 275.04 -345.412098 
L 274.32 -345.404392 
L 273.6 -345.396539 
L 272.88 -345.388609 
L 272.16 -345.379994 
L 271.44 -345.371064 
L 270.72 -345.362172 
L 270 -345.352554 
L 269.28 -345.342421 
L 268.56 -345.332417 
L 267.84 -345.321689 
L 267.12 -345.31023 
L 266.4 -345.298932 
L 265.68 -345.286968 
L 264.96 -345.275001 
L 264.24 -345.262894 
L 263.52 -345.250958 
L 262.8 -345.238635 
L 262.08 -345.225236 
L 261.36 -345.211734 
L 260.64 -345.198161 
L 259.92 -345.1834 
L 259.2 -345.168135 
L 258.48 -345.153781 
L 257.76 -345.141648 
L 257.04 -345.128555 
L 256.32 -345.115918 
L 255.6 -345.103088 
L 254.88 -345.088803 
L 254.16 -345.067727 
L 253.44 -345.052864 
L 252.72 -345.039286 
L 252 -345.024909 
L 251.28 -345.011387 
L 250.56 -344.997277 
L 249.84 -344.981867 
L 249.12 -344.966715 
L 248.4 -344.951398 
L 247.68 -344.933623 
L 246.96 -344.915107 
L 246.24 -344.897516 
L 245.52 -344.878753 
L 244.8 -344.85361 
L 244.08 -344.820908 
L 243.36 -344.788393 
L 242.64 -344.754203 
L 241.92 -344.717154 
L 241.2 -344.68006 
L 240.48 -344.64154 
L 239.76 -344.599638 
L 239.04 -344.557278 
L 238.32 -344.513855 
L 237.6 -344.466546 
L 236.88 -344.418151 
L 236.16 -344.369155 
L 235.44 -344.315809 
L 234.72 -344.26055 
L 234 -344.205189 
L 233.28 -344.144967 
L 232.56 -344.081636 
L 231.84 -344.02278 
L 231.12 -343.968433 
L 230.4 -343.91851 
L 229.68 -343.869414 
L 228.96 -343.816065 
L 228.24 -343.760305 
L 227.52 -343.706717 
L 226.8 -343.649652 
L 226.08 -343.588239 
L 225.36 -343.528638 
L 224.64 -343.467554 
L 223.92 -343.401014 
L 223.2 -343.334038 
L 222.48 -343.268197 
L 221.76 -343.196781 
L 221.04 -343.121924 
L 220.32 -343.049988 
L 219.6 -342.973671 
L 218.88 -342.891482 
L 218.16 -342.811371 
L 217.44 -342.729707 
L 216.72 -342.640855 
L 216 -342.550911 
L 215.28 -342.462847 
L 214.56 -342.367644 
L 213.84 -342.267405 
L 213.12 -342.171049 
L 212.4 -342.069414 
L 211.68 -341.959812 
L 210.96 -341.852353 
L 210.24 -341.710498 
L 209.52 -341.563749 
L 208.8 -341.409718 
L 208.08 -341.24336 
L 207.36 -341.077612 
L 206.64 -340.906877 
L 205.92 -340.721722 
L 205.2 -340.534319 
L 204.48 -340.344915 
L 203.76 -340.139419 
L 203.04 -339.927689 
L 202.32 -339.717184 
L 201.6 -339.489672 
L 200.88 -339.251062 
L 200.16 -339.016421 
L 199.44 -338.765053 
L 198.72 -338.577912 
L 198 -338.389305 
L 197.28 -338.193775 
L 196.56 -338.007938 
L 195.84 -337.810519 
L 195.12 -337.597863 
L 194.4 -337.392971 
L 193.68 -337.186115 
L 192.96 -336.958865 
L 192.24 -336.728625 
L 191.52 -336.507569 
L 190.8 -336.269395 
L 190.08 -336.016056 
L 189.36 -335.775567 
L 188.64 -335.526851 
L 187.92 -335.256262 
L 187.2 -334.988194 
L 186.48 -334.726434 
L 185.76 -334.442399 
L 185.04 -334.085928 
L 184.32 -333.683739 
L 183.6 -333.247717 
L 182.88 -332.806632 
L 182.16 -332.361744 
L 181.44 -331.879741 
L 180.72 -331.458042 
L 180 -331.088924 
L 179.28 -330.529793 
L 178.56 -329.901218 
L 177.84 -329.273499 
L 177.12 -328.706261 
L 176.4 -328.117709 
L 175.68 -327.501985 
L 174.96 -326.888889 
L 174.24 -326.227764 
L 173.52 -325.567549 
L 172.8 -324.902259 
L 172.08 -324.1841 
L 171.36 -323.628617 
L 170.64 -323.148356 
L 169.92 -322.629046 
L 169.2 -322.09888 
L 168.48 -321.191947 
L 167.76 -320.736183 
L 167.04 -320.276197 
L 166.32 -319.852642 
L 165.6 -318.947314 
L 164.88 -318.592354 
L 164.16 -318.238412 
L 163.44 -317.898903 
L 162.72 -317.239015 
L 162 -316.103268 
L 161.28 -314.983856 
L 160.56 -314.640525 
L 159.84 -314.425357 
L 159.12 -314.216774 
L 158.4 -313.736564 
L 157.68 -313.096701 
L 156.96 -312.41504 
L 156.24 -311.669593 
L 155.52 -310.703145 
L 154.8 -310.195508 
L 154.08 -309.177263 
L 153.36 -308.614084 
L 152.64 -308.072363 
L 151.92 -307.500547 
L 151.2 -306.892606 
L 150.48 -306.236736 
L 149.76 -305.730541 
L 149.04 -304.993375 
L 148.32 -304.140226 
L 147.6 -303.278166 
L 146.88 -302.465512 
L 146.16 -301.683875 
L 145.44 -300.915854 
L 144.72 -300.093409 
L 144 -299.609622 
L 143.28 -298.470178 
L 142.56 -297.642207 
L 141.84 -296.859328 
L 141.12 -295.989498 
L 140.4 -295.459405 
L 139.68 -294.863532 
L 138.96 -293.4618 
L 138.24 -292.512214 
L 137.52 -291.52098 
L 136.8 -290.300878 
L 136.08 -289.05819 
L 135.36 -287.891081 
L 134.64 -286.74753 
L 133.92 -285.458346 
L 133.2 -284.174812 
L 132.48 -283.020669 
L 131.76 -281.76701 
L 131.04 -280.978135 
L 130.32 -279.859954 
L 129.6 -278.274479 
L 128.88 -277.311439 
L 128.16 -276.369096 
L 127.44 -275.440794 
L 126.72 -274.451933 
L 126 -273.456846 
L 125.28 -272.335602 
L 124.56 -271.117188 
L 123.84 -269.931554 
L 123.12 -268.832927 
L 122.4 -267.990434 
L 121.68 -267.358768 
L 120.96 -266.675683 
L 120.24 -265.926908 
L 119.52 -264.954233 
L 118.8 -263.794477 
L 118.08 -262.72728 
L 117.36 -261.779961 
L 116.64 -260.89313 
L 115.92 -259.867561 
L 115.2 -258.809048 
L 114.48 -258.280513 
L 113.76 -257.832627 
L 113.04 -256.749987 
L 112.32 -255.34945 
L 111.6 -254.494527 
L 110.88 -253.826581 
L 110.16 -253.224877 
L 109.44 -251.985452 
L 108.72 -251.136448 
L 108 -249.462173 
L 107.28 -247.977137 
L 106.56 -247.089263 
L 105.84 -246.316201 
L 105.12 -245.627121 
L 104.4 -244.848913 
L 103.68 -244.013612 
L 102.96 -243.2254 
L 102.24 -242.493905 
L 101.52 -241.737799 
L 100.8 -240.793677 
L 100.08 -240.017678 
L 99.36 -239.235327 
L 98.64 -238.335629 
L 97.92 -237.264143 
L 97.2 -236.204263 
L 96.48 -235.185759 
L 95.76 -234.239844 
L 95.04 -233.468557 
L 94.32 -233.095767 
L 93.6 -232.892269 
L 92.88 -233.127072 
L 92.16 -234.421955 
L 91.44 -238.289744 
L 90.72 -248.96675 
L 90 -279.44647 
L 89.28 -345.6 
L 88.56 -345.6 
L 87.84 -345.6 
L 87.12 -345.6 
L 86.4 -345.6 
z
" style="stroke: #ffffff; stroke-opacity: 0.5"/>
    </defs>
    <g clip-path="url(#pc8afe88dcb)">
     <use xlink:href="#m9ad364b58a" x="0" y="432" style="fill: #4c72b0; fill-opacity: 0.5; stroke: #ffffff; stroke-opacity: 0.5"/>
    </g>
   </g>
   <g id="line2d_14">
    <path d="M 86.4 86.4 
L 89.28 86.4 
L 90 257.189041 
L 90.72 282.078024 
L 91.44 288.864391 
L 92.16 291.094337 
L 92.88 291.761324 
L 93.6 291.804055 
L 95.04 291.271084 
L 97.92 289.690694 
L 103.68 286.194633 
L 114.48 278.721192 
L 123.12 271.892478 
L 126.72 268.794789 
L 128.88 266.935555 
L 138.96 257.632638 
L 150.48 246.131141 
L 177.84 217.146921 
L 183.6 211.027018 
L 194.4 199.762727 
L 203.04 191.048625 
L 211.68 182.649512 
L 223.2 172.09318 
L 231.84 164.696566 
L 237.6 160.014541 
L 244.08 155.01081 
L 249.84 150.799911 
L 257.04 145.842968 
L 263.52 141.663169 
L 270.72 137.338403 
L 277.2 133.715276 
L 283.68 130.339566 
L 290.16 127.191312 
L 298.08 123.659821 
L 304.56 120.991799 
L 312.48 117.993469 
L 320.4 115.268516 
L 328.32 112.782089 
L 337.68 110.133208 
L 344.88 108.282378 
L 344.88 108.282378 
" clip-path="url(#pc8afe88dcb)" style="fill: none; stroke: #4c72b0; stroke-width: 2; stroke-linecap: round"/>
   </g>
   <g id="patch_3">
    <path d="M 86.4 345.6 
L 86.4 86.4 
" style="fill: none; stroke: #262626; stroke-width: 1.25; stroke-linejoin: miter; stroke-linecap: square"/>
   </g>
   <g id="patch_4">
    <path d="M 86.4 345.6 
L 345.6 345.6 
" style="fill: none; stroke: #262626; stroke-width: 1.25; stroke-linejoin: miter; stroke-linecap: square"/>
   </g>
  </g>
 </g>
 <defs>
  <clipPath id="pc8afe88dcb">
   <rect x="86.4" y="86.4" width="259.2" height="259.2"/>
  </clipPath>
 </defs>
</svg>
