<?xml version="1.0" encoding="utf-8" standalone="no"?>
<!DOCTYPE svg PUBLIC "-//W3C//DTD SVG 1.1//EN"
  "http://www.w3.org/Graphics/SVG/1.1/DTD/svg11.dtd">
<svg xmlns:xlink="http://www.w3.org/1999/xlink" width="432pt" height="432pt" viewBox="0 0 432 432" xmlns="http://www.w3.org/2000/svg" version="1.1">
 <metadata>
  <rdf:RDF xmlns:dc="http://purl.org/dc/elements/1.1/" xmlns:cc="http://creativecommons.org/ns#" xmlns:rdf="http://www.w3.org/1999/02/22-rdf-syntax-ns#">
   <cc:Work>
    <dc:type rdf:resource="http://purl.org/dc/dcmitype/StillImage"/>
    <dc:date>2024-09-16T15:53:03.038725</dc:date>
    <dc:format>image/svg+xml</dc:format>
    <dc:creator>
     <cc:Agent>
      <dc:title>Matplotlib v3.8.4, https://matplotlib.org/</dc:title>
     </cc:Agent>
    </dc:creator>
   </cc:Work>
  </rdf:RDF>
 </metadata>
 <defs>
  <style type="text/css">*{stroke-linejoin: round; stroke-linecap: butt}</style>
 </defs>
 <g id="figure_1">
  <g id="patch_1">
   <path d="M 0 432 
L 432 432 
L 432 0 
L 0 0 
L 0 432 
z
" style="fill: none"/>
  </g>
  <g id="axes_1">
   <g id="patch_2">
    <path d="M 86.4 345.6 
L 345.6 345.6 
L 345.6 86.4 
L 86.4 86.4 
L 86.4 345.6 
z
" style="fill: none"/>
   </g>
   <g id="matplotlib.axis_1">
    <g id="xtick_1">
     <g id="line2d_1">
      <defs>
       <path id="m37e7d7c991" d="M 0 0 
L 0 6 
" style="stroke: #262626; stroke-width: 1.25"/>
      </defs>
      <g>
       <use xlink:href="#m37e7d7c991" x="86.4" y="345.6" style="fill: #262626; stroke: #262626; stroke-width: 1.25"/>
      </g>
     </g>
     <g id="text_1">
      <text style="fill: #262626; font: 16px 'Arial', 'DejaVu Sans', 'Liberation Sans', 'Bitstream Vera Sans', sans-serif; text-anchor: middle" x="86.4" y="366.5525" transform="rotate(-0 86.4 366.5525)">0</text>
     </g>
    </g>
    <g id="xtick_2">
     <g id="line2d_2">
      <g>
       <use xlink:href="#m37e7d7c991" x="129.6" y="345.6" style="fill: #262626; stroke: #262626; stroke-width: 1.25"/>
      </g>
     </g>
     <g id="text_2">
      <text style="fill: #262626; font: 16px 'Arial', 'DejaVu Sans', 'Liberation Sans', 'Bitstream Vera Sans', sans-serif; text-anchor: middle" x="129.6" y="366.5525" transform="rotate(-0 129.6 366.5525)">60</text>
     </g>
    </g>
    <g id="xtick_3">
     <g id="line2d_3">
      <g>
       <use xlink:href="#m37e7d7c991" x="172.8" y="345.6" style="fill: #262626; stroke: #262626; stroke-width: 1.25"/>
      </g>
     </g>
     <g id="text_3">
      <text style="fill: #262626; font: 16px 'Arial', 'DejaVu Sans', 'Liberation Sans', 'Bitstream Vera Sans', sans-serif; text-anchor: middle" x="172.8" y="366.5525" transform="rotate(-0 172.8 366.5525)">120</text>
     </g>
    </g>
    <g id="xtick_4">
     <g id="line2d_4">
      <g>
       <use xlink:href="#m37e7d7c991" x="216" y="345.6" style="fill: #262626; stroke: #262626; stroke-width: 1.25"/>
      </g>
     </g>
     <g id="text_4">
      <text style="fill: #262626; font: 16px 'Arial', 'DejaVu Sans', 'Liberation Sans', 'Bitstream Vera Sans', sans-serif; text-anchor: middle" x="216" y="366.5525" transform="rotate(-0 216 366.5525)">180</text>
     </g>
    </g>
    <g id="xtick_5">
     <g id="line2d_5">
      <g>
       <use xlink:href="#m37e7d7c991" x="259.2" y="345.6" style="fill: #262626; stroke: #262626; stroke-width: 1.25"/>
      </g>
     </g>
     <g id="text_5">
      <text style="fill: #262626; font: 16px 'Arial', 'DejaVu Sans', 'Liberation Sans', 'Bitstream Vera Sans', sans-serif; text-anchor: middle" x="259.2" y="366.5525" transform="rotate(-0 259.2 366.5525)">240</text>
     </g>
    </g>
    <g id="xtick_6">
     <g id="line2d_6">
      <g>
       <use xlink:href="#m37e7d7c991" x="302.4" y="345.6" style="fill: #262626; stroke: #262626; stroke-width: 1.25"/>
      </g>
     </g>
     <g id="text_6">
      <text style="fill: #262626; font: 16px 'Arial', 'DejaVu Sans', 'Liberation Sans', 'Bitstream Vera Sans', sans-serif; text-anchor: middle" x="302.4" y="366.5525" transform="rotate(-0 302.4 366.5525)">300</text>
     </g>
    </g>
    <g id="xtick_7">
     <g id="line2d_7">
      <g>
       <use xlink:href="#m37e7d7c991" x="345.6" y="345.6" style="fill: #262626; stroke: #262626; stroke-width: 1.25"/>
      </g>
     </g>
     <g id="text_7">
      <text style="fill: #262626; font: 16px 'Arial', 'DejaVu Sans', 'Liberation Sans', 'Bitstream Vera Sans', sans-serif; text-anchor: middle" x="345.6" y="366.5525" transform="rotate(-0 345.6 366.5525)">360</text>
     </g>
    </g>
    <g id="text_8">
     <text style="fill: #262626; font: 16px 'Arial', 'DejaVu Sans', 'Liberation Sans', 'Bitstream Vera Sans', sans-serif; text-anchor: middle" x="216" y="385.38" transform="rotate(-0 216 385.38)">Time since vaccination (days)</text>
    </g>
   </g>
   <g id="matplotlib.axis_2">
    <g id="ytick_1">
     <g id="line2d_8">
      <defs>
       <path id="mae242e187a" d="M 0 0 
L -6 0 
" style="stroke: #262626; stroke-width: 1.25"/>
      </defs>
      <g>
       <use xlink:href="#mae242e187a" x="86.4" y="345.6" style="fill: #262626; stroke: #262626; stroke-width: 1.25"/>
      </g>
     </g>
     <g id="text_9">
      <text style="fill: #262626; font: 16px 'Arial', 'DejaVu Sans', 'Liberation Sans', 'Bitstream Vera Sans', sans-serif; text-anchor: end" x="76.9" y="351.32625" transform="rotate(-0 76.9 351.32625)">0.0</text>
     </g>
    </g>
    <g id="ytick_2">
     <g id="line2d_9">
      <g>
       <use xlink:href="#mae242e187a" x="86.4" y="293.76" style="fill: #262626; stroke: #262626; stroke-width: 1.25"/>
      </g>
     </g>
     <g id="text_10">
      <text style="fill: #262626; font: 16px 'Arial', 'DejaVu Sans', 'Liberation Sans', 'Bitstream Vera Sans', sans-serif; text-anchor: end" x="76.9" y="299.48625" transform="rotate(-0 76.9 299.48625)">0.2</text>
     </g>
    </g>
    <g id="ytick_3">
     <g id="line2d_10">
      <g>
       <use xlink:href="#mae242e187a" x="86.4" y="241.92" style="fill: #262626; stroke: #262626; stroke-width: 1.25"/>
      </g>
     </g>
     <g id="text_11">
      <text style="fill: #262626; font: 16px 'Arial', 'DejaVu Sans', 'Liberation Sans', 'Bitstream Vera Sans', sans-serif; text-anchor: end" x="76.9" y="247.64625" transform="rotate(-0 76.9 247.64625)">0.4</text>
     </g>
    </g>
    <g id="ytick_4">
     <g id="line2d_11">
      <g>
       <use xlink:href="#mae242e187a" x="86.4" y="190.08" style="fill: #262626; stroke: #262626; stroke-width: 1.25"/>
      </g>
     </g>
     <g id="text_12">
      <text style="fill: #262626; font: 16px 'Arial', 'DejaVu Sans', 'Liberation Sans', 'Bitstream Vera Sans', sans-serif; text-anchor: end" x="76.9" y="195.80625" transform="rotate(-0 76.9 195.80625)">0.6</text>
     </g>
    </g>
    <g id="ytick_5">
     <g id="line2d_12">
      <g>
       <use xlink:href="#mae242e187a" x="86.4" y="138.24" style="fill: #262626; stroke: #262626; stroke-width: 1.25"/>
      </g>
     </g>
     <g id="text_13">
      <text style="fill: #262626; font: 16px 'Arial', 'DejaVu Sans', 'Liberation Sans', 'Bitstream Vera Sans', sans-serif; text-anchor: end" x="76.9" y="143.96625" transform="rotate(-0 76.9 143.96625)">0.8</text>
     </g>
    </g>
    <g id="ytick_6">
     <g id="line2d_13">
      <g>
       <use xlink:href="#mae242e187a" x="86.4" y="86.4" style="fill: #262626; stroke: #262626; stroke-width: 1.25"/>
      </g>
     </g>
     <g id="text_14">
      <text style="fill: #262626; font: 16px 'Arial', 'DejaVu Sans', 'Liberation Sans', 'Bitstream Vera Sans', sans-serif; text-anchor: end" x="76.9" y="92.12625" transform="rotate(-0 76.9 92.12625)">1.0</text>
     </g>
    </g>
    <g id="text_15">
     <text style="fill: #262626; font: 16px 'Arial', 'DejaVu Sans', 'Liberation Sans', 'Bitstream Vera Sans', sans-serif; text-anchor: middle" x="47.2925" y="216" transform="rotate(-90 47.2925 216)">Relative susceptibility</text>
    </g>
   </g>
   <g id="PolyCollection_1">
    <defs>
     <path id="m642c47866d" d="M 86.4 -345.587134 
L 86.4 -206.139744 
L 87.12 -206.543496 
L 87.84 -206.953262 
L 88.56 -207.370097 
L 89.28 -207.750826 
L 90 -103.096408 
L 90.72 -97.041792 
L 91.44 -95.614104 
L 92.16 -95.151262 
L 92.88 -94.999268 
L 93.6 -95.019478 
L 94.32 -95.075228 
L 95.04 -95.123964 
L 95.76 -95.195425 
L 96.48 -95.292685 
L 97.2 -95.362371 
L 97.92 -95.444781 
L 98.64 -95.520823 
L 99.36 -95.596225 
L 100.08 -95.713645 
L 100.8 -95.786817 
L 101.52 -95.860003 
L 102.24 -95.900929 
L 102.96 -96.01987 
L 103.68 -96.082286 
L 104.4 -96.207968 
L 105.12 -96.380497 
L 105.84 -96.464646 
L 106.56 -96.604465 
L 107.28 -96.684921 
L 108 -96.802037 
L 108.72 -96.878106 
L 109.44 -96.989037 
L 110.16 -97.098689 
L 110.88 -97.190251 
L 111.6 -97.273761 
L 112.32 -97.377097 
L 113.04 -97.480836 
L 113.76 -97.60397 
L 114.48 -97.722375 
L 115.2 -97.860047 
L 115.92 -97.966013 
L 116.64 -98.052677 
L 117.36 -98.189165 
L 118.08 -98.354411 
L 118.8 -98.471202 
L 119.52 -98.583133 
L 120.24 -98.684463 
L 120.96 -98.798674 
L 121.68 -98.88817 
L 122.4 -99.017374 
L 123.12 -99.143061 
L 123.84 -99.320817 
L 124.56 -99.462766 
L 125.28 -99.589372 
L 126 -99.744862 
L 126.72 -99.844279 
L 127.44 -99.994378 
L 128.16 -100.110035 
L 128.88 -100.220231 
L 129.6 -100.335772 
L 130.32 -100.444532 
L 131.04 -100.563245 
L 131.76 -100.757731 
L 132.48 -100.910372 
L 133.2 -101.050649 
L 133.92 -101.14289 
L 134.64 -101.356732 
L 135.36 -101.502329 
L 136.08 -101.632151 
L 136.8 -101.776172 
L 137.52 -101.924593 
L 138.24 -102.072693 
L 138.96 -102.228721 
L 139.68 -102.390154 
L 140.4 -102.520799 
L 141.12 -102.656452 
L 141.84 -102.809255 
L 142.56 -102.978409 
L 143.28 -103.109827 
L 144 -103.205566 
L 144.72 -103.415598 
L 145.44 -103.602778 
L 146.16 -103.760963 
L 146.88 -103.908599 
L 147.6 -104.072118 
L 148.32 -104.283725 
L 149.04 -104.426213 
L 149.76 -104.614543 
L 150.48 -104.778242 
L 151.2 -105.008419 
L 151.92 -105.200006 
L 152.64 -105.358864 
L 153.36 -105.484464 
L 154.08 -105.632471 
L 154.8 -105.8115 
L 155.52 -105.951233 
L 156.24 -106.121147 
L 156.96 -106.324484 
L 157.68 -106.529055 
L 158.4 -106.708815 
L 159.12 -106.923238 
L 159.84 -107.085299 
L 160.56 -107.330571 
L 161.28 -107.541336 
L 162 -107.768045 
L 162.72 -107.899411 
L 163.44 -108.062983 
L 164.16 -108.309209 
L 164.88 -108.524783 
L 165.6 -108.712481 
L 166.32 -108.857265 
L 167.04 -109.019684 
L 167.76 -109.230241 
L 168.48 -109.522759 
L 169.2 -109.698503 
L 169.92 -109.926662 
L 170.64 -110.18017 
L 171.36 -110.389905 
L 172.08 -110.467721 
L 172.8 -110.557057 
L 173.52 -110.6762 
L 174.24 -110.815263 
L 174.96 -110.98645 
L 175.68 -111.197217 
L 176.4 -111.333861 
L 177.12 -111.572843 
L 177.84 -111.778436 
L 178.56 -112.055002 
L 179.28 -112.31964 
L 180 -112.631318 
L 180.72 -112.880888 
L 181.44 -113.120363 
L 182.16 -113.38595 
L 182.88 -113.592285 
L 183.6 -113.867218 
L 184.32 -114.093307 
L 185.04 -114.30513 
L 185.76 -114.542514 
L 186.48 -114.785187 
L 187.2 -115.029111 
L 187.92 -115.269536 
L 188.64 -115.556575 
L 189.36 -115.824459 
L 190.08 -116.079993 
L 190.8 -116.32965 
L 191.52 -116.553336 
L 192.24 -116.76281 
L 192.96 -116.9819 
L 193.68 -117.198513 
L 194.4 -117.489947 
L 195.12 -117.755147 
L 195.84 -118.032964 
L 196.56 -118.276307 
L 197.28 -118.525591 
L 198 -118.819766 
L 198.72 -119.056111 
L 199.44 -119.281818 
L 200.16 -119.528945 
L 200.88 -119.773558 
L 201.6 -119.967522 
L 202.32 -120.220585 
L 203.04 -120.472925 
L 203.76 -120.759873 
L 204.48 -121.042403 
L 205.2 -121.330129 
L 205.92 -121.643055 
L 206.64 -122.016104 
L 207.36 -122.304443 
L 208.08 -122.589661 
L 208.8 -122.90385 
L 209.52 -123.225545 
L 210.24 -123.491248 
L 210.96 -123.77299 
L 211.68 -124.064362 
L 212.4 -124.374159 
L 213.12 -124.73456 
L 213.84 -124.999377 
L 214.56 -125.313534 
L 215.28 -125.589579 
L 216 -125.918716 
L 216.72 -126.244263 
L 217.44 -126.566695 
L 218.16 -126.858206 
L 218.88 -127.170389 
L 219.6 -127.509675 
L 220.32 -127.877815 
L 221.04 -128.185089 
L 221.76 -128.401988 
L 222.48 -128.835683 
L 223.2 -129.15852 
L 223.92 -129.387726 
L 224.64 -129.684543 
L 225.36 -130.050845 
L 226.08 -130.468209 
L 226.8 -130.848142 
L 227.52 -131.037451 
L 228.24 -131.4309 
L 228.96 -131.663046 
L 229.68 -131.949141 
L 230.4 -132.162965 
L 231.12 -132.561476 
L 231.84 -132.854263 
L 232.56 -133.318555 
L 233.28 -133.701828 
L 234 -134.102501 
L 234.72 -134.415617 
L 235.44 -134.712473 
L 236.16 -134.976499 
L 236.88 -135.30061 
L 237.6 -135.665693 
L 238.32 -136.062149 
L 239.04 -136.390258 
L 239.76 -136.734878 
L 240.48 -137.047135 
L 241.2 -137.323978 
L 241.92 -137.662402 
L 242.64 -138.104252 
L 243.36 -138.392569 
L 244.08 -138.752809 
L 244.8 -139.236775 
L 245.52 -139.74132 
L 246.24 -140.086824 
L 246.96 -140.582886 
L 247.68 -141.028391 
L 248.4 -141.469159 
L 249.12 -141.865007 
L 249.84 -142.383359 
L 250.56 -142.798364 
L 251.28 -143.258878 
L 252 -143.697407 
L 252.72 -144.158089 
L 253.44 -144.701331 
L 254.16 -145.059971 
L 254.88 -145.439828 
L 255.6 -145.848887 
L 256.32 -146.276093 
L 257.04 -146.585355 
L 257.76 -146.985967 
L 258.48 -147.558866 
L 259.2 -148.019841 
L 259.92 -148.412257 
L 260.64 -148.800708 
L 261.36 -149.127626 
L 262.08 -149.469223 
L 262.8 -149.861627 
L 263.52 -150.303049 
L 264.24 -150.762811 
L 264.96 -151.165624 
L 265.68 -151.54995 
L 266.4 -151.974958 
L 267.12 -152.516918 
L 267.84 -152.904201 
L 268.56 -153.230573 
L 269.28 -153.59762 
L 270 -153.984487 
L 270.72 -154.367213 
L 271.44 -154.95531 
L 272.16 -155.364048 
L 272.88 -155.832296 
L 273.6 -156.21744 
L 274.32 -156.551984 
L 275.04 -156.955969 
L 275.76 -157.295278 
L 276.48 -157.674784 
L 277.2 -158.076241 
L 277.92 -158.488983 
L 278.64 -158.859664 
L 279.36 -159.21389 
L 280.08 -159.615986 
L 280.8 -160.131601 
L 281.52 -160.536815 
L 282.24 -161.045665 
L 282.96 -161.420104 
L 283.68 -162.033339 
L 284.4 -162.613348 
L 285.12 -163.22104 
L 285.84 -163.642525 
L 286.56 -164.05775 
L 287.28 -164.49221 
L 288 -164.931589 
L 288.72 -165.470301 
L 289.44 -165.948909 
L 290.16 -166.352507 
L 290.88 -166.807928 
L 291.6 -167.267896 
L 292.32 -167.65492 
L 293.04 -168.080068 
L 293.76 -168.544401 
L 294.48 -169.065095 
L 295.2 -169.610111 
L 295.92 -170.205489 
L 296.64 -170.651239 
L 297.36 -171.09605 
L 298.08 -171.654478 
L 298.8 -172.304292 
L 299.52 -172.764884 
L 300.24 -173.107933 
L 300.96 -173.462514 
L 301.68 -173.800538 
L 302.4 -174.159483 
L 303.12 -174.471885 
L 303.84 -174.994733 
L 304.56 -175.651572 
L 305.28 -176.201556 
L 306 -176.501968 
L 306.72 -176.818246 
L 307.44 -177.280317 
L 308.16 -177.658237 
L 308.88 -177.95198 
L 309.6 -178.394675 
L 310.32 -178.941942 
L 311.04 -179.733211 
L 311.76 -180.303728 
L 312.48 -180.821739 
L 313.2 -181.277718 
L 313.92 -181.756367 
L 314.64 -182.174795 
L 315.36 -182.784153 
L 316.08 -183.35874 
L 316.8 -183.93919 
L 317.52 -184.465352 
L 318.24 -184.831214 
L 318.96 -185.393154 
L 319.68 -185.985267 
L 320.4 -186.402735 
L 321.12 -187.09293 
L 321.84 -187.590163 
L 322.56 -187.956622 
L 323.28 -188.346288 
L 324 -188.962569 
L 324.72 -189.596501 
L 325.44 -189.947866 
L 326.16 -190.531416 
L 326.88 -191.081822 
L 327.6 -191.648971 
L 328.32 -192.221949 
L 329.04 -192.623257 
L 329.76 -193.049006 
L 330.48 -193.709934 
L 331.2 -194.414962 
L 331.92 -195.190628 
L 332.64 -195.704192 
L 333.36 -196.240867 
L 334.08 -196.947673 
L 334.8 -197.511958 
L 335.52 -197.925467 
L 336.24 -198.399775 
L 336.96 -198.78475 
L 337.68 -199.220118 
L 338.4 -199.664088 
L 339.12 -200.371181 
L 339.84 -201.09824 
L 340.56 -201.846517 
L 341.28 -202.620754 
L 342 -203.290198 
L 342.72 -203.861896 
L 343.44 -204.461377 
L 344.16 -205.035523 
L 344.88 -205.607155 
L 344.88 -345.586689 
L 344.88 -345.586689 
L 344.16 -345.586225 
L 343.44 -345.585744 
L 342.72 -345.585246 
L 342 -345.584739 
L 341.28 -345.584188 
L 340.56 -345.583637 
L 339.84 -345.583063 
L 339.12 -345.582477 
L 338.4 -345.581856 
L 337.68 -345.581244 
L 336.96 -345.580583 
L 336.24 -345.580008 
L 335.52 -345.579398 
L 334.8 -345.578757 
L 334.08 -345.578067 
L 333.36 -345.577337 
L 332.64 -345.576621 
L 331.92 -345.57585 
L 331.2 -345.575035 
L 330.48 -345.574237 
L 329.76 -345.573291 
L 329.04 -345.572265 
L 328.32 -345.571275 
L 327.6 -345.570137 
L 326.88 -345.56919 
L 326.16 -345.568293 
L 325.44 -345.567419 
L 324.72 -345.566393 
L 324 -345.565167 
L 323.28 -345.563905 
L 322.56 -345.562658 
L 321.84 -345.56131 
L 321.12 -345.559889 
L 320.4 -345.558503 
L 319.68 -345.557023 
L 318.96 -345.555485 
L 318.24 -345.554052 
L 317.52 -345.552612 
L 316.8 -345.55118 
L 316.08 -345.549629 
L 315.36 -345.548012 
L 314.64 -345.546443 
L 313.92 -345.544763 
L 313.2 -345.542968 
L 312.48 -345.541229 
L 311.76 -345.539431 
L 311.04 -345.537481 
L 310.32 -345.535542 
L 309.6 -345.533595 
L 308.88 -345.531476 
L 308.16 -345.529287 
L 307.44 -345.527156 
L 306.72 -345.524866 
L 306 -345.522168 
L 305.28 -345.519388 
L 304.56 -345.516643 
L 303.84 -345.513675 
L 303.12 -345.510547 
L 302.4 -345.507601 
L 301.68 -345.504751 
L 300.96 -345.502006 
L 300.24 -345.499117 
L 299.52 -345.495999 
L 298.8 -345.492936 
L 298.08 -345.489835 
L 297.36 -345.486423 
L 296.64 -345.48272 
L 295.92 -345.47897 
L 295.2 -345.47546 
L 294.48 -345.471681 
L 293.76 -345.466832 
L 293.04 -345.462101 
L 292.32 -345.457304 
L 291.6 -345.45277 
L 290.88 -345.447843 
L 290.16 -345.442593 
L 289.44 -345.436879 
L 288.72 -345.431022 
L 288 -345.42521 
L 287.28 -345.418925 
L 286.56 -345.412334 
L 285.84 -345.405883 
L 285.12 -345.398986 
L 284.4 -345.39224 
L 283.68 -345.384654 
L 282.96 -345.378225 
L 282.24 -345.372028 
L 281.52 -345.365645 
L 280.8 -345.358219 
L 280.08 -345.350328 
L 279.36 -345.342595 
L 278.64 -345.335317 
L 277.92 -345.326262 
L 277.2 -345.316667 
L 276.48 -345.306784 
L 275.76 -345.298906 
L 275.04 -345.289511 
L 274.32 -345.279981 
L 273.6 -345.269641 
L 272.88 -345.258927 
L 272.16 -345.248498 
L 271.44 -345.23733 
L 270.72 -345.225421 
L 270 -345.213448 
L 269.28 -345.201899 
L 268.56 -345.189845 
L 267.84 -345.177111 
L 267.12 -345.163577 
L 266.4 -345.151408 
L 265.68 -345.134205 
L 264.96 -345.119695 
L 264.24 -345.102198 
L 263.52 -345.086097 
L 262.8 -345.070863 
L 262.08 -345.054861 
L 261.36 -345.037535 
L 260.64 -345.02094 
L 259.92 -345.003273 
L 259.2 -344.98416 
L 258.48 -344.964025 
L 257.76 -344.942189 
L 257.04 -344.921866 
L 256.32 -344.897756 
L 255.6 -344.87842 
L 254.88 -344.857695 
L 254.16 -344.833136 
L 253.44 -344.803709 
L 252.72 -344.77347 
L 252 -344.7433 
L 251.28 -344.710676 
L 250.56 -344.680564 
L 249.84 -344.651491 
L 249.12 -344.622302 
L 248.4 -344.592204 
L 247.68 -344.555801 
L 246.96 -344.523727 
L 246.24 -344.487012 
L 245.52 -344.449969 
L 244.8 -344.411653 
L 244.08 -344.372949 
L 243.36 -344.333651 
L 242.64 -344.293667 
L 241.92 -344.248316 
L 241.2 -344.205717 
L 240.48 -344.153194 
L 239.76 -344.099386 
L 239.04 -344.041075 
L 238.32 -343.985735 
L 237.6 -343.937476 
L 236.88 -343.893952 
L 236.16 -343.851006 
L 235.44 -343.802442 
L 234.72 -343.744023 
L 234 -343.6824 
L 233.28 -343.613045 
L 232.56 -343.545932 
L 231.84 -343.480427 
L 231.12 -343.42312 
L 230.4 -343.353319 
L 229.68 -343.278229 
L 228.96 -343.205776 
L 228.24 -343.136558 
L 227.52 -343.053697 
L 226.8 -342.969877 
L 226.08 -342.883444 
L 225.36 -342.797787 
L 224.64 -342.725198 
L 223.92 -342.6468 
L 223.2 -342.551563 
L 222.48 -342.44754 
L 221.76 -342.335042 
L 221.04 -342.240313 
L 220.32 -342.135153 
L 219.6 -342.047178 
L 218.88 -341.961296 
L 218.16 -341.851137 
L 217.44 -341.740087 
L 216.72 -341.617541 
L 216 -341.483786 
L 215.28 -341.355166 
L 214.56 -341.221687 
L 213.84 -341.071399 
L 213.12 -340.90247 
L 212.4 -340.748357 
L 211.68 -340.617361 
L 210.96 -340.470511 
L 210.24 -340.301525 
L 209.52 -340.131483 
L 208.8 -339.972973 
L 208.08 -339.800899 
L 207.36 -339.654102 
L 206.64 -339.488571 
L 205.92 -339.361649 
L 205.2 -339.183014 
L 204.48 -339.022766 
L 203.76 -338.853681 
L 203.04 -338.631213 
L 202.32 -338.418615 
L 201.6 -338.234965 
L 200.88 -338.000924 
L 200.16 -337.789791 
L 199.44 -337.535593 
L 198.72 -337.254782 
L 198 -336.953013 
L 197.28 -336.708105 
L 196.56 -336.497041 
L 195.84 -336.224007 
L 195.12 -335.989222 
L 194.4 -335.731632 
L 193.68 -335.403761 
L 192.96 -335.107513 
L 192.24 -334.782191 
L 191.52 -334.53468 
L 190.8 -334.2911 
L 190.08 -333.973969 
L 189.36 -333.641471 
L 188.64 -333.274532 
L 187.92 -332.899906 
L 187.2 -332.527647 
L 186.48 -332.152577 
L 185.76 -331.719461 
L 185.04 -331.267655 
L 184.32 -330.780761 
L 183.6 -330.313009 
L 182.88 -329.858369 
L 182.16 -329.450317 
L 181.44 -329.057575 
L 180.72 -328.587155 
L 180 -328.129992 
L 179.28 -327.632892 
L 178.56 -327.189828 
L 177.84 -326.742541 
L 177.12 -326.28689 
L 176.4 -325.821686 
L 175.68 -325.336132 
L 174.96 -324.790357 
L 174.24 -324.258288 
L 173.52 -323.731757 
L 172.8 -323.231945 
L 172.08 -322.692318 
L 171.36 -322.14603 
L 170.64 -321.625959 
L 169.92 -321.104493 
L 169.2 -320.512846 
L 168.48 -319.884351 
L 167.76 -319.255992 
L 167.04 -318.637021 
L 166.32 -318.031346 
L 165.6 -317.298412 
L 164.88 -316.666547 
L 164.16 -315.910098 
L 163.44 -315.356894 
L 162.72 -314.841511 
L 162 -314.368111 
L 161.28 -313.769967 
L 160.56 -313.009443 
L 159.84 -312.314127 
L 159.12 -311.638261 
L 158.4 -310.907129 
L 157.68 -310.190641 
L 156.96 -309.748895 
L 156.24 -309.001928 
L 155.52 -308.467391 
L 154.8 -307.65668 
L 154.08 -306.813144 
L 153.36 -305.785959 
L 152.64 -305.052659 
L 151.92 -304.275267 
L 151.2 -303.501593 
L 150.48 -302.706194 
L 149.76 -301.89373 
L 149.04 -300.980375 
L 148.32 -300.223774 
L 147.6 -299.423007 
L 146.88 -298.640729 
L 146.16 -297.527205 
L 145.44 -296.531065 
L 144.72 -295.754152 
L 144 -295.030742 
L 143.28 -294.275096 
L 142.56 -293.533619 
L 141.84 -292.808939 
L 141.12 -291.89466 
L 140.4 -290.866586 
L 139.68 -290.267177 
L 138.96 -289.315874 
L 138.24 -288.409533 
L 137.52 -287.405642 
L 136.8 -286.510041 
L 136.08 -285.635938 
L 135.36 -284.728125 
L 134.64 -283.811719 
L 133.92 -283.133553 
L 133.2 -281.954767 
L 132.48 -280.876542 
L 131.76 -280.006513 
L 131.04 -279.240855 
L 130.32 -278.171578 
L 129.6 -277.316054 
L 128.88 -276.240199 
L 128.16 -275.233332 
L 127.44 -274.165079 
L 126.72 -272.896662 
L 126 -271.908858 
L 125.28 -271.294731 
L 124.56 -270.695029 
L 123.84 -269.706545 
L 123.12 -269.004803 
L 122.4 -268.393265 
L 121.68 -267.805892 
L 120.96 -267.209333 
L 120.24 -265.987742 
L 119.52 -264.981048 
L 118.8 -264.307725 
L 118.08 -263.654596 
L 117.36 -262.692298 
L 116.64 -261.817211 
L 115.92 -261.054375 
L 115.2 -260.037671 
L 114.48 -259.079958 
L 113.76 -258.15954 
L 113.04 -257.216801 
L 112.32 -256.420829 
L 111.6 -255.494585 
L 110.88 -254.634059 
L 110.16 -253.522398 
L 109.44 -252.754307 
L 108.72 -252.120804 
L 108 -251.187678 
L 107.28 -250.412594 
L 106.56 -249.757517 
L 105.84 -249.057639 
L 105.12 -248.451337 
L 104.4 -247.539499 
L 103.68 -246.725995 
L 102.96 -245.830266 
L 102.24 -244.965846 
L 101.52 -243.878562 
L 100.8 -243.206346 
L 100.08 -242.391609 
L 99.36 -241.987746 
L 98.64 -241.318168 
L 97.92 -240.395507 
L 97.2 -239.740507 
L 96.48 -239.144859 
L 95.76 -238.547993 
L 95.04 -237.999053 
L 94.32 -237.518709 
L 93.6 -237.205206 
L 92.88 -237.295714 
L 92.16 -238.319785 
L 91.44 -241.691418 
L 90.72 -251.164901 
L 90 -278.598775 
L 89.28 -345.588683 
L 88.56 -345.588349 
L 87.84 -345.587951 
L 87.12 -345.587567 
L 86.4 -345.587134 
z
" style="stroke: #ffffff; stroke-opacity: 0.5"/>
    </defs>
    <g clip-path="url(#pfd4415c722)">
     <use xlink:href="#m642c47866d" x="0" y="432" style="fill: #0173b2; fill-opacity: 0.5; stroke: #ffffff; stroke-opacity: 0.5"/>
    </g>
   </g>
   <g id="line2d_14">
    <path d="M 86.4 110.002816 
L 89.28 109.276047 
L 90 258.559065 
L 90.72 280.929051 
L 91.44 287.219102 
L 92.16 289.301158 
L 92.88 289.914036 
L 93.6 289.937015 
L 95.04 289.404272 
L 97.92 287.855955 
L 103.68 284.43337 
L 112.32 278.7071 
L 123.84 269.952483 
L 130.32 264.529076 
L 133.92 261.391321 
L 144.72 251.370293 
L 154.8 241.428736 
L 159.12 237.073815 
L 173.52 222.258355 
L 194.4 201.042649 
L 201.6 193.996728 
L 213.12 183.220582 
L 223.2 174.3299 
L 231.12 167.755562 
L 238.32 162.086778 
L 245.52 156.722147 
L 252.72 151.676156 
L 258.48 147.846419 
L 264.96 143.773517 
L 273.6 138.706234 
L 280.08 135.166009 
L 287.28 131.493148 
L 295.2 127.743511 
L 303.84 123.989115 
L 311.04 121.109851 
L 318.24 118.439788 
L 326.16 115.733169 
L 334.08 113.251457 
L 342 110.974052 
L 344.88 110.193436 
L 344.88 110.193436 
" clip-path="url(#pfd4415c722)" style="fill: none; stroke: #0173b2; stroke-width: 2; stroke-linecap: round"/>
   </g>
   <g id="patch_3">
    <path d="M 86.4 345.6 
L 86.4 86.4 
" style="fill: none; stroke: #262626; stroke-width: 1.25; stroke-linejoin: miter; stroke-linecap: square"/>
   </g>
   <g id="patch_4">
    <path d="M 86.4 345.6 
L 345.6 345.6 
" style="fill: none; stroke: #262626; stroke-width: 1.25; stroke-linejoin: miter; stroke-linecap: square"/>
   </g>
  </g>
 </g>
 <defs>
  <clipPath id="pfd4415c722">
   <rect x="86.4" y="86.4" width="259.2" height="259.2"/>
  </clipPath>
 </defs>
</svg>
