<?xml version="1.0" encoding="utf-8" standalone="no"?>
<!DOCTYPE svg PUBLIC "-//W3C//DTD SVG 1.1//EN"
  "http://www.w3.org/Graphics/SVG/1.1/DTD/svg11.dtd">
<svg xmlns:xlink="http://www.w3.org/1999/xlink" width="432pt" height="432pt" viewBox="0 0 432 432" xmlns="http://www.w3.org/2000/svg" version="1.1">
 <metadata>
  <rdf:RDF xmlns:dc="http://purl.org/dc/elements/1.1/" xmlns:cc="http://creativecommons.org/ns#" xmlns:rdf="http://www.w3.org/1999/02/22-rdf-syntax-ns#">
   <cc:Work>
    <dc:type rdf:resource="http://purl.org/dc/dcmitype/StillImage"/>
    <dc:date>2024-05-21T12:37:35.553565</dc:date>
    <dc:format>image/svg+xml</dc:format>
    <dc:creator>
     <cc:Agent>
      <dc:title>Matplotlib v3.8.4, https://matplotlib.org/</dc:title>
     </cc:Agent>
    </dc:creator>
   </cc:Work>
  </rdf:RDF>
 </metadata>
 <defs>
  <style type="text/css">*{stroke-linejoin: round; stroke-linecap: butt}</style>
 </defs>
 <g id="figure_1">
  <g id="patch_1">
   <path d="M 0 432 
L 432 432 
L 432 0 
L 0 0 
L 0 432 
z
" style="fill: none"/>
  </g>
  <g id="axes_1">
   <g id="patch_2">
    <path d="M 86.4 345.6 
L 345.6 345.6 
L 345.6 86.4 
L 86.4 86.4 
L 86.4 345.6 
z
" style="fill: none"/>
   </g>
   <g id="matplotlib.axis_1">
    <g id="xtick_1">
     <g id="line2d_1">
      <defs>
       <path id="mf6f0e5f9ea" d="M 0 0 
L 0 6 
" style="stroke: #262626; stroke-width: 1.25"/>
      </defs>
      <g>
       <use xlink:href="#mf6f0e5f9ea" x="86.4" y="345.6" style="fill: #262626; stroke: #262626; stroke-width: 1.25"/>
      </g>
     </g>
     <g id="text_1">
      <text style="fill: #262626; font: 16px 'Arial', 'DejaVu Sans', 'Liberation Sans', 'Bitstream Vera Sans', sans-serif; text-anchor: middle" x="86.4" y="366.5525" transform="rotate(-0 86.4 366.5525)">Jan</text>
     </g>
    </g>
    <g id="xtick_2">
     <g id="line2d_2">
      <g>
       <use xlink:href="#mf6f0e5f9ea" x="97.2" y="345.6" style="fill: #262626; stroke: #262626; stroke-width: 1.25"/>
      </g>
     </g>
    </g>
    <g id="xtick_3">
     <g id="line2d_3">
      <g>
       <use xlink:href="#mf6f0e5f9ea" x="108" y="345.6" style="fill: #262626; stroke: #262626; stroke-width: 1.25"/>
      </g>
     </g>
    </g>
    <g id="xtick_4">
     <g id="line2d_4">
      <g>
       <use xlink:href="#mf6f0e5f9ea" x="118.8" y="345.6" style="fill: #262626; stroke: #262626; stroke-width: 1.25"/>
      </g>
     </g>
     <g id="text_2">
      <text style="fill: #262626; font: 16px 'Arial', 'DejaVu Sans', 'Liberation Sans', 'Bitstream Vera Sans', sans-serif; text-anchor: middle" x="118.8" y="366.5525" transform="rotate(-0 118.8 366.5525)">Apr</text>
     </g>
    </g>
    <g id="xtick_5">
     <g id="line2d_5">
      <g>
       <use xlink:href="#mf6f0e5f9ea" x="129.6" y="345.6" style="fill: #262626; stroke: #262626; stroke-width: 1.25"/>
      </g>
     </g>
    </g>
    <g id="xtick_6">
     <g id="line2d_6">
      <g>
       <use xlink:href="#mf6f0e5f9ea" x="140.4" y="345.6" style="fill: #262626; stroke: #262626; stroke-width: 1.25"/>
      </g>
     </g>
    </g>
    <g id="xtick_7">
     <g id="line2d_7">
      <g>
       <use xlink:href="#mf6f0e5f9ea" x="151.2" y="345.6" style="fill: #262626; stroke: #262626; stroke-width: 1.25"/>
      </g>
     </g>
     <g id="text_3">
      <text style="fill: #262626; font: 16px 'Arial', 'DejaVu Sans', 'Liberation Sans', 'Bitstream Vera Sans', sans-serif; text-anchor: middle" x="151.2" y="366.5525" transform="rotate(-0 151.2 366.5525)">Jul</text>
     </g>
    </g>
    <g id="xtick_8">
     <g id="line2d_8">
      <g>
       <use xlink:href="#mf6f0e5f9ea" x="162" y="345.6" style="fill: #262626; stroke: #262626; stroke-width: 1.25"/>
      </g>
     </g>
    </g>
    <g id="xtick_9">
     <g id="line2d_9">
      <g>
       <use xlink:href="#mf6f0e5f9ea" x="172.8" y="345.6" style="fill: #262626; stroke: #262626; stroke-width: 1.25"/>
      </g>
     </g>
    </g>
    <g id="xtick_10">
     <g id="line2d_10">
      <g>
       <use xlink:href="#mf6f0e5f9ea" x="183.6" y="345.6" style="fill: #262626; stroke: #262626; stroke-width: 1.25"/>
      </g>
     </g>
     <g id="text_4">
      <text style="fill: #262626; font: 16px 'Arial', 'DejaVu Sans', 'Liberation Sans', 'Bitstream Vera Sans', sans-serif; text-anchor: middle" x="183.6" y="366.5525" transform="rotate(-0 183.6 366.5525)">Oct</text>
     </g>
    </g>
    <g id="xtick_11">
     <g id="line2d_11">
      <g>
       <use xlink:href="#mf6f0e5f9ea" x="194.4" y="345.6" style="fill: #262626; stroke: #262626; stroke-width: 1.25"/>
      </g>
     </g>
    </g>
    <g id="xtick_12">
     <g id="line2d_12">
      <g>
       <use xlink:href="#mf6f0e5f9ea" x="205.2" y="345.6" style="fill: #262626; stroke: #262626; stroke-width: 1.25"/>
      </g>
     </g>
    </g>
    <g id="xtick_13">
     <g id="line2d_13">
      <g>
       <use xlink:href="#mf6f0e5f9ea" x="216" y="345.6" style="fill: #262626; stroke: #262626; stroke-width: 1.25"/>
      </g>
     </g>
     <g id="text_5">
      <text style="fill: #262626; font: 16px 'Arial', 'DejaVu Sans', 'Liberation Sans', 'Bitstream Vera Sans', sans-serif; text-anchor: middle" x="216" y="366.5525" transform="rotate(-0 216 366.5525)">Jan</text>
     </g>
    </g>
    <g id="xtick_14">
     <g id="line2d_14">
      <g>
       <use xlink:href="#mf6f0e5f9ea" x="216" y="345.6" style="fill: #262626; stroke: #262626; stroke-width: 1.25"/>
      </g>
     </g>
     <g id="text_6">
      <text style="fill: #262626; font: 16px 'Arial', 'DejaVu Sans', 'Liberation Sans', 'Bitstream Vera Sans', sans-serif; text-anchor: middle" x="216" y="366.5525" transform="rotate(-0 216 366.5525)">Jan</text>
     </g>
    </g>
    <g id="xtick_15">
     <g id="line2d_15">
      <g>
       <use xlink:href="#mf6f0e5f9ea" x="226.8" y="345.6" style="fill: #262626; stroke: #262626; stroke-width: 1.25"/>
      </g>
     </g>
    </g>
    <g id="xtick_16">
     <g id="line2d_16">
      <g>
       <use xlink:href="#mf6f0e5f9ea" x="237.6" y="345.6" style="fill: #262626; stroke: #262626; stroke-width: 1.25"/>
      </g>
     </g>
    </g>
    <g id="xtick_17">
     <g id="line2d_17">
      <g>
       <use xlink:href="#mf6f0e5f9ea" x="248.4" y="345.6" style="fill: #262626; stroke: #262626; stroke-width: 1.25"/>
      </g>
     </g>
     <g id="text_7">
      <text style="fill: #262626; font: 16px 'Arial', 'DejaVu Sans', 'Liberation Sans', 'Bitstream Vera Sans', sans-serif; text-anchor: middle" x="248.4" y="366.5525" transform="rotate(-0 248.4 366.5525)">Apr</text>
     </g>
    </g>
    <g id="xtick_18">
     <g id="line2d_18">
      <g>
       <use xlink:href="#mf6f0e5f9ea" x="259.2" y="345.6" style="fill: #262626; stroke: #262626; stroke-width: 1.25"/>
      </g>
     </g>
    </g>
    <g id="xtick_19">
     <g id="line2d_19">
      <g>
       <use xlink:href="#mf6f0e5f9ea" x="270" y="345.6" style="fill: #262626; stroke: #262626; stroke-width: 1.25"/>
      </g>
     </g>
    </g>
    <g id="xtick_20">
     <g id="line2d_20">
      <g>
       <use xlink:href="#mf6f0e5f9ea" x="280.8" y="345.6" style="fill: #262626; stroke: #262626; stroke-width: 1.25"/>
      </g>
     </g>
     <g id="text_8">
      <text style="fill: #262626; font: 16px 'Arial', 'DejaVu Sans', 'Liberation Sans', 'Bitstream Vera Sans', sans-serif; text-anchor: middle" x="280.8" y="366.5525" transform="rotate(-0 280.8 366.5525)">Jul</text>
     </g>
    </g>
    <g id="xtick_21">
     <g id="line2d_21">
      <g>
       <use xlink:href="#mf6f0e5f9ea" x="291.6" y="345.6" style="fill: #262626; stroke: #262626; stroke-width: 1.25"/>
      </g>
     </g>
    </g>
    <g id="xtick_22">
     <g id="line2d_22">
      <g>
       <use xlink:href="#mf6f0e5f9ea" x="302.4" y="345.6" style="fill: #262626; stroke: #262626; stroke-width: 1.25"/>
      </g>
     </g>
    </g>
    <g id="xtick_23">
     <g id="line2d_23">
      <g>
       <use xlink:href="#mf6f0e5f9ea" x="313.2" y="345.6" style="fill: #262626; stroke: #262626; stroke-width: 1.25"/>
      </g>
     </g>
     <g id="text_9">
      <text style="fill: #262626; font: 16px 'Arial', 'DejaVu Sans', 'Liberation Sans', 'Bitstream Vera Sans', sans-serif; text-anchor: middle" x="313.2" y="366.5525" transform="rotate(-0 313.2 366.5525)">Oct</text>
     </g>
    </g>
    <g id="xtick_24">
     <g id="line2d_24">
      <g>
       <use xlink:href="#mf6f0e5f9ea" x="324" y="345.6" style="fill: #262626; stroke: #262626; stroke-width: 1.25"/>
      </g>
     </g>
    </g>
    <g id="xtick_25">
     <g id="line2d_25">
      <g>
       <use xlink:href="#mf6f0e5f9ea" x="334.8" y="345.6" style="fill: #262626; stroke: #262626; stroke-width: 1.25"/>
      </g>
     </g>
    </g>
    <g id="xtick_26">
     <g id="line2d_26">
      <g>
       <use xlink:href="#mf6f0e5f9ea" x="345.6" y="345.6" style="fill: #262626; stroke: #262626; stroke-width: 1.25"/>
      </g>
     </g>
     <g id="text_10">
      <text style="fill: #262626; font: 16px 'Arial', 'DejaVu Sans', 'Liberation Sans', 'Bitstream Vera Sans', sans-serif; text-anchor: middle" x="345.6" y="366.5525" transform="rotate(-0 345.6 366.5525)">Jan</text>
     </g>
    </g>
    <g id="text_11">
     <text style="fill: #262626; font: 16px 'Arial', 'DejaVu Sans', 'Liberation Sans', 'Bitstream Vera Sans', sans-serif; text-anchor: middle" x="216" y="385.185" transform="rotate(-0 216 385.185)"> </text>
    </g>
   </g>
   <g id="matplotlib.axis_2">
    <g id="ytick_1">
     <g id="line2d_27">
      <defs>
       <path id="mb9c512c5f1" d="M 0 0 
L -6 0 
" style="stroke: #262626; stroke-width: 1.25"/>
      </defs>
      <g>
       <use xlink:href="#mb9c512c5f1" x="86.4" y="345.6" style="fill: #262626; stroke: #262626; stroke-width: 1.25"/>
      </g>
     </g>
     <g id="text_12">
      <text style="fill: #262626; font: 16px 'Arial', 'DejaVu Sans', 'Liberation Sans', 'Bitstream Vera Sans', sans-serif; text-anchor: end" x="76.9" y="351.32625" transform="rotate(-0 76.9 351.32625)">0.0</text>
     </g>
    </g>
    <g id="ytick_2">
     <g id="line2d_28">
      <g>
       <use xlink:href="#mb9c512c5f1" x="86.4" y="293.76" style="fill: #262626; stroke: #262626; stroke-width: 1.25"/>
      </g>
     </g>
     <g id="text_13">
      <text style="fill: #262626; font: 16px 'Arial', 'DejaVu Sans', 'Liberation Sans', 'Bitstream Vera Sans', sans-serif; text-anchor: end" x="76.9" y="299.48625" transform="rotate(-0 76.9 299.48625)">0.2</text>
     </g>
    </g>
    <g id="ytick_3">
     <g id="line2d_29">
      <g>
       <use xlink:href="#mb9c512c5f1" x="86.4" y="241.92" style="fill: #262626; stroke: #262626; stroke-width: 1.25"/>
      </g>
     </g>
     <g id="text_14">
      <text style="fill: #262626; font: 16px 'Arial', 'DejaVu Sans', 'Liberation Sans', 'Bitstream Vera Sans', sans-serif; text-anchor: end" x="76.9" y="247.64625" transform="rotate(-0 76.9 247.64625)">0.4</text>
     </g>
    </g>
    <g id="ytick_4">
     <g id="line2d_30">
      <g>
       <use xlink:href="#mb9c512c5f1" x="86.4" y="190.08" style="fill: #262626; stroke: #262626; stroke-width: 1.25"/>
      </g>
     </g>
     <g id="text_15">
      <text style="fill: #262626; font: 16px 'Arial', 'DejaVu Sans', 'Liberation Sans', 'Bitstream Vera Sans', sans-serif; text-anchor: end" x="76.9" y="195.80625" transform="rotate(-0 76.9 195.80625)">0.6</text>
     </g>
    </g>
    <g id="ytick_5">
     <g id="line2d_31">
      <g>
       <use xlink:href="#mb9c512c5f1" x="86.4" y="138.24" style="fill: #262626; stroke: #262626; stroke-width: 1.25"/>
      </g>
     </g>
     <g id="text_16">
      <text style="fill: #262626; font: 16px 'Arial', 'DejaVu Sans', 'Liberation Sans', 'Bitstream Vera Sans', sans-serif; text-anchor: end" x="76.9" y="143.96625" transform="rotate(-0 76.9 143.96625)">0.8</text>
     </g>
    </g>
    <g id="ytick_6">
     <g id="line2d_32">
      <g>
       <use xlink:href="#mb9c512c5f1" x="86.4" y="86.4" style="fill: #262626; stroke: #262626; stroke-width: 1.25"/>
      </g>
     </g>
     <g id="text_17">
      <text style="fill: #262626; font: 16px 'Arial', 'DejaVu Sans', 'Liberation Sans', 'Bitstream Vera Sans', sans-serif; text-anchor: end" x="76.9" y="92.12625" transform="rotate(-0 76.9 92.12625)">1.0</text>
     </g>
    </g>
    <g id="text_18">
     <text style="fill: #262626; font: 16px 'Arial', 'DejaVu Sans', 'Liberation Sans', 'Bitstream Vera Sans', sans-serif; text-anchor: middle" x="47.48" y="216" transform="rotate(-90 47.48 216)">Outbreak risk</text>
    </g>
   </g>
   <g id="line2d_33">
    <path d="M 86.4 303.64905 
L 89.28 303.887005 
L 92.16 304.334237 
L 95.04 304.994829 
L 97.92 305.874354 
L 100.8 306.979984 
L 103.68 308.320681 
L 106.56 309.907572 
L 109.44 311.754925 
L 112.32 313.882936 
L 114.84 316.001052 
L 117.36 318.399976 
L 119.52 320.731421 
L 121.68 323.3788 
L 123.84 326.385067 
L 126.72 330.83926 
L 129.6 335.211569 
L 131.4 337.510284 
L 132.84 338.997671 
L 134.28 340.166597 
L 135.72 341.049444 
L 137.16 341.693298 
L 138.96 342.232877 
L 140.76 342.546123 
L 142.92 342.693422 
L 145.08 342.636609 
L 147.6 342.335995 
L 149.76 341.874153 
L 151.92 341.2089 
L 154.08 340.323353 
L 156.24 339.205636 
L 158.4 337.854817 
L 160.92 336.002676 
L 163.8 333.578247 
L 167.4 330.227451 
L 179.28 318.916851 
L 182.88 315.907922 
L 186.12 313.464743 
L 189.36 311.289777 
L 192.6 309.389536 
L 195.84 307.764644 
L 199.08 306.412573 
L 201.96 305.436668 
L 204.84 304.670501 
L 207.72 304.111686 
L 210.6 303.758552 
L 213.48 303.610359 
L 216.36 303.667454 
L 219.24 303.931394 
L 222.12 304.405043 
L 225 305.092666 
L 227.88 306.000027 
L 230.76 307.134511 
L 233.64 308.505322 
L 236.52 310.123908 
L 239.4 312.005063 
L 242.28 314.170112 
L 244.8 316.325303 
L 247.32 318.769233 
L 249.48 321.149065 
L 251.64 323.85458 
L 253.8 326.919796 
L 257.76 333.092778 
L 259.92 336.185364 
L 261.36 337.912639 
L 262.8 339.318927 
L 264.24 340.4124 
L 265.68 341.230895 
L 267.12 341.822557 
L 268.92 342.311671 
L 270.72 342.586486 
L 272.88 342.697303 
L 275.4 342.576211 
L 277.92 342.203618 
L 280.08 341.675862 
L 282.24 340.93895 
L 284.4 339.976893 
L 286.56 338.780915 
L 288.72 337.354606 
L 291.24 335.424317 
L 294.12 332.93107 
L 298.08 329.181119 
L 307.44 320.198418 
L 311.4 316.779478 
L 315 313.984881 
L 318.24 311.749475 
L 321.48 309.787973 
L 324.72 308.102034 
L 327.96 306.689645 
L 330.84 305.660877 
L 333.72 304.842521 
L 336.6 304.232057 
L 339.48 303.827611 
L 342.36 303.628195 
L 345.24 303.633871 
L 345.24 303.633871 
" clip-path="url(#p974242170e)" style="fill: none; stroke: #4c72b0; stroke-width: 2; stroke-linecap: round"/>
   </g>
   <g id="line2d_34">
    <path d="M 86.4 216.138574 
L 88.2 216.427618 
L 90 216.918035 
L 91.8 217.613202 
L 93.6 218.51766 
L 95.4 219.637167 
L 97.2 220.978764 
L 99.36 222.893779 
L 101.52 225.158116 
L 103.68 227.792454 
L 105.84 230.821288 
L 108 234.273695 
L 110.16 238.18483 
L 112.32 242.599173 
L 114.48 247.577743 
L 116.64 253.212943 
L 118.44 258.51545 
L 120.24 264.504229 
L 122.04 271.341107 
L 123.84 279.166492 
L 126 289.818567 
L 130.32 311.890422 
L 131.76 317.989441 
L 133.2 323.003655 
L 134.28 326.043043 
L 135.36 328.512126 
L 136.44 330.47717 
L 137.52 332.009543 
L 138.6 333.176146 
L 139.68 334.034577 
L 140.76 334.63151 
L 141.84 335.002926 
L 142.92 335.175201 
L 144 335.166491 
L 145.44 334.89207 
L 146.88 334.327282 
L 148.32 333.471082 
L 149.76 332.313656 
L 151.2 330.840349 
L 152.64 329.035471 
L 154.08 326.885974 
L 155.52 324.384767 
L 157.32 320.766957 
L 159.12 316.628498 
L 161.28 311.04939 
L 163.8 303.864263 
L 167.4 292.8263 
L 174.24 271.73184 
L 177.48 262.533198 
L 180.36 255.031794 
L 182.88 249.043039 
L 185.4 243.60674 
L 187.92 238.720224 
L 190.44 234.370177 
L 192.6 231.054036 
L 194.76 228.104153 
L 196.92 225.506451 
L 199.08 223.247311 
L 201.24 221.314107 
L 203.4 219.695573 
L 205.56 218.382041 
L 207.72 217.365613 
L 209.52 216.741143 
L 211.32 216.316335 
L 213.12 216.089719 
L 214.92 216.060821 
L 216.72 216.230196 
L 218.52 216.599456 
L 220.32 217.171304 
L 222.12 217.949576 
L 223.92 218.939292 
L 225.72 220.146715 
L 227.88 221.893764 
L 230.04 223.981073 
L 232.2 226.4276 
L 234.36 229.255861 
L 236.52 232.492516 
L 238.68 236.169417 
L 240.84 240.325801 
L 243 245.013135 
L 245.16 250.305639 
L 246.96 255.260771 
L 248.76 260.820021 
L 250.56 267.127828 
L 252.36 274.348061 
L 254.16 282.579537 
L 256.32 293.584541 
L 259.56 310.21432 
L 261 316.562335 
L 262.44 321.854878 
L 263.52 325.096146 
L 264.6 327.748601 
L 265.68 329.873731 
L 266.76 331.542535 
L 267.84 332.824145 
L 268.92 333.779566 
L 270 334.459156 
L 271.08 334.902367 
L 272.16 335.138629 
L 273.24 335.18868 
L 274.32 335.065965 
L 275.76 334.645784 
L 277.2 333.936063 
L 278.64 332.93087 
L 280.08 331.617488 
L 281.52 329.980275 
L 282.96 328.004418 
L 284.4 325.679466 
L 286.2 322.278591 
L 288 318.343615 
L 290.16 312.976738 
L 292.68 305.978265 
L 295.92 296.194959 
L 304.56 269.62537 
L 307.8 260.594532 
L 310.68 253.264787 
L 313.2 247.433298 
L 315.72 242.154921 
L 318.24 237.423375 
L 320.4 233.791458 
L 322.56 230.537336 
L 324.72 227.647123 
L 326.88 225.106772 
L 329.04 222.902798 
L 331.2 221.022782 
L 333.36 219.455706 
L 335.52 218.19219 
L 337.68 217.224642 
L 339.48 216.64027 
L 341.28 216.255186 
L 343.08 216.068119 
L 344.88 216.078798 
L 345.24 216.104712 
L 345.24 216.104712 
" clip-path="url(#p974242170e)" style="fill: none; stroke: #dd8452; stroke-width: 2; stroke-linecap: round"/>
   </g>
   <g id="line2d_35">
    <path d="M 86.4 172.932555 
L 88.2 173.240642 
L 90 173.773249 
L 91.8 174.535358 
L 93.6 175.533837 
L 95.4 176.777546 
L 97.2 178.277465 
L 99 180.04685 
L 100.8 182.10143 
L 102.6 184.459636 
L 104.4 187.142901 
L 106.2 190.176048 
L 108 193.587855 
L 109.8 197.411973 
L 111.6 201.688595 
L 113.4 206.467754 
L 115.2 211.815824 
L 117 217.827571 
L 118.8 224.645107 
L 120.6 232.478247 
L 122.04 239.659575 
L 123.48 247.806832 
L 125.28 259.437732 
L 127.44 275.072988 
L 130.32 295.859792 
L 131.76 304.766991 
L 133.2 312.142655 
L 134.28 316.631706 
L 135.36 320.28666 
L 136.44 323.200059 
L 137.52 325.47469 
L 138.6 327.208304 
L 139.68 328.485713 
L 140.76 329.375982 
L 141.84 329.932551 
L 142.92 330.194748 
L 144 330.189791 
L 145.08 329.934829 
L 146.16 329.438823 
L 147.24 328.704243 
L 148.32 327.728613 
L 149.4 326.505957 
L 150.84 324.477378 
L 152.28 321.97459 
L 153.72 318.980223 
L 155.16 315.485243 
L 156.96 310.419272 
L 158.76 304.618306 
L 160.92 296.8015 
L 163.44 286.761383 
L 167.4 269.890552 
L 172.44 248.539252 
L 175.32 237.199655 
L 177.84 228.038705 
L 180.36 219.668652 
L 182.88 212.113987 
L 185.04 206.280789 
L 187.2 201.020771 
L 189.36 196.308022 
L 191.52 192.113182 
L 193.68 188.405886 
L 195.84 185.156446 
L 198 182.33697 
L 200.16 179.922076 
L 202.32 177.889317 
L 204.12 176.473258 
L 205.92 175.299723 
L 207.72 174.360919 
L 209.52 173.650674 
L 211.32 173.164449 
L 213.12 172.899335 
L 214.92 172.854076 
L 216.72 173.02909 
L 218.52 173.426505 
L 220.32 174.050211 
L 222.12 174.905935 
L 223.92 176.001327 
L 225.72 177.346079 
L 227.52 178.95206 
L 229.32 180.83349 
L 231.12 183.007148 
L 232.92 185.492626 
L 234.72 188.312659 
L 236.52 191.49357 
L 238.32 195.065946 
L 240.12 199.06579 
L 241.92 203.536702 
L 243.72 208.534214 
L 245.52 214.134225 
L 247.32 220.447826 
L 249.12 227.64222 
L 250.92 235.956266 
L 252.36 243.605414 
L 253.8 252.269494 
L 255.6 264.497493 
L 261 302.675875 
L 262.44 310.449287 
L 263.52 315.231895 
L 264.6 319.15571 
L 265.68 322.304983 
L 266.76 324.781203 
L 267.84 326.684997 
L 268.92 328.106005 
L 270 329.118634 
L 271.08 329.781409 
L 272.16 330.138151 
L 273.24 330.219883 
L 274.32 330.046893 
L 275.4 329.630673 
L 276.48 328.975679 
L 277.56 328.080919 
L 278.64 326.941427 
L 280.08 325.028188 
L 281.52 322.645799 
L 282.96 319.77558 
L 284.4 316.405975 
L 285.84 312.537019 
L 287.64 307.022644 
L 289.44 300.816516 
L 291.6 292.600383 
L 294.48 280.720216 
L 303.48 242.763475 
L 306.36 231.870991 
L 308.88 223.156454 
L 311.4 215.251866 
L 313.56 209.124341 
L 315.72 203.580637 
L 317.88 198.597775 
L 320.04 194.147761 
L 322.2 190.200478 
L 324.36 186.725729 
L 326.52 183.694614 
L 328.68 181.080426 
L 330.84 178.859211 
L 332.64 177.293225 
L 334.44 175.975214 
L 336.24 174.896416 
L 338.04 174.049685 
L 339.84 173.429501 
L 341.64 173.031977 
L 343.44 172.854863 
L 345.24 172.897569 
L 345.24 172.897569 
" clip-path="url(#p974242170e)" style="fill: none; stroke: #55a868; stroke-width: 2; stroke-linecap: round"/>
   </g>
   <g id="line2d_36">
    <path d="M 86.4 109.621187 
L 88.56 109.883604 
L 90.72 110.38616 
L 92.88 111.142496 
L 95.04 112.172944 
L 96.84 113.260824 
L 98.64 114.578663 
L 100.44 116.151489 
L 102.24 118.009499 
L 104.04 120.188807 
L 105.84 122.732351 
L 107.64 125.69103 
L 109.44 129.125163 
L 111.24 133.106568 
L 113.04 137.721955 
L 114.84 143.079461 
L 116.28 147.994337 
L 117.72 153.575535 
L 119.16 159.965501 
L 120.6 167.370036 
L 122.04 176.076338 
L 123.48 186.440416 
L 124.92 198.796954 
L 126.36 213.255462 
L 128.52 237.894993 
L 131.04 266.589363 
L 132.48 280.597518 
L 133.56 289.438644 
L 134.64 296.807443 
L 135.72 302.794434 
L 136.8 307.551508 
L 137.88 311.248587 
L 138.96 314.046771 
L 140.04 316.085032 
L 140.76 317.078305 
L 141.48 317.811109 
L 142.2 318.305377 
L 142.92 318.578649 
L 143.64 318.644544 
L 144.36 318.513227 
L 145.08 318.191862 
L 145.8 317.685029 
L 146.88 316.581764 
L 147.96 315.066981 
L 149.04 313.134996 
L 150.12 310.776201 
L 151.2 307.979575 
L 152.64 303.552874 
L 154.08 298.31717 
L 155.52 292.278443 
L 157.32 283.651873 
L 159.12 273.948162 
L 161.64 258.932495 
L 165.6 233.536579 
L 169.92 206.23862 
L 172.44 191.613849 
L 174.96 178.358961 
L 177.12 168.193928 
L 179.28 159.146374 
L 181.44 151.178095 
L 183.24 145.313263 
L 185.04 140.101302 
L 186.84 135.48932 
L 188.64 131.423764 
L 190.44 127.852581 
L 192.24 124.726626 
L 194.04 122.000523 
L 195.84 119.633106 
L 197.64 117.587582 
L 199.44 115.831504 
L 201.24 114.336623 
L 203.4 112.853646 
L 205.56 111.677197 
L 207.72 110.779599 
L 209.88 110.139823 
L 212.04 109.743053 
L 214.2 109.580379 
L 216.36 109.648637 
L 218.52 109.950397 
L 220.68 110.494129 
L 222.84 111.294548 
L 225 112.373167 
L 226.8 113.505263 
L 228.6 114.871941 
L 230.4 116.499211 
L 232.2 118.418387 
L 234 120.66687 
L 235.8 123.289092 
L 237.6 126.337704 
L 239.4 129.875131 
L 241.2 133.975833 
L 243 138.730131 
L 244.8 144.25176 
L 246.24 149.322469 
L 247.68 155.090426 
L 249.12 161.711766 
L 250.56 169.41151 
L 252 178.497352 
L 253.44 189.332601 
L 254.88 202.219086 
L 256.32 217.16802 
L 258.84 246.378258 
L 261 270.310966 
L 262.44 283.709554 
L 263.52 292.055878 
L 264.6 298.949916 
L 265.68 304.508437 
L 266.76 308.893332 
L 267.84 312.273803 
L 268.92 314.80452 
L 270 316.615782 
L 270.72 317.475786 
L 271.44 318.086866 
L 272.16 318.4687 
L 272.88 318.636808 
L 273.6 318.603024 
L 274.32 318.375958 
L 275.04 317.961432 
L 276.12 316.995124 
L 277.2 315.617878 
L 278.28 313.825887 
L 279.36 311.610568 
L 280.44 308.961095 
L 281.88 304.735143 
L 283.32 299.702013 
L 284.76 293.862157 
L 286.56 285.468419 
L 288.36 275.966668 
L 290.52 263.360918 
L 293.76 242.881404 
L 299.52 206.23862 
L 302.04 191.613849 
L 304.56 178.358961 
L 306.72 168.193928 
L 308.88 159.146374 
L 311.04 151.178095 
L 312.84 145.313263 
L 314.64 140.101302 
L 316.44 135.48932 
L 318.24 131.423764 
L 320.04 127.852581 
L 321.84 124.726626 
L 323.64 122.000523 
L 325.44 119.633106 
L 327.24 117.587582 
L 329.04 115.831504 
L 330.84 114.336623 
L 333 112.853646 
L 335.16 111.677197 
L 337.32 110.779599 
L 339.48 110.139823 
L 341.64 109.743053 
L 343.8 109.580379 
L 345.24 109.600186 
L 345.24 109.600186 
" clip-path="url(#p974242170e)" style="fill: none; stroke: #c44e52; stroke-width: 2; stroke-linecap: round"/>
   </g>
   <g id="line2d_37">
    <path d="M 86.4 102.629486 
L 88.56 102.850924 
L 90.72 103.279911 
L 92.88 103.930134 
L 95.04 104.822193 
L 97.2 105.984439 
L 99 107.18593 
L 100.8 108.627678 
L 102.6 110.342357 
L 104.4 112.369249 
L 106.2 114.755338 
L 108 117.556649 
L 109.8 120.839979 
L 111.6 124.685297 
L 113.4 129.189621 
L 114.84 133.348059 
L 116.28 138.084862 
L 117.72 143.50579 
L 119.16 149.760005 
L 120.6 157.065051 
L 122.04 165.731398 
L 123.48 176.158475 
L 124.92 188.747934 
L 126.36 203.683879 
L 128.16 225.074629 
L 131.4 264.184768 
L 132.84 278.619084 
L 133.92 287.634521 
L 135 295.091878 
L 136.08 301.110309 
L 137.16 305.861182 
L 138.24 309.525798 
L 139.32 312.27082 
L 140.4 314.237092 
L 141.12 315.171824 
L 141.84 315.837204 
L 142.56 316.254604 
L 143.28 316.440906 
L 144 316.409016 
L 144.72 316.168357 
L 145.44 315.725345 
L 146.16 315.083831 
L 147.24 313.752615 
L 148.32 311.976981 
L 149.4 309.749721 
L 150.48 307.060416 
L 151.92 302.737352 
L 153.36 297.554979 
L 154.8 291.511454 
L 156.6 282.784491 
L 158.4 272.863817 
L 160.56 259.654801 
L 163.8 238.130406 
L 169.2 201.924672 
L 171.72 186.45474 
L 173.88 174.368318 
L 176.04 163.487237 
L 178.2 153.838424 
L 180 146.715414 
L 181.8 140.382587 
L 183.6 134.785635 
L 185.4 129.863855 
L 187.2 125.554439 
L 189 121.795519 
L 190.8 118.528207 
L 192.6 115.69786 
L 194.4 113.254757 
L 196.2 111.154383 
L 198 109.357419 
L 199.8 107.829573 
L 201.96 106.310104 
L 204.12 105.093124 
L 206.28 104.144248 
L 208.44 103.436655 
L 210.6 102.950431 
L 212.76 102.672059 
L 214.92 102.594066 
L 217.08 102.714864 
L 219.24 103.038773 
L 221.4 103.576251 
L 223.56 104.344355 
L 225.72 105.367439 
L 227.88 106.678132 
L 229.68 108.020194 
L 231.48 109.621379 
L 233.28 111.518206 
L 235.08 113.754434 
L 236.88 116.382288 
L 238.68 119.464017 
L 240.48 123.073966 
L 242.28 127.301711 
L 243.72 131.201985 
L 245.16 135.63833 
L 246.6 140.701765 
L 248.04 146.517073 
L 249.48 153.264147 
L 250.92 161.204731 
L 252.36 170.697923 
L 253.8 182.162788 
L 255.24 195.928099 
L 256.68 211.953606 
L 262.08 275.261844 
L 263.16 284.805808 
L 264.24 292.773439 
L 265.32 299.253997 
L 266.4 304.407073 
L 267.48 308.414198 
L 268.56 311.448708 
L 269.64 313.660688 
L 270.36 314.739652 
L 271.08 315.536736 
L 271.8 316.075747 
L 272.52 316.375748 
L 273.24 316.45157 
L 273.96 316.314317 
L 274.68 315.971849 
L 275.4 315.429248 
L 276.48 314.245523 
L 277.56 312.618591 
L 278.64 310.542929 
L 279.72 308.008882 
L 280.8 305.005409 
L 282.24 300.2542 
L 283.68 294.640071 
L 285.12 288.172903 
L 286.92 278.950503 
L 289.08 266.414336 
L 291.6 250.263197 
L 300.96 188.579946 
L 303.48 174.368318 
L 305.64 163.487237 
L 307.8 153.838424 
L 309.6 146.715414 
L 311.4 140.382587 
L 313.2 134.785635 
L 315 129.863855 
L 316.8 125.554439 
L 318.6 121.795519 
L 320.4 118.528207 
L 322.2 115.69786 
L 324 113.254757 
L 325.8 111.154383 
L 327.6 109.357419 
L 329.4 107.829573 
L 331.56 106.310104 
L 333.72 105.093124 
L 335.88 104.144248 
L 338.04 103.436655 
L 340.2 102.950431 
L 342.36 102.672059 
L 344.52 102.594066 
L 345.24 102.612154 
L 345.24 102.612154 
" clip-path="url(#p974242170e)" style="fill: none; stroke: #8172b3; stroke-width: 2; stroke-linecap: round"/>
   </g>
   <g id="patch_3">
    <path d="M 86.4 345.6 
L 86.4 86.4 
" style="fill: none; stroke: #262626; stroke-width: 1.25; stroke-linejoin: miter; stroke-linecap: square"/>
   </g>
   <g id="patch_4">
    <path d="M 86.4 345.6 
L 345.6 345.6 
" style="fill: none; stroke: #262626; stroke-width: 1.25; stroke-linejoin: miter; stroke-linecap: square"/>
   </g>
   <g id="legend_1">
    <g id="patch_5">
     <path d="M 243.54 196.617187 
L 335.8 196.617187 
Q 338.6 196.617187 338.6 193.817187 
L 338.6 96.2 
Q 338.6 93.4 335.8 93.4 
L 243.54 93.4 
Q 240.74 93.4 240.74 96.2 
L 240.74 193.817187 
Q 240.74 196.617187 243.54 196.617187 
z
" style="fill: #ffffff; opacity: 0.8; stroke: #cccccc; stroke-linejoin: miter"/>
    </g>
    <g id="line2d_38">
     <path d="M 246.34 104.120937 
L 260.34 104.120937 
L 274.34 104.120937 
" style="fill: none; stroke: #4c72b0; stroke-width: 2; stroke-linecap: round"/>
    </g>
    <g id="text_19">
     <!-- $\it{k}$ = 0.1 -->
     <g style="fill: #262626" transform="translate(285.54 109.020937)">
      <text>
       <tspan style="font: oblique 14px 'DejaVu Sans'" x="0" y="-0.359375">k</tspan>
       <tspan style="font: 14px 'Arial'" x="8.107422 11.99707 20.172852 24.0625 31.848633 35.738281" y="-0.359375"> = 0.1</tspan>
      </text>
     </g>
    </g>
    <g id="line2d_39">
     <path d="M 246.34 123.924375 
L 260.34 123.924375 
L 274.34 123.924375 
" style="fill: none; stroke: #dd8452; stroke-width: 2; stroke-linecap: round"/>
    </g>
    <g id="text_20">
     <!-- $\it{k}$ = 0.5 -->
     <g style="fill: #262626" transform="translate(285.54 128.824375)">
      <text>
       <tspan style="font: oblique 14px 'DejaVu Sans'" x="0" y="-0.359375">k</tspan>
       <tspan style="font: 14px 'Arial'" x="8.107422 11.99707 20.172852 24.0625 31.848633 35.738281" y="-0.359375"> = 0.5</tspan>
      </text>
     </g>
    </g>
    <g id="line2d_40">
     <path d="M 246.34 143.727812 
L 260.34 143.727812 
L 274.34 143.727812 
" style="fill: none; stroke: #55a868; stroke-width: 2; stroke-linecap: round"/>
    </g>
    <g id="text_21">
     <!-- $\it{k}$ = 1 -->
     <g style="fill: #262626" transform="translate(285.54 148.627812)">
      <text>
       <tspan style="font: oblique 14px 'DejaVu Sans'" x="0" y="-0.359375">k</tspan>
       <tspan style="font: 14px 'Arial'" x="8.107422 11.99707 20.172852 24.0625" y="-0.359375"> = 1</tspan>
      </text>
     </g>
    </g>
    <g id="line2d_41">
     <path d="M 246.34 163.53125 
L 260.34 163.53125 
L 274.34 163.53125 
" style="fill: none; stroke: #c44e52; stroke-width: 2; stroke-linecap: round"/>
    </g>
    <g id="text_22">
     <!-- $\it{k}$ = 10 -->
     <g style="fill: #262626" transform="translate(285.54 168.43125)">
      <text>
       <tspan style="font: oblique 14px 'DejaVu Sans'" x="0" y="-0.359375">k</tspan>
       <tspan style="font: 14px 'Arial'" x="8.107422 11.99707 20.172852 24.0625 31.848633" y="-0.359375"> = 10</tspan>
      </text>
     </g>
    </g>
    <g id="line2d_42">
     <path d="M 246.34 183.334687 
L 260.34 183.334687 
L 274.34 183.334687 
" style="fill: none; stroke: #8172b3; stroke-width: 2; stroke-linecap: round"/>
    </g>
    <g id="text_23">
     <!-- $\it{k}$ = 100 -->
     <g style="fill: #262626" transform="translate(285.54 188.234687)">
      <text>
       <tspan style="font: oblique 14px 'DejaVu Sans'" x="0" y="-0.359375">k</tspan>
       <tspan style="font: 14px 'Arial'" x="8.107422 11.99707 20.172852 24.0625 31.848633 39.634766" y="-0.359375"> = 100</tspan>
      </text>
     </g>
    </g>
   </g>
  </g>
 </g>
 <defs>
  <clipPath id="p974242170e">
   <rect x="86.4" y="86.4" width="259.2" height="259.2"/>
  </clipPath>
 </defs>
</svg>
