<?xml version="1.0" encoding="utf-8" standalone="no"?>
<!DOCTYPE svg PUBLIC "-//W3C//DTD SVG 1.1//EN"
  "http://www.w3.org/Graphics/SVG/1.1/DTD/svg11.dtd">
<svg xmlns:xlink="http://www.w3.org/1999/xlink" width="432pt" height="432pt" viewBox="0 0 432 432" xmlns="http://www.w3.org/2000/svg" version="1.1">
 <metadata>
  <rdf:RDF xmlns:dc="http://purl.org/dc/elements/1.1/" xmlns:cc="http://creativecommons.org/ns#" xmlns:rdf="http://www.w3.org/1999/02/22-rdf-syntax-ns#">
   <cc:Work>
    <dc:type rdf:resource="http://purl.org/dc/dcmitype/StillImage"/>
    <dc:date>2024-05-15T12:17:31.489466</dc:date>
    <dc:format>image/svg+xml</dc:format>
    <dc:creator>
     <cc:Agent>
      <dc:title>Matplotlib v3.8.4, https://matplotlib.org/</dc:title>
     </cc:Agent>
    </dc:creator>
   </cc:Work>
  </rdf:RDF>
 </metadata>
 <defs>
  <style type="text/css">*{stroke-linejoin: round; stroke-linecap: butt}</style>
 </defs>
 <g id="figure_1">
  <g id="patch_1">
   <path d="M 0 432 
L 432 432 
L 432 0 
L 0 0 
L 0 432 
z
" style="fill: none"/>
  </g>
  <g id="axes_1">
   <g id="patch_2">
    <path d="M 86.4 345.6 
L 345.6 345.6 
L 345.6 86.4 
L 86.4 86.4 
L 86.4 345.6 
z
" style="fill: none"/>
   </g>
   <g id="matplotlib.axis_1">
    <g id="xtick_1">
     <g id="line2d_1">
      <defs>
       <path id="m29bf6644ff" d="M 0 0 
L 0 6 
" style="stroke: #262626; stroke-width: 1.25"/>
      </defs>
      <g>
       <use xlink:href="#m29bf6644ff" x="86.4" y="345.6" style="fill: #262626; stroke: #262626; stroke-width: 1.25"/>
      </g>
     </g>
     <g id="text_1">
      <text style="fill: #262626; font: 16px 'Arial', 'DejaVu Sans', 'Liberation Sans', 'Bitstream Vera Sans', sans-serif; text-anchor: middle" x="86.4" y="366.5525" transform="rotate(-0 86.4 366.5525)">Jan</text>
     </g>
    </g>
    <g id="xtick_2">
     <g id="line2d_2">
      <g>
       <use xlink:href="#m29bf6644ff" x="97.2" y="345.6" style="fill: #262626; stroke: #262626; stroke-width: 1.25"/>
      </g>
     </g>
    </g>
    <g id="xtick_3">
     <g id="line2d_3">
      <g>
       <use xlink:href="#m29bf6644ff" x="108" y="345.6" style="fill: #262626; stroke: #262626; stroke-width: 1.25"/>
      </g>
     </g>
    </g>
    <g id="xtick_4">
     <g id="line2d_4">
      <g>
       <use xlink:href="#m29bf6644ff" x="118.8" y="345.6" style="fill: #262626; stroke: #262626; stroke-width: 1.25"/>
      </g>
     </g>
     <g id="text_2">
      <text style="fill: #262626; font: 16px 'Arial', 'DejaVu Sans', 'Liberation Sans', 'Bitstream Vera Sans', sans-serif; text-anchor: middle" x="118.8" y="366.5525" transform="rotate(-0 118.8 366.5525)">Apr</text>
     </g>
    </g>
    <g id="xtick_5">
     <g id="line2d_5">
      <g>
       <use xlink:href="#m29bf6644ff" x="129.6" y="345.6" style="fill: #262626; stroke: #262626; stroke-width: 1.25"/>
      </g>
     </g>
    </g>
    <g id="xtick_6">
     <g id="line2d_6">
      <g>
       <use xlink:href="#m29bf6644ff" x="140.4" y="345.6" style="fill: #262626; stroke: #262626; stroke-width: 1.25"/>
      </g>
     </g>
    </g>
    <g id="xtick_7">
     <g id="line2d_7">
      <g>
       <use xlink:href="#m29bf6644ff" x="151.2" y="345.6" style="fill: #262626; stroke: #262626; stroke-width: 1.25"/>
      </g>
     </g>
     <g id="text_3">
      <text style="fill: #262626; font: 16px 'Arial', 'DejaVu Sans', 'Liberation Sans', 'Bitstream Vera Sans', sans-serif; text-anchor: middle" x="151.2" y="366.5525" transform="rotate(-0 151.2 366.5525)">Jul</text>
     </g>
    </g>
    <g id="xtick_8">
     <g id="line2d_8">
      <g>
       <use xlink:href="#m29bf6644ff" x="162" y="345.6" style="fill: #262626; stroke: #262626; stroke-width: 1.25"/>
      </g>
     </g>
    </g>
    <g id="xtick_9">
     <g id="line2d_9">
      <g>
       <use xlink:href="#m29bf6644ff" x="172.8" y="345.6" style="fill: #262626; stroke: #262626; stroke-width: 1.25"/>
      </g>
     </g>
    </g>
    <g id="xtick_10">
     <g id="line2d_10">
      <g>
       <use xlink:href="#m29bf6644ff" x="183.6" y="345.6" style="fill: #262626; stroke: #262626; stroke-width: 1.25"/>
      </g>
     </g>
     <g id="text_4">
      <text style="fill: #262626; font: 16px 'Arial', 'DejaVu Sans', 'Liberation Sans', 'Bitstream Vera Sans', sans-serif; text-anchor: middle" x="183.6" y="366.5525" transform="rotate(-0 183.6 366.5525)">Oct</text>
     </g>
    </g>
    <g id="xtick_11">
     <g id="line2d_11">
      <g>
       <use xlink:href="#m29bf6644ff" x="194.4" y="345.6" style="fill: #262626; stroke: #262626; stroke-width: 1.25"/>
      </g>
     </g>
    </g>
    <g id="xtick_12">
     <g id="line2d_12">
      <g>
       <use xlink:href="#m29bf6644ff" x="205.2" y="345.6" style="fill: #262626; stroke: #262626; stroke-width: 1.25"/>
      </g>
     </g>
    </g>
    <g id="xtick_13">
     <g id="line2d_13">
      <g>
       <use xlink:href="#m29bf6644ff" x="216" y="345.6" style="fill: #262626; stroke: #262626; stroke-width: 1.25"/>
      </g>
     </g>
     <g id="text_5">
      <text style="fill: #262626; font: 16px 'Arial', 'DejaVu Sans', 'Liberation Sans', 'Bitstream Vera Sans', sans-serif; text-anchor: middle" x="216" y="366.5525" transform="rotate(-0 216 366.5525)">Jan</text>
     </g>
    </g>
    <g id="xtick_14">
     <g id="line2d_14">
      <g>
       <use xlink:href="#m29bf6644ff" x="216" y="345.6" style="fill: #262626; stroke: #262626; stroke-width: 1.25"/>
      </g>
     </g>
     <g id="text_6">
      <text style="fill: #262626; font: 16px 'Arial', 'DejaVu Sans', 'Liberation Sans', 'Bitstream Vera Sans', sans-serif; text-anchor: middle" x="216" y="366.5525" transform="rotate(-0 216 366.5525)">Jan</text>
     </g>
    </g>
    <g id="xtick_15">
     <g id="line2d_15">
      <g>
       <use xlink:href="#m29bf6644ff" x="226.8" y="345.6" style="fill: #262626; stroke: #262626; stroke-width: 1.25"/>
      </g>
     </g>
    </g>
    <g id="xtick_16">
     <g id="line2d_16">
      <g>
       <use xlink:href="#m29bf6644ff" x="237.6" y="345.6" style="fill: #262626; stroke: #262626; stroke-width: 1.25"/>
      </g>
     </g>
    </g>
    <g id="xtick_17">
     <g id="line2d_17">
      <g>
       <use xlink:href="#m29bf6644ff" x="248.4" y="345.6" style="fill: #262626; stroke: #262626; stroke-width: 1.25"/>
      </g>
     </g>
     <g id="text_7">
      <text style="fill: #262626; font: 16px 'Arial', 'DejaVu Sans', 'Liberation Sans', 'Bitstream Vera Sans', sans-serif; text-anchor: middle" x="248.4" y="366.5525" transform="rotate(-0 248.4 366.5525)">Apr</text>
     </g>
    </g>
    <g id="xtick_18">
     <g id="line2d_18">
      <g>
       <use xlink:href="#m29bf6644ff" x="259.2" y="345.6" style="fill: #262626; stroke: #262626; stroke-width: 1.25"/>
      </g>
     </g>
    </g>
    <g id="xtick_19">
     <g id="line2d_19">
      <g>
       <use xlink:href="#m29bf6644ff" x="270" y="345.6" style="fill: #262626; stroke: #262626; stroke-width: 1.25"/>
      </g>
     </g>
    </g>
    <g id="xtick_20">
     <g id="line2d_20">
      <g>
       <use xlink:href="#m29bf6644ff" x="280.8" y="345.6" style="fill: #262626; stroke: #262626; stroke-width: 1.25"/>
      </g>
     </g>
     <g id="text_8">
      <text style="fill: #262626; font: 16px 'Arial', 'DejaVu Sans', 'Liberation Sans', 'Bitstream Vera Sans', sans-serif; text-anchor: middle" x="280.8" y="366.5525" transform="rotate(-0 280.8 366.5525)">Jul</text>
     </g>
    </g>
    <g id="xtick_21">
     <g id="line2d_21">
      <g>
       <use xlink:href="#m29bf6644ff" x="291.6" y="345.6" style="fill: #262626; stroke: #262626; stroke-width: 1.25"/>
      </g>
     </g>
    </g>
    <g id="xtick_22">
     <g id="line2d_22">
      <g>
       <use xlink:href="#m29bf6644ff" x="302.4" y="345.6" style="fill: #262626; stroke: #262626; stroke-width: 1.25"/>
      </g>
     </g>
    </g>
    <g id="xtick_23">
     <g id="line2d_23">
      <g>
       <use xlink:href="#m29bf6644ff" x="313.2" y="345.6" style="fill: #262626; stroke: #262626; stroke-width: 1.25"/>
      </g>
     </g>
     <g id="text_9">
      <text style="fill: #262626; font: 16px 'Arial', 'DejaVu Sans', 'Liberation Sans', 'Bitstream Vera Sans', sans-serif; text-anchor: middle" x="313.2" y="366.5525" transform="rotate(-0 313.2 366.5525)">Oct</text>
     </g>
    </g>
    <g id="xtick_24">
     <g id="line2d_24">
      <g>
       <use xlink:href="#m29bf6644ff" x="324" y="345.6" style="fill: #262626; stroke: #262626; stroke-width: 1.25"/>
      </g>
     </g>
    </g>
    <g id="xtick_25">
     <g id="line2d_25">
      <g>
       <use xlink:href="#m29bf6644ff" x="334.8" y="345.6" style="fill: #262626; stroke: #262626; stroke-width: 1.25"/>
      </g>
     </g>
    </g>
    <g id="xtick_26">
     <g id="line2d_26">
      <g>
       <use xlink:href="#m29bf6644ff" x="345.6" y="345.6" style="fill: #262626; stroke: #262626; stroke-width: 1.25"/>
      </g>
     </g>
     <g id="text_10">
      <text style="fill: #262626; font: 16px 'Arial', 'DejaVu Sans', 'Liberation Sans', 'Bitstream Vera Sans', sans-serif; text-anchor: middle" x="345.6" y="366.5525" transform="rotate(-0 345.6 366.5525)">Jan</text>
     </g>
    </g>
    <g id="text_11">
     <text style="fill: #262626; font: 16px 'Arial', 'DejaVu Sans', 'Liberation Sans', 'Bitstream Vera Sans', sans-serif; text-anchor: middle" x="216" y="385.185" transform="rotate(-0 216 385.185)"> </text>
    </g>
   </g>
   <g id="matplotlib.axis_2">
    <g id="ytick_1">
     <g id="line2d_27">
      <defs>
       <path id="m72a39f2a9f" d="M 0 0 
L -6 0 
" style="stroke: #262626; stroke-width: 1.25"/>
      </defs>
      <g>
       <use xlink:href="#m72a39f2a9f" x="86.4" y="345.6" style="fill: #262626; stroke: #262626; stroke-width: 1.25"/>
      </g>
     </g>
     <g id="text_12">
      <text style="fill: #262626; font: 16px 'Arial', 'DejaVu Sans', 'Liberation Sans', 'Bitstream Vera Sans', sans-serif; text-anchor: end" x="76.9" y="351.32625" transform="rotate(-0 76.9 351.32625)">0.0</text>
     </g>
    </g>
    <g id="ytick_2">
     <g id="line2d_28">
      <g>
       <use xlink:href="#m72a39f2a9f" x="86.4" y="293.76" style="fill: #262626; stroke: #262626; stroke-width: 1.25"/>
      </g>
     </g>
     <g id="text_13">
      <text style="fill: #262626; font: 16px 'Arial', 'DejaVu Sans', 'Liberation Sans', 'Bitstream Vera Sans', sans-serif; text-anchor: end" x="76.9" y="299.48625" transform="rotate(-0 76.9 299.48625)">0.2</text>
     </g>
    </g>
    <g id="ytick_3">
     <g id="line2d_29">
      <g>
       <use xlink:href="#m72a39f2a9f" x="86.4" y="241.92" style="fill: #262626; stroke: #262626; stroke-width: 1.25"/>
      </g>
     </g>
     <g id="text_14">
      <text style="fill: #262626; font: 16px 'Arial', 'DejaVu Sans', 'Liberation Sans', 'Bitstream Vera Sans', sans-serif; text-anchor: end" x="76.9" y="247.64625" transform="rotate(-0 76.9 247.64625)">0.4</text>
     </g>
    </g>
    <g id="ytick_4">
     <g id="line2d_30">
      <g>
       <use xlink:href="#m72a39f2a9f" x="86.4" y="190.08" style="fill: #262626; stroke: #262626; stroke-width: 1.25"/>
      </g>
     </g>
     <g id="text_15">
      <text style="fill: #262626; font: 16px 'Arial', 'DejaVu Sans', 'Liberation Sans', 'Bitstream Vera Sans', sans-serif; text-anchor: end" x="76.9" y="195.80625" transform="rotate(-0 76.9 195.80625)">0.6</text>
     </g>
    </g>
    <g id="ytick_5">
     <g id="line2d_31">
      <g>
       <use xlink:href="#m72a39f2a9f" x="86.4" y="138.24" style="fill: #262626; stroke: #262626; stroke-width: 1.25"/>
      </g>
     </g>
     <g id="text_16">
      <text style="fill: #262626; font: 16px 'Arial', 'DejaVu Sans', 'Liberation Sans', 'Bitstream Vera Sans', sans-serif; text-anchor: end" x="76.9" y="143.96625" transform="rotate(-0 76.9 143.96625)">0.8</text>
     </g>
    </g>
    <g id="ytick_6">
     <g id="line2d_32">
      <g>
       <use xlink:href="#m72a39f2a9f" x="86.4" y="86.4" style="fill: #262626; stroke: #262626; stroke-width: 1.25"/>
      </g>
     </g>
     <g id="text_17">
      <text style="fill: #262626; font: 16px 'Arial', 'DejaVu Sans', 'Liberation Sans', 'Bitstream Vera Sans', sans-serif; text-anchor: end" x="76.9" y="92.12625" transform="rotate(-0 76.9 92.12625)">1.0</text>
     </g>
    </g>
    <g id="text_18">
     <text style="fill: #262626; font: 16px 'Arial', 'DejaVu Sans', 'Liberation Sans', 'Bitstream Vera Sans', sans-serif; text-anchor: middle" x="47.48" y="216" transform="rotate(-90 47.48 216)">Outbreak risk</text>
    </g>
   </g>
   <g id="line2d_33">
    <path d="M 86.4 303.648681 
L 89.28 303.88656 
L 92.16 304.333716 
L 95.04 304.994232 
L 97.92 305.873678 
L 100.8 306.979225 
L 103.68 308.319834 
L 106.56 309.906624 
L 109.44 311.753852 
L 112.32 313.881695 
L 114.84 315.999618 
L 117.36 318.398378 
L 119.52 320.729946 
L 121.68 323.378178 
L 123.84 326.386598 
L 126.72 330.845361 
L 129.6 335.220793 
L 131.4 337.519445 
L 132.84 339.005964 
L 134.28 340.17375 
L 135.72 341.055494 
L 137.16 341.698435 
L 138.96 342.23719 
L 140.76 342.549916 
L 142.92 342.696886 
L 145.08 342.639959 
L 147.6 342.339375 
L 149.76 341.877628 
L 151.92 341.212481 
L 154.08 340.327008 
L 156.24 339.209304 
L 158.4 337.858419 
L 160.92 336.006107 
L 163.8 333.581384 
L 167.4 330.230142 
L 178.92 319.234733 
L 182.52 316.19642 
L 185.76 313.723986 
L 189 311.518557 
L 192.24 309.587506 
L 195.48 307.931955 
L 198.72 306.549616 
L 201.6 305.547195 
L 204.48 304.754855 
L 207.36 304.17014 
L 210.24 303.791272 
L 213.12 303.617385 
L 216 303.648681 
L 218.88 303.88656 
L 221.76 304.333716 
L 224.64 304.994232 
L 227.52 305.873678 
L 230.4 306.979225 
L 233.28 308.319834 
L 236.16 309.906624 
L 239.04 311.753852 
L 241.92 313.881695 
L 244.44 315.999618 
L 246.96 318.398378 
L 249.12 320.729946 
L 251.28 323.378178 
L 253.44 326.386598 
L 256.32 330.845361 
L 259.2 335.220793 
L 261 337.519445 
L 262.44 339.005964 
L 263.88 340.17375 
L 265.32 341.055494 
L 266.76 341.698435 
L 268.56 342.23719 
L 270.36 342.549916 
L 272.52 342.696886 
L 274.68 342.639959 
L 277.2 342.339375 
L 279.36 341.877628 
L 281.52 341.212481 
L 283.68 340.327008 
L 285.84 339.209304 
L 288 337.858419 
L 290.52 336.006107 
L 293.4 333.581384 
L 297 330.230142 
L 308.52 319.234733 
L 312.12 316.19642 
L 315.36 313.723986 
L 318.6 311.518557 
L 321.84 309.587506 
L 325.08 307.931955 
L 328.32 306.549616 
L 331.2 305.547195 
L 334.08 304.754855 
L 336.96 304.17014 
L 339.84 303.791272 
L 342.72 303.617385 
L 345.24 303.633513 
L 345.24 303.633513 
" clip-path="url(#pca43aa1caf)" style="fill: none; stroke: #4c72b0; stroke-width: 2; stroke-linecap: round"/>
   </g>
   <g id="line2d_34">
    <path d="M 86.4 216.137763 
L 88.2 216.426696 
L 90 216.917001 
L 91.8 217.612055 
L 93.6 218.516395 
L 95.4 219.63578 
L 97.2 220.97725 
L 99.36 222.892102 
L 101.52 225.156261 
L 103.68 227.790403 
L 105.84 230.819015 
L 108 234.271162 
L 110.16 238.181976 
L 112.32 242.595896 
L 114.48 247.57389 
L 116.64 253.208366 
L 118.44 258.510364 
L 120.24 264.499325 
L 122.04 271.338244 
L 123.84 279.16899 
L 126 289.832326 
L 130.32 311.922343 
L 131.76 318.020721 
L 133.2 323.031885 
L 134.28 326.068342 
L 135.36 328.534499 
L 136.44 330.496913 
L 137.52 332.027073 
L 138.6 333.191905 
L 139.68 334.04897 
L 140.76 334.644887 
L 141.84 335.015578 
L 142.92 335.187364 
L 144 335.178352 
L 145.44 334.903751 
L 146.88 334.338966 
L 148.32 333.482886 
L 149.76 332.325637 
L 151.2 330.85251 
L 152.64 329.047771 
L 154.08 326.898333 
L 155.52 324.397077 
L 157.32 320.779032 
L 159.12 316.640143 
L 161.28 311.060295 
L 163.8 303.874086 
L 167.4 292.834412 
L 174.24 271.737001 
L 177.48 262.537261 
L 180.36 255.035043 
L 182.88 249.045688 
L 185.4 243.608878 
L 187.92 238.721924 
L 190.44 234.371503 
L 192.6 231.055081 
L 194.76 228.104948 
L 196.92 225.507022 
L 199.08 223.24768 
L 201.24 221.314293 
L 203.4 219.695589 
L 205.56 218.3819 
L 207.72 217.365324 
L 209.52 216.740735 
L 211.32 216.315813 
L 213.12 216.089084 
L 214.92 216.060075 
L 216.72 216.229341 
L 218.52 216.59849 
L 220.32 217.170225 
L 222.12 217.948382 
L 223.92 218.937979 
L 225.72 220.145278 
L 227.88 221.892169 
L 230.04 223.979309 
L 232.2 226.42565 
L 234.36 229.253704 
L 236.52 232.490119 
L 238.68 236.166734 
L 240.84 240.322751 
L 243 245.009592 
L 245.16 250.301435 
L 246.96 255.255957 
L 248.76 260.814873 
L 250.56 267.123433 
L 252.36 274.346875 
L 254.16 282.585288 
L 256.32 293.602637 
L 259.56 310.245855 
L 261 316.594063 
L 262.44 321.884007 
L 263.52 325.122441 
L 264.6 327.771927 
L 265.68 329.894308 
L 266.76 331.560753 
L 267.84 332.840446 
L 268.92 333.794372 
L 270 334.472837 
L 271.08 334.915232 
L 272.16 335.150931 
L 273.24 335.200623 
L 274.32 335.077709 
L 275.76 334.657448 
L 277.2 333.947796 
L 278.64 332.942758 
L 280.08 331.629561 
L 281.52 329.992513 
L 282.96 328.01676 
L 284.4 325.691816 
L 286.2 322.290784 
L 288 318.355454 
L 290.16 312.987913 
L 292.68 305.988414 
L 295.92 296.203589 
L 304.56 269.63027 
L 307.8 260.598378 
L 310.68 253.267855 
L 313.2 247.435793 
L 315.72 242.156927 
L 318.24 237.424963 
L 320.4 233.792734 
L 322.56 230.538337 
L 324.72 227.647879 
L 326.88 225.107308 
L 329.04 222.903136 
L 331.2 221.022938 
L 333.36 219.455696 
L 335.52 218.192024 
L 337.68 217.224329 
L 339.48 216.639839 
L 341.28 216.254642 
L 343.08 216.067462 
L 344.88 216.078031 
L 345.24 216.103923 
L 345.24 216.103923 
" clip-path="url(#pca43aa1caf)" style="fill: none; stroke: #dd8452; stroke-width: 2; stroke-linecap: round"/>
   </g>
   <g id="line2d_35">
    <path d="M 86.4 172.931723 
L 88.2 173.239694 
L 90 173.772181 
L 91.8 174.534166 
L 93.6 175.532516 
L 95.4 176.776087 
L 97.2 178.275859 
L 99 180.045086 
L 100.8 182.099493 
L 102.6 184.457508 
L 104.4 187.14056 
L 106.2 190.173465 
L 108 193.584991 
L 109.8 197.40877 
L 111.6 201.684968 
L 113.4 206.463568 
L 115.2 211.810886 
L 117 217.821675 
L 118.8 224.638269 
L 120.6 232.471307 
L 122.04 239.654339 
L 123.48 247.806258 
L 125.28 259.448419 
L 127.44 275.102368 
L 130.32 295.905181 
L 131.76 304.812201 
L 133.2 312.183823 
L 134.28 316.668729 
L 135.36 320.319457 
L 136.44 323.229012 
L 137.52 325.500391 
L 138.6 327.231388 
L 139.68 328.506772 
L 140.76 329.395529 
L 141.84 329.951011 
L 142.92 330.212465 
L 144 330.20704 
L 145.08 329.951824 
L 146.16 329.455727 
L 147.24 328.721173 
L 148.32 327.745647 
L 149.4 326.523136 
L 150.84 324.494758 
L 152.28 321.992115 
L 153.72 318.997778 
L 155.16 315.502672 
L 156.96 310.436285 
L 158.76 304.634614 
L 160.92 296.816634 
L 163.44 286.774837 
L 167.4 269.901154 
L 172.44 248.5466 
L 175.32 237.2055 
L 177.84 228.04345 
L 180.36 219.67248 
L 182.88 212.117052 
L 185.04 206.283305 
L 187.2 201.022818 
L 189.36 196.309667 
L 191.52 192.114482 
L 193.68 188.406885 
L 195.84 185.157183 
L 198 182.337476 
L 200.16 179.922376 
L 202.32 177.88943 
L 204.12 176.473228 
L 205.92 175.299559 
L 207.72 174.360628 
L 209.52 173.650262 
L 211.32 173.163917 
L 213.12 172.898688 
L 214.92 172.853314 
L 216.72 173.028212 
L 218.52 173.425509 
L 220.32 174.049094 
L 222.12 174.904692 
L 223.92 175.999952 
L 225.72 177.344563 
L 227.52 178.950392 
L 229.32 180.831659 
L 231.12 183.005137 
L 232.92 185.490416 
L 234.72 188.310225 
L 236.52 191.490879 
L 238.32 195.062954 
L 240.12 199.06243 
L 241.92 203.532871 
L 243.72 208.529753 
L 245.52 214.128924 
L 247.32 220.441524 
L 249.12 227.635164 
L 250.92 235.949891 
L 252.36 243.602062 
L 253.8 252.272691 
L 255.6 264.514156 
L 260.64 300.536895 
L 262.08 308.698867 
L 263.16 313.776146 
L 264.24 317.974162 
L 265.32 321.366599 
L 266.4 324.052008 
L 267.48 326.132935 
L 268.56 327.703401 
L 269.64 328.843037 
L 270.72 329.61551 
L 271.8 330.069263 
L 272.88 330.239278 
L 273.96 330.149132 
L 275.04 329.812985 
L 276.12 329.237407 
L 277.2 328.423011 
L 278.28 327.365957 
L 279.36 326.059377 
L 280.8 323.914337 
L 282.24 321.290161 
L 283.68 318.171055 
L 285.12 314.550733 
L 286.92 309.332775 
L 288.72 303.392399 
L 290.88 295.435286 
L 293.4 285.280243 
L 298.08 265.237801 
L 302.4 247.084148 
L 305.28 235.850378 
L 307.8 226.79813 
L 310.32 218.543126 
L 312.84 211.104028 
L 315 205.367384 
L 317.16 200.20005 
L 319.32 195.575319 
L 321.48 191.463506 
L 323.64 187.83425 
L 325.8 184.65809 
L 327.96 181.907506 
L 330.12 179.557574 
L 332.28 177.586359 
L 334.08 176.219365 
L 335.88 175.093215 
L 337.68 174.200438 
L 339.48 173.535188 
L 341.28 173.093246 
L 343.08 172.872035 
L 344.88 172.870629 
L 345.24 172.89676 
L 345.24 172.89676 
" clip-path="url(#pca43aa1caf)" style="fill: none; stroke: #55a868; stroke-width: 2; stroke-linecap: round"/>
   </g>
   <g id="line2d_36">
    <path d="M 86.4 109.620695 
L 88.56 109.883023 
L 90.72 110.385481 
L 92.88 111.141709 
L 95.04 112.172035 
L 96.84 113.259799 
L 98.64 114.577505 
L 100.44 116.150179 
L 102.24 118.008012 
L 104.04 120.187112 
L 105.84 122.73041 
L 107.64 125.688791 
L 109.44 129.12256 
L 111.24 133.103505 
L 113.04 137.718284 
L 114.84 143.074933 
L 116.28 147.988833 
L 117.72 153.568697 
L 119.16 159.956983 
L 120.6 167.35989 
L 122.04 176.065835 
L 123.48 186.433192 
L 124.92 198.799564 
L 126.36 213.275715 
L 128.52 237.948301 
L 131.04 266.663824 
L 132.48 280.670528 
L 133.56 289.506426 
L 134.64 296.868481 
L 135.72 302.84857 
L 136.8 307.599377 
L 137.88 311.291173 
L 138.96 314.085121 
L 140.04 316.120113 
L 140.76 317.111677 
L 141.48 317.843096 
L 142.2 318.336263 
L 142.92 318.608677 
L 143.64 318.67392 
L 144.36 318.542126 
L 145.08 318.220428 
L 145.8 317.713382 
L 146.88 316.609967 
L 147.96 315.095173 
L 149.04 313.163249 
L 150.12 310.804524 
L 151.2 308.007925 
L 152.64 303.58111 
L 154.08 298.345038 
L 155.52 292.305635 
L 157.32 283.677761 
L 159.12 273.972277 
L 161.64 258.953557 
L 165.6 233.552393 
L 169.92 206.249356 
L 172.44 191.622222 
L 174.96 178.365422 
L 177.12 168.199073 
L 179.28 159.150455 
L 181.44 151.181319 
L 183.24 145.315905 
L 185.04 140.103459 
L 186.84 135.491073 
L 188.64 131.425181 
L 190.44 127.853715 
L 192.24 124.727524 
L 194.04 122.001221 
L 195.84 119.633633 
L 197.64 117.587963 
L 199.44 115.83176 
L 201.24 114.336768 
L 203.4 112.853676 
L 205.56 111.677124 
L 207.72 110.779433 
L 209.88 110.13957 
L 212.04 109.742716 
L 214.2 109.579959 
L 216.36 109.648131 
L 218.52 109.9498 
L 220.68 110.493433 
L 222.84 111.293742 
L 225 112.372236 
L 226.8 113.504213 
L 228.6 114.870755 
L 230.4 116.497868 
L 232.2 118.416862 
L 234 120.66513 
L 235.8 123.287096 
L 237.6 126.335398 
L 239.4 129.872444 
L 241.2 133.972663 
L 243 138.726313 
L 244.8 144.247017 
L 246.24 149.316668 
L 247.68 155.083195 
L 249.12 161.702807 
L 250.56 169.401082 
L 252 178.487212 
L 253.44 189.32712 
L 254.88 202.225408 
L 256.32 217.19365 
L 258.84 246.440697 
L 261 270.385865 
L 262.44 283.781097 
L 263.52 292.121502 
L 264.6 299.00862 
L 265.68 304.560388 
L 266.76 308.939323 
L 267.84 312.314863 
L 268.92 314.841679 
L 270 316.649965 
L 270.72 317.508428 
L 271.44 318.11827 
L 272.16 318.499129 
L 272.88 318.666486 
L 273.6 318.632141 
L 274.32 318.404675 
L 275.04 317.989879 
L 276.12 317.023359 
L 277.2 315.646063 
L 278.28 313.854116 
L 279.36 311.63887 
L 280.44 308.989444 
L 281.88 304.763428 
L 283.32 299.73 
L 284.76 293.889549 
L 286.56 285.494607 
L 288.36 275.99117 
L 290.52 263.382901 
L 293.76 242.899117 
L 299.52 206.249356 
L 302.04 191.622222 
L 304.56 178.365422 
L 306.72 168.199073 
L 308.88 159.150455 
L 311.04 151.181319 
L 312.84 145.315905 
L 314.64 140.103459 
L 316.44 135.491073 
L 318.24 131.425181 
L 320.04 127.853715 
L 321.84 124.727524 
L 323.64 122.001221 
L 325.44 119.633633 
L 327.24 117.587963 
L 329.04 115.83176 
L 330.84 114.336768 
L 333 112.853676 
L 335.16 111.677124 
L 337.32 110.779433 
L 339.48 110.13957 
L 341.64 109.742716 
L 343.8 109.579959 
L 345.24 109.599709 
L 345.24 109.599709 
" clip-path="url(#pca43aa1caf)" style="fill: none; stroke: #c44e52; stroke-width: 2; stroke-linecap: round"/>
   </g>
   <g id="line2d_37">
    <path d="M 86.4 102.629081 
L 88.56 102.850444 
L 90.72 103.279348 
L 92.88 103.929478 
L 95.04 104.82143 
L 97.2 105.983549 
L 99 107.184917 
L 100.8 108.626522 
L 102.6 110.341031 
L 104.4 112.36772 
L 106.2 114.753565 
L 108 117.554579 
L 109.8 120.837538 
L 111.6 124.682384 
L 113.4 129.186076 
L 114.84 133.343818 
L 116.28 138.079656 
L 117.72 143.499227 
L 119.16 149.75165 
L 120.6 157.054771 
L 122.04 165.720221 
L 123.48 176.149908 
L 124.92 188.748837 
L 126.36 203.702969 
L 128.16 225.123763 
L 131.4 264.264602 
L 132.84 278.695832 
L 133.92 287.705101 
L 135 295.155101 
L 136.08 301.16629 
L 137.16 305.910743 
L 138.24 309.570031 
L 139.32 312.310831 
L 140.4 314.273876 
L 141.12 315.206935 
L 141.84 315.870967 
L 142.56 316.287302 
L 143.28 316.472782 
L 144 316.440273 
L 144.72 316.199167 
L 145.44 315.755847 
L 146.16 315.11414 
L 147.24 313.782792 
L 148.32 312.007147 
L 149.4 309.779926 
L 150.48 307.090646 
L 151.92 302.767499 
L 153.36 297.584808 
L 154.8 291.540652 
L 156.6 282.812409 
L 158.4 272.889925 
L 160.56 259.678184 
L 163.8 238.149139 
L 169.2 201.936215 
L 171.72 186.463658 
L 173.88 174.375397 
L 176.04 163.492821 
L 178.2 153.842808 
L 180 146.718987 
L 181.8 140.385492 
L 183.6 134.787989 
L 185.4 129.865757 
L 187.2 125.555969 
L 189 121.796741 
L 190.8 118.529176 
L 192.6 115.698617 
L 194.4 113.255338 
L 196.2 111.154816 
L 198 109.357727 
L 199.8 107.829774 
L 201.96 106.310195 
L 204.12 105.093121 
L 206.28 104.144162 
L 208.44 103.436494 
L 210.6 102.9502 
L 212.76 102.671759 
L 214.92 102.593696 
L 217.08 102.714422 
L 219.24 103.038252 
L 221.4 103.575643 
L 223.56 104.343648 
L 225.72 105.366616 
L 227.88 106.677171 
L 229.68 108.019098 
L 231.48 109.620124 
L 233.28 111.516763 
L 235.08 113.752764 
L 236.88 116.380344 
L 238.68 119.461735 
L 240.48 123.071257 
L 242.28 127.298444 
L 243.72 131.198119 
L 245.16 135.633648 
L 246.6 140.695937 
L 248.04 146.509663 
L 249.48 153.254801 
L 250.92 161.193753 
L 252.36 170.687407 
L 253.8 182.157906 
L 255.24 195.937047 
L 256.68 211.98438 
L 262.08 275.340071 
L 263.16 284.878658 
L 264.24 292.839152 
L 265.32 299.312324 
L 266.4 304.458658 
L 267.48 308.460081 
L 268.56 311.490009 
L 269.64 313.698446 
L 270.36 314.775556 
L 271.08 315.571135 
L 271.8 316.108945 
L 272.52 316.408007 
L 273.24 316.483113 
L 273.96 316.34533 
L 274.68 316.002489 
L 275.4 315.459642 
L 276.48 314.275727 
L 277.56 312.648752 
L 278.64 310.573119 
L 279.72 308.039109 
L 280.8 305.03562 
L 282.24 300.284223 
L 283.68 294.669627 
L 285.12 288.201656 
L 286.92 278.977757 
L 289.08 266.439143 
L 291.6 250.284552 
L 300.96 188.589207 
L 303.48 174.375397 
L 305.64 163.492821 
L 307.8 153.842808 
L 309.6 146.718987 
L 311.4 140.385492 
L 313.2 134.787989 
L 315 129.865757 
L 316.8 125.555969 
L 318.6 121.796741 
L 320.4 118.529176 
L 322.2 115.698617 
L 324 113.255338 
L 325.8 111.154816 
L 327.6 109.357727 
L 329.4 107.829774 
L 331.56 106.310195 
L 333.72 105.093121 
L 335.88 104.144162 
L 338.04 103.436494 
L 340.2 102.9502 
L 342.36 102.671759 
L 344.52 102.593696 
L 345.24 102.611761 
L 345.24 102.611761 
" clip-path="url(#pca43aa1caf)" style="fill: none; stroke: #8172b3; stroke-width: 2; stroke-linecap: round"/>
   </g>
   <g id="patch_3">
    <path d="M 86.4 345.6 
L 86.4 86.4 
" style="fill: none; stroke: #262626; stroke-width: 1.25; stroke-linejoin: miter; stroke-linecap: square"/>
   </g>
   <g id="patch_4">
    <path d="M 86.4 345.6 
L 345.6 345.6 
" style="fill: none; stroke: #262626; stroke-width: 1.25; stroke-linejoin: miter; stroke-linecap: square"/>
   </g>
   <g id="legend_1">
    <g id="patch_5">
     <path d="M 96.2 196.617187 
L 188.46 196.617187 
Q 191.26 196.617187 191.26 193.817187 
L 191.26 96.2 
Q 191.26 93.4 188.46 93.4 
L 96.2 93.4 
Q 93.4 93.4 93.4 96.2 
L 93.4 193.817187 
Q 93.4 196.617187 96.2 196.617187 
z
" style="fill: #ffffff; opacity: 0.8; stroke: #cccccc; stroke-linejoin: miter"/>
    </g>
    <g id="line2d_38">
     <path d="M 99 104.120937 
L 113 104.120937 
L 127 104.120937 
" style="fill: none; stroke: #4c72b0; stroke-width: 2; stroke-linecap: round"/>
    </g>
    <g id="text_19">
     <!-- $\it{k}$ = 0.1 -->
     <g style="fill: #262626" transform="translate(138.2 109.020937)">
      <text>
       <tspan style="font: oblique 14px 'DejaVu Sans'" x="0" y="-0.359375">k</tspan>
       <tspan style="font: 14px 'Arial'" x="8.107422 11.99707 20.172852 24.0625 31.848633 35.738281" y="-0.359375"> = 0.1</tspan>
      </text>
     </g>
    </g>
    <g id="line2d_39">
     <path d="M 99 123.924375 
L 113 123.924375 
L 127 123.924375 
" style="fill: none; stroke: #dd8452; stroke-width: 2; stroke-linecap: round"/>
    </g>
    <g id="text_20">
     <!-- $\it{k}$ = 0.5 -->
     <g style="fill: #262626" transform="translate(138.2 128.824375)">
      <text>
       <tspan style="font: oblique 14px 'DejaVu Sans'" x="0" y="-0.359375">k</tspan>
       <tspan style="font: 14px 'Arial'" x="8.107422 11.99707 20.172852 24.0625 31.848633 35.738281" y="-0.359375"> = 0.5</tspan>
      </text>
     </g>
    </g>
    <g id="line2d_40">
     <path d="M 99 143.727812 
L 113 143.727812 
L 127 143.727812 
" style="fill: none; stroke: #55a868; stroke-width: 2; stroke-linecap: round"/>
    </g>
    <g id="text_21">
     <!-- $\it{k}$ = 1 -->
     <g style="fill: #262626" transform="translate(138.2 148.627812)">
      <text>
       <tspan style="font: oblique 14px 'DejaVu Sans'" x="0" y="-0.359375">k</tspan>
       <tspan style="font: 14px 'Arial'" x="8.107422 11.99707 20.172852 24.0625" y="-0.359375"> = 1</tspan>
      </text>
     </g>
    </g>
    <g id="line2d_41">
     <path d="M 99 163.53125 
L 113 163.53125 
L 127 163.53125 
" style="fill: none; stroke: #c44e52; stroke-width: 2; stroke-linecap: round"/>
    </g>
    <g id="text_22">
     <!-- $\it{k}$ = 10 -->
     <g style="fill: #262626" transform="translate(138.2 168.43125)">
      <text>
       <tspan style="font: oblique 14px 'DejaVu Sans'" x="0" y="-0.359375">k</tspan>
       <tspan style="font: 14px 'Arial'" x="8.107422 11.99707 20.172852 24.0625 31.848633" y="-0.359375"> = 10</tspan>
      </text>
     </g>
    </g>
    <g id="line2d_42">
     <path d="M 99 183.334687 
L 113 183.334687 
L 127 183.334687 
" style="fill: none; stroke: #8172b3; stroke-width: 2; stroke-linecap: round"/>
    </g>
    <g id="text_23">
     <!-- $\it{k}$ = 100 -->
     <g style="fill: #262626" transform="translate(138.2 188.234687)">
      <text>
       <tspan style="font: oblique 14px 'DejaVu Sans'" x="0" y="-0.359375">k</tspan>
       <tspan style="font: 14px 'Arial'" x="8.107422 11.99707 20.172852 24.0625 31.848633 39.634766" y="-0.359375"> = 100</tspan>
      </text>
     </g>
    </g>
   </g>
  </g>
 </g>
 <defs>
  <clipPath id="pca43aa1caf">
   <rect x="86.4" y="86.4" width="259.2" height="259.2"/>
  </clipPath>
 </defs>
</svg>
