<?xml version="1.0" encoding="utf-8" standalone="no"?>
<!DOCTYPE svg PUBLIC "-//W3C//DTD SVG 1.1//EN"
  "http://www.w3.org/Graphics/SVG/1.1/DTD/svg11.dtd">
<svg xmlns:xlink="http://www.w3.org/1999/xlink" width="432pt" height="432pt" viewBox="0 0 432 432" xmlns="http://www.w3.org/2000/svg" version="1.1">
 <metadata>
  <rdf:RDF xmlns:dc="http://purl.org/dc/elements/1.1/" xmlns:cc="http://creativecommons.org/ns#" xmlns:rdf="http://www.w3.org/1999/02/22-rdf-syntax-ns#">
   <cc:Work>
    <dc:type rdf:resource="http://purl.org/dc/dcmitype/StillImage"/>
    <dc:date>2025-08-07T19:07:24.432670</dc:date>
    <dc:format>image/svg+xml</dc:format>
    <dc:creator>
     <cc:Agent>
      <dc:title>Matplotlib v3.10.3, https://matplotlib.org/</dc:title>
     </cc:Agent>
    </dc:creator>
   </cc:Work>
  </rdf:RDF>
 </metadata>
 <defs>
  <style type="text/css">*{stroke-linejoin: round; stroke-linecap: butt}</style>
 </defs>
 <g id="figure_1">
  <g id="patch_1">
   <path d="M 0 432 
L 432 432 
L 432 0 
L 0 0 
L 0 432 
z
" style="fill: none"/>
  </g>
  <g id="axes_1">
   <g id="patch_2">
    <path d="M 86.4 345.6 
L 345.6 345.6 
L 345.6 86.4 
L 86.4 86.4 
L 86.4 345.6 
z
" style="fill: none"/>
   </g>
   <g id="matplotlib.axis_1">
    <g id="xtick_1">
     <g id="line2d_1">
      <defs>
       <path id="mfe8f85c2aa" d="M 0 0 
L 0 6 
" style="stroke: #262626; stroke-width: 1.25"/>
      </defs>
      <g>
       <use xlink:href="#mfe8f85c2aa" x="86.4" y="345.6" style="fill: #262626; stroke: #262626; stroke-width: 1.25"/>
      </g>
     </g>
     <g id="text_1">
      <text style="font-size: 16px; font-family: 'Arial', sans-serif; text-anchor: middle; fill: #262626" x="86.4" y="366.5525" transform="rotate(-0 86.4 366.5525)">Jan</text>
     </g>
    </g>
    <g id="xtick_2">
     <g id="line2d_2">
      <g>
       <use xlink:href="#mfe8f85c2aa" x="97.407123" y="345.6" style="fill: #262626; stroke: #262626; stroke-width: 1.25"/>
      </g>
     </g>
    </g>
    <g id="xtick_3">
     <g id="line2d_3">
      <g>
       <use xlink:href="#mfe8f85c2aa" x="107.349041" y="345.6" style="fill: #262626; stroke: #262626; stroke-width: 1.25"/>
      </g>
     </g>
    </g>
    <g id="xtick_4">
     <g id="line2d_4">
      <g>
       <use xlink:href="#mfe8f85c2aa" x="118.356164" y="345.6" style="fill: #262626; stroke: #262626; stroke-width: 1.25"/>
      </g>
     </g>
     <g id="text_2">
      <text style="font-size: 16px; font-family: 'Arial', sans-serif; text-anchor: middle; fill: #262626" x="118.356164" y="366.5525" transform="rotate(-0 118.356164 366.5525)">Apr</text>
     </g>
    </g>
    <g id="xtick_5">
     <g id="line2d_5">
      <g>
       <use xlink:href="#mfe8f85c2aa" x="129.008219" y="345.6" style="fill: #262626; stroke: #262626; stroke-width: 1.25"/>
      </g>
     </g>
    </g>
    <g id="xtick_6">
     <g id="line2d_6">
      <g>
       <use xlink:href="#mfe8f85c2aa" x="140.015342" y="345.6" style="fill: #262626; stroke: #262626; stroke-width: 1.25"/>
      </g>
     </g>
    </g>
    <g id="xtick_7">
     <g id="line2d_7">
      <g>
       <use xlink:href="#mfe8f85c2aa" x="150.667397" y="345.6" style="fill: #262626; stroke: #262626; stroke-width: 1.25"/>
      </g>
     </g>
     <g id="text_3">
      <text style="font-size: 16px; font-family: 'Arial', sans-serif; text-anchor: middle; fill: #262626" x="150.667397" y="366.5525" transform="rotate(-0 150.667397 366.5525)">Jul</text>
     </g>
    </g>
    <g id="xtick_8">
     <g id="line2d_8">
      <g>
       <use xlink:href="#mfe8f85c2aa" x="161.674521" y="345.6" style="fill: #262626; stroke: #262626; stroke-width: 1.25"/>
      </g>
     </g>
    </g>
    <g id="xtick_9">
     <g id="line2d_9">
      <g>
       <use xlink:href="#mfe8f85c2aa" x="172.681644" y="345.6" style="fill: #262626; stroke: #262626; stroke-width: 1.25"/>
      </g>
     </g>
    </g>
    <g id="xtick_10">
     <g id="line2d_10">
      <g>
       <use xlink:href="#mfe8f85c2aa" x="183.333699" y="345.6" style="fill: #262626; stroke: #262626; stroke-width: 1.25"/>
      </g>
     </g>
     <g id="text_4">
      <text style="font-size: 16px; font-family: 'Arial', sans-serif; text-anchor: middle; fill: #262626" x="183.333699" y="366.5525" transform="rotate(-0 183.333699 366.5525)">Oct</text>
     </g>
    </g>
    <g id="xtick_11">
     <g id="line2d_11">
      <g>
       <use xlink:href="#mfe8f85c2aa" x="194.340822" y="345.6" style="fill: #262626; stroke: #262626; stroke-width: 1.25"/>
      </g>
     </g>
    </g>
    <g id="xtick_12">
     <g id="line2d_12">
      <g>
       <use xlink:href="#mfe8f85c2aa" x="204.992877" y="345.6" style="fill: #262626; stroke: #262626; stroke-width: 1.25"/>
      </g>
     </g>
    </g>
    <g id="xtick_13">
     <g id="line2d_13">
      <g>
       <use xlink:href="#mfe8f85c2aa" x="216" y="345.6" style="fill: #262626; stroke: #262626; stroke-width: 1.25"/>
      </g>
     </g>
     <g id="text_5">
      <text style="font-size: 16px; font-family: 'Arial', sans-serif; text-anchor: middle; fill: #262626" x="216" y="366.5525" transform="rotate(-0 216 366.5525)">Jan</text>
     </g>
    </g>
    <g id="xtick_14">
     <g id="line2d_14">
      <g>
       <use xlink:href="#mfe8f85c2aa" x="227.007123" y="345.6" style="fill: #262626; stroke: #262626; stroke-width: 1.25"/>
      </g>
     </g>
    </g>
    <g id="xtick_15">
     <g id="line2d_15">
      <g>
       <use xlink:href="#mfe8f85c2aa" x="236.949041" y="345.6" style="fill: #262626; stroke: #262626; stroke-width: 1.25"/>
      </g>
     </g>
    </g>
    <g id="xtick_16">
     <g id="line2d_16">
      <g>
       <use xlink:href="#mfe8f85c2aa" x="247.956164" y="345.6" style="fill: #262626; stroke: #262626; stroke-width: 1.25"/>
      </g>
     </g>
     <g id="text_6">
      <text style="font-size: 16px; font-family: 'Arial', sans-serif; text-anchor: middle; fill: #262626" x="247.956164" y="366.5525" transform="rotate(-0 247.956164 366.5525)">Apr</text>
     </g>
    </g>
    <g id="xtick_17">
     <g id="line2d_17">
      <g>
       <use xlink:href="#mfe8f85c2aa" x="258.608219" y="345.6" style="fill: #262626; stroke: #262626; stroke-width: 1.25"/>
      </g>
     </g>
    </g>
    <g id="xtick_18">
     <g id="line2d_18">
      <g>
       <use xlink:href="#mfe8f85c2aa" x="269.615342" y="345.6" style="fill: #262626; stroke: #262626; stroke-width: 1.25"/>
      </g>
     </g>
    </g>
    <g id="xtick_19">
     <g id="line2d_19">
      <g>
       <use xlink:href="#mfe8f85c2aa" x="280.267397" y="345.6" style="fill: #262626; stroke: #262626; stroke-width: 1.25"/>
      </g>
     </g>
     <g id="text_7">
      <text style="font-size: 16px; font-family: 'Arial', sans-serif; text-anchor: middle; fill: #262626" x="280.267397" y="366.5525" transform="rotate(-0 280.267397 366.5525)">Jul</text>
     </g>
    </g>
    <g id="xtick_20">
     <g id="line2d_20">
      <g>
       <use xlink:href="#mfe8f85c2aa" x="291.274521" y="345.6" style="fill: #262626; stroke: #262626; stroke-width: 1.25"/>
      </g>
     </g>
    </g>
    <g id="xtick_21">
     <g id="line2d_21">
      <g>
       <use xlink:href="#mfe8f85c2aa" x="302.281644" y="345.6" style="fill: #262626; stroke: #262626; stroke-width: 1.25"/>
      </g>
     </g>
    </g>
    <g id="xtick_22">
     <g id="line2d_22">
      <g>
       <use xlink:href="#mfe8f85c2aa" x="312.933699" y="345.6" style="fill: #262626; stroke: #262626; stroke-width: 1.25"/>
      </g>
     </g>
     <g id="text_8">
      <text style="font-size: 16px; font-family: 'Arial', sans-serif; text-anchor: middle; fill: #262626" x="312.933699" y="366.5525" transform="rotate(-0 312.933699 366.5525)">Oct</text>
     </g>
    </g>
    <g id="xtick_23">
     <g id="line2d_23">
      <g>
       <use xlink:href="#mfe8f85c2aa" x="323.940822" y="345.6" style="fill: #262626; stroke: #262626; stroke-width: 1.25"/>
      </g>
     </g>
    </g>
    <g id="xtick_24">
     <g id="line2d_24">
      <g>
       <use xlink:href="#mfe8f85c2aa" x="334.592877" y="345.6" style="fill: #262626; stroke: #262626; stroke-width: 1.25"/>
      </g>
     </g>
    </g>
    <g id="xtick_25">
     <g id="line2d_25">
      <g>
       <use xlink:href="#mfe8f85c2aa" x="345.6" y="345.6" style="fill: #262626; stroke: #262626; stroke-width: 1.25"/>
      </g>
     </g>
     <g id="text_9">
      <text style="font-size: 16px; font-family: 'Arial', sans-serif; text-anchor: middle; fill: #262626" x="345.6" y="366.5525" transform="rotate(-0 345.6 366.5525)">Jan</text>
     </g>
    </g>
    <g id="text_10">
     <text style="font-size: 16px; font-family: 'Arial', sans-serif; text-anchor: middle; fill: #262626" x="216" y="385.185" transform="rotate(-0 216 385.185)"> </text>
    </g>
   </g>
   <g id="matplotlib.axis_2">
    <g id="ytick_1">
     <g id="line2d_26">
      <defs>
       <path id="mf393cf4112" d="M 0 0 
L -6 0 
" style="stroke: #262626; stroke-width: 1.25"/>
      </defs>
      <g>
       <use xlink:href="#mf393cf4112" x="86.4" y="345.6" style="fill: #262626; stroke: #262626; stroke-width: 1.25"/>
      </g>
     </g>
     <g id="text_11">
      <text style="font-size: 16px; font-family: 'Arial', sans-serif; text-anchor: end; fill: #262626" x="76.9" y="351.32625" transform="rotate(-0 76.9 351.32625)">0.0</text>
     </g>
    </g>
    <g id="ytick_2">
     <g id="line2d_27">
      <g>
       <use xlink:href="#mf393cf4112" x="86.4" y="293.76" style="fill: #262626; stroke: #262626; stroke-width: 1.25"/>
      </g>
     </g>
     <g id="text_12">
      <text style="font-size: 16px; font-family: 'Arial', sans-serif; text-anchor: end; fill: #262626" x="76.9" y="299.48625" transform="rotate(-0 76.9 299.48625)">0.2</text>
     </g>
    </g>
    <g id="ytick_3">
     <g id="line2d_28">
      <g>
       <use xlink:href="#mf393cf4112" x="86.4" y="241.92" style="fill: #262626; stroke: #262626; stroke-width: 1.25"/>
      </g>
     </g>
     <g id="text_13">
      <text style="font-size: 16px; font-family: 'Arial', sans-serif; text-anchor: end; fill: #262626" x="76.9" y="247.64625" transform="rotate(-0 76.9 247.64625)">0.4</text>
     </g>
    </g>
    <g id="ytick_4">
     <g id="line2d_29">
      <g>
       <use xlink:href="#mf393cf4112" x="86.4" y="190.08" style="fill: #262626; stroke: #262626; stroke-width: 1.25"/>
      </g>
     </g>
     <g id="text_14">
      <text style="font-size: 16px; font-family: 'Arial', sans-serif; text-anchor: end; fill: #262626" x="76.9" y="195.80625" transform="rotate(-0 76.9 195.80625)">0.6</text>
     </g>
    </g>
    <g id="ytick_5">
     <g id="line2d_30">
      <g>
       <use xlink:href="#mf393cf4112" x="86.4" y="138.24" style="fill: #262626; stroke: #262626; stroke-width: 1.25"/>
      </g>
     </g>
     <g id="text_15">
      <text style="font-size: 16px; font-family: 'Arial', sans-serif; text-anchor: end; fill: #262626" x="76.9" y="143.96625" transform="rotate(-0 76.9 143.96625)">0.8</text>
     </g>
    </g>
    <g id="ytick_6">
     <g id="line2d_31">
      <g>
       <use xlink:href="#mf393cf4112" x="86.4" y="86.4" style="fill: #262626; stroke: #262626; stroke-width: 1.25"/>
      </g>
     </g>
     <g id="text_16">
      <text style="font-size: 16px; font-family: 'Arial', sans-serif; text-anchor: end; fill: #262626" x="76.9" y="92.12625" transform="rotate(-0 76.9 92.12625)">1.0</text>
     </g>
    </g>
    <g id="text_17">
     <text style="font-size: 16px; font-family: 'Arial', sans-serif; text-anchor: middle; fill: #262626" x="47.48" y="216" transform="rotate(-90 47.48 216)">Outbreak risk</text>
    </g>
   </g>
   <g id="line2d_32">
    <path d="M 86.4 303.647157 
L 89.240548 303.87858 
L 92.081096 304.313462 
L 94.921644 304.955657 
L 97.762192 305.810412 
L 100.60274 306.884472 
L 103.443288 308.186233 
L 106.283836 309.726048 
L 109.124384 311.516995 
L 111.964932 313.577054 
L 114.805479 315.935154 
L 117.290959 318.284337 
L 119.776438 320.966438 
L 121.906849 323.598099 
L 124.03726 326.580356 
L 126.877808 330.985648 
L 129.718356 335.298203 
L 131.493699 337.564951 
L 132.913973 339.033563 
L 134.334247 340.190045 
L 135.754521 341.065802 
L 137.174795 341.706611 
L 138.950137 342.246388 
L 140.725479 342.563009 
L 142.85589 342.71776 
L 145.34137 342.646818 
L 147.826849 342.330219 
L 150.312329 341.761559 
L 152.44274 341.055934 
L 154.573151 340.13208 
L 156.703562 338.980366 
L 159.189041 337.351821 
L 161.674521 335.442482 
L 164.515068 332.980487 
L 168.420822 329.279917 
L 178.007671 320.076293 
L 181.913425 316.711242 
L 185.46411 313.958836 
L 188.659726 311.754405 
L 191.855342 309.816729 
L 195.050959 308.147358 
L 198.246575 306.744349 
L 201.442192 305.60416 
L 204.637808 304.722911 
L 207.833425 304.097226 
L 211.029041 303.724777 
L 213.869589 303.605532 
L 216.710137 303.686099 
L 219.550685 303.968098 
L 222.391233 304.454394 
L 225.231781 305.149181 
L 228.072329 306.058069 
L 230.912877 307.188198 
L 233.753425 308.548415 
L 236.593973 310.14965 
L 239.434521 312.00591 
L 242.275068 314.137111 
L 245.115616 316.576713 
L 247.601096 319.01307 
L 249.731507 321.381904 
L 251.861918 324.070544 
L 253.992329 327.110054 
L 260.73863 337.148286 
L 262.158904 338.696311 
L 263.579178 339.928855 
L 264.999452 340.870762 
L 266.419726 341.565839 
L 268.195068 342.158294 
L 269.970411 342.514806 
L 272.100822 342.706785 
L 274.231233 342.692574 
L 276.716712 342.445657 
L 279.202192 341.950965 
L 281.332603 341.314673 
L 283.463014 340.465069 
L 285.593425 339.389754 
L 287.723836 338.086275 
L 290.209315 336.292441 
L 293.049863 333.933349 
L 296.600548 330.65376 
L 309.383014 318.506153 
L 312.933699 315.573161 
L 316.129315 313.194703 
L 319.324932 311.078699 
L 322.520548 309.230506 
L 325.716164 307.650249 
L 328.911781 306.335278 
L 332.107397 305.281822 
L 335.303014 304.486094 
L 338.49863 303.945016 
L 341.339178 303.676278 
L 344.179726 303.606899 
L 345.244932 303.632395 
L 345.244932 303.632395 
" clip-path="url(#pab508e5089)" style="fill: none; stroke: #d55e00; stroke-width: 2; stroke-linecap: round"/>
   </g>
   <g id="line2d_33">
    <defs>
     <path id="m8b91e1eadb" d="M 0 2.5 
C 0.663008 2.5 1.29895 2.236584 1.767767 1.767767 
C 2.236584 1.29895 2.5 0.663008 2.5 0 
C 2.5 -0.663008 2.236584 -1.29895 1.767767 -1.767767 
C 1.29895 -2.236584 0.663008 -2.5 0 -2.5 
C -0.663008 -2.5 -1.29895 -2.236584 -1.767767 -1.767767 
C -2.236584 -1.29895 -2.5 -0.663008 -2.5 0 
C -2.5 0.663008 -2.236584 1.29895 -1.767767 1.767767 
C -1.29895 2.236584 -0.663008 2.5 0 2.5 
z
" style="stroke: #d55e00; stroke-opacity: 0.5"/>
    </defs>
    <g clip-path="url(#pab508e5089)">
     <use xlink:href="#m8b91e1eadb" x="86.4" y="303.77808" style="fill: #d55e00; fill-opacity: 0.5; stroke: #d55e00; stroke-opacity: 0.5"/>
     <use xlink:href="#m8b91e1eadb" x="97.407123" y="305.90352" style="fill: #d55e00; fill-opacity: 0.5; stroke: #d55e00; stroke-opacity: 0.5"/>
     <use xlink:href="#m8b91e1eadb" x="107.349041" y="311.23008" style="fill: #d55e00; fill-opacity: 0.5; stroke: #d55e00; stroke-opacity: 0.5"/>
     <use xlink:href="#m8b91e1eadb" x="118.356164" y="319.26528" style="fill: #d55e00; fill-opacity: 0.5; stroke: #d55e00; stroke-opacity: 0.5"/>
     <use xlink:href="#m8b91e1eadb" x="129.008219" y="332.52336" style="fill: #d55e00; fill-opacity: 0.5; stroke: #d55e00; stroke-opacity: 0.5"/>
     <use xlink:href="#m8b91e1eadb" x="140.015342" y="341.02512" style="fill: #d55e00; fill-opacity: 0.5; stroke: #d55e00; stroke-opacity: 0.5"/>
     <use xlink:href="#m8b91e1eadb" x="150.667397" y="341.712" style="fill: #d55e00; fill-opacity: 0.5; stroke: #d55e00; stroke-opacity: 0.5"/>
     <use xlink:href="#m8b91e1eadb" x="161.674521" y="335.51712" style="fill: #d55e00; fill-opacity: 0.5; stroke: #d55e00; stroke-opacity: 0.5"/>
     <use xlink:href="#m8b91e1eadb" x="172.681644" y="323.73648" style="fill: #d55e00; fill-opacity: 0.5; stroke: #d55e00; stroke-opacity: 0.5"/>
     <use xlink:href="#m8b91e1eadb" x="183.333699" y="315.468" style="fill: #d55e00; fill-opacity: 0.5; stroke: #d55e00; stroke-opacity: 0.5"/>
     <use xlink:href="#m8b91e1eadb" x="194.340822" y="308.36592" style="fill: #d55e00; fill-opacity: 0.5; stroke: #d55e00; stroke-opacity: 0.5"/>
     <use xlink:href="#m8b91e1eadb" x="204.992877" y="304.55568" style="fill: #d55e00; fill-opacity: 0.5; stroke: #d55e00; stroke-opacity: 0.5"/>
     <use xlink:href="#m8b91e1eadb" x="216" y="303.77808" style="fill: #d55e00; fill-opacity: 0.5; stroke: #d55e00; stroke-opacity: 0.5"/>
     <use xlink:href="#m8b91e1eadb" x="227.007123" y="305.90352" style="fill: #d55e00; fill-opacity: 0.5; stroke: #d55e00; stroke-opacity: 0.5"/>
     <use xlink:href="#m8b91e1eadb" x="236.949041" y="311.23008" style="fill: #d55e00; fill-opacity: 0.5; stroke: #d55e00; stroke-opacity: 0.5"/>
     <use xlink:href="#m8b91e1eadb" x="247.956164" y="319.26528" style="fill: #d55e00; fill-opacity: 0.5; stroke: #d55e00; stroke-opacity: 0.5"/>
     <use xlink:href="#m8b91e1eadb" x="258.608219" y="332.52336" style="fill: #d55e00; fill-opacity: 0.5; stroke: #d55e00; stroke-opacity: 0.5"/>
     <use xlink:href="#m8b91e1eadb" x="269.615342" y="341.02512" style="fill: #d55e00; fill-opacity: 0.5; stroke: #d55e00; stroke-opacity: 0.5"/>
     <use xlink:href="#m8b91e1eadb" x="280.267397" y="341.712" style="fill: #d55e00; fill-opacity: 0.5; stroke: #d55e00; stroke-opacity: 0.5"/>
     <use xlink:href="#m8b91e1eadb" x="291.274521" y="335.51712" style="fill: #d55e00; fill-opacity: 0.5; stroke: #d55e00; stroke-opacity: 0.5"/>
     <use xlink:href="#m8b91e1eadb" x="302.281644" y="323.73648" style="fill: #d55e00; fill-opacity: 0.5; stroke: #d55e00; stroke-opacity: 0.5"/>
     <use xlink:href="#m8b91e1eadb" x="312.933699" y="315.468" style="fill: #d55e00; fill-opacity: 0.5; stroke: #d55e00; stroke-opacity: 0.5"/>
     <use xlink:href="#m8b91e1eadb" x="323.940822" y="308.36592" style="fill: #d55e00; fill-opacity: 0.5; stroke: #d55e00; stroke-opacity: 0.5"/>
     <use xlink:href="#m8b91e1eadb" x="334.592877" y="304.55568" style="fill: #d55e00; fill-opacity: 0.5; stroke: #d55e00; stroke-opacity: 0.5"/>
    </g>
   </g>
   <g id="line2d_34">
    <path d="M 86.4 229.207814 
L 88.530411 229.549533 
L 90.660822 230.15623 
L 92.791233 231.033153 
L 94.921644 232.187494 
L 97.052055 233.628495 
L 99.182466 235.367588 
L 101.312877 237.418562 
L 103.443288 239.797795 
L 105.573699 242.524576 
L 107.70411 245.621661 
L 109.834521 249.116339 
L 111.964932 253.042745 
L 114.095342 257.446979 
L 116.225753 262.39775 
L 118.356164 268.004977 
L 120.131507 273.301312 
L 121.906849 279.302856 
L 123.682192 286.128224 
L 125.812603 295.3943 
L 130.428493 316.293913 
L 131.848767 321.578654 
L 133.269041 325.921494 
L 134.334247 328.55607 
L 135.399452 330.699307 
L 136.464658 332.408341 
L 137.529863 333.744433 
L 138.595068 334.765009 
L 139.660274 335.519597 
L 140.725479 336.048453 
L 141.790685 336.382739 
L 143.210959 336.564456 
L 144.631233 336.475848 
L 146.051507 336.135036 
L 147.471781 335.546971 
L 148.892055 334.707132 
L 150.312329 333.604877 
L 151.732603 332.226632 
L 153.152877 330.559 
L 154.573151 328.591713 
L 156.348493 325.704992 
L 158.123836 322.351839 
L 160.254247 317.755898 
L 162.384658 312.622794 
L 165.225205 305.157796 
L 170.551233 290.31932 
L 174.812055 278.72191 
L 178.007671 270.627879 
L 180.848219 264.010879 
L 183.688767 257.993681 
L 186.174247 253.236037 
L 188.659726 248.950854 
L 191.145205 245.128593 
L 193.630685 241.755142 
L 195.761096 239.208574 
L 197.891507 236.969406 
L 200.021918 235.027582 
L 202.152329 233.373828 
L 204.28274 231.999935 
L 206.413151 230.898942 
L 208.543562 230.065276 
L 210.673973 229.494849 
L 212.804384 229.185125 
L 214.934795 229.13519 
L 217.065205 229.345806 
L 219.195616 229.819475 
L 221.326027 230.560511 
L 223.456438 231.575118 
L 225.586849 232.8715 
L 227.71726 234.459975 
L 229.847671 236.35313 
L 231.978082 238.566014 
L 234.108493 241.11641 
L 236.238904 244.02525 
L 238.369315 247.317368 
L 240.499726 251.023065 
L 242.630137 255.181546 
L 244.760548 259.848415 
L 246.890959 265.110185 
L 248.666301 270.047699 
L 250.441644 275.60961 
L 252.216986 281.929845 
L 253.992329 289.097103 
L 256.12274 298.677513 
L 259.673425 314.839997 
L 261.093699 320.342626 
L 262.513973 324.926333 
L 263.579178 327.734957 
L 264.644384 330.036147 
L 265.709589 331.883104 
L 266.774795 333.336824 
L 267.84 334.456631 
L 268.905205 335.294944 
L 269.970411 335.895147 
L 271.035616 336.291355 
L 272.45589 336.545425 
L 273.876164 336.522096 
L 275.296438 336.243424 
L 276.716712 335.717285 
L 278.136986 334.941203 
L 279.55726 333.905764 
L 280.977534 332.597831 
L 282.397808 331.003679 
L 283.818082 329.111996 
L 285.593425 326.32022 
L 287.368767 323.058666 
L 289.14411 319.352824 
L 291.274521 314.386445 
L 293.76 308.022753 
L 297.665753 297.287178 
L 304.056986 279.658386 
L 307.252603 271.495025 
L 310.093151 264.8059 
L 312.933699 258.712134 
L 315.419178 253.886633 
L 317.904658 249.534395 
L 320.390137 245.646791 
L 322.875616 242.210189 
L 325.006027 239.611375 
L 327.136438 237.321688 
L 329.266849 235.330975 
L 331.39726 233.629812 
L 333.527671 232.209794 
L 335.658082 231.063744 
L 337.788493 230.185849 
L 339.918904 229.571767 
L 342.049315 229.2187 
L 344.179726 229.12546 
L 345.244932 229.176358 
L 345.244932 229.176358 
" clip-path="url(#pab508e5089)" style="fill: none; stroke: #0173b2; stroke-width: 2; stroke-linecap: round"/>
   </g>
   <g id="line2d_35">
    <defs>
     <path id="m244f303e3e" d="M 0 2.5 
C 0.663008 2.5 1.29895 2.236584 1.767767 1.767767 
C 2.236584 1.29895 2.5 0.663008 2.5 0 
C 2.5 -0.663008 2.236584 -1.29895 1.767767 -1.767767 
C 1.29895 -2.236584 0.663008 -2.5 0 -2.5 
C -0.663008 -2.5 -1.29895 -2.236584 -1.767767 -1.767767 
C -2.236584 -1.29895 -2.5 -0.663008 -2.5 0 
C -2.5 0.663008 -2.236584 1.29895 -1.767767 1.767767 
C -1.29895 2.236584 -0.663008 2.5 0 2.5 
z
" style="stroke: #0173b2; stroke-opacity: 0.5"/>
    </defs>
    <g clip-path="url(#pab508e5089)">
     <use xlink:href="#m244f303e3e" x="86.4" y="228.59712" style="fill: #0173b2; fill-opacity: 0.5; stroke: #0173b2; stroke-opacity: 0.5"/>
     <use xlink:href="#m244f303e3e" x="97.407123" y="233.63856" style="fill: #0173b2; fill-opacity: 0.5; stroke: #0173b2; stroke-opacity: 0.5"/>
     <use xlink:href="#m244f303e3e" x="107.349041" y="244.65456" style="fill: #0173b2; fill-opacity: 0.5; stroke: #0173b2; stroke-opacity: 0.5"/>
     <use xlink:href="#m244f303e3e" x="118.356164" y="267.36048" style="fill: #0173b2; fill-opacity: 0.5; stroke: #0173b2; stroke-opacity: 0.5"/>
     <use xlink:href="#m244f303e3e" x="129.008219" y="309.53232" style="fill: #0173b2; fill-opacity: 0.5; stroke: #0173b2; stroke-opacity: 0.5"/>
     <use xlink:href="#m244f303e3e" x="140.015342" y="335.80224" style="fill: #0173b2; fill-opacity: 0.5; stroke: #0173b2; stroke-opacity: 0.5"/>
     <use xlink:href="#m244f303e3e" x="150.667397" y="333.27504" style="fill: #0173b2; fill-opacity: 0.5; stroke: #0173b2; stroke-opacity: 0.5"/>
     <use xlink:href="#m244f303e3e" x="161.674521" y="315.16992" style="fill: #0173b2; fill-opacity: 0.5; stroke: #0173b2; stroke-opacity: 0.5"/>
     <use xlink:href="#m244f303e3e" x="172.681644" y="283.57344" style="fill: #0173b2; fill-opacity: 0.5; stroke: #0173b2; stroke-opacity: 0.5"/>
     <use xlink:href="#m244f303e3e" x="183.333699" y="258.12" style="fill: #0173b2; fill-opacity: 0.5; stroke: #0173b2; stroke-opacity: 0.5"/>
     <use xlink:href="#m244f303e3e" x="194.340822" y="239.40576" style="fill: #0173b2; fill-opacity: 0.5; stroke: #0173b2; stroke-opacity: 0.5"/>
     <use xlink:href="#m244f303e3e" x="204.992877" y="231.12432" style="fill: #0173b2; fill-opacity: 0.5; stroke: #0173b2; stroke-opacity: 0.5"/>
     <use xlink:href="#m244f303e3e" x="216" y="228.59712" style="fill: #0173b2; fill-opacity: 0.5; stroke: #0173b2; stroke-opacity: 0.5"/>
     <use xlink:href="#m244f303e3e" x="227.007123" y="233.63856" style="fill: #0173b2; fill-opacity: 0.5; stroke: #0173b2; stroke-opacity: 0.5"/>
     <use xlink:href="#m244f303e3e" x="236.949041" y="244.65456" style="fill: #0173b2; fill-opacity: 0.5; stroke: #0173b2; stroke-opacity: 0.5"/>
     <use xlink:href="#m244f303e3e" x="247.956164" y="267.36048" style="fill: #0173b2; fill-opacity: 0.5; stroke: #0173b2; stroke-opacity: 0.5"/>
     <use xlink:href="#m244f303e3e" x="258.608219" y="309.53232" style="fill: #0173b2; fill-opacity: 0.5; stroke: #0173b2; stroke-opacity: 0.5"/>
     <use xlink:href="#m244f303e3e" x="269.615342" y="335.80224" style="fill: #0173b2; fill-opacity: 0.5; stroke: #0173b2; stroke-opacity: 0.5"/>
     <use xlink:href="#m244f303e3e" x="280.267397" y="333.27504" style="fill: #0173b2; fill-opacity: 0.5; stroke: #0173b2; stroke-opacity: 0.5"/>
     <use xlink:href="#m244f303e3e" x="291.274521" y="315.16992" style="fill: #0173b2; fill-opacity: 0.5; stroke: #0173b2; stroke-opacity: 0.5"/>
     <use xlink:href="#m244f303e3e" x="302.281644" y="283.57344" style="fill: #0173b2; fill-opacity: 0.5; stroke: #0173b2; stroke-opacity: 0.5"/>
     <use xlink:href="#m244f303e3e" x="312.933699" y="258.12" style="fill: #0173b2; fill-opacity: 0.5; stroke: #0173b2; stroke-opacity: 0.5"/>
     <use xlink:href="#m244f303e3e" x="323.940822" y="239.40576" style="fill: #0173b2; fill-opacity: 0.5; stroke: #0173b2; stroke-opacity: 0.5"/>
     <use xlink:href="#m244f303e3e" x="334.592877" y="231.12432" style="fill: #0173b2; fill-opacity: 0.5; stroke: #0173b2; stroke-opacity: 0.5"/>
    </g>
   </g>
   <g id="line2d_36">
    <path d="M 86.4 172.928925 
L 88.175342 173.228558 
L 89.950685 173.746459 
L 91.726027 174.487336 
L 93.50137 175.457677 
L 95.276712 176.665843 
L 97.052055 178.122186 
L 98.827397 179.839194 
L 100.60274 181.831664 
L 102.378082 184.116909 
L 104.153425 186.715024 
L 105.928767 189.649221 
L 108.059178 193.65192 
L 110.189589 198.232187 
L 111.964932 202.538432 
L 113.740274 207.341739 
L 115.515616 212.707944 
L 117.290959 218.731307 
L 119.066301 225.55311 
L 120.841644 233.380818 
L 122.261918 240.546829 
L 123.682192 248.662736 
L 125.457534 260.219893 
L 127.943014 278.360318 
L 130.428493 296.226857 
L 131.848767 305.017651 
L 133.269041 312.305616 
L 134.334247 316.749134 
L 135.399452 320.374051 
L 136.464658 323.270222 
L 137.529863 325.537756 
L 138.595068 327.272178 
L 139.660274 328.556689 
L 140.725479 329.459328 
L 141.790685 330.033005 
L 142.85589 330.316905 
L 143.921096 330.338405 
L 144.986301 330.115024 
L 146.051507 329.656235 
L 147.116712 328.965104 
L 148.181918 328.039767 
L 149.247123 326.874805 
L 150.667397 324.935405 
L 152.087671 322.5362 
L 153.507945 319.659429 
L 154.928219 316.294602 
L 156.703562 311.404955 
L 158.478904 305.78865 
L 160.609315 298.192081 
L 163.094795 288.387548 
L 166.645479 273.332451 
L 172.681644 247.693533 
L 175.522192 236.553766 
L 178.36274 226.334895 
L 180.848219 218.226245 
L 183.333699 210.912896 
L 185.46411 205.267084 
L 187.594521 200.175359 
L 189.724932 195.611882 
L 191.855342 191.548043 
L 193.985753 187.954604 
L 196.116164 184.803174 
L 198.246575 182.067193 
L 200.376986 179.722544 
L 202.507397 177.747937 
L 204.637808 176.125105 
L 206.413151 175.030451 
L 208.188493 174.162448 
L 209.963836 173.515562 
L 211.739178 173.0858 
L 213.514521 172.870724 
L 215.289863 172.869459 
L 217.065205 173.082718 
L 218.840548 173.512844 
L 220.61589 174.163854 
L 222.391233 175.041513 
L 224.166575 176.153421 
L 225.941918 177.509118 
L 227.71726 179.120218 
L 229.492603 181.000571 
L 231.267945 183.166457 
L 233.043288 185.636823 
L 234.81863 188.433585 
L 236.593973 191.582041 
L 238.724384 195.866 
L 240.854795 200.759332 
L 242.630137 205.357031 
L 244.405479 210.488707 
L 246.180822 216.235368 
L 247.956164 222.716931 
L 249.731507 230.112777 
L 251.506849 238.670924 
L 252.927123 246.539272 
L 254.702466 257.788658 
L 256.832877 273.053171 
L 260.028493 296.226857 
L 261.448767 305.017651 
L 262.869041 312.305616 
L 263.934247 316.749134 
L 264.999452 320.374051 
L 266.064658 323.270222 
L 267.129863 325.537756 
L 268.195068 327.272178 
L 269.260274 328.556689 
L 270.325479 329.459328 
L 271.390685 330.033005 
L 272.45589 330.316905 
L 273.521096 330.338405 
L 274.586301 330.115024 
L 275.651507 329.656235 
L 276.716712 328.965104 
L 277.781918 328.039767 
L 278.847123 326.874805 
L 280.267397 324.935405 
L 281.687671 322.5362 
L 283.107945 319.659429 
L 284.528219 316.294602 
L 286.303562 311.404955 
L 288.078904 305.78865 
L 290.209315 298.192081 
L 292.694795 288.387548 
L 296.245479 273.332451 
L 302.281644 247.693533 
L 305.122192 236.553766 
L 307.96274 226.334895 
L 310.448219 218.226245 
L 312.933699 210.912896 
L 315.06411 205.267084 
L 317.194521 200.175359 
L 319.324932 195.611882 
L 321.455342 191.548043 
L 323.585753 187.954604 
L 325.716164 184.803174 
L 327.846575 182.067193 
L 329.976986 179.722544 
L 332.107397 177.747937 
L 334.237808 176.125105 
L 336.013151 175.030451 
L 337.788493 174.162448 
L 339.563836 173.515562 
L 341.339178 173.0858 
L 343.114521 172.870724 
L 344.889863 172.869459 
L 345.244932 172.894898 
L 345.244932 172.894898 
" clip-path="url(#pab508e5089)" style="fill: none; stroke: #029e73; stroke-width: 2; stroke-linecap: round"/>
   </g>
   <g id="line2d_37">
    <defs>
     <path id="m8362a7a1ef" d="M 0 2.5 
C 0.663008 2.5 1.29895 2.236584 1.767767 1.767767 
C 2.236584 1.29895 2.5 0.663008 2.5 0 
C 2.5 -0.663008 2.236584 -1.29895 1.767767 -1.767767 
C 1.29895 -2.236584 0.663008 -2.5 0 -2.5 
C -0.663008 -2.5 -1.29895 -2.236584 -1.767767 -1.767767 
C -2.236584 -1.29895 -2.5 -0.663008 -2.5 0 
C -2.5 0.663008 -2.236584 1.29895 -1.767767 1.767767 
C -1.29895 2.236584 -0.663008 2.5 0 2.5 
z
" style="stroke: #029e73; stroke-opacity: 0.5"/>
    </defs>
    <g clip-path="url(#pab508e5089)">
     <use xlink:href="#m8362a7a1ef" x="86.4" y="174.02256" style="fill: #029e73; fill-opacity: 0.5; stroke: #029e73; stroke-opacity: 0.5"/>
     <use xlink:href="#m8362a7a1ef" x="97.407123" y="178.98624" style="fill: #029e73; fill-opacity: 0.5; stroke: #029e73; stroke-opacity: 0.5"/>
     <use xlink:href="#m8362a7a1ef" x="107.349041" y="190.10592" style="fill: #029e73; fill-opacity: 0.5; stroke: #029e73; stroke-opacity: 0.5"/>
     <use xlink:href="#m8362a7a1ef" x="118.356164" y="222.20784" style="fill: #029e73; fill-opacity: 0.5; stroke: #029e73; stroke-opacity: 0.5"/>
     <use xlink:href="#m8362a7a1ef" x="129.008219" y="284.66208" style="fill: #029e73; fill-opacity: 0.5; stroke: #029e73; stroke-opacity: 0.5"/>
     <use xlink:href="#m8362a7a1ef" x="140.015342" y="328.97232" style="fill: #029e73; fill-opacity: 0.5; stroke: #029e73; stroke-opacity: 0.5"/>
     <use xlink:href="#m8362a7a1ef" x="150.667397" y="324.78624" style="fill: #029e73; fill-opacity: 0.5; stroke: #029e73; stroke-opacity: 0.5"/>
     <use xlink:href="#m8362a7a1ef" x="161.674521" y="293.1768" style="fill: #029e73; fill-opacity: 0.5; stroke: #029e73; stroke-opacity: 0.5"/>
     <use xlink:href="#m8362a7a1ef" x="172.681644" y="248.41296" style="fill: #029e73; fill-opacity: 0.5; stroke: #029e73; stroke-opacity: 0.5"/>
     <use xlink:href="#m8362a7a1ef" x="183.333699" y="210.37536" style="fill: #029e73; fill-opacity: 0.5; stroke: #029e73; stroke-opacity: 0.5"/>
     <use xlink:href="#m8362a7a1ef" x="194.340822" y="187.0992" style="fill: #029e73; fill-opacity: 0.5; stroke: #029e73; stroke-opacity: 0.5"/>
     <use xlink:href="#m8362a7a1ef" x="204.992877" y="176.9904" style="fill: #029e73; fill-opacity: 0.5; stroke: #029e73; stroke-opacity: 0.5"/>
     <use xlink:href="#m8362a7a1ef" x="216" y="174.02256" style="fill: #029e73; fill-opacity: 0.5; stroke: #029e73; stroke-opacity: 0.5"/>
     <use xlink:href="#m8362a7a1ef" x="227.007123" y="178.98624" style="fill: #029e73; fill-opacity: 0.5; stroke: #029e73; stroke-opacity: 0.5"/>
     <use xlink:href="#m8362a7a1ef" x="236.949041" y="190.10592" style="fill: #029e73; fill-opacity: 0.5; stroke: #029e73; stroke-opacity: 0.5"/>
     <use xlink:href="#m8362a7a1ef" x="247.956164" y="222.20784" style="fill: #029e73; fill-opacity: 0.5; stroke: #029e73; stroke-opacity: 0.5"/>
     <use xlink:href="#m8362a7a1ef" x="258.608219" y="284.66208" style="fill: #029e73; fill-opacity: 0.5; stroke: #029e73; stroke-opacity: 0.5"/>
     <use xlink:href="#m8362a7a1ef" x="269.615342" y="328.97232" style="fill: #029e73; fill-opacity: 0.5; stroke: #029e73; stroke-opacity: 0.5"/>
     <use xlink:href="#m8362a7a1ef" x="280.267397" y="324.78624" style="fill: #029e73; fill-opacity: 0.5; stroke: #029e73; stroke-opacity: 0.5"/>
     <use xlink:href="#m8362a7a1ef" x="291.274521" y="293.1768" style="fill: #029e73; fill-opacity: 0.5; stroke: #029e73; stroke-opacity: 0.5"/>
     <use xlink:href="#m8362a7a1ef" x="302.281644" y="248.41296" style="fill: #029e73; fill-opacity: 0.5; stroke: #029e73; stroke-opacity: 0.5"/>
     <use xlink:href="#m8362a7a1ef" x="312.933699" y="210.37536" style="fill: #029e73; fill-opacity: 0.5; stroke: #029e73; stroke-opacity: 0.5"/>
     <use xlink:href="#m8362a7a1ef" x="323.940822" y="187.0992" style="fill: #029e73; fill-opacity: 0.5; stroke: #029e73; stroke-opacity: 0.5"/>
     <use xlink:href="#m8362a7a1ef" x="334.592877" y="176.9904" style="fill: #029e73; fill-opacity: 0.5; stroke: #029e73; stroke-opacity: 0.5"/>
    </g>
   </g>
   <g id="line2d_38">
    <path d="M 86.4 109.61942 
L 88.530411 109.874619 
L 90.660822 110.363149 
L 92.791233 111.0979 
L 94.921644 112.098065 
L 97.052055 113.389815 
L 98.827397 114.713314 
L 100.60274 116.287231 
L 102.378082 118.140945 
L 104.153425 120.309474 
L 105.928767 122.834325 
L 107.70411 125.764549 
L 109.479452 129.158091 
L 111.254795 133.083681 
L 113.030137 137.623869 
L 114.805479 142.880779 
L 116.580822 148.988179 
L 118.001096 154.611583 
L 119.42137 161.041542 
L 120.841644 168.482884 
L 122.261918 177.21935 
L 123.682192 187.598216 
L 125.102466 199.938157 
L 126.52274 214.328763 
L 128.653151 238.750781 
L 131.13863 267.100002 
L 132.558904 280.937862 
L 133.62411 289.682069 
L 134.689315 296.981831 
L 135.754521 302.924758 
L 136.819726 307.658342 
L 137.884932 311.34816 
L 138.950137 314.151776 
L 140.015342 316.205659 
L 141.080548 317.620689 
L 141.790685 318.252372 
L 142.500822 318.658259 
L 143.210959 318.853912 
L 143.921096 318.851288 
L 144.631233 318.659181 
L 145.34137 318.283641 
L 146.406575 317.383938 
L 147.471781 316.083866 
L 148.536986 314.380491 
L 149.602192 312.265931 
L 150.667397 309.729763 
L 152.087671 305.674284 
L 153.507945 300.832258 
L 154.928219 295.200592 
L 156.703562 287.082503 
L 158.478904 277.859887 
L 160.609315 265.570311 
L 163.449863 247.763885 
L 170.196164 204.779069 
L 172.681644 190.448923 
L 175.167123 177.474594 
L 177.297534 167.525278 
L 179.427945 158.664691 
L 181.558356 150.85313 
L 183.333699 145.096527 
L 185.109041 139.973988 
L 186.884384 135.434472 
L 188.659726 131.426426 
L 190.435068 127.899775 
L 192.210411 124.807227 
L 193.985753 122.105074 
L 195.761096 119.753608 
L 197.536438 117.717274 
L 199.311781 115.964644 
L 201.442192 114.197626 
L 203.572603 112.759614 
L 205.703014 111.617698 
L 207.833425 110.745728 
L 209.963836 110.123822 
L 212.094247 109.737966 
L 214.224658 109.57973 
L 216.355068 109.646119 
L 218.485479 109.939563 
L 220.61589 110.468071 
L 222.746301 111.245546 
L 224.876712 112.292291 
L 226.652055 113.389815 
L 228.427397 114.713314 
L 230.20274 116.287231 
L 231.978082 118.140945 
L 233.753425 120.309474 
L 235.528767 122.834325 
L 237.30411 125.764549 
L 239.079452 129.158091 
L 240.854795 133.083681 
L 242.630137 137.623869 
L 244.405479 142.880779 
L 246.180822 148.988179 
L 247.601096 154.611583 
L 249.02137 161.041542 
L 250.441644 168.482884 
L 251.861918 177.21935 
L 253.282192 187.598216 
L 254.702466 199.938157 
L 256.12274 214.328763 
L 258.253151 238.750781 
L 260.73863 267.100002 
L 262.158904 280.937862 
L 263.22411 289.682069 
L 264.289315 296.981831 
L 265.354521 302.924758 
L 266.419726 307.658342 
L 267.484932 311.34816 
L 268.550137 314.151776 
L 269.615342 316.205659 
L 270.680548 317.620689 
L 271.390685 318.252372 
L 272.100822 318.658259 
L 272.810959 318.853912 
L 273.521096 318.851288 
L 274.231233 318.659181 
L 274.94137 318.283641 
L 276.006575 317.383938 
L 277.071781 316.083866 
L 278.136986 314.380491 
L 279.202192 312.265931 
L 280.267397 309.729763 
L 281.687671 305.674284 
L 283.107945 300.832258 
L 284.528219 295.200592 
L 286.303562 287.082503 
L 288.078904 277.859887 
L 290.209315 265.570311 
L 293.049863 247.763885 
L 299.796164 204.779069 
L 302.281644 190.448923 
L 304.767123 177.474594 
L 306.897534 167.525278 
L 309.027945 158.664691 
L 311.158356 150.85313 
L 312.933699 145.096527 
L 314.709041 139.973988 
L 316.484384 135.434472 
L 318.259726 131.426426 
L 320.035068 127.899775 
L 321.810411 124.807227 
L 323.585753 122.105074 
L 325.361096 119.753608 
L 327.136438 117.717274 
L 328.911781 115.964644 
L 331.042192 114.197626 
L 333.172603 112.759614 
L 335.303014 111.617698 
L 337.433425 110.745728 
L 339.563836 110.123822 
L 341.694247 109.737966 
L 343.824658 109.57973 
L 345.244932 109.598994 
L 345.244932 109.598994 
" clip-path="url(#pab508e5089)" style="fill: none; stroke: #de8f05; stroke-width: 2; stroke-linecap: round"/>
   </g>
   <g id="line2d_39">
    <defs>
     <path id="me50e8f9f0b" d="M 0 2.5 
C 0.663008 2.5 1.29895 2.236584 1.767767 1.767767 
C 2.236584 1.29895 2.5 0.663008 2.5 0 
C 2.5 -0.663008 2.236584 -1.29895 1.767767 -1.767767 
C 1.29895 -2.236584 0.663008 -2.5 0 -2.5 
C -0.663008 -2.5 -1.29895 -2.236584 -1.767767 -1.767767 
C -2.236584 -1.29895 -2.5 -0.663008 -2.5 0 
C -2.5 0.663008 -2.236584 1.29895 -1.767767 1.767767 
C -1.29895 2.236584 -0.663008 2.5 0 2.5 
z
" style="stroke: #de8f05; stroke-opacity: 0.5"/>
    </defs>
    <g clip-path="url(#pab508e5089)">
     <use xlink:href="#me50e8f9f0b" x="86.4" y="109.49472" style="fill: #de8f05; fill-opacity: 0.5; stroke: #de8f05; stroke-opacity: 0.5"/>
     <use xlink:href="#me50e8f9f0b" x="97.407123" y="112.644" style="fill: #de8f05; fill-opacity: 0.5; stroke: #de8f05; stroke-opacity: 0.5"/>
     <use xlink:href="#me50e8f9f0b" x="107.349041" y="124.68384" style="fill: #de8f05; fill-opacity: 0.5; stroke: #de8f05; stroke-opacity: 0.5"/>
     <use xlink:href="#me50e8f9f0b" x="118.356164" y="155.10096" style="fill: #de8f05; fill-opacity: 0.5; stroke: #de8f05; stroke-opacity: 0.5"/>
     <use xlink:href="#me50e8f9f0b" x="129.008219" y="243.20304" style="fill: #de8f05; fill-opacity: 0.5; stroke: #de8f05; stroke-opacity: 0.5"/>
     <use xlink:href="#me50e8f9f0b" x="140.015342" y="316.0512" style="fill: #de8f05; fill-opacity: 0.5; stroke: #de8f05; stroke-opacity: 0.5"/>
     <use xlink:href="#me50e8f9f0b" x="150.667397" y="309.33792" style="fill: #de8f05; fill-opacity: 0.5; stroke: #de8f05; stroke-opacity: 0.5"/>
     <use xlink:href="#me50e8f9f0b" x="161.674521" y="257.78304" style="fill: #de8f05; fill-opacity: 0.5; stroke: #de8f05; stroke-opacity: 0.5"/>
     <use xlink:href="#me50e8f9f0b" x="172.681644" y="190.84464" style="fill: #de8f05; fill-opacity: 0.5; stroke: #de8f05; stroke-opacity: 0.5"/>
     <use xlink:href="#me50e8f9f0b" x="183.333699" y="144.74592" style="fill: #de8f05; fill-opacity: 0.5; stroke: #de8f05; stroke-opacity: 0.5"/>
     <use xlink:href="#me50e8f9f0b" x="194.340822" y="120.32928" style="fill: #de8f05; fill-opacity: 0.5; stroke: #de8f05; stroke-opacity: 0.5"/>
     <use xlink:href="#me50e8f9f0b" x="204.992877" y="111.77568" style="fill: #de8f05; fill-opacity: 0.5; stroke: #de8f05; stroke-opacity: 0.5"/>
     <use xlink:href="#me50e8f9f0b" x="216" y="109.49472" style="fill: #de8f05; fill-opacity: 0.5; stroke: #de8f05; stroke-opacity: 0.5"/>
     <use xlink:href="#me50e8f9f0b" x="227.007123" y="112.644" style="fill: #de8f05; fill-opacity: 0.5; stroke: #de8f05; stroke-opacity: 0.5"/>
     <use xlink:href="#me50e8f9f0b" x="236.949041" y="124.68384" style="fill: #de8f05; fill-opacity: 0.5; stroke: #de8f05; stroke-opacity: 0.5"/>
     <use xlink:href="#me50e8f9f0b" x="247.956164" y="155.10096" style="fill: #de8f05; fill-opacity: 0.5; stroke: #de8f05; stroke-opacity: 0.5"/>
     <use xlink:href="#me50e8f9f0b" x="258.608219" y="243.20304" style="fill: #de8f05; fill-opacity: 0.5; stroke: #de8f05; stroke-opacity: 0.5"/>
     <use xlink:href="#me50e8f9f0b" x="269.615342" y="316.0512" style="fill: #de8f05; fill-opacity: 0.5; stroke: #de8f05; stroke-opacity: 0.5"/>
     <use xlink:href="#me50e8f9f0b" x="280.267397" y="309.33792" style="fill: #de8f05; fill-opacity: 0.5; stroke: #de8f05; stroke-opacity: 0.5"/>
     <use xlink:href="#me50e8f9f0b" x="291.274521" y="257.78304" style="fill: #de8f05; fill-opacity: 0.5; stroke: #de8f05; stroke-opacity: 0.5"/>
     <use xlink:href="#me50e8f9f0b" x="302.281644" y="190.84464" style="fill: #de8f05; fill-opacity: 0.5; stroke: #de8f05; stroke-opacity: 0.5"/>
     <use xlink:href="#me50e8f9f0b" x="312.933699" y="144.74592" style="fill: #de8f05; fill-opacity: 0.5; stroke: #de8f05; stroke-opacity: 0.5"/>
     <use xlink:href="#me50e8f9f0b" x="323.940822" y="120.32928" style="fill: #de8f05; fill-opacity: 0.5; stroke: #de8f05; stroke-opacity: 0.5"/>
     <use xlink:href="#me50e8f9f0b" x="334.592877" y="111.77568" style="fill: #de8f05; fill-opacity: 0.5; stroke: #de8f05; stroke-opacity: 0.5"/>
    </g>
   </g>
   <g id="line2d_40">
    <path d="M 86.4 102.628092 
L 88.530411 102.843435 
L 90.660822 103.260416 
L 92.791233 103.891967 
L 94.921644 104.757533 
L 97.052055 105.883837 
L 99.182466 107.305911 
L 100.957808 108.748819 
L 102.733151 110.459745 
L 104.508493 112.476786 
L 106.283836 114.845361 
L 108.059178 117.619468 
L 109.834521 120.863272 
L 111.609863 124.653304 
L 113.385205 129.081928 
L 115.160548 134.263879 
L 116.580822 139.051461 
L 118.001096 144.522096 
L 119.42137 150.824788 
L 120.841644 158.176395 
L 122.261918 166.884331 
L 123.682192 177.339328 
L 125.102466 189.925842 
L 126.52274 204.804997 
L 128.298082 226.027542 
L 131.493699 264.682084 
L 132.913973 278.945808 
L 133.979178 287.867144 
L 135.044384 295.259526 
L 136.109589 301.238368 
L 137.174795 305.97023 
L 138.24 309.63197 
L 139.305205 312.386795 
L 140.370411 314.373195 
L 141.080548 315.326377 
L 141.790685 316.013978 
L 142.500822 316.457306 
L 143.210959 316.673285 
L 143.921096 316.674946 
L 144.631233 316.471907 
L 145.34137 316.070826 
L 146.051507 315.475829 
L 147.116712 314.223613 
L 148.181918 312.538882 
L 149.247123 310.41522 
L 150.312329 307.842716 
L 151.732603 303.695986 
L 153.152877 298.712125 
L 154.573151 292.885815 
L 156.348493 284.447843 
L 158.123836 274.821182 
L 160.254247 261.94632 
L 163.094795 243.235209 
L 169.841096 198.075521 
L 172.326575 183.117924 
L 174.456986 171.48765 
L 176.587397 161.0478 
L 178.717808 151.80661 
L 180.493151 144.990033 
L 182.268493 138.930668 
L 184.043836 133.574044 
L 185.819178 128.860823 
L 187.594521 124.730503 
L 189.369863 121.124023 
L 191.145205 117.985485 
L 192.920548 115.263202 
L 194.69589 112.910247 
L 196.471233 110.884651 
L 198.246575 109.149365 
L 200.376986 107.405049 
L 202.507397 105.985066 
L 204.637808 104.85048 
L 206.768219 103.97007 
L 208.89863 103.319623 
L 211.029041 102.881352 
L 213.159452 102.643441 
L 215.289863 102.599754 
L 217.420274 102.749712 
L 219.550685 103.098348 
L 221.681096 103.65655 
L 223.811507 104.44152 
L 225.941918 105.477453 
L 228.072329 106.79648 
L 229.847671 108.141405 
L 231.623014 109.740927 
L 233.398356 111.630506 
L 235.173699 113.8525 
L 236.949041 116.457304 
L 238.724384 119.504797 
L 240.499726 123.066242 
L 242.275068 127.227117 
L 244.050411 132.092093 
L 245.470685 136.57966 
L 246.890959 141.693361 
L 248.311233 147.557787 
L 249.731507 154.352553 
L 251.151781 162.337858 
L 252.572055 171.867388 
L 253.992329 183.347428 
L 255.412603 197.085712 
L 256.832877 213.020457 
L 262.158904 275.626621 
L 263.579178 287.867144 
L 264.644384 295.259526 
L 265.709589 301.238368 
L 266.774795 305.97023 
L 267.84 309.63197 
L 268.905205 312.386795 
L 269.970411 314.373195 
L 270.680548 315.326377 
L 271.390685 316.013978 
L 272.100822 316.457306 
L 272.810959 316.673285 
L 273.521096 316.674946 
L 274.231233 316.471907 
L 274.94137 316.070826 
L 275.651507 315.475829 
L 276.716712 314.223613 
L 277.781918 312.538882 
L 278.847123 310.41522 
L 279.912329 307.842716 
L 281.332603 303.695986 
L 282.752877 298.712125 
L 284.173151 292.885815 
L 285.948493 284.447843 
L 287.723836 274.821182 
L 289.854247 261.94632 
L 292.694795 243.235209 
L 299.441096 198.075521 
L 301.926575 183.117924 
L 304.056986 171.48765 
L 306.187397 161.0478 
L 308.317808 151.80661 
L 310.093151 144.990033 
L 311.868493 138.930668 
L 313.643836 133.574044 
L 315.419178 128.860823 
L 317.194521 124.730503 
L 318.969863 121.124023 
L 320.745205 117.985485 
L 322.520548 115.263202 
L 324.29589 112.910247 
L 326.071233 110.884651 
L 327.846575 109.149365 
L 329.976986 107.405049 
L 332.107397 105.985066 
L 334.237808 104.85048 
L 336.368219 103.97007 
L 338.49863 103.319623 
L 340.629041 102.881352 
L 342.759452 102.643441 
L 344.889863 102.599754 
L 345.244932 102.611234 
L 345.244932 102.611234 
" clip-path="url(#pab508e5089)" style="fill: none; stroke: #56b4e9; stroke-width: 2; stroke-linecap: round"/>
   </g>
   <g id="line2d_41">
    <defs>
     <path id="m11b3eb9ced" d="M 0 2.5 
C 0.663008 2.5 1.29895 2.236584 1.767767 1.767767 
C 2.236584 1.29895 2.5 0.663008 2.5 0 
C 2.5 -0.663008 2.236584 -1.29895 1.767767 -1.767767 
C 1.29895 -2.236584 0.663008 -2.5 0 -2.5 
C -0.663008 -2.5 -1.29895 -2.236584 -1.767767 -1.767767 
C -2.236584 -1.29895 -2.5 -0.663008 -2.5 0 
C -2.5 0.663008 -2.236584 1.29895 -1.767767 1.767767 
C -1.29895 2.236584 -0.663008 2.5 0 2.5 
z
" style="stroke: #56b4e9; stroke-opacity: 0.5"/>
    </defs>
    <g clip-path="url(#pab508e5089)">
     <use xlink:href="#m11b3eb9ced" x="86.4" y="103.36464" style="fill: #56b4e9; fill-opacity: 0.5; stroke: #56b4e9; stroke-opacity: 0.5"/>
     <use xlink:href="#m11b3eb9ced" x="97.407123" y="106.02144" style="fill: #56b4e9; fill-opacity: 0.5; stroke: #56b4e9; stroke-opacity: 0.5"/>
     <use xlink:href="#m11b3eb9ced" x="107.349041" y="115.71552" style="fill: #56b4e9; fill-opacity: 0.5; stroke: #56b4e9; stroke-opacity: 0.5"/>
     <use xlink:href="#m11b3eb9ced" x="118.356164" y="146.4048" style="fill: #56b4e9; fill-opacity: 0.5; stroke: #56b4e9; stroke-opacity: 0.5"/>
     <use xlink:href="#m11b3eb9ced" x="129.008219" y="235.41408" style="fill: #56b4e9; fill-opacity: 0.5; stroke: #56b4e9; stroke-opacity: 0.5"/>
     <use xlink:href="#m11b3eb9ced" x="140.015342" y="313.25184" style="fill: #56b4e9; fill-opacity: 0.5; stroke: #56b4e9; stroke-opacity: 0.5"/>
     <use xlink:href="#m11b3eb9ced" x="150.667397" y="305.96832" style="fill: #56b4e9; fill-opacity: 0.5; stroke: #56b4e9; stroke-opacity: 0.5"/>
     <use xlink:href="#m11b3eb9ced" x="161.674521" y="252.8712" style="fill: #56b4e9; fill-opacity: 0.5; stroke: #56b4e9; stroke-opacity: 0.5"/>
     <use xlink:href="#m11b3eb9ced" x="172.681644" y="182.00592" style="fill: #56b4e9; fill-opacity: 0.5; stroke: #56b4e9; stroke-opacity: 0.5"/>
     <use xlink:href="#m11b3eb9ced" x="183.333699" y="136.24416" style="fill: #56b4e9; fill-opacity: 0.5; stroke: #56b4e9; stroke-opacity: 0.5"/>
     <use xlink:href="#m11b3eb9ced" x="194.340822" y="113.75856" style="fill: #56b4e9; fill-opacity: 0.5; stroke: #56b4e9; stroke-opacity: 0.5"/>
     <use xlink:href="#m11b3eb9ced" x="204.992877" y="103.3776" style="fill: #56b4e9; fill-opacity: 0.5; stroke: #56b4e9; stroke-opacity: 0.5"/>
     <use xlink:href="#m11b3eb9ced" x="216" y="103.36464" style="fill: #56b4e9; fill-opacity: 0.5; stroke: #56b4e9; stroke-opacity: 0.5"/>
     <use xlink:href="#m11b3eb9ced" x="227.007123" y="106.02144" style="fill: #56b4e9; fill-opacity: 0.5; stroke: #56b4e9; stroke-opacity: 0.5"/>
     <use xlink:href="#m11b3eb9ced" x="236.949041" y="115.71552" style="fill: #56b4e9; fill-opacity: 0.5; stroke: #56b4e9; stroke-opacity: 0.5"/>
     <use xlink:href="#m11b3eb9ced" x="247.956164" y="146.4048" style="fill: #56b4e9; fill-opacity: 0.5; stroke: #56b4e9; stroke-opacity: 0.5"/>
     <use xlink:href="#m11b3eb9ced" x="258.608219" y="235.41408" style="fill: #56b4e9; fill-opacity: 0.5; stroke: #56b4e9; stroke-opacity: 0.5"/>
     <use xlink:href="#m11b3eb9ced" x="269.615342" y="313.25184" style="fill: #56b4e9; fill-opacity: 0.5; stroke: #56b4e9; stroke-opacity: 0.5"/>
     <use xlink:href="#m11b3eb9ced" x="280.267397" y="305.96832" style="fill: #56b4e9; fill-opacity: 0.5; stroke: #56b4e9; stroke-opacity: 0.5"/>
     <use xlink:href="#m11b3eb9ced" x="291.274521" y="252.8712" style="fill: #56b4e9; fill-opacity: 0.5; stroke: #56b4e9; stroke-opacity: 0.5"/>
     <use xlink:href="#m11b3eb9ced" x="302.281644" y="182.00592" style="fill: #56b4e9; fill-opacity: 0.5; stroke: #56b4e9; stroke-opacity: 0.5"/>
     <use xlink:href="#m11b3eb9ced" x="312.933699" y="136.24416" style="fill: #56b4e9; fill-opacity: 0.5; stroke: #56b4e9; stroke-opacity: 0.5"/>
     <use xlink:href="#m11b3eb9ced" x="323.940822" y="113.75856" style="fill: #56b4e9; fill-opacity: 0.5; stroke: #56b4e9; stroke-opacity: 0.5"/>
     <use xlink:href="#m11b3eb9ced" x="334.592877" y="103.3776" style="fill: #56b4e9; fill-opacity: 0.5; stroke: #56b4e9; stroke-opacity: 0.5"/>
    </g>
   </g>
   <g id="line2d_42">
    <path d="M 86.4 101.875774 
L 88.530411 102.086151 
L 90.660822 102.494106 
L 92.791233 103.112559 
L 94.921644 103.960959 
L 97.052055 105.066063 
L 99.182466 106.462983 
L 100.957808 107.88201 
L 102.733151 109.566542 
L 104.508493 111.554866 
L 106.283836 113.892674 
L 108.059178 116.634325 
L 109.834521 119.844467 
L 111.609863 123.600246 
L 113.385205 127.994784 
L 114.805479 132.046973 
L 116.225753 136.656154 
L 117.646027 141.920461 
L 119.066301 147.976644 
L 120.486575 155.023234 
L 121.906849 163.346052 
L 123.327123 173.323629 
L 124.747397 185.364636 
L 126.167671 199.722404 
L 127.943014 220.57108 
L 131.493699 263.943644 
L 132.913973 278.330836 
L 133.979178 287.332326 
L 135.044384 294.792429 
L 136.109589 300.826745 
L 137.174795 305.6029 
L 138.24 309.29916 
L 139.305205 312.080144 
L 140.370411 314.085598 
L 141.080548 315.048055 
L 141.790685 315.742484 
L 142.500822 316.190397 
L 143.210959 316.408887 
L 143.921096 316.411116 
L 144.631233 316.206802 
L 145.34137 315.802678 
L 146.051507 315.202923 
L 147.116712 313.940427 
L 148.181918 312.241694 
L 149.247123 310.100324 
L 150.312329 307.506406 
L 151.732603 303.325374 
L 153.152877 298.300755 
L 154.573151 292.427547 
L 156.348493 283.923229 
L 158.123836 274.223367 
L 160.254247 261.255201 
L 163.094795 242.419212 
L 169.841096 197.026763 
L 172.326575 182.021031 
L 174.456986 170.366905 
L 176.587397 159.917939 
L 178.717808 150.680388 
L 180.493151 143.874918 
L 182.268493 137.832523 
L 184.043836 132.497395 
L 185.819178 127.808957 
L 187.594521 123.705596 
L 189.369863 120.127277 
L 191.145205 117.017276 
L 192.920548 114.32321 
L 194.69589 111.997582 
L 196.471233 109.997965 
L 198.246575 108.286946 
L 200.376986 106.569093 
L 202.507397 105.172334 
L 204.637808 104.057473 
L 206.768219 103.193107 
L 208.89863 102.554901 
L 211.029041 102.12498 
L 213.159452 101.89147 
L 215.644932 101.85935 
L 217.775342 102.037626 
L 219.905753 102.411922 
L 222.036164 102.994126 
L 224.166575 103.802552 
L 226.296986 104.862674 
L 228.427397 106.208127 
L 230.20274 107.578072 
L 231.978082 109.206656 
L 233.753425 111.130821 
L 235.528767 113.394681 
L 237.30411 116.050748 
L 239.079452 119.161459 
L 240.854795 122.801238 
L 242.630137 127.059629 
L 244.405479 132.046973 
L 245.825753 136.656154 
L 247.246027 141.920461 
L 248.666301 147.976644 
L 250.086575 155.023234 
L 251.506849 163.346052 
L 252.927123 173.323629 
L 254.347397 185.364636 
L 255.767671 199.722404 
L 257.543014 220.57108 
L 261.093699 263.943644 
L 262.513973 278.330836 
L 263.579178 287.332326 
L 264.644384 294.792429 
L 265.709589 300.826745 
L 266.774795 305.6029 
L 267.84 309.29916 
L 268.905205 312.080144 
L 269.970411 314.085598 
L 270.680548 315.048055 
L 271.390685 315.742484 
L 272.100822 316.190397 
L 272.810959 316.408887 
L 273.521096 316.411116 
L 274.231233 316.206802 
L 274.94137 315.802678 
L 275.651507 315.202923 
L 276.716712 313.940427 
L 277.781918 312.241694 
L 278.847123 310.100324 
L 279.912329 307.506406 
L 281.332603 303.325374 
L 282.752877 298.300755 
L 284.173151 292.427547 
L 285.948493 283.923229 
L 287.723836 274.223367 
L 289.854247 261.255201 
L 292.694795 242.419212 
L 299.441096 197.026763 
L 301.926575 182.021031 
L 304.056986 170.366905 
L 306.187397 159.917939 
L 308.317808 150.680388 
L 310.093151 143.874918 
L 311.868493 137.832523 
L 313.643836 132.497395 
L 315.419178 127.808957 
L 317.194521 123.705596 
L 318.969863 120.127277 
L 320.745205 117.017276 
L 322.520548 114.32321 
L 324.29589 111.997582 
L 326.071233 109.997965 
L 327.846575 108.286946 
L 329.976986 106.569093 
L 332.107397 105.172334 
L 334.237808 104.057473 
L 336.368219 103.193107 
L 338.49863 102.554901 
L 340.629041 102.12498 
L 342.759452 101.89147 
L 345.244932 101.85935 
L 345.244932 101.85935 
" clip-path="url(#pab508e5089)" style="fill: none; stroke-dasharray: 7.4,3.2; stroke-dashoffset: 0; stroke: #000000; stroke-width: 2"/>
   </g>
   <g id="line2d_43">
    <defs>
     <path id="m0ba47f78b8" d="M 0 2.5 
C 0.663008 2.5 1.29895 2.236584 1.767767 1.767767 
C 2.236584 1.29895 2.5 0.663008 2.5 0 
C 2.5 -0.663008 2.236584 -1.29895 1.767767 -1.767767 
C 1.29895 -2.236584 0.663008 -2.5 0 -2.5 
C -0.663008 -2.5 -1.29895 -2.236584 -1.767767 -1.767767 
C -2.236584 -1.29895 -2.5 -0.663008 -2.5 0 
C -2.5 0.663008 -2.236584 1.29895 -1.767767 1.767767 
C -1.29895 2.236584 -0.663008 2.5 0 2.5 
z
" style="stroke: #000000; stroke-opacity: 0.5"/>
    </defs>
    <g clip-path="url(#pab508e5089)">
     <use xlink:href="#m0ba47f78b8" x="86.4" y="101.93904" style="fill-opacity: 0.5; stroke: #000000; stroke-opacity: 0.5"/>
     <use xlink:href="#m0ba47f78b8" x="97.407123" y="105.15312" style="fill-opacity: 0.5; stroke: #000000; stroke-opacity: 0.5"/>
     <use xlink:href="#m0ba47f78b8" x="107.349041" y="115.50816" style="fill-opacity: 0.5; stroke: #000000; stroke-opacity: 0.5"/>
     <use xlink:href="#m0ba47f78b8" x="118.356164" y="144.31824" style="fill-opacity: 0.5; stroke: #000000; stroke-opacity: 0.5"/>
     <use xlink:href="#m0ba47f78b8" x="129.008219" y="234.74016" style="fill-opacity: 0.5; stroke: #000000; stroke-opacity: 0.5"/>
     <use xlink:href="#m0ba47f78b8" x="140.015342" y="313.30368" style="fill-opacity: 0.5; stroke: #000000; stroke-opacity: 0.5"/>
     <use xlink:href="#m0ba47f78b8" x="150.667397" y="305.96832" style="fill-opacity: 0.5; stroke: #000000; stroke-opacity: 0.5"/>
     <use xlink:href="#m0ba47f78b8" x="161.674521" y="252.96192" style="fill-opacity: 0.5; stroke: #000000; stroke-opacity: 0.5"/>
     <use xlink:href="#m0ba47f78b8" x="172.681644" y="181.34496" style="fill-opacity: 0.5; stroke: #000000; stroke-opacity: 0.5"/>
     <use xlink:href="#m0ba47f78b8" x="183.333699" y="135.31104" style="fill-opacity: 0.5; stroke: #000000; stroke-opacity: 0.5"/>
     <use xlink:href="#m0ba47f78b8" x="194.340822" y="112.02192" style="fill-opacity: 0.5; stroke: #000000; stroke-opacity: 0.5"/>
     <use xlink:href="#m0ba47f78b8" x="204.992877" y="104.10336" style="fill-opacity: 0.5; stroke: #000000; stroke-opacity: 0.5"/>
     <use xlink:href="#m0ba47f78b8" x="216" y="101.93904" style="fill-opacity: 0.5; stroke: #000000; stroke-opacity: 0.5"/>
     <use xlink:href="#m0ba47f78b8" x="227.007123" y="105.15312" style="fill-opacity: 0.5; stroke: #000000; stroke-opacity: 0.5"/>
     <use xlink:href="#m0ba47f78b8" x="236.949041" y="115.50816" style="fill-opacity: 0.5; stroke: #000000; stroke-opacity: 0.5"/>
     <use xlink:href="#m0ba47f78b8" x="247.956164" y="144.31824" style="fill-opacity: 0.5; stroke: #000000; stroke-opacity: 0.5"/>
     <use xlink:href="#m0ba47f78b8" x="258.608219" y="234.74016" style="fill-opacity: 0.5; stroke: #000000; stroke-opacity: 0.5"/>
     <use xlink:href="#m0ba47f78b8" x="269.615342" y="313.30368" style="fill-opacity: 0.5; stroke: #000000; stroke-opacity: 0.5"/>
     <use xlink:href="#m0ba47f78b8" x="280.267397" y="305.96832" style="fill-opacity: 0.5; stroke: #000000; stroke-opacity: 0.5"/>
     <use xlink:href="#m0ba47f78b8" x="291.274521" y="252.96192" style="fill-opacity: 0.5; stroke: #000000; stroke-opacity: 0.5"/>
     <use xlink:href="#m0ba47f78b8" x="302.281644" y="181.34496" style="fill-opacity: 0.5; stroke: #000000; stroke-opacity: 0.5"/>
     <use xlink:href="#m0ba47f78b8" x="312.933699" y="135.31104" style="fill-opacity: 0.5; stroke: #000000; stroke-opacity: 0.5"/>
     <use xlink:href="#m0ba47f78b8" x="323.940822" y="112.02192" style="fill-opacity: 0.5; stroke: #000000; stroke-opacity: 0.5"/>
     <use xlink:href="#m0ba47f78b8" x="334.592877" y="104.10336" style="fill-opacity: 0.5; stroke: #000000; stroke-opacity: 0.5"/>
    </g>
   </g>
   <g id="line2d_44">
    <defs>
     <path id="m7cbd87958d" d="M 0 5 
C 1.326016 5 2.597899 4.473168 3.535534 3.535534 
C 4.473168 2.597899 5 1.326016 5 0 
C 5 -1.326016 4.473168 -2.597899 3.535534 -3.535534 
C 2.597899 -4.473168 1.326016 -5 0 -5 
C -1.326016 -5 -2.597899 -4.473168 -3.535534 -3.535534 
C -4.473168 -2.597899 -5 -1.326016 -5 0 
C -5 1.326016 -4.473168 2.597899 -3.535534 3.535534 
C -2.597899 4.473168 -1.326016 5 0 5 
z
" style="stroke: #000000"/>
    </defs>
    <g clip-path="url(#pab508e5089)">
     <use xlink:href="#m7cbd87958d" x="118.356164" y="268.004977" style="stroke: #000000"/>
    </g>
   </g>
   <g id="patch_3">
    <path d="M 86.4 345.6 
L 86.4 86.4 
" style="fill: none; stroke: #262626; stroke-width: 1.25; stroke-linejoin: miter; stroke-linecap: square"/>
   </g>
   <g id="patch_4">
    <path d="M 86.4 345.6 
L 345.6 345.6 
" style="fill: none; stroke: #262626; stroke-width: 1.25; stroke-linejoin: miter; stroke-linecap: square"/>
   </g>
   <g id="legend_1">
    <g id="patch_5">
     <path d="M 239.62 216.420625 
L 335.8 216.420625 
Q 338.6 216.420625 338.6 213.620625 
L 338.6 96.2 
Q 338.6 93.4 335.8 93.4 
L 239.62 93.4 
Q 236.82 93.4 236.82 96.2 
L 236.82 213.620625 
Q 236.82 216.420625 239.62 216.420625 
z
" style="fill: #ffffff; opacity: 0.8; stroke: #cccccc; stroke-linejoin: miter"/>
    </g>
    <g id="line2d_45">
     <path d="M 242.42 104.120937 
L 256.42 104.120937 
L 270.42 104.120937 
" style="fill: none; stroke: #d55e00; stroke-width: 2; stroke-linecap: round"/>
    </g>
    <g id="text_18">
     <!-- $\it{k}$ = 0.1 -->
     <g style="fill: #262626" transform="translate(281.62 109.020937)">
      <text>
       <tspan x="0" y="-0.359375" style="font-style: oblique; font-size: 14px; font-family: 'DejaVu Sans'; fill: #262626">k</tspan>
       <tspan x="8.107422" y="-0.359375" style="font-size: 14px; font-family: 'Arial'; fill: #262626"></tspan>
       <tspan x="11.99707" y="-0.359375" style="font-size: 14px; font-family: 'Arial'; fill: #262626">=</tspan>
       <tspan x="20.172852" y="-0.359375" style="font-size: 14px; font-family: 'Arial'; fill: #262626"></tspan>
       <tspan x="24.0625" y="-0.359375" style="font-size: 14px; font-family: 'Arial'; fill: #262626">0</tspan>
       <tspan x="31.848633" y="-0.359375" style="font-size: 14px; font-family: 'Arial'; fill: #262626">.</tspan>
       <tspan x="35.738281" y="-0.359375" style="font-size: 14px; font-family: 'Arial'; fill: #262626">1</tspan>
      </text>
     </g>
    </g>
    <g id="line2d_46">
     <path d="M 242.42 123.924375 
L 256.42 123.924375 
L 270.42 123.924375 
" style="fill: none; stroke: #0173b2; stroke-width: 2; stroke-linecap: round"/>
    </g>
    <g id="text_19">
     <!-- $\it{k}$ = 0.41 -->
     <g style="fill: #262626" transform="translate(281.62 128.824375)">
      <text>
       <tspan x="0" y="-0.359375" style="font-style: oblique; font-size: 14px; font-family: 'DejaVu Sans'; fill: #262626">k</tspan>
       <tspan x="8.107422" y="-0.359375" style="font-size: 14px; font-family: 'Arial'; fill: #262626"></tspan>
       <tspan x="11.99707" y="-0.359375" style="font-size: 14px; font-family: 'Arial'; fill: #262626">=</tspan>
       <tspan x="20.172852" y="-0.359375" style="font-size: 14px; font-family: 'Arial'; fill: #262626"></tspan>
       <tspan x="24.0625" y="-0.359375" style="font-size: 14px; font-family: 'Arial'; fill: #262626">0</tspan>
       <tspan x="31.848633" y="-0.359375" style="font-size: 14px; font-family: 'Arial'; fill: #262626">.</tspan>
       <tspan x="35.738281" y="-0.359375" style="font-size: 14px; font-family: 'Arial'; fill: #262626">4</tspan>
       <tspan x="43.524414" y="-0.359375" style="font-size: 14px; font-family: 'Arial'; fill: #262626">1</tspan>
      </text>
     </g>
    </g>
    <g id="line2d_47">
     <path d="M 242.42 143.727812 
L 256.42 143.727812 
L 270.42 143.727812 
" style="fill: none; stroke: #029e73; stroke-width: 2; stroke-linecap: round"/>
    </g>
    <g id="text_20">
     <!-- $\it{k}$ = 1 -->
     <g style="fill: #262626" transform="translate(281.62 148.627812)">
      <text>
       <tspan x="0" y="-0.359375" style="font-style: oblique; font-size: 14px; font-family: 'DejaVu Sans'; fill: #262626">k</tspan>
       <tspan x="8.107422" y="-0.359375" style="font-size: 14px; font-family: 'Arial'; fill: #262626"></tspan>
       <tspan x="11.99707" y="-0.359375" style="font-size: 14px; font-family: 'Arial'; fill: #262626">=</tspan>
       <tspan x="20.172852" y="-0.359375" style="font-size: 14px; font-family: 'Arial'; fill: #262626"></tspan>
       <tspan x="24.0625" y="-0.359375" style="font-size: 14px; font-family: 'Arial'; fill: #262626">1</tspan>
      </text>
     </g>
    </g>
    <g id="line2d_48">
     <path d="M 242.42 163.53125 
L 256.42 163.53125 
L 270.42 163.53125 
" style="fill: none; stroke: #de8f05; stroke-width: 2; stroke-linecap: round"/>
    </g>
    <g id="text_21">
     <!-- $\it{k}$ = 10 -->
     <g style="fill: #262626" transform="translate(281.62 168.43125)">
      <text>
       <tspan x="0" y="-0.359375" style="font-style: oblique; font-size: 14px; font-family: 'DejaVu Sans'; fill: #262626">k</tspan>
       <tspan x="8.107422" y="-0.359375" style="font-size: 14px; font-family: 'Arial'; fill: #262626"></tspan>
       <tspan x="11.99707" y="-0.359375" style="font-size: 14px; font-family: 'Arial'; fill: #262626">=</tspan>
       <tspan x="20.172852" y="-0.359375" style="font-size: 14px; font-family: 'Arial'; fill: #262626"></tspan>
       <tspan x="24.0625" y="-0.359375" style="font-size: 14px; font-family: 'Arial'; fill: #262626">1</tspan>
       <tspan x="31.848633" y="-0.359375" style="font-size: 14px; font-family: 'Arial'; fill: #262626">0</tspan>
      </text>
     </g>
    </g>
    <g id="line2d_49">
     <path d="M 242.42 183.334687 
L 256.42 183.334687 
L 270.42 183.334687 
" style="fill: none; stroke: #56b4e9; stroke-width: 2; stroke-linecap: round"/>
    </g>
    <g id="text_22">
     <!-- $\it{k}$ = 100 -->
     <g style="fill: #262626" transform="translate(281.62 188.234687)">
      <text>
       <tspan x="0" y="-0.359375" style="font-style: oblique; font-size: 14px; font-family: 'DejaVu Sans'; fill: #262626">k</tspan>
       <tspan x="8.107422" y="-0.359375" style="font-size: 14px; font-family: 'Arial'; fill: #262626"></tspan>
       <tspan x="11.99707" y="-0.359375" style="font-size: 14px; font-family: 'Arial'; fill: #262626">=</tspan>
       <tspan x="20.172852" y="-0.359375" style="font-size: 14px; font-family: 'Arial'; fill: #262626"></tspan>
       <tspan x="24.0625" y="-0.359375" style="font-size: 14px; font-family: 'Arial'; fill: #262626">1</tspan>
       <tspan x="31.848633" y="-0.359375" style="font-size: 14px; font-family: 'Arial'; fill: #262626">0</tspan>
       <tspan x="39.634766" y="-0.359375" style="font-size: 14px; font-family: 'Arial'; fill: #262626">0</tspan>
      </text>
     </g>
    </g>
    <g id="line2d_50">
     <path d="M 242.42 203.138125 
L 256.42 203.138125 
L 270.42 203.138125 
" style="fill: none; stroke-dasharray: 7.4,3.2; stroke-dashoffset: 0; stroke: #000000; stroke-width: 2"/>
    </g>
    <g id="text_23">
     <!-- $\it{k}$ = $\infty$ -->
     <g style="fill: #262626" transform="translate(281.62 208.038125)">
      <text>
       <tspan x="0" y="-0.359375" style="font-style: oblique; font-size: 14px; font-family: 'DejaVu Sans'; fill: #262626">k</tspan>
       <tspan x="8.107422" y="-0.359375" style="font-size: 14px; font-family: 'Arial'; fill: #262626"></tspan>
       <tspan x="11.99707" y="-0.359375" style="font-size: 14px; font-family: 'Arial'; fill: #262626">=</tspan>
       <tspan x="20.172852" y="-0.359375" style="font-size: 14px; font-family: 'Arial'; fill: #262626"></tspan>
       <tspan x="24.0625" y="-0.359375" style="font-size: 14px; font-family: 'DejaVu Sans'; fill: #262626"></tspan>
      </text>
     </g>
    </g>
   </g>
  </g>
 </g>
 <defs>
  <clipPath id="pab508e5089">
   <rect x="86.4" y="86.4" width="259.2" height="259.2"/>
  </clipPath>
 </defs>
</svg>
