<?xml version="1.0" encoding="utf-8" standalone="no"?>
<!DOCTYPE svg PUBLIC "-//W3C//DTD SVG 1.1//EN"
  "http://www.w3.org/Graphics/SVG/1.1/DTD/svg11.dtd">
<svg xmlns:xlink="http://www.w3.org/1999/xlink" width="432pt" height="432pt" viewBox="0 0 432 432" xmlns="http://www.w3.org/2000/svg" version="1.1">
 <metadata>
  <rdf:RDF xmlns:dc="http://purl.org/dc/elements/1.1/" xmlns:cc="http://creativecommons.org/ns#" xmlns:rdf="http://www.w3.org/1999/02/22-rdf-syntax-ns#">
   <cc:Work>
    <dc:type rdf:resource="http://purl.org/dc/dcmitype/StillImage"/>
    <dc:date>2024-05-31T10:18:53.992761</dc:date>
    <dc:format>image/svg+xml</dc:format>
    <dc:creator>
     <cc:Agent>
      <dc:title>Matplotlib v3.8.4, https://matplotlib.org/</dc:title>
     </cc:Agent>
    </dc:creator>
   </cc:Work>
  </rdf:RDF>
 </metadata>
 <defs>
  <style type="text/css">*{stroke-linejoin: round; stroke-linecap: butt}</style>
 </defs>
 <g id="figure_1">
  <g id="patch_1">
   <path d="M 0 432 
L 432 432 
L 432 0 
L 0 0 
L 0 432 
z
" style="fill: none"/>
  </g>
  <g id="axes_1">
   <g id="patch_2">
    <path d="M 86.4 345.6 
L 345.6 345.6 
L 345.6 86.4 
L 86.4 86.4 
L 86.4 345.6 
z
" style="fill: none"/>
   </g>
   <g id="matplotlib.axis_1">
    <g id="xtick_1">
     <g id="line2d_1">
      <defs>
       <path id="mf256e2ab41" d="M 0 0 
L 0 6 
" style="stroke: #262626; stroke-width: 1.25"/>
      </defs>
      <g>
       <use xlink:href="#mf256e2ab41" x="86.4" y="345.6" style="fill: #262626; stroke: #262626; stroke-width: 1.25"/>
      </g>
     </g>
     <g id="text_1">
      <text style="fill: #262626; font: 16px 'Arial', 'DejaVu Sans', 'Liberation Sans', 'Bitstream Vera Sans', sans-serif; text-anchor: middle" x="86.4" y="366.5525" transform="rotate(-0 86.4 366.5525)">Jan</text>
     </g>
    </g>
    <g id="xtick_2">
     <g id="line2d_2">
      <g>
       <use xlink:href="#mf256e2ab41" x="97.2" y="345.6" style="fill: #262626; stroke: #262626; stroke-width: 1.25"/>
      </g>
     </g>
    </g>
    <g id="xtick_3">
     <g id="line2d_3">
      <g>
       <use xlink:href="#mf256e2ab41" x="108" y="345.6" style="fill: #262626; stroke: #262626; stroke-width: 1.25"/>
      </g>
     </g>
    </g>
    <g id="xtick_4">
     <g id="line2d_4">
      <g>
       <use xlink:href="#mf256e2ab41" x="118.8" y="345.6" style="fill: #262626; stroke: #262626; stroke-width: 1.25"/>
      </g>
     </g>
     <g id="text_2">
      <text style="fill: #262626; font: 16px 'Arial', 'DejaVu Sans', 'Liberation Sans', 'Bitstream Vera Sans', sans-serif; text-anchor: middle" x="118.8" y="366.5525" transform="rotate(-0 118.8 366.5525)">Apr</text>
     </g>
    </g>
    <g id="xtick_5">
     <g id="line2d_5">
      <g>
       <use xlink:href="#mf256e2ab41" x="129.6" y="345.6" style="fill: #262626; stroke: #262626; stroke-width: 1.25"/>
      </g>
     </g>
    </g>
    <g id="xtick_6">
     <g id="line2d_6">
      <g>
       <use xlink:href="#mf256e2ab41" x="140.4" y="345.6" style="fill: #262626; stroke: #262626; stroke-width: 1.25"/>
      </g>
     </g>
    </g>
    <g id="xtick_7">
     <g id="line2d_7">
      <g>
       <use xlink:href="#mf256e2ab41" x="151.2" y="345.6" style="fill: #262626; stroke: #262626; stroke-width: 1.25"/>
      </g>
     </g>
     <g id="text_3">
      <text style="fill: #262626; font: 16px 'Arial', 'DejaVu Sans', 'Liberation Sans', 'Bitstream Vera Sans', sans-serif; text-anchor: middle" x="151.2" y="366.5525" transform="rotate(-0 151.2 366.5525)">Jul</text>
     </g>
    </g>
    <g id="xtick_8">
     <g id="line2d_8">
      <g>
       <use xlink:href="#mf256e2ab41" x="162" y="345.6" style="fill: #262626; stroke: #262626; stroke-width: 1.25"/>
      </g>
     </g>
    </g>
    <g id="xtick_9">
     <g id="line2d_9">
      <g>
       <use xlink:href="#mf256e2ab41" x="172.8" y="345.6" style="fill: #262626; stroke: #262626; stroke-width: 1.25"/>
      </g>
     </g>
    </g>
    <g id="xtick_10">
     <g id="line2d_10">
      <g>
       <use xlink:href="#mf256e2ab41" x="183.6" y="345.6" style="fill: #262626; stroke: #262626; stroke-width: 1.25"/>
      </g>
     </g>
     <g id="text_4">
      <text style="fill: #262626; font: 16px 'Arial', 'DejaVu Sans', 'Liberation Sans', 'Bitstream Vera Sans', sans-serif; text-anchor: middle" x="183.6" y="366.5525" transform="rotate(-0 183.6 366.5525)">Oct</text>
     </g>
    </g>
    <g id="xtick_11">
     <g id="line2d_11">
      <g>
       <use xlink:href="#mf256e2ab41" x="194.4" y="345.6" style="fill: #262626; stroke: #262626; stroke-width: 1.25"/>
      </g>
     </g>
    </g>
    <g id="xtick_12">
     <g id="line2d_12">
      <g>
       <use xlink:href="#mf256e2ab41" x="205.2" y="345.6" style="fill: #262626; stroke: #262626; stroke-width: 1.25"/>
      </g>
     </g>
    </g>
    <g id="xtick_13">
     <g id="line2d_13">
      <g>
       <use xlink:href="#mf256e2ab41" x="216" y="345.6" style="fill: #262626; stroke: #262626; stroke-width: 1.25"/>
      </g>
     </g>
     <g id="text_5">
      <text style="fill: #262626; font: 16px 'Arial', 'DejaVu Sans', 'Liberation Sans', 'Bitstream Vera Sans', sans-serif; text-anchor: middle" x="216" y="366.5525" transform="rotate(-0 216 366.5525)">Jan</text>
     </g>
    </g>
    <g id="xtick_14">
     <g id="line2d_14">
      <g>
       <use xlink:href="#mf256e2ab41" x="226.8" y="345.6" style="fill: #262626; stroke: #262626; stroke-width: 1.25"/>
      </g>
     </g>
    </g>
    <g id="xtick_15">
     <g id="line2d_15">
      <g>
       <use xlink:href="#mf256e2ab41" x="237.6" y="345.6" style="fill: #262626; stroke: #262626; stroke-width: 1.25"/>
      </g>
     </g>
    </g>
    <g id="xtick_16">
     <g id="line2d_16">
      <g>
       <use xlink:href="#mf256e2ab41" x="248.4" y="345.6" style="fill: #262626; stroke: #262626; stroke-width: 1.25"/>
      </g>
     </g>
     <g id="text_6">
      <text style="fill: #262626; font: 16px 'Arial', 'DejaVu Sans', 'Liberation Sans', 'Bitstream Vera Sans', sans-serif; text-anchor: middle" x="248.4" y="366.5525" transform="rotate(-0 248.4 366.5525)">Apr</text>
     </g>
    </g>
    <g id="xtick_17">
     <g id="line2d_17">
      <g>
       <use xlink:href="#mf256e2ab41" x="259.2" y="345.6" style="fill: #262626; stroke: #262626; stroke-width: 1.25"/>
      </g>
     </g>
    </g>
    <g id="xtick_18">
     <g id="line2d_18">
      <g>
       <use xlink:href="#mf256e2ab41" x="270" y="345.6" style="fill: #262626; stroke: #262626; stroke-width: 1.25"/>
      </g>
     </g>
    </g>
    <g id="xtick_19">
     <g id="line2d_19">
      <g>
       <use xlink:href="#mf256e2ab41" x="280.8" y="345.6" style="fill: #262626; stroke: #262626; stroke-width: 1.25"/>
      </g>
     </g>
     <g id="text_7">
      <text style="fill: #262626; font: 16px 'Arial', 'DejaVu Sans', 'Liberation Sans', 'Bitstream Vera Sans', sans-serif; text-anchor: middle" x="280.8" y="366.5525" transform="rotate(-0 280.8 366.5525)">Jul</text>
     </g>
    </g>
    <g id="xtick_20">
     <g id="line2d_20">
      <g>
       <use xlink:href="#mf256e2ab41" x="291.6" y="345.6" style="fill: #262626; stroke: #262626; stroke-width: 1.25"/>
      </g>
     </g>
    </g>
    <g id="xtick_21">
     <g id="line2d_21">
      <g>
       <use xlink:href="#mf256e2ab41" x="302.4" y="345.6" style="fill: #262626; stroke: #262626; stroke-width: 1.25"/>
      </g>
     </g>
    </g>
    <g id="xtick_22">
     <g id="line2d_22">
      <g>
       <use xlink:href="#mf256e2ab41" x="313.2" y="345.6" style="fill: #262626; stroke: #262626; stroke-width: 1.25"/>
      </g>
     </g>
     <g id="text_8">
      <text style="fill: #262626; font: 16px 'Arial', 'DejaVu Sans', 'Liberation Sans', 'Bitstream Vera Sans', sans-serif; text-anchor: middle" x="313.2" y="366.5525" transform="rotate(-0 313.2 366.5525)">Oct</text>
     </g>
    </g>
    <g id="xtick_23">
     <g id="line2d_23">
      <g>
       <use xlink:href="#mf256e2ab41" x="324" y="345.6" style="fill: #262626; stroke: #262626; stroke-width: 1.25"/>
      </g>
     </g>
    </g>
    <g id="xtick_24">
     <g id="line2d_24">
      <g>
       <use xlink:href="#mf256e2ab41" x="334.8" y="345.6" style="fill: #262626; stroke: #262626; stroke-width: 1.25"/>
      </g>
     </g>
    </g>
    <g id="xtick_25">
     <g id="line2d_25">
      <g>
       <use xlink:href="#mf256e2ab41" x="345.6" y="345.6" style="fill: #262626; stroke: #262626; stroke-width: 1.25"/>
      </g>
     </g>
     <g id="text_9">
      <text style="fill: #262626; font: 16px 'Arial', 'DejaVu Sans', 'Liberation Sans', 'Bitstream Vera Sans', sans-serif; text-anchor: middle" x="345.6" y="366.5525" transform="rotate(-0 345.6 366.5525)">Jan</text>
     </g>
    </g>
    <g id="text_10">
     <text style="fill: #262626; font: 16px 'Arial', 'DejaVu Sans', 'Liberation Sans', 'Bitstream Vera Sans', sans-serif; text-anchor: middle" x="216" y="385.185" transform="rotate(-0 216 385.185)"> </text>
    </g>
   </g>
   <g id="matplotlib.axis_2">
    <g id="ytick_1">
     <g id="line2d_26">
      <defs>
       <path id="m28262bd598" d="M 0 0 
L -6 0 
" style="stroke: #262626; stroke-width: 1.25"/>
      </defs>
      <g>
       <use xlink:href="#m28262bd598" x="86.4" y="345.6" style="fill: #262626; stroke: #262626; stroke-width: 1.25"/>
      </g>
     </g>
     <g id="text_11">
      <text style="fill: #262626; font: 16px 'Arial', 'DejaVu Sans', 'Liberation Sans', 'Bitstream Vera Sans', sans-serif; text-anchor: end" x="76.9" y="351.32625" transform="rotate(-0 76.9 351.32625)">0.0</text>
     </g>
    </g>
    <g id="ytick_2">
     <g id="line2d_27">
      <g>
       <use xlink:href="#m28262bd598" x="86.4" y="293.76" style="fill: #262626; stroke: #262626; stroke-width: 1.25"/>
      </g>
     </g>
     <g id="text_12">
      <text style="fill: #262626; font: 16px 'Arial', 'DejaVu Sans', 'Liberation Sans', 'Bitstream Vera Sans', sans-serif; text-anchor: end" x="76.9" y="299.48625" transform="rotate(-0 76.9 299.48625)">0.2</text>
     </g>
    </g>
    <g id="ytick_3">
     <g id="line2d_28">
      <g>
       <use xlink:href="#m28262bd598" x="86.4" y="241.92" style="fill: #262626; stroke: #262626; stroke-width: 1.25"/>
      </g>
     </g>
     <g id="text_13">
      <text style="fill: #262626; font: 16px 'Arial', 'DejaVu Sans', 'Liberation Sans', 'Bitstream Vera Sans', sans-serif; text-anchor: end" x="76.9" y="247.64625" transform="rotate(-0 76.9 247.64625)">0.4</text>
     </g>
    </g>
    <g id="ytick_4">
     <g id="line2d_29">
      <g>
       <use xlink:href="#m28262bd598" x="86.4" y="190.08" style="fill: #262626; stroke: #262626; stroke-width: 1.25"/>
      </g>
     </g>
     <g id="text_14">
      <text style="fill: #262626; font: 16px 'Arial', 'DejaVu Sans', 'Liberation Sans', 'Bitstream Vera Sans', sans-serif; text-anchor: end" x="76.9" y="195.80625" transform="rotate(-0 76.9 195.80625)">0.6</text>
     </g>
    </g>
    <g id="ytick_5">
     <g id="line2d_30">
      <g>
       <use xlink:href="#m28262bd598" x="86.4" y="138.24" style="fill: #262626; stroke: #262626; stroke-width: 1.25"/>
      </g>
     </g>
     <g id="text_15">
      <text style="fill: #262626; font: 16px 'Arial', 'DejaVu Sans', 'Liberation Sans', 'Bitstream Vera Sans', sans-serif; text-anchor: end" x="76.9" y="143.96625" transform="rotate(-0 76.9 143.96625)">0.8</text>
     </g>
    </g>
    <g id="ytick_6">
     <g id="line2d_31">
      <g>
       <use xlink:href="#m28262bd598" x="86.4" y="86.4" style="fill: #262626; stroke: #262626; stroke-width: 1.25"/>
      </g>
     </g>
     <g id="text_16">
      <text style="fill: #262626; font: 16px 'Arial', 'DejaVu Sans', 'Liberation Sans', 'Bitstream Vera Sans', sans-serif; text-anchor: end" x="76.9" y="92.12625" transform="rotate(-0 76.9 92.12625)">1.0</text>
     </g>
    </g>
    <g id="text_17">
     <text style="fill: #262626; font: 16px 'Arial', 'DejaVu Sans', 'Liberation Sans', 'Bitstream Vera Sans', sans-serif; text-anchor: middle" x="47.48" y="216" transform="rotate(-90 47.48 216)">Outbreak risk</text>
    </g>
   </g>
   <g id="line2d_32">
    <path d="M 86.4 216.138574 
L 88.2 216.427618 
L 90 216.918035 
L 91.8 217.613202 
L 93.6 218.51766 
L 95.4 219.637167 
L 97.2 220.978764 
L 99.36 222.893779 
L 101.52 225.158116 
L 103.68 227.792454 
L 105.84 230.821288 
L 108 234.273695 
L 110.16 238.18483 
L 112.32 242.599173 
L 114.48 247.577743 
L 116.64 253.212943 
L 118.44 258.51545 
L 120.24 264.504229 
L 122.04 271.341107 
L 123.84 279.166492 
L 126 289.818567 
L 130.32 311.890422 
L 131.76 317.989441 
L 133.2 323.003655 
L 134.28 326.043043 
L 135.36 328.512126 
L 136.44 330.47717 
L 137.52 332.009543 
L 138.6 333.176146 
L 139.68 334.034577 
L 140.76 334.63151 
L 141.84 335.002926 
L 142.92 335.175201 
L 144 335.166491 
L 145.44 334.89207 
L 146.88 334.327282 
L 148.32 333.471082 
L 149.76 332.313656 
L 151.2 330.840349 
L 152.64 329.035471 
L 154.08 326.885974 
L 155.52 324.384767 
L 157.32 320.766957 
L 159.12 316.628498 
L 161.28 311.04939 
L 163.8 303.864263 
L 167.4 292.8263 
L 174.24 271.73184 
L 177.48 262.533198 
L 180.36 255.031794 
L 182.88 249.043039 
L 185.4 243.60674 
L 187.92 238.720224 
L 190.44 234.370177 
L 192.6 231.054036 
L 194.76 228.104153 
L 196.92 225.506451 
L 199.08 223.247311 
L 201.24 221.314107 
L 203.4 219.695573 
L 205.56 218.382041 
L 207.72 217.365613 
L 209.52 216.741143 
L 211.32 216.316335 
L 213.12 216.089719 
L 214.92 216.060821 
L 216.72 216.230196 
L 218.52 216.599456 
L 220.32 217.171304 
L 222.12 217.949576 
L 223.92 218.939292 
L 225.72 220.146715 
L 227.88 221.893764 
L 230.04 223.981073 
L 232.2 226.4276 
L 234.36 229.255861 
L 236.52 232.492516 
L 238.68 236.169417 
L 240.84 240.325801 
L 243 245.013135 
L 245.16 250.305639 
L 246.96 255.260771 
L 248.76 260.820021 
L 250.56 267.127828 
L 252.36 274.348061 
L 254.16 282.579537 
L 256.32 293.584541 
L 259.56 310.21432 
L 261 316.562335 
L 262.44 321.854878 
L 263.52 325.096146 
L 264.6 327.748601 
L 265.68 329.873731 
L 266.76 331.542535 
L 267.84 332.824145 
L 268.92 333.779566 
L 270 334.459156 
L 271.08 334.902367 
L 272.16 335.138629 
L 273.24 335.18868 
L 274.32 335.065965 
L 275.76 334.645784 
L 277.2 333.936063 
L 278.64 332.93087 
L 280.08 331.617488 
L 281.52 329.980275 
L 282.96 328.004418 
L 284.4 325.679466 
L 286.2 322.278591 
L 288 318.343615 
L 290.16 312.976738 
L 292.68 305.978265 
L 295.92 296.194959 
L 304.56 269.62537 
L 307.8 260.594532 
L 310.68 253.264787 
L 313.2 247.433298 
L 315.72 242.154921 
L 318.24 237.423375 
L 320.4 233.791458 
L 322.56 230.537336 
L 324.72 227.647123 
L 326.88 225.106772 
L 329.04 222.902798 
L 331.2 221.022782 
L 333.36 219.455706 
L 335.52 218.19219 
L 337.68 217.224642 
L 339.48 216.64027 
L 341.28 216.255186 
L 343.08 216.068119 
L 344.88 216.078798 
L 345.24 216.104712 
L 345.24 216.104712 
" clip-path="url(#p8966d81978)" style="fill: none; stroke: #4c72b0; stroke-width: 2; stroke-linecap: round"/>
   </g>
   <g id="line2d_33">
    <path d="M 86.4 216 
L 88.2 216.098739 
L 90 216.395466 
L 91.8 216.891717 
L 93.6 217.590054 
L 95.4 218.494073 
L 97.56 219.856992 
L 99.72 221.532802 
L 101.88 223.533637 
L 104.04 225.873743 
L 106.2 228.569386 
L 108.36 231.638676 
L 110.52 235.101263 
L 112.68 238.977842 
L 114.84 243.289385 
L 117 248.056002 
L 119.52 254.215435 
L 122.04 261.037122 
L 124.56 268.523889 
L 127.44 277.862893 
L 130.68 289.24199 
L 135.36 306.677185 
L 139.32 321.193026 
L 141.48 328.420694 
L 143.28 333.779461 
L 144.72 337.49427 
L 146.16 340.598934 
L 147.24 342.476143 
L 148.32 343.932737 
L 149.4 344.94466 
L 150.12 345.363472 
L 150.84 345.573685 
L 151.56 345.573685 
L 152.28 345.363472 
L 153 344.94466 
L 153.72 344.320449 
L 154.8 343.00973 
L 155.88 341.269663 
L 156.96 339.128393 
L 158.4 335.707459 
L 159.84 331.722208 
L 161.64 326.093873 
L 164.16 317.347395 
L 168.48 301.257356 
L 173.16 284.084205 
L 176.4 273.093092 
L 179.28 264.164931 
L 181.8 257.057289 
L 184.32 250.615616 
L 186.84 244.826754 
L 189 240.365669 
L 191.16 236.346418 
L 193.32 232.748165 
L 195.48 229.550024 
L 197.64 226.731928 
L 199.8 224.275213 
L 201.96 222.162973 
L 204.12 220.380275 
L 206.28 218.914275 
L 208.44 217.75427 
L 210.24 217.015117 
L 212.04 216.478687 
L 213.84 216.142211 
L 215.64 216.003948 
L 217.44 216.063183 
L 219.24 216.320222 
L 221.04 216.776397 
L 222.84 217.434062 
L 224.64 218.296608 
L 226.44 219.368458 
L 228.6 220.938728 
L 230.76 222.829742 
L 232.92 225.055047 
L 235.08 227.630251 
L 237.24 230.572877 
L 239.4 233.902105 
L 241.56 237.63835 
L 243.72 241.8026 
L 245.88 246.415407 
L 248.04 251.495419 
L 250.56 258.031793 
L 253.08 265.234597 
L 255.6 273.093092 
L 258.48 282.818548 
L 262.08 295.86571 
L 269.64 323.680658 
L 271.8 330.648917 
L 273.6 335.707459 
L 275.04 339.128393 
L 276.48 341.895771 
L 277.56 343.49556 
L 278.64 344.657969 
L 279.36 345.179977 
L 280.08 345.494792 
L 280.8 345.599964 
L 281.52 345.494792 
L 282.24 345.179977 
L 282.96 344.657969 
L 284.04 343.49556 
L 285.12 341.895771 
L 286.2 339.884764 
L 287.64 336.619244 
L 289.08 332.766233 
L 290.88 327.268842 
L 293.04 319.924957 
L 296.28 308.029638 
L 302.76 284.084205 
L 306 273.093092 
L 308.88 264.164931 
L 311.4 257.057289 
L 313.92 250.615616 
L 316.44 244.826754 
L 318.6 240.365669 
L 320.76 236.346418 
L 322.92 232.748165 
L 325.08 229.550024 
L 327.24 226.731928 
L 329.4 224.275213 
L 331.56 222.162973 
L 333.72 220.380275 
L 335.88 218.914275 
L 338.04 217.75427 
L 339.84 217.015117 
L 341.64 216.478687 
L 343.44 216.142211 
L 345.24 216.003948 
L 345.24 216.003948 
" clip-path="url(#p8966d81978)" style="fill: none; stroke-dasharray: 7.4,3.2; stroke-dashoffset: 0; stroke: #dd8452; stroke-width: 2"/>
   </g>
   <g id="line2d_34">
    <defs>
     <path id="md3c0f8db5f" d="M 0 4 
C 1.060812 4 2.078319 3.578535 2.828427 2.828427 
C 3.578535 2.078319 4 1.060812 4 0 
C 4 -1.060812 3.578535 -2.078319 2.828427 -2.828427 
C 2.078319 -3.578535 1.060812 -4 0 -4 
C -1.060812 -4 -2.078319 -3.578535 -2.828427 -2.828427 
C -3.578535 -2.078319 -4 -1.060812 -4 0 
C -4 1.060812 -3.578535 2.078319 -2.828427 2.828427 
C -2.078319 3.578535 -1.060812 4 0 4 
z
" style="stroke: #ccb974"/>
    </defs>
    <g clip-path="url(#p8966d81978)">
     <use xlink:href="#md3c0f8db5f" x="86.4" y="217.14048" style="fill: #ccb974; stroke: #ccb974"/>
     <use xlink:href="#md3c0f8db5f" x="97.2" y="220.1472" style="fill: #ccb974; stroke: #ccb974"/>
     <use xlink:href="#md3c0f8db5f" x="108" y="233.67744" style="fill: #ccb974; stroke: #ccb974"/>
     <use xlink:href="#md3c0f8db5f" x="118.8" y="259.90848" style="fill: #ccb974; stroke: #ccb974"/>
     <use xlink:href="#md3c0f8db5f" x="129.6" y="300.4992" style="fill: #ccb974; stroke: #ccb974"/>
     <use xlink:href="#md3c0f8db5f" x="140.4" y="330.77376" style="fill: #ccb974; stroke: #ccb974"/>
     <use xlink:href="#md3c0f8db5f" x="151.2" y="330.72192" style="fill: #ccb974; stroke: #ccb974"/>
     <use xlink:href="#md3c0f8db5f" x="162" y="310.24512" style="fill: #ccb974; stroke: #ccb974"/>
     <use xlink:href="#md3c0f8db5f" x="172.8" y="276.49728" style="fill: #ccb974; stroke: #ccb974"/>
     <use xlink:href="#md3c0f8db5f" x="183.6" y="245.65248" style="fill: #ccb974; stroke: #ccb974"/>
     <use xlink:href="#md3c0f8db5f" x="194.4" y="228.80448" style="fill: #ccb974; stroke: #ccb974"/>
     <use xlink:href="#md3c0f8db5f" x="205.2" y="217.19232" style="fill: #ccb974; stroke: #ccb974"/>
     <use xlink:href="#md3c0f8db5f" x="216" y="217.14048" style="fill: #ccb974; stroke: #ccb974"/>
     <use xlink:href="#md3c0f8db5f" x="226.8" y="220.1472" style="fill: #ccb974; stroke: #ccb974"/>
     <use xlink:href="#md3c0f8db5f" x="237.6" y="233.67744" style="fill: #ccb974; stroke: #ccb974"/>
     <use xlink:href="#md3c0f8db5f" x="248.4" y="259.90848" style="fill: #ccb974; stroke: #ccb974"/>
     <use xlink:href="#md3c0f8db5f" x="259.2" y="300.4992" style="fill: #ccb974; stroke: #ccb974"/>
     <use xlink:href="#md3c0f8db5f" x="270" y="330.77376" style="fill: #ccb974; stroke: #ccb974"/>
     <use xlink:href="#md3c0f8db5f" x="280.8" y="330.72192" style="fill: #ccb974; stroke: #ccb974"/>
     <use xlink:href="#md3c0f8db5f" x="291.6" y="310.24512" style="fill: #ccb974; stroke: #ccb974"/>
     <use xlink:href="#md3c0f8db5f" x="302.4" y="276.49728" style="fill: #ccb974; stroke: #ccb974"/>
     <use xlink:href="#md3c0f8db5f" x="313.2" y="245.65248" style="fill: #ccb974; stroke: #ccb974"/>
     <use xlink:href="#md3c0f8db5f" x="324" y="228.80448" style="fill: #ccb974; stroke: #ccb974"/>
     <use xlink:href="#md3c0f8db5f" x="334.8" y="217.19232" style="fill: #ccb974; stroke: #ccb974"/>
    </g>
   </g>
   <g id="patch_3">
    <path d="M 86.4 345.6 
L 86.4 86.4 
" style="fill: none; stroke: #262626; stroke-width: 1.25; stroke-linejoin: miter; stroke-linecap: square"/>
   </g>
   <g id="patch_4">
    <path d="M 86.4 345.6 
L 345.6 345.6 
" style="fill: none; stroke: #262626; stroke-width: 1.25; stroke-linejoin: miter; stroke-linecap: square"/>
   </g>
   <g id="legend_1">
    <g id="patch_5">
     <path d="M 119.020937 157.010312 
L 335.8 157.010312 
Q 338.6 157.010312 338.6 154.210312 
L 338.6 96.2 
Q 338.6 93.4 335.8 93.4 
L 119.020937 93.4 
Q 116.220937 93.4 116.220937 96.2 
L 116.220937 154.210312 
Q 116.220937 157.010312 119.020937 157.010312 
z
" style="fill: #ffffff; opacity: 0.8; stroke: #cccccc; stroke-linejoin: miter"/>
    </g>
    <g id="line2d_35">
     <path d="M 121.820937 104.120937 
L 135.820937 104.120937 
L 149.820937 104.120937 
" style="fill: none; stroke: #4c72b0; stroke-width: 2; stroke-linecap: round"/>
    </g>
    <g id="text_18">
     <text style="fill: #262626; font: 14px 'Arial', 'DejaVu Sans', 'Liberation Sans', 'Bitstream Vera Sans', sans-serif; text-anchor: start" x="161.020938" y="109.020937" transform="rotate(-0 161.020938 109.020937)">Case outbreak risk</text>
    </g>
    <g id="line2d_36">
     <path d="M 121.820937 123.924375 
L 135.820937 123.924375 
L 149.820937 123.924375 
" style="fill: none; stroke-dasharray: 7.4,3.2; stroke-dashoffset: 0; stroke: #dd8452; stroke-width: 2"/>
    </g>
    <g id="text_19">
     <text style="fill: #262626; font: 14px 'Arial', 'DejaVu Sans', 'Liberation Sans', 'Bitstream Vera Sans', sans-serif; text-anchor: start" x="161.020938" y="128.824375" transform="rotate(-0 161.020938 128.824375)">Instantaneous outbreak risk</text>
    </g>
    <g id="line2d_37">
     <g>
      <use xlink:href="#md3c0f8db5f" x="135.820937" y="143.727812" style="fill: #ccb974; stroke: #ccb974"/>
     </g>
    </g>
    <g id="text_20">
     <text style="fill: #262626; font: 14px 'Arial', 'DejaVu Sans', 'Liberation Sans', 'Bitstream Vera Sans', sans-serif; text-anchor: start" x="161.020938" y="148.627812" transform="rotate(-0 161.020938 148.627812)">Simulated outbreak risk</text>
    </g>
   </g>
  </g>
 </g>
 <defs>
  <clipPath id="p8966d81978">
   <rect x="86.4" y="86.4" width="259.2" height="259.2"/>
  </clipPath>
 </defs>
</svg>
