<?xml version="1.0" encoding="utf-8" standalone="no"?>
<!DOCTYPE svg PUBLIC "-//W3C//DTD SVG 1.1//EN"
  "http://www.w3.org/Graphics/SVG/1.1/DTD/svg11.dtd">
<svg xmlns:xlink="http://www.w3.org/1999/xlink" width="432pt" height="432pt" viewBox="0 0 432 432" xmlns="http://www.w3.org/2000/svg" version="1.1">
 <metadata>
  <rdf:RDF xmlns:dc="http://purl.org/dc/elements/1.1/" xmlns:cc="http://creativecommons.org/ns#" xmlns:rdf="http://www.w3.org/1999/02/22-rdf-syntax-ns#">
   <cc:Work>
    <dc:type rdf:resource="http://purl.org/dc/dcmitype/StillImage"/>
    <dc:date>2024-05-14T12:29:29.754069</dc:date>
    <dc:format>image/svg+xml</dc:format>
    <dc:creator>
     <cc:Agent>
      <dc:title>Matplotlib v3.8.4, https://matplotlib.org/</dc:title>
     </cc:Agent>
    </dc:creator>
   </cc:Work>
  </rdf:RDF>
 </metadata>
 <defs>
  <style type="text/css">*{stroke-linejoin: round; stroke-linecap: butt}</style>
 </defs>
 <g id="figure_1">
  <g id="patch_1">
   <path d="M 0 432 
L 432 432 
L 432 0 
L 0 0 
L 0 432 
z
" style="fill: none"/>
  </g>
  <g id="axes_1">
   <g id="patch_2">
    <path d="M 86.4 345.6 
L 345.6 345.6 
L 345.6 86.4 
L 86.4 86.4 
L 86.4 345.6 
z
" style="fill: none"/>
   </g>
   <g id="matplotlib.axis_1">
    <g id="xtick_1">
     <g id="line2d_1">
      <defs>
       <path id="me50ed973b0" d="M 0 0 
L 0 6 
" style="stroke: #262626; stroke-width: 1.25"/>
      </defs>
      <g>
       <use xlink:href="#me50ed973b0" x="86.4" y="345.6" style="fill: #262626; stroke: #262626; stroke-width: 1.25"/>
      </g>
     </g>
     <g id="text_1">
      <text style="fill: #262626; font: 16px 'Arial', 'DejaVu Sans', 'Liberation Sans', 'Bitstream Vera Sans', sans-serif; text-anchor: middle" x="86.4" y="366.5525" transform="rotate(-0 86.4 366.5525)">Jan</text>
     </g>
    </g>
    <g id="xtick_2">
     <g id="line2d_2">
      <g>
       <use xlink:href="#me50ed973b0" x="97.2" y="345.6" style="fill: #262626; stroke: #262626; stroke-width: 1.25"/>
      </g>
     </g>
    </g>
    <g id="xtick_3">
     <g id="line2d_3">
      <g>
       <use xlink:href="#me50ed973b0" x="108" y="345.6" style="fill: #262626; stroke: #262626; stroke-width: 1.25"/>
      </g>
     </g>
    </g>
    <g id="xtick_4">
     <g id="line2d_4">
      <g>
       <use xlink:href="#me50ed973b0" x="118.8" y="345.6" style="fill: #262626; stroke: #262626; stroke-width: 1.25"/>
      </g>
     </g>
     <g id="text_2">
      <text style="fill: #262626; font: 16px 'Arial', 'DejaVu Sans', 'Liberation Sans', 'Bitstream Vera Sans', sans-serif; text-anchor: middle" x="118.8" y="366.5525" transform="rotate(-0 118.8 366.5525)">Apr</text>
     </g>
    </g>
    <g id="xtick_5">
     <g id="line2d_5">
      <g>
       <use xlink:href="#me50ed973b0" x="129.6" y="345.6" style="fill: #262626; stroke: #262626; stroke-width: 1.25"/>
      </g>
     </g>
    </g>
    <g id="xtick_6">
     <g id="line2d_6">
      <g>
       <use xlink:href="#me50ed973b0" x="140.4" y="345.6" style="fill: #262626; stroke: #262626; stroke-width: 1.25"/>
      </g>
     </g>
    </g>
    <g id="xtick_7">
     <g id="line2d_7">
      <g>
       <use xlink:href="#me50ed973b0" x="151.2" y="345.6" style="fill: #262626; stroke: #262626; stroke-width: 1.25"/>
      </g>
     </g>
     <g id="text_3">
      <text style="fill: #262626; font: 16px 'Arial', 'DejaVu Sans', 'Liberation Sans', 'Bitstream Vera Sans', sans-serif; text-anchor: middle" x="151.2" y="366.5525" transform="rotate(-0 151.2 366.5525)">Jul</text>
     </g>
    </g>
    <g id="xtick_8">
     <g id="line2d_8">
      <g>
       <use xlink:href="#me50ed973b0" x="162" y="345.6" style="fill: #262626; stroke: #262626; stroke-width: 1.25"/>
      </g>
     </g>
    </g>
    <g id="xtick_9">
     <g id="line2d_9">
      <g>
       <use xlink:href="#me50ed973b0" x="172.8" y="345.6" style="fill: #262626; stroke: #262626; stroke-width: 1.25"/>
      </g>
     </g>
    </g>
    <g id="xtick_10">
     <g id="line2d_10">
      <g>
       <use xlink:href="#me50ed973b0" x="183.6" y="345.6" style="fill: #262626; stroke: #262626; stroke-width: 1.25"/>
      </g>
     </g>
     <g id="text_4">
      <text style="fill: #262626; font: 16px 'Arial', 'DejaVu Sans', 'Liberation Sans', 'Bitstream Vera Sans', sans-serif; text-anchor: middle" x="183.6" y="366.5525" transform="rotate(-0 183.6 366.5525)">Oct</text>
     </g>
    </g>
    <g id="xtick_11">
     <g id="line2d_11">
      <g>
       <use xlink:href="#me50ed973b0" x="194.4" y="345.6" style="fill: #262626; stroke: #262626; stroke-width: 1.25"/>
      </g>
     </g>
    </g>
    <g id="xtick_12">
     <g id="line2d_12">
      <g>
       <use xlink:href="#me50ed973b0" x="205.2" y="345.6" style="fill: #262626; stroke: #262626; stroke-width: 1.25"/>
      </g>
     </g>
    </g>
    <g id="xtick_13">
     <g id="line2d_13">
      <g>
       <use xlink:href="#me50ed973b0" x="216" y="345.6" style="fill: #262626; stroke: #262626; stroke-width: 1.25"/>
      </g>
     </g>
     <g id="text_5">
      <text style="fill: #262626; font: 16px 'Arial', 'DejaVu Sans', 'Liberation Sans', 'Bitstream Vera Sans', sans-serif; text-anchor: middle" x="216" y="366.5525" transform="rotate(-0 216 366.5525)">Jan</text>
     </g>
    </g>
    <g id="xtick_14">
     <g id="line2d_14">
      <g>
       <use xlink:href="#me50ed973b0" x="216" y="345.6" style="fill: #262626; stroke: #262626; stroke-width: 1.25"/>
      </g>
     </g>
     <g id="text_6">
      <text style="fill: #262626; font: 16px 'Arial', 'DejaVu Sans', 'Liberation Sans', 'Bitstream Vera Sans', sans-serif; text-anchor: middle" x="216" y="366.5525" transform="rotate(-0 216 366.5525)">Jan</text>
     </g>
    </g>
    <g id="xtick_15">
     <g id="line2d_15">
      <g>
       <use xlink:href="#me50ed973b0" x="226.8" y="345.6" style="fill: #262626; stroke: #262626; stroke-width: 1.25"/>
      </g>
     </g>
    </g>
    <g id="xtick_16">
     <g id="line2d_16">
      <g>
       <use xlink:href="#me50ed973b0" x="237.6" y="345.6" style="fill: #262626; stroke: #262626; stroke-width: 1.25"/>
      </g>
     </g>
    </g>
    <g id="xtick_17">
     <g id="line2d_17">
      <g>
       <use xlink:href="#me50ed973b0" x="248.4" y="345.6" style="fill: #262626; stroke: #262626; stroke-width: 1.25"/>
      </g>
     </g>
     <g id="text_7">
      <text style="fill: #262626; font: 16px 'Arial', 'DejaVu Sans', 'Liberation Sans', 'Bitstream Vera Sans', sans-serif; text-anchor: middle" x="248.4" y="366.5525" transform="rotate(-0 248.4 366.5525)">Apr</text>
     </g>
    </g>
    <g id="xtick_18">
     <g id="line2d_18">
      <g>
       <use xlink:href="#me50ed973b0" x="259.2" y="345.6" style="fill: #262626; stroke: #262626; stroke-width: 1.25"/>
      </g>
     </g>
    </g>
    <g id="xtick_19">
     <g id="line2d_19">
      <g>
       <use xlink:href="#me50ed973b0" x="270" y="345.6" style="fill: #262626; stroke: #262626; stroke-width: 1.25"/>
      </g>
     </g>
    </g>
    <g id="xtick_20">
     <g id="line2d_20">
      <g>
       <use xlink:href="#me50ed973b0" x="280.8" y="345.6" style="fill: #262626; stroke: #262626; stroke-width: 1.25"/>
      </g>
     </g>
     <g id="text_8">
      <text style="fill: #262626; font: 16px 'Arial', 'DejaVu Sans', 'Liberation Sans', 'Bitstream Vera Sans', sans-serif; text-anchor: middle" x="280.8" y="366.5525" transform="rotate(-0 280.8 366.5525)">Jul</text>
     </g>
    </g>
    <g id="xtick_21">
     <g id="line2d_21">
      <g>
       <use xlink:href="#me50ed973b0" x="291.6" y="345.6" style="fill: #262626; stroke: #262626; stroke-width: 1.25"/>
      </g>
     </g>
    </g>
    <g id="xtick_22">
     <g id="line2d_22">
      <g>
       <use xlink:href="#me50ed973b0" x="302.4" y="345.6" style="fill: #262626; stroke: #262626; stroke-width: 1.25"/>
      </g>
     </g>
    </g>
    <g id="xtick_23">
     <g id="line2d_23">
      <g>
       <use xlink:href="#me50ed973b0" x="313.2" y="345.6" style="fill: #262626; stroke: #262626; stroke-width: 1.25"/>
      </g>
     </g>
     <g id="text_9">
      <text style="fill: #262626; font: 16px 'Arial', 'DejaVu Sans', 'Liberation Sans', 'Bitstream Vera Sans', sans-serif; text-anchor: middle" x="313.2" y="366.5525" transform="rotate(-0 313.2 366.5525)">Oct</text>
     </g>
    </g>
    <g id="xtick_24">
     <g id="line2d_24">
      <g>
       <use xlink:href="#me50ed973b0" x="324" y="345.6" style="fill: #262626; stroke: #262626; stroke-width: 1.25"/>
      </g>
     </g>
    </g>
    <g id="xtick_25">
     <g id="line2d_25">
      <g>
       <use xlink:href="#me50ed973b0" x="334.8" y="345.6" style="fill: #262626; stroke: #262626; stroke-width: 1.25"/>
      </g>
     </g>
    </g>
    <g id="xtick_26">
     <g id="line2d_26">
      <g>
       <use xlink:href="#me50ed973b0" x="345.6" y="345.6" style="fill: #262626; stroke: #262626; stroke-width: 1.25"/>
      </g>
     </g>
     <g id="text_10">
      <text style="fill: #262626; font: 16px 'Arial', 'DejaVu Sans', 'Liberation Sans', 'Bitstream Vera Sans', sans-serif; text-anchor: middle" x="345.6" y="366.5525" transform="rotate(-0 345.6 366.5525)">Jan</text>
     </g>
    </g>
    <g id="text_11">
     <text style="fill: #262626; font: 16px 'Arial', 'DejaVu Sans', 'Liberation Sans', 'Bitstream Vera Sans', sans-serif; text-anchor: middle" x="216" y="385.185" transform="rotate(-0 216 385.185)"> </text>
    </g>
   </g>
   <g id="matplotlib.axis_2">
    <g id="ytick_1">
     <g id="line2d_27">
      <defs>
       <path id="m711509fda9" d="M 0 0 
L -6 0 
" style="stroke: #262626; stroke-width: 1.25"/>
      </defs>
      <g>
       <use xlink:href="#m711509fda9" x="86.4" y="345.6" style="fill: #262626; stroke: #262626; stroke-width: 1.25"/>
      </g>
     </g>
     <g id="text_12">
      <text style="fill: #262626; font: 16px 'Arial', 'DejaVu Sans', 'Liberation Sans', 'Bitstream Vera Sans', sans-serif; text-anchor: end" x="76.9" y="351.32625" transform="rotate(-0 76.9 351.32625)">0.0</text>
     </g>
    </g>
    <g id="ytick_2">
     <g id="line2d_28">
      <g>
       <use xlink:href="#m711509fda9" x="86.4" y="293.76" style="fill: #262626; stroke: #262626; stroke-width: 1.25"/>
      </g>
     </g>
     <g id="text_13">
      <text style="fill: #262626; font: 16px 'Arial', 'DejaVu Sans', 'Liberation Sans', 'Bitstream Vera Sans', sans-serif; text-anchor: end" x="76.9" y="299.48625" transform="rotate(-0 76.9 299.48625)">0.2</text>
     </g>
    </g>
    <g id="ytick_3">
     <g id="line2d_29">
      <g>
       <use xlink:href="#m711509fda9" x="86.4" y="241.92" style="fill: #262626; stroke: #262626; stroke-width: 1.25"/>
      </g>
     </g>
     <g id="text_14">
      <text style="fill: #262626; font: 16px 'Arial', 'DejaVu Sans', 'Liberation Sans', 'Bitstream Vera Sans', sans-serif; text-anchor: end" x="76.9" y="247.64625" transform="rotate(-0 76.9 247.64625)">0.4</text>
     </g>
    </g>
    <g id="ytick_4">
     <g id="line2d_30">
      <g>
       <use xlink:href="#m711509fda9" x="86.4" y="190.08" style="fill: #262626; stroke: #262626; stroke-width: 1.25"/>
      </g>
     </g>
     <g id="text_15">
      <text style="fill: #262626; font: 16px 'Arial', 'DejaVu Sans', 'Liberation Sans', 'Bitstream Vera Sans', sans-serif; text-anchor: end" x="76.9" y="195.80625" transform="rotate(-0 76.9 195.80625)">0.6</text>
     </g>
    </g>
    <g id="ytick_5">
     <g id="line2d_31">
      <g>
       <use xlink:href="#m711509fda9" x="86.4" y="138.24" style="fill: #262626; stroke: #262626; stroke-width: 1.25"/>
      </g>
     </g>
     <g id="text_16">
      <text style="fill: #262626; font: 16px 'Arial', 'DejaVu Sans', 'Liberation Sans', 'Bitstream Vera Sans', sans-serif; text-anchor: end" x="76.9" y="143.96625" transform="rotate(-0 76.9 143.96625)">0.8</text>
     </g>
    </g>
    <g id="ytick_6">
     <g id="line2d_32">
      <g>
       <use xlink:href="#m711509fda9" x="86.4" y="86.4" style="fill: #262626; stroke: #262626; stroke-width: 1.25"/>
      </g>
     </g>
     <g id="text_17">
      <text style="fill: #262626; font: 16px 'Arial', 'DejaVu Sans', 'Liberation Sans', 'Bitstream Vera Sans', sans-serif; text-anchor: end" x="76.9" y="92.12625" transform="rotate(-0 76.9 92.12625)">1.0</text>
     </g>
    </g>
    <g id="text_18">
     <text style="fill: #262626; font: 16px 'Arial', 'DejaVu Sans', 'Liberation Sans', 'Bitstream Vera Sans', sans-serif; text-anchor: middle" x="47.48" y="216" transform="rotate(-90 47.48 216)">Outbreak risk</text>
    </g>
   </g>
   <g id="line2d_33">
    <path d="M 86.4 303.783202 
L 89.28 304.117865 
L 92.16 304.667053 
L 95.04 305.437511 
L 97.92 306.438641 
L 100.8 307.683675 
L 103.68 309.191871 
L 106.2 310.75003 
L 108.72 312.561072 
L 111.24 314.66663 
L 113.4 316.746071 
L 115.56 319.114932 
L 117.72 321.790249 
L 120.24 325.256312 
L 126 333.373391 
L 127.8 335.483647 
L 129.6 337.236532 
L 131.4 338.621708 
L 133.2 339.669264 
L 135 340.428209 
L 136.8 340.949309 
L 138.96 341.320612 
L 141.12 341.464598 
L 143.64 341.386805 
L 146.16 341.063244 
L 148.68 340.492646 
L 151.2 339.662009 
L 153.36 338.732031 
L 155.88 337.386608 
L 158.4 335.768176 
L 161.28 333.61825 
L 164.52 330.897033 
L 169.2 326.639385 
L 176.76 319.763478 
L 180.72 316.472389 
L 184.32 313.766433 
L 187.56 311.592664 
L 190.8 309.679305 
L 194.04 308.031106 
L 197.28 306.64863 
L 200.52 305.53032 
L 203.4 304.756226 
L 206.28 304.187694 
L 209.16 303.823915 
L 212.04 303.664957 
L 214.92 303.711993 
L 217.8 303.96752 
L 220.68 304.43559 
L 223.56 305.12213 
L 226.44 306.035448 
L 229.32 307.18715 
L 232.2 308.593881 
L 234.72 310.053243 
L 237.24 311.751584 
L 239.76 313.724967 
L 241.92 315.672153 
L 244.08 317.892581 
L 246.24 320.414601 
L 248.76 323.732781 
L 252.72 329.436501 
L 255.24 332.913225 
L 257.04 335.088923 
L 258.84 336.915756 
L 260.64 338.373051 
L 262.44 339.484521 
L 264.24 340.297 
L 266.04 340.861897 
L 268.2 341.275678 
L 270.36 341.454789 
L 272.88 341.413164 
L 275.4 341.124387 
L 277.92 340.589715 
L 280.44 339.797184 
L 282.6 338.901309 
L 285.12 337.595891 
L 287.64 336.015319 
L 290.16 334.182766 
L 293.4 331.523851 
L 297.72 327.63975 
L 306.72 319.452363 
L 310.68 316.188758 
L 314.28 313.512333 
L 317.52 311.367073 
L 320.76 309.483039 
L 324 307.864392 
L 327.24 306.511367 
L 330.48 305.422272 
L 333.36 304.673941 
L 336.24 304.131032 
L 339.12 303.792832 
L 342 303.659534 
L 344.88 303.732465 
L 345.24 303.756199 
L 345.24 303.756199 
" clip-path="url(#p8b126e85df)" style="fill: none; stroke: #4c72b0; stroke-width: 2; stroke-linecap: round"/>
   </g>
   <g id="line2d_34">
    <path d="M 86.4 216.408545 
L 88.2 216.832729 
L 90 217.463001 
L 91.8 218.304391 
L 93.6 219.36337 
L 95.4 220.648021 
L 97.2 222.168296 
L 99 223.936392 
L 101.16 226.406617 
L 103.32 229.28873 
L 105.12 232.036766 
L 106.92 235.135785 
L 108.72 238.631288 
L 110.52 242.583499 
L 112.32 247.070148 
L 114.12 252.185476 
L 115.92 258.02996 
L 117.72 264.683292 
L 119.52 272.155455 
L 122.04 283.72377 
L 126 302.220275 
L 127.8 309.562304 
L 129.24 314.606738 
L 130.68 318.846711 
L 132.12 322.300658 
L 133.2 324.414342 
L 134.28 326.15998 
L 135.36 327.576261 
L 136.44 328.700117 
L 137.52 329.564668 
L 138.6 330.198224 
L 139.68 330.623984 
L 140.76 330.860185 
L 141.84 330.920483 
L 143.28 330.7433 
L 144.72 330.283252 
L 146.16 329.544774 
L 147.6 328.525854 
L 149.04 327.220361 
L 150.48 325.620389 
L 151.92 323.718569 
L 153.72 320.910211 
L 155.52 317.625127 
L 157.32 313.880923 
L 159.48 308.833107 
L 162 302.300927 
L 165.24 293.18967 
L 175.32 264.287531 
L 178.2 256.864893 
L 181.08 250.053742 
L 183.6 244.632683 
L 186.12 239.725334 
L 188.64 235.328391 
L 191.16 231.430319 
L 193.32 228.474041 
L 195.48 225.861166 
L 197.64 223.580259 
L 199.8 221.620417 
L 201.96 219.971732 
L 204.12 218.625618 
L 206.28 217.57505 
L 208.08 216.92147 
L 209.88 216.467356 
L 211.68 216.211591 
L 213.48 216.15406 
L 215.28 216.295701 
L 217.08 216.638562 
L 218.88 217.18587 
L 220.68 217.942121 
L 222.48 218.913189 
L 224.28 220.106488 
L 226.08 221.531186 
L 227.88 223.198526 
L 229.68 225.122309 
L 231.84 227.793725 
L 233.64 230.348235 
L 235.44 233.231995 
L 237.24 236.483403 
L 239.04 240.153423 
L 240.84 244.309068 
L 242.64 249.035156 
L 244.44 254.430421 
L 246.24 260.591454 
L 248.04 267.577126 
L 250.2 276.987867 
L 257.04 308.180189 
L 258.48 313.420298 
L 259.92 317.862174 
L 261.36 321.507771 
L 262.8 324.414342 
L 263.88 326.15998 
L 264.96 327.576261 
L 266.04 328.700117 
L 267.12 329.564668 
L 268.2 330.198224 
L 269.28 330.623984 
L 270.36 330.860185 
L 271.44 330.920483 
L 272.88 330.7433 
L 274.32 330.283252 
L 275.76 329.544774 
L 277.2 328.525854 
L 278.64 327.220361 
L 280.08 325.620389 
L 281.52 323.718569 
L 283.32 320.910211 
L 285.12 317.625127 
L 286.92 313.880923 
L 289.08 308.833107 
L 291.6 302.300927 
L 294.84 293.18967 
L 304.92 264.287531 
L 307.8 256.864893 
L 310.68 250.053742 
L 313.2 244.632683 
L 315.72 239.725334 
L 318.24 235.328391 
L 320.76 231.430319 
L 322.92 228.474041 
L 325.08 225.861166 
L 327.24 223.580259 
L 329.4 221.620417 
L 331.56 219.971732 
L 333.72 218.625618 
L 335.88 217.57505 
L 337.68 216.92147 
L 339.48 216.467356 
L 341.28 216.211591 
L 343.08 216.15406 
L 344.88 216.295701 
L 345.24 216.348089 
L 345.24 216.348089 
" clip-path="url(#p8b126e85df)" style="fill: none; stroke: #dd8452; stroke-width: 2; stroke-linecap: round"/>
   </g>
   <g id="line2d_35">
    <path d="M 86.4 173.191357 
L 88.2 173.640185 
L 90 174.319098 
L 91.8 175.235183 
L 93.6 176.397733 
L 95.4 177.818496 
L 97.2 179.512007 
L 99 181.496076 
L 100.8 183.792522 
L 102.6 186.428293 
L 104.4 189.437243 
L 106.2 192.862892 
L 108 196.762582 
L 109.8 201.213275 
L 111.6 206.318486 
L 113.4 212.213985 
L 115.2 219.066147 
L 116.64 225.35619 
L 118.44 234.349103 
L 120.24 244.621292 
L 122.4 258.340862 
L 126.72 286.402147 
L 128.52 296.418061 
L 129.96 303.210422 
L 131.4 308.854145 
L 132.48 312.361041 
L 133.56 315.293815 
L 134.64 317.705937 
L 135.72 319.65257 
L 136.8 321.185821 
L 137.88 322.351998 
L 138.96 323.190347 
L 140.04 323.732758 
L 141.12 324.004068 
L 142.2 324.022668 
L 143.28 323.801272 
L 144.36 323.347738 
L 145.44 322.665896 
L 146.52 321.756383 
L 147.96 320.186315 
L 149.4 318.200278 
L 150.84 315.788938 
L 152.28 312.945031 
L 153.72 309.66655 
L 155.52 304.967358 
L 157.32 299.633056 
L 159.48 292.4806 
L 162 283.296431 
L 165.6 269.193804 
L 172.44 242.245372 
L 175.32 231.798208 
L 178.2 222.205479 
L 180.72 214.586599 
L 183.24 207.711348 
L 185.4 202.40376 
L 187.56 197.619883 
L 189.72 193.33786 
L 191.88 189.532963 
L 194.04 186.179626 
L 196.2 183.252885 
L 198.36 180.729361 
L 200.52 178.587916 
L 202.68 176.810069 
L 204.48 175.594961 
L 206.28 174.614117 
L 208.08 173.861695 
L 209.88 173.333422 
L 211.68 173.026627 
L 213.48 172.940282 
L 215.28 173.075053 
L 217.08 173.433371 
L 218.88 174.019517 
L 220.68 174.839746 
L 222.48 175.902444 
L 224.28 177.218343 
L 226.08 178.800813 
L 227.88 180.666286 
L 229.68 182.834866 
L 231.48 185.33128 
L 233.28 188.186354 
L 235.08 191.439328 
L 236.88 195.141414 
L 238.68 199.360929 
L 240.48 204.189929 
L 242.28 209.750874 
L 244.08 216.198971 
L 245.52 222.115075 
L 247.32 230.596339 
L 249.12 240.365061 
L 251.28 253.639053 
L 257.04 290.595631 
L 258.48 298.22318 
L 259.92 304.728462 
L 261.36 310.089935 
L 262.44 313.399886 
L 263.52 316.152961 
L 264.6 318.403866 
L 265.68 320.207162 
L 266.76 321.613243 
L 267.84 322.666148 
L 268.92 323.402666 
L 270 323.852283 
L 271.08 324.03761 
L 272.16 323.975055 
L 273.24 323.675623 
L 274.32 323.145735 
L 275.4 322.388066 
L 276.48 321.402371 
L 277.92 319.729171 
L 279.36 317.63766 
L 280.8 315.118706 
L 282.24 312.166074 
L 284.04 307.865839 
L 285.84 302.907061 
L 287.64 297.334177 
L 289.8 289.937794 
L 292.68 279.153429 
L 297.72 259.088417 
L 302.04 242.245372 
L 304.92 231.798208 
L 307.8 222.205479 
L 310.32 214.586599 
L 312.84 207.711348 
L 315 202.40376 
L 317.16 197.619883 
L 319.32 193.33786 
L 321.48 189.532963 
L 323.64 186.179626 
L 325.8 183.252885 
L 327.96 180.729361 
L 330.12 178.587916 
L 332.28 176.810069 
L 334.08 175.594961 
L 335.88 174.614117 
L 337.68 173.861695 
L 339.48 173.333422 
L 341.28 173.026627 
L 343.08 172.940282 
L 344.88 173.075053 
L 345.24 173.128723 
L 345.24 173.128723 
" clip-path="url(#p8b126e85df)" style="fill: none; stroke: #55a868; stroke-width: 2; stroke-linecap: round"/>
   </g>
   <g id="line2d_36">
    <path d="M 86.4 109.748369 
L 88.56 110.115267 
L 90.72 110.729924 
L 92.88 111.609997 
L 94.68 112.564031 
L 96.48 113.738754 
L 98.28 115.157998 
L 100.08 116.851205 
L 101.88 118.854595 
L 103.68 121.212905 
L 105.48 123.982107 
L 107.28 127.233928 
L 108.72 130.245714 
L 110.16 133.69105 
L 111.6 137.655033 
L 113.04 142.251114 
L 114.48 147.629231 
L 115.92 153.980623 
L 117.36 161.531779 
L 118.8 170.516093 
L 120.24 181.112024 
L 121.68 193.348588 
L 123.48 210.589849 
L 128.16 257.055648 
L 129.6 269.076562 
L 131.04 279.290153 
L 132.48 287.655416 
L 133.56 292.783456 
L 134.64 297.017105 
L 135.72 300.44564 
L 136.8 303.156505 
L 137.88 305.229143 
L 138.96 306.731916 
L 139.68 307.445455 
L 140.4 307.94468 
L 141.12 308.241063 
L 141.84 308.343989 
L 142.56 308.260939 
L 143.28 307.997672 
L 144 307.558421 
L 145.08 306.575611 
L 146.16 305.208323 
L 147.24 303.457534 
L 148.32 301.321464 
L 149.76 297.868813 
L 151.2 293.719973 
L 152.64 288.875756 
L 154.44 281.863705 
L 156.24 273.848061 
L 158.4 263.060061 
L 160.92 249.215354 
L 165.24 223.892515 
L 169.2 201.056267 
L 172.08 185.743243 
L 174.6 173.617767 
L 176.76 164.275865 
L 178.92 155.923462 
L 181.08 148.534697 
L 183.24 142.055839 
L 185.04 137.301573 
L 186.84 133.085818 
L 188.64 129.362814 
L 190.44 126.087764 
L 192.24 123.218108 
L 194.04 120.714342 
L 195.84 118.540481 
L 197.64 116.664264 
L 199.44 115.057198 
L 201.6 113.449326 
L 203.76 112.157361 
L 205.92 111.152109 
L 208.08 110.410899 
L 210.24 109.917222 
L 212.4 109.66046 
L 214.56 109.635741 
L 216.72 109.843948 
L 218.88 110.291896 
L 221.04 110.992713 
L 223.2 111.966447 
L 225 113.006218 
L 226.8 114.275597 
L 228.6 115.800544 
L 230.4 117.613048 
L 232.2 119.752484 
L 234 122.267678 
L 235.8 125.220226 
L 237.6 128.69006 
L 239.04 131.909436 
L 240.48 135.601884 
L 241.92 139.865632 
L 243.36 144.83144 
L 244.8 150.669747 
L 246.24 157.591263 
L 247.68 165.831369 
L 249.12 175.606037 
L 250.56 187.032149 
L 252.36 203.482161 
L 255.24 232.66291 
L 257.4 253.794727 
L 258.84 266.234436 
L 260.28 276.911824 
L 261.72 285.732842 
L 262.8 291.177775 
L 263.88 295.699796 
L 264.96 299.386733 
L 266.04 302.327511 
L 267.12 304.604712 
L 268.2 306.290587 
L 269.28 307.445455 
L 270 307.94468 
L 270.72 308.241063 
L 271.44 308.343989 
L 272.16 308.260939 
L 272.88 307.997672 
L 273.6 307.558421 
L 274.68 306.575611 
L 275.76 305.208323 
L 276.84 303.457534 
L 277.92 301.321464 
L 279.36 297.868813 
L 280.8 293.719973 
L 282.24 288.875756 
L 284.04 281.863705 
L 285.84 273.848061 
L 288 263.060061 
L 290.52 249.215354 
L 294.84 223.892515 
L 298.8 201.056267 
L 301.68 185.743243 
L 304.2 173.617767 
L 306.36 164.275865 
L 308.52 155.923462 
L 310.68 148.534697 
L 312.84 142.055839 
L 314.64 137.301573 
L 316.44 133.085818 
L 318.24 129.362814 
L 320.04 126.087764 
L 321.84 123.218108 
L 323.64 120.714342 
L 325.44 118.540481 
L 327.24 116.664264 
L 329.04 115.057198 
L 331.2 113.449326 
L 333.36 112.157361 
L 335.52 111.152109 
L 337.68 110.410899 
L 339.84 109.917222 
L 342 109.66046 
L 344.16 109.635741 
L 345.24 109.710445 
L 345.24 109.710445 
" clip-path="url(#p8b126e85df)" style="fill: none; stroke: #c44e52; stroke-width: 2; stroke-linecap: round"/>
   </g>
   <g id="line2d_37">
    <path d="M 86.4 102.730081 
L 88.56 103.038378 
L 90.72 103.561201 
L 92.88 104.316059 
L 95.04 105.328153 
L 96.84 106.392373 
L 98.64 107.684022 
L 100.44 109.234438 
L 102.24 111.082305 
L 104.04 113.275545 
L 105.84 115.874269 
L 107.64 118.95571 
L 109.08 121.836332 
L 110.52 125.161094 
L 111.96 129.023405 
L 113.4 133.549307 
L 114.84 138.907699 
L 116.28 145.316995 
L 117.72 153.038854 
L 119.16 162.344531 
L 120.6 173.440006 
L 122.04 186.35239 
L 123.84 204.611782 
L 128.52 253.455122 
L 129.96 265.90871 
L 131.4 276.41607 
L 132.84 284.965617 
L 133.92 290.176519 
L 135 294.45548 
L 136.08 297.897987 
L 137.16 300.595562 
L 138.24 302.630064 
L 139.32 304.071052 
L 140.04 304.730451 
L 140.76 305.165127 
L 141.48 305.386405 
L 142.2 305.403462 
L 142.92 305.223526 
L 143.64 304.852081 
L 144.36 304.293079 
L 145.44 303.108354 
L 146.52 301.511728 
L 147.6 299.503668 
L 148.68 297.082291 
L 150.12 293.206442 
L 151.56 288.588218 
L 153 283.23364 
L 154.8 275.538055 
L 156.6 266.807484 
L 158.76 255.155304 
L 161.64 238.165069 
L 169.92 188.099444 
L 172.44 174.596716 
L 174.6 164.113744 
L 176.76 154.707603 
L 178.92 146.380592 
L 180.72 140.236605 
L 182.52 134.773674 
L 184.32 129.943507 
L 186.12 125.693572 
L 187.92 121.970273 
L 189.72 118.721223 
L 191.52 115.896781 
L 193.32 113.451012 
L 195.12 111.342206 
L 196.92 109.533096 
L 198.72 107.990852 
L 200.88 106.452548 
L 203.04 105.21611 
L 205.2 104.247839 
L 207.36 103.521289 
L 209.52 103.016716 
L 211.68 102.720656 
L 213.84 102.625638 
L 216 102.730081 
L 218.16 103.038378 
L 220.32 103.561201 
L 222.48 104.316059 
L 224.64 105.328153 
L 226.44 106.392373 
L 228.24 107.684022 
L 230.04 109.234438 
L 231.84 111.082305 
L 233.64 113.275545 
L 235.44 115.874269 
L 237.24 118.95571 
L 238.68 121.836332 
L 240.12 125.161094 
L 241.56 129.023405 
L 243 133.549307 
L 244.44 138.907699 
L 245.88 145.316995 
L 247.32 153.038854 
L 248.76 162.344531 
L 250.2 173.440006 
L 251.64 186.35239 
L 253.44 204.611782 
L 258.12 253.455122 
L 259.56 265.90871 
L 261 276.41607 
L 262.44 284.965617 
L 263.52 290.176519 
L 264.6 294.45548 
L 265.68 297.897987 
L 266.76 300.595562 
L 267.84 302.630064 
L 268.92 304.071052 
L 269.64 304.730451 
L 270.36 305.165127 
L 271.08 305.386405 
L 271.8 305.403462 
L 272.52 305.223526 
L 273.24 304.852081 
L 273.96 304.293079 
L 275.04 303.108354 
L 276.12 301.511728 
L 277.2 299.503668 
L 278.28 297.082291 
L 279.72 293.206442 
L 281.16 288.588218 
L 282.6 283.23364 
L 284.4 275.538055 
L 286.2 266.807484 
L 288.36 255.155304 
L 291.24 238.165069 
L 299.52 188.099444 
L 302.04 174.596716 
L 304.2 164.113744 
L 306.36 154.707603 
L 308.52 146.380592 
L 310.32 140.236605 
L 312.12 134.773674 
L 313.92 129.943507 
L 315.72 125.693572 
L 317.52 121.970273 
L 319.32 118.721223 
L 321.12 115.896781 
L 322.92 113.451012 
L 324.72 111.342206 
L 326.52 109.533096 
L 328.32 107.990852 
L 330.48 106.452548 
L 332.64 105.21611 
L 334.8 104.247839 
L 336.96 103.521289 
L 339.12 103.016716 
L 341.28 102.720656 
L 343.44 102.625638 
L 345.24 102.698712 
L 345.24 102.698712 
" clip-path="url(#p8b126e85df)" style="fill: none; stroke: #8172b3; stroke-width: 2; stroke-linecap: round"/>
   </g>
   <g id="patch_3">
    <path d="M 86.4 345.6 
L 86.4 86.4 
" style="fill: none; stroke: #262626; stroke-width: 1.25; stroke-linejoin: miter; stroke-linecap: square"/>
   </g>
   <g id="patch_4">
    <path d="M 86.4 345.6 
L 345.6 345.6 
" style="fill: none; stroke: #262626; stroke-width: 1.25; stroke-linejoin: miter; stroke-linecap: square"/>
   </g>
   <g id="legend_1">
    <g id="patch_5">
     <path d="M 96.2 196.617187 
L 188.46 196.617187 
Q 191.26 196.617187 191.26 193.817187 
L 191.26 96.2 
Q 191.26 93.4 188.46 93.4 
L 96.2 93.4 
Q 93.4 93.4 93.4 96.2 
L 93.4 193.817187 
Q 93.4 196.617187 96.2 196.617187 
z
" style="fill: #ffffff; opacity: 0.8; stroke: #cccccc; stroke-linejoin: miter"/>
    </g>
    <g id="line2d_38">
     <path d="M 99 104.120937 
L 113 104.120937 
L 127 104.120937 
" style="fill: none; stroke: #4c72b0; stroke-width: 2; stroke-linecap: round"/>
    </g>
    <g id="text_19">
     <!-- $\it{k}$ = 0.1 -->
     <g style="fill: #262626" transform="translate(138.2 109.020937)">
      <text>
       <tspan style="font: oblique 14px 'DejaVu Sans'" x="0" y="-0.359375">k</tspan>
       <tspan style="font: 14px 'Arial'" x="8.107422 11.99707 20.172852 24.0625 31.848633 35.738281" y="-0.359375"> = 0.1</tspan>
      </text>
     </g>
    </g>
    <g id="line2d_39">
     <path d="M 99 123.924375 
L 113 123.924375 
L 127 123.924375 
" style="fill: none; stroke: #dd8452; stroke-width: 2; stroke-linecap: round"/>
    </g>
    <g id="text_20">
     <!-- $\it{k}$ = 0.5 -->
     <g style="fill: #262626" transform="translate(138.2 128.824375)">
      <text>
       <tspan style="font: oblique 14px 'DejaVu Sans'" x="0" y="-0.359375">k</tspan>
       <tspan style="font: 14px 'Arial'" x="8.107422 11.99707 20.172852 24.0625 31.848633 35.738281" y="-0.359375"> = 0.5</tspan>
      </text>
     </g>
    </g>
    <g id="line2d_40">
     <path d="M 99 143.727812 
L 113 143.727812 
L 127 143.727812 
" style="fill: none; stroke: #55a868; stroke-width: 2; stroke-linecap: round"/>
    </g>
    <g id="text_21">
     <!-- $\it{k}$ = 1 -->
     <g style="fill: #262626" transform="translate(138.2 148.627812)">
      <text>
       <tspan style="font: oblique 14px 'DejaVu Sans'" x="0" y="-0.359375">k</tspan>
       <tspan style="font: 14px 'Arial'" x="8.107422 11.99707 20.172852 24.0625" y="-0.359375"> = 1</tspan>
      </text>
     </g>
    </g>
    <g id="line2d_41">
     <path d="M 99 163.53125 
L 113 163.53125 
L 127 163.53125 
" style="fill: none; stroke: #c44e52; stroke-width: 2; stroke-linecap: round"/>
    </g>
    <g id="text_22">
     <!-- $\it{k}$ = 10 -->
     <g style="fill: #262626" transform="translate(138.2 168.43125)">
      <text>
       <tspan style="font: oblique 14px 'DejaVu Sans'" x="0" y="-0.359375">k</tspan>
       <tspan style="font: 14px 'Arial'" x="8.107422 11.99707 20.172852 24.0625 31.848633" y="-0.359375"> = 10</tspan>
      </text>
     </g>
    </g>
    <g id="line2d_42">
     <path d="M 99 183.334687 
L 113 183.334687 
L 127 183.334687 
" style="fill: none; stroke: #8172b3; stroke-width: 2; stroke-linecap: round"/>
    </g>
    <g id="text_23">
     <!-- $\it{k}$ = 100 -->
     <g style="fill: #262626" transform="translate(138.2 188.234687)">
      <text>
       <tspan style="font: oblique 14px 'DejaVu Sans'" x="0" y="-0.359375">k</tspan>
       <tspan style="font: 14px 'Arial'" x="8.107422 11.99707 20.172852 24.0625 31.848633 39.634766" y="-0.359375"> = 100</tspan>
      </text>
     </g>
    </g>
   </g>
  </g>
 </g>
 <defs>
  <clipPath id="p8b126e85df">
   <rect x="86.4" y="86.4" width="259.2" height="259.2"/>
  </clipPath>
 </defs>
</svg>
