<?xml version="1.0" encoding="utf-8" standalone="no"?>
<!DOCTYPE svg PUBLIC "-//W3C//DTD SVG 1.1//EN"
  "http://www.w3.org/Graphics/SVG/1.1/DTD/svg11.dtd">
<svg xmlns:xlink="http://www.w3.org/1999/xlink" width="460.8pt" height="345.6pt" viewBox="0 0 460.8 345.6" xmlns="http://www.w3.org/2000/svg" version="1.1">
 <metadata>
  <rdf:RDF xmlns:dc="http://purl.org/dc/elements/1.1/" xmlns:cc="http://creativecommons.org/ns#" xmlns:rdf="http://www.w3.org/1999/02/22-rdf-syntax-ns#">
   <cc:Work>
    <dc:type rdf:resource="http://purl.org/dc/dcmitype/StillImage"/>
    <dc:date>2024-05-08T17:15:20.560203</dc:date>
    <dc:format>image/svg+xml</dc:format>
    <dc:creator>
     <cc:Agent>
      <dc:title>Matplotlib v3.8.4, https://matplotlib.org/</dc:title>
     </cc:Agent>
    </dc:creator>
   </cc:Work>
  </rdf:RDF>
 </metadata>
 <defs>
  <style type="text/css">*{stroke-linejoin: round; stroke-linecap: butt}</style>
 </defs>
 <g id="figure_1">
  <g id="patch_1">
   <path d="M 0 345.6 
L 460.8 345.6 
L 460.8 0 
L 0 0 
L 0 345.6 
z
" style="fill: none"/>
  </g>
  <g id="axes_1">
   <g id="patch_2">
    <path d="M 85.489375 308.5075 
L 375.310625 308.5075 
L 375.310625 18.68625 
L 85.489375 18.68625 
L 85.489375 308.5075 
z
" style="fill: none"/>
   </g>
   <g id="matplotlib.axis_1">
    <g id="xtick_1">
     <g id="line2d_1">
      <defs>
       <path id="mc1b32668a4" d="M 0 0 
L 0 6 
" style="stroke: #262626; stroke-width: 1.25"/>
      </defs>
      <g>
       <use xlink:href="#mc1b32668a4" x="85.489375" y="308.5075" style="fill: #262626; stroke: #262626; stroke-width: 1.25"/>
      </g>
     </g>
     <g id="text_1">
      <text style="fill: #262626; font: 16px 'Arial', 'DejaVu Sans', 'Liberation Sans', 'Bitstream Vera Sans', sans-serif; text-anchor: middle" x="85.489375" y="329.46" transform="rotate(-0 85.489375 329.46)">Jan</text>
     </g>
    </g>
    <g id="xtick_2">
     <g id="line2d_2">
      <g>
       <use xlink:href="#mc1b32668a4" x="97.56526" y="308.5075" style="fill: #262626; stroke: #262626; stroke-width: 1.25"/>
      </g>
     </g>
    </g>
    <g id="xtick_3">
     <g id="line2d_3">
      <g>
       <use xlink:href="#mc1b32668a4" x="109.641146" y="308.5075" style="fill: #262626; stroke: #262626; stroke-width: 1.25"/>
      </g>
     </g>
    </g>
    <g id="xtick_4">
     <g id="line2d_4">
      <g>
       <use xlink:href="#mc1b32668a4" x="121.717031" y="308.5075" style="fill: #262626; stroke: #262626; stroke-width: 1.25"/>
      </g>
     </g>
     <g id="text_2">
      <text style="fill: #262626; font: 16px 'Arial', 'DejaVu Sans', 'Liberation Sans', 'Bitstream Vera Sans', sans-serif; text-anchor: middle" x="121.717031" y="329.46" transform="rotate(-0 121.717031 329.46)">Apr</text>
     </g>
    </g>
    <g id="xtick_5">
     <g id="line2d_5">
      <g>
       <use xlink:href="#mc1b32668a4" x="133.792917" y="308.5075" style="fill: #262626; stroke: #262626; stroke-width: 1.25"/>
      </g>
     </g>
    </g>
    <g id="xtick_6">
     <g id="line2d_6">
      <g>
       <use xlink:href="#mc1b32668a4" x="145.868802" y="308.5075" style="fill: #262626; stroke: #262626; stroke-width: 1.25"/>
      </g>
     </g>
    </g>
    <g id="xtick_7">
     <g id="line2d_7">
      <g>
       <use xlink:href="#mc1b32668a4" x="157.944688" y="308.5075" style="fill: #262626; stroke: #262626; stroke-width: 1.25"/>
      </g>
     </g>
     <g id="text_3">
      <text style="fill: #262626; font: 16px 'Arial', 'DejaVu Sans', 'Liberation Sans', 'Bitstream Vera Sans', sans-serif; text-anchor: middle" x="157.944688" y="329.46" transform="rotate(-0 157.944688 329.46)">Jul</text>
     </g>
    </g>
    <g id="xtick_8">
     <g id="line2d_8">
      <g>
       <use xlink:href="#mc1b32668a4" x="170.020573" y="308.5075" style="fill: #262626; stroke: #262626; stroke-width: 1.25"/>
      </g>
     </g>
    </g>
    <g id="xtick_9">
     <g id="line2d_9">
      <g>
       <use xlink:href="#mc1b32668a4" x="182.096458" y="308.5075" style="fill: #262626; stroke: #262626; stroke-width: 1.25"/>
      </g>
     </g>
    </g>
    <g id="xtick_10">
     <g id="line2d_10">
      <g>
       <use xlink:href="#mc1b32668a4" x="194.172344" y="308.5075" style="fill: #262626; stroke: #262626; stroke-width: 1.25"/>
      </g>
     </g>
     <g id="text_4">
      <text style="fill: #262626; font: 16px 'Arial', 'DejaVu Sans', 'Liberation Sans', 'Bitstream Vera Sans', sans-serif; text-anchor: middle" x="194.172344" y="329.46" transform="rotate(-0 194.172344 329.46)">Oct</text>
     </g>
    </g>
    <g id="xtick_11">
     <g id="line2d_11">
      <g>
       <use xlink:href="#mc1b32668a4" x="206.248229" y="308.5075" style="fill: #262626; stroke: #262626; stroke-width: 1.25"/>
      </g>
     </g>
    </g>
    <g id="xtick_12">
     <g id="line2d_12">
      <g>
       <use xlink:href="#mc1b32668a4" x="218.324115" y="308.5075" style="fill: #262626; stroke: #262626; stroke-width: 1.25"/>
      </g>
     </g>
    </g>
    <g id="xtick_13">
     <g id="line2d_13">
      <g>
       <use xlink:href="#mc1b32668a4" x="230.4" y="308.5075" style="fill: #262626; stroke: #262626; stroke-width: 1.25"/>
      </g>
     </g>
     <g id="text_5">
      <text style="fill: #262626; font: 16px 'Arial', 'DejaVu Sans', 'Liberation Sans', 'Bitstream Vera Sans', sans-serif; text-anchor: middle" x="230.4" y="329.46" transform="rotate(-0 230.4 329.46)">Jan</text>
     </g>
    </g>
    <g id="xtick_14">
     <g id="line2d_14">
      <g>
       <use xlink:href="#mc1b32668a4" x="230.4" y="308.5075" style="fill: #262626; stroke: #262626; stroke-width: 1.25"/>
      </g>
     </g>
     <g id="text_6">
      <text style="fill: #262626; font: 16px 'Arial', 'DejaVu Sans', 'Liberation Sans', 'Bitstream Vera Sans', sans-serif; text-anchor: middle" x="230.4" y="329.46" transform="rotate(-0 230.4 329.46)">Jan</text>
     </g>
    </g>
    <g id="xtick_15">
     <g id="line2d_15">
      <g>
       <use xlink:href="#mc1b32668a4" x="242.475885" y="308.5075" style="fill: #262626; stroke: #262626; stroke-width: 1.25"/>
      </g>
     </g>
    </g>
    <g id="xtick_16">
     <g id="line2d_16">
      <g>
       <use xlink:href="#mc1b32668a4" x="254.551771" y="308.5075" style="fill: #262626; stroke: #262626; stroke-width: 1.25"/>
      </g>
     </g>
    </g>
    <g id="xtick_17">
     <g id="line2d_17">
      <g>
       <use xlink:href="#mc1b32668a4" x="266.627656" y="308.5075" style="fill: #262626; stroke: #262626; stroke-width: 1.25"/>
      </g>
     </g>
     <g id="text_7">
      <text style="fill: #262626; font: 16px 'Arial', 'DejaVu Sans', 'Liberation Sans', 'Bitstream Vera Sans', sans-serif; text-anchor: middle" x="266.627656" y="329.46" transform="rotate(-0 266.627656 329.46)">Apr</text>
     </g>
    </g>
    <g id="xtick_18">
     <g id="line2d_18">
      <g>
       <use xlink:href="#mc1b32668a4" x="278.703542" y="308.5075" style="fill: #262626; stroke: #262626; stroke-width: 1.25"/>
      </g>
     </g>
    </g>
    <g id="xtick_19">
     <g id="line2d_19">
      <g>
       <use xlink:href="#mc1b32668a4" x="290.779427" y="308.5075" style="fill: #262626; stroke: #262626; stroke-width: 1.25"/>
      </g>
     </g>
    </g>
    <g id="xtick_20">
     <g id="line2d_20">
      <g>
       <use xlink:href="#mc1b32668a4" x="302.855312" y="308.5075" style="fill: #262626; stroke: #262626; stroke-width: 1.25"/>
      </g>
     </g>
     <g id="text_8">
      <text style="fill: #262626; font: 16px 'Arial', 'DejaVu Sans', 'Liberation Sans', 'Bitstream Vera Sans', sans-serif; text-anchor: middle" x="302.855312" y="329.46" transform="rotate(-0 302.855312 329.46)">Jul</text>
     </g>
    </g>
    <g id="xtick_21">
     <g id="line2d_21">
      <g>
       <use xlink:href="#mc1b32668a4" x="314.931198" y="308.5075" style="fill: #262626; stroke: #262626; stroke-width: 1.25"/>
      </g>
     </g>
    </g>
    <g id="xtick_22">
     <g id="line2d_22">
      <g>
       <use xlink:href="#mc1b32668a4" x="327.007083" y="308.5075" style="fill: #262626; stroke: #262626; stroke-width: 1.25"/>
      </g>
     </g>
    </g>
    <g id="xtick_23">
     <g id="line2d_23">
      <g>
       <use xlink:href="#mc1b32668a4" x="339.082969" y="308.5075" style="fill: #262626; stroke: #262626; stroke-width: 1.25"/>
      </g>
     </g>
     <g id="text_9">
      <text style="fill: #262626; font: 16px 'Arial', 'DejaVu Sans', 'Liberation Sans', 'Bitstream Vera Sans', sans-serif; text-anchor: middle" x="339.082969" y="329.46" transform="rotate(-0 339.082969 329.46)">Oct</text>
     </g>
    </g>
    <g id="xtick_24">
     <g id="line2d_24">
      <g>
       <use xlink:href="#mc1b32668a4" x="351.158854" y="308.5075" style="fill: #262626; stroke: #262626; stroke-width: 1.25"/>
      </g>
     </g>
    </g>
    <g id="xtick_25">
     <g id="line2d_25">
      <g>
       <use xlink:href="#mc1b32668a4" x="363.23474" y="308.5075" style="fill: #262626; stroke: #262626; stroke-width: 1.25"/>
      </g>
     </g>
    </g>
    <g id="xtick_26">
     <g id="line2d_26">
      <g>
       <use xlink:href="#mc1b32668a4" x="375.310625" y="308.5075" style="fill: #262626; stroke: #262626; stroke-width: 1.25"/>
      </g>
     </g>
     <g id="text_10">
      <text style="fill: #262626; font: 16px 'Arial', 'DejaVu Sans', 'Liberation Sans', 'Bitstream Vera Sans', sans-serif; text-anchor: middle" x="375.310625" y="329.46" transform="rotate(-0 375.310625 329.46)">Jan</text>
     </g>
    </g>
   </g>
   <g id="matplotlib.axis_2">
    <g id="ytick_1">
     <g id="line2d_27">
      <defs>
       <path id="ma908a16b23" d="M 0 0 
L -6 0 
" style="stroke: #262626; stroke-width: 1.25"/>
      </defs>
      <g>
       <use xlink:href="#ma908a16b23" x="85.489375" y="308.5075" style="fill: #262626; stroke: #262626; stroke-width: 1.25"/>
      </g>
     </g>
     <g id="text_11">
      <text style="fill: #262626; font: 16px 'Arial', 'DejaVu Sans', 'Liberation Sans', 'Bitstream Vera Sans', sans-serif; text-anchor: end" x="75.989375" y="314.23375" transform="rotate(-0 75.989375 314.23375)">0.0</text>
     </g>
    </g>
    <g id="ytick_2">
     <g id="line2d_28">
      <g>
       <use xlink:href="#ma908a16b23" x="85.489375" y="250.54325" style="fill: #262626; stroke: #262626; stroke-width: 1.25"/>
      </g>
     </g>
     <g id="text_12">
      <text style="fill: #262626; font: 16px 'Arial', 'DejaVu Sans', 'Liberation Sans', 'Bitstream Vera Sans', sans-serif; text-anchor: end" x="75.989375" y="256.2695" transform="rotate(-0 75.989375 256.2695)">0.2</text>
     </g>
    </g>
    <g id="ytick_3">
     <g id="line2d_29">
      <g>
       <use xlink:href="#ma908a16b23" x="85.489375" y="192.579" style="fill: #262626; stroke: #262626; stroke-width: 1.25"/>
      </g>
     </g>
     <g id="text_13">
      <text style="fill: #262626; font: 16px 'Arial', 'DejaVu Sans', 'Liberation Sans', 'Bitstream Vera Sans', sans-serif; text-anchor: end" x="75.989375" y="198.30525" transform="rotate(-0 75.989375 198.30525)">0.4</text>
     </g>
    </g>
    <g id="ytick_4">
     <g id="line2d_30">
      <g>
       <use xlink:href="#ma908a16b23" x="85.489375" y="134.61475" style="fill: #262626; stroke: #262626; stroke-width: 1.25"/>
      </g>
     </g>
     <g id="text_14">
      <text style="fill: #262626; font: 16px 'Arial', 'DejaVu Sans', 'Liberation Sans', 'Bitstream Vera Sans', sans-serif; text-anchor: end" x="75.989375" y="140.341" transform="rotate(-0 75.989375 140.341)">0.6</text>
     </g>
    </g>
    <g id="ytick_5">
     <g id="line2d_31">
      <g>
       <use xlink:href="#ma908a16b23" x="85.489375" y="76.6505" style="fill: #262626; stroke: #262626; stroke-width: 1.25"/>
      </g>
     </g>
     <g id="text_15">
      <text style="fill: #262626; font: 16px 'Arial', 'DejaVu Sans', 'Liberation Sans', 'Bitstream Vera Sans', sans-serif; text-anchor: end" x="75.989375" y="82.37675" transform="rotate(-0 75.989375 82.37675)">0.8</text>
     </g>
    </g>
    <g id="ytick_6">
     <g id="line2d_32">
      <g>
       <use xlink:href="#ma908a16b23" x="85.489375" y="18.68625" style="fill: #262626; stroke: #262626; stroke-width: 1.25"/>
      </g>
     </g>
     <g id="text_16">
      <text style="fill: #262626; font: 16px 'Arial', 'DejaVu Sans', 'Liberation Sans', 'Bitstream Vera Sans', sans-serif; text-anchor: end" x="75.989375" y="24.4125" transform="rotate(-0 75.989375 24.4125)">1.0</text>
     </g>
    </g>
    <g id="text_17">
     <text style="fill: #262626; font: 16px 'Arial', 'DejaVu Sans', 'Liberation Sans', 'Bitstream Vera Sans', sans-serif; text-anchor: middle" x="46.569375" y="163.596875" transform="rotate(-90 46.569375 163.596875)">Outbreak risk</text>
    </g>
   </g>
   <g id="line2d_33">
    <path d="M 85.489375 261.750569 
L 88.709611 262.124768 
L 91.929847 262.738836 
L 95.150083 263.600313 
L 98.370319 264.719715 
L 101.188026 265.922253 
L 104.005733 267.347485 
L 106.823439 269.015472 
L 109.641146 270.95558 
L 112.056323 272.86683 
L 114.4715 275.044051 
L 116.886677 277.526795 
L 119.301854 280.346759 
L 121.717031 283.502125 
L 125.339797 288.680213 
L 128.962563 293.795064 
L 130.97521 296.2975 
L 132.987858 298.421959 
L 134.597976 299.823725 
L 136.208094 300.967677 
L 137.818212 301.876122 
L 139.830859 302.724726 
L 141.843507 303.307388 
L 143.856155 303.672313 
L 146.271332 303.872583 
L 148.686509 303.84992 
L 151.101686 303.623144 
L 153.516863 303.195852 
L 155.93204 302.561855 
L 158.347217 301.710587 
L 160.762394 300.632465 
L 163.177571 299.323798 
L 165.995278 297.514168 
L 168.812984 295.428198 
L 172.03322 292.768429 
L 176.461045 288.796792 
L 186.926813 279.270845 
L 190.952108 275.938825 
L 194.574873 273.200756 
L 198.197639 270.738465 
L 201.820405 268.566338 
L 205.040641 266.884141 
L 208.260877 265.436843 
L 211.481113 264.223522 
L 214.701349 263.242497 
L 217.921585 262.49204 
L 221.141821 261.970872 
L 224.362057 261.678546 
L 227.582293 261.615723 
L 230.80253 261.784425 
L 234.022766 262.188278 
L 237.243002 262.832807 
L 240.463238 263.725878 
L 243.683474 264.878452 
L 246.501181 266.111834 
L 249.318887 267.570339 
L 252.136594 269.275138 
L 254.9543 271.257237 
L 257.369477 273.210179 
L 259.784655 275.435572 
L 262.199832 277.972825 
L 264.615009 280.85023 
L 267.432715 284.618726 
L 275.483306 295.824998 
L 277.495953 298.029891 
L 279.106071 299.49807 
L 280.716189 300.704809 
L 282.326307 301.669554 
L 284.338955 302.578016 
L 286.351602 303.209649 
L 288.36425 303.614838 
L 290.779427 303.855469 
L 293.194604 303.868162 
L 295.609781 303.674811 
L 298.024958 303.281171 
L 300.440135 302.682308 
L 302.855312 301.868009 
L 305.27049 300.828166 
L 307.685667 299.557805 
L 310.100844 298.061065 
L 312.91855 296.049888 
L 316.138786 293.456448 
L 320.164082 289.903584 
L 333.447556 277.90465 
L 337.472851 274.689245 
L 341.095616 272.071262 
L 344.718382 269.736745 
L 347.938618 267.907987 
L 351.158854 266.3139 
L 354.37909 264.954511 
L 357.599326 263.828513 
L 360.819562 262.934139 
L 364.039799 262.269777 
L 367.260035 261.834424 
L 370.480271 261.628016 
L 373.700507 261.651697 
L 374.908095 261.720376 
L 374.908095 261.720376 
" clip-path="url(#pc6c87a5648)" style="fill: none; stroke: #4c72b0; stroke-width: 2; stroke-linecap: round"/>
   </g>
   <g id="line2d_34">
    <path d="M 85.489375 164.053685 
L 87.502023 164.527981 
L 89.51467 165.232711 
L 91.527318 166.173501 
L 93.539965 167.357585 
L 95.552613 168.794001 
L 97.56526 170.493878 
L 99.577908 172.470853 
L 101.590556 174.741712 
L 103.603203 177.327377 
L 105.615851 180.254408 
L 107.628498 183.557238 
L 109.641146 187.281292 
L 111.653793 191.486852 
L 113.666441 196.252792 
L 115.679089 201.677726 
L 117.691736 207.873596 
L 119.704384 214.943964 
L 121.717031 222.939223 
L 124.132208 233.643676 
L 130.97521 265.070798 
L 132.585328 271.14333 
L 134.195446 276.335999 
L 135.805564 280.630727 
L 137.013153 283.291801 
L 138.220741 285.513225 
L 139.42833 287.33756 
L 140.635918 288.807755 
L 141.843507 289.963871 
L 143.051095 290.841227 
L 144.258684 291.46958 
L 145.466273 291.872985 
L 146.673861 292.07007 
L 147.88145 292.07452 
L 149.089038 291.895666 
L 150.296627 291.539105 
L 151.906745 290.79119 
L 153.516863 289.730798 
L 155.126981 288.35198 
L 156.737099 286.646148 
L 158.347217 284.604673 
L 159.957335 282.221403 
L 161.567453 279.494948 
L 163.580101 275.612964 
L 165.592748 271.231077 
L 168.007925 265.381449 
L 170.825632 257.892038 
L 174.448398 247.566827 
L 183.706576 220.858461 
L 186.926813 212.325903 
L 190.147049 204.445224 
L 192.964755 198.139833 
L 195.782462 192.40631 
L 198.197639 187.948749 
L 200.612816 183.907168 
L 203.027993 180.271963 
L 205.44317 177.031326 
L 207.858347 174.172516 
L 210.273524 171.682803 
L 212.688701 169.55015 
L 214.701349 168.037818 
L 216.713997 166.760396 
L 218.726644 165.713246 
L 220.739292 164.892652 
L 222.751939 164.295889 
L 224.764587 163.921275 
L 226.777234 163.768227 
L 228.789882 163.837317 
L 230.80253 164.130329 
L 232.815177 164.650334 
L 234.827825 165.401777 
L 236.840472 166.390593 
L 238.85312 167.624358 
L 240.865767 169.112503 
L 242.878415 170.866618 
L 244.891063 172.900912 
L 246.90371 175.232904 
L 248.916358 177.884503 
L 250.929005 180.883637 
L 252.941653 184.266662 
L 254.9543 188.081647 
L 256.966948 192.392329 
L 258.979595 197.281589 
L 260.992243 202.851583 
L 263.004891 209.21496 
L 265.017538 216.469053 
L 267.030186 224.646074 
L 269.445363 235.519268 
L 275.483306 263.426148 
L 277.093424 269.705024 
L 278.703542 275.122737 
L 280.31366 279.639298 
L 281.521248 282.455631 
L 282.728837 284.819021 
L 283.936425 286.770884 
L 285.144014 288.354481 
L 286.351602 289.611106 
L 287.559191 290.577794 
L 288.76678 291.286196 
L 289.974368 291.762254 
L 291.181957 292.026359 
L 292.389545 292.093782 
L 293.597134 291.975235 
L 294.804722 291.677493 
L 296.41484 291.007326 
L 298.024958 290.02545 
L 299.635076 288.726986 
L 301.245194 287.103759 
L 302.855312 285.146909 
L 304.465431 282.849441 
L 306.075549 280.208577 
L 308.088196 276.430528 
L 310.100844 272.14544 
L 312.516021 266.396999 
L 315.333727 258.998051 
L 318.956493 248.738385 
L 329.019731 219.759938 
L 332.239967 211.303259 
L 335.057674 204.445224 
L 337.87538 198.139833 
L 340.693087 192.40631 
L 343.108264 187.948749 
L 345.523441 183.907168 
L 347.938618 180.271963 
L 350.353795 177.031326 
L 352.768972 174.172516 
L 355.184149 171.682803 
L 357.599326 169.55015 
L 359.611974 168.037818 
L 361.624622 166.760396 
L 363.637269 165.713246 
L 365.649917 164.892652 
L 367.662564 164.295889 
L 369.675212 163.921275 
L 371.687859 163.768227 
L 373.700507 163.837317 
L 374.908095 163.986087 
L 374.908095 163.986087 
" clip-path="url(#pc6c87a5648)" style="fill: none; stroke: #dd8452; stroke-width: 2; stroke-linecap: round"/>
   </g>
   <g id="line2d_35">
    <path d="M 85.489375 115.730925 
L 87.502023 116.232776 
L 89.51467 116.991894 
L 91.527318 118.016203 
L 93.539965 119.316094 
L 95.552613 120.904702 
L 97.56526 122.79828 
L 99.577908 125.016743 
L 101.590556 127.584485 
L 103.603203 130.531639 
L 105.615851 133.896059 
L 107.628498 137.726406 
L 109.641146 142.086796 
L 111.653793 147.063282 
L 113.666441 152.771611 
L 115.276559 157.96597 
L 116.886677 163.819352 
L 118.496795 170.43437 
L 120.106913 177.906934 
L 121.717031 186.298956 
L 123.729679 198.054751 
L 126.144856 213.603406 
L 130.170151 239.879574 
L 132.182799 251.419476 
L 133.792917 259.331913 
L 135.403035 265.961755 
L 136.610623 270.108796 
L 137.818212 273.595676 
L 139.0258 276.47992 
L 140.233389 278.823293 
L 141.440977 280.685635 
L 142.648566 282.121113 
L 143.856155 283.176322 
L 145.063743 283.889649 
L 146.271332 284.291429 
L 147.47892 284.40454 
L 148.686509 284.245213 
L 149.894097 283.823942 
L 151.101686 283.146405 
L 152.309274 282.214404 
L 153.516863 281.026782 
L 154.724451 279.580355 
L 156.334569 277.241758 
L 157.944688 274.425221 
L 159.554806 271.123772 
L 161.164924 267.33714 
L 163.177571 261.936799 
L 165.190219 255.837455 
L 167.605396 247.701165 
L 170.423102 237.312005 
L 174.448398 221.462424 
L 181.291399 194.461244 
L 184.511635 182.672478 
L 187.329342 173.120282 
L 190.147049 164.365852 
L 192.562226 157.521938 
L 194.977403 151.287194 
L 197.39258 145.648115 
L 199.807757 140.582971 
L 202.222934 136.065386 
L 204.638111 132.067003 
L 207.053288 128.559407 
L 209.065936 125.991676 
L 211.078583 123.731306 
L 213.091231 121.765019 
L 215.103878 120.081002 
L 217.116526 118.669021 
L 219.129174 117.520492 
L 221.141821 116.628539 
L 223.154469 115.988028 
L 225.167116 115.595612 
L 227.179764 115.44977 
L 229.192411 115.550862 
L 231.205059 115.901204 
L 233.217707 116.50516 
L 235.230354 117.369271 
L 237.243002 118.502419 
L 239.255649 119.916056 
L 241.268297 121.624511 
L 243.280944 123.645424 
L 245.293592 126.000384 
L 247.30624 128.715897 
L 249.318887 131.824894 
L 251.331535 135.369103 
L 253.344182 139.40271 
L 255.35683 143.997728 
L 257.369477 149.25114 
L 258.979595 154.013794 
L 260.589714 159.36359 
L 262.199832 165.397679 
L 263.80995 172.218851 
L 265.420068 179.917589 
L 267.432715 190.840364 
L 269.445363 203.100481 
L 273.068128 227.003608 
L 275.483306 242.316159 
L 277.093424 251.419476 
L 278.703542 259.331913 
L 280.31366 265.961755 
L 281.521248 270.108796 
L 282.728837 273.595676 
L 283.936425 276.47992 
L 285.144014 278.823293 
L 286.351602 280.685635 
L 287.559191 282.121113 
L 288.76678 283.176322 
L 289.974368 283.889649 
L 291.181957 284.291429 
L 292.389545 284.40454 
L 293.597134 284.245213 
L 294.804722 283.823942 
L 296.012311 283.146405 
L 297.219899 282.214404 
L 298.427488 281.026782 
L 299.635076 279.580355 
L 301.245194 277.241758 
L 302.855312 274.425221 
L 304.465431 271.123772 
L 306.075549 267.33714 
L 308.088196 261.936799 
L 310.100844 255.837455 
L 312.516021 247.701165 
L 315.333727 237.312005 
L 319.359023 221.462424 
L 326.202024 194.461244 
L 329.42226 182.672478 
L 332.239967 173.120282 
L 335.057674 164.365852 
L 337.472851 157.521938 
L 339.888028 151.287194 
L 342.303205 145.648115 
L 344.718382 140.582971 
L 347.133559 136.065386 
L 349.548736 132.067003 
L 351.963913 128.559407 
L 353.976561 125.991676 
L 355.989208 123.731306 
L 358.001856 121.765019 
L 360.014503 120.081002 
L 362.027151 118.669021 
L 364.039799 117.520492 
L 366.052446 116.628539 
L 368.065094 115.988028 
L 370.077741 115.595612 
L 372.090389 115.44977 
L 374.103036 115.550862 
L 374.908095 115.660891 
L 374.908095 115.660891 
" clip-path="url(#pc6c87a5648)" style="fill: none; stroke: #55a868; stroke-width: 2; stroke-linecap: round"/>
   </g>
   <g id="line2d_36">
    <path d="M 85.489375 44.792938 
L 87.904552 45.203181 
L 89.9172 45.755929 
L 91.929847 46.511955 
L 93.942495 47.486232 
L 95.955142 48.698149 
L 97.96779 50.172121 
L 99.980438 51.938427 
L 101.993085 54.034346 
L 104.005733 56.505801 
L 106.01838 59.409883 
L 107.628498 62.092602 
L 109.238616 65.144914 
L 110.848734 68.626169 
L 112.458852 72.613509 
L 114.06897 77.209142 
L 115.679089 82.549314 
L 117.289207 88.813009 
L 118.899325 96.225276 
L 120.509443 105.045555 
L 122.119561 115.527558 
L 123.729679 127.839985 
L 125.339797 141.955212 
L 127.352444 161.606832 
L 131.780269 205.856579 
L 133.390387 219.765883 
L 135.000505 231.704672 
L 136.208094 239.293855 
L 137.415682 245.745821 
L 138.623271 251.135523 
L 139.830859 255.55807 
L 141.038448 259.113634 
L 142.246036 261.897576 
L 143.453625 263.994843 
L 144.258684 265.047637 
L 145.063743 265.845471 
L 145.868802 266.403673 
L 146.673861 266.73507 
L 147.47892 266.850156 
L 148.283979 266.757294 
L 149.089038 266.462925 
L 149.894097 265.971783 
L 150.699156 265.287112 
L 151.906745 263.901275 
L 153.114333 262.086691 
L 154.321922 259.842212 
L 155.52951 257.16473 
L 157.139628 252.915479 
L 158.749747 247.886915 
L 160.359865 242.085997 
L 161.969983 235.535713 
L 163.98263 226.361486 
L 166.397807 214.086202 
L 169.215514 198.433748 
L 174.850927 165.31328 
L 178.473693 144.664488 
L 181.291399 129.765659 
L 183.706576 118.055794 
L 186.121753 107.426078 
L 188.536931 97.903497 
L 190.549578 90.798774 
L 192.562226 84.416685 
L 194.574873 78.715247 
L 196.587521 73.646305 
L 198.600168 69.159015 
L 200.612816 65.202431 
L 202.625464 61.727324 
L 204.638111 58.687388 
L 206.650759 56.039983 
L 208.663406 53.746522 
L 210.676054 51.772622 
L 212.688701 50.088088 
L 214.701349 48.666796 
L 216.713997 47.486522 
L 218.726644 46.528747 
L 220.739292 45.778469 
L 223.154469 45.135852 
L 225.569646 44.761376 
L 227.984823 44.647461 
L 230.4 44.792938 
L 232.815177 45.203181 
L 234.827825 45.755929 
L 236.840472 46.511955 
L 238.85312 47.486232 
L 240.865767 48.698149 
L 242.878415 50.172121 
L 244.891063 51.938427 
L 246.90371 54.034346 
L 248.916358 56.505801 
L 250.929005 59.409883 
L 252.539123 62.092602 
L 254.149241 65.144914 
L 255.759359 68.626169 
L 257.369477 72.613509 
L 258.979595 77.209142 
L 260.589714 82.549314 
L 262.199832 88.813009 
L 263.80995 96.225276 
L 265.420068 105.045555 
L 267.030186 115.527558 
L 268.640304 127.839985 
L 270.250422 141.955212 
L 272.263069 161.606832 
L 276.690894 205.856579 
L 278.301012 219.765883 
L 279.91113 231.704672 
L 281.118719 239.293855 
L 282.326307 245.745821 
L 283.533896 251.135523 
L 284.741484 255.55807 
L 285.949073 259.113634 
L 287.156661 261.897576 
L 288.36425 263.994843 
L 289.169309 265.047637 
L 289.974368 265.845471 
L 290.779427 266.403673 
L 291.584486 266.73507 
L 292.389545 266.850156 
L 293.194604 266.757294 
L 293.999663 266.462925 
L 294.804722 265.971783 
L 295.609781 265.287112 
L 296.81737 263.901275 
L 298.024958 262.086691 
L 299.232547 259.842212 
L 300.440135 257.16473 
L 302.050253 252.915479 
L 303.660372 247.886915 
L 305.27049 242.085997 
L 306.880608 235.535713 
L 308.893255 226.361486 
L 311.308432 214.086202 
L 314.126139 198.433748 
L 319.761552 165.31328 
L 323.384318 144.664488 
L 326.202024 129.765659 
L 328.617201 118.055794 
L 331.032378 107.426078 
L 333.447556 97.903497 
L 335.460203 90.798774 
L 337.472851 84.416685 
L 339.485498 78.715247 
L 341.498146 73.646305 
L 343.510793 69.159015 
L 345.523441 65.202431 
L 347.536089 61.727324 
L 349.548736 58.687388 
L 351.561384 56.039983 
L 353.574031 53.746522 
L 355.586679 51.772622 
L 357.599326 50.088088 
L 359.611974 48.666796 
L 361.624622 47.486522 
L 363.637269 46.528747 
L 365.649917 45.778469 
L 368.065094 45.135852 
L 370.480271 44.761376 
L 372.895448 44.647461 
L 374.908095 44.750534 
L 374.908095 44.750534 
" clip-path="url(#pc6c87a5648)" style="fill: none; stroke: #c44e52; stroke-width: 2; stroke-linecap: round"/>
   </g>
   <g id="line2d_37">
    <path d="M 85.489375 36.945527 
L 87.904552 37.290245 
L 90.319729 37.874833 
L 92.734906 38.718868 
L 94.747554 39.64046 
L 96.760201 40.783135 
L 98.772849 42.173948 
L 100.785497 43.846487 
L 102.798144 45.84222 
L 104.810792 48.212449 
L 106.42091 50.420826 
L 108.031028 52.950295 
L 109.641146 55.851336 
L 111.251264 59.188209 
L 112.861382 63.044992 
L 114.4715 67.534188 
L 116.081618 72.807674 
L 117.691736 79.067783 
L 118.899325 84.563554 
L 120.106913 90.88453 
L 121.314502 98.161367 
L 122.52209 106.510939 
L 124.132208 119.433159 
L 125.742326 134.347299 
L 127.754974 155.161203 
L 132.182799 201.682424 
L 133.792917 216.118584 
L 135.403035 228.421724 
L 136.610623 236.196515 
L 137.818212 242.774345 
L 139.0258 248.241765 
L 140.233389 252.702653 
L 141.440977 256.263275 
L 142.648566 259.022873 
L 143.856155 261.068591 
L 144.661214 262.072424 
L 145.466273 262.809723 
L 146.271332 263.295751 
L 147.076391 263.54317 
L 147.88145 263.562242 
L 148.686509 263.361049 
L 149.491568 262.945723 
L 150.296627 262.320681 
L 151.504215 260.995995 
L 152.711804 259.210748 
L 153.919392 256.965461 
L 155.126981 254.258029 
L 156.334569 251.085537 
L 157.944688 246.129126 
L 159.554806 240.346377 
L 161.164924 233.755753 
L 163.177571 224.442064 
L 165.190219 214.053459 
L 167.605396 200.42792 
L 171.228161 178.477504 
L 177.266104 141.625681 
L 180.083811 125.753961 
L 182.498988 113.264146 
L 184.914165 101.93999 
L 186.926813 93.428711 
L 188.93946 85.752801 
L 190.952108 78.882979 
L 192.964755 72.774671 
L 194.977403 67.37388 
L 196.99005 62.621868 
L 199.002698 58.458707 
L 201.015345 54.825822 
L 203.027993 51.667708 
L 205.040641 48.933002 
L 207.053288 46.575067 
L 209.065936 44.552233 
L 211.078583 42.827792 
L 213.091231 41.369848 
L 215.103878 40.151081 
L 217.519056 38.972144 
L 219.934233 38.07248 
L 222.34941 37.427576 
L 224.764587 37.02008 
L 227.179764 36.839427 
L 229.594941 36.881656 
L 232.010118 37.149426 
L 234.425295 37.652276 
L 236.840472 38.407146 
L 238.85312 39.246614 
L 240.865767 40.297938 
L 242.878415 41.585856 
L 244.891063 43.141206 
L 246.90371 45.002109 
L 248.916358 47.215646 
L 250.526476 49.279238 
L 252.136594 51.642537 
L 253.746712 54.350735 
L 255.35683 57.460591 
L 256.966948 61.045366 
L 258.577066 65.202108 
L 260.187184 70.061543 
L 261.797302 75.799561 
L 263.004891 80.816036 
L 264.212479 86.572362 
L 265.420068 93.197654 
L 266.627656 100.820473 
L 268.237774 112.713359 
L 269.847892 126.656605 
L 271.86054 146.619768 
L 277.898483 209.151742 
L 279.508601 222.547376 
L 281.118719 233.741316 
L 282.326307 240.709921 
L 283.533896 246.536425 
L 284.741484 251.320892 
L 285.949073 255.170089 
L 287.156661 258.186348 
L 288.36425 260.461201 
L 289.169309 261.604885 
L 289.974368 262.473374 
L 290.779427 263.083296 
L 291.584486 263.448591 
L 292.389545 263.580695 
L 293.194604 263.488752 
L 293.999663 263.179839 
L 294.804722 262.659201 
L 295.609781 261.930488 
L 296.81737 260.451987 
L 298.024958 258.513502 
L 299.232547 256.114477 
L 300.440135 253.252337 
L 302.050253 248.711125 
L 303.660372 243.340307 
L 305.27049 237.150164 
L 306.880608 230.168609 
L 308.893255 220.406631 
L 311.308432 207.37789 
L 314.126139 190.826608 
L 324.189377 130.157124 
L 327.007083 115.267152 
L 329.42226 103.743587 
L 331.837437 93.428711 
L 333.850085 85.752801 
L 335.862733 78.882979 
L 337.87538 72.774671 
L 339.888028 67.37388 
L 341.900675 62.621868 
L 343.913323 58.458707 
L 345.92597 54.825822 
L 347.938618 51.667708 
L 349.951266 48.933002 
L 351.963913 46.575067 
L 353.976561 44.552233 
L 355.989208 42.827792 
L 358.001856 41.369848 
L 360.014503 40.151081 
L 362.429681 38.972144 
L 364.844858 38.07248 
L 367.260035 37.427576 
L 369.675212 37.02008 
L 372.090389 36.839427 
L 374.505566 36.881656 
L 374.908095 36.910451 
L 374.908095 36.910451 
" clip-path="url(#pc6c87a5648)" style="fill: none; stroke: #8172b3; stroke-width: 2; stroke-linecap: round"/>
   </g>
   <g id="patch_3">
    <path d="M 85.489375 308.5075 
L 85.489375 18.68625 
" style="fill: none; stroke: #262626; stroke-width: 1.25; stroke-linejoin: miter; stroke-linecap: square"/>
   </g>
   <g id="patch_4">
    <path d="M 85.489375 308.5075 
L 375.310625 308.5075 
" style="fill: none; stroke: #262626; stroke-width: 1.25; stroke-linejoin: miter; stroke-linecap: square"/>
   </g>
   <g id="legend_1">
    <g id="patch_5">
     <path d="M 95.289375 128.903437 
L 187.549375 128.903437 
Q 190.349375 128.903437 190.349375 126.103437 
L 190.349375 28.48625 
Q 190.349375 25.68625 187.549375 25.68625 
L 95.289375 25.68625 
Q 92.489375 25.68625 92.489375 28.48625 
L 92.489375 126.103437 
Q 92.489375 128.903437 95.289375 128.903437 
z
" style="fill: #ffffff; opacity: 0.8; stroke: #cccccc; stroke-linejoin: miter"/>
    </g>
    <g id="line2d_38">
     <path d="M 98.089375 36.407187 
L 112.089375 36.407187 
L 126.089375 36.407187 
" style="fill: none; stroke: #4c72b0; stroke-width: 2; stroke-linecap: round"/>
    </g>
    <g id="text_18">
     <!-- $\it{k}$ = 0.1 -->
     <g style="fill: #262626" transform="translate(137.289375 41.307187)">
      <text>
       <tspan style="font: oblique 14px 'DejaVu Sans'" x="0" y="-0.359375">k</tspan>
       <tspan style="font: 14px 'Arial'" x="8.107422 11.99707 20.172852 24.0625 31.848633 35.738281" y="-0.359375"> = 0.1</tspan>
      </text>
     </g>
    </g>
    <g id="line2d_39">
     <path d="M 98.089375 56.210625 
L 112.089375 56.210625 
L 126.089375 56.210625 
" style="fill: none; stroke: #dd8452; stroke-width: 2; stroke-linecap: round"/>
    </g>
    <g id="text_19">
     <!-- $\it{k}$ = 0.5 -->
     <g style="fill: #262626" transform="translate(137.289375 61.110625)">
      <text>
       <tspan style="font: oblique 14px 'DejaVu Sans'" x="0" y="-0.359375">k</tspan>
       <tspan style="font: 14px 'Arial'" x="8.107422 11.99707 20.172852 24.0625 31.848633 35.738281" y="-0.359375"> = 0.5</tspan>
      </text>
     </g>
    </g>
    <g id="line2d_40">
     <path d="M 98.089375 76.014062 
L 112.089375 76.014062 
L 126.089375 76.014062 
" style="fill: none; stroke: #55a868; stroke-width: 2; stroke-linecap: round"/>
    </g>
    <g id="text_20">
     <!-- $\it{k}$ = 1 -->
     <g style="fill: #262626" transform="translate(137.289375 80.914062)">
      <text>
       <tspan style="font: oblique 14px 'DejaVu Sans'" x="0" y="-0.359375">k</tspan>
       <tspan style="font: 14px 'Arial'" x="8.107422 11.99707 20.172852 24.0625" y="-0.359375"> = 1</tspan>
      </text>
     </g>
    </g>
    <g id="line2d_41">
     <path d="M 98.089375 95.8175 
L 112.089375 95.8175 
L 126.089375 95.8175 
" style="fill: none; stroke: #c44e52; stroke-width: 2; stroke-linecap: round"/>
    </g>
    <g id="text_21">
     <!-- $\it{k}$ = 10 -->
     <g style="fill: #262626" transform="translate(137.289375 100.7175)">
      <text>
       <tspan style="font: oblique 14px 'DejaVu Sans'" x="0" y="-0.359375">k</tspan>
       <tspan style="font: 14px 'Arial'" x="8.107422 11.99707 20.172852 24.0625 31.848633" y="-0.359375"> = 10</tspan>
      </text>
     </g>
    </g>
    <g id="line2d_42">
     <path d="M 98.089375 115.620937 
L 112.089375 115.620937 
L 126.089375 115.620937 
" style="fill: none; stroke: #8172b3; stroke-width: 2; stroke-linecap: round"/>
    </g>
    <g id="text_22">
     <!-- $\it{k}$ = 100 -->
     <g style="fill: #262626" transform="translate(137.289375 120.520938)">
      <text>
       <tspan style="font: oblique 14px 'DejaVu Sans'" x="0" y="-0.359375">k</tspan>
       <tspan style="font: 14px 'Arial'" x="8.107422 11.99707 20.172852 24.0625 31.848633 39.634766" y="-0.359375"> = 100</tspan>
      </text>
     </g>
    </g>
   </g>
  </g>
 </g>
 <defs>
  <clipPath id="pc6c87a5648">
   <rect x="85.489375" y="18.68625" width="289.82125" height="289.82125"/>
  </clipPath>
 </defs>
</svg>
