<?xml version="1.0" encoding="utf-8" standalone="no"?>
<!DOCTYPE svg PUBLIC "-//W3C//DTD SVG 1.1//EN"
  "http://www.w3.org/Graphics/SVG/1.1/DTD/svg11.dtd">
<svg xmlns:xlink="http://www.w3.org/1999/xlink" width="432pt" height="432pt" viewBox="0 0 432 432" xmlns="http://www.w3.org/2000/svg" version="1.1">
 <metadata>
  <rdf:RDF xmlns:dc="http://purl.org/dc/elements/1.1/" xmlns:cc="http://creativecommons.org/ns#" xmlns:rdf="http://www.w3.org/1999/02/22-rdf-syntax-ns#">
   <cc:Work>
    <dc:type rdf:resource="http://purl.org/dc/dcmitype/StillImage"/>
    <dc:date>2024-05-14T12:29:29.632371</dc:date>
    <dc:format>image/svg+xml</dc:format>
    <dc:creator>
     <cc:Agent>
      <dc:title>Matplotlib v3.8.4, https://matplotlib.org/</dc:title>
     </cc:Agent>
    </dc:creator>
   </cc:Work>
  </rdf:RDF>
 </metadata>
 <defs>
  <style type="text/css">*{stroke-linejoin: round; stroke-linecap: butt}</style>
 </defs>
 <g id="figure_1">
  <g id="patch_1">
   <path d="M 0 432 
L 432 432 
L 432 0 
L 0 0 
L 0 432 
z
" style="fill: none"/>
  </g>
  <g id="axes_1">
   <g id="patch_2">
    <path d="M 86.4 345.6 
L 345.6 345.6 
L 345.6 86.4 
L 86.4 86.4 
L 86.4 345.6 
z
" style="fill: none"/>
   </g>
   <g id="matplotlib.axis_1">
    <g id="xtick_1">
     <g id="line2d_1">
      <defs>
       <path id="m4206168d63" d="M 0 0 
L 0 6 
" style="stroke: #262626; stroke-width: 1.25"/>
      </defs>
      <g>
       <use xlink:href="#m4206168d63" x="86.4" y="345.6" style="fill: #262626; stroke: #262626; stroke-width: 1.25"/>
      </g>
     </g>
     <g id="text_1">
      <text style="fill: #262626; font: 16px 'Arial', 'DejaVu Sans', 'Liberation Sans', 'Bitstream Vera Sans', sans-serif; text-anchor: middle" x="86.4" y="366.5525" transform="rotate(-0 86.4 366.5525)">Jan</text>
     </g>
    </g>
    <g id="xtick_2">
     <g id="line2d_2">
      <g>
       <use xlink:href="#m4206168d63" x="97.2" y="345.6" style="fill: #262626; stroke: #262626; stroke-width: 1.25"/>
      </g>
     </g>
    </g>
    <g id="xtick_3">
     <g id="line2d_3">
      <g>
       <use xlink:href="#m4206168d63" x="108" y="345.6" style="fill: #262626; stroke: #262626; stroke-width: 1.25"/>
      </g>
     </g>
    </g>
    <g id="xtick_4">
     <g id="line2d_4">
      <g>
       <use xlink:href="#m4206168d63" x="118.8" y="345.6" style="fill: #262626; stroke: #262626; stroke-width: 1.25"/>
      </g>
     </g>
     <g id="text_2">
      <text style="fill: #262626; font: 16px 'Arial', 'DejaVu Sans', 'Liberation Sans', 'Bitstream Vera Sans', sans-serif; text-anchor: middle" x="118.8" y="366.5525" transform="rotate(-0 118.8 366.5525)">Apr</text>
     </g>
    </g>
    <g id="xtick_5">
     <g id="line2d_5">
      <g>
       <use xlink:href="#m4206168d63" x="129.6" y="345.6" style="fill: #262626; stroke: #262626; stroke-width: 1.25"/>
      </g>
     </g>
    </g>
    <g id="xtick_6">
     <g id="line2d_6">
      <g>
       <use xlink:href="#m4206168d63" x="140.4" y="345.6" style="fill: #262626; stroke: #262626; stroke-width: 1.25"/>
      </g>
     </g>
    </g>
    <g id="xtick_7">
     <g id="line2d_7">
      <g>
       <use xlink:href="#m4206168d63" x="151.2" y="345.6" style="fill: #262626; stroke: #262626; stroke-width: 1.25"/>
      </g>
     </g>
     <g id="text_3">
      <text style="fill: #262626; font: 16px 'Arial', 'DejaVu Sans', 'Liberation Sans', 'Bitstream Vera Sans', sans-serif; text-anchor: middle" x="151.2" y="366.5525" transform="rotate(-0 151.2 366.5525)">Jul</text>
     </g>
    </g>
    <g id="xtick_8">
     <g id="line2d_8">
      <g>
       <use xlink:href="#m4206168d63" x="162" y="345.6" style="fill: #262626; stroke: #262626; stroke-width: 1.25"/>
      </g>
     </g>
    </g>
    <g id="xtick_9">
     <g id="line2d_9">
      <g>
       <use xlink:href="#m4206168d63" x="172.8" y="345.6" style="fill: #262626; stroke: #262626; stroke-width: 1.25"/>
      </g>
     </g>
    </g>
    <g id="xtick_10">
     <g id="line2d_10">
      <g>
       <use xlink:href="#m4206168d63" x="183.6" y="345.6" style="fill: #262626; stroke: #262626; stroke-width: 1.25"/>
      </g>
     </g>
     <g id="text_4">
      <text style="fill: #262626; font: 16px 'Arial', 'DejaVu Sans', 'Liberation Sans', 'Bitstream Vera Sans', sans-serif; text-anchor: middle" x="183.6" y="366.5525" transform="rotate(-0 183.6 366.5525)">Oct</text>
     </g>
    </g>
    <g id="xtick_11">
     <g id="line2d_11">
      <g>
       <use xlink:href="#m4206168d63" x="194.4" y="345.6" style="fill: #262626; stroke: #262626; stroke-width: 1.25"/>
      </g>
     </g>
    </g>
    <g id="xtick_12">
     <g id="line2d_12">
      <g>
       <use xlink:href="#m4206168d63" x="205.2" y="345.6" style="fill: #262626; stroke: #262626; stroke-width: 1.25"/>
      </g>
     </g>
    </g>
    <g id="xtick_13">
     <g id="line2d_13">
      <g>
       <use xlink:href="#m4206168d63" x="216" y="345.6" style="fill: #262626; stroke: #262626; stroke-width: 1.25"/>
      </g>
     </g>
     <g id="text_5">
      <text style="fill: #262626; font: 16px 'Arial', 'DejaVu Sans', 'Liberation Sans', 'Bitstream Vera Sans', sans-serif; text-anchor: middle" x="216" y="366.5525" transform="rotate(-0 216 366.5525)">Jan</text>
     </g>
    </g>
    <g id="xtick_14">
     <g id="line2d_14">
      <g>
       <use xlink:href="#m4206168d63" x="216" y="345.6" style="fill: #262626; stroke: #262626; stroke-width: 1.25"/>
      </g>
     </g>
     <g id="text_6">
      <text style="fill: #262626; font: 16px 'Arial', 'DejaVu Sans', 'Liberation Sans', 'Bitstream Vera Sans', sans-serif; text-anchor: middle" x="216" y="366.5525" transform="rotate(-0 216 366.5525)">Jan</text>
     </g>
    </g>
    <g id="xtick_15">
     <g id="line2d_15">
      <g>
       <use xlink:href="#m4206168d63" x="226.8" y="345.6" style="fill: #262626; stroke: #262626; stroke-width: 1.25"/>
      </g>
     </g>
    </g>
    <g id="xtick_16">
     <g id="line2d_16">
      <g>
       <use xlink:href="#m4206168d63" x="237.6" y="345.6" style="fill: #262626; stroke: #262626; stroke-width: 1.25"/>
      </g>
     </g>
    </g>
    <g id="xtick_17">
     <g id="line2d_17">
      <g>
       <use xlink:href="#m4206168d63" x="248.4" y="345.6" style="fill: #262626; stroke: #262626; stroke-width: 1.25"/>
      </g>
     </g>
     <g id="text_7">
      <text style="fill: #262626; font: 16px 'Arial', 'DejaVu Sans', 'Liberation Sans', 'Bitstream Vera Sans', sans-serif; text-anchor: middle" x="248.4" y="366.5525" transform="rotate(-0 248.4 366.5525)">Apr</text>
     </g>
    </g>
    <g id="xtick_18">
     <g id="line2d_18">
      <g>
       <use xlink:href="#m4206168d63" x="259.2" y="345.6" style="fill: #262626; stroke: #262626; stroke-width: 1.25"/>
      </g>
     </g>
    </g>
    <g id="xtick_19">
     <g id="line2d_19">
      <g>
       <use xlink:href="#m4206168d63" x="270" y="345.6" style="fill: #262626; stroke: #262626; stroke-width: 1.25"/>
      </g>
     </g>
    </g>
    <g id="xtick_20">
     <g id="line2d_20">
      <g>
       <use xlink:href="#m4206168d63" x="280.8" y="345.6" style="fill: #262626; stroke: #262626; stroke-width: 1.25"/>
      </g>
     </g>
     <g id="text_8">
      <text style="fill: #262626; font: 16px 'Arial', 'DejaVu Sans', 'Liberation Sans', 'Bitstream Vera Sans', sans-serif; text-anchor: middle" x="280.8" y="366.5525" transform="rotate(-0 280.8 366.5525)">Jul</text>
     </g>
    </g>
    <g id="xtick_21">
     <g id="line2d_21">
      <g>
       <use xlink:href="#m4206168d63" x="291.6" y="345.6" style="fill: #262626; stroke: #262626; stroke-width: 1.25"/>
      </g>
     </g>
    </g>
    <g id="xtick_22">
     <g id="line2d_22">
      <g>
       <use xlink:href="#m4206168d63" x="302.4" y="345.6" style="fill: #262626; stroke: #262626; stroke-width: 1.25"/>
      </g>
     </g>
    </g>
    <g id="xtick_23">
     <g id="line2d_23">
      <g>
       <use xlink:href="#m4206168d63" x="313.2" y="345.6" style="fill: #262626; stroke: #262626; stroke-width: 1.25"/>
      </g>
     </g>
     <g id="text_9">
      <text style="fill: #262626; font: 16px 'Arial', 'DejaVu Sans', 'Liberation Sans', 'Bitstream Vera Sans', sans-serif; text-anchor: middle" x="313.2" y="366.5525" transform="rotate(-0 313.2 366.5525)">Oct</text>
     </g>
    </g>
    <g id="xtick_24">
     <g id="line2d_24">
      <g>
       <use xlink:href="#m4206168d63" x="324" y="345.6" style="fill: #262626; stroke: #262626; stroke-width: 1.25"/>
      </g>
     </g>
    </g>
    <g id="xtick_25">
     <g id="line2d_25">
      <g>
       <use xlink:href="#m4206168d63" x="334.8" y="345.6" style="fill: #262626; stroke: #262626; stroke-width: 1.25"/>
      </g>
     </g>
    </g>
    <g id="xtick_26">
     <g id="line2d_26">
      <g>
       <use xlink:href="#m4206168d63" x="345.6" y="345.6" style="fill: #262626; stroke: #262626; stroke-width: 1.25"/>
      </g>
     </g>
     <g id="text_10">
      <text style="fill: #262626; font: 16px 'Arial', 'DejaVu Sans', 'Liberation Sans', 'Bitstream Vera Sans', sans-serif; text-anchor: middle" x="345.6" y="366.5525" transform="rotate(-0 345.6 366.5525)">Jan</text>
     </g>
    </g>
    <g id="text_11">
     <text style="fill: #262626; font: 16px 'Arial', 'DejaVu Sans', 'Liberation Sans', 'Bitstream Vera Sans', sans-serif; text-anchor: middle" x="216" y="385.185" transform="rotate(-0 216 385.185)"> </text>
    </g>
   </g>
   <g id="matplotlib.axis_2">
    <g id="ytick_1">
     <g id="line2d_27">
      <defs>
       <path id="m5a2a1a18cb" d="M 0 0 
L -6 0 
" style="stroke: #262626; stroke-width: 1.25"/>
      </defs>
      <g>
       <use xlink:href="#m5a2a1a18cb" x="86.4" y="345.6" style="fill: #262626; stroke: #262626; stroke-width: 1.25"/>
      </g>
     </g>
     <g id="text_12">
      <text style="fill: #262626; font: 16px 'Arial', 'DejaVu Sans', 'Liberation Sans', 'Bitstream Vera Sans', sans-serif; text-anchor: end" x="76.9" y="351.32625" transform="rotate(-0 76.9 351.32625)">0.0</text>
     </g>
    </g>
    <g id="ytick_2">
     <g id="line2d_28">
      <g>
       <use xlink:href="#m5a2a1a18cb" x="86.4" y="293.76" style="fill: #262626; stroke: #262626; stroke-width: 1.25"/>
      </g>
     </g>
     <g id="text_13">
      <text style="fill: #262626; font: 16px 'Arial', 'DejaVu Sans', 'Liberation Sans', 'Bitstream Vera Sans', sans-serif; text-anchor: end" x="76.9" y="299.48625" transform="rotate(-0 76.9 299.48625)">0.2</text>
     </g>
    </g>
    <g id="ytick_3">
     <g id="line2d_29">
      <g>
       <use xlink:href="#m5a2a1a18cb" x="86.4" y="241.92" style="fill: #262626; stroke: #262626; stroke-width: 1.25"/>
      </g>
     </g>
     <g id="text_14">
      <text style="fill: #262626; font: 16px 'Arial', 'DejaVu Sans', 'Liberation Sans', 'Bitstream Vera Sans', sans-serif; text-anchor: end" x="76.9" y="247.64625" transform="rotate(-0 76.9 247.64625)">0.4</text>
     </g>
    </g>
    <g id="ytick_4">
     <g id="line2d_30">
      <g>
       <use xlink:href="#m5a2a1a18cb" x="86.4" y="190.08" style="fill: #262626; stroke: #262626; stroke-width: 1.25"/>
      </g>
     </g>
     <g id="text_15">
      <text style="fill: #262626; font: 16px 'Arial', 'DejaVu Sans', 'Liberation Sans', 'Bitstream Vera Sans', sans-serif; text-anchor: end" x="76.9" y="195.80625" transform="rotate(-0 76.9 195.80625)">0.6</text>
     </g>
    </g>
    <g id="ytick_5">
     <g id="line2d_31">
      <g>
       <use xlink:href="#m5a2a1a18cb" x="86.4" y="138.24" style="fill: #262626; stroke: #262626; stroke-width: 1.25"/>
      </g>
     </g>
     <g id="text_16">
      <text style="fill: #262626; font: 16px 'Arial', 'DejaVu Sans', 'Liberation Sans', 'Bitstream Vera Sans', sans-serif; text-anchor: end" x="76.9" y="143.96625" transform="rotate(-0 76.9 143.96625)">0.8</text>
     </g>
    </g>
    <g id="ytick_6">
     <g id="line2d_32">
      <g>
       <use xlink:href="#m5a2a1a18cb" x="86.4" y="86.4" style="fill: #262626; stroke: #262626; stroke-width: 1.25"/>
      </g>
     </g>
     <g id="text_17">
      <text style="fill: #262626; font: 16px 'Arial', 'DejaVu Sans', 'Liberation Sans', 'Bitstream Vera Sans', sans-serif; text-anchor: end" x="76.9" y="92.12625" transform="rotate(-0 76.9 92.12625)">1.0</text>
     </g>
    </g>
    <g id="text_18">
     <text style="fill: #262626; font: 16px 'Arial', 'DejaVu Sans', 'Liberation Sans', 'Bitstream Vera Sans', sans-serif; text-anchor: middle" x="47.48" y="216" transform="rotate(-90 47.48 216)">Outbreak risk</text>
    </g>
   </g>
   <g id="line2d_33">
    <path d="M 86.4 216.408545 
L 88.2 216.832729 
L 90 217.463001 
L 91.8 218.304391 
L 93.6 219.36337 
L 95.4 220.648021 
L 97.2 222.168296 
L 99 223.936392 
L 101.16 226.406617 
L 103.32 229.28873 
L 105.12 232.036766 
L 106.92 235.135785 
L 108.72 238.631288 
L 110.52 242.583499 
L 112.32 247.070148 
L 114.12 252.185476 
L 115.92 258.02996 
L 117.72 264.683292 
L 119.52 272.155455 
L 122.04 283.72377 
L 126 302.220275 
L 127.8 309.562304 
L 129.24 314.606738 
L 130.68 318.846711 
L 132.12 322.300658 
L 133.2 324.414342 
L 134.28 326.15998 
L 135.36 327.576261 
L 136.44 328.700117 
L 137.52 329.564668 
L 138.6 330.198224 
L 139.68 330.623984 
L 140.76 330.860185 
L 141.84 330.920483 
L 143.28 330.7433 
L 144.72 330.283252 
L 146.16 329.544774 
L 147.6 328.525854 
L 149.04 327.220361 
L 150.48 325.620389 
L 151.92 323.718569 
L 153.72 320.910211 
L 155.52 317.625127 
L 157.32 313.880923 
L 159.48 308.833107 
L 162 302.300927 
L 165.24 293.18967 
L 175.32 264.287531 
L 178.2 256.864893 
L 181.08 250.053742 
L 183.6 244.632683 
L 186.12 239.725334 
L 188.64 235.328391 
L 191.16 231.430319 
L 193.32 228.474041 
L 195.48 225.861166 
L 197.64 223.580259 
L 199.8 221.620417 
L 201.96 219.971732 
L 204.12 218.625618 
L 206.28 217.57505 
L 208.08 216.92147 
L 209.88 216.467356 
L 211.68 216.211591 
L 213.48 216.15406 
L 215.28 216.295701 
L 217.08 216.638562 
L 218.88 217.18587 
L 220.68 217.942121 
L 222.48 218.913189 
L 224.28 220.106488 
L 226.08 221.531186 
L 227.88 223.198526 
L 229.68 225.122309 
L 231.84 227.793725 
L 233.64 230.348235 
L 235.44 233.231995 
L 237.24 236.483403 
L 239.04 240.153423 
L 240.84 244.309068 
L 242.64 249.035156 
L 244.44 254.430421 
L 246.24 260.591454 
L 248.04 267.577126 
L 250.2 276.987867 
L 257.04 308.180189 
L 258.48 313.420298 
L 259.92 317.862174 
L 261.36 321.507771 
L 262.8 324.414342 
L 263.88 326.15998 
L 264.96 327.576261 
L 266.04 328.700117 
L 267.12 329.564668 
L 268.2 330.198224 
L 269.28 330.623984 
L 270.36 330.860185 
L 271.44 330.920483 
L 272.88 330.7433 
L 274.32 330.283252 
L 275.76 329.544774 
L 277.2 328.525854 
L 278.64 327.220361 
L 280.08 325.620389 
L 281.52 323.718569 
L 283.32 320.910211 
L 285.12 317.625127 
L 286.92 313.880923 
L 289.08 308.833107 
L 291.6 302.300927 
L 294.84 293.18967 
L 304.92 264.287531 
L 307.8 256.864893 
L 310.68 250.053742 
L 313.2 244.632683 
L 315.72 239.725334 
L 318.24 235.328391 
L 320.76 231.430319 
L 322.92 228.474041 
L 325.08 225.861166 
L 327.24 223.580259 
L 329.4 221.620417 
L 331.56 219.971732 
L 333.72 218.625618 
L 335.88 217.57505 
L 337.68 216.92147 
L 339.48 216.467356 
L 341.28 216.211591 
L 343.08 216.15406 
L 344.88 216.295701 
L 345.24 216.348089 
L 345.24 216.348089 
" clip-path="url(#p29acf319d4)" style="fill: none; stroke: #4c72b0; stroke-width: 2; stroke-linecap: round"/>
   </g>
   <g id="line2d_34">
    <path d="M 86.4 216 
L 88.2 216.098739 
L 90 216.395466 
L 91.8 216.891717 
L 93.6 217.590054 
L 95.4 218.494073 
L 97.56 219.856992 
L 99.72 221.532802 
L 101.88 223.533637 
L 104.04 225.873743 
L 106.2 228.569386 
L 108.36 231.638676 
L 110.52 235.101263 
L 112.68 238.977842 
L 114.84 243.289385 
L 117 248.056002 
L 119.52 254.215435 
L 122.04 261.037122 
L 124.56 268.523889 
L 127.44 277.862893 
L 130.68 289.24199 
L 135.36 306.677185 
L 139.32 321.193026 
L 141.48 328.420694 
L 143.28 333.779461 
L 144.72 337.49427 
L 146.16 340.598934 
L 147.24 342.476143 
L 148.32 343.932737 
L 149.4 344.94466 
L 150.12 345.363472 
L 150.84 345.573685 
L 151.56 345.573685 
L 152.28 345.363472 
L 153 344.94466 
L 153.72 344.320449 
L 154.8 343.00973 
L 155.88 341.269663 
L 156.96 339.128393 
L 158.4 335.707459 
L 159.84 331.722208 
L 161.64 326.093873 
L 164.16 317.347395 
L 168.48 301.257356 
L 173.16 284.084205 
L 176.4 273.093092 
L 179.28 264.164931 
L 181.8 257.057289 
L 184.32 250.615616 
L 186.84 244.826754 
L 189 240.365669 
L 191.16 236.346418 
L 193.32 232.748165 
L 195.48 229.550024 
L 197.64 226.731928 
L 199.8 224.275213 
L 201.96 222.162973 
L 204.12 220.380275 
L 206.28 218.914275 
L 208.44 217.75427 
L 210.24 217.015117 
L 212.04 216.478687 
L 213.84 216.142211 
L 215.64 216.003948 
L 217.44 216.063183 
L 219.24 216.320222 
L 221.04 216.776397 
L 222.84 217.434062 
L 224.64 218.296608 
L 226.44 219.368458 
L 228.6 220.938728 
L 230.76 222.829742 
L 232.92 225.055047 
L 235.08 227.630251 
L 237.24 230.572877 
L 239.4 233.902105 
L 241.56 237.63835 
L 243.72 241.8026 
L 245.88 246.415407 
L 248.04 251.495419 
L 250.56 258.031793 
L 253.08 265.234597 
L 255.6 273.093092 
L 258.48 282.818548 
L 262.08 295.86571 
L 269.64 323.680658 
L 271.8 330.648917 
L 273.6 335.707459 
L 275.04 339.128393 
L 276.48 341.895771 
L 277.56 343.49556 
L 278.64 344.657969 
L 279.36 345.179977 
L 280.08 345.494792 
L 280.8 345.599964 
L 281.52 345.494792 
L 282.24 345.179977 
L 282.96 344.657969 
L 284.04 343.49556 
L 285.12 341.895771 
L 286.2 339.884764 
L 287.64 336.619244 
L 289.08 332.766233 
L 290.88 327.268842 
L 293.04 319.924957 
L 296.28 308.029638 
L 302.76 284.084205 
L 306 273.093092 
L 308.88 264.164931 
L 311.4 257.057289 
L 313.92 250.615616 
L 316.44 244.826754 
L 318.6 240.365669 
L 320.76 236.346418 
L 322.92 232.748165 
L 325.08 229.550024 
L 327.24 226.731928 
L 329.4 224.275213 
L 331.56 222.162973 
L 333.72 220.380275 
L 335.88 218.914275 
L 338.04 217.75427 
L 339.84 217.015117 
L 341.64 216.478687 
L 343.44 216.142211 
L 345.24 216.003948 
L 345.24 216.003948 
" clip-path="url(#p29acf319d4)" style="fill: none; stroke-dasharray: 7.4,3.2; stroke-dashoffset: 0; stroke: #dd8452; stroke-width: 2"/>
   </g>
   <g id="line2d_35">
    <defs>
     <path id="mdeeec91541" d="M 0 4 
C 1.060812 4 2.078319 3.578535 2.828427 2.828427 
C 3.578535 2.078319 4 1.060812 4 0 
C 4 -1.060812 3.578535 -2.078319 2.828427 -2.828427 
C 2.078319 -3.578535 1.060812 -4 0 -4 
C -1.060812 -4 -2.078319 -3.578535 -2.828427 -2.828427 
C -3.578535 -2.078319 -4 -1.060812 -4 0 
C -4 1.060812 -3.578535 2.078319 -2.828427 2.828427 
C -2.078319 3.578535 -1.060812 4 0 4 
z
" style="stroke: #ccb974"/>
    </defs>
    <g clip-path="url(#p29acf319d4)">
     <use xlink:href="#mdeeec91541" x="86.4" y="215.94816" style="fill: #ccb974; stroke: #ccb974"/>
     <use xlink:href="#mdeeec91541" x="97.2" y="223.30944" style="fill: #ccb974; stroke: #ccb974"/>
     <use xlink:href="#mdeeec91541" x="108" y="239.48352" style="fill: #ccb974; stroke: #ccb974"/>
     <use xlink:href="#mdeeec91541" x="118.8" y="270.58752" style="fill: #ccb974; stroke: #ccb974"/>
     <use xlink:href="#mdeeec91541" x="129.6" y="314.34048" style="fill: #ccb974; stroke: #ccb974"/>
     <use xlink:href="#mdeeec91541" x="140.4" y="329.21856" style="fill: #ccb974; stroke: #ccb974"/>
     <use xlink:href="#mdeeec91541" x="151.2" y="324.0864" style="fill: #ccb974; stroke: #ccb974"/>
     <use xlink:href="#mdeeec91541" x="162" y="300.4992" style="fill: #ccb974; stroke: #ccb974"/>
     <use xlink:href="#mdeeec91541" x="172.8" y="271.00224" style="fill: #ccb974; stroke: #ccb974"/>
     <use xlink:href="#mdeeec91541" x="183.6" y="243.42336" style="fill: #ccb974; stroke: #ccb974"/>
     <use xlink:href="#mdeeec91541" x="194.4" y="227.45664" style="fill: #ccb974; stroke: #ccb974"/>
     <use xlink:href="#mdeeec91541" x="205.2" y="217.86624" style="fill: #ccb974; stroke: #ccb974"/>
     <use xlink:href="#mdeeec91541" x="216" y="215.94816" style="fill: #ccb974; stroke: #ccb974"/>
     <use xlink:href="#mdeeec91541" x="226.8" y="223.30944" style="fill: #ccb974; stroke: #ccb974"/>
     <use xlink:href="#mdeeec91541" x="237.6" y="239.48352" style="fill: #ccb974; stroke: #ccb974"/>
     <use xlink:href="#mdeeec91541" x="248.4" y="270.58752" style="fill: #ccb974; stroke: #ccb974"/>
     <use xlink:href="#mdeeec91541" x="259.2" y="314.34048" style="fill: #ccb974; stroke: #ccb974"/>
     <use xlink:href="#mdeeec91541" x="270" y="329.21856" style="fill: #ccb974; stroke: #ccb974"/>
     <use xlink:href="#mdeeec91541" x="280.8" y="324.0864" style="fill: #ccb974; stroke: #ccb974"/>
     <use xlink:href="#mdeeec91541" x="291.6" y="300.4992" style="fill: #ccb974; stroke: #ccb974"/>
     <use xlink:href="#mdeeec91541" x="302.4" y="271.00224" style="fill: #ccb974; stroke: #ccb974"/>
     <use xlink:href="#mdeeec91541" x="313.2" y="243.42336" style="fill: #ccb974; stroke: #ccb974"/>
     <use xlink:href="#mdeeec91541" x="324" y="227.45664" style="fill: #ccb974; stroke: #ccb974"/>
     <use xlink:href="#mdeeec91541" x="334.8" y="217.86624" style="fill: #ccb974; stroke: #ccb974"/>
    </g>
   </g>
   <g id="patch_3">
    <path d="M 86.4 345.6 
L 86.4 86.4 
" style="fill: none; stroke: #262626; stroke-width: 1.25; stroke-linejoin: miter; stroke-linecap: square"/>
   </g>
   <g id="patch_4">
    <path d="M 86.4 345.6 
L 345.6 345.6 
" style="fill: none; stroke: #262626; stroke-width: 1.25; stroke-linejoin: miter; stroke-linecap: square"/>
   </g>
   <g id="legend_1">
    <g id="patch_5">
     <path d="M 119.020937 157.010312 
L 335.8 157.010312 
Q 338.6 157.010312 338.6 154.210312 
L 338.6 96.2 
Q 338.6 93.4 335.8 93.4 
L 119.020937 93.4 
Q 116.220937 93.4 116.220937 96.2 
L 116.220937 154.210312 
Q 116.220937 157.010312 119.020937 157.010312 
z
" style="fill: #ffffff; opacity: 0.8; stroke: #cccccc; stroke-linejoin: miter"/>
    </g>
    <g id="line2d_36">
     <path d="M 121.820937 104.120937 
L 135.820937 104.120937 
L 149.820937 104.120937 
" style="fill: none; stroke: #4c72b0; stroke-width: 2; stroke-linecap: round"/>
    </g>
    <g id="text_19">
     <text style="fill: #262626; font: 14px 'Arial', 'DejaVu Sans', 'Liberation Sans', 'Bitstream Vera Sans', sans-serif; text-anchor: start" x="161.020938" y="109.020937" transform="rotate(-0 161.020938 109.020937)">Case outbreak risk</text>
    </g>
    <g id="line2d_37">
     <path d="M 121.820937 123.924375 
L 135.820937 123.924375 
L 149.820937 123.924375 
" style="fill: none; stroke-dasharray: 7.4,3.2; stroke-dashoffset: 0; stroke: #dd8452; stroke-width: 2"/>
    </g>
    <g id="text_20">
     <text style="fill: #262626; font: 14px 'Arial', 'DejaVu Sans', 'Liberation Sans', 'Bitstream Vera Sans', sans-serif; text-anchor: start" x="161.020938" y="128.824375" transform="rotate(-0 161.020938 128.824375)">Instantaneous outbreak risk</text>
    </g>
    <g id="line2d_38">
     <g>
      <use xlink:href="#mdeeec91541" x="135.820937" y="143.727812" style="fill: #ccb974; stroke: #ccb974"/>
     </g>
    </g>
    <g id="text_21">
     <text style="fill: #262626; font: 14px 'Arial', 'DejaVu Sans', 'Liberation Sans', 'Bitstream Vera Sans', sans-serif; text-anchor: start" x="161.020938" y="148.627812" transform="rotate(-0 161.020938 148.627812)">Simulated outbreak risk</text>
    </g>
   </g>
  </g>
 </g>
 <defs>
  <clipPath id="p29acf319d4">
   <rect x="86.4" y="86.4" width="259.2" height="259.2"/>
  </clipPath>
 </defs>
</svg>
