<?xml version="1.0" encoding="utf-8" standalone="no"?>
<!DOCTYPE svg PUBLIC "-//W3C//DTD SVG 1.1//EN"
  "http://www.w3.org/Graphics/SVG/1.1/DTD/svg11.dtd">
<svg xmlns:xlink="http://www.w3.org/1999/xlink" width="432pt" height="432pt" viewBox="0 0 432 432" xmlns="http://www.w3.org/2000/svg" version="1.1">
 <metadata>
  <rdf:RDF xmlns:dc="http://purl.org/dc/elements/1.1/" xmlns:cc="http://creativecommons.org/ns#" xmlns:rdf="http://www.w3.org/1999/02/22-rdf-syntax-ns#">
   <cc:Work>
    <dc:type rdf:resource="http://purl.org/dc/dcmitype/StillImage"/>
    <dc:date>2024-09-24T13:52:51.090688</dc:date>
    <dc:format>image/svg+xml</dc:format>
    <dc:creator>
     <cc:Agent>
      <dc:title>Matplotlib v3.8.4, https://matplotlib.org/</dc:title>
     </cc:Agent>
    </dc:creator>
   </cc:Work>
  </rdf:RDF>
 </metadata>
 <defs>
  <style type="text/css">*{stroke-linejoin: round; stroke-linecap: butt}</style>
 </defs>
 <g id="figure_1">
  <g id="patch_1">
   <path d="M 0 432 
L 432 432 
L 432 0 
L 0 0 
L 0 432 
z
" style="fill: none"/>
  </g>
  <g id="axes_1">
   <g id="patch_2">
    <path d="M 86.4 345.6 
L 345.6 345.6 
L 345.6 86.4 
L 86.4 86.4 
L 86.4 345.6 
z
" style="fill: none"/>
   </g>
   <g id="matplotlib.axis_1">
    <g id="xtick_1">
     <g id="line2d_1">
      <defs>
       <path id="m06356385e4" d="M 0 0 
L 0 6 
" style="stroke: #262626; stroke-width: 1.25"/>
      </defs>
      <g>
       <use xlink:href="#m06356385e4" x="86.4" y="345.6" style="fill: #262626; stroke: #262626; stroke-width: 1.25"/>
      </g>
     </g>
     <g id="text_1">
      <text style="fill: #262626; font: 16px 'Arial', 'DejaVu Sans', 'Liberation Sans', 'Bitstream Vera Sans', sans-serif; text-anchor: middle" x="86.4" y="366.5525" transform="rotate(-0 86.4 366.5525)">Jan</text>
     </g>
    </g>
    <g id="xtick_2">
     <g id="line2d_2">
      <g>
       <use xlink:href="#m06356385e4" x="97.407123" y="345.6" style="fill: #262626; stroke: #262626; stroke-width: 1.25"/>
      </g>
     </g>
    </g>
    <g id="xtick_3">
     <g id="line2d_3">
      <g>
       <use xlink:href="#m06356385e4" x="107.349041" y="345.6" style="fill: #262626; stroke: #262626; stroke-width: 1.25"/>
      </g>
     </g>
    </g>
    <g id="xtick_4">
     <g id="line2d_4">
      <g>
       <use xlink:href="#m06356385e4" x="118.356164" y="345.6" style="fill: #262626; stroke: #262626; stroke-width: 1.25"/>
      </g>
     </g>
     <g id="text_2">
      <text style="fill: #262626; font: 16px 'Arial', 'DejaVu Sans', 'Liberation Sans', 'Bitstream Vera Sans', sans-serif; text-anchor: middle" x="118.356164" y="366.5525" transform="rotate(-0 118.356164 366.5525)">Apr</text>
     </g>
    </g>
    <g id="xtick_5">
     <g id="line2d_5">
      <g>
       <use xlink:href="#m06356385e4" x="129.008219" y="345.6" style="fill: #262626; stroke: #262626; stroke-width: 1.25"/>
      </g>
     </g>
    </g>
    <g id="xtick_6">
     <g id="line2d_6">
      <g>
       <use xlink:href="#m06356385e4" x="140.015342" y="345.6" style="fill: #262626; stroke: #262626; stroke-width: 1.25"/>
      </g>
     </g>
    </g>
    <g id="xtick_7">
     <g id="line2d_7">
      <g>
       <use xlink:href="#m06356385e4" x="150.667397" y="345.6" style="fill: #262626; stroke: #262626; stroke-width: 1.25"/>
      </g>
     </g>
     <g id="text_3">
      <text style="fill: #262626; font: 16px 'Arial', 'DejaVu Sans', 'Liberation Sans', 'Bitstream Vera Sans', sans-serif; text-anchor: middle" x="150.667397" y="366.5525" transform="rotate(-0 150.667397 366.5525)">Jul</text>
     </g>
    </g>
    <g id="xtick_8">
     <g id="line2d_8">
      <g>
       <use xlink:href="#m06356385e4" x="161.674521" y="345.6" style="fill: #262626; stroke: #262626; stroke-width: 1.25"/>
      </g>
     </g>
    </g>
    <g id="xtick_9">
     <g id="line2d_9">
      <g>
       <use xlink:href="#m06356385e4" x="172.681644" y="345.6" style="fill: #262626; stroke: #262626; stroke-width: 1.25"/>
      </g>
     </g>
    </g>
    <g id="xtick_10">
     <g id="line2d_10">
      <g>
       <use xlink:href="#m06356385e4" x="183.333699" y="345.6" style="fill: #262626; stroke: #262626; stroke-width: 1.25"/>
      </g>
     </g>
     <g id="text_4">
      <text style="fill: #262626; font: 16px 'Arial', 'DejaVu Sans', 'Liberation Sans', 'Bitstream Vera Sans', sans-serif; text-anchor: middle" x="183.333699" y="366.5525" transform="rotate(-0 183.333699 366.5525)">Oct</text>
     </g>
    </g>
    <g id="xtick_11">
     <g id="line2d_11">
      <g>
       <use xlink:href="#m06356385e4" x="194.340822" y="345.6" style="fill: #262626; stroke: #262626; stroke-width: 1.25"/>
      </g>
     </g>
    </g>
    <g id="xtick_12">
     <g id="line2d_12">
      <g>
       <use xlink:href="#m06356385e4" x="204.992877" y="345.6" style="fill: #262626; stroke: #262626; stroke-width: 1.25"/>
      </g>
     </g>
    </g>
    <g id="xtick_13">
     <g id="line2d_13">
      <g>
       <use xlink:href="#m06356385e4" x="216" y="345.6" style="fill: #262626; stroke: #262626; stroke-width: 1.25"/>
      </g>
     </g>
     <g id="text_5">
      <text style="fill: #262626; font: 16px 'Arial', 'DejaVu Sans', 'Liberation Sans', 'Bitstream Vera Sans', sans-serif; text-anchor: middle" x="216" y="366.5525" transform="rotate(-0 216 366.5525)">Jan</text>
     </g>
    </g>
    <g id="xtick_14">
     <g id="line2d_14">
      <g>
       <use xlink:href="#m06356385e4" x="227.007123" y="345.6" style="fill: #262626; stroke: #262626; stroke-width: 1.25"/>
      </g>
     </g>
    </g>
    <g id="xtick_15">
     <g id="line2d_15">
      <g>
       <use xlink:href="#m06356385e4" x="236.949041" y="345.6" style="fill: #262626; stroke: #262626; stroke-width: 1.25"/>
      </g>
     </g>
    </g>
    <g id="xtick_16">
     <g id="line2d_16">
      <g>
       <use xlink:href="#m06356385e4" x="247.956164" y="345.6" style="fill: #262626; stroke: #262626; stroke-width: 1.25"/>
      </g>
     </g>
     <g id="text_6">
      <text style="fill: #262626; font: 16px 'Arial', 'DejaVu Sans', 'Liberation Sans', 'Bitstream Vera Sans', sans-serif; text-anchor: middle" x="247.956164" y="366.5525" transform="rotate(-0 247.956164 366.5525)">Apr</text>
     </g>
    </g>
    <g id="xtick_17">
     <g id="line2d_17">
      <g>
       <use xlink:href="#m06356385e4" x="258.608219" y="345.6" style="fill: #262626; stroke: #262626; stroke-width: 1.25"/>
      </g>
     </g>
    </g>
    <g id="xtick_18">
     <g id="line2d_18">
      <g>
       <use xlink:href="#m06356385e4" x="269.615342" y="345.6" style="fill: #262626; stroke: #262626; stroke-width: 1.25"/>
      </g>
     </g>
    </g>
    <g id="xtick_19">
     <g id="line2d_19">
      <g>
       <use xlink:href="#m06356385e4" x="280.267397" y="345.6" style="fill: #262626; stroke: #262626; stroke-width: 1.25"/>
      </g>
     </g>
     <g id="text_7">
      <text style="fill: #262626; font: 16px 'Arial', 'DejaVu Sans', 'Liberation Sans', 'Bitstream Vera Sans', sans-serif; text-anchor: middle" x="280.267397" y="366.5525" transform="rotate(-0 280.267397 366.5525)">Jul</text>
     </g>
    </g>
    <g id="xtick_20">
     <g id="line2d_20">
      <g>
       <use xlink:href="#m06356385e4" x="291.274521" y="345.6" style="fill: #262626; stroke: #262626; stroke-width: 1.25"/>
      </g>
     </g>
    </g>
    <g id="xtick_21">
     <g id="line2d_21">
      <g>
       <use xlink:href="#m06356385e4" x="302.281644" y="345.6" style="fill: #262626; stroke: #262626; stroke-width: 1.25"/>
      </g>
     </g>
    </g>
    <g id="xtick_22">
     <g id="line2d_22">
      <g>
       <use xlink:href="#m06356385e4" x="312.933699" y="345.6" style="fill: #262626; stroke: #262626; stroke-width: 1.25"/>
      </g>
     </g>
     <g id="text_8">
      <text style="fill: #262626; font: 16px 'Arial', 'DejaVu Sans', 'Liberation Sans', 'Bitstream Vera Sans', sans-serif; text-anchor: middle" x="312.933699" y="366.5525" transform="rotate(-0 312.933699 366.5525)">Oct</text>
     </g>
    </g>
    <g id="xtick_23">
     <g id="line2d_23">
      <g>
       <use xlink:href="#m06356385e4" x="323.940822" y="345.6" style="fill: #262626; stroke: #262626; stroke-width: 1.25"/>
      </g>
     </g>
    </g>
    <g id="xtick_24">
     <g id="line2d_24">
      <g>
       <use xlink:href="#m06356385e4" x="334.592877" y="345.6" style="fill: #262626; stroke: #262626; stroke-width: 1.25"/>
      </g>
     </g>
    </g>
    <g id="xtick_25">
     <g id="line2d_25">
      <g>
       <use xlink:href="#m06356385e4" x="345.6" y="345.6" style="fill: #262626; stroke: #262626; stroke-width: 1.25"/>
      </g>
     </g>
     <g id="text_9">
      <text style="fill: #262626; font: 16px 'Arial', 'DejaVu Sans', 'Liberation Sans', 'Bitstream Vera Sans', sans-serif; text-anchor: middle" x="345.6" y="366.5525" transform="rotate(-0 345.6 366.5525)">Jan</text>
     </g>
    </g>
    <g id="text_10">
     <text style="fill: #262626; font: 16px 'Arial', 'DejaVu Sans', 'Liberation Sans', 'Bitstream Vera Sans', sans-serif; text-anchor: middle" x="216" y="385.185" transform="rotate(-0 216 385.185)"> </text>
    </g>
   </g>
   <g id="matplotlib.axis_2">
    <g id="ytick_1">
     <g id="line2d_26">
      <defs>
       <path id="m8c07e44e4c" d="M 0 0 
L -6 0 
" style="stroke: #262626; stroke-width: 1.25"/>
      </defs>
      <g>
       <use xlink:href="#m8c07e44e4c" x="86.4" y="345.6" style="fill: #262626; stroke: #262626; stroke-width: 1.25"/>
      </g>
     </g>
     <g id="text_11">
      <text style="fill: #262626; font: 16px 'Arial', 'DejaVu Sans', 'Liberation Sans', 'Bitstream Vera Sans', sans-serif; text-anchor: end" x="76.9" y="351.32625" transform="rotate(-0 76.9 351.32625)">0.0</text>
     </g>
    </g>
    <g id="ytick_2">
     <g id="line2d_27">
      <g>
       <use xlink:href="#m8c07e44e4c" x="86.4" y="293.76" style="fill: #262626; stroke: #262626; stroke-width: 1.25"/>
      </g>
     </g>
     <g id="text_12">
      <text style="fill: #262626; font: 16px 'Arial', 'DejaVu Sans', 'Liberation Sans', 'Bitstream Vera Sans', sans-serif; text-anchor: end" x="76.9" y="299.48625" transform="rotate(-0 76.9 299.48625)">0.1</text>
     </g>
    </g>
    <g id="ytick_3">
     <g id="line2d_28">
      <g>
       <use xlink:href="#m8c07e44e4c" x="86.4" y="241.92" style="fill: #262626; stroke: #262626; stroke-width: 1.25"/>
      </g>
     </g>
     <g id="text_13">
      <text style="fill: #262626; font: 16px 'Arial', 'DejaVu Sans', 'Liberation Sans', 'Bitstream Vera Sans', sans-serif; text-anchor: end" x="76.9" y="247.64625" transform="rotate(-0 76.9 247.64625)">0.2</text>
     </g>
    </g>
    <g id="ytick_4">
     <g id="line2d_29">
      <g>
       <use xlink:href="#m8c07e44e4c" x="86.4" y="190.08" style="fill: #262626; stroke: #262626; stroke-width: 1.25"/>
      </g>
     </g>
     <g id="text_14">
      <text style="fill: #262626; font: 16px 'Arial', 'DejaVu Sans', 'Liberation Sans', 'Bitstream Vera Sans', sans-serif; text-anchor: end" x="76.9" y="195.80625" transform="rotate(-0 76.9 195.80625)">0.3</text>
     </g>
    </g>
    <g id="ytick_5">
     <g id="line2d_30">
      <g>
       <use xlink:href="#m8c07e44e4c" x="86.4" y="138.24" style="fill: #262626; stroke: #262626; stroke-width: 1.25"/>
      </g>
     </g>
     <g id="text_15">
      <text style="fill: #262626; font: 16px 'Arial', 'DejaVu Sans', 'Liberation Sans', 'Bitstream Vera Sans', sans-serif; text-anchor: end" x="76.9" y="143.96625" transform="rotate(-0 76.9 143.96625)">0.4</text>
     </g>
    </g>
    <g id="ytick_6">
     <g id="line2d_31">
      <g>
       <use xlink:href="#m8c07e44e4c" x="86.4" y="86.4" style="fill: #262626; stroke: #262626; stroke-width: 1.25"/>
      </g>
     </g>
     <g id="text_16">
      <text style="fill: #262626; font: 16px 'Arial', 'DejaVu Sans', 'Liberation Sans', 'Bitstream Vera Sans', sans-serif; text-anchor: end" x="76.9" y="92.12625" transform="rotate(-0 76.9 92.12625)">0.5</text>
     </g>
    </g>
    <g id="text_17">
     <text style="fill: #262626; font: 16px 'Arial', 'DejaVu Sans', 'Liberation Sans', 'Bitstream Vera Sans', sans-serif; text-anchor: middle" x="47.48" y="216" transform="rotate(-90 47.48 216)">Outbreak risk</text>
    </g>
   </g>
   <g id="PolyCollection_1">
    <defs>
     <path id="mb7772cc944" d="M 213.514521 -86.4 
L 170.551233 -86.4 
L 170.551233 -345.6 
L 213.514521 -345.6 
L 213.514521 -345.6 
L 213.514521 -86.4 
z
"/>
    </defs>
    <g clip-path="url(#p4369711839)">
     <use xlink:href="#mb7772cc944" x="0" y="432" style="fill: #808080; fill-opacity: 0.5"/>
    </g>
   </g>
   <g id="PolyCollection_2">
    <defs>
     <path id="mdcac37ead7" d="M 343.114521 -86.4 
L 300.151233 -86.4 
L 300.151233 -345.6 
L 343.114521 -345.6 
L 343.114521 -345.6 
L 343.114521 -86.4 
z
"/>
    </defs>
    <g clip-path="url(#p4369711839)">
     <use xlink:href="#mdcac37ead7" x="0" y="432" style="fill: #808080; fill-opacity: 0.5"/>
    </g>
   </g>
   <g id="line2d_32">
    <path d="M 86.4 112.683727 
L 88.530411 113.022938 
L 90.660822 113.621576 
L 92.791233 114.478824 
L 94.921644 115.593162 
L 97.052055 116.962244 
L 99.182466 118.582724 
L 101.667945 120.784854 
L 104.153425 123.313058 
L 106.638904 126.154079 
L 109.479452 129.761358 
L 112.32 133.719846 
L 115.515616 138.536436 
L 119.42137 144.825917 
L 131.848767 165.21522 
L 134.689315 169.252375 
L 137.174795 172.369931 
L 139.305205 174.666584 
L 141.080548 176.279266 
L 142.85589 177.593063 
L 144.631233 178.589043 
L 146.051507 179.147422 
L 147.471781 179.488628 
L 148.892055 179.610195 
L 150.312329 179.511924 
L 151.732603 179.195848 
L 153.152877 178.666147 
L 154.573151 177.929026 
L 156.348493 176.728396 
L 158.123836 175.235798 
L 159.899178 173.474081 
L 162.029589 171.041012 
L 164.515068 167.823699 
L 167.355616 163.746232 
L 170.906301 158.227275 
L 178.36274 146.058046 
L 182.97863 138.754674 
L 186.529315 133.512906 
L 189.724932 129.177686 
L 192.565479 125.681002 
L 195.406027 122.555662 
L 197.891507 120.146362 
L 200.376986 118.055097 
L 202.507397 116.523788 
L 204.637808 115.239119 
L 206.768219 114.205164 
L 208.89863 113.42507 
L 211.029041 112.901206 
L 213.159452 112.635268 
L 215.289863 112.628359 
L 217.420274 112.881021 
L 219.550685 113.393242 
L 221.681096 114.164418 
L 223.811507 115.193276 
L 225.941918 116.477763 
L 228.072329 118.014885 
L 230.20274 119.800513 
L 232.688219 122.190378 
L 235.173699 124.899209 
L 238.014247 128.365413 
L 240.854795 132.196859 
L 244.050411 136.892574 
L 247.956164 143.076104 
L 253.63726 152.566324 
L 259.318356 161.93216 
L 262.513973 166.780677 
L 264.999452 170.186874 
L 267.129863 172.778331 
L 269.260274 175.01197 
L 271.035616 176.566609 
L 272.810959 177.818206 
L 274.231233 178.589043 
L 275.651507 179.147422 
L 277.071781 179.488628 
L 278.492055 179.610195 
L 279.912329 179.511924 
L 281.332603 179.195848 
L 282.752877 178.666147 
L 284.173151 177.929026 
L 285.948493 176.728396 
L 287.723836 175.235798 
L 289.499178 173.474081 
L 291.629589 171.041012 
L 294.115068 167.823699 
L 296.955616 163.746232 
L 300.506301 158.227275 
L 307.96274 146.058046 
L 312.57863 138.754674 
L 316.129315 133.512906 
L 319.324932 129.177686 
L 322.165479 125.681002 
L 325.006027 122.555662 
L 327.491507 120.146362 
L 329.976986 118.055097 
L 332.107397 116.523788 
L 334.237808 115.239119 
L 336.368219 114.205164 
L 338.49863 113.42507 
L 340.629041 112.901206 
L 342.759452 112.635268 
L 344.889863 112.628359 
L 345.244932 112.652436 
L 345.244932 112.652436 
" clip-path="url(#p4369711839)" style="fill: none; stroke-dasharray: 7.4,3.2; stroke-dashoffset: 0; stroke: #1a1a1a; stroke-opacity: 0.75; stroke-width: 2"/>
   </g>
   <g id="line2d_33">
    <path d="M 86.4 165.944989 
L 88.530411 164.197654 
L 90.305753 162.997905 
L 92.081096 162.0316 
L 93.856438 161.29747 
L 95.631781 160.793685 
L 97.407123 160.517782 
L 99.182466 160.466591 
L 100.957808 160.636133 
L 102.733151 161.021573 
L 104.508493 161.617079 
L 106.638904 162.598903 
L 108.769315 163.85836 
L 110.899726 165.377834 
L 113.385205 167.450706 
L 115.870685 169.808097 
L 119.066301 173.178105 
L 123.327123 178.058348 
L 130.073425 185.831429 
L 132.913973 188.764852 
L 135.399452 191.006439 
L 137.529863 192.61538 
L 139.305205 193.696632 
L 141.080548 194.514057 
L 142.85589 195.04566 
L 144.276164 195.253302 
L 145.696438 195.260225 
L 147.116712 195.061963 
L 148.536986 194.656313 
L 149.95726 194.04328 
L 151.377534 193.225051 
L 153.152877 191.920342 
L 154.928219 190.314399 
L 156.703562 188.424264 
L 158.833973 185.810702 
L 161.319452 182.340822 
L 164.16 177.926655 
L 169.841096 168.824934 
L 170.906301 167.619117 
L 171.616438 167.153794 
L 180.493151 163.59768 
L 184.398904 162.168771 
L 187.594521 161.243449 
L 190.435068 160.674796 
L 192.920548 160.411979 
L 195.406027 160.396633 
L 197.536438 160.598192 
L 199.666849 161.011629 
L 201.79726 161.648091 
L 203.927671 162.515939 
L 206.058082 163.616723 
L 208.543562 165.165122 
L 211.739178 167.227579 
L 212.804384 167.666118 
L 213.514521 167.743656 
L 214.224658 167.519025 
L 215.289863 166.59647 
L 217.420274 164.743037 
L 219.550685 163.219152 
L 221.326027 162.206229 
L 223.10137 161.425796 
L 224.876712 160.876133 
L 226.652055 160.554872 
L 228.427397 160.459027 
L 230.20274 160.584793 
L 231.978082 160.927478 
L 233.753425 161.481486 
L 235.528767 162.240007 
L 237.659178 163.408698 
L 239.789589 164.843684 
L 242.275068 166.82753 
L 244.760548 169.108192 
L 247.601096 172.018696 
L 251.151781 175.98959 
L 261.093699 187.339811 
L 263.579178 189.768545 
L 265.709589 191.577764 
L 267.84 193.077956 
L 269.615342 194.056596 
L 271.390685 194.762078 
L 272.810959 195.116063 
L 274.231233 195.274061 
L 275.651507 195.230017 
L 277.071781 194.98003 
L 278.492055 194.522449 
L 279.912329 193.857832 
L 281.687671 192.740227 
L 283.463014 191.313252 
L 285.238356 189.591356 
L 287.368767 187.162321 
L 289.499178 184.375042 
L 291.984658 180.734145 
L 295.180274 175.593986 
L 299.086027 169.311581 
L 300.151233 167.968009 
L 300.86137 167.345043 
L 301.926575 166.870969 
L 307.252603 164.750394 
L 312.57863 162.657816 
L 315.774247 161.621414 
L 318.614795 160.925885 
L 321.100274 160.533484 
L 323.585753 160.37367 
L 325.716164 160.441052 
L 327.846575 160.711865 
L 329.976986 161.198517 
L 332.107397 161.911381 
L 334.237808 162.857274 
L 336.368219 164.033175 
L 339.208767 165.883561 
L 341.339178 167.227579 
L 342.404384 167.666118 
L 343.114521 167.743656 
L 343.824658 167.519025 
L 344.889863 166.59647 
L 345.244932 166.267363 
L 345.244932 166.267363 
" clip-path="url(#p4369711839)" style="fill: none; stroke: #029e73; stroke-width: 2; stroke-linecap: round"/>
   </g>
   <g id="patch_3">
    <path d="M 86.4 345.6 
L 86.4 86.4 
" style="fill: none; stroke: #262626; stroke-width: 1.25; stroke-linejoin: miter; stroke-linecap: square"/>
   </g>
   <g id="patch_4">
    <path d="M 86.4 345.6 
L 345.6 345.6 
" style="fill: none; stroke: #262626; stroke-width: 1.25; stroke-linejoin: miter; stroke-linecap: square"/>
   </g>
   <g id="legend_1">
    <g id="patch_5">
     <path d="M 154.055938 338.6 
L 335.8 338.6 
Q 338.6 338.6 338.6 335.8 
L 338.6 297.41375 
Q 338.6 294.61375 335.8 294.61375 
L 154.055938 294.61375 
Q 151.255938 294.61375 151.255938 297.41375 
L 151.255938 335.8 
Q 151.255938 338.6 154.055938 338.6 
z
" style="fill: #ffffff; opacity: 0.8; stroke: #cccccc; stroke-linejoin: miter"/>
    </g>
    <g id="line2d_34">
     <path d="M 156.855938 305.334688 
L 170.855938 305.334688 
L 184.855938 305.334688 
" style="fill: none; stroke-dasharray: 7.4,3.2; stroke-dashoffset: 0; stroke: #1a1a1a; stroke-opacity: 0.75; stroke-width: 2"/>
    </g>
    <g id="text_18">
     <text style="fill: #262626; font: 14px 'Arial', 'DejaVu Sans', 'Liberation Sans', 'Bitstream Vera Sans', sans-serif; text-anchor: start" x="196.055938" y="310.234688" transform="rotate(-0 196.055938 310.234688)">Without vaccination</text>
    </g>
    <g id="line2d_35">
     <path d="M 156.855938 325.3175 
L 170.855938 325.3175 
L 184.855938 325.3175 
" style="fill: none; stroke: #029e73; stroke-width: 2; stroke-linecap: round"/>
    </g>
    <g id="text_19">
     <text style="fill: #262626; font: 14px 'Arial', 'DejaVu Sans', 'Liberation Sans', 'Bitstream Vera Sans', sans-serif; text-anchor: start" x="196.055938" y="330.2175" transform="rotate(-0 196.055938 330.2175)">Optimised vaccination</text>
    </g>
   </g>
  </g>
 </g>
 <defs>
  <clipPath id="p4369711839">
   <rect x="86.4" y="86.4" width="259.2" height="259.2"/>
  </clipPath>
 </defs>
</svg>
