<?xml version="1.0" encoding="utf-8" standalone="no"?>
<!DOCTYPE svg PUBLIC "-//W3C//DTD SVG 1.1//EN"
  "http://www.w3.org/Graphics/SVG/1.1/DTD/svg11.dtd">
<svg xmlns:xlink="http://www.w3.org/1999/xlink" width="432pt" height="432pt" viewBox="0 0 432 432" xmlns="http://www.w3.org/2000/svg" version="1.1">
 <metadata>
  <rdf:RDF xmlns:dc="http://purl.org/dc/elements/1.1/" xmlns:cc="http://creativecommons.org/ns#" xmlns:rdf="http://www.w3.org/1999/02/22-rdf-syntax-ns#">
   <cc:Work>
    <dc:type rdf:resource="http://purl.org/dc/dcmitype/StillImage"/>
    <dc:date>2024-07-23T17:13:20.930110</dc:date>
    <dc:format>image/svg+xml</dc:format>
    <dc:creator>
     <cc:Agent>
      <dc:title>Matplotlib v3.8.4, https://matplotlib.org/</dc:title>
     </cc:Agent>
    </dc:creator>
   </cc:Work>
  </rdf:RDF>
 </metadata>
 <defs>
  <style type="text/css">*{stroke-linejoin: round; stroke-linecap: butt}</style>
 </defs>
 <g id="figure_1">
  <g id="patch_1">
   <path d="M 0 432 
L 432 432 
L 432 0 
L 0 0 
L 0 432 
z
" style="fill: none"/>
  </g>
  <g id="axes_1">
   <g id="patch_2">
    <path d="M 86.4 345.6 
L 345.6 345.6 
L 345.6 86.4 
L 86.4 86.4 
L 86.4 345.6 
z
" style="fill: none"/>
   </g>
   <g id="matplotlib.axis_1">
    <g id="xtick_1">
     <g id="line2d_1">
      <defs>
       <path id="mb199886b47" d="M 0 0 
L 0 6 
" style="stroke: #262626; stroke-width: 1.25"/>
      </defs>
      <g>
       <use xlink:href="#mb199886b47" x="86.4" y="345.6" style="fill: #262626; stroke: #262626; stroke-width: 1.25"/>
      </g>
     </g>
     <g id="text_1">
      <text style="fill: #262626; font: 16px 'Arial', 'DejaVu Sans', 'Liberation Sans', 'Bitstream Vera Sans', sans-serif; text-anchor: middle" x="86.4" y="366.5525" transform="rotate(-0 86.4 366.5525)">Jan</text>
     </g>
    </g>
    <g id="xtick_2">
     <g id="line2d_2">
      <g>
       <use xlink:href="#mb199886b47" x="97.2" y="345.6" style="fill: #262626; stroke: #262626; stroke-width: 1.25"/>
      </g>
     </g>
    </g>
    <g id="xtick_3">
     <g id="line2d_3">
      <g>
       <use xlink:href="#mb199886b47" x="108" y="345.6" style="fill: #262626; stroke: #262626; stroke-width: 1.25"/>
      </g>
     </g>
    </g>
    <g id="xtick_4">
     <g id="line2d_4">
      <g>
       <use xlink:href="#mb199886b47" x="118.8" y="345.6" style="fill: #262626; stroke: #262626; stroke-width: 1.25"/>
      </g>
     </g>
     <g id="text_2">
      <text style="fill: #262626; font: 16px 'Arial', 'DejaVu Sans', 'Liberation Sans', 'Bitstream Vera Sans', sans-serif; text-anchor: middle" x="118.8" y="366.5525" transform="rotate(-0 118.8 366.5525)">Apr</text>
     </g>
    </g>
    <g id="xtick_5">
     <g id="line2d_5">
      <g>
       <use xlink:href="#mb199886b47" x="129.6" y="345.6" style="fill: #262626; stroke: #262626; stroke-width: 1.25"/>
      </g>
     </g>
    </g>
    <g id="xtick_6">
     <g id="line2d_6">
      <g>
       <use xlink:href="#mb199886b47" x="140.4" y="345.6" style="fill: #262626; stroke: #262626; stroke-width: 1.25"/>
      </g>
     </g>
    </g>
    <g id="xtick_7">
     <g id="line2d_7">
      <g>
       <use xlink:href="#mb199886b47" x="151.2" y="345.6" style="fill: #262626; stroke: #262626; stroke-width: 1.25"/>
      </g>
     </g>
     <g id="text_3">
      <text style="fill: #262626; font: 16px 'Arial', 'DejaVu Sans', 'Liberation Sans', 'Bitstream Vera Sans', sans-serif; text-anchor: middle" x="151.2" y="366.5525" transform="rotate(-0 151.2 366.5525)">Jul</text>
     </g>
    </g>
    <g id="xtick_8">
     <g id="line2d_8">
      <g>
       <use xlink:href="#mb199886b47" x="162" y="345.6" style="fill: #262626; stroke: #262626; stroke-width: 1.25"/>
      </g>
     </g>
    </g>
    <g id="xtick_9">
     <g id="line2d_9">
      <g>
       <use xlink:href="#mb199886b47" x="172.8" y="345.6" style="fill: #262626; stroke: #262626; stroke-width: 1.25"/>
      </g>
     </g>
    </g>
    <g id="xtick_10">
     <g id="line2d_10">
      <g>
       <use xlink:href="#mb199886b47" x="183.6" y="345.6" style="fill: #262626; stroke: #262626; stroke-width: 1.25"/>
      </g>
     </g>
     <g id="text_4">
      <text style="fill: #262626; font: 16px 'Arial', 'DejaVu Sans', 'Liberation Sans', 'Bitstream Vera Sans', sans-serif; text-anchor: middle" x="183.6" y="366.5525" transform="rotate(-0 183.6 366.5525)">Oct</text>
     </g>
    </g>
    <g id="xtick_11">
     <g id="line2d_11">
      <g>
       <use xlink:href="#mb199886b47" x="194.4" y="345.6" style="fill: #262626; stroke: #262626; stroke-width: 1.25"/>
      </g>
     </g>
    </g>
    <g id="xtick_12">
     <g id="line2d_12">
      <g>
       <use xlink:href="#mb199886b47" x="205.2" y="345.6" style="fill: #262626; stroke: #262626; stroke-width: 1.25"/>
      </g>
     </g>
    </g>
    <g id="xtick_13">
     <g id="line2d_13">
      <g>
       <use xlink:href="#mb199886b47" x="216" y="345.6" style="fill: #262626; stroke: #262626; stroke-width: 1.25"/>
      </g>
     </g>
     <g id="text_5">
      <text style="fill: #262626; font: 16px 'Arial', 'DejaVu Sans', 'Liberation Sans', 'Bitstream Vera Sans', sans-serif; text-anchor: middle" x="216" y="366.5525" transform="rotate(-0 216 366.5525)">Jan</text>
     </g>
    </g>
    <g id="xtick_14">
     <g id="line2d_14">
      <g>
       <use xlink:href="#mb199886b47" x="226.8" y="345.6" style="fill: #262626; stroke: #262626; stroke-width: 1.25"/>
      </g>
     </g>
    </g>
    <g id="xtick_15">
     <g id="line2d_15">
      <g>
       <use xlink:href="#mb199886b47" x="237.6" y="345.6" style="fill: #262626; stroke: #262626; stroke-width: 1.25"/>
      </g>
     </g>
    </g>
    <g id="xtick_16">
     <g id="line2d_16">
      <g>
       <use xlink:href="#mb199886b47" x="248.4" y="345.6" style="fill: #262626; stroke: #262626; stroke-width: 1.25"/>
      </g>
     </g>
     <g id="text_6">
      <text style="fill: #262626; font: 16px 'Arial', 'DejaVu Sans', 'Liberation Sans', 'Bitstream Vera Sans', sans-serif; text-anchor: middle" x="248.4" y="366.5525" transform="rotate(-0 248.4 366.5525)">Apr</text>
     </g>
    </g>
    <g id="xtick_17">
     <g id="line2d_17">
      <g>
       <use xlink:href="#mb199886b47" x="259.2" y="345.6" style="fill: #262626; stroke: #262626; stroke-width: 1.25"/>
      </g>
     </g>
    </g>
    <g id="xtick_18">
     <g id="line2d_18">
      <g>
       <use xlink:href="#mb199886b47" x="270" y="345.6" style="fill: #262626; stroke: #262626; stroke-width: 1.25"/>
      </g>
     </g>
    </g>
    <g id="xtick_19">
     <g id="line2d_19">
      <g>
       <use xlink:href="#mb199886b47" x="280.8" y="345.6" style="fill: #262626; stroke: #262626; stroke-width: 1.25"/>
      </g>
     </g>
     <g id="text_7">
      <text style="fill: #262626; font: 16px 'Arial', 'DejaVu Sans', 'Liberation Sans', 'Bitstream Vera Sans', sans-serif; text-anchor: middle" x="280.8" y="366.5525" transform="rotate(-0 280.8 366.5525)">Jul</text>
     </g>
    </g>
    <g id="xtick_20">
     <g id="line2d_20">
      <g>
       <use xlink:href="#mb199886b47" x="291.6" y="345.6" style="fill: #262626; stroke: #262626; stroke-width: 1.25"/>
      </g>
     </g>
    </g>
    <g id="xtick_21">
     <g id="line2d_21">
      <g>
       <use xlink:href="#mb199886b47" x="302.4" y="345.6" style="fill: #262626; stroke: #262626; stroke-width: 1.25"/>
      </g>
     </g>
    </g>
    <g id="xtick_22">
     <g id="line2d_22">
      <g>
       <use xlink:href="#mb199886b47" x="313.2" y="345.6" style="fill: #262626; stroke: #262626; stroke-width: 1.25"/>
      </g>
     </g>
     <g id="text_8">
      <text style="fill: #262626; font: 16px 'Arial', 'DejaVu Sans', 'Liberation Sans', 'Bitstream Vera Sans', sans-serif; text-anchor: middle" x="313.2" y="366.5525" transform="rotate(-0 313.2 366.5525)">Oct</text>
     </g>
    </g>
    <g id="xtick_23">
     <g id="line2d_23">
      <g>
       <use xlink:href="#mb199886b47" x="324" y="345.6" style="fill: #262626; stroke: #262626; stroke-width: 1.25"/>
      </g>
     </g>
    </g>
    <g id="xtick_24">
     <g id="line2d_24">
      <g>
       <use xlink:href="#mb199886b47" x="334.8" y="345.6" style="fill: #262626; stroke: #262626; stroke-width: 1.25"/>
      </g>
     </g>
    </g>
    <g id="xtick_25">
     <g id="line2d_25">
      <g>
       <use xlink:href="#mb199886b47" x="345.6" y="345.6" style="fill: #262626; stroke: #262626; stroke-width: 1.25"/>
      </g>
     </g>
     <g id="text_9">
      <text style="fill: #262626; font: 16px 'Arial', 'DejaVu Sans', 'Liberation Sans', 'Bitstream Vera Sans', sans-serif; text-anchor: middle" x="345.6" y="366.5525" transform="rotate(-0 345.6 366.5525)">Jan</text>
     </g>
    </g>
    <g id="text_10">
     <text style="fill: #262626; font: 16px 'Arial', 'DejaVu Sans', 'Liberation Sans', 'Bitstream Vera Sans', sans-serif; text-anchor: middle" x="216" y="385.185" transform="rotate(-0 216 385.185)"> </text>
    </g>
   </g>
   <g id="matplotlib.axis_2">
    <g id="ytick_1">
     <g id="line2d_26">
      <defs>
       <path id="mb779483d2c" d="M 0 0 
L -6 0 
" style="stroke: #262626; stroke-width: 1.25"/>
      </defs>
      <g>
       <use xlink:href="#mb779483d2c" x="86.4" y="345.6" style="fill: #262626; stroke: #262626; stroke-width: 1.25"/>
      </g>
     </g>
     <g id="text_11">
      <text style="fill: #262626; font: 16px 'Arial', 'DejaVu Sans', 'Liberation Sans', 'Bitstream Vera Sans', sans-serif; text-anchor: end" x="76.9" y="351.32625" transform="rotate(-0 76.9 351.32625)">0.0</text>
     </g>
    </g>
    <g id="ytick_2">
     <g id="line2d_27">
      <g>
       <use xlink:href="#mb779483d2c" x="86.4" y="293.76" style="fill: #262626; stroke: #262626; stroke-width: 1.25"/>
      </g>
     </g>
     <g id="text_12">
      <text style="fill: #262626; font: 16px 'Arial', 'DejaVu Sans', 'Liberation Sans', 'Bitstream Vera Sans', sans-serif; text-anchor: end" x="76.9" y="299.48625" transform="rotate(-0 76.9 299.48625)">0.1</text>
     </g>
    </g>
    <g id="ytick_3">
     <g id="line2d_28">
      <g>
       <use xlink:href="#mb779483d2c" x="86.4" y="241.92" style="fill: #262626; stroke: #262626; stroke-width: 1.25"/>
      </g>
     </g>
     <g id="text_13">
      <text style="fill: #262626; font: 16px 'Arial', 'DejaVu Sans', 'Liberation Sans', 'Bitstream Vera Sans', sans-serif; text-anchor: end" x="76.9" y="247.64625" transform="rotate(-0 76.9 247.64625)">0.2</text>
     </g>
    </g>
    <g id="ytick_4">
     <g id="line2d_29">
      <g>
       <use xlink:href="#mb779483d2c" x="86.4" y="190.08" style="fill: #262626; stroke: #262626; stroke-width: 1.25"/>
      </g>
     </g>
     <g id="text_14">
      <text style="fill: #262626; font: 16px 'Arial', 'DejaVu Sans', 'Liberation Sans', 'Bitstream Vera Sans', sans-serif; text-anchor: end" x="76.9" y="195.80625" transform="rotate(-0 76.9 195.80625)">0.3</text>
     </g>
    </g>
    <g id="ytick_5">
     <g id="line2d_30">
      <g>
       <use xlink:href="#mb779483d2c" x="86.4" y="138.24" style="fill: #262626; stroke: #262626; stroke-width: 1.25"/>
      </g>
     </g>
     <g id="text_15">
      <text style="fill: #262626; font: 16px 'Arial', 'DejaVu Sans', 'Liberation Sans', 'Bitstream Vera Sans', sans-serif; text-anchor: end" x="76.9" y="143.96625" transform="rotate(-0 76.9 143.96625)">0.4</text>
     </g>
    </g>
    <g id="ytick_6">
     <g id="line2d_31">
      <g>
       <use xlink:href="#mb779483d2c" x="86.4" y="86.4" style="fill: #262626; stroke: #262626; stroke-width: 1.25"/>
      </g>
     </g>
     <g id="text_16">
      <text style="fill: #262626; font: 16px 'Arial', 'DejaVu Sans', 'Liberation Sans', 'Bitstream Vera Sans', sans-serif; text-anchor: end" x="76.9" y="92.12625" transform="rotate(-0 76.9 92.12625)">0.5</text>
     </g>
    </g>
    <g id="text_17">
     <text style="fill: #262626; font: 16px 'Arial', 'DejaVu Sans', 'Liberation Sans', 'Bitstream Vera Sans', sans-serif; text-anchor: middle" x="47.48" y="216" transform="rotate(-90 47.48 216)">Outbreak risk</text>
    </g>
   </g>
   <g id="PolyCollection_1">
    <defs>
     <path id="m64f5f3c373" d="M 210.6 -86.4 
L 183.6 -86.4 
L 183.6 -345.6 
L 210.6 -345.6 
L 210.6 -345.6 
L 210.6 -86.4 
z
"/>
    </defs>
    <g clip-path="url(#pa3134abebe)">
     <use xlink:href="#m64f5f3c373" x="0" y="432" style="fill: #808080; fill-opacity: 0.5"/>
    </g>
   </g>
   <g id="PolyCollection_2">
    <defs>
     <path id="m00346d6187" d="M 340.2 -86.4 
L 313.2 -86.4 
L 313.2 -345.6 
L 340.2 -345.6 
L 340.2 -345.6 
L 340.2 -86.4 
z
"/>
    </defs>
    <g clip-path="url(#pa3134abebe)">
     <use xlink:href="#m00346d6187" x="0" y="432" style="fill: #808080; fill-opacity: 0.5"/>
    </g>
   </g>
   <g id="line2d_32">
    <path d="M 86.4 237.494692 
L 88.56 235.506644 
L 90.72 233.788479 
L 92.88 232.34015 
L 95.04 231.161087 
L 97.2 230.24985 
L 99.36 229.603985 
L 101.52 229.219335 
L 103.68 229.089614 
L 105.84 229.205838 
L 108 229.555807 
L 110.16 230.123309 
L 112.68 231.032441 
L 115.56 232.345508 
L 119.16 234.280241 
L 127.44 238.890642 
L 129.96 239.991472 
L 132.12 240.69856 
L 133.92 241.07856 
L 135.72 241.236563 
L 137.52 241.145655 
L 138.96 240.877747 
L 140.4 240.425262 
L 141.84 239.779789 
L 143.28 238.934858 
L 145.08 237.591353 
L 146.88 235.924757 
L 148.68 233.935587 
L 150.48 231.62918 
L 152.64 228.457404 
L 154.8 224.869785 
L 157.32 220.204878 
L 160.2 214.324539 
L 163.44 207.148687 
L 167.76 196.961606 
L 178.56 171.168239 
L 180.72 166.641973 
L 181.8 164.727656 
L 182.52 163.700498 
L 183.24 162.991354 
L 183.6 162.80433 
L 183.96 162.766194 
L 184.32 162.92083 
L 185.04 163.747483 
L 186.84 166.354405 
L 188.64 169.346474 
L 190.44 172.759359 
L 192.24 176.644675 
L 194.04 181.061112 
L 195.84 186.07444 
L 197.64 191.75501 
L 199.44 198.16712 
L 201.24 205.341306 
L 203.4 214.862899 
L 207.72 234.407366 
L 208.8 238.322723 
L 209.52 240.3893 
L 210.24 241.858758 
L 210.6 242.316833 
L 210.96 242.555827 
L 211.32 242.531773 
L 212.04 241.822617 
L 214.92 238.589759 
L 217.44 236.139357 
L 219.6 234.331209 
L 221.76 232.792981 
L 223.92 231.524251 
L 226.08 230.523959 
L 228.24 229.78999 
L 230.4 229.318881 
L 232.56 229.105031 
L 234.72 229.140431 
L 236.88 229.414096 
L 239.04 229.911153 
L 241.56 230.747611 
L 244.08 231.823134 
L 247.32 233.477294 
L 252.72 236.566108 
L 256.68 238.71411 
L 259.2 239.850556 
L 261.36 240.598479 
L 263.16 241.019402 
L 264.96 241.224063 
L 266.76 241.184928 
L 268.56 240.877747 
L 270 240.425262 
L 271.44 239.779789 
L 272.88 238.934858 
L 274.68 237.591353 
L 276.48 235.924757 
L 278.28 233.935587 
L 280.08 231.62918 
L 282.24 228.457404 
L 284.4 224.869785 
L 286.92 220.204878 
L 289.8 214.324539 
L 293.04 207.148687 
L 297.36 196.961606 
L 308.16 171.168239 
L 310.32 166.641973 
L 311.4 164.727656 
L 312.12 163.700498 
L 312.84 162.991354 
L 313.2 162.80433 
L 313.56 162.766194 
L 313.92 162.92083 
L 314.64 163.747483 
L 316.44 166.354405 
L 318.24 169.346474 
L 320.04 172.759359 
L 321.84 176.644675 
L 323.64 181.061112 
L 325.44 186.07444 
L 327.24 191.75501 
L 329.04 198.16712 
L 330.84 205.341306 
L 333 214.862899 
L 337.32 234.407366 
L 338.4 238.322723 
L 339.12 240.3893 
L 339.84 241.858758 
L 340.2 242.316833 
L 340.56 242.555827 
L 340.92 242.531773 
L 341.64 241.822617 
L 344.52 238.589759 
L 345.24 237.852235 
L 345.24 237.852235 
" clip-path="url(#pa3134abebe)" style="fill: none; stroke: #de8f05; stroke-width: 2; stroke-linecap: round"/>
   </g>
   <g id="line2d_33">
    <path d="M 86.4 204.559895 
L 88.56 202.275868 
L 90.72 200.302108 
L 92.88 198.641194 
L 95.04 197.294634 
L 96.84 196.412687 
L 98.64 195.748339 
L 100.44 195.299908 
L 102.24 195.064438 
L 104.04 195.037767 
L 105.84 195.214394 
L 107.64 195.587184 
L 109.8 196.280634 
L 111.96 197.224147 
L 114.12 198.393902 
L 116.64 200.005691 
L 119.88 202.382568 
L 124.92 206.435645 
L 129.24 209.813349 
L 131.76 211.544358 
L 133.92 212.796766 
L 136.08 213.774386 
L 137.88 214.340454 
L 139.68 214.650925 
L 141.12 214.699384 
L 142.56 214.559237 
L 144 214.222557 
L 145.44 213.683531 
L 146.88 212.93866 
L 148.68 211.716343 
L 150.48 210.172794 
L 152.28 208.315618 
L 154.08 206.157363 
L 156.24 203.194187 
L 158.4 199.858886 
L 160.92 195.55573 
L 163.8 190.189948 
L 167.4 182.993533 
L 173.88 169.413703 
L 178.56 159.800891 
L 180.72 155.753741 
L 182.16 153.493724 
L 182.88 152.644761 
L 183.6 152.123589 
L 183.96 152.041232 
L 184.32 152.126091 
L 185.04 152.758648 
L 186.84 154.852414 
L 189 157.736602 
L 191.16 161.048774 
L 193.32 164.838105 
L 195.48 169.156466 
L 197.64 174.057081 
L 199.8 179.589037 
L 201.96 185.776013 
L 204.48 193.731426 
L 208.08 205.223698 
L 209.16 208.000717 
L 209.88 209.397993 
L 210.6 210.247719 
L 210.96 210.400211 
L 211.32 210.314004 
L 212.04 209.514101 
L 214.92 205.817106 
L 217.08 203.379279 
L 219.24 201.250045 
L 221.4 199.432421 
L 223.56 197.928594 
L 225.36 196.91566 
L 227.16 196.120932 
L 228.96 195.543205 
L 230.76 195.180349 
L 232.56 195.028996 
L 234.36 195.084388 
L 236.16 195.34042 
L 238.32 195.901357 
L 240.48 196.722491 
L 242.64 197.782415 
L 245.16 199.285389 
L 248.04 201.291202 
L 251.64 204.093523 
L 259.2 210.075082 
L 261.72 211.769772 
L 263.88 212.980293 
L 265.68 213.774386 
L 267.48 214.340454 
L 269.28 214.650925 
L 270.72 214.699384 
L 272.16 214.559237 
L 273.6 214.222557 
L 275.04 213.683531 
L 276.48 212.93866 
L 278.28 211.716343 
L 280.08 210.172794 
L 281.88 208.315618 
L 283.68 206.157363 
L 285.84 203.194187 
L 288 199.858886 
L 290.52 195.55573 
L 293.4 190.189948 
L 297 182.993533 
L 303.48 169.413703 
L 308.16 159.800891 
L 310.32 155.753741 
L 311.76 153.493724 
L 312.48 152.644761 
L 313.2 152.123589 
L 313.56 152.041232 
L 313.92 152.126091 
L 314.64 152.758648 
L 316.44 154.852414 
L 318.6 157.736602 
L 320.76 161.048774 
L 322.92 164.838105 
L 325.08 169.156466 
L 327.24 174.057081 
L 329.4 179.589037 
L 331.56 185.776013 
L 334.08 193.731426 
L 337.68 205.223698 
L 338.76 208.000717 
L 339.48 209.397993 
L 340.2 210.247719 
L 340.56 210.400211 
L 340.92 210.314004 
L 341.64 209.514101 
L 344.52 205.817106 
L 345.24 204.970474 
L 345.24 204.970474 
" clip-path="url(#pa3134abebe)" style="fill: none; stroke: #0173b2; stroke-width: 2; stroke-linecap: round"/>
   </g>
   <g id="line2d_34">
    <path d="M 86.4 112.687383 
L 88.56 113.036094 
L 90.72 113.651488 
L 92.88 114.5327 
L 95.04 115.678117 
L 97.2 117.085242 
L 99.36 118.750508 
L 101.52 120.669041 
L 104.04 123.218696 
L 106.56 126.090547 
L 109.44 129.743762 
L 112.32 133.758296 
L 115.56 138.647564 
L 119.52 145.034032 
L 131.76 165.124237 
L 134.64 169.223499 
L 136.8 171.960888 
L 138.96 174.347301 
L 140.76 176.031516 
L 142.56 177.412096 
L 144.36 178.468587 
L 145.8 179.069966 
L 147.24 179.448748 
L 148.68 179.602031 
L 150.12 179.529303 
L 151.56 179.232416 
L 153 178.715499 
L 154.44 177.984831 
L 156.24 176.78367 
L 158.04 175.281565 
L 159.84 173.502193 
L 162 171.038598 
L 164.52 167.775287 
L 167.4 163.635652 
L 171 158.031906 
L 185.4 135.099529 
L 188.64 130.571743 
L 191.52 126.897261 
L 194.4 123.59284 
L 196.92 121.028758 
L 199.44 118.786597 
L 201.6 117.130235 
L 203.76 115.725305 
L 205.92 114.576509 
L 208.08 113.687495 
L 210.24 113.061033 
L 212.4 112.699144 
L 214.56 112.603198 
L 216.36 112.726965 
L 218.52 113.120155 
L 220.68 113.779931 
L 222.84 114.70531 
L 225 115.894545 
L 227.16 117.344974 
L 229.32 119.052829 
L 231.84 121.363767 
L 234.36 124.007047 
L 236.88 126.967851 
L 239.76 130.715148 
L 243 135.347718 
L 246.6 140.926224 
L 251.28 148.639801 
L 259.56 162.357484 
L 262.8 167.230877 
L 265.32 170.632693 
L 267.48 173.201254 
L 269.28 175.055917 
L 271.08 176.621438 
L 272.88 177.874561 
L 274.32 178.639552 
L 275.76 179.185684 
L 277.2 179.50827 
L 278.64 179.605005 
L 280.08 179.475973 
L 281.52 179.123605 
L 282.96 178.55258 
L 284.4 177.769693 
L 286.2 176.506615 
L 288 174.947058 
L 289.8 173.115346 
L 291.96 170.596383 
L 294.48 167.279435 
L 297.36 163.093415 
L 300.96 157.453758 
L 314.28 136.15593 
L 317.52 131.543882 
L 320.4 127.782535 
L 323.28 124.382482 
L 325.8 121.729114 
L 328.32 119.3936 
L 330.84 117.388979 
L 333 115.941786 
L 335.16 114.750021 
L 337.32 113.817496 
L 339.48 113.147116 
L 341.64 112.74102 
L 343.8 112.600681 
L 345.24 112.655216 
L 345.24 112.655216 
" clip-path="url(#pa3134abebe)" style="fill: none; stroke-dasharray: 7.4,3.2; stroke-dashoffset: 0; stroke: #1a1a1a; stroke-opacity: 0.75; stroke-width: 2"/>
   </g>
   <g id="line2d_35">
    <path d="M 86.4 171.967183 
L 88.56 170.082844 
L 90.72 168.535252 
L 92.52 167.503339 
L 94.32 166.705359 
L 96.12 166.140295 
L 97.92 165.80631 
L 99.72 165.70067 
L 101.52 165.819795 
L 103.32 166.158822 
L 105.12 166.711643 
L 106.92 167.471059 
L 109.08 168.642435 
L 111.24 170.079675 
L 113.76 172.062361 
L 116.28 174.33299 
L 119.52 177.59027 
L 123.84 182.302023 
L 129.96 188.971147 
L 132.84 191.777336 
L 135 193.620338 
L 137.16 195.173986 
L 138.96 196.208725 
L 140.76 196.97762 
L 142.2 197.385489 
L 143.64 197.598439 
L 145.08 197.608746 
L 146.52 197.411056 
L 147.96 197.002282 
L 149.4 196.381679 
L 150.84 195.550729 
L 152.64 194.222215 
L 154.44 192.583061 
L 156.24 190.649788 
L 158.4 187.970991 
L 160.56 184.940729 
L 163.08 181.024626 
L 165.96 176.146836 
L 169.92 168.961383 
L 180.36 149.675953 
L 182.16 146.913842 
L 183.24 145.687683 
L 183.96 145.234853 
L 184.32 145.185617 
L 185.04 145.455032 
L 186.84 146.571957 
L 189 148.140553 
L 191.16 149.953336 
L 193.32 152.033608 
L 195.48 154.403302 
L 197.64 157.082303 
L 199.8 160.087655 
L 202.32 164.016975 
L 205.2 169.010034 
L 208.44 174.677605 
L 209.52 176.161682 
L 210.24 176.829109 
L 210.6 177.015264 
L 210.96 177.070219 
L 211.32 176.955703 
L 212.04 176.257078 
L 214.92 173.034991 
L 217.08 170.982987 
L 219.24 169.266912 
L 221.04 168.094361 
L 222.84 167.156095 
L 224.64 166.45149 
L 226.44 165.979096 
L 228.24 165.736807 
L 230.04 165.721622 
L 231.84 165.929341 
L 233.64 166.354657 
L 235.44 166.991096 
L 237.6 168.02225 
L 239.76 169.329129 
L 241.92 170.891169 
L 244.44 173.003078 
L 247.32 175.740048 
L 250.92 179.519505 
L 261.36 190.765444 
L 263.88 193.035343 
L 266.04 194.691686 
L 267.84 195.825284 
L 269.64 196.703557 
L 271.44 197.30145 
L 272.88 197.563942 
L 274.32 197.625499 
L 275.76 197.480188 
L 277.2 197.124346 
L 278.64 196.556655 
L 280.08 195.778016 
L 281.88 194.513221 
L 283.68 192.935008 
L 285.48 191.059032 
L 287.64 188.443077 
L 289.8 185.468226 
L 292.32 181.606372 
L 295.2 176.776026 
L 298.8 170.29658 
L 310.68 148.50345 
L 312.12 146.452309 
L 312.84 145.687683 
L 313.56 145.234853 
L 313.92 145.185617 
L 314.64 145.455032 
L 316.44 146.571957 
L 318.6 148.140553 
L 320.76 149.953336 
L 322.92 152.033608 
L 325.08 154.403302 
L 327.24 157.082303 
L 329.4 160.087655 
L 331.92 164.016975 
L 334.8 169.010034 
L 338.04 174.677605 
L 339.12 176.161682 
L 339.84 176.829109 
L 340.2 177.015264 
L 340.56 177.070219 
L 340.92 176.955703 
L 341.64 176.257078 
L 344.52 173.034991 
L 345.24 172.313839 
L 345.24 172.313839 
" clip-path="url(#pa3134abebe)" style="fill: none; stroke: #029e73; stroke-width: 2; stroke-linecap: round"/>
   </g>
   <g id="patch_3">
    <path d="M 86.4 345.6 
L 86.4 86.4 
" style="fill: none; stroke: #262626; stroke-width: 1.25; stroke-linejoin: miter; stroke-linecap: square"/>
   </g>
   <g id="patch_4">
    <path d="M 86.4 345.6 
L 345.6 345.6 
" style="fill: none; stroke: #262626; stroke-width: 1.25; stroke-linejoin: miter; stroke-linecap: square"/>
   </g>
   <g id="legend_1">
    <g id="patch_5">
     <path d="M 218.48 338.6 
L 335.8 338.6 
Q 338.6 338.6 338.6 335.8 
L 338.6 275.88 
Q 338.6 273.08 335.8 273.08 
L 218.48 273.08 
Q 215.68 273.08 215.68 275.88 
L 215.68 335.8 
Q 215.68 338.6 218.48 338.6 
z
" style="fill: #ffffff; opacity: 0.8; stroke: #cccccc; stroke-linejoin: miter"/>
    </g>
    <g id="line2d_36">
     <path d="M 221.28 284 
L 235.28 284 
L 249.28 284 
" style="fill: none; stroke: #de8f05; stroke-width: 2; stroke-linecap: round"/>
    </g>
    <g id="text_18">
     <!-- $\it{A_{1/2}}$ = 500 -->
     <g style="fill: #262626" transform="translate(260.48 288.9)">
      <text>
       <tspan style="font: oblique 14px 'DejaVu Sans'" x="0" y="-0.796875">A</tspan>
       <tspan style="font: 9.8px 'DejaVu Sans'" x="9.577148 15.812207 18.763965" y="1.5">1/2</tspan>
       <tspan style="font: 14px 'Arial'" x="25.381836 29.271484 37.447266 41.336914 49.123047 56.90918" y="-0.796875"> = 500</tspan>
      </text>
     </g>
    </g>
    <g id="line2d_37">
     <path d="M 221.28 304.44 
L 235.28 304.44 
L 249.28 304.44 
" style="fill: none; stroke: #0173b2; stroke-width: 2; stroke-linecap: round"/>
    </g>
    <g id="text_19">
     <!-- $\it{A_{1/2}}$ = 1000 -->
     <g style="fill: #262626" transform="translate(260.48 309.34)">
      <text>
       <tspan style="font: oblique 14px 'DejaVu Sans'" x="0" y="-0.796875">A</tspan>
       <tspan style="font: 9.8px 'DejaVu Sans'" x="9.577148 15.812207 18.763965" y="1.5">1/2</tspan>
       <tspan style="font: 14px 'Arial'" x="25.381836 29.271484 37.447266 41.336914 49.123047 56.90918 64.695312" y="-0.796875"> = 1000</tspan>
      </text>
     </g>
    </g>
    <g id="line2d_38">
     <path d="M 221.28 324.88 
L 235.28 324.88 
L 249.28 324.88 
" style="fill: none; stroke: #029e73; stroke-width: 2; stroke-linecap: round"/>
    </g>
    <g id="text_20">
     <!-- $\it{A_{1/2}}$ = 2000 -->
     <g style="fill: #262626" transform="translate(260.48 329.78)">
      <text>
       <tspan style="font: oblique 14px 'DejaVu Sans'" x="0" y="-0.796875">A</tspan>
       <tspan style="font: 9.8px 'DejaVu Sans'" x="9.577148 15.812207 18.763965" y="1.5">1/2</tspan>
       <tspan style="font: 14px 'Arial'" x="25.381836 29.271484 37.447266 41.336914 49.123047 56.90918 64.695312" y="-0.796875"> = 2000</tspan>
      </text>
     </g>
    </g>
   </g>
  </g>
 </g>
 <defs>
  <clipPath id="pa3134abebe">
   <rect x="86.4" y="86.4" width="259.2" height="259.2"/>
  </clipPath>
 </defs>
</svg>
