<?xml version="1.0" encoding="utf-8" standalone="no"?>
<!DOCTYPE svg PUBLIC "-//W3C//DTD SVG 1.1//EN"
  "http://www.w3.org/Graphics/SVG/1.1/DTD/svg11.dtd">
<svg xmlns:xlink="http://www.w3.org/1999/xlink" width="432pt" height="432pt" viewBox="0 0 432 432" xmlns="http://www.w3.org/2000/svg" version="1.1">
 <metadata>
  <rdf:RDF xmlns:dc="http://purl.org/dc/elements/1.1/" xmlns:cc="http://creativecommons.org/ns#" xmlns:rdf="http://www.w3.org/1999/02/22-rdf-syntax-ns#">
   <cc:Work>
    <dc:type rdf:resource="http://purl.org/dc/dcmitype/StillImage"/>
    <dc:date>2024-05-30T15:30:15.641415</dc:date>
    <dc:format>image/svg+xml</dc:format>
    <dc:creator>
     <cc:Agent>
      <dc:title>Matplotlib v3.8.4, https://matplotlib.org/</dc:title>
     </cc:Agent>
    </dc:creator>
   </cc:Work>
  </rdf:RDF>
 </metadata>
 <defs>
  <style type="text/css">*{stroke-linejoin: round; stroke-linecap: butt}</style>
 </defs>
 <g id="figure_1">
  <g id="patch_1">
   <path d="M 0 432 
L 432 432 
L 432 0 
L 0 0 
L 0 432 
z
" style="fill: none"/>
  </g>
  <g id="axes_1">
   <g id="patch_2">
    <path d="M 86.4 345.6 
L 345.6 345.6 
L 345.6 86.4 
L 86.4 86.4 
L 86.4 345.6 
z
" style="fill: none"/>
   </g>
   <g id="matplotlib.axis_1">
    <g id="xtick_1">
     <g id="line2d_1">
      <defs>
       <path id="m0e069bc9dc" d="M 0 0 
L 0 6 
" style="stroke: #262626; stroke-width: 1.25"/>
      </defs>
      <g>
       <use xlink:href="#m0e069bc9dc" x="86.4" y="345.6" style="fill: #262626; stroke: #262626; stroke-width: 1.25"/>
      </g>
     </g>
     <g id="text_1">
      <text style="fill: #262626; font: 16px 'Arial', 'DejaVu Sans', 'Liberation Sans', 'Bitstream Vera Sans', sans-serif; text-anchor: middle" x="86.4" y="366.5525" transform="rotate(-0 86.4 366.5525)">Jan</text>
     </g>
    </g>
    <g id="xtick_2">
     <g id="line2d_2">
      <g>
       <use xlink:href="#m0e069bc9dc" x="97.2" y="345.6" style="fill: #262626; stroke: #262626; stroke-width: 1.25"/>
      </g>
     </g>
    </g>
    <g id="xtick_3">
     <g id="line2d_3">
      <g>
       <use xlink:href="#m0e069bc9dc" x="108" y="345.6" style="fill: #262626; stroke: #262626; stroke-width: 1.25"/>
      </g>
     </g>
    </g>
    <g id="xtick_4">
     <g id="line2d_4">
      <g>
       <use xlink:href="#m0e069bc9dc" x="118.8" y="345.6" style="fill: #262626; stroke: #262626; stroke-width: 1.25"/>
      </g>
     </g>
     <g id="text_2">
      <text style="fill: #262626; font: 16px 'Arial', 'DejaVu Sans', 'Liberation Sans', 'Bitstream Vera Sans', sans-serif; text-anchor: middle" x="118.8" y="366.5525" transform="rotate(-0 118.8 366.5525)">Apr</text>
     </g>
    </g>
    <g id="xtick_5">
     <g id="line2d_5">
      <g>
       <use xlink:href="#m0e069bc9dc" x="129.6" y="345.6" style="fill: #262626; stroke: #262626; stroke-width: 1.25"/>
      </g>
     </g>
    </g>
    <g id="xtick_6">
     <g id="line2d_6">
      <g>
       <use xlink:href="#m0e069bc9dc" x="140.4" y="345.6" style="fill: #262626; stroke: #262626; stroke-width: 1.25"/>
      </g>
     </g>
    </g>
    <g id="xtick_7">
     <g id="line2d_7">
      <g>
       <use xlink:href="#m0e069bc9dc" x="151.2" y="345.6" style="fill: #262626; stroke: #262626; stroke-width: 1.25"/>
      </g>
     </g>
     <g id="text_3">
      <text style="fill: #262626; font: 16px 'Arial', 'DejaVu Sans', 'Liberation Sans', 'Bitstream Vera Sans', sans-serif; text-anchor: middle" x="151.2" y="366.5525" transform="rotate(-0 151.2 366.5525)">Jul</text>
     </g>
    </g>
    <g id="xtick_8">
     <g id="line2d_8">
      <g>
       <use xlink:href="#m0e069bc9dc" x="162" y="345.6" style="fill: #262626; stroke: #262626; stroke-width: 1.25"/>
      </g>
     </g>
    </g>
    <g id="xtick_9">
     <g id="line2d_9">
      <g>
       <use xlink:href="#m0e069bc9dc" x="172.8" y="345.6" style="fill: #262626; stroke: #262626; stroke-width: 1.25"/>
      </g>
     </g>
    </g>
    <g id="xtick_10">
     <g id="line2d_10">
      <g>
       <use xlink:href="#m0e069bc9dc" x="183.6" y="345.6" style="fill: #262626; stroke: #262626; stroke-width: 1.25"/>
      </g>
     </g>
     <g id="text_4">
      <text style="fill: #262626; font: 16px 'Arial', 'DejaVu Sans', 'Liberation Sans', 'Bitstream Vera Sans', sans-serif; text-anchor: middle" x="183.6" y="366.5525" transform="rotate(-0 183.6 366.5525)">Oct</text>
     </g>
    </g>
    <g id="xtick_11">
     <g id="line2d_11">
      <g>
       <use xlink:href="#m0e069bc9dc" x="194.4" y="345.6" style="fill: #262626; stroke: #262626; stroke-width: 1.25"/>
      </g>
     </g>
    </g>
    <g id="xtick_12">
     <g id="line2d_12">
      <g>
       <use xlink:href="#m0e069bc9dc" x="205.2" y="345.6" style="fill: #262626; stroke: #262626; stroke-width: 1.25"/>
      </g>
     </g>
    </g>
    <g id="xtick_13">
     <g id="line2d_13">
      <g>
       <use xlink:href="#m0e069bc9dc" x="216" y="345.6" style="fill: #262626; stroke: #262626; stroke-width: 1.25"/>
      </g>
     </g>
     <g id="text_5">
      <text style="fill: #262626; font: 16px 'Arial', 'DejaVu Sans', 'Liberation Sans', 'Bitstream Vera Sans', sans-serif; text-anchor: middle" x="216" y="366.5525" transform="rotate(-0 216 366.5525)">Jan</text>
     </g>
    </g>
    <g id="xtick_14">
     <g id="line2d_14">
      <g>
       <use xlink:href="#m0e069bc9dc" x="216" y="345.6" style="fill: #262626; stroke: #262626; stroke-width: 1.25"/>
      </g>
     </g>
     <g id="text_6">
      <text style="fill: #262626; font: 16px 'Arial', 'DejaVu Sans', 'Liberation Sans', 'Bitstream Vera Sans', sans-serif; text-anchor: middle" x="216" y="366.5525" transform="rotate(-0 216 366.5525)">Jan</text>
     </g>
    </g>
    <g id="xtick_15">
     <g id="line2d_15">
      <g>
       <use xlink:href="#m0e069bc9dc" x="226.8" y="345.6" style="fill: #262626; stroke: #262626; stroke-width: 1.25"/>
      </g>
     </g>
    </g>
    <g id="xtick_16">
     <g id="line2d_16">
      <g>
       <use xlink:href="#m0e069bc9dc" x="237.6" y="345.6" style="fill: #262626; stroke: #262626; stroke-width: 1.25"/>
      </g>
     </g>
    </g>
    <g id="xtick_17">
     <g id="line2d_17">
      <g>
       <use xlink:href="#m0e069bc9dc" x="248.4" y="345.6" style="fill: #262626; stroke: #262626; stroke-width: 1.25"/>
      </g>
     </g>
     <g id="text_7">
      <text style="fill: #262626; font: 16px 'Arial', 'DejaVu Sans', 'Liberation Sans', 'Bitstream Vera Sans', sans-serif; text-anchor: middle" x="248.4" y="366.5525" transform="rotate(-0 248.4 366.5525)">Apr</text>
     </g>
    </g>
    <g id="xtick_18">
     <g id="line2d_18">
      <g>
       <use xlink:href="#m0e069bc9dc" x="259.2" y="345.6" style="fill: #262626; stroke: #262626; stroke-width: 1.25"/>
      </g>
     </g>
    </g>
    <g id="xtick_19">
     <g id="line2d_19">
      <g>
       <use xlink:href="#m0e069bc9dc" x="270" y="345.6" style="fill: #262626; stroke: #262626; stroke-width: 1.25"/>
      </g>
     </g>
    </g>
    <g id="xtick_20">
     <g id="line2d_20">
      <g>
       <use xlink:href="#m0e069bc9dc" x="280.8" y="345.6" style="fill: #262626; stroke: #262626; stroke-width: 1.25"/>
      </g>
     </g>
     <g id="text_8">
      <text style="fill: #262626; font: 16px 'Arial', 'DejaVu Sans', 'Liberation Sans', 'Bitstream Vera Sans', sans-serif; text-anchor: middle" x="280.8" y="366.5525" transform="rotate(-0 280.8 366.5525)">Jul</text>
     </g>
    </g>
    <g id="xtick_21">
     <g id="line2d_21">
      <g>
       <use xlink:href="#m0e069bc9dc" x="291.6" y="345.6" style="fill: #262626; stroke: #262626; stroke-width: 1.25"/>
      </g>
     </g>
    </g>
    <g id="xtick_22">
     <g id="line2d_22">
      <g>
       <use xlink:href="#m0e069bc9dc" x="302.4" y="345.6" style="fill: #262626; stroke: #262626; stroke-width: 1.25"/>
      </g>
     </g>
    </g>
    <g id="xtick_23">
     <g id="line2d_23">
      <g>
       <use xlink:href="#m0e069bc9dc" x="313.2" y="345.6" style="fill: #262626; stroke: #262626; stroke-width: 1.25"/>
      </g>
     </g>
     <g id="text_9">
      <text style="fill: #262626; font: 16px 'Arial', 'DejaVu Sans', 'Liberation Sans', 'Bitstream Vera Sans', sans-serif; text-anchor: middle" x="313.2" y="366.5525" transform="rotate(-0 313.2 366.5525)">Oct</text>
     </g>
    </g>
    <g id="xtick_24">
     <g id="line2d_24">
      <g>
       <use xlink:href="#m0e069bc9dc" x="324" y="345.6" style="fill: #262626; stroke: #262626; stroke-width: 1.25"/>
      </g>
     </g>
    </g>
    <g id="xtick_25">
     <g id="line2d_25">
      <g>
       <use xlink:href="#m0e069bc9dc" x="334.8" y="345.6" style="fill: #262626; stroke: #262626; stroke-width: 1.25"/>
      </g>
     </g>
    </g>
    <g id="xtick_26">
     <g id="line2d_26">
      <g>
       <use xlink:href="#m0e069bc9dc" x="345.6" y="345.6" style="fill: #262626; stroke: #262626; stroke-width: 1.25"/>
      </g>
     </g>
     <g id="text_10">
      <text style="fill: #262626; font: 16px 'Arial', 'DejaVu Sans', 'Liberation Sans', 'Bitstream Vera Sans', sans-serif; text-anchor: middle" x="345.6" y="366.5525" transform="rotate(-0 345.6 366.5525)">Jan</text>
     </g>
    </g>
    <g id="text_11">
     <text style="fill: #262626; font: 16px 'Arial', 'DejaVu Sans', 'Liberation Sans', 'Bitstream Vera Sans', sans-serif; text-anchor: middle" x="216" y="385.185" transform="rotate(-0 216 385.185)"> </text>
    </g>
   </g>
   <g id="matplotlib.axis_2">
    <g id="ytick_1">
     <g id="line2d_27">
      <defs>
       <path id="m231f7ec39e" d="M 0 0 
L -6 0 
" style="stroke: #262626; stroke-width: 1.25"/>
      </defs>
      <g>
       <use xlink:href="#m231f7ec39e" x="86.4" y="345.6" style="fill: #262626; stroke: #262626; stroke-width: 1.25"/>
      </g>
     </g>
     <g id="text_12">
      <text style="fill: #262626; font: 16px 'Arial', 'DejaVu Sans', 'Liberation Sans', 'Bitstream Vera Sans', sans-serif; text-anchor: end" x="76.9" y="351.32625" transform="rotate(-0 76.9 351.32625)">0.0</text>
     </g>
    </g>
    <g id="ytick_2">
     <g id="line2d_28">
      <g>
       <use xlink:href="#m231f7ec39e" x="86.4" y="293.76" style="fill: #262626; stroke: #262626; stroke-width: 1.25"/>
      </g>
     </g>
     <g id="text_13">
      <text style="fill: #262626; font: 16px 'Arial', 'DejaVu Sans', 'Liberation Sans', 'Bitstream Vera Sans', sans-serif; text-anchor: end" x="76.9" y="299.48625" transform="rotate(-0 76.9 299.48625)">0.1</text>
     </g>
    </g>
    <g id="ytick_3">
     <g id="line2d_29">
      <g>
       <use xlink:href="#m231f7ec39e" x="86.4" y="241.92" style="fill: #262626; stroke: #262626; stroke-width: 1.25"/>
      </g>
     </g>
     <g id="text_14">
      <text style="fill: #262626; font: 16px 'Arial', 'DejaVu Sans', 'Liberation Sans', 'Bitstream Vera Sans', sans-serif; text-anchor: end" x="76.9" y="247.64625" transform="rotate(-0 76.9 247.64625)">0.2</text>
     </g>
    </g>
    <g id="ytick_4">
     <g id="line2d_30">
      <g>
       <use xlink:href="#m231f7ec39e" x="86.4" y="190.08" style="fill: #262626; stroke: #262626; stroke-width: 1.25"/>
      </g>
     </g>
     <g id="text_15">
      <text style="fill: #262626; font: 16px 'Arial', 'DejaVu Sans', 'Liberation Sans', 'Bitstream Vera Sans', sans-serif; text-anchor: end" x="76.9" y="195.80625" transform="rotate(-0 76.9 195.80625)">0.3</text>
     </g>
    </g>
    <g id="ytick_5">
     <g id="line2d_31">
      <g>
       <use xlink:href="#m231f7ec39e" x="86.4" y="138.24" style="fill: #262626; stroke: #262626; stroke-width: 1.25"/>
      </g>
     </g>
     <g id="text_16">
      <text style="fill: #262626; font: 16px 'Arial', 'DejaVu Sans', 'Liberation Sans', 'Bitstream Vera Sans', sans-serif; text-anchor: end" x="76.9" y="143.96625" transform="rotate(-0 76.9 143.96625)">0.4</text>
     </g>
    </g>
    <g id="ytick_6">
     <g id="line2d_32">
      <g>
       <use xlink:href="#m231f7ec39e" x="86.4" y="86.4" style="fill: #262626; stroke: #262626; stroke-width: 1.25"/>
      </g>
     </g>
     <g id="text_17">
      <text style="fill: #262626; font: 16px 'Arial', 'DejaVu Sans', 'Liberation Sans', 'Bitstream Vera Sans', sans-serif; text-anchor: end" x="76.9" y="92.12625" transform="rotate(-0 76.9 92.12625)">0.5</text>
     </g>
    </g>
    <g id="text_18">
     <text style="fill: #262626; font: 16px 'Arial', 'DejaVu Sans', 'Liberation Sans', 'Bitstream Vera Sans', sans-serif; text-anchor: middle" x="47.48" y="216" transform="rotate(-90 47.48 216)">Case outbreak risk</text>
    </g>
   </g>
   <g id="PolyCollection_1">
    <defs>
     <path id="mb39f3d094f" d="M 210.6 -86.4 
L 183.6 -86.4 
L 183.6 -345.6 
L 210.6 -345.6 
L 210.6 -345.6 
L 210.6 -86.4 
z
"/>
    </defs>
    <g clip-path="url(#p9968f89555)">
     <use xlink:href="#mb39f3d094f" x="0" y="432" style="fill: #808080; fill-opacity: 0.5"/>
    </g>
   </g>
   <g id="PolyCollection_2">
    <defs>
     <path id="m2e0744f0e1" d="M 340.2 -86.4 
L 313.2 -86.4 
L 313.2 -345.6 
L 340.2 -345.6 
L 340.2 -345.6 
L 340.2 -86.4 
z
"/>
    </defs>
    <g clip-path="url(#p9968f89555)">
     <use xlink:href="#m2e0744f0e1" x="0" y="432" style="fill: #808080; fill-opacity: 0.5"/>
    </g>
   </g>
   <g id="line2d_33">
    <path d="M 86.4 237.44613 
L 88.92 235.095237 
L 91.08 233.370833 
L 93.24 231.915139 
L 95.4 230.728009 
L 97.56 229.808318 
L 99.72 229.153698 
L 101.88 228.760069 
L 104.04 228.620877 
L 106.2 228.726884 
L 108.36 229.065241 
L 110.52 229.618966 
L 113.04 230.508046 
L 115.92 231.790626 
L 119.52 233.671705 
L 127.08 237.735903 
L 129.6 238.817071 
L 131.76 239.517953 
L 133.56 239.900206 
L 135.36 240.066956 
L 137.16 239.990903 
L 138.96 239.648059 
L 140.4 239.168125 
L 141.84 238.496306 
L 143.64 237.377195 
L 145.44 235.940249 
L 147.24 234.182365 
L 149.04 232.105278 
L 150.84 229.715523 
L 153 226.45143 
L 155.16 222.781585 
L 157.68 218.035628 
L 160.56 212.084702 
L 163.8 204.859711 
L 168.48 193.790813 
L 177.84 171.477273 
L 180.36 166.076512 
L 181.8 163.477799 
L 182.52 162.460817 
L 183.24 161.762519 
L 183.6 161.581616 
L 183.96 161.550507 
L 184.32 161.71361 
L 185.04 162.560942 
L 186.84 165.221744 
L 188.64 168.271282 
L 190.44 171.745825 
L 192.24 175.697584 
L 194.04 180.186077 
L 195.84 185.278236 
L 197.64 191.045953 
L 199.44 197.555366 
L 201.24 204.838621 
L 203.4 214.506443 
L 207.72 234.348949 
L 208.8 238.320447 
L 209.52 240.415211 
L 210.24 241.903308 
L 210.6 242.366452 
L 210.96 242.607232 
L 211.32 242.58106 
L 212.04 241.858453 
L 214.92 238.565063 
L 217.44 236.058117 
L 219.6 234.199459 
L 221.76 232.609396 
L 223.92 231.288046 
L 226.08 230.234837 
L 228.24 229.44807 
L 230.4 228.924627 
L 232.56 228.659178 
L 234.72 228.643926 
L 236.88 228.867976 
L 239.04 229.316421 
L 241.56 230.097304 
L 244.08 231.118133 
L 247.32 232.702553 
L 252.72 235.674611 
L 256.68 237.735903 
L 259.2 238.817071 
L 261.36 239.517953 
L 263.16 239.900206 
L 264.96 240.066956 
L 266.76 239.990903 
L 268.56 239.648059 
L 270 239.168125 
L 271.44 238.496306 
L 273.24 237.377195 
L 275.04 235.940249 
L 276.84 234.182365 
L 278.64 232.105278 
L 280.44 229.715523 
L 282.6 226.45143 
L 284.76 222.781585 
L 287.28 218.035628 
L 290.16 212.084702 
L 293.4 204.859711 
L 298.08 193.790813 
L 307.44 171.477273 
L 309.96 166.076512 
L 311.4 163.477799 
L 312.12 162.460817 
L 312.84 161.762519 
L 313.2 161.581616 
L 313.56 161.550507 
L 313.92 161.71361 
L 314.64 162.560942 
L 316.44 165.221744 
L 318.24 168.271282 
L 320.04 171.745825 
L 321.84 175.697584 
L 323.64 180.186077 
L 325.44 185.278236 
L 327.24 191.045953 
L 329.04 197.555366 
L 330.84 204.838621 
L 333 214.506443 
L 337.32 234.348949 
L 338.4 238.320447 
L 339.12 240.415211 
L 339.84 241.903308 
L 340.2 242.366452 
L 340.56 242.607232 
L 340.92 242.58106 
L 341.64 241.858453 
L 344.52 238.565063 
L 345.24 237.811694 
L 345.24 237.811694 
" clip-path="url(#p9968f89555)" style="fill: none; stroke: #dd8452; stroke-width: 2; stroke-linecap: round"/>
   </g>
   <g id="line2d_34">
    <path d="M 86.4 204.632959 
L 88.56 202.295339 
L 90.72 200.267759 
L 92.88 198.553177 
L 95.04 197.153442 
L 96.84 196.227773 
L 98.64 195.520364 
L 100.44 195.029595 
L 102.24 194.752537 
L 104.04 194.68501 
L 105.84 194.821456 
L 107.64 195.154641 
L 109.8 195.801131 
L 111.96 196.698136 
L 114.12 197.82163 
L 116.64 199.379552 
L 119.52 201.417701 
L 123.84 204.777198 
L 129.24 208.926496 
L 132.12 210.83077 
L 134.28 212.005949 
L 136.08 212.773595 
L 137.88 213.316274 
L 139.68 213.606695 
L 141.12 213.641671 
L 142.56 213.490389 
L 144 213.144979 
L 145.44 212.599643 
L 146.88 211.850901 
L 148.68 210.62713 
L 150.48 209.085815 
L 152.28 207.234447 
L 154.08 205.085427 
L 156.24 202.137592 
L 158.4 198.821948 
L 160.92 194.546652 
L 163.8 189.218331 
L 167.4 182.075573 
L 174.24 167.854988 
L 178.92 158.375451 
L 181.08 154.455781 
L 182.16 152.827478 
L 182.88 151.991014 
L 183.6 151.483512 
L 183.96 151.408868 
L 184.32 151.502443 
L 185.04 152.15491 
L 186.84 154.298936 
L 189 157.245529 
L 191.16 160.622786 
L 193.32 164.480077 
L 195.48 168.869541 
L 197.64 173.844703 
L 199.8 179.454805 
L 201.96 185.723186 
L 204.48 193.775 
L 208.08 205.386073 
L 209.16 208.18507 
L 209.88 209.590478 
L 210.6 210.441429 
L 210.96 210.591361 
L 211.32 210.499933 
L 212.04 209.683383 
L 215.28 205.480354 
L 217.44 203.040281 
L 219.6 200.90897 
L 221.76 199.089805 
L 223.92 197.584972 
L 225.72 196.571784 
L 227.52 195.777245 
L 229.32 195.200047 
L 231.12 194.83793 
L 232.92 194.687215 
L 234.72 194.742812 
L 236.52 194.998285 
L 238.68 195.556763 
L 240.84 196.372669 
L 243 197.423632 
L 245.52 198.910085 
L 248.4 200.88715 
L 252.36 203.920259 
L 258.84 208.926496 
L 261.72 210.83077 
L 263.88 212.005949 
L 265.68 212.773595 
L 267.48 213.316274 
L 269.28 213.606695 
L 270.72 213.641671 
L 272.16 213.490389 
L 273.6 213.144979 
L 275.04 212.599643 
L 276.48 211.850901 
L 278.28 210.62713 
L 280.08 209.085815 
L 281.88 207.234447 
L 283.68 205.085427 
L 285.84 202.137592 
L 288 198.821948 
L 290.52 194.546652 
L 293.4 189.218331 
L 297 182.075573 
L 303.84 167.854988 
L 308.52 158.375451 
L 310.68 154.455781 
L 311.76 152.827478 
L 312.48 151.991014 
L 313.2 151.483512 
L 313.56 151.408868 
L 313.92 151.502443 
L 314.64 152.15491 
L 316.44 154.298936 
L 318.6 157.245529 
L 320.76 160.622786 
L 322.92 164.480077 
L 325.08 168.869541 
L 327.24 173.844703 
L 329.4 179.454805 
L 331.56 185.723186 
L 334.08 193.775 
L 337.68 205.386073 
L 338.76 208.18507 
L 339.48 209.590478 
L 340.2 210.441429 
L 340.56 210.591361 
L 340.92 210.499933 
L 341.64 209.683383 
L 344.88 205.480354 
L 345.24 205.052416 
L 345.24 205.052416 
" clip-path="url(#p9968f89555)" style="fill: none; stroke: #4c72b0; stroke-width: 2; stroke-linecap: round"/>
   </g>
   <g id="line2d_35">
    <path d="M 86.4 112.687383 
L 88.56 113.036094 
L 90.72 113.651488 
L 92.88 114.5327 
L 95.04 115.678117 
L 97.2 117.085242 
L 99.36 118.750508 
L 101.52 120.669041 
L 104.04 123.218696 
L 106.56 126.090547 
L 109.44 129.743762 
L 112.32 133.758296 
L 115.56 138.647564 
L 119.52 145.034032 
L 131.76 165.124237 
L 134.64 169.223499 
L 136.8 171.960888 
L 138.96 174.347301 
L 140.76 176.031516 
L 142.56 177.412096 
L 144.36 178.468587 
L 145.8 179.069966 
L 147.24 179.448748 
L 148.68 179.602031 
L 150.12 179.529303 
L 151.56 179.232416 
L 153 178.715499 
L 154.44 177.984831 
L 156.24 176.78367 
L 158.04 175.281565 
L 159.84 173.502193 
L 162 171.038598 
L 164.52 167.775287 
L 167.4 163.635652 
L 171 158.031906 
L 185.4 135.099529 
L 188.64 130.571743 
L 191.52 126.897261 
L 194.4 123.59284 
L 196.92 121.028758 
L 199.44 118.786597 
L 201.6 117.130235 
L 203.76 115.725305 
L 205.92 114.576509 
L 208.08 113.687495 
L 210.24 113.061033 
L 212.4 112.699144 
L 214.56 112.603198 
L 216.36 112.726965 
L 218.52 113.120155 
L 220.68 113.779931 
L 222.84 114.70531 
L 225 115.894545 
L 227.16 117.344974 
L 229.32 119.052829 
L 231.84 121.363767 
L 234.36 124.007047 
L 236.88 126.967851 
L 239.76 130.715148 
L 243 135.347718 
L 246.6 140.926224 
L 251.28 148.639801 
L 259.56 162.357484 
L 262.8 167.230877 
L 265.32 170.632693 
L 267.48 173.201254 
L 269.28 175.055917 
L 271.08 176.621438 
L 272.88 177.874561 
L 274.32 178.639552 
L 275.76 179.185684 
L 277.2 179.50827 
L 278.64 179.605005 
L 280.08 179.475973 
L 281.52 179.123605 
L 282.96 178.55258 
L 284.4 177.769693 
L 286.2 176.506615 
L 288 174.947058 
L 289.8 173.115346 
L 291.96 170.596383 
L 294.48 167.279435 
L 297.36 163.093415 
L 300.96 157.453758 
L 314.28 136.15593 
L 317.52 131.543882 
L 320.4 127.782535 
L 323.28 124.382482 
L 325.8 121.729114 
L 328.32 119.3936 
L 330.84 117.388979 
L 333 115.941786 
L 335.16 114.750021 
L 337.32 113.817496 
L 339.48 113.147116 
L 341.64 112.74102 
L 343.8 112.600681 
L 345.24 112.655216 
L 345.24 112.655216 
" clip-path="url(#p9968f89555)" style="fill: none; stroke-dasharray: 7.4,3.2; stroke-dashoffset: 0; stroke: #1a1a1a; stroke-opacity: 0.75; stroke-width: 2"/>
   </g>
   <g id="line2d_36">
    <path d="M 86.4 172.079833 
L 88.56 170.142049 
L 90.72 168.542543 
L 92.52 167.468686 
L 94.32 166.630037 
L 96.12 166.025644 
L 97.92 165.653683 
L 99.72 165.511389 
L 101.52 165.595116 
L 103.32 165.899931 
L 105.12 166.419648 
L 106.92 167.146976 
L 109.08 168.281064 
L 111.24 169.682273 
L 113.76 171.624493 
L 116.28 173.85637 
L 119.16 176.694569 
L 123.12 180.930158 
L 130.32 188.694803 
L 133.2 191.438352 
L 135.36 193.227282 
L 137.52 194.721644 
L 139.32 195.703712 
L 141.12 196.417795 
L 142.56 196.78083 
L 144 196.948535 
L 145.44 196.913685 
L 146.88 196.67141 
L 148.32 196.219099 
L 149.76 195.556448 
L 151.2 194.685416 
L 153 193.310196 
L 154.8 191.62879 
L 156.6 189.658337 
L 158.76 186.942356 
L 160.92 183.883612 
L 163.44 179.945739 
L 166.68 174.42423 
L 171 166.546581 
L 179.64 150.608577 
L 181.44 147.670283 
L 182.52 146.1893 
L 183.24 145.434471 
L 183.96 144.993347 
L 184.32 144.951179 
L 185.04 145.237078 
L 186.84 146.395908 
L 189.36 148.307436 
L 191.52 150.212784 
L 193.68 152.38861 
L 195.84 154.856218 
L 198 157.634677 
L 200.16 160.739751 
L 202.68 164.781281 
L 205.56 169.87375 
L 208.44 174.923242 
L 209.52 176.410193 
L 210.24 177.074878 
L 210.6 177.257818 
L 210.96 177.308053 
L 211.32 177.186971 
L 212.04 176.470615 
L 214.92 173.174844 
L 217.08 171.068741 
L 219.24 169.299958 
L 221.04 168.084725 
L 222.84 167.105017 
L 224.64 166.360274 
L 226.44 165.849093 
L 228.24 165.569363 
L 230.04 165.518034 
L 231.84 165.690841 
L 233.64 166.082396 
L 235.44 166.686145 
L 237.24 167.494101 
L 239.4 168.71947 
L 241.56 170.204971 
L 244.08 172.234746 
L 246.96 174.888994 
L 250.2 178.201605 
L 255.96 184.497831 
L 260.28 189.055922 
L 263.16 191.754567 
L 265.32 193.498289 
L 267.48 194.938278 
L 269.28 195.868752 
L 271.08 196.526391 
L 272.52 196.841394 
L 273.96 196.959041 
L 275.4 196.872706 
L 276.84 196.578075 
L 278.28 196.073125 
L 279.72 195.358098 
L 281.52 194.172989 
L 283.32 192.673506 
L 285.12 190.874187 
L 287.28 188.346 
L 289.44 185.452951 
L 291.96 181.677432 
L 294.84 176.93216 
L 298.44 170.537264 
L 305.28 157.784855 
L 309.24 150.608577 
L 311.04 147.670283 
L 312.12 146.1893 
L 312.84 145.434471 
L 313.56 144.993347 
L 313.92 144.951179 
L 314.64 145.237078 
L 316.44 146.395908 
L 318.96 148.307436 
L 321.12 150.212784 
L 323.28 152.38861 
L 325.44 154.856218 
L 327.6 157.634677 
L 329.76 160.739751 
L 332.28 164.781281 
L 335.16 169.87375 
L 338.04 174.923242 
L 339.12 176.410193 
L 339.84 177.074878 
L 340.2 177.257818 
L 340.56 177.308053 
L 340.92 177.186971 
L 341.64 176.470615 
L 344.52 173.174844 
L 345.24 172.435525 
L 345.24 172.435525 
" clip-path="url(#p9968f89555)" style="fill: none; stroke: #55a868; stroke-width: 2; stroke-linecap: round"/>
   </g>
   <g id="patch_3">
    <path d="M 86.4 345.6 
L 86.4 86.4 
" style="fill: none; stroke: #262626; stroke-width: 1.25; stroke-linejoin: miter; stroke-linecap: square"/>
   </g>
   <g id="patch_4">
    <path d="M 86.4 345.6 
L 345.6 345.6 
" style="fill: none; stroke: #262626; stroke-width: 1.25; stroke-linejoin: miter; stroke-linecap: square"/>
   </g>
   <g id="legend_1">
    <g id="patch_5">
     <path d="M 218.48 338.6 
L 335.8 338.6 
Q 338.6 338.6 338.6 335.8 
L 338.6 275.88 
Q 338.6 273.08 335.8 273.08 
L 218.48 273.08 
Q 215.68 273.08 215.68 275.88 
L 215.68 335.8 
Q 215.68 338.6 218.48 338.6 
z
" style="fill: #ffffff; opacity: 0.8; stroke: #cccccc; stroke-linejoin: miter"/>
    </g>
    <g id="line2d_37">
     <path d="M 221.28 284 
L 235.28 284 
L 249.28 284 
" style="fill: none; stroke: #dd8452; stroke-width: 2; stroke-linecap: round"/>
    </g>
    <g id="text_19">
     <!-- $\it{A_{1/2}}$ = 500 -->
     <g style="fill: #262626" transform="translate(260.48 288.9)">
      <text>
       <tspan style="font: oblique 14px 'DejaVu Sans'" x="0" y="-0.796875">A</tspan>
       <tspan style="font: 9.8px 'DejaVu Sans'" x="9.577148 15.812207 18.763965" y="1.5">1/2</tspan>
       <tspan style="font: 14px 'Arial'" x="25.381836 29.271484 37.447266 41.336914 49.123047 56.90918" y="-0.796875"> = 500</tspan>
      </text>
     </g>
    </g>
    <g id="line2d_38">
     <path d="M 221.28 304.44 
L 235.28 304.44 
L 249.28 304.44 
" style="fill: none; stroke: #4c72b0; stroke-width: 2; stroke-linecap: round"/>
    </g>
    <g id="text_20">
     <!-- $\it{A_{1/2}}$ = 1000 -->
     <g style="fill: #262626" transform="translate(260.48 309.34)">
      <text>
       <tspan style="font: oblique 14px 'DejaVu Sans'" x="0" y="-0.796875">A</tspan>
       <tspan style="font: 9.8px 'DejaVu Sans'" x="9.577148 15.812207 18.763965" y="1.5">1/2</tspan>
       <tspan style="font: 14px 'Arial'" x="25.381836 29.271484 37.447266 41.336914 49.123047 56.90918 64.695312" y="-0.796875"> = 1000</tspan>
      </text>
     </g>
    </g>
    <g id="line2d_39">
     <path d="M 221.28 324.88 
L 235.28 324.88 
L 249.28 324.88 
" style="fill: none; stroke: #55a868; stroke-width: 2; stroke-linecap: round"/>
    </g>
    <g id="text_21">
     <!-- $\it{A_{1/2}}$ = 2000 -->
     <g style="fill: #262626" transform="translate(260.48 329.78)">
      <text>
       <tspan style="font: oblique 14px 'DejaVu Sans'" x="0" y="-0.796875">A</tspan>
       <tspan style="font: 9.8px 'DejaVu Sans'" x="9.577148 15.812207 18.763965" y="1.5">1/2</tspan>
       <tspan style="font: 14px 'Arial'" x="25.381836 29.271484 37.447266 41.336914 49.123047 56.90918 64.695312" y="-0.796875"> = 2000</tspan>
      </text>
     </g>
    </g>
   </g>
  </g>
 </g>
 <defs>
  <clipPath id="p9968f89555">
   <rect x="86.4" y="86.4" width="259.2" height="259.2"/>
  </clipPath>
 </defs>
</svg>
