<?xml version="1.0" encoding="utf-8" standalone="no"?>
<!DOCTYPE svg PUBLIC "-//W3C//DTD SVG 1.1//EN"
  "http://www.w3.org/Graphics/SVG/1.1/DTD/svg11.dtd">
<svg xmlns:xlink="http://www.w3.org/1999/xlink" width="432pt" height="432pt" viewBox="0 0 432 432" xmlns="http://www.w3.org/2000/svg" version="1.1">
 <metadata>
  <rdf:RDF xmlns:dc="http://purl.org/dc/elements/1.1/" xmlns:cc="http://creativecommons.org/ns#" xmlns:rdf="http://www.w3.org/1999/02/22-rdf-syntax-ns#">
   <cc:Work>
    <dc:type rdf:resource="http://purl.org/dc/dcmitype/StillImage"/>
    <dc:date>2025-08-08T15:51:06.355206</dc:date>
    <dc:format>image/svg+xml</dc:format>
    <dc:creator>
     <cc:Agent>
      <dc:title>Matplotlib v3.10.3, https://matplotlib.org/</dc:title>
     </cc:Agent>
    </dc:creator>
   </cc:Work>
  </rdf:RDF>
 </metadata>
 <defs>
  <style type="text/css">*{stroke-linejoin: round; stroke-linecap: butt}</style>
 </defs>
 <g id="figure_1">
  <g id="patch_1">
   <path d="M 0 432 
L 432 432 
L 432 0 
L 0 0 
L 0 432 
z
" style="fill: none"/>
  </g>
  <g id="axes_1">
   <g id="patch_2">
    <path d="M 86.4 345.6 
L 345.6 345.6 
L 345.6 86.4 
L 86.4 86.4 
L 86.4 345.6 
z
" style="fill: none"/>
   </g>
   <g id="matplotlib.axis_1">
    <g id="xtick_1">
     <g id="line2d_1">
      <defs>
       <path id="mb1b945cfee" d="M 0 0 
L 0 6 
" style="stroke: #262626; stroke-width: 1.25"/>
      </defs>
      <g>
       <use xlink:href="#mb1b945cfee" x="86.4" y="345.6" style="fill: #262626; stroke: #262626; stroke-width: 1.25"/>
      </g>
     </g>
     <g id="text_1">
      <text style="font-size: 16px; font-family: 'Arial', sans-serif; text-anchor: middle; fill: #262626" x="86.4" y="366.5525" transform="rotate(-0 86.4 366.5525)">0</text>
     </g>
    </g>
    <g id="xtick_2">
     <g id="line2d_2">
      <g>
       <use xlink:href="#mb1b945cfee" x="129.008219" y="345.6" style="fill: #262626; stroke: #262626; stroke-width: 1.25"/>
      </g>
     </g>
     <g id="text_2">
      <text style="font-size: 16px; font-family: 'Arial', sans-serif; text-anchor: middle; fill: #262626" x="129.008219" y="366.5525" transform="rotate(-0 129.008219 366.5525)">60</text>
     </g>
    </g>
    <g id="xtick_3">
     <g id="line2d_3">
      <g>
       <use xlink:href="#mb1b945cfee" x="171.616438" y="345.6" style="fill: #262626; stroke: #262626; stroke-width: 1.25"/>
      </g>
     </g>
     <g id="text_3">
      <text style="font-size: 16px; font-family: 'Arial', sans-serif; text-anchor: middle; fill: #262626" x="171.616438" y="366.5525" transform="rotate(-0 171.616438 366.5525)">120</text>
     </g>
    </g>
    <g id="xtick_4">
     <g id="line2d_4">
      <g>
       <use xlink:href="#mb1b945cfee" x="214.224658" y="345.6" style="fill: #262626; stroke: #262626; stroke-width: 1.25"/>
      </g>
     </g>
     <g id="text_4">
      <text style="font-size: 16px; font-family: 'Arial', sans-serif; text-anchor: middle; fill: #262626" x="214.224658" y="366.5525" transform="rotate(-0 214.224658 366.5525)">180</text>
     </g>
    </g>
    <g id="xtick_5">
     <g id="line2d_5">
      <g>
       <use xlink:href="#mb1b945cfee" x="256.832877" y="345.6" style="fill: #262626; stroke: #262626; stroke-width: 1.25"/>
      </g>
     </g>
     <g id="text_5">
      <text style="font-size: 16px; font-family: 'Arial', sans-serif; text-anchor: middle; fill: #262626" x="256.832877" y="366.5525" transform="rotate(-0 256.832877 366.5525)">240</text>
     </g>
    </g>
    <g id="xtick_6">
     <g id="line2d_6">
      <g>
       <use xlink:href="#mb1b945cfee" x="299.441096" y="345.6" style="fill: #262626; stroke: #262626; stroke-width: 1.25"/>
      </g>
     </g>
     <g id="text_6">
      <text style="font-size: 16px; font-family: 'Arial', sans-serif; text-anchor: middle; fill: #262626" x="299.441096" y="366.5525" transform="rotate(-0 299.441096 366.5525)">300</text>
     </g>
    </g>
    <g id="xtick_7">
     <g id="line2d_7">
      <g>
       <use xlink:href="#mb1b945cfee" x="342.049315" y="345.6" style="fill: #262626; stroke: #262626; stroke-width: 1.25"/>
      </g>
     </g>
     <g id="text_7">
      <text style="font-size: 16px; font-family: 'Arial', sans-serif; text-anchor: middle; fill: #262626" x="342.049315" y="366.5525" transform="rotate(-0 342.049315 366.5525)">360</text>
     </g>
    </g>
    <g id="text_8">
     <text style="font-size: 16px; font-family: 'Arial', sans-serif; text-anchor: middle; fill: #262626" x="216" y="385.38" transform="rotate(-0 216 385.38)">Time since vaccination (days)</text>
    </g>
   </g>
   <g id="matplotlib.axis_2">
    <g id="ytick_1">
     <g id="line2d_8">
      <defs>
       <path id="me55516e91e" d="M 0 0 
L -6 0 
" style="stroke: #262626; stroke-width: 1.25"/>
      </defs>
      <g>
       <use xlink:href="#me55516e91e" x="86.4" y="345.6" style="fill: #262626; stroke: #262626; stroke-width: 1.25"/>
      </g>
     </g>
     <g id="text_9">
      <text style="font-size: 16px; font-family: 'Arial', sans-serif; text-anchor: end; fill: #262626" x="76.9" y="351.32625" transform="rotate(-0 76.9 351.32625)">0.0</text>
     </g>
    </g>
    <g id="ytick_2">
     <g id="line2d_9">
      <g>
       <use xlink:href="#me55516e91e" x="86.4" y="293.76" style="fill: #262626; stroke: #262626; stroke-width: 1.25"/>
      </g>
     </g>
     <g id="text_10">
      <text style="font-size: 16px; font-family: 'Arial', sans-serif; text-anchor: end; fill: #262626" x="76.9" y="299.48625" transform="rotate(-0 76.9 299.48625)">0.2</text>
     </g>
    </g>
    <g id="ytick_3">
     <g id="line2d_10">
      <g>
       <use xlink:href="#me55516e91e" x="86.4" y="241.92" style="fill: #262626; stroke: #262626; stroke-width: 1.25"/>
      </g>
     </g>
     <g id="text_11">
      <text style="font-size: 16px; font-family: 'Arial', sans-serif; text-anchor: end; fill: #262626" x="76.9" y="247.64625" transform="rotate(-0 76.9 247.64625)">0.4</text>
     </g>
    </g>
    <g id="ytick_4">
     <g id="line2d_11">
      <g>
       <use xlink:href="#me55516e91e" x="86.4" y="190.08" style="fill: #262626; stroke: #262626; stroke-width: 1.25"/>
      </g>
     </g>
     <g id="text_12">
      <text style="font-size: 16px; font-family: 'Arial', sans-serif; text-anchor: end; fill: #262626" x="76.9" y="195.80625" transform="rotate(-0 76.9 195.80625)">0.6</text>
     </g>
    </g>
    <g id="ytick_5">
     <g id="line2d_12">
      <g>
       <use xlink:href="#me55516e91e" x="86.4" y="138.24" style="fill: #262626; stroke: #262626; stroke-width: 1.25"/>
      </g>
     </g>
     <g id="text_13">
      <text style="font-size: 16px; font-family: 'Arial', sans-serif; text-anchor: end; fill: #262626" x="76.9" y="143.96625" transform="rotate(-0 76.9 143.96625)">0.8</text>
     </g>
    </g>
    <g id="ytick_6">
     <g id="line2d_13">
      <g>
       <use xlink:href="#me55516e91e" x="86.4" y="86.4" style="fill: #262626; stroke: #262626; stroke-width: 1.25"/>
      </g>
     </g>
     <g id="text_14">
      <text style="font-size: 16px; font-family: 'Arial', sans-serif; text-anchor: end; fill: #262626" x="76.9" y="92.12625" transform="rotate(-0 76.9 92.12625)">1.0</text>
     </g>
    </g>
    <g id="text_15">
     <text style="font-size: 16px; font-family: 'Arial', sans-serif; text-anchor: middle; fill: #262626" x="47.2925" y="216" transform="rotate(-90 47.2925 216)">Relative susceptibility</text>
    </g>
   </g>
   <g id="line2d_14">
    <path d="M 86.4 127.40442 
L 89.240548 126.231338 
L 89.950685 297.873336 
L 90.660822 312.660068 
L 91.370959 316.494114 
L 92.081096 317.732573 
L 92.791233 318.094053 
L 93.50137 318.107202 
L 94.921644 317.79136 
L 98.472329 316.617018 
L 103.443288 314.789343 
L 111.254795 311.513623 
L 116.225753 309.148061 
L 120.486575 306.945822 
L 126.167671 303.741257 
L 131.13863 300.70188 
L 138.24 295.93093 
L 143.921096 291.758719 
L 150.312329 286.707189 
L 156.703562 281.313396 
L 160.964384 277.548807 
L 168.065753 270.992957 
L 174.456986 264.836323 
L 187.239452 252.001917 
L 207.123288 231.402903 
L 218.485479 219.708414 
L 232.688219 205.546046 
L 242.630137 196.085223 
L 249.02137 190.223871 
L 258.253151 182.119997 
L 263.934247 177.349219 
L 270.325479 172.182814 
L 277.426849 166.700211 
L 285.238356 160.997778 
L 292.339726 156.088978 
L 300.86137 150.563251 
L 307.96274 146.245789 
L 315.06411 142.183502 
L 322.165479 138.367111 
L 329.976986 134.445346 
L 337.078356 131.116519 
L 344.179726 128.001674 
L 344.889863 127.702312 
L 344.889863 127.702312 
" clip-path="url(#p8f10a2b061)" style="fill: none; stroke: #de8f05; stroke-width: 2; stroke-linecap: round"/>
   </g>
   <g id="line2d_15">
    <path d="M 86.4 109.070271 
L 89.240548 108.349933 
L 89.950685 258.438839 
L 90.660822 280.898213 
L 91.370959 287.20829 
L 92.081096 289.29671 
L 92.791233 289.912226 
L 93.50137 289.93643 
L 94.921644 289.404267 
L 97.762192 287.855849 
L 103.443288 284.434427 
L 111.964932 278.706288 
L 123.327123 269.951637 
L 129.718356 264.52967 
L 133.269041 261.390715 
L 143.921096 251.37029 
L 154.573151 240.727357 
L 173.036712 221.522588 
L 192.920548 201.04195 
L 200.021918 193.998118 
L 212.094247 182.576145 
L 217.775342 177.449614 
L 224.166575 171.89912 
L 231.978082 165.450096 
L 237.659178 160.993835 
L 244.760548 155.694291 
L 251.151781 151.181802 
L 258.963288 146.004174 
L 266.064658 141.610343 
L 272.45589 137.898372 
L 280.267397 133.666427 
L 287.368767 130.093267 
L 295.180274 126.455693 
L 303.701918 122.812255 
L 310.803288 120.014474 
L 318.614795 117.18209 
L 325.716164 114.805877 
L 334.237808 112.191018 
L 342.049315 110.004148 
L 344.889863 109.253675 
L 344.889863 109.253675 
" clip-path="url(#p8f10a2b061)" style="fill: none; stroke: #0173b2; stroke-width: 2; stroke-linecap: round"/>
   </g>
   <g id="line2d_16">
    <path d="M 86.4 97.710148 
L 89.240548 97.321752 
L 89.950685 208.963533 
L 90.660822 235.516842 
L 91.370959 243.704495 
L 92.081096 246.495495 
L 92.791233 247.327836 
L 93.50137 247.363362 
L 94.211507 247.077277 
L 95.631781 246.171184 
L 100.60274 242.411805 
L 111.254795 233.605119 
L 117.646027 227.911562 
L 130.428493 215.947811 
L 156.703562 190.33764 
L 177.297534 171.305039 
L 182.268493 167.003758 
L 187.949589 162.260379 
L 192.920548 158.264919 
L 197.891507 154.419588 
L 204.992877 149.184805 
L 212.094247 144.287087 
L 217.065205 141.038044 
L 223.456438 137.086291 
L 229.137534 133.782922 
L 236.238904 129.921744 
L 243.340274 126.34354 
L 251.151781 122.726506 
L 259.673425 119.128567 
L 268.195068 115.873668 
L 276.006575 113.162213 
L 283.818082 110.695653 
L 292.339726 108.259664 
L 301.571507 105.894958 
L 310.093151 103.938543 
L 319.324932 102.043361 
L 329.266849 100.234284 
L 339.208767 98.637854 
L 344.889863 97.809253 
L 344.889863 97.809253 
" clip-path="url(#p8f10a2b061)" style="fill: none; stroke: #029e73; stroke-width: 2; stroke-linecap: round"/>
   </g>
   <g id="patch_3">
    <path d="M 86.4 345.6 
L 86.4 86.4 
" style="fill: none; stroke: #262626; stroke-width: 1.25; stroke-linejoin: miter; stroke-linecap: square"/>
   </g>
   <g id="patch_4">
    <path d="M 86.4 345.6 
L 345.6 345.6 
" style="fill: none; stroke: #262626; stroke-width: 1.25; stroke-linejoin: miter; stroke-linecap: square"/>
   </g>
   <g id="legend_1">
    <g id="patch_5">
     <path d="M 218.48 338.6 
L 335.8 338.6 
Q 338.6 338.6 338.6 335.8 
L 338.6 275.88 
Q 338.6 273.08 335.8 273.08 
L 218.48 273.08 
Q 215.68 273.08 215.68 275.88 
L 215.68 335.8 
Q 215.68 338.6 218.48 338.6 
z
" style="fill: #ffffff; opacity: 0.8; stroke: #cccccc; stroke-linejoin: miter"/>
    </g>
    <g id="line2d_17">
     <path d="M 221.28 284 
L 235.28 284 
L 249.28 284 
" style="fill: none; stroke: #de8f05; stroke-width: 2; stroke-linecap: round"/>
    </g>
    <g id="text_16">
     <!-- $\it{A_{1/2}}$ = 500 -->
     <g style="fill: #262626" transform="translate(260.48 288.9)">
      <text>
       <tspan x="0" y="-0.796875" style="font-style: oblique; font-size: 14px; font-family: 'DejaVu Sans'; fill: #262626">A</tspan>
       <tspan x="9.577148" y="1.5" style="font-size: 9.8px; font-family: 'DejaVu Sans'; fill: #262626">1</tspan>
       <tspan x="15.812207" y="1.5" style="font-size: 9.8px; font-family: 'DejaVu Sans'; fill: #262626">/</tspan>
       <tspan x="18.763965" y="1.5" style="font-size: 9.8px; font-family: 'DejaVu Sans'; fill: #262626">2</tspan>
       <tspan x="25.381836" y="-0.796875" style="font-size: 14px; font-family: 'Arial'; fill: #262626"> </tspan>
       <tspan x="29.271484" y="-0.796875" style="font-size: 14px; font-family: 'Arial'; fill: #262626">=</tspan>
       <tspan x="37.447266" y="-0.796875" style="font-size: 14px; font-family: 'Arial'; fill: #262626"> </tspan>
       <tspan x="41.336914" y="-0.796875" style="font-size: 14px; font-family: 'Arial'; fill: #262626">5</tspan>
       <tspan x="49.123047" y="-0.796875" style="font-size: 14px; font-family: 'Arial'; fill: #262626">0</tspan>
       <tspan x="56.90918" y="-0.796875" style="font-size: 14px; font-family: 'Arial'; fill: #262626">0</tspan>
      </text>
     </g>
    </g>
    <g id="line2d_18">
     <path d="M 221.28 304.44 
L 235.28 304.44 
L 249.28 304.44 
" style="fill: none; stroke: #0173b2; stroke-width: 2; stroke-linecap: round"/>
    </g>
    <g id="text_17">
     <!-- $\it{A_{1/2}}$ = 1000 -->
     <g style="fill: #262626" transform="translate(260.48 309.34)">
      <text>
       <tspan x="0" y="-0.796875" style="font-style: oblique; font-size: 14px; font-family: 'DejaVu Sans'; fill: #262626">A</tspan>
       <tspan x="9.577148" y="1.5" style="font-size: 9.8px; font-family: 'DejaVu Sans'; fill: #262626">1</tspan>
       <tspan x="15.812207" y="1.5" style="font-size: 9.8px; font-family: 'DejaVu Sans'; fill: #262626">/</tspan>
       <tspan x="18.763965" y="1.5" style="font-size: 9.8px; font-family: 'DejaVu Sans'; fill: #262626">2</tspan>
       <tspan x="25.381836" y="-0.796875" style="font-size: 14px; font-family: 'Arial'; fill: #262626"> </tspan>
       <tspan x="29.271484" y="-0.796875" style="font-size: 14px; font-family: 'Arial'; fill: #262626">=</tspan>
       <tspan x="37.447266" y="-0.796875" style="font-size: 14px; font-family: 'Arial'; fill: #262626"> </tspan>
       <tspan x="41.336914" y="-0.796875" style="font-size: 14px; font-family: 'Arial'; fill: #262626">1</tspan>
       <tspan x="49.123047" y="-0.796875" style="font-size: 14px; font-family: 'Arial'; fill: #262626">0</tspan>
       <tspan x="56.90918" y="-0.796875" style="font-size: 14px; font-family: 'Arial'; fill: #262626">0</tspan>
       <tspan x="64.695312" y="-0.796875" style="font-size: 14px; font-family: 'Arial'; fill: #262626">0</tspan>
      </text>
     </g>
    </g>
    <g id="line2d_19">
     <path d="M 221.28 324.88 
L 235.28 324.88 
L 249.28 324.88 
" style="fill: none; stroke: #029e73; stroke-width: 2; stroke-linecap: round"/>
    </g>
    <g id="text_18">
     <!-- $\it{A_{1/2}}$ = 2000 -->
     <g style="fill: #262626" transform="translate(260.48 329.78)">
      <text>
       <tspan x="0" y="-0.796875" style="font-style: oblique; font-size: 14px; font-family: 'DejaVu Sans'; fill: #262626">A</tspan>
       <tspan x="9.577148" y="1.5" style="font-size: 9.8px; font-family: 'DejaVu Sans'; fill: #262626">1</tspan>
       <tspan x="15.812207" y="1.5" style="font-size: 9.8px; font-family: 'DejaVu Sans'; fill: #262626">/</tspan>
       <tspan x="18.763965" y="1.5" style="font-size: 9.8px; font-family: 'DejaVu Sans'; fill: #262626">2</tspan>
       <tspan x="25.381836" y="-0.796875" style="font-size: 14px; font-family: 'Arial'; fill: #262626"> </tspan>
       <tspan x="29.271484" y="-0.796875" style="font-size: 14px; font-family: 'Arial'; fill: #262626">=</tspan>
       <tspan x="37.447266" y="-0.796875" style="font-size: 14px; font-family: 'Arial'; fill: #262626"> </tspan>
       <tspan x="41.336914" y="-0.796875" style="font-size: 14px; font-family: 'Arial'; fill: #262626">2</tspan>
       <tspan x="49.123047" y="-0.796875" style="font-size: 14px; font-family: 'Arial'; fill: #262626">0</tspan>
       <tspan x="56.90918" y="-0.796875" style="font-size: 14px; font-family: 'Arial'; fill: #262626">0</tspan>
       <tspan x="64.695312" y="-0.796875" style="font-size: 14px; font-family: 'Arial'; fill: #262626">0</tspan>
      </text>
     </g>
    </g>
   </g>
  </g>
 </g>
 <defs>
  <clipPath id="p8f10a2b061">
   <rect x="86.4" y="86.4" width="259.2" height="259.2"/>
  </clipPath>
 </defs>
</svg>
