<?xml version="1.0" encoding="utf-8" standalone="no"?>
<!DOCTYPE svg PUBLIC "-//W3C//DTD SVG 1.1//EN"
  "http://www.w3.org/Graphics/SVG/1.1/DTD/svg11.dtd">
<svg xmlns:xlink="http://www.w3.org/1999/xlink" width="432pt" height="432pt" viewBox="0 0 432 432" xmlns="http://www.w3.org/2000/svg" version="1.1">
 <metadata>
  <rdf:RDF xmlns:dc="http://purl.org/dc/elements/1.1/" xmlns:cc="http://creativecommons.org/ns#" xmlns:rdf="http://www.w3.org/1999/02/22-rdf-syntax-ns#">
   <cc:Work>
    <dc:type rdf:resource="http://purl.org/dc/dcmitype/StillImage"/>
    <dc:date>2024-05-30T15:30:15.582238</dc:date>
    <dc:format>image/svg+xml</dc:format>
    <dc:creator>
     <cc:Agent>
      <dc:title>Matplotlib v3.8.4, https://matplotlib.org/</dc:title>
     </cc:Agent>
    </dc:creator>
   </cc:Work>
  </rdf:RDF>
 </metadata>
 <defs>
  <style type="text/css">*{stroke-linejoin: round; stroke-linecap: butt}</style>
 </defs>
 <g id="figure_1">
  <g id="patch_1">
   <path d="M 0 432 
L 432 432 
L 432 0 
L 0 0 
L 0 432 
z
" style="fill: none"/>
  </g>
  <g id="axes_1">
   <g id="patch_2">
    <path d="M 86.4 345.6 
L 345.6 345.6 
L 345.6 86.4 
L 86.4 86.4 
L 86.4 345.6 
z
" style="fill: none"/>
   </g>
   <g id="matplotlib.axis_1">
    <g id="xtick_1">
     <g id="line2d_1">
      <defs>
       <path id="ma893ad0c0f" d="M 0 0 
L 0 6 
" style="stroke: #262626; stroke-width: 1.25"/>
      </defs>
      <g>
       <use xlink:href="#ma893ad0c0f" x="86.4" y="345.6" style="fill: #262626; stroke: #262626; stroke-width: 1.25"/>
      </g>
     </g>
     <g id="text_1">
      <text style="fill: #262626; font: 16px 'Arial', 'DejaVu Sans', 'Liberation Sans', 'Bitstream Vera Sans', sans-serif; text-anchor: middle" x="86.4" y="366.5525" transform="rotate(-0 86.4 366.5525)">0</text>
     </g>
    </g>
    <g id="xtick_2">
     <g id="line2d_2">
      <g>
       <use xlink:href="#ma893ad0c0f" x="129.6" y="345.6" style="fill: #262626; stroke: #262626; stroke-width: 1.25"/>
      </g>
     </g>
     <g id="text_2">
      <text style="fill: #262626; font: 16px 'Arial', 'DejaVu Sans', 'Liberation Sans', 'Bitstream Vera Sans', sans-serif; text-anchor: middle" x="129.6" y="366.5525" transform="rotate(-0 129.6 366.5525)">60</text>
     </g>
    </g>
    <g id="xtick_3">
     <g id="line2d_3">
      <g>
       <use xlink:href="#ma893ad0c0f" x="172.8" y="345.6" style="fill: #262626; stroke: #262626; stroke-width: 1.25"/>
      </g>
     </g>
     <g id="text_3">
      <text style="fill: #262626; font: 16px 'Arial', 'DejaVu Sans', 'Liberation Sans', 'Bitstream Vera Sans', sans-serif; text-anchor: middle" x="172.8" y="366.5525" transform="rotate(-0 172.8 366.5525)">120</text>
     </g>
    </g>
    <g id="xtick_4">
     <g id="line2d_4">
      <g>
       <use xlink:href="#ma893ad0c0f" x="216" y="345.6" style="fill: #262626; stroke: #262626; stroke-width: 1.25"/>
      </g>
     </g>
     <g id="text_4">
      <text style="fill: #262626; font: 16px 'Arial', 'DejaVu Sans', 'Liberation Sans', 'Bitstream Vera Sans', sans-serif; text-anchor: middle" x="216" y="366.5525" transform="rotate(-0 216 366.5525)">180</text>
     </g>
    </g>
    <g id="xtick_5">
     <g id="line2d_5">
      <g>
       <use xlink:href="#ma893ad0c0f" x="259.2" y="345.6" style="fill: #262626; stroke: #262626; stroke-width: 1.25"/>
      </g>
     </g>
     <g id="text_5">
      <text style="fill: #262626; font: 16px 'Arial', 'DejaVu Sans', 'Liberation Sans', 'Bitstream Vera Sans', sans-serif; text-anchor: middle" x="259.2" y="366.5525" transform="rotate(-0 259.2 366.5525)">240</text>
     </g>
    </g>
    <g id="xtick_6">
     <g id="line2d_6">
      <g>
       <use xlink:href="#ma893ad0c0f" x="302.4" y="345.6" style="fill: #262626; stroke: #262626; stroke-width: 1.25"/>
      </g>
     </g>
     <g id="text_6">
      <text style="fill: #262626; font: 16px 'Arial', 'DejaVu Sans', 'Liberation Sans', 'Bitstream Vera Sans', sans-serif; text-anchor: middle" x="302.4" y="366.5525" transform="rotate(-0 302.4 366.5525)">300</text>
     </g>
    </g>
    <g id="xtick_7">
     <g id="line2d_7">
      <g>
       <use xlink:href="#ma893ad0c0f" x="345.6" y="345.6" style="fill: #262626; stroke: #262626; stroke-width: 1.25"/>
      </g>
     </g>
     <g id="text_7">
      <text style="fill: #262626; font: 16px 'Arial', 'DejaVu Sans', 'Liberation Sans', 'Bitstream Vera Sans', sans-serif; text-anchor: middle" x="345.6" y="366.5525" transform="rotate(-0 345.6 366.5525)">360</text>
     </g>
    </g>
    <g id="text_8">
     <text style="fill: #262626; font: 16px 'Arial', 'DejaVu Sans', 'Liberation Sans', 'Bitstream Vera Sans', sans-serif; text-anchor: middle" x="216" y="385.38" transform="rotate(-0 216 385.38)">Time since vaccination (days)</text>
    </g>
   </g>
   <g id="matplotlib.axis_2">
    <g id="ytick_1">
     <g id="line2d_8">
      <defs>
       <path id="m6c5367823b" d="M 0 0 
L -6 0 
" style="stroke: #262626; stroke-width: 1.25"/>
      </defs>
      <g>
       <use xlink:href="#m6c5367823b" x="86.4" y="345.6" style="fill: #262626; stroke: #262626; stroke-width: 1.25"/>
      </g>
     </g>
     <g id="text_9">
      <text style="fill: #262626; font: 16px 'Arial', 'DejaVu Sans', 'Liberation Sans', 'Bitstream Vera Sans', sans-serif; text-anchor: end" x="76.9" y="351.32625" transform="rotate(-0 76.9 351.32625)">0.0</text>
     </g>
    </g>
    <g id="ytick_2">
     <g id="line2d_9">
      <g>
       <use xlink:href="#m6c5367823b" x="86.4" y="293.76" style="fill: #262626; stroke: #262626; stroke-width: 1.25"/>
      </g>
     </g>
     <g id="text_10">
      <text style="fill: #262626; font: 16px 'Arial', 'DejaVu Sans', 'Liberation Sans', 'Bitstream Vera Sans', sans-serif; text-anchor: end" x="76.9" y="299.48625" transform="rotate(-0 76.9 299.48625)">0.2</text>
     </g>
    </g>
    <g id="ytick_3">
     <g id="line2d_10">
      <g>
       <use xlink:href="#m6c5367823b" x="86.4" y="241.92" style="fill: #262626; stroke: #262626; stroke-width: 1.25"/>
      </g>
     </g>
     <g id="text_11">
      <text style="fill: #262626; font: 16px 'Arial', 'DejaVu Sans', 'Liberation Sans', 'Bitstream Vera Sans', sans-serif; text-anchor: end" x="76.9" y="247.64625" transform="rotate(-0 76.9 247.64625)">0.4</text>
     </g>
    </g>
    <g id="ytick_4">
     <g id="line2d_11">
      <g>
       <use xlink:href="#m6c5367823b" x="86.4" y="190.08" style="fill: #262626; stroke: #262626; stroke-width: 1.25"/>
      </g>
     </g>
     <g id="text_12">
      <text style="fill: #262626; font: 16px 'Arial', 'DejaVu Sans', 'Liberation Sans', 'Bitstream Vera Sans', sans-serif; text-anchor: end" x="76.9" y="195.80625" transform="rotate(-0 76.9 195.80625)">0.6</text>
     </g>
    </g>
    <g id="ytick_5">
     <g id="line2d_12">
      <g>
       <use xlink:href="#m6c5367823b" x="86.4" y="138.24" style="fill: #262626; stroke: #262626; stroke-width: 1.25"/>
      </g>
     </g>
     <g id="text_13">
      <text style="fill: #262626; font: 16px 'Arial', 'DejaVu Sans', 'Liberation Sans', 'Bitstream Vera Sans', sans-serif; text-anchor: end" x="76.9" y="143.96625" transform="rotate(-0 76.9 143.96625)">0.8</text>
     </g>
    </g>
    <g id="ytick_6">
     <g id="line2d_13">
      <g>
       <use xlink:href="#m6c5367823b" x="86.4" y="86.4" style="fill: #262626; stroke: #262626; stroke-width: 1.25"/>
      </g>
     </g>
     <g id="text_14">
      <text style="fill: #262626; font: 16px 'Arial', 'DejaVu Sans', 'Liberation Sans', 'Bitstream Vera Sans', sans-serif; text-anchor: end" x="76.9" y="92.12625" transform="rotate(-0 76.9 92.12625)">1.0</text>
     </g>
    </g>
    <g id="text_15">
     <text style="fill: #262626; font: 16px 'Arial', 'DejaVu Sans', 'Liberation Sans', 'Bitstream Vera Sans', sans-serif; text-anchor: middle" x="47.2925" y="216" transform="rotate(-90 47.2925 216)">Relative susceptibility</text>
    </g>
   </g>
   <g id="line2d_14">
    <path d="M 86.4 126.535171 
L 89.28 125.397977 
L 90 298.388564 
L 90.72 312.995822 
L 91.44 316.77994 
L 92.16 317.999882 
L 92.88 318.353104 
L 93.6 318.361747 
L 95.04 318.040508 
L 98.64 316.854166 
L 103.68 315.003747 
L 111.6 311.679529 
L 116.64 309.27467 
L 120.96 307.034142 
L 126.72 303.770912 
L 131.76 300.674083 
L 138.96 295.808296 
L 144 292.090538 
L 148.32 288.737193 
L 156.24 282.1668 
L 167.04 272.454859 
L 178.56 261.322716 
L 194.4 245.222785 
L 216 222.793615 
L 231.12 207.440367 
L 241.92 196.903157 
L 249.84 189.475934 
L 256.32 183.613109 
L 264.24 176.745154 
L 272.88 169.64789 
L 280.08 164.053653 
L 288 158.258837 
L 295.2 153.297224 
L 303.84 147.752793 
L 310.32 143.86822 
L 317.52 139.821098 
L 324 136.413535 
L 331.2 132.879125 
L 339.12 129.272667 
L 344.88 126.830507 
L 344.88 126.830507 
" clip-path="url(#p4558e722d0)" style="fill: none; stroke: #dd8452; stroke-width: 2; stroke-linecap: round"/>
   </g>
   <g id="line2d_15">
    <path d="M 86.4 108.821723 
L 89.28 108.140024 
L 90 259.276552 
L 90.72 281.544064 
L 91.44 287.784176 
L 92.16 289.844118 
L 92.88 290.446087 
L 93.6 290.462352 
L 95.04 289.919836 
L 97.92 288.352995 
L 103.68 284.886757 
L 112.32 279.074425 
L 123.12 270.7864 
L 135.36 260.098768 
L 138.96 256.76449 
L 145.44 250.506084 
L 163.44 232.160832 
L 175.68 219.332966 
L 183.6 211.065793 
L 191.52 202.929182 
L 200.16 194.262405 
L 205.92 188.641399 
L 212.4 182.492572 
L 221.76 174.029022 
L 228.24 168.435218 
L 235.44 162.524359 
L 243.36 156.40272 
L 251.28 150.66783 
L 259.2 145.331483 
L 267.12 140.393308 
L 274.32 136.2312 
L 280.8 132.742901 
L 287.28 129.490152 
L 295.2 125.813062 
L 303.84 122.161734 
L 311.04 119.380629 
L 318.24 116.816599 
L 326.16 114.235749 
L 334.08 111.882664 
L 342 109.734724 
L 344.88 109.000742 
L 344.88 109.000742 
" clip-path="url(#p4558e722d0)" style="fill: none; stroke: #4c72b0; stroke-width: 2; stroke-linecap: round"/>
   </g>
   <g id="line2d_16">
    <path d="M 86.4 97.799989 
L 89.28 97.431964 
L 90 209.912748 
L 90.72 236.435307 
L 91.44 244.582304 
L 92.16 247.350486 
L 92.88 248.168705 
L 93.6 248.193299 
L 94.32 247.897923 
L 95.76 246.973735 
L 100.8 243.146423 
L 110.16 235.370502 
L 118.08 228.336989 
L 131.04 216.091763 
L 157.68 189.933554 
L 177.84 171.186169 
L 183.6 166.15896 
L 188.64 161.923064 
L 195.12 156.678529 
L 201.6 151.695474 
L 210.24 145.485808 
L 218.16 140.200258 
L 226.08 135.321174 
L 233.28 131.234796 
L 238.32 128.551194 
L 244.8 125.329367 
L 249.84 122.983214 
L 255.6 120.473135 
L 261.36 118.124107 
L 268.56 115.422807 
L 275.04 113.187153 
L 282.96 110.693966 
L 290.88 108.43982 
L 298.08 106.579204 
L 308.16 104.245925 
L 318.24 102.197425 
L 327.6 100.516979 
L 338.4 98.812554 
L 344.88 97.896749 
L 344.88 97.896749 
" clip-path="url(#p4558e722d0)" style="fill: none; stroke: #55a868; stroke-width: 2; stroke-linecap: round"/>
   </g>
   <g id="patch_3">
    <path d="M 86.4 345.6 
L 86.4 86.4 
" style="fill: none; stroke: #262626; stroke-width: 1.25; stroke-linejoin: miter; stroke-linecap: square"/>
   </g>
   <g id="patch_4">
    <path d="M 86.4 345.6 
L 345.6 345.6 
" style="fill: none; stroke: #262626; stroke-width: 1.25; stroke-linejoin: miter; stroke-linecap: square"/>
   </g>
   <g id="legend_1">
    <g id="patch_5">
     <path d="M 218.48 338.6 
L 335.8 338.6 
Q 338.6 338.6 338.6 335.8 
L 338.6 275.88 
Q 338.6 273.08 335.8 273.08 
L 218.48 273.08 
Q 215.68 273.08 215.68 275.88 
L 215.68 335.8 
Q 215.68 338.6 218.48 338.6 
z
" style="fill: #ffffff; opacity: 0.8; stroke: #cccccc; stroke-linejoin: miter"/>
    </g>
    <g id="line2d_17">
     <path d="M 221.28 284 
L 235.28 284 
L 249.28 284 
" style="fill: none; stroke: #dd8452; stroke-width: 2; stroke-linecap: round"/>
    </g>
    <g id="text_16">
     <!-- $\it{A_{1/2}}$ = 500 -->
     <g style="fill: #262626" transform="translate(260.48 288.9)">
      <text>
       <tspan style="font: oblique 14px 'DejaVu Sans'" x="0" y="-0.796875">A</tspan>
       <tspan style="font: 9.8px 'DejaVu Sans'" x="9.577148 15.812207 18.763965" y="1.5">1/2</tspan>
       <tspan style="font: 14px 'Arial'" x="25.381836 29.271484 37.447266 41.336914 49.123047 56.90918" y="-0.796875"> = 500</tspan>
      </text>
     </g>
    </g>
    <g id="line2d_18">
     <path d="M 221.28 304.44 
L 235.28 304.44 
L 249.28 304.44 
" style="fill: none; stroke: #4c72b0; stroke-width: 2; stroke-linecap: round"/>
    </g>
    <g id="text_17">
     <!-- $\it{A_{1/2}}$ = 1000 -->
     <g style="fill: #262626" transform="translate(260.48 309.34)">
      <text>
       <tspan style="font: oblique 14px 'DejaVu Sans'" x="0" y="-0.796875">A</tspan>
       <tspan style="font: 9.8px 'DejaVu Sans'" x="9.577148 15.812207 18.763965" y="1.5">1/2</tspan>
       <tspan style="font: 14px 'Arial'" x="25.381836 29.271484 37.447266 41.336914 49.123047 56.90918 64.695312" y="-0.796875"> = 1000</tspan>
      </text>
     </g>
    </g>
    <g id="line2d_19">
     <path d="M 221.28 324.88 
L 235.28 324.88 
L 249.28 324.88 
" style="fill: none; stroke: #55a868; stroke-width: 2; stroke-linecap: round"/>
    </g>
    <g id="text_18">
     <!-- $\it{A_{1/2}}$ = 2000 -->
     <g style="fill: #262626" transform="translate(260.48 329.78)">
      <text>
       <tspan style="font: oblique 14px 'DejaVu Sans'" x="0" y="-0.796875">A</tspan>
       <tspan style="font: 9.8px 'DejaVu Sans'" x="9.577148 15.812207 18.763965" y="1.5">1/2</tspan>
       <tspan style="font: 14px 'Arial'" x="25.381836 29.271484 37.447266 41.336914 49.123047 56.90918 64.695312" y="-0.796875"> = 2000</tspan>
      </text>
     </g>
    </g>
   </g>
  </g>
 </g>
 <defs>
  <clipPath id="p4558e722d0">
   <rect x="86.4" y="86.4" width="259.2" height="259.2"/>
  </clipPath>
 </defs>
</svg>
