<?xml version="1.0" encoding="utf-8" standalone="no"?>
<!DOCTYPE svg PUBLIC "-//W3C//DTD SVG 1.1//EN"
  "http://www.w3.org/Graphics/SVG/1.1/DTD/svg11.dtd">
<svg xmlns:xlink="http://www.w3.org/1999/xlink" width="432pt" height="432pt" viewBox="0 0 432 432" xmlns="http://www.w3.org/2000/svg" version="1.1">
 <metadata>
  <rdf:RDF xmlns:dc="http://purl.org/dc/elements/1.1/" xmlns:cc="http://creativecommons.org/ns#" xmlns:rdf="http://www.w3.org/1999/02/22-rdf-syntax-ns#">
   <cc:Work>
    <dc:type rdf:resource="http://purl.org/dc/dcmitype/StillImage"/>
    <dc:date>2024-05-21T13:14:13.686972</dc:date>
    <dc:format>image/svg+xml</dc:format>
    <dc:creator>
     <cc:Agent>
      <dc:title>Matplotlib v3.8.4, https://matplotlib.org/</dc:title>
     </cc:Agent>
    </dc:creator>
   </cc:Work>
  </rdf:RDF>
 </metadata>
 <defs>
  <style type="text/css">*{stroke-linejoin: round; stroke-linecap: butt}</style>
 </defs>
 <g id="figure_1">
  <g id="patch_1">
   <path d="M 0 432 
L 432 432 
L 432 0 
L 0 0 
L 0 432 
z
" style="fill: none"/>
  </g>
  <g id="axes_1">
   <g id="patch_2">
    <path d="M 86.4 345.6 
L 345.6 345.6 
L 345.6 86.4 
L 86.4 86.4 
L 86.4 345.6 
z
" style="fill: none"/>
   </g>
   <g id="matplotlib.axis_1">
    <g id="xtick_1">
     <g id="line2d_1">
      <defs>
       <path id="mb1ccbd14cf" d="M 0 0 
L 0 6 
" style="stroke: #262626; stroke-width: 1.25"/>
      </defs>
      <g>
       <use xlink:href="#mb1ccbd14cf" x="86.4" y="345.6" style="fill: #262626; stroke: #262626; stroke-width: 1.25"/>
      </g>
     </g>
     <g id="text_1">
      <text style="fill: #262626; font: 16px 'Arial', 'DejaVu Sans', 'Liberation Sans', 'Bitstream Vera Sans', sans-serif; text-anchor: middle" x="86.4" y="366.5525" transform="rotate(-0 86.4 366.5525)">0</text>
     </g>
    </g>
    <g id="xtick_2">
     <g id="line2d_2">
      <g>
       <use xlink:href="#mb1ccbd14cf" x="129.6" y="345.6" style="fill: #262626; stroke: #262626; stroke-width: 1.25"/>
      </g>
     </g>
     <g id="text_2">
      <text style="fill: #262626; font: 16px 'Arial', 'DejaVu Sans', 'Liberation Sans', 'Bitstream Vera Sans', sans-serif; text-anchor: middle" x="129.6" y="366.5525" transform="rotate(-0 129.6 366.5525)">60</text>
     </g>
    </g>
    <g id="xtick_3">
     <g id="line2d_3">
      <g>
       <use xlink:href="#mb1ccbd14cf" x="172.8" y="345.6" style="fill: #262626; stroke: #262626; stroke-width: 1.25"/>
      </g>
     </g>
     <g id="text_3">
      <text style="fill: #262626; font: 16px 'Arial', 'DejaVu Sans', 'Liberation Sans', 'Bitstream Vera Sans', sans-serif; text-anchor: middle" x="172.8" y="366.5525" transform="rotate(-0 172.8 366.5525)">120</text>
     </g>
    </g>
    <g id="xtick_4">
     <g id="line2d_4">
      <g>
       <use xlink:href="#mb1ccbd14cf" x="216" y="345.6" style="fill: #262626; stroke: #262626; stroke-width: 1.25"/>
      </g>
     </g>
     <g id="text_4">
      <text style="fill: #262626; font: 16px 'Arial', 'DejaVu Sans', 'Liberation Sans', 'Bitstream Vera Sans', sans-serif; text-anchor: middle" x="216" y="366.5525" transform="rotate(-0 216 366.5525)">180</text>
     </g>
    </g>
    <g id="xtick_5">
     <g id="line2d_5">
      <g>
       <use xlink:href="#mb1ccbd14cf" x="259.2" y="345.6" style="fill: #262626; stroke: #262626; stroke-width: 1.25"/>
      </g>
     </g>
     <g id="text_5">
      <text style="fill: #262626; font: 16px 'Arial', 'DejaVu Sans', 'Liberation Sans', 'Bitstream Vera Sans', sans-serif; text-anchor: middle" x="259.2" y="366.5525" transform="rotate(-0 259.2 366.5525)">240</text>
     </g>
    </g>
    <g id="xtick_6">
     <g id="line2d_6">
      <g>
       <use xlink:href="#mb1ccbd14cf" x="302.4" y="345.6" style="fill: #262626; stroke: #262626; stroke-width: 1.25"/>
      </g>
     </g>
     <g id="text_6">
      <text style="fill: #262626; font: 16px 'Arial', 'DejaVu Sans', 'Liberation Sans', 'Bitstream Vera Sans', sans-serif; text-anchor: middle" x="302.4" y="366.5525" transform="rotate(-0 302.4 366.5525)">300</text>
     </g>
    </g>
    <g id="xtick_7">
     <g id="line2d_7">
      <g>
       <use xlink:href="#mb1ccbd14cf" x="345.6" y="345.6" style="fill: #262626; stroke: #262626; stroke-width: 1.25"/>
      </g>
     </g>
     <g id="text_7">
      <text style="fill: #262626; font: 16px 'Arial', 'DejaVu Sans', 'Liberation Sans', 'Bitstream Vera Sans', sans-serif; text-anchor: middle" x="345.6" y="366.5525" transform="rotate(-0 345.6 366.5525)">360</text>
     </g>
    </g>
    <g id="text_8">
     <text style="fill: #262626; font: 16px 'Arial', 'DejaVu Sans', 'Liberation Sans', 'Bitstream Vera Sans', sans-serif; text-anchor: middle" x="216" y="385.38" transform="rotate(-0 216 385.38)">Time since vaccination (days)</text>
    </g>
   </g>
   <g id="matplotlib.axis_2">
    <g id="ytick_1">
     <g id="line2d_8">
      <defs>
       <path id="mc53dd495a3" d="M 0 0 
L -6 0 
" style="stroke: #262626; stroke-width: 1.25"/>
      </defs>
      <g>
       <use xlink:href="#mc53dd495a3" x="86.4" y="345.6" style="fill: #262626; stroke: #262626; stroke-width: 1.25"/>
      </g>
     </g>
     <g id="text_9">
      <text style="fill: #262626; font: 16px 'Arial', 'DejaVu Sans', 'Liberation Sans', 'Bitstream Vera Sans', sans-serif; text-anchor: end" x="76.9" y="351.32625" transform="rotate(-0 76.9 351.32625)">0.0</text>
     </g>
    </g>
    <g id="ytick_2">
     <g id="line2d_9">
      <g>
       <use xlink:href="#mc53dd495a3" x="86.4" y="293.76" style="fill: #262626; stroke: #262626; stroke-width: 1.25"/>
      </g>
     </g>
     <g id="text_10">
      <text style="fill: #262626; font: 16px 'Arial', 'DejaVu Sans', 'Liberation Sans', 'Bitstream Vera Sans', sans-serif; text-anchor: end" x="76.9" y="299.48625" transform="rotate(-0 76.9 299.48625)">0.2</text>
     </g>
    </g>
    <g id="ytick_3">
     <g id="line2d_10">
      <g>
       <use xlink:href="#mc53dd495a3" x="86.4" y="241.92" style="fill: #262626; stroke: #262626; stroke-width: 1.25"/>
      </g>
     </g>
     <g id="text_11">
      <text style="fill: #262626; font: 16px 'Arial', 'DejaVu Sans', 'Liberation Sans', 'Bitstream Vera Sans', sans-serif; text-anchor: end" x="76.9" y="247.64625" transform="rotate(-0 76.9 247.64625)">0.4</text>
     </g>
    </g>
    <g id="ytick_4">
     <g id="line2d_11">
      <g>
       <use xlink:href="#mc53dd495a3" x="86.4" y="190.08" style="fill: #262626; stroke: #262626; stroke-width: 1.25"/>
      </g>
     </g>
     <g id="text_12">
      <text style="fill: #262626; font: 16px 'Arial', 'DejaVu Sans', 'Liberation Sans', 'Bitstream Vera Sans', sans-serif; text-anchor: end" x="76.9" y="195.80625" transform="rotate(-0 76.9 195.80625)">0.6</text>
     </g>
    </g>
    <g id="ytick_5">
     <g id="line2d_12">
      <g>
       <use xlink:href="#mc53dd495a3" x="86.4" y="138.24" style="fill: #262626; stroke: #262626; stroke-width: 1.25"/>
      </g>
     </g>
     <g id="text_13">
      <text style="fill: #262626; font: 16px 'Arial', 'DejaVu Sans', 'Liberation Sans', 'Bitstream Vera Sans', sans-serif; text-anchor: end" x="76.9" y="143.96625" transform="rotate(-0 76.9 143.96625)">0.8</text>
     </g>
    </g>
    <g id="ytick_6">
     <g id="line2d_13">
      <g>
       <use xlink:href="#mc53dd495a3" x="86.4" y="86.4" style="fill: #262626; stroke: #262626; stroke-width: 1.25"/>
      </g>
     </g>
     <g id="text_14">
      <text style="fill: #262626; font: 16px 'Arial', 'DejaVu Sans', 'Liberation Sans', 'Bitstream Vera Sans', sans-serif; text-anchor: end" x="76.9" y="92.12625" transform="rotate(-0 76.9 92.12625)">1.0</text>
     </g>
    </g>
    <g id="text_15">
     <text style="fill: #262626; font: 16px 'Arial', 'DejaVu Sans', 'Liberation Sans', 'Bitstream Vera Sans', sans-serif; text-anchor: middle" x="47.2925" y="216" transform="rotate(-90 47.2925 216)">Relative susceptibility</text>
    </g>
   </g>
   <g id="PolyCollection_1">
    <defs>
     <path id="m45dde365cf" d="M 86.4 -345.6 
L 86.4 -345.6 
L 87.12 -345.6 
L 87.84 -345.6 
L 88.56 -345.6 
L 89.28 -345.6 
L 90 -92.84137 
L 90.72 -90.154043 
L 91.44 -89.576113 
L 92.16 -89.402659 
L 92.88 -89.356365 
L 93.6 -89.359692 
L 94.32 -89.373464 
L 95.04 -89.393297 
L 95.76 -89.417131 
L 96.48 -89.443411 
L 97.2 -89.469776 
L 97.92 -89.497757 
L 98.64 -89.52658 
L 99.36 -89.555382 
L 100.08 -89.597969 
L 100.8 -89.620001 
L 101.52 -89.662449 
L 102.24 -89.710433 
L 102.96 -89.758071 
L 103.68 -89.804935 
L 104.4 -89.830191 
L 105.12 -89.851224 
L 105.84 -89.870333 
L 106.56 -89.89451 
L 107.28 -89.922162 
L 108 -89.943679 
L 108.72 -89.962669 
L 109.44 -89.993744 
L 110.16 -90.034635 
L 110.88 -90.062529 
L 111.6 -90.076532 
L 112.32 -90.097074 
L 113.04 -90.118052 
L 113.76 -90.13507 
L 114.48 -90.159119 
L 115.2 -90.187431 
L 115.92 -90.232617 
L 116.64 -90.296677 
L 117.36 -90.355605 
L 118.08 -90.421629 
L 118.8 -90.487792 
L 119.52 -90.527331 
L 120.24 -90.572848 
L 120.96 -90.625425 
L 121.68 -90.708799 
L 122.4 -90.795965 
L 123.12 -90.893054 
L 123.84 -90.987547 
L 124.56 -91.075776 
L 125.28 -91.171547 
L 126 -91.20955 
L 126.72 -91.238515 
L 127.44 -91.256908 
L 128.16 -91.280069 
L 128.88 -91.309865 
L 129.6 -91.334531 
L 130.32 -91.356525 
L 131.04 -91.383687 
L 131.76 -91.434022 
L 132.48 -91.528877 
L 133.2 -91.626109 
L 133.92 -91.679486 
L 134.64 -91.728009 
L 135.36 -91.798728 
L 136.08 -91.875053 
L 136.8 -91.955415 
L 137.52 -92.040433 
L 138.24 -92.115166 
L 138.96 -92.201984 
L 139.68 -92.244552 
L 140.4 -92.286052 
L 141.12 -92.359475 
L 141.84 -92.434021 
L 142.56 -92.515511 
L 143.28 -92.60085 
L 144 -92.691319 
L 144.72 -92.774467 
L 145.44 -92.863999 
L 146.16 -92.956493 
L 146.88 -93.032914 
L 147.6 -93.101496 
L 148.32 -93.170751 
L 149.04 -93.208418 
L 149.76 -93.251529 
L 150.48 -93.298871 
L 151.2 -93.340195 
L 151.92 -93.370052 
L 152.64 -93.408017 
L 153.36 -93.458577 
L 154.08 -93.510309 
L 154.8 -93.539482 
L 155.52 -93.604275 
L 156.24 -93.676115 
L 156.96 -93.734621 
L 157.68 -93.793056 
L 158.4 -93.8618 
L 159.12 -93.939892 
L 159.84 -94.008976 
L 160.56 -94.069365 
L 161.28 -94.140511 
L 162 -94.219762 
L 162.72 -94.288369 
L 163.44 -94.358153 
L 164.16 -94.43614 
L 164.88 -94.536724 
L 165.6 -94.64462 
L 166.32 -94.744761 
L 167.04 -94.852391 
L 167.76 -94.945038 
L 168.48 -94.995756 
L 169.2 -95.056825 
L 169.92 -95.127667 
L 170.64 -95.187615 
L 171.36 -95.246568 
L 172.08 -95.314135 
L 172.8 -95.393056 
L 173.52 -95.477064 
L 174.24 -95.556842 
L 174.96 -95.645784 
L 175.68 -95.738384 
L 176.4 -95.821621 
L 177.12 -95.908138 
L 177.84 -96.004105 
L 178.56 -96.101212 
L 179.28 -96.187057 
L 180 -96.276575 
L 180.72 -96.381353 
L 181.44 -96.492072 
L 182.16 -96.622929 
L 182.88 -96.778352 
L 183.6 -96.929671 
L 184.32 -97.068586 
L 185.04 -97.217062 
L 185.76 -97.379008 
L 186.48 -97.535311 
L 187.2 -97.688071 
L 187.92 -97.850397 
L 188.64 -98.01886 
L 189.36 -98.11231 
L 190.08 -98.173285 
L 190.8 -98.242398 
L 191.52 -98.327702 
L 192.24 -98.404427 
L 192.96 -98.472438 
L 193.68 -98.552291 
L 194.4 -98.636947 
L 195.12 -98.70906 
L 195.84 -98.783986 
L 196.56 -98.913752 
L 197.28 -99.056154 
L 198 -99.208728 
L 198.72 -99.364542 
L 199.44 -99.514212 
L 200.16 -99.643619 
L 200.88 -99.747913 
L 201.6 -99.838861 
L 202.32 -99.948568 
L 203.04 -100.067947 
L 203.76 -100.168695 
L 204.48 -100.274027 
L 205.2 -100.391312 
L 205.92 -100.51201 
L 206.64 -100.623671 
L 207.36 -100.722409 
L 208.08 -100.845358 
L 208.8 -100.95848 
L 209.52 -101.058686 
L 210.24 -101.175921 
L 210.96 -101.313965 
L 211.68 -101.443424 
L 212.4 -101.545075 
L 213.12 -101.662822 
L 213.84 -101.798666 
L 214.56 -101.917949 
L 215.28 -102.035634 
L 216 -102.166802 
L 216.72 -102.300226 
L 217.44 -102.420883 
L 218.16 -102.548533 
L 218.88 -102.68919 
L 219.6 -102.826476 
L 220.32 -102.942082 
L 221.04 -103.068509 
L 221.76 -103.22068 
L 222.48 -103.377588 
L 223.2 -103.502343 
L 223.92 -103.631865 
L 224.64 -103.858528 
L 225.36 -103.939329 
L 226.08 -104.061086 
L 226.8 -104.20454 
L 227.52 -104.3568 
L 228.24 -104.495774 
L 228.96 -104.639659 
L 229.68 -104.797609 
L 230.4 -104.960602 
L 231.12 -105.183842 
L 231.84 -105.430036 
L 232.56 -105.661342 
L 233.28 -105.887434 
L 234 -106.006661 
L 234.72 -106.138054 
L 235.44 -106.295991 
L 236.16 -106.440812 
L 236.88 -106.571924 
L 237.6 -106.720434 
L 238.32 -106.877529 
L 239.04 -107.015282 
L 239.76 -107.157043 
L 240.48 -107.317007 
L 241.2 -107.479761 
L 241.92 -107.614829 
L 242.64 -107.754527 
L 243.36 -107.926174 
L 244.08 -108.130737 
L 244.8 -108.299135 
L 245.52 -108.453993 
L 246.24 -108.629229 
L 246.96 -108.83131 
L 247.68 -109.012709 
L 248.4 -109.188517 
L 249.12 -109.382978 
L 249.84 -109.493393 
L 250.56 -109.602728 
L 251.28 -109.749043 
L 252 -109.894973 
L 252.72 -110.052711 
L 253.44 -110.201995 
L 254.16 -110.38385 
L 254.88 -110.590407 
L 255.6 -110.765026 
L 256.32 -110.914961 
L 257.04 -111.096718 
L 257.76 -111.296799 
L 258.48 -111.46727 
L 259.2 -111.644866 
L 259.92 -111.843398 
L 260.64 -112.164007 
L 261.36 -112.483373 
L 262.08 -112.775948 
L 262.8 -112.977666 
L 263.52 -113.155387 
L 264.24 -113.315619 
L 264.96 -113.468333 
L 265.68 -113.589231 
L 266.4 -113.686776 
L 267.12 -113.804907 
L 267.84 -113.953805 
L 268.56 -114.175285 
L 269.28 -114.37127 
L 270 -114.559102 
L 270.72 -114.770248 
L 271.44 -114.985146 
L 272.16 -115.18201 
L 272.88 -115.391341 
L 273.6 -115.622512 
L 274.32 -115.929656 
L 275.04 -116.284953 
L 275.76 -116.487401 
L 276.48 -116.731877 
L 277.2 -116.971851 
L 277.92 -117.15225 
L 278.64 -117.354214 
L 279.36 -117.594705 
L 280.08 -117.811949 
L 280.8 -118.012403 
L 281.52 -118.238765 
L 282.24 -118.474988 
L 282.96 -118.682785 
L 283.68 -118.899008 
L 284.4 -119.141151 
L 285.12 -119.384665 
L 285.84 -119.586992 
L 286.56 -119.799055 
L 287.28 -120.058777 
L 288 -120.336649 
L 288.72 -120.552102 
L 289.44 -120.762741 
L 290.16 -121.019823 
L 290.88 -121.277352 
L 291.6 -121.496825 
L 292.32 -121.738711 
L 293.04 -122.002083 
L 293.76 -122.243294 
L 294.48 -122.486065 
L 295.2 -122.751144 
L 295.92 -123.036555 
L 296.64 -123.299016 
L 297.36 -123.530565 
L 298.08 -123.799025 
L 298.8 -124.116285 
L 299.52 -124.421098 
L 300.24 -124.654562 
L 300.96 -124.918339 
L 301.68 -125.226406 
L 302.4 -125.502064 
L 303.12 -125.765532 
L 303.84 -126.058525 
L 304.56 -126.356786 
L 305.28 -126.626097 
L 306 -126.909726 
L 306.72 -127.220597 
L 307.44 -127.527785 
L 308.16 -127.788171 
L 308.88 -128.065147 
L 309.6 -128.399782 
L 310.32 -128.756073 
L 311.04 -129.036836 
L 311.76 -129.31128 
L 312.48 -129.640328 
L 313.2 -129.977489 
L 313.92 -130.415579 
L 314.64 -130.86283 
L 315.36 -131.297632 
L 316.08 -131.714179 
L 316.8 -132.150465 
L 317.52 -132.612083 
L 318.24 -132.776309 
L 318.96 -132.966323 
L 319.68 -133.208179 
L 320.4 -133.420585 
L 321.12 -133.604552 
L 321.84 -133.8812 
L 322.56 -134.164095 
L 323.28 -134.498907 
L 324 -134.913302 
L 324.72 -135.354891 
L 325.44 -135.651297 
L 326.16 -136.025986 
L 326.88 -136.495526 
L 327.6 -136.936582 
L 328.32 -137.372604 
L 329.04 -137.833364 
L 329.76 -138.293604 
L 330.48 -138.741599 
L 331.2 -139.203153 
L 331.92 -139.682477 
L 332.64 -140.162141 
L 333.36 -140.606822 
L 334.08 -141.049959 
L 334.8 -141.539184 
L 335.52 -142.076698 
L 336.24 -142.620823 
L 336.96 -143.089816 
L 337.68 -143.535891 
L 338.4 -144.04414 
L 339.12 -144.564441 
L 339.84 -145.048074 
L 340.56 -145.554108 
L 341.28 -146.076342 
L 342 -146.582336 
L 342.72 -146.950577 
L 343.44 -147.254578 
L 344.16 -147.598495 
L 344.88 -147.919281 
L 344.88 -345.586531 
L 344.88 -345.586531 
L 344.16 -345.586004 
L 343.44 -345.58548 
L 342.72 -345.584919 
L 342 -345.584318 
L 341.28 -345.583727 
L 340.56 -345.583105 
L 339.84 -345.582431 
L 339.12 -345.581762 
L 338.4 -345.58117 
L 337.68 -345.580579 
L 336.96 -345.580004 
L 336.24 -345.579414 
L 335.52 -345.578773 
L 334.8 -345.578127 
L 334.08 -345.57749 
L 333.36 -345.576801 
L 332.64 -345.576077 
L 331.92 -345.575357 
L 331.2 -345.574534 
L 330.48 -345.573527 
L 329.76 -345.572472 
L 329.04 -345.571431 
L 328.32 -345.57031 
L 327.6 -345.569118 
L 326.88 -345.567947 
L 326.16 -345.566701 
L 325.44 -345.56536 
L 324.72 -345.564035 
L 324 -345.562651 
L 323.28 -345.56115 
L 322.56 -345.559646 
L 321.84 -345.558105 
L 321.12 -345.556429 
L 320.4 -345.55472 
L 319.68 -345.553002 
L 318.96 -345.551136 
L 318.24 -345.549192 
L 317.52 -345.547262 
L 316.8 -345.545178 
L 316.08 -345.542976 
L 315.36 -345.540807 
L 314.64 -345.538491 
L 313.92 -345.536007 
L 313.2 -345.53356 
L 312.48 -345.530984 
L 311.76 -345.528199 
L 311.04 -345.525423 
L 310.32 -345.522556 
L 309.6 -345.519443 
L 308.88 -345.516289 
L 308.16 -345.513094 
L 307.44 -345.509622 
L 306.72 -345.50604 
L 306 -345.502468 
L 305.28 -345.498605 
L 304.56 -345.494543 
L 303.84 -345.490537 
L 303.12 -345.486241 
L 302.4 -345.481654 
L 301.68 -345.47714 
L 300.96 -345.472364 
L 300.24 -345.467954 
L 299.52 -345.463533 
L 298.8 -345.459115 
L 298.08 -345.454318 
L 297.36 -345.449337 
L 296.64 -345.444479 
L 295.92 -345.439267 
L 295.2 -345.433704 
L 294.48 -345.4283 
L 293.76 -345.422009 
L 293.04 -345.414936 
L 292.32 -345.407335 
L 291.6 -345.399826 
L 290.88 -345.391942 
L 290.16 -345.383402 
L 289.44 -345.374872 
L 288.72 -345.366079 
L 288 -345.35651 
L 287.28 -345.346809 
L 286.56 -345.336985 
L 285.84 -345.32629 
L 285.12 -345.315256 
L 284.4 -345.304254 
L 283.68 -345.292321 
L 282.96 -345.279792 
L 282.24 -345.267432 
L 281.52 -345.254134 
L 280.8 -345.239952 
L 280.08 -345.22601 
L 279.36 -345.211195 
L 278.64 -345.195218 
L 277.92 -345.179385 
L 277.2 -345.162784 
L 276.48 -345.144796 
L 275.76 -345.12675 
L 275.04 -345.108216 
L 274.32 -345.088071 
L 273.6 -345.067545 
L 272.88 -345.046819 
L 272.16 -345.024305 
L 271.44 -345.000973 
L 270.72 -344.977739 
L 270 -344.952614 
L 269.28 -344.926146 
L 268.56 -344.900019 
L 267.84 -344.872004 
L 267.12 -344.842083 
L 266.4 -344.812587 
L 265.68 -344.781359 
L 264.96 -344.750125 
L 264.24 -344.718533 
L 263.52 -344.687389 
L 262.8 -344.655244 
L 262.08 -344.620294 
L 261.36 -344.585082 
L 260.64 -344.549693 
L 259.92 -344.511211 
L 259.2 -344.471423 
L 258.48 -344.434016 
L 257.76 -344.402402 
L 257.04 -344.368293 
L 256.32 -344.335379 
L 255.6 -344.301963 
L 254.88 -344.264769 
L 254.16 -344.2099 
L 253.44 -344.171215 
L 252.72 -344.135883 
L 252 -344.098477 
L 251.28 -344.0633 
L 250.56 -344.026601 
L 249.84 -343.986528 
L 249.12 -343.947134 
L 248.4 -343.907319 
L 247.68 -343.861124 
L 246.96 -343.813012 
L 246.24 -343.767315 
L 245.52 -343.718585 
L 244.8 -343.653302 
L 244.08 -343.568425 
L 243.36 -343.484067 
L 242.64 -343.395399 
L 241.92 -343.29936 
L 241.2 -343.203249 
L 240.48 -343.10349 
L 239.76 -342.995028 
L 239.04 -342.885436 
L 238.32 -342.773157 
L 237.6 -342.650896 
L 236.88 -342.525906 
L 236.16 -342.399438 
L 235.44 -342.261833 
L 234.72 -342.119387 
L 234 -341.976777 
L 233.28 -341.821758 
L 232.56 -341.658857 
L 231.84 -341.507582 
L 231.12 -341.36799 
L 230.4 -341.239845 
L 229.68 -341.113897 
L 228.96 -340.977126 
L 228.24 -340.834271 
L 227.52 -340.697073 
L 226.8 -340.551073 
L 226.08 -340.394063 
L 225.36 -340.241799 
L 224.64 -340.085862 
L 223.92 -339.91613 
L 223.2 -339.745428 
L 222.48 -339.577756 
L 221.76 -339.396039 
L 221.04 -339.20574 
L 220.32 -339.023028 
L 219.6 -338.829368 
L 218.88 -338.621012 
L 218.16 -338.418123 
L 217.44 -338.211506 
L 216.72 -337.986942 
L 216 -337.759867 
L 215.28 -337.537779 
L 214.56 -337.297956 
L 213.84 -337.045754 
L 213.12 -336.80361 
L 212.4 -336.548511 
L 211.68 -336.273771 
L 210.96 -336.004761 
L 210.24 -335.650186 
L 209.52 -335.284025 
L 208.8 -334.9004 
L 208.08 -334.486882 
L 207.36 -334.075713 
L 206.64 -333.653039 
L 205.92 -333.195663 
L 205.2 -332.733778 
L 204.48 -332.268026 
L 203.76 -331.763915 
L 203.04 -331.245825 
L 202.32 -330.732043 
L 201.6 -330.17822 
L 200.88 -329.599022 
L 200.16 -329.031072 
L 199.44 -328.424414 
L 198.72 -327.973924 
L 198 -327.520924 
L 197.28 -327.052367 
L 196.56 -326.608048 
L 195.84 -326.137123 
L 195.12 -325.631087 
L 194.4 -325.14473 
L 193.68 -324.654918 
L 192.96 -324.118161 
L 192.24 -323.575815 
L 191.52 -323.056491 
L 190.8 -322.498472 
L 190.08 -321.906653 
L 189.36 -321.346483 
L 188.64 -320.768819 
L 187.92 -320.142278 
L 187.2 -319.52354 
L 186.48 -318.92124 
L 185.76 -318.269778 
L 185.04 -317.455241 
L 184.32 -316.540303 
L 183.6 -315.553239 
L 182.88 -314.559791 
L 182.16 -313.562858 
L 181.44 -312.488519 
L 180.72 -311.553455 
L 180 -310.738696 
L 179.28 -309.511094 
L 178.56 -308.140356 
L 177.84 -306.78124 
L 177.12 -305.561366 
L 176.4 -304.303912 
L 175.68 -302.997323 
L 174.96 -301.705275 
L 174.24 -300.321952 
L 173.52 -298.950687 
L 172.8 -297.579027 
L 172.08 -296.109732 
L 171.36 -294.981132 
L 170.64 -294.010476 
L 169.92 -292.966813 
L 169.2 -291.907577 
L 168.48 -290.109887 
L 167.76 -289.213106 
L 167.04 -288.312489 
L 166.32 -287.487137 
L 165.6 -285.735654 
L 164.88 -285.053517 
L 164.16 -284.375917 
L 163.44 -283.728356 
L 162.72 -282.476424 
L 162 -280.342214 
L 161.28 -278.263745 
L 160.56 -277.630942 
L 159.84 -277.235448 
L 159.12 -276.852993 
L 158.4 -275.975799 
L 157.68 -274.81383 
L 156.96 -273.58428 
L 156.24 -272.249631 
L 155.52 -270.534562 
L 154.8 -269.640449 
L 154.08 -267.86105 
L 153.36 -266.884731 
L 152.64 -265.950856 
L 151.92 -264.970658 
L 151.2 -263.934737 
L 150.48 -262.824236 
L 149.76 -261.972143 
L 149.04 -260.738949 
L 148.32 -259.323016 
L 147.6 -257.904465 
L 146.88 -256.57821 
L 146.16 -255.312499 
L 145.44 -254.078246 
L 144.72 -252.766762 
L 144 -252.000168 
L 143.28 -250.208925 
L 142.56 -248.919618 
L 141.84 -247.709941 
L 141.12 -246.376602 
L 140.4 -245.569416 
L 139.68 -244.666813 
L 138.96 -242.563758 
L 138.24 -241.154721 
L 137.52 -239.697253 
L 136.8 -237.921735 
L 136.08 -236.133901 
L 135.36 -234.47337 
L 134.64 -232.863545 
L 133.92 -231.068782 
L 133.2 -229.302639 
L 132.48 -227.731931 
L 131.76 -226.044161 
L 131.04 -224.991761 
L 130.32 -223.512691 
L 129.6 -221.44043 
L 128.88 -220.195743 
L 128.16 -218.987926 
L 127.44 -217.807793 
L 126.72 -216.561102 
L 126 -215.317286 
L 125.28 -213.928502 
L 124.56 -212.434441 
L 123.84 -210.995414 
L 123.12 -209.674849 
L 122.4 -208.670402 
L 121.68 -207.921937 
L 120.96 -207.117033 
L 120.24 -206.24002 
L 119.52 -205.108905 
L 118.8 -203.772196 
L 118.08 -202.553483 
L 117.36 -201.480592 
L 116.64 -200.483739 
L 115.92 -199.339987 
L 115.2 -198.169492 
L 114.48 -197.588546 
L 113.76 -197.097885 
L 113.04 -195.920173 
L 112.32 -194.412015 
L 111.6 -193.499577 
L 110.88 -192.790852 
L 110.16 -192.155511 
L 109.44 -190.856766 
L 108.72 -189.974391 
L 108 -188.251579 
L 107.28 -186.74233 
L 106.56 -185.848162 
L 105.84 -185.074594 
L 105.12 -184.388934 
L 104.4 -183.618906 
L 103.68 -182.797505 
L 102.96 -182.027216 
L 102.24 -181.316487 
L 101.52 -180.585992 
L 100.8 -179.67974 
L 100.08 -178.93969 
L 99.36 -178.19795 
L 98.64 -177.350325 
L 97.92 -176.348284 
L 97.2 -175.364956 
L 96.48 -174.427292 
L 95.76 -173.562759 
L 95.04 -172.862262 
L 94.32 -172.525054 
L 93.6 -172.341357 
L 92.88 -172.553266 
L 92.16 -173.728623 
L 91.44 -177.307249 
L 90.72 -187.745998 
L 90 -222.969425 
L 89.28 -345.6 
L 88.56 -345.6 
L 87.84 -345.6 
L 87.12 -345.6 
L 86.4 -345.6 
z
" style="stroke: #ffffff; stroke-opacity: 0.5"/>
    </defs>
    <g clip-path="url(#pd43eb57c1b)">
     <use xlink:href="#m45dde365cf" x="0" y="432" style="fill: #4c72b0; fill-opacity: 0.5; stroke: #ffffff; stroke-opacity: 0.5"/>
    </g>
   </g>
   <g id="line2d_14">
    <path d="M 86.4 86.4 
L 89.28 86.4 
L 90 297.707501 
L 90.72 313.908025 
L 91.44 317.951688 
L 92.16 319.245956 
L 92.88 319.629281 
L 93.6 319.652963 
L 95.04 319.344031 
L 98.64 318.171584 
L 103.68 316.343601 
L 112.32 312.708339 
L 120.96 308.400322 
L 125.28 306.017062 
L 132.48 301.558154 
L 136.08 299.166138 
L 141.84 295.030565 
L 148.32 289.994531 
L 155.52 283.984061 
L 164.88 275.523179 
L 170.64 270.031698 
L 178.56 262.189628 
L 185.76 254.840142 
L 198.72 241.275378 
L 219.6 219.24413 
L 232.56 205.951206 
L 240.48 198.092163 
L 249.12 189.826948 
L 256.32 183.207441 
L 264.96 175.640207 
L 272.16 169.649713 
L 279.36 163.962099 
L 288 157.56559 
L 294.48 153.05803 
L 300.96 148.802507 
L 306.72 145.230036 
L 313.2 141.43404 
L 321.12 137.120176 
L 328.32 133.477497 
L 336.96 129.45299 
L 344.88 126.067273 
L 344.88 126.067273 
" clip-path="url(#pd43eb57c1b)" style="fill: none; stroke: #4c72b0; stroke-width: 2; stroke-linecap: round"/>
   </g>
   <g id="patch_3">
    <path d="M 86.4 345.6 
L 86.4 86.4 
" style="fill: none; stroke: #262626; stroke-width: 1.25; stroke-linejoin: miter; stroke-linecap: square"/>
   </g>
   <g id="patch_4">
    <path d="M 86.4 345.6 
L 345.6 345.6 
" style="fill: none; stroke: #262626; stroke-width: 1.25; stroke-linejoin: miter; stroke-linecap: square"/>
   </g>
  </g>
 </g>
 <defs>
  <clipPath id="pd43eb57c1b">
   <rect x="86.4" y="86.4" width="259.2" height="259.2"/>
  </clipPath>
 </defs>
</svg>
