<?xml version="1.0" encoding="utf-8" standalone="no"?>
<!DOCTYPE svg PUBLIC "-//W3C//DTD SVG 1.1//EN"
  "http://www.w3.org/Graphics/SVG/1.1/DTD/svg11.dtd">
<svg xmlns:xlink="http://www.w3.org/1999/xlink" width="432pt" height="432pt" viewBox="0 0 432 432" xmlns="http://www.w3.org/2000/svg" version="1.1">
 <metadata>
  <rdf:RDF xmlns:dc="http://purl.org/dc/elements/1.1/" xmlns:cc="http://creativecommons.org/ns#" xmlns:rdf="http://www.w3.org/1999/02/22-rdf-syntax-ns#">
   <cc:Work>
    <dc:type rdf:resource="http://purl.org/dc/dcmitype/StillImage"/>
    <dc:date>2024-10-07T10:45:10.986211</dc:date>
    <dc:format>image/svg+xml</dc:format>
    <dc:creator>
     <cc:Agent>
      <dc:title>Matplotlib v3.8.4, https://matplotlib.org/</dc:title>
     </cc:Agent>
    </dc:creator>
   </cc:Work>
  </rdf:RDF>
 </metadata>
 <defs>
  <style type="text/css">*{stroke-linejoin: round; stroke-linecap: butt}</style>
 </defs>
 <g id="figure_1">
  <g id="patch_1">
   <path d="M 0 432 
L 432 432 
L 432 0 
L 0 0 
L 0 432 
z
" style="fill: none"/>
  </g>
  <g id="axes_1">
   <g id="patch_2">
    <path d="M 86.4 345.6 
L 345.6 345.6 
L 345.6 86.4 
L 86.4 86.4 
L 86.4 345.6 
z
" style="fill: none"/>
   </g>
   <g id="matplotlib.axis_1">
    <g id="xtick_1">
     <g id="line2d_1">
      <defs>
       <path id="m5fe43ccccd" d="M 0 0 
L 0 6 
" style="stroke: #262626; stroke-width: 1.25"/>
      </defs>
      <g>
       <use xlink:href="#m5fe43ccccd" x="86.4" y="345.6" style="fill: #262626; stroke: #262626; stroke-width: 1.25"/>
      </g>
     </g>
     <g id="text_1">
      <text style="fill: #262626; font: 16px 'Arial', 'DejaVu Sans', 'Liberation Sans', 'Bitstream Vera Sans', sans-serif; text-anchor: middle" x="86.4" y="366.5525" transform="rotate(-0 86.4 366.5525)">0</text>
     </g>
    </g>
    <g id="xtick_2">
     <g id="line2d_2">
      <g>
       <use xlink:href="#m5fe43ccccd" x="129.008219" y="345.6" style="fill: #262626; stroke: #262626; stroke-width: 1.25"/>
      </g>
     </g>
     <g id="text_2">
      <text style="fill: #262626; font: 16px 'Arial', 'DejaVu Sans', 'Liberation Sans', 'Bitstream Vera Sans', sans-serif; text-anchor: middle" x="129.008219" y="366.5525" transform="rotate(-0 129.008219 366.5525)">60</text>
     </g>
    </g>
    <g id="xtick_3">
     <g id="line2d_3">
      <g>
       <use xlink:href="#m5fe43ccccd" x="171.616438" y="345.6" style="fill: #262626; stroke: #262626; stroke-width: 1.25"/>
      </g>
     </g>
     <g id="text_3">
      <text style="fill: #262626; font: 16px 'Arial', 'DejaVu Sans', 'Liberation Sans', 'Bitstream Vera Sans', sans-serif; text-anchor: middle" x="171.616438" y="366.5525" transform="rotate(-0 171.616438 366.5525)">120</text>
     </g>
    </g>
    <g id="xtick_4">
     <g id="line2d_4">
      <g>
       <use xlink:href="#m5fe43ccccd" x="214.224658" y="345.6" style="fill: #262626; stroke: #262626; stroke-width: 1.25"/>
      </g>
     </g>
     <g id="text_4">
      <text style="fill: #262626; font: 16px 'Arial', 'DejaVu Sans', 'Liberation Sans', 'Bitstream Vera Sans', sans-serif; text-anchor: middle" x="214.224658" y="366.5525" transform="rotate(-0 214.224658 366.5525)">180</text>
     </g>
    </g>
    <g id="xtick_5">
     <g id="line2d_5">
      <g>
       <use xlink:href="#m5fe43ccccd" x="256.832877" y="345.6" style="fill: #262626; stroke: #262626; stroke-width: 1.25"/>
      </g>
     </g>
     <g id="text_5">
      <text style="fill: #262626; font: 16px 'Arial', 'DejaVu Sans', 'Liberation Sans', 'Bitstream Vera Sans', sans-serif; text-anchor: middle" x="256.832877" y="366.5525" transform="rotate(-0 256.832877 366.5525)">240</text>
     </g>
    </g>
    <g id="xtick_6">
     <g id="line2d_6">
      <g>
       <use xlink:href="#m5fe43ccccd" x="299.441096" y="345.6" style="fill: #262626; stroke: #262626; stroke-width: 1.25"/>
      </g>
     </g>
     <g id="text_6">
      <text style="fill: #262626; font: 16px 'Arial', 'DejaVu Sans', 'Liberation Sans', 'Bitstream Vera Sans', sans-serif; text-anchor: middle" x="299.441096" y="366.5525" transform="rotate(-0 299.441096 366.5525)">300</text>
     </g>
    </g>
    <g id="xtick_7">
     <g id="line2d_7">
      <g>
       <use xlink:href="#m5fe43ccccd" x="342.049315" y="345.6" style="fill: #262626; stroke: #262626; stroke-width: 1.25"/>
      </g>
     </g>
     <g id="text_7">
      <text style="fill: #262626; font: 16px 'Arial', 'DejaVu Sans', 'Liberation Sans', 'Bitstream Vera Sans', sans-serif; text-anchor: middle" x="342.049315" y="366.5525" transform="rotate(-0 342.049315 366.5525)">360</text>
     </g>
    </g>
    <g id="text_8">
     <text style="fill: #262626; font: 16px 'Arial', 'DejaVu Sans', 'Liberation Sans', 'Bitstream Vera Sans', sans-serif; text-anchor: middle" x="216" y="385.38" transform="rotate(-0 216 385.38)">Time since vaccination (days)</text>
    </g>
   </g>
   <g id="matplotlib.axis_2">
    <g id="ytick_1">
     <g id="line2d_8">
      <defs>
       <path id="m6bb7633e13" d="M 0 0 
L -6 0 
" style="stroke: #262626; stroke-width: 1.25"/>
      </defs>
      <g>
       <use xlink:href="#m6bb7633e13" x="86.4" y="345.6" style="fill: #262626; stroke: #262626; stroke-width: 1.25"/>
      </g>
     </g>
     <g id="text_9">
      <text style="fill: #262626; font: 16px 'Arial', 'DejaVu Sans', 'Liberation Sans', 'Bitstream Vera Sans', sans-serif; text-anchor: end" x="76.9" y="351.32625" transform="rotate(-0 76.9 351.32625)">0.0</text>
     </g>
    </g>
    <g id="ytick_2">
     <g id="line2d_9">
      <g>
       <use xlink:href="#m6bb7633e13" x="86.4" y="293.76" style="fill: #262626; stroke: #262626; stroke-width: 1.25"/>
      </g>
     </g>
     <g id="text_10">
      <text style="fill: #262626; font: 16px 'Arial', 'DejaVu Sans', 'Liberation Sans', 'Bitstream Vera Sans', sans-serif; text-anchor: end" x="76.9" y="299.48625" transform="rotate(-0 76.9 299.48625)">0.2</text>
     </g>
    </g>
    <g id="ytick_3">
     <g id="line2d_10">
      <g>
       <use xlink:href="#m6bb7633e13" x="86.4" y="241.92" style="fill: #262626; stroke: #262626; stroke-width: 1.25"/>
      </g>
     </g>
     <g id="text_11">
      <text style="fill: #262626; font: 16px 'Arial', 'DejaVu Sans', 'Liberation Sans', 'Bitstream Vera Sans', sans-serif; text-anchor: end" x="76.9" y="247.64625" transform="rotate(-0 76.9 247.64625)">0.4</text>
     </g>
    </g>
    <g id="ytick_4">
     <g id="line2d_11">
      <g>
       <use xlink:href="#m6bb7633e13" x="86.4" y="190.08" style="fill: #262626; stroke: #262626; stroke-width: 1.25"/>
      </g>
     </g>
     <g id="text_12">
      <text style="fill: #262626; font: 16px 'Arial', 'DejaVu Sans', 'Liberation Sans', 'Bitstream Vera Sans', sans-serif; text-anchor: end" x="76.9" y="195.80625" transform="rotate(-0 76.9 195.80625)">0.6</text>
     </g>
    </g>
    <g id="ytick_5">
     <g id="line2d_12">
      <g>
       <use xlink:href="#m6bb7633e13" x="86.4" y="138.24" style="fill: #262626; stroke: #262626; stroke-width: 1.25"/>
      </g>
     </g>
     <g id="text_13">
      <text style="fill: #262626; font: 16px 'Arial', 'DejaVu Sans', 'Liberation Sans', 'Bitstream Vera Sans', sans-serif; text-anchor: end" x="76.9" y="143.96625" transform="rotate(-0 76.9 143.96625)">0.8</text>
     </g>
    </g>
    <g id="ytick_6">
     <g id="line2d_13">
      <g>
       <use xlink:href="#m6bb7633e13" x="86.4" y="86.4" style="fill: #262626; stroke: #262626; stroke-width: 1.25"/>
      </g>
     </g>
     <g id="text_14">
      <text style="fill: #262626; font: 16px 'Arial', 'DejaVu Sans', 'Liberation Sans', 'Bitstream Vera Sans', sans-serif; text-anchor: end" x="76.9" y="92.12625" transform="rotate(-0 76.9 92.12625)">1.0</text>
     </g>
    </g>
    <g id="text_15">
     <text style="fill: #262626; font: 16px 'Arial', 'DejaVu Sans', 'Liberation Sans', 'Bitstream Vera Sans', sans-serif; text-anchor: middle" x="47.2925" y="216" transform="rotate(-90 47.2925 216)">Relative susceptibility</text>
    </g>
   </g>
   <g id="line2d_14">
    <path d="M 86.4 127.404395 
L 89.240548 126.231337 
L 89.950685 297.873917 
L 90.660822 312.660126 
L 91.370959 316.494125 
L 92.081096 317.73258 
L 92.791233 318.094053 
L 93.50137 318.107202 
L 94.921644 317.79136 
L 98.472329 316.617022 
L 103.443288 314.789329 
L 111.254795 311.513614 
L 116.225753 309.14804 
L 120.486575 306.945839 
L 126.167671 303.741313 
L 131.13863 300.701939 
L 138.24 295.930887 
L 143.921096 291.758696 
L 150.312329 286.707265 
L 157.413699 280.708255 
L 163.804932 274.961578 
L 172.326575 266.904846 
L 179.427945 259.917618 
L 195.050959 243.942845 
L 225.586849 212.551517 
L 234.108493 204.17724 
L 242.630137 196.085131 
L 249.02137 190.22392 
L 258.253151 182.120091 
L 263.934247 177.349224 
L 270.325479 172.182778 
L 278.136986 166.171037 
L 284.528219 161.498815 
L 293.049863 155.618468 
L 300.151233 151.004894 
L 308.672877 145.828621 
L 315.774247 141.790155 
L 322.875616 137.999388 
L 329.976986 134.445385 
L 337.078356 131.116554 
L 344.179726 128.001654 
L 344.889863 127.702312 
L 344.889863 127.702312 
" clip-path="url(#p6d4aa092d0)" style="fill: none; stroke: #de8f05; stroke-width: 2; stroke-linecap: round"/>
   </g>
   <g id="line2d_15">
    <path d="M 86.4 109.070261 
L 89.240548 108.349932 
L 89.950685 258.4405 
L 90.660822 280.898495 
L 91.370959 287.208376 
L 92.081096 289.296748 
L 92.791233 289.912235 
L 93.50137 289.936437 
L 94.921644 289.40427 
L 97.762192 287.855844 
L 103.443288 284.434384 
L 111.964932 278.706282 
L 123.327123 269.951681 
L 129.718356 264.529591 
L 133.269041 261.390714 
L 143.921096 251.370241 
L 154.573151 240.727268 
L 172.326575 222.258069 
L 194.340822 199.610109 
L 205.703014 188.534514 
L 214.934795 179.990081 
L 221.326027 174.329492 
L 229.847671 167.177971 
L 238.369315 160.450239 
L 244.760548 155.694285 
L 251.151781 151.18173 
L 258.963288 146.004277 
L 266.064658 141.610331 
L 272.45589 137.898265 
L 280.267397 133.666414 
L 287.368767 130.0933 
L 295.180274 126.455619 
L 303.701918 122.812164 
L 310.803288 120.014494 
L 318.614795 117.182084 
L 325.716164 114.805848 
L 334.237808 112.191017 
L 342.049315 110.004112 
L 344.889863 109.253666 
L 344.889863 109.253666 
" clip-path="url(#p6d4aa092d0)" style="fill: none; stroke: #0173b2; stroke-width: 2; stroke-linecap: round"/>
   </g>
   <g id="line2d_16">
    <path d="M 86.4 97.710144 
L 89.240548 97.321752 
L 89.950685 208.966415 
L 90.660822 235.517481 
L 91.370959 243.704711 
L 92.081096 246.495589 
L 92.791233 247.32786 
L 93.50137 247.36338 
L 94.211507 247.077279 
L 95.631781 246.171176 
L 100.60274 242.411784 
L 111.254795 233.605091 
L 117.646027 227.911587 
L 130.428493 215.947773 
L 156.703562 190.337592 
L 176.587397 171.93889 
L 182.268493 167.003727 
L 187.949589 162.260278 
L 192.920548 158.264797 
L 197.891507 154.419794 
L 204.992877 149.184831 
L 212.094247 144.28719 
L 217.065205 141.037925 
L 223.456438 137.086546 
L 229.137534 133.782861 
L 236.238904 129.921721 
L 243.340274 126.343622 
L 251.151781 122.726421 
L 259.673425 119.128579 
L 268.195068 115.873744 
L 276.006575 113.162214 
L 283.818082 110.695702 
L 292.339726 108.259617 
L 302.281644 105.722474 
L 311.513425 103.632669 
L 321.455342 101.635349 
L 331.39726 99.873908 
L 341.339178 98.319889 
L 344.889863 97.809245 
L 344.889863 97.809245 
" clip-path="url(#p6d4aa092d0)" style="fill: none; stroke: #029e73; stroke-width: 2; stroke-linecap: round"/>
   </g>
   <g id="patch_3">
    <path d="M 86.4 345.6 
L 86.4 86.4 
" style="fill: none; stroke: #262626; stroke-width: 1.25; stroke-linejoin: miter; stroke-linecap: square"/>
   </g>
   <g id="patch_4">
    <path d="M 86.4 345.6 
L 345.6 345.6 
" style="fill: none; stroke: #262626; stroke-width: 1.25; stroke-linejoin: miter; stroke-linecap: square"/>
   </g>
   <g id="legend_1">
    <g id="patch_5">
     <path d="M 218.48 338.6 
L 335.8 338.6 
Q 338.6 338.6 338.6 335.8 
L 338.6 275.88 
Q 338.6 273.08 335.8 273.08 
L 218.48 273.08 
Q 215.68 273.08 215.68 275.88 
L 215.68 335.8 
Q 215.68 338.6 218.48 338.6 
z
" style="fill: #ffffff; opacity: 0.8; stroke: #cccccc; stroke-linejoin: miter"/>
    </g>
    <g id="line2d_17">
     <path d="M 221.28 284 
L 235.28 284 
L 249.28 284 
" style="fill: none; stroke: #de8f05; stroke-width: 2; stroke-linecap: round"/>
    </g>
    <g id="text_16">
     <!-- $\it{A_{1/2}}$ = 500 -->
     <g style="fill: #262626" transform="translate(260.48 288.9)">
      <text>
       <tspan style="font: oblique 14px 'DejaVu Sans'" x="0" y="-0.796875">A</tspan>
       <tspan style="font: 9.8px 'DejaVu Sans'" x="9.577148 15.812207 18.763965" y="1.5">1/2</tspan>
       <tspan style="font: 14px 'Arial'" x="25.381836 29.271484 37.447266 41.336914 49.123047 56.90918" y="-0.796875"> = 500</tspan>
      </text>
     </g>
    </g>
    <g id="line2d_18">
     <path d="M 221.28 304.44 
L 235.28 304.44 
L 249.28 304.44 
" style="fill: none; stroke: #0173b2; stroke-width: 2; stroke-linecap: round"/>
    </g>
    <g id="text_17">
     <!-- $\it{A_{1/2}}$ = 1000 -->
     <g style="fill: #262626" transform="translate(260.48 309.34)">
      <text>
       <tspan style="font: oblique 14px 'DejaVu Sans'" x="0" y="-0.796875">A</tspan>
       <tspan style="font: 9.8px 'DejaVu Sans'" x="9.577148 15.812207 18.763965" y="1.5">1/2</tspan>
       <tspan style="font: 14px 'Arial'" x="25.381836 29.271484 37.447266 41.336914 49.123047 56.90918 64.695312" y="-0.796875"> = 1000</tspan>
      </text>
     </g>
    </g>
    <g id="line2d_19">
     <path d="M 221.28 324.88 
L 235.28 324.88 
L 249.28 324.88 
" style="fill: none; stroke: #029e73; stroke-width: 2; stroke-linecap: round"/>
    </g>
    <g id="text_18">
     <!-- $\it{A_{1/2}}$ = 2000 -->
     <g style="fill: #262626" transform="translate(260.48 329.78)">
      <text>
       <tspan style="font: oblique 14px 'DejaVu Sans'" x="0" y="-0.796875">A</tspan>
       <tspan style="font: 9.8px 'DejaVu Sans'" x="9.577148 15.812207 18.763965" y="1.5">1/2</tspan>
       <tspan style="font: 14px 'Arial'" x="25.381836 29.271484 37.447266 41.336914 49.123047 56.90918 64.695312" y="-0.796875"> = 2000</tspan>
      </text>
     </g>
    </g>
   </g>
  </g>
 </g>
 <defs>
  <clipPath id="p6d4aa092d0">
   <rect x="86.4" y="86.4" width="259.2" height="259.2"/>
  </clipPath>
 </defs>
</svg>
