<?xml version="1.0" encoding="utf-8" standalone="no"?>
<!DOCTYPE svg PUBLIC "-//W3C//DTD SVG 1.1//EN"
  "http://www.w3.org/Graphics/SVG/1.1/DTD/svg11.dtd">
<svg xmlns:xlink="http://www.w3.org/1999/xlink" width="432pt" height="432pt" viewBox="0 0 432 432" xmlns="http://www.w3.org/2000/svg" version="1.1">
 <metadata>
  <rdf:RDF xmlns:dc="http://purl.org/dc/elements/1.1/" xmlns:cc="http://creativecommons.org/ns#" xmlns:rdf="http://www.w3.org/1999/02/22-rdf-syntax-ns#">
   <cc:Work>
    <dc:type rdf:resource="http://purl.org/dc/dcmitype/StillImage"/>
    <dc:date>2024-05-21T13:14:14.069808</dc:date>
    <dc:format>image/svg+xml</dc:format>
    <dc:creator>
     <cc:Agent>
      <dc:title>Matplotlib v3.8.4, https://matplotlib.org/</dc:title>
     </cc:Agent>
    </dc:creator>
   </cc:Work>
  </rdf:RDF>
 </metadata>
 <defs>
  <style type="text/css">*{stroke-linejoin: round; stroke-linecap: butt}</style>
 </defs>
 <g id="figure_1">
  <g id="patch_1">
   <path d="M 0 432 
L 432 432 
L 432 0 
L 0 0 
L 0 432 
z
" style="fill: none"/>
  </g>
  <g id="axes_1">
   <g id="patch_2">
    <path d="M 86.4 345.6 
L 345.6 345.6 
L 345.6 86.4 
L 86.4 86.4 
L 86.4 345.6 
z
" style="fill: none"/>
   </g>
   <g id="matplotlib.axis_1">
    <g id="xtick_1">
     <g id="line2d_1">
      <defs>
       <path id="m48c54ad9bb" d="M 0 0 
L 0 6 
" style="stroke: #262626; stroke-width: 1.25"/>
      </defs>
      <g>
       <use xlink:href="#m48c54ad9bb" x="86.4" y="345.6" style="fill: #262626; stroke: #262626; stroke-width: 1.25"/>
      </g>
     </g>
     <g id="text_1">
      <text style="fill: #262626; font: 16px 'Arial', 'DejaVu Sans', 'Liberation Sans', 'Bitstream Vera Sans', sans-serif; text-anchor: middle" x="86.4" y="366.5525" transform="rotate(-0 86.4 366.5525)">0</text>
     </g>
    </g>
    <g id="xtick_2">
     <g id="line2d_2">
      <g>
       <use xlink:href="#m48c54ad9bb" x="129.6" y="345.6" style="fill: #262626; stroke: #262626; stroke-width: 1.25"/>
      </g>
     </g>
     <g id="text_2">
      <text style="fill: #262626; font: 16px 'Arial', 'DejaVu Sans', 'Liberation Sans', 'Bitstream Vera Sans', sans-serif; text-anchor: middle" x="129.6" y="366.5525" transform="rotate(-0 129.6 366.5525)">60</text>
     </g>
    </g>
    <g id="xtick_3">
     <g id="line2d_3">
      <g>
       <use xlink:href="#m48c54ad9bb" x="172.8" y="345.6" style="fill: #262626; stroke: #262626; stroke-width: 1.25"/>
      </g>
     </g>
     <g id="text_3">
      <text style="fill: #262626; font: 16px 'Arial', 'DejaVu Sans', 'Liberation Sans', 'Bitstream Vera Sans', sans-serif; text-anchor: middle" x="172.8" y="366.5525" transform="rotate(-0 172.8 366.5525)">120</text>
     </g>
    </g>
    <g id="xtick_4">
     <g id="line2d_4">
      <g>
       <use xlink:href="#m48c54ad9bb" x="216" y="345.6" style="fill: #262626; stroke: #262626; stroke-width: 1.25"/>
      </g>
     </g>
     <g id="text_4">
      <text style="fill: #262626; font: 16px 'Arial', 'DejaVu Sans', 'Liberation Sans', 'Bitstream Vera Sans', sans-serif; text-anchor: middle" x="216" y="366.5525" transform="rotate(-0 216 366.5525)">180</text>
     </g>
    </g>
    <g id="xtick_5">
     <g id="line2d_5">
      <g>
       <use xlink:href="#m48c54ad9bb" x="259.2" y="345.6" style="fill: #262626; stroke: #262626; stroke-width: 1.25"/>
      </g>
     </g>
     <g id="text_5">
      <text style="fill: #262626; font: 16px 'Arial', 'DejaVu Sans', 'Liberation Sans', 'Bitstream Vera Sans', sans-serif; text-anchor: middle" x="259.2" y="366.5525" transform="rotate(-0 259.2 366.5525)">240</text>
     </g>
    </g>
    <g id="xtick_6">
     <g id="line2d_6">
      <g>
       <use xlink:href="#m48c54ad9bb" x="302.4" y="345.6" style="fill: #262626; stroke: #262626; stroke-width: 1.25"/>
      </g>
     </g>
     <g id="text_6">
      <text style="fill: #262626; font: 16px 'Arial', 'DejaVu Sans', 'Liberation Sans', 'Bitstream Vera Sans', sans-serif; text-anchor: middle" x="302.4" y="366.5525" transform="rotate(-0 302.4 366.5525)">300</text>
     </g>
    </g>
    <g id="xtick_7">
     <g id="line2d_7">
      <g>
       <use xlink:href="#m48c54ad9bb" x="345.6" y="345.6" style="fill: #262626; stroke: #262626; stroke-width: 1.25"/>
      </g>
     </g>
     <g id="text_7">
      <text style="fill: #262626; font: 16px 'Arial', 'DejaVu Sans', 'Liberation Sans', 'Bitstream Vera Sans', sans-serif; text-anchor: middle" x="345.6" y="366.5525" transform="rotate(-0 345.6 366.5525)">360</text>
     </g>
    </g>
    <g id="text_8">
     <text style="fill: #262626; font: 16px 'Arial', 'DejaVu Sans', 'Liberation Sans', 'Bitstream Vera Sans', sans-serif; text-anchor: middle" x="216" y="385.38" transform="rotate(-0 216 385.38)">Time since vaccination (days)</text>
    </g>
   </g>
   <g id="matplotlib.axis_2">
    <g id="ytick_1">
     <g id="line2d_8">
      <defs>
       <path id="m241a90ac4c" d="M 0 0 
L -6 0 
" style="stroke: #262626; stroke-width: 1.25"/>
      </defs>
      <g>
       <use xlink:href="#m241a90ac4c" x="86.4" y="345.6" style="fill: #262626; stroke: #262626; stroke-width: 1.25"/>
      </g>
     </g>
     <g id="text_9">
      <text style="fill: #262626; font: 16px 'Arial', 'DejaVu Sans', 'Liberation Sans', 'Bitstream Vera Sans', sans-serif; text-anchor: end" x="76.9" y="351.32625" transform="rotate(-0 76.9 351.32625)">0.0</text>
     </g>
    </g>
    <g id="ytick_2">
     <g id="line2d_9">
      <g>
       <use xlink:href="#m241a90ac4c" x="86.4" y="293.76" style="fill: #262626; stroke: #262626; stroke-width: 1.25"/>
      </g>
     </g>
     <g id="text_10">
      <text style="fill: #262626; font: 16px 'Arial', 'DejaVu Sans', 'Liberation Sans', 'Bitstream Vera Sans', sans-serif; text-anchor: end" x="76.9" y="299.48625" transform="rotate(-0 76.9 299.48625)">0.2</text>
     </g>
    </g>
    <g id="ytick_3">
     <g id="line2d_10">
      <g>
       <use xlink:href="#m241a90ac4c" x="86.4" y="241.92" style="fill: #262626; stroke: #262626; stroke-width: 1.25"/>
      </g>
     </g>
     <g id="text_11">
      <text style="fill: #262626; font: 16px 'Arial', 'DejaVu Sans', 'Liberation Sans', 'Bitstream Vera Sans', sans-serif; text-anchor: end" x="76.9" y="247.64625" transform="rotate(-0 76.9 247.64625)">0.4</text>
     </g>
    </g>
    <g id="ytick_4">
     <g id="line2d_11">
      <g>
       <use xlink:href="#m241a90ac4c" x="86.4" y="190.08" style="fill: #262626; stroke: #262626; stroke-width: 1.25"/>
      </g>
     </g>
     <g id="text_12">
      <text style="fill: #262626; font: 16px 'Arial', 'DejaVu Sans', 'Liberation Sans', 'Bitstream Vera Sans', sans-serif; text-anchor: end" x="76.9" y="195.80625" transform="rotate(-0 76.9 195.80625)">0.6</text>
     </g>
    </g>
    <g id="ytick_5">
     <g id="line2d_12">
      <g>
       <use xlink:href="#m241a90ac4c" x="86.4" y="138.24" style="fill: #262626; stroke: #262626; stroke-width: 1.25"/>
      </g>
     </g>
     <g id="text_13">
      <text style="fill: #262626; font: 16px 'Arial', 'DejaVu Sans', 'Liberation Sans', 'Bitstream Vera Sans', sans-serif; text-anchor: end" x="76.9" y="143.96625" transform="rotate(-0 76.9 143.96625)">0.8</text>
     </g>
    </g>
    <g id="ytick_6">
     <g id="line2d_13">
      <g>
       <use xlink:href="#m241a90ac4c" x="86.4" y="86.4" style="fill: #262626; stroke: #262626; stroke-width: 1.25"/>
      </g>
     </g>
     <g id="text_14">
      <text style="fill: #262626; font: 16px 'Arial', 'DejaVu Sans', 'Liberation Sans', 'Bitstream Vera Sans', sans-serif; text-anchor: end" x="76.9" y="92.12625" transform="rotate(-0 76.9 92.12625)">1.0</text>
     </g>
    </g>
    <g id="text_15">
     <text style="fill: #262626; font: 16px 'Arial', 'DejaVu Sans', 'Liberation Sans', 'Bitstream Vera Sans', sans-serif; text-anchor: middle" x="47.2925" y="216" transform="rotate(-90 47.2925 216)">Relative susceptibility</text>
    </g>
   </g>
   <g id="PolyCollection_1">
    <defs>
     <path id="m4ef9e6cdee" d="M 86.4 -345.6 
L 86.4 -345.6 
L 87.12 -345.6 
L 87.84 -345.6 
L 88.56 -345.6 
L 89.28 -345.6 
L 90 -124.999903 
L 90.72 -110.157131 
L 91.44 -106.745017 
L 92.16 -105.704633 
L 92.88 -105.425658 
L 93.6 -105.445723 
L 94.32 -105.52876 
L 95.04 -105.64825 
L 95.76 -105.791718 
L 96.48 -105.949744 
L 97.2 -106.108105 
L 97.92 -106.275975 
L 98.64 -106.448694 
L 99.36 -106.62107 
L 100.08 -106.875567 
L 100.8 -107.007048 
L 101.52 -107.260027 
L 102.24 -107.545447 
L 102.96 -107.82824 
L 103.68 -108.105884 
L 104.4 -108.25529 
L 105.12 -108.379598 
L 105.84 -108.492432 
L 106.56 -108.635071 
L 107.28 -108.79803 
L 108 -108.924699 
L 108.72 -109.036401 
L 109.44 -109.218997 
L 110.16 -109.458899 
L 110.88 -109.62232 
L 111.6 -109.704291 
L 112.32 -109.824446 
L 113.04 -109.947044 
L 113.76 -110.046419 
L 114.48 -110.186735 
L 115.2 -110.351745 
L 115.92 -110.614691 
L 116.64 -110.986614 
L 117.36 -111.327877 
L 118.08 -111.709234 
L 118.8 -112.090351 
L 119.52 -112.317629 
L 120.24 -112.5788 
L 120.96 -112.879861 
L 121.68 -113.355921 
L 122.4 -113.851872 
L 123.12 -114.402175 
L 123.84 -114.935655 
L 124.56 -115.431894 
L 125.28 -115.968501 
L 126 -116.180904 
L 126.72 -116.342595 
L 127.44 -116.445182 
L 128.16 -116.57424 
L 128.88 -116.740083 
L 129.6 -116.877228 
L 130.32 -116.999399 
L 131.04 -117.150101 
L 131.76 -117.428913 
L 132.48 -117.952775 
L 133.2 -118.487673 
L 133.92 -118.780427 
L 134.64 -119.046013 
L 135.36 -119.432144 
L 136.08 -119.847649 
L 136.8 -120.283762 
L 137.52 -120.743607 
L 138.24 -121.146529 
L 138.96 -121.613089 
L 139.68 -121.841262 
L 140.4 -122.06334 
L 141.12 -122.455334 
L 141.84 -122.852153 
L 142.56 -123.284597 
L 143.28 -123.735959 
L 144 -124.212787 
L 144.72 -124.649521 
L 145.44 -125.118176 
L 146.16 -125.600588 
L 146.88 -125.997846 
L 147.6 -126.353348 
L 148.32 -126.711377 
L 149.04 -126.905709 
L 149.76 -127.127768 
L 150.48 -127.37119 
L 151.2 -127.583312 
L 151.92 -127.736363 
L 152.64 -127.930703 
L 153.36 -128.18906 
L 154.08 -128.452879 
L 154.8 -128.601416 
L 155.52 -128.930719 
L 156.24 -129.294863 
L 156.96 -129.590671 
L 157.68 -129.885448 
L 158.4 -130.231378 
L 159.12 -130.623225 
L 159.84 -130.968883 
L 160.56 -131.270286 
L 161.28 -131.624479 
L 162 -132.017899 
L 162.72 -132.357516 
L 163.44 -132.702035 
L 164.16 -133.085953 
L 164.88 -133.579423 
L 165.6 -134.106657 
L 166.32 -134.594057 
L 167.04 -135.115834 
L 167.76 -135.563276 
L 168.48 -135.807566 
L 169.2 -136.10109 
L 169.92 -136.440733 
L 170.64 -136.727438 
L 171.36 -137.008747 
L 172.08 -137.330392 
L 172.8 -137.705051 
L 173.52 -138.102635 
L 174.24 -138.479043 
L 174.96 -138.897359 
L 175.68 -139.3314 
L 176.4 -139.720267 
L 177.12 -140.123184 
L 177.84 -140.568593 
L 178.56 -141.01768 
L 179.28 -141.413383 
L 180 -141.824663 
L 180.72 -142.304307 
L 181.44 -142.809134 
L 182.16 -143.403126 
L 182.88 -144.104909 
L 183.6 -144.784324 
L 184.32 -145.404745 
L 185.04 -146.064381 
L 185.76 -146.779799 
L 186.48 -147.466318 
L 187.2 -148.133525 
L 187.92 -148.838469 
L 188.64 -149.565727 
L 189.36 -149.967371 
L 190.08 -150.228768 
L 190.8 -150.524324 
L 191.52 -150.888095 
L 192.24 -151.214373 
L 192.96 -151.50284 
L 193.68 -151.840641 
L 194.4 -152.19768 
L 195.12 -152.500981 
L 195.84 -152.815277 
L 196.56 -153.357617 
L 197.28 -153.949901 
L 198 -154.581194 
L 198.72 -155.222424 
L 199.44 -155.835089 
L 200.16 -156.362261 
L 200.88 -156.785415 
L 201.6 -157.153175 
L 202.32 -157.595231 
L 203.04 -158.074359 
L 203.76 -158.477178 
L 204.48 -158.896821 
L 205.2 -159.362289 
L 205.92 -159.839349 
L 206.64 -160.278935 
L 207.36 -160.666245 
L 208.08 -161.146704 
L 208.8 -161.58698 
L 209.52 -161.975575 
L 210.24 -162.42853 
L 210.96 -162.959576 
L 211.68 -163.455338 
L 212.4 -163.843101 
L 213.12 -164.290605 
L 213.84 -164.804685 
L 214.56 -165.254156 
L 215.28 -165.69589 
L 216 -166.186173 
L 216.72 -166.682696 
L 217.44 -167.129823 
L 218.16 -167.600901 
L 218.88 -168.117676 
L 219.6 -168.619746 
L 220.32 -169.040766 
L 221.04 -169.499363 
L 221.76 -170.048821 
L 222.48 -170.612502 
L 223.2 -171.05867 
L 223.92 -171.519952 
L 224.64 -172.322492 
L 225.36 -172.607165 
L 226.08 -173.034716 
L 226.8 -173.53629 
L 227.52 -174.066097 
L 228.24 -174.547424 
L 228.96 -175.043578 
L 229.68 -175.585569 
L 230.4 -176.14199 
L 231.12 -176.899385 
L 231.84 -177.728427 
L 232.56 -178.501471 
L 233.28 -179.251666 
L 234 -179.645176 
L 234.72 -180.077114 
L 235.44 -180.59397 
L 236.16 -181.065681 
L 236.88 -181.490903 
L 237.6 -181.970453 
L 238.32 -182.475333 
L 239.04 -182.916039 
L 239.76 -183.367607 
L 240.48 -183.874799 
L 241.2 -184.388286 
L 241.92 -184.812485 
L 242.64 -185.249382 
L 243.36 -185.783651 
L 244.08 -186.416741 
L 244.8 -186.934962 
L 245.52 -187.409192 
L 246.24 -187.943159 
L 246.96 -188.555435 
L 247.68 -189.101886 
L 248.4 -189.628676 
L 249.12 -190.208142 
L 249.84 -190.535692 
L 250.56 -190.858976 
L 251.28 -191.289955 
L 252 -191.717941 
L 252.72 -192.17848 
L 253.44 -192.612363 
L 254.16 -193.138348 
L 254.88 -193.73237 
L 255.6 -194.231726 
L 256.32 -194.65849 
L 257.04 -195.173336 
L 257.76 -195.736969 
L 258.48 -196.214719 
L 259.2 -196.709898 
L 259.92 -197.260422 
L 260.64 -198.142823 
L 261.36 -199.013756 
L 262.08 -199.804697 
L 262.8 -200.346258 
L 263.52 -200.820848 
L 264.24 -201.246697 
L 264.96 -201.650804 
L 265.68 -201.969529 
L 266.4 -202.225892 
L 267.12 -202.535386 
L 267.84 -202.924032 
L 268.56 -203.499129 
L 269.28 -204.005069 
L 270 -204.487389 
L 270.72 -205.026579 
L 271.44 -205.572097 
L 272.16 -206.069192 
L 272.88 -206.594814 
L 273.6 -207.171726 
L 274.32 -207.932601 
L 275.04 -208.804851 
L 275.76 -209.298152 
L 276.48 -209.890292 
L 277.2 -210.467765 
L 277.92 -210.899444 
L 278.64 -211.38026 
L 279.36 -211.949438 
L 280.08 -212.460486 
L 280.8 -212.929438 
L 281.52 -213.456023 
L 282.24 -214.002217 
L 282.96 -214.479898 
L 283.68 -214.974195 
L 284.4 -215.524448 
L 285.12 -216.074338 
L 285.84 -216.528587 
L 286.56 -217.002151 
L 287.28 -217.578628 
L 288 -218.191146 
L 288.72 -218.663087 
L 289.44 -219.121975 
L 290.16 -219.678718 
L 290.88 -220.2328 
L 291.6 -220.702162 
L 292.32 -221.216454 
L 293.04 -221.772883 
L 293.76 -222.27928 
L 294.48 -222.785877 
L 295.2 -223.335538 
L 295.92 -223.923328 
L 296.64 -224.460201 
L 297.36 -224.930964 
L 298.08 -225.473427 
L 298.8 -226.109914 
L 299.52 -226.716798 
L 300.24 -227.178592 
L 300.96 -227.697212 
L 301.68 -228.298737 
L 302.4 -228.833204 
L 303.12 -229.340744 
L 303.84 -229.901415 
L 304.56 -230.468152 
L 305.28 -230.976441 
L 306 -231.508259 
L 306.72 -232.087081 
L 307.44 -232.654898 
L 308.16 -233.133012 
L 308.88 -233.638412 
L 309.6 -234.244688 
L 310.32 -234.885036 
L 311.04 -235.385934 
L 311.76 -235.87249 
L 312.48 -236.451788 
L 313.2 -237.040856 
L 313.92 -237.799515 
L 314.64 -238.566286 
L 315.36 -239.304329 
L 316.08 -240.004644 
L 316.8 -240.73117 
L 317.52 -241.492235 
L 318.24 -241.761267 
L 318.96 -242.071252 
L 319.68 -242.463886 
L 320.4 -242.807019 
L 321.12 -243.102919 
L 321.84 -243.545603 
L 322.56 -243.995525 
L 323.28 -244.524459 
L 324 -245.173824 
L 324.72 -245.859434 
L 325.44 -246.316011 
L 326.16 -246.889029 
L 326.88 -247.600664 
L 327.6 -248.262692 
L 328.32 -248.911132 
L 329.04 -249.589934 
L 329.76 -250.261455 
L 330.48 -250.908932 
L 331.2 -251.569753 
L 331.92 -252.249422 
L 332.64 -252.92292 
L 333.36 -253.541378 
L 334.08 -254.15215 
L 334.8 -254.820138 
L 335.52 -255.546452 
L 336.24 -256.273719 
L 336.96 -256.894352 
L 337.68 -257.479367 
L 338.4 -258.139649 
L 339.12 -258.808859 
L 339.84 -259.42487 
L 340.56 -260.063182 
L 341.28 -260.715419 
L 342 -261.341177 
L 342.72 -261.792918 
L 343.44 -262.163554 
L 344.16 -262.580205 
L 344.88 -262.966404 
L 344.88 -345.598038 
L 344.88 -345.598038 
L 344.16 -345.597962 
L 343.44 -345.597885 
L 342.72 -345.597803 
L 342 -345.597716 
L 341.28 -345.59763 
L 340.56 -345.597539 
L 339.84 -345.597441 
L 339.12 -345.597344 
L 338.4 -345.597257 
L 337.68 -345.597171 
L 336.96 -345.597087 
L 336.24 -345.597002 
L 335.52 -345.596908 
L 334.8 -345.596814 
L 334.08 -345.596721 
L 333.36 -345.596621 
L 332.64 -345.596516 
L 331.92 -345.596411 
L 331.2 -345.596291 
L 330.48 -345.596144 
L 329.76 -345.59599 
L 329.04 -345.595839 
L 328.32 -345.595675 
L 327.6 -345.595502 
L 326.88 -345.595331 
L 326.16 -345.59515 
L 325.44 -345.594954 
L 324.72 -345.594761 
L 324 -345.59456 
L 323.28 -345.594341 
L 322.56 -345.594122 
L 321.84 -345.593897 
L 321.12 -345.593653 
L 320.4 -345.593404 
L 319.68 -345.593154 
L 318.96 -345.592882 
L 318.24 -345.592599 
L 317.52 -345.592318 
L 316.8 -345.592014 
L 316.08 -345.591693 
L 315.36 -345.591377 
L 314.64 -345.59104 
L 313.92 -345.590678 
L 313.2 -345.590321 
L 312.48 -345.589946 
L 311.76 -345.58954 
L 311.04 -345.589136 
L 310.32 -345.588718 
L 309.6 -345.588264 
L 308.88 -345.587805 
L 308.16 -345.587339 
L 307.44 -345.586833 
L 306.72 -345.586311 
L 306 -345.585791 
L 305.28 -345.585227 
L 304.56 -345.584636 
L 303.84 -345.584052 
L 303.12 -345.583426 
L 302.4 -345.582757 
L 301.68 -345.582099 
L 300.96 -345.581403 
L 300.24 -345.58076 
L 299.52 -345.580115 
L 298.8 -345.579471 
L 298.08 -345.578772 
L 297.36 -345.578046 
L 296.64 -345.577338 
L 295.92 -345.576578 
L 295.2 -345.575767 
L 294.48 -345.574979 
L 293.76 -345.574061 
L 293.04 -345.57303 
L 292.32 -345.571922 
L 291.6 -345.570827 
L 290.88 -345.569677 
L 290.16 -345.568431 
L 289.44 -345.567187 
L 288.72 -345.565905 
L 288 -345.564509 
L 287.28 -345.563093 
L 286.56 -345.56166 
L 285.84 -345.5601 
L 285.12 -345.55849 
L 284.4 -345.556884 
L 283.68 -345.555143 
L 282.96 -345.553314 
L 282.24 -345.55151 
L 281.52 -345.549569 
L 280.8 -345.547499 
L 280.08 -345.545463 
L 279.36 -345.5433 
L 278.64 -345.540967 
L 277.92 -345.538655 
L 277.2 -345.53623 
L 276.48 -345.533603 
L 275.76 -345.530966 
L 275.04 -345.528258 
L 274.32 -345.525315 
L 273.6 -345.522315 
L 272.88 -345.519285 
L 272.16 -345.515994 
L 271.44 -345.512583 
L 270.72 -345.509185 
L 270 -345.505511 
L 269.28 -345.501639 
L 268.56 -345.497816 
L 267.84 -345.493717 
L 267.12 -345.489338 
L 266.4 -345.48502 
L 265.68 -345.480447 
L 264.96 -345.475873 
L 264.24 -345.471246 
L 263.52 -345.466683 
L 262.8 -345.461972 
L 262.08 -345.45685 
L 261.36 -345.451687 
L 260.64 -345.446498 
L 259.92 -345.440854 
L 259.2 -345.435016 
L 258.48 -345.429527 
L 257.76 -345.424886 
L 257.04 -345.419878 
L 256.32 -345.415045 
L 255.6 -345.410137 
L 254.88 -345.404672 
L 254.16 -345.396609 
L 253.44 -345.390922 
L 252.72 -345.385727 
L 252 -345.380225 
L 251.28 -345.37505 
L 250.56 -345.36965 
L 249.84 -345.363752 
L 249.12 -345.357952 
L 248.4 -345.352089 
L 247.68 -345.345284 
L 246.96 -345.338194 
L 246.24 -345.331459 
L 245.52 -345.324274 
L 244.8 -345.314645 
L 244.08 -345.302119 
L 243.36 -345.289663 
L 242.64 -345.276563 
L 241.92 -345.262366 
L 241.2 -345.248148 
L 240.48 -345.233382 
L 239.76 -345.217315 
L 239.04 -345.20107 
L 238.32 -345.184414 
L 237.6 -345.166263 
L 236.88 -345.147691 
L 236.16 -345.128884 
L 235.44 -345.108403 
L 234.72 -345.087181 
L 234 -345.065915 
L 233.28 -345.042775 
L 232.56 -345.018433 
L 231.84 -344.995805 
L 231.12 -344.974904 
L 230.4 -344.955701 
L 229.68 -344.93681 
L 228.96 -344.916279 
L 228.24 -344.894814 
L 227.52 -344.87418 
L 226.8 -344.852201 
L 226.08 -344.828541 
L 225.36 -344.805572 
L 224.64 -344.782025 
L 223.92 -344.756366 
L 223.2 -344.730532 
L 222.48 -344.705127 
L 221.76 -344.677562 
L 221.04 -344.648658 
L 220.32 -344.620873 
L 219.6 -344.591385 
L 218.88 -344.559616 
L 218.16 -344.528638 
L 217.44 -344.497048 
L 216.72 -344.462663 
L 216 -344.42784 
L 215.28 -344.39373 
L 214.56 -344.356839 
L 213.84 -344.317979 
L 213.12 -344.280606 
L 212.4 -344.241167 
L 211.68 -344.198614 
L 210.96 -344.156872 
L 210.24 -344.101735 
L 209.52 -344.044657 
L 208.8 -343.984703 
L 208.08 -343.9199 
L 207.36 -343.855283 
L 206.64 -343.788668 
L 205.92 -343.716365 
L 205.2 -343.643118 
L 204.48 -343.569021 
L 203.76 -343.488551 
L 203.04 -343.405557 
L 202.32 -343.322959 
L 201.6 -343.233592 
L 200.88 -343.139759 
L 200.16 -343.047382 
L 199.44 -342.948302 
L 198.72 -342.874461 
L 198 -342.799974 
L 197.28 -342.722682 
L 196.56 -342.649153 
L 195.84 -342.570968 
L 195.12 -342.486665 
L 194.4 -342.405358 
L 193.68 -342.323189 
L 192.96 -342.232826 
L 192.24 -342.141171 
L 191.52 -342.053077 
L 190.8 -341.958053 
L 190.08 -341.856858 
L 189.36 -341.76068 
L 188.64 -341.661093 
L 187.92 -341.552609 
L 187.2 -341.444994 
L 186.48 -341.339775 
L 185.76 -341.225448 
L 185.04 -341.081739 
L 184.32 -340.919297 
L 183.6 -340.742825 
L 182.88 -340.563919 
L 182.16 -340.383079 
L 181.44 -340.186705 
L 180.72 -340.014518 
L 180 -339.863505 
L 179.28 -339.634227 
L 178.56 -339.375714 
L 177.84 -339.116748 
L 177.12 -338.882038 
L 176.4 -338.637808 
L 175.68 -338.381533 
L 174.96 -338.125568 
L 174.24 -337.848666 
L 173.52 -337.571229 
L 172.8 -337.290729 
L 172.08 -336.986878 
L 171.36 -336.751108 
L 170.64 -336.546774 
L 169.92 -336.325253 
L 169.2 -336.098486 
L 168.48 -335.709135 
L 167.76 -335.512802 
L 167.04 -335.314189 
L 166.32 -335.130896 
L 165.6 -334.737781 
L 164.88 -334.583158 
L 164.16 -334.428699 
L 163.44 -334.280275 
L 162.72 -333.991051 
L 162 -333.490956 
L 161.28 -332.995174 
L 160.56 -332.842566 
L 159.84 -332.746796 
L 159.12 -332.653845 
L 158.4 -332.439452 
L 157.68 -332.152944 
L 156.96 -331.846695 
L 156.24 -331.510539 
L 155.52 -331.072776 
L 154.8 -330.84196 
L 154.08 -330.377115 
L 153.36 -330.118958 
L 152.64 -329.86992 
L 151.92 -329.606277 
L 151.2 -329.325106 
L 150.48 -329.020758 
L 149.76 -328.785146 
L 149.04 -328.440898 
L 148.32 -328.040808 
L 147.6 -327.634692 
L 146.88 -327.250151 
L 146.16 -326.878723 
L 145.44 -326.512257 
L 144.72 -326.118151 
L 144 -325.885521 
L 143.28 -325.335201 
L 142.56 -324.9332 
L 141.84 -324.551439 
L 141.12 -324.125363 
L 140.4 -323.864724 
L 139.68 -323.570866 
L 138.96 -322.875788 
L 138.24 -322.401905 
L 137.52 -321.904602 
L 136.8 -321.288749 
L 136.08 -320.657238 
L 135.36 -320.060186 
L 134.64 -319.471431 
L 133.92 -318.803197 
L 133.2 -318.13311 
L 132.48 -317.526454 
L 131.76 -316.86302 
L 131.04 -316.443148 
L 130.32 -315.844784 
L 129.6 -314.989849 
L 128.88 -314.466782 
L 128.16 -313.952171 
L 127.44 -313.442507 
L 126.72 -312.896603 
L 126 -312.344121 
L 125.28 -311.717785 
L 124.56 -311.032542 
L 123.84 -310.361067 
L 123.12 -309.734719 
L 122.4 -309.251678 
L 121.68 -308.887961 
L 120.96 -308.493104 
L 120.24 -308.058441 
L 119.52 -307.490937 
L 118.8 -306.809979 
L 118.08 -306.179205 
L 117.36 -305.615926 
L 116.64 -305.085721 
L 115.92 -304.469021 
L 115.2 -303.828507 
L 114.48 -303.507256 
L 113.76 -303.234349 
L 113.04 -302.571188 
L 112.32 -301.70672 
L 111.6 -301.175438 
L 110.88 -300.758488 
L 110.16 -300.381483 
L 109.44 -299.6003 
L 108.72 -299.061768 
L 108 -297.991399 
L 107.28 -297.032635 
L 106.56 -296.455215 
L 105.84 -295.94986 
L 105.12 -295.497345 
L 104.4 -294.983968 
L 103.68 -294.430116 
L 102.96 -293.904805 
L 102.24 -293.414947 
L 101.52 -292.906216 
L 100.8 -292.267529 
L 100.08 -291.739696 
L 99.36 -291.204891 
L 98.64 -290.586551 
L 97.92 -289.845466 
L 97.2 -289.107355 
L 96.48 -288.393274 
L 95.76 -287.725853 
L 95.04 -287.178614 
L 94.32 -286.913166 
L 93.6 -286.768 
L 92.88 -286.935531 
L 92.16 -287.854741 
L 91.44 -290.554919 
L 90.72 -297.672597 
L 90 -315.622569 
L 89.28 -345.6 
L 88.56 -345.6 
L 87.84 -345.6 
L 87.12 -345.6 
L 86.4 -345.6 
z
" style="stroke: #ffffff; stroke-opacity: 0.5"/>
    </defs>
    <g clip-path="url(#pa36b3bc78c)">
     <use xlink:href="#m4ef9e6cdee" x="0" y="432" style="fill: #4c72b0; fill-opacity: 0.5; stroke: #ffffff; stroke-opacity: 0.5"/>
    </g>
   </g>
   <g id="line2d_14">
    <path d="M 86.4 86.4 
L 89.28 86.4 
L 90 206.396731 
L 90.72 235.954763 
L 91.44 244.886938 
L 92.16 247.9173 
L 92.88 248.834867 
L 93.6 248.896321 
L 94.32 248.602778 
L 95.76 247.669685 
L 100.08 244.346236 
L 107.28 238.316106 
L 114.48 231.981496 
L 133.2 213.955843 
L 147.6 199.485491 
L 151.92 195.138228 
L 168.48 178.994318 
L 182.16 166.515413 
L 190.8 159.19438 
L 197.28 153.976156 
L 205.2 147.993015 
L 211.68 143.403734 
L 221.04 137.290469 
L 226.08 134.226552 
L 231.12 131.329538 
L 239.04 127.097356 
L 245.52 123.916926 
L 252.72 120.661626 
L 261.36 117.126141 
L 268.56 114.45538 
L 276.48 111.793083 
L 283.68 109.597047 
L 290.88 107.595829 
L 299.52 105.432385 
L 308.16 103.50303 
L 317.52 101.639419 
L 327.6 99.875164 
L 337.68 98.327642 
L 344.88 97.336658 
L 344.88 97.336658 
" clip-path="url(#pa36b3bc78c)" style="fill: none; stroke: #4c72b0; stroke-width: 2; stroke-linecap: round"/>
   </g>
   <g id="patch_3">
    <path d="M 86.4 345.6 
L 86.4 86.4 
" style="fill: none; stroke: #262626; stroke-width: 1.25; stroke-linejoin: miter; stroke-linecap: square"/>
   </g>
   <g id="patch_4">
    <path d="M 86.4 345.6 
L 345.6 345.6 
" style="fill: none; stroke: #262626; stroke-width: 1.25; stroke-linejoin: miter; stroke-linecap: square"/>
   </g>
  </g>
 </g>
 <defs>
  <clipPath id="pa36b3bc78c">
   <rect x="86.4" y="86.4" width="259.2" height="259.2"/>
  </clipPath>
 </defs>
</svg>
