<?xml version="1.0" encoding="utf-8" standalone="no"?>
<!DOCTYPE svg PUBLIC "-//W3C//DTD SVG 1.1//EN"
  "http://www.w3.org/Graphics/SVG/1.1/DTD/svg11.dtd">
<svg xmlns:xlink="http://www.w3.org/1999/xlink" width="432pt" height="432pt" viewBox="0 0 432 432" xmlns="http://www.w3.org/2000/svg" version="1.1">
 <metadata>
  <rdf:RDF xmlns:dc="http://purl.org/dc/elements/1.1/" xmlns:cc="http://creativecommons.org/ns#" xmlns:rdf="http://www.w3.org/1999/02/22-rdf-syntax-ns#">
   <cc:Work>
    <dc:type rdf:resource="http://purl.org/dc/dcmitype/StillImage"/>
    <dc:date>2024-05-24T16:55:44.822839</dc:date>
    <dc:format>image/svg+xml</dc:format>
    <dc:creator>
     <cc:Agent>
      <dc:title>Matplotlib v3.8.4, https://matplotlib.org/</dc:title>
     </cc:Agent>
    </dc:creator>
   </cc:Work>
  </rdf:RDF>
 </metadata>
 <defs>
  <style type="text/css">*{stroke-linejoin: round; stroke-linecap: butt}</style>
 </defs>
 <g id="figure_1">
  <g id="patch_1">
   <path d="M 0 432 
L 432 432 
L 432 0 
L 0 0 
L 0 432 
z
" style="fill: none"/>
  </g>
  <g id="axes_1">
   <g id="patch_2">
    <path d="M 86.4 345.6 
L 345.6 345.6 
L 345.6 86.4 
L 86.4 86.4 
L 86.4 345.6 
z
" style="fill: none"/>
   </g>
   <g id="matplotlib.axis_1">
    <g id="xtick_1">
     <g id="line2d_1">
      <defs>
       <path id="m176360c442" d="M 0 0 
L 0 6 
" style="stroke: #262626; stroke-width: 1.25"/>
      </defs>
      <g>
       <use xlink:href="#m176360c442" x="86.4" y="345.6" style="fill: #262626; stroke: #262626; stroke-width: 1.25"/>
      </g>
     </g>
     <g id="text_1">
      <text style="fill: #262626; font: 16px 'Arial', 'DejaVu Sans', 'Liberation Sans', 'Bitstream Vera Sans', sans-serif; text-anchor: middle" x="86.4" y="366.5525" transform="rotate(-0 86.4 366.5525)">0</text>
     </g>
    </g>
    <g id="xtick_2">
     <g id="line2d_2">
      <g>
       <use xlink:href="#m176360c442" x="129.6" y="345.6" style="fill: #262626; stroke: #262626; stroke-width: 1.25"/>
      </g>
     </g>
     <g id="text_2">
      <text style="fill: #262626; font: 16px 'Arial', 'DejaVu Sans', 'Liberation Sans', 'Bitstream Vera Sans', sans-serif; text-anchor: middle" x="129.6" y="366.5525" transform="rotate(-0 129.6 366.5525)">60</text>
     </g>
    </g>
    <g id="xtick_3">
     <g id="line2d_3">
      <g>
       <use xlink:href="#m176360c442" x="172.8" y="345.6" style="fill: #262626; stroke: #262626; stroke-width: 1.25"/>
      </g>
     </g>
     <g id="text_3">
      <text style="fill: #262626; font: 16px 'Arial', 'DejaVu Sans', 'Liberation Sans', 'Bitstream Vera Sans', sans-serif; text-anchor: middle" x="172.8" y="366.5525" transform="rotate(-0 172.8 366.5525)">120</text>
     </g>
    </g>
    <g id="xtick_4">
     <g id="line2d_4">
      <g>
       <use xlink:href="#m176360c442" x="216" y="345.6" style="fill: #262626; stroke: #262626; stroke-width: 1.25"/>
      </g>
     </g>
     <g id="text_4">
      <text style="fill: #262626; font: 16px 'Arial', 'DejaVu Sans', 'Liberation Sans', 'Bitstream Vera Sans', sans-serif; text-anchor: middle" x="216" y="366.5525" transform="rotate(-0 216 366.5525)">180</text>
     </g>
    </g>
    <g id="xtick_5">
     <g id="line2d_5">
      <g>
       <use xlink:href="#m176360c442" x="259.2" y="345.6" style="fill: #262626; stroke: #262626; stroke-width: 1.25"/>
      </g>
     </g>
     <g id="text_5">
      <text style="fill: #262626; font: 16px 'Arial', 'DejaVu Sans', 'Liberation Sans', 'Bitstream Vera Sans', sans-serif; text-anchor: middle" x="259.2" y="366.5525" transform="rotate(-0 259.2 366.5525)">240</text>
     </g>
    </g>
    <g id="xtick_6">
     <g id="line2d_6">
      <g>
       <use xlink:href="#m176360c442" x="302.4" y="345.6" style="fill: #262626; stroke: #262626; stroke-width: 1.25"/>
      </g>
     </g>
     <g id="text_6">
      <text style="fill: #262626; font: 16px 'Arial', 'DejaVu Sans', 'Liberation Sans', 'Bitstream Vera Sans', sans-serif; text-anchor: middle" x="302.4" y="366.5525" transform="rotate(-0 302.4 366.5525)">300</text>
     </g>
    </g>
    <g id="xtick_7">
     <g id="line2d_7">
      <g>
       <use xlink:href="#m176360c442" x="345.6" y="345.6" style="fill: #262626; stroke: #262626; stroke-width: 1.25"/>
      </g>
     </g>
     <g id="text_7">
      <text style="fill: #262626; font: 16px 'Arial', 'DejaVu Sans', 'Liberation Sans', 'Bitstream Vera Sans', sans-serif; text-anchor: middle" x="345.6" y="366.5525" transform="rotate(-0 345.6 366.5525)">360</text>
     </g>
    </g>
    <g id="text_8">
     <text style="fill: #262626; font: 16px 'Arial', 'DejaVu Sans', 'Liberation Sans', 'Bitstream Vera Sans', sans-serif; text-anchor: middle" x="216" y="385.38" transform="rotate(-0 216 385.38)">Time since vaccination (days)</text>
    </g>
   </g>
   <g id="matplotlib.axis_2">
    <g id="ytick_1">
     <g id="line2d_8">
      <defs>
       <path id="m8efa63f753" d="M 0 0 
L -6 0 
" style="stroke: #262626; stroke-width: 1.25"/>
      </defs>
      <g>
       <use xlink:href="#m8efa63f753" x="86.4" y="345.6" style="fill: #262626; stroke: #262626; stroke-width: 1.25"/>
      </g>
     </g>
     <g id="text_9">
      <text style="fill: #262626; font: 16px 'Arial', 'DejaVu Sans', 'Liberation Sans', 'Bitstream Vera Sans', sans-serif; text-anchor: end" x="76.9" y="351.32625" transform="rotate(-0 76.9 351.32625)">0.0</text>
     </g>
    </g>
    <g id="ytick_2">
     <g id="line2d_9">
      <g>
       <use xlink:href="#m8efa63f753" x="86.4" y="293.76" style="fill: #262626; stroke: #262626; stroke-width: 1.25"/>
      </g>
     </g>
     <g id="text_10">
      <text style="fill: #262626; font: 16px 'Arial', 'DejaVu Sans', 'Liberation Sans', 'Bitstream Vera Sans', sans-serif; text-anchor: end" x="76.9" y="299.48625" transform="rotate(-0 76.9 299.48625)">0.2</text>
     </g>
    </g>
    <g id="ytick_3">
     <g id="line2d_10">
      <g>
       <use xlink:href="#m8efa63f753" x="86.4" y="241.92" style="fill: #262626; stroke: #262626; stroke-width: 1.25"/>
      </g>
     </g>
     <g id="text_11">
      <text style="fill: #262626; font: 16px 'Arial', 'DejaVu Sans', 'Liberation Sans', 'Bitstream Vera Sans', sans-serif; text-anchor: end" x="76.9" y="247.64625" transform="rotate(-0 76.9 247.64625)">0.4</text>
     </g>
    </g>
    <g id="ytick_4">
     <g id="line2d_11">
      <g>
       <use xlink:href="#m8efa63f753" x="86.4" y="190.08" style="fill: #262626; stroke: #262626; stroke-width: 1.25"/>
      </g>
     </g>
     <g id="text_12">
      <text style="fill: #262626; font: 16px 'Arial', 'DejaVu Sans', 'Liberation Sans', 'Bitstream Vera Sans', sans-serif; text-anchor: end" x="76.9" y="195.80625" transform="rotate(-0 76.9 195.80625)">0.6</text>
     </g>
    </g>
    <g id="ytick_5">
     <g id="line2d_12">
      <g>
       <use xlink:href="#m8efa63f753" x="86.4" y="138.24" style="fill: #262626; stroke: #262626; stroke-width: 1.25"/>
      </g>
     </g>
     <g id="text_13">
      <text style="fill: #262626; font: 16px 'Arial', 'DejaVu Sans', 'Liberation Sans', 'Bitstream Vera Sans', sans-serif; text-anchor: end" x="76.9" y="143.96625" transform="rotate(-0 76.9 143.96625)">0.8</text>
     </g>
    </g>
    <g id="ytick_6">
     <g id="line2d_13">
      <g>
       <use xlink:href="#m8efa63f753" x="86.4" y="86.4" style="fill: #262626; stroke: #262626; stroke-width: 1.25"/>
      </g>
     </g>
     <g id="text_14">
      <text style="fill: #262626; font: 16px 'Arial', 'DejaVu Sans', 'Liberation Sans', 'Bitstream Vera Sans', sans-serif; text-anchor: end" x="76.9" y="92.12625" transform="rotate(-0 76.9 92.12625)">1.0</text>
     </g>
    </g>
    <g id="text_15">
     <text style="fill: #262626; font: 16px 'Arial', 'DejaVu Sans', 'Liberation Sans', 'Bitstream Vera Sans', sans-serif; text-anchor: middle" x="47.2925" y="216" transform="rotate(-90 47.2925 216)">Relative susceptibility</text>
    </g>
   </g>
   <g id="PolyCollection_1">
    <defs>
     <path id="m216cd394e7" d="M 86.4 -345.597261 
L 86.4 -262.00983 
L 87.12 -262.365188 
L 87.84 -262.732542 
L 88.56 -263.109946 
L 89.28 -263.065228 
L 90 -124.67442 
L 90.72 -111.648258 
L 91.44 -108.207862 
L 92.16 -107.143257 
L 92.88 -106.867112 
L 93.6 -106.891282 
L 94.32 -106.971731 
L 95.04 -107.103077 
L 95.76 -107.248847 
L 96.48 -107.410282 
L 97.2 -107.581778 
L 97.92 -107.749057 
L 98.64 -107.923796 
L 99.36 -108.110761 
L 100.08 -108.371487 
L 100.8 -108.494906 
L 101.52 -108.767045 
L 102.24 -109.062631 
L 102.96 -109.354919 
L 103.68 -109.638297 
L 104.4 -109.776653 
L 105.12 -109.930114 
L 105.84 -110.057459 
L 106.56 -110.184981 
L 107.28 -110.334479 
L 108 -110.485675 
L 108.72 -110.610457 
L 109.44 -110.786336 
L 110.16 -111.000499 
L 110.88 -111.185547 
L 111.6 -111.313556 
L 112.32 -111.412121 
L 113.04 -111.495664 
L 113.76 -111.667582 
L 114.48 -111.783573 
L 115.2 -111.918898 
L 115.92 -112.219639 
L 116.64 -112.601271 
L 117.36 -112.950869 
L 118.08 -113.341772 
L 118.8 -113.735746 
L 119.52 -113.986462 
L 120.24 -114.228795 
L 120.96 -114.526646 
L 121.68 -115.033529 
L 122.4 -115.527975 
L 123.12 -116.072296 
L 123.84 -116.618991 
L 124.56 -117.151067 
L 125.28 -117.695282 
L 126 -117.902369 
L 126.72 -118.016058 
L 127.44 -118.170251 
L 128.16 -118.341527 
L 128.88 -118.460956 
L 129.6 -118.578815 
L 130.32 -118.745139 
L 131.04 -118.922958 
L 131.76 -119.209402 
L 132.48 -119.714653 
L 133.2 -120.192916 
L 133.92 -120.534485 
L 134.64 -120.807823 
L 135.36 -121.206524 
L 136.08 -121.624247 
L 136.8 -122.065678 
L 137.52 -122.531909 
L 138.24 -122.911616 
L 138.96 -123.425017 
L 139.68 -123.622988 
L 140.4 -123.83094 
L 141.12 -124.236945 
L 141.84 -124.653189 
L 142.56 -125.104226 
L 143.28 -125.575832 
L 144 -126.018163 
L 144.72 -126.463783 
L 145.44 -126.940045 
L 146.16 -127.431458 
L 146.88 -127.855247 
L 147.6 -128.194493 
L 148.32 -128.519956 
L 149.04 -128.777691 
L 149.76 -128.971217 
L 150.48 -129.175242 
L 151.2 -129.392299 
L 151.92 -129.617055 
L 152.64 -129.768771 
L 153.36 -129.974952 
L 154.08 -130.24806 
L 154.8 -130.472095 
L 155.52 -130.797179 
L 156.24 -131.076712 
L 156.96 -131.465778 
L 157.68 -131.78722 
L 158.4 -132.083334 
L 159.12 -132.43713 
L 159.84 -132.807166 
L 160.56 -133.124264 
L 161.28 -133.465891 
L 162 -133.843258 
L 162.72 -134.197762 
L 163.44 -134.539097 
L 164.16 -134.911811 
L 164.88 -135.408965 
L 165.6 -135.952631 
L 166.32 -136.432941 
L 167.04 -136.928561 
L 167.76 -137.369017 
L 168.48 -137.621823 
L 169.2 -137.912368 
L 169.92 -138.259902 
L 170.64 -138.587018 
L 171.36 -138.84083 
L 172.08 -139.136594 
L 172.8 -139.511882 
L 173.52 -139.920368 
L 174.24 -140.296574 
L 174.96 -140.698651 
L 175.68 -141.134438 
L 176.4 -141.553744 
L 177.12 -141.921733 
L 177.84 -142.326544 
L 178.56 -142.79961 
L 179.28 -143.284395 
L 180 -143.673547 
L 180.72 -144.083386 
L 181.44 -144.558172 
L 182.16 -145.194187 
L 182.88 -145.897301 
L 183.6 -146.530047 
L 184.32 -147.147032 
L 185.04 -147.82921 
L 185.76 -148.536001 
L 186.48 -149.184238 
L 187.2 -149.856365 
L 187.92 -150.567577 
L 188.64 -151.266786 
L 189.36 -151.593503 
L 190.08 -151.937309 
L 190.8 -152.253986 
L 191.52 -152.534098 
L 192.24 -152.856213 
L 192.96 -153.215521 
L 193.68 -153.529186 
L 194.4 -153.801981 
L 195.12 -154.137871 
L 195.84 -154.533685 
L 196.56 -154.973913 
L 197.28 -155.543165 
L 198 -156.187127 
L 198.72 -156.879259 
L 199.44 -157.442113 
L 200.16 -157.888177 
L 200.88 -158.385873 
L 201.6 -158.798619 
L 202.32 -159.163115 
L 203.04 -159.602595 
L 203.76 -160.071947 
L 204.48 -160.465996 
L 205.2 -160.883884 
L 205.92 -161.356458 
L 206.64 -161.83746 
L 207.36 -162.178874 
L 208.08 -162.622283 
L 208.8 -163.097386 
L 209.52 -163.525122 
L 210.24 -163.908621 
L 210.96 -164.359469 
L 211.68 -164.88502 
L 212.4 -165.368452 
L 213.12 -165.749159 
L 213.84 -166.19214 
L 214.56 -166.697443 
L 215.28 -167.14064 
L 216 -167.576139 
L 216.72 -168.060571 
L 217.44 -168.545248 
L 218.16 -168.983679 
L 218.88 -169.446631 
L 219.6 -169.953683 
L 220.32 -170.440248 
L 221.04 -170.854091 
L 221.76 -171.305354 
L 222.48 -171.845639 
L 223.2 -172.407432 
L 223.92 -172.842947 
L 224.64 -173.480096 
L 225.36 -173.892545 
L 226.08 -174.321185 
L 226.8 -174.767633 
L 227.52 -175.259462 
L 228.24 -175.779807 
L 228.96 -176.259558 
L 229.68 -176.746723 
L 230.4 -177.279917 
L 231.12 -178.054839 
L 231.84 -178.792748 
L 232.56 -179.55199 
L 233.28 -180.20886 
L 234 -180.742783 
L 234.72 -181.24834 
L 235.44 -181.625174 
L 236.16 -182.058427 
L 236.88 -182.566989 
L 237.6 -183.012139 
L 238.32 -183.437935 
L 239.04 -183.9148 
L 239.76 -184.395636 
L 240.48 -184.824197 
L 241.2 -185.278989 
L 241.92 -185.779766 
L 242.64 -186.266632 
L 243.36 -186.670778 
L 244.08 -187.235467 
L 244.8 -187.762707 
L 245.52 -188.356547 
L 246.24 -188.818194 
L 246.96 -189.336031 
L 247.68 -189.932087 
L 248.4 -190.46523 
L 249.12 -190.978799 
L 249.84 -191.294901 
L 250.56 -191.639015 
L 251.28 -192.063231 
L 252 -192.431989 
L 252.72 -192.903233 
L 253.44 -193.419944 
L 254.16 -193.860403 
L 254.88 -194.289482 
L 255.6 -194.810507 
L 256.32 -195.395078 
L 257.04 -195.880078 
L 257.76 -196.299528 
L 258.48 -196.814209 
L 259.2 -197.365891 
L 259.92 -197.829886 
L 260.64 -198.685136 
L 261.36 -199.54463 
L 262.08 -200.32128 
L 262.8 -200.773399 
L 263.52 -201.27581 
L 264.24 -201.794517 
L 264.96 -202.132509 
L 265.68 -202.343319 
L 266.4 -202.657482 
L 267.12 -203.019369 
L 267.84 -203.437032 
L 268.56 -203.857366 
L 269.28 -204.339082 
L 270 -204.896798 
L 270.72 -205.385535 
L 271.44 -205.858988 
L 272.16 -206.396078 
L 272.88 -206.934829 
L 273.6 -207.42224 
L 274.32 -208.178024 
L 275.04 -209.080782 
L 275.76 -209.579091 
L 276.48 -210.001079 
L 277.2 -210.498472 
L 277.92 -211.086366 
L 278.64 -211.635321 
L 279.36 -212.048041 
L 280.08 -212.524327 
L 280.8 -213.077784 
L 281.52 -213.558647 
L 282.24 -214.023347 
L 282.96 -214.540559 
L 283.68 -215.056655 
L 284.4 -215.519962 
L 285.12 -216.011682 
L 285.84 -216.548836 
L 286.56 -217.067112 
L 287.28 -217.499227 
L 288 -217.971072 
L 288.72 -218.544071 
L 289.44 -219.138083 
L 290.16 -219.58541 
L 290.88 -220.03469 
L 291.6 -220.578486 
L 292.32 -221.102357 
L 293.04 -221.56274 
L 293.76 -222.068603 
L 294.48 -222.610569 
L 295.2 -223.13569 
L 295.92 -223.631542 
L 296.64 -224.164575 
L 297.36 -224.729938 
L 298.08 -225.251218 
L 298.8 -225.706558 
L 299.52 -226.226794 
L 300.24 -226.842636 
L 300.96 -227.449628 
L 301.68 -227.904487 
L 302.4 -228.392182 
L 303.12 -228.967713 
L 303.84 -229.495968 
L 304.56 -229.987954 
L 305.28 -230.526 
L 306 -231.073357 
L 306.72 -231.570716 
L 307.44 -232.086241 
L 308.16 -232.64234 
L 308.88 -233.19294 
L 309.6 -233.660872 
L 310.32 -234.14222 
L 311.04 -234.720713 
L 311.76 -235.353796 
L 312.48 -235.876657 
L 313.2 -236.413142 
L 313.92 -237.143559 
L 314.64 -237.83297 
L 315.36 -238.529121 
L 316.08 -239.271616 
L 316.8 -240.057394 
L 317.52 -240.617065 
L 318.24 -240.973344 
L 318.96 -241.349291 
L 319.68 -241.63241 
L 320.4 -241.947235 
L 321.12 -242.311482 
L 321.84 -242.636321 
L 322.56 -243.17669 
L 323.28 -243.766654 
L 324 -244.269486 
L 324.72 -244.96781 
L 325.44 -245.440499 
L 326.16 -245.985594 
L 326.88 -246.64665 
L 327.6 -247.275633 
L 328.32 -247.931069 
L 329.04 -248.589915 
L 329.76 -249.22484 
L 330.48 -249.867433 
L 331.2 -250.5248 
L 331.92 -251.181376 
L 332.64 -251.802006 
L 333.36 -252.397983 
L 334.08 -253.031372 
L 334.8 -253.718193 
L 335.52 -254.431186 
L 336.24 -255.095272 
L 336.96 -255.659943 
L 337.68 -256.268931 
L 338.4 -256.933966 
L 339.12 -257.548602 
L 339.84 -258.161759 
L 340.56 -258.79745 
L 341.28 -259.421503 
L 342 -260.031277 
L 342.72 -260.438602 
L 343.44 -260.805242 
L 344.16 -261.252046 
L 344.88 -261.676999 
L 345.6 -262.011016 
L 345.6 -345.597261 
L 345.6 -345.597261 
L 344.88 -345.597165 
L 344.16 -345.597057 
L 343.44 -345.59695 
L 342.72 -345.596836 
L 342 -345.596714 
L 341.28 -345.596594 
L 340.56 -345.596468 
L 339.84 -345.596331 
L 339.12 -345.596197 
L 338.4 -345.596073 
L 337.68 -345.595962 
L 336.96 -345.595842 
L 336.24 -345.595717 
L 335.52 -345.595596 
L 334.8 -345.595468 
L 334.08 -345.59533 
L 333.36 -345.595197 
L 332.64 -345.59506 
L 331.92 -345.59491 
L 331.2 -345.594743 
L 330.48 -345.594544 
L 329.76 -345.594332 
L 329.04 -345.594123 
L 328.32 -345.593902 
L 327.6 -345.593665 
L 326.88 -345.59343 
L 326.16 -345.593185 
L 325.44 -345.59292 
L 324.72 -345.592654 
L 324 -345.592383 
L 323.28 -345.592088 
L 322.56 -345.591787 
L 321.84 -345.591486 
L 321.12 -345.591159 
L 320.4 -345.590818 
L 319.68 -345.590482 
L 318.96 -345.59012 
L 318.24 -345.589735 
L 317.52 -345.589357 
L 316.8 -345.588954 
L 316.08 -345.588522 
L 315.36 -345.588096 
L 314.64 -345.58765 
L 313.92 -345.587168 
L 313.2 -345.586686 
L 312.48 -345.586192 
L 311.76 -345.585654 
L 311.04 -345.585109 
L 310.32 -345.58456 
L 309.6 -345.583963 
L 308.88 -345.583345 
L 308.16 -345.582733 
L 307.44 -345.582072 
L 306.72 -345.581374 
L 306 -345.580689 
L 305.28 -345.579957 
L 304.56 -345.579173 
L 303.84 -345.578403 
L 303.12 -345.577592 
L 302.4 -345.576715 
L 301.68 -345.575845 
L 300.96 -345.574946 
L 300.24 -345.574111 
L 299.52 -345.573291 
L 298.8 -345.5724 
L 298.08 -345.571502 
L 297.36 -345.57061 
L 296.64 -345.569642 
L 295.92 -345.568634 
L 295.2 -345.567655 
L 294.48 -345.566607 
L 293.76 -345.565388 
L 293.04 -345.564055 
L 292.32 -345.562702 
L 291.6 -345.561231 
L 290.88 -345.55972 
L 290.16 -345.558211 
L 289.44 -345.556574 
L 288.72 -345.554864 
L 288 -345.553176 
L 287.28 -345.551358 
L 286.56 -345.549426 
L 285.84 -345.547531 
L 285.12 -345.545512 
L 284.4 -345.543342 
L 283.68 -345.541202 
L 282.96 -345.538961 
L 282.24 -345.536532 
L 281.52 -345.534109 
L 280.8 -345.531617 
L 280.08 -345.528907 
L 279.36 -345.52616 
L 278.64 -345.523385 
L 277.92 -345.52036 
L 277.2 -345.517237 
L 276.48 -345.514122 
L 275.76 -345.510749 
L 275.04 -345.507214 
L 274.32 -345.503726 
L 273.6 -345.499977 
L 272.88 -345.495989 
L 272.16 -345.492067 
L 271.44 -345.487901 
L 270.72 -345.483423 
L 270 -345.478993 
L 269.28 -345.474364 
L 268.56 -345.469351 
L 267.84 -345.464334 
L 267.12 -345.459184 
L 266.4 -345.45359 
L 265.68 -345.447902 
L 264.96 -345.442399 
L 264.24 -345.436709 
L 263.52 -345.431127 
L 262.8 -345.425336 
L 262.08 -345.41905 
L 261.36 -345.412759 
L 260.64 -345.406405 
L 259.92 -345.399497 
L 259.2 -345.392404 
L 258.48 -345.385694 
L 257.76 -345.380062 
L 257.04 -345.373986 
L 256.32 -345.368081 
L 255.6 -345.36213 
L 254.88 -345.355532 
L 254.16 -345.346014 
L 253.44 -345.338742 
L 252.72 -345.3323 
L 252 -345.326221 
L 251.28 -345.319792 
L 250.56 -345.31283 
L 249.84 -345.306095 
L 249.12 -345.299388 
L 248.4 -345.291996 
L 247.68 -345.283843 
L 246.96 -345.275309 
L 246.24 -345.267197 
L 245.52 -345.258617 
L 244.8 -345.246926 
L 244.08 -345.232067 
L 243.36 -345.217318 
L 242.64 -345.20141 
L 241.92 -345.184536 
L 241.2 -345.167863 
L 240.48 -345.150013 
L 239.76 -345.130893 
L 239.04 -345.111998 
L 238.32 -345.091971 
L 237.6 -345.070367 
L 236.88 -345.048901 
L 236.16 -345.026424 
L 235.44 -345.002062 
L 234.72 -344.977646 
L 234 -344.952401 
L 233.28 -344.924912 
L 232.56 -344.896989 
L 231.84 -344.87013 
L 231.12 -344.845394 
L 230.4 -344.823816 
L 229.68 -344.801334 
L 228.96 -344.776926 
L 228.24 -344.752767 
L 227.52 -344.728665 
L 226.8 -344.702425 
L 226.08 -344.67536 
L 225.36 -344.649241 
L 224.64 -344.621215 
L 223.92 -344.591277 
L 223.2 -344.562478 
L 222.48 -344.532576 
L 221.76 -344.500083 
L 221.04 -344.467822 
L 220.32 -344.43576 
L 219.6 -344.400882 
L 218.88 -344.364781 
L 218.16 -344.330002 
L 217.44 -344.292788 
L 216.72 -344.25297 
L 216 -344.214551 
L 215.28 -344.174862 
L 214.56 -344.131738 
L 213.84 -344.088704 
L 213.12 -344.04613 
L 212.4 -343.999916 
L 211.68 -343.951855 
L 210.96 -343.905609 
L 210.24 -343.842059 
L 209.52 -343.777164 
L 208.8 -343.709364 
L 208.08 -343.636025 
L 207.36 -343.562792 
L 206.64 -343.487713 
L 205.92 -343.406264 
L 205.2 -343.323556 
L 204.48 -343.240291 
L 203.76 -343.15006 
L 203.04 -343.056734 
L 202.32 -342.964188 
L 201.6 -342.8644 
L 200.88 -342.759372 
L 200.16 -342.656176 
L 199.44 -342.545953 
L 198.72 -342.461241 
L 198 -342.382595 
L 197.28 -342.296825 
L 196.56 -342.209969 
L 195.84 -342.126439 
L 195.12 -342.036434 
L 194.4 -341.940795 
L 193.68 -341.849844 
L 192.96 -341.755059 
L 192.24 -341.652035 
L 191.52 -341.549893 
L 190.8 -341.449906 
L 190.08 -341.34142 
L 189.36 -341.228047 
L 188.64 -341.120428 
L 187.92 -341.007029 
L 187.2 -340.88465 
L 186.48 -340.76539 
L 185.76 -340.646439 
L 185.04 -340.487228 
L 184.32 -340.309311 
L 183.6 -340.116659 
L 182.88 -339.922027 
L 182.16 -339.724783 
L 181.44 -339.511172 
L 180.72 -339.316979 
L 180 -339.158481 
L 179.28 -338.911981 
L 178.56 -338.6323 
L 177.84 -338.352517 
L 177.12 -338.100868 
L 176.4 -337.843196 
L 175.68 -337.560376 
L 174.96 -337.285123 
L 174.24 -336.987755 
L 173.52 -336.690691 
L 172.8 -336.39026 
L 172.08 -336.065208 
L 171.36 -335.814207 
L 170.64 -335.595273 
L 169.92 -335.358951 
L 169.2 -335.118021 
L 168.48 -334.699588 
L 167.76 -334.503876 
L 167.04 -334.291435 
L 166.32 -334.080465 
L 165.6 -333.673256 
L 164.88 -333.508816 
L 164.16 -333.346429 
L 163.44 -333.190752 
L 162.72 -332.883061 
L 162 -332.355206 
L 161.28 -331.833264 
L 160.56 -331.674701 
L 159.84 -331.580697 
L 159.12 -331.463263 
L 158.4 -331.248492 
L 157.68 -330.946467 
L 156.96 -330.62595 
L 156.24 -330.272825 
L 155.52 -329.802738 
L 154.8 -329.570812 
L 154.08 -329.086212 
L 153.36 -328.815717 
L 152.64 -328.553966 
L 151.92 -328.281236 
L 151.2 -327.989468 
L 150.48 -327.669588 
L 149.76 -327.425335 
L 149.04 -327.064408 
L 148.32 -326.644921 
L 147.6 -326.232829 
L 146.88 -325.833814 
L 146.16 -325.446276 
L 145.44 -325.065297 
L 144.72 -324.647736 
L 144 -324.43564 
L 143.28 -323.846816 
L 142.56 -323.431501 
L 141.84 -323.06302 
L 141.12 -322.608514 
L 140.4 -322.327028 
L 139.68 -322.020955 
L 138.96 -321.295997 
L 138.24 -320.824762 
L 137.52 -320.345141 
L 136.8 -319.684772 
L 136.08 -319.000742 
L 135.36 -318.399714 
L 134.64 -317.856574 
L 133.92 -317.120128 
L 133.2 -316.431232 
L 132.48 -315.858965 
L 131.76 -315.149636 
L 131.04 -314.73053 
L 130.32 -314.107178 
L 129.6 -313.252434 
L 128.88 -312.720833 
L 128.16 -312.199534 
L 127.44 -311.685771 
L 126.72 -311.122431 
L 126 -310.537952 
L 125.28 -309.903347 
L 124.56 -309.281254 
L 123.84 -308.588161 
L 123.12 -307.875947 
L 122.4 -307.431486 
L 121.68 -307.0769 
L 120.96 -306.679475 
L 120.24 -306.239548 
L 119.52 -305.693429 
L 118.8 -304.985106 
L 118.08 -304.351702 
L 117.36 -303.785096 
L 116.64 -303.251738 
L 115.92 -302.632752 
L 115.2 -301.990439 
L 114.48 -301.664183 
L 113.76 -301.437931 
L 113.04 -300.726108 
L 112.32 -299.862291 
L 111.6 -299.333796 
L 110.88 -298.920187 
L 110.16 -298.526806 
L 109.44 -297.757097 
L 108.72 -297.222349 
L 108 -296.086365 
L 107.28 -295.196466 
L 106.56 -294.624116 
L 105.84 -294.123442 
L 105.12 -293.670069 
L 104.4 -293.154866 
L 103.68 -292.604686 
L 102.96 -292.085698 
L 102.24 -291.600454 
L 101.52 -291.091451 
L 100.8 -290.455978 
L 100.08 -289.932607 
L 99.36 -289.403258 
L 98.64 -288.789392 
L 97.92 -288.055005 
L 97.2 -287.323292 
L 96.48 -286.615506 
L 95.76 -285.954986 
L 95.04 -285.411444 
L 94.32 -285.137923 
L 93.6 -284.982147 
L 92.88 -285.105715 
L 92.16 -285.923038 
L 91.44 -288.369534 
L 90.72 -294.875909 
L 90 -311.83066 
L 89.28 -345.597597 
L 88.56 -345.597517 
L 87.84 -345.597435 
L 87.12 -345.597349 
L 86.4 -345.597261 
z
" style="stroke: #ffffff; stroke-opacity: 0.5"/>
    </defs>
    <g clip-path="url(#pc0c8291e4f)">
     <use xlink:href="#m216cd394e7" x="0" y="432" style="fill: #4c72b0; fill-opacity: 0.5; stroke: #ffffff; stroke-opacity: 0.5"/>
    </g>
   </g>
   <g id="line2d_14">
    <path d="M 86.4 97.799989 
L 89.28 97.431964 
L 90 209.912748 
L 90.72 236.435307 
L 91.44 244.582304 
L 92.16 247.350486 
L 92.88 248.168705 
L 93.6 248.193299 
L 94.32 247.897923 
L 95.76 246.973735 
L 100.8 243.146423 
L 110.16 235.370502 
L 118.08 228.336989 
L 131.04 216.091763 
L 157.68 189.933554 
L 177.84 171.186169 
L 183.6 166.15896 
L 188.64 161.923064 
L 195.12 156.678529 
L 201.6 151.695474 
L 210.24 145.485808 
L 218.16 140.200258 
L 226.08 135.321174 
L 233.28 131.234796 
L 238.32 128.551194 
L 244.8 125.329367 
L 249.84 122.983214 
L 255.6 120.473135 
L 261.36 118.124107 
L 268.56 115.422807 
L 275.04 113.187153 
L 282.96 110.693966 
L 290.88 108.43982 
L 298.08 106.579204 
L 308.16 104.245925 
L 318.24 102.197425 
L 327.6 100.516979 
L 338.4 98.812554 
L 345.6 97.799369 
L 345.6 97.799369 
" clip-path="url(#pc0c8291e4f)" style="fill: none; stroke: #4c72b0; stroke-width: 2; stroke-linecap: round"/>
   </g>
   <g id="patch_3">
    <path d="M 86.4 345.6 
L 86.4 86.4 
" style="fill: none; stroke: #262626; stroke-width: 1.25; stroke-linejoin: miter; stroke-linecap: square"/>
   </g>
   <g id="patch_4">
    <path d="M 86.4 345.6 
L 345.6 345.6 
" style="fill: none; stroke: #262626; stroke-width: 1.25; stroke-linejoin: miter; stroke-linecap: square"/>
   </g>
  </g>
 </g>
 <defs>
  <clipPath id="pc0c8291e4f">
   <rect x="86.4" y="86.4" width="259.2" height="259.2"/>
  </clipPath>
 </defs>
</svg>
