<?xml version="1.0" encoding="utf-8" standalone="no"?>
<!DOCTYPE svg PUBLIC "-//W3C//DTD SVG 1.1//EN"
  "http://www.w3.org/Graphics/SVG/1.1/DTD/svg11.dtd">
<svg xmlns:xlink="http://www.w3.org/1999/xlink" width="432pt" height="432pt" viewBox="0 0 432 432" xmlns="http://www.w3.org/2000/svg" version="1.1">
 <metadata>
  <rdf:RDF xmlns:dc="http://purl.org/dc/elements/1.1/" xmlns:cc="http://creativecommons.org/ns#" xmlns:rdf="http://www.w3.org/1999/02/22-rdf-syntax-ns#">
   <cc:Work>
    <dc:type rdf:resource="http://purl.org/dc/dcmitype/StillImage"/>
    <dc:date>2024-05-21T13:14:14.462489</dc:date>
    <dc:format>image/svg+xml</dc:format>
    <dc:creator>
     <cc:Agent>
      <dc:title>Matplotlib v3.8.4, https://matplotlib.org/</dc:title>
     </cc:Agent>
    </dc:creator>
   </cc:Work>
  </rdf:RDF>
 </metadata>
 <defs>
  <style type="text/css">*{stroke-linejoin: round; stroke-linecap: butt}</style>
 </defs>
 <g id="figure_1">
  <g id="patch_1">
   <path d="M 0 432 
L 432 432 
L 432 0 
L 0 0 
L 0 432 
z
" style="fill: none"/>
  </g>
  <g id="axes_1">
   <g id="patch_2">
    <path d="M 86.4 345.6 
L 345.6 345.6 
L 345.6 86.4 
L 86.4 86.4 
L 86.4 345.6 
z
" style="fill: none"/>
   </g>
   <g id="matplotlib.axis_1">
    <g id="xtick_1">
     <g id="line2d_1">
      <defs>
       <path id="m7f2a199ada" d="M 0 0 
L 0 6 
" style="stroke: #262626; stroke-width: 1.25"/>
      </defs>
      <g>
       <use xlink:href="#m7f2a199ada" x="86.4" y="345.6" style="fill: #262626; stroke: #262626; stroke-width: 1.25"/>
      </g>
     </g>
     <g id="text_1">
      <text style="fill: #262626; font: 16px 'Arial', 'DejaVu Sans', 'Liberation Sans', 'Bitstream Vera Sans', sans-serif; text-anchor: middle" x="86.4" y="366.5525" transform="rotate(-0 86.4 366.5525)">0</text>
     </g>
    </g>
    <g id="xtick_2">
     <g id="line2d_2">
      <g>
       <use xlink:href="#m7f2a199ada" x="129.6" y="345.6" style="fill: #262626; stroke: #262626; stroke-width: 1.25"/>
      </g>
     </g>
     <g id="text_2">
      <text style="fill: #262626; font: 16px 'Arial', 'DejaVu Sans', 'Liberation Sans', 'Bitstream Vera Sans', sans-serif; text-anchor: middle" x="129.6" y="366.5525" transform="rotate(-0 129.6 366.5525)">60</text>
     </g>
    </g>
    <g id="xtick_3">
     <g id="line2d_3">
      <g>
       <use xlink:href="#m7f2a199ada" x="172.8" y="345.6" style="fill: #262626; stroke: #262626; stroke-width: 1.25"/>
      </g>
     </g>
     <g id="text_3">
      <text style="fill: #262626; font: 16px 'Arial', 'DejaVu Sans', 'Liberation Sans', 'Bitstream Vera Sans', sans-serif; text-anchor: middle" x="172.8" y="366.5525" transform="rotate(-0 172.8 366.5525)">120</text>
     </g>
    </g>
    <g id="xtick_4">
     <g id="line2d_4">
      <g>
       <use xlink:href="#m7f2a199ada" x="216" y="345.6" style="fill: #262626; stroke: #262626; stroke-width: 1.25"/>
      </g>
     </g>
     <g id="text_4">
      <text style="fill: #262626; font: 16px 'Arial', 'DejaVu Sans', 'Liberation Sans', 'Bitstream Vera Sans', sans-serif; text-anchor: middle" x="216" y="366.5525" transform="rotate(-0 216 366.5525)">180</text>
     </g>
    </g>
    <g id="xtick_5">
     <g id="line2d_5">
      <g>
       <use xlink:href="#m7f2a199ada" x="259.2" y="345.6" style="fill: #262626; stroke: #262626; stroke-width: 1.25"/>
      </g>
     </g>
     <g id="text_5">
      <text style="fill: #262626; font: 16px 'Arial', 'DejaVu Sans', 'Liberation Sans', 'Bitstream Vera Sans', sans-serif; text-anchor: middle" x="259.2" y="366.5525" transform="rotate(-0 259.2 366.5525)">240</text>
     </g>
    </g>
    <g id="xtick_6">
     <g id="line2d_6">
      <g>
       <use xlink:href="#m7f2a199ada" x="302.4" y="345.6" style="fill: #262626; stroke: #262626; stroke-width: 1.25"/>
      </g>
     </g>
     <g id="text_6">
      <text style="fill: #262626; font: 16px 'Arial', 'DejaVu Sans', 'Liberation Sans', 'Bitstream Vera Sans', sans-serif; text-anchor: middle" x="302.4" y="366.5525" transform="rotate(-0 302.4 366.5525)">300</text>
     </g>
    </g>
    <g id="xtick_7">
     <g id="line2d_7">
      <g>
       <use xlink:href="#m7f2a199ada" x="345.6" y="345.6" style="fill: #262626; stroke: #262626; stroke-width: 1.25"/>
      </g>
     </g>
     <g id="text_7">
      <text style="fill: #262626; font: 16px 'Arial', 'DejaVu Sans', 'Liberation Sans', 'Bitstream Vera Sans', sans-serif; text-anchor: middle" x="345.6" y="366.5525" transform="rotate(-0 345.6 366.5525)">360</text>
     </g>
    </g>
    <g id="text_8">
     <text style="fill: #262626; font: 16px 'Arial', 'DejaVu Sans', 'Liberation Sans', 'Bitstream Vera Sans', sans-serif; text-anchor: middle" x="216" y="385.38" transform="rotate(-0 216 385.38)">Time since vaccination (days)</text>
    </g>
   </g>
   <g id="matplotlib.axis_2">
    <g id="ytick_1">
     <g id="line2d_8">
      <defs>
       <path id="m678f3a1bb3" d="M 0 0 
L -6 0 
" style="stroke: #262626; stroke-width: 1.25"/>
      </defs>
      <g>
       <use xlink:href="#m678f3a1bb3" x="86.4" y="345.6" style="fill: #262626; stroke: #262626; stroke-width: 1.25"/>
      </g>
     </g>
     <g id="text_9">
      <text style="fill: #262626; font: 16px 'Arial', 'DejaVu Sans', 'Liberation Sans', 'Bitstream Vera Sans', sans-serif; text-anchor: end" x="76.9" y="351.32625" transform="rotate(-0 76.9 351.32625)">0.0</text>
     </g>
    </g>
    <g id="ytick_2">
     <g id="line2d_9">
      <g>
       <use xlink:href="#m678f3a1bb3" x="86.4" y="293.76" style="fill: #262626; stroke: #262626; stroke-width: 1.25"/>
      </g>
     </g>
     <g id="text_10">
      <text style="fill: #262626; font: 16px 'Arial', 'DejaVu Sans', 'Liberation Sans', 'Bitstream Vera Sans', sans-serif; text-anchor: end" x="76.9" y="299.48625" transform="rotate(-0 76.9 299.48625)">0.2</text>
     </g>
    </g>
    <g id="ytick_3">
     <g id="line2d_10">
      <g>
       <use xlink:href="#m678f3a1bb3" x="86.4" y="241.92" style="fill: #262626; stroke: #262626; stroke-width: 1.25"/>
      </g>
     </g>
     <g id="text_11">
      <text style="fill: #262626; font: 16px 'Arial', 'DejaVu Sans', 'Liberation Sans', 'Bitstream Vera Sans', sans-serif; text-anchor: end" x="76.9" y="247.64625" transform="rotate(-0 76.9 247.64625)">0.4</text>
     </g>
    </g>
    <g id="ytick_4">
     <g id="line2d_11">
      <g>
       <use xlink:href="#m678f3a1bb3" x="86.4" y="190.08" style="fill: #262626; stroke: #262626; stroke-width: 1.25"/>
      </g>
     </g>
     <g id="text_12">
      <text style="fill: #262626; font: 16px 'Arial', 'DejaVu Sans', 'Liberation Sans', 'Bitstream Vera Sans', sans-serif; text-anchor: end" x="76.9" y="195.80625" transform="rotate(-0 76.9 195.80625)">0.6</text>
     </g>
    </g>
    <g id="ytick_5">
     <g id="line2d_12">
      <g>
       <use xlink:href="#m678f3a1bb3" x="86.4" y="138.24" style="fill: #262626; stroke: #262626; stroke-width: 1.25"/>
      </g>
     </g>
     <g id="text_13">
      <text style="fill: #262626; font: 16px 'Arial', 'DejaVu Sans', 'Liberation Sans', 'Bitstream Vera Sans', sans-serif; text-anchor: end" x="76.9" y="143.96625" transform="rotate(-0 76.9 143.96625)">0.8</text>
     </g>
    </g>
    <g id="ytick_6">
     <g id="line2d_13">
      <g>
       <use xlink:href="#m678f3a1bb3" x="86.4" y="86.4" style="fill: #262626; stroke: #262626; stroke-width: 1.25"/>
      </g>
     </g>
     <g id="text_14">
      <text style="fill: #262626; font: 16px 'Arial', 'DejaVu Sans', 'Liberation Sans', 'Bitstream Vera Sans', sans-serif; text-anchor: end" x="76.9" y="92.12625" transform="rotate(-0 76.9 92.12625)">1.0</text>
     </g>
    </g>
    <g id="text_15">
     <text style="fill: #262626; font: 16px 'Arial', 'DejaVu Sans', 'Liberation Sans', 'Bitstream Vera Sans', sans-serif; text-anchor: middle" x="47.2925" y="216" transform="rotate(-90 47.2925 216)">Relative susceptibility</text>
    </g>
   </g>
   <g id="line2d_14">
    <path d="M 86.4 86.4 
L 89.28 86.4 
L 90 297.707501 
L 90.72 313.908025 
L 91.44 317.951688 
L 92.16 319.245956 
L 92.88 319.629281 
L 93.6 319.652963 
L 95.04 319.344031 
L 98.64 318.171584 
L 103.68 316.343601 
L 112.32 312.708339 
L 120.96 308.400322 
L 125.28 306.017062 
L 132.48 301.558154 
L 136.08 299.166138 
L 141.84 295.030565 
L 148.32 289.994531 
L 155.52 283.984061 
L 164.88 275.523179 
L 170.64 270.031698 
L 178.56 262.189628 
L 185.76 254.840142 
L 198.72 241.275378 
L 219.6 219.24413 
L 232.56 205.951206 
L 240.48 198.092163 
L 249.12 189.826948 
L 256.32 183.207441 
L 264.96 175.640207 
L 272.16 169.649713 
L 279.36 163.962099 
L 288 157.56559 
L 294.48 153.05803 
L 300.96 148.802507 
L 306.72 145.230036 
L 313.2 141.43404 
L 321.12 137.120176 
L 328.32 133.477497 
L 336.96 129.45299 
L 344.88 126.067273 
L 344.88 126.067273 
" clip-path="url(#p6eaae644a5)" style="fill: none; stroke: #4c72b0; stroke-width: 2; stroke-linecap: round"/>
   </g>
   <g id="line2d_15">
    <path d="M 86.4 86.4 
L 89.28 86.4 
L 90 206.396731 
L 90.72 235.954763 
L 91.44 244.886938 
L 92.16 247.9173 
L 92.88 248.834867 
L 93.6 248.896321 
L 94.32 248.602778 
L 95.76 247.669685 
L 100.08 244.346236 
L 107.28 238.316106 
L 114.48 231.981496 
L 133.2 213.955843 
L 147.6 199.485491 
L 151.92 195.138228 
L 168.48 178.994318 
L 182.16 166.515413 
L 190.8 159.19438 
L 197.28 153.976156 
L 205.2 147.993015 
L 211.68 143.403734 
L 221.04 137.290469 
L 226.08 134.226552 
L 231.12 131.329538 
L 239.04 127.097356 
L 245.52 123.916926 
L 252.72 120.661626 
L 261.36 117.126141 
L 268.56 114.45538 
L 276.48 111.793083 
L 283.68 109.597047 
L 290.88 107.595829 
L 299.52 105.432385 
L 308.16 103.50303 
L 317.52 101.639419 
L 327.6 99.875164 
L 337.68 98.327642 
L 344.88 97.336658 
L 344.88 97.336658 
" clip-path="url(#p6eaae644a5)" style="fill: none; stroke: #dd8452; stroke-width: 2; stroke-linecap: round"/>
   </g>
   <g id="line2d_16">
    <path d="M 86.4 86.4 
L 89.28 86.4 
L 90 257.189041 
L 90.72 282.078024 
L 91.44 288.864391 
L 92.16 291.094337 
L 92.88 291.761324 
L 93.6 291.804055 
L 95.04 291.271084 
L 97.92 289.690694 
L 103.68 286.194633 
L 114.48 278.721192 
L 123.12 271.892478 
L 126.72 268.794789 
L 128.88 266.935555 
L 138.96 257.632638 
L 150.48 246.131141 
L 177.84 217.146921 
L 183.6 211.027018 
L 194.4 199.762727 
L 203.04 191.048625 
L 211.68 182.649512 
L 223.2 172.09318 
L 231.84 164.696566 
L 237.6 160.014541 
L 244.08 155.01081 
L 249.84 150.799911 
L 257.04 145.842968 
L 263.52 141.663169 
L 270.72 137.338403 
L 277.2 133.715276 
L 283.68 130.339566 
L 290.16 127.191312 
L 298.08 123.659821 
L 304.56 120.991799 
L 312.48 117.993469 
L 320.4 115.268516 
L 328.32 112.782089 
L 337.68 110.133208 
L 344.88 108.282378 
L 344.88 108.282378 
" clip-path="url(#p6eaae644a5)" style="fill: none; stroke: #55a868; stroke-width: 2; stroke-linecap: round"/>
   </g>
   <g id="patch_3">
    <path d="M 86.4 345.6 
L 86.4 86.4 
" style="fill: none; stroke: #262626; stroke-width: 1.25; stroke-linejoin: miter; stroke-linecap: square"/>
   </g>
   <g id="patch_4">
    <path d="M 86.4 345.6 
L 345.6 345.6 
" style="fill: none; stroke: #262626; stroke-width: 1.25; stroke-linejoin: miter; stroke-linecap: square"/>
   </g>
   <g id="legend_1">
    <g id="patch_5">
     <path d="M 218.48 338.6 
L 335.8 338.6 
Q 338.6 338.6 338.6 335.8 
L 338.6 275.88 
Q 338.6 273.08 335.8 273.08 
L 218.48 273.08 
Q 215.68 273.08 215.68 275.88 
L 215.68 335.8 
Q 215.68 338.6 218.48 338.6 
z
" style="fill: #ffffff; opacity: 0.8; stroke: #cccccc; stroke-linejoin: miter"/>
    </g>
    <g id="line2d_17">
     <path d="M 221.28 284 
L 235.28 284 
L 249.28 284 
" style="fill: none; stroke: #4c72b0; stroke-width: 2; stroke-linecap: round"/>
    </g>
    <g id="text_16">
     <!-- $\it{A_{1/2}}$ = 500 -->
     <g style="fill: #262626" transform="translate(260.48 288.9)">
      <text>
       <tspan style="font: oblique 14px 'DejaVu Sans'" x="0" y="-0.796875">A</tspan>
       <tspan style="font: 9.8px 'DejaVu Sans'" x="9.577148 15.812207 18.763965" y="1.5">1/2</tspan>
       <tspan style="font: 14px 'Arial'" x="25.381836 29.271484 37.447266 41.336914 49.123047 56.90918" y="-0.796875"> = 500</tspan>
      </text>
     </g>
    </g>
    <g id="line2d_18">
     <path d="M 221.28 304.44 
L 235.28 304.44 
L 249.28 304.44 
" style="fill: none; stroke: #55a868; stroke-width: 2; stroke-linecap: round"/>
    </g>
    <g id="text_17">
     <!-- $\it{A_{1/2}}$ = 1000 -->
     <g style="fill: #262626" transform="translate(260.48 309.34)">
      <text>
       <tspan style="font: oblique 14px 'DejaVu Sans'" x="0" y="-0.796875">A</tspan>
       <tspan style="font: 9.8px 'DejaVu Sans'" x="9.577148 15.812207 18.763965" y="1.5">1/2</tspan>
       <tspan style="font: 14px 'Arial'" x="25.381836 29.271484 37.447266 41.336914 49.123047 56.90918 64.695312" y="-0.796875"> = 1000</tspan>
      </text>
     </g>
    </g>
    <g id="line2d_19">
     <path d="M 221.28 324.88 
L 235.28 324.88 
L 249.28 324.88 
" style="fill: none; stroke: #dd8452; stroke-width: 2; stroke-linecap: round"/>
    </g>
    <g id="text_18">
     <!-- $\it{A_{1/2}}$ = 2000 -->
     <g style="fill: #262626" transform="translate(260.48 329.78)">
      <text>
       <tspan style="font: oblique 14px 'DejaVu Sans'" x="0" y="-0.796875">A</tspan>
       <tspan style="font: 9.8px 'DejaVu Sans'" x="9.577148 15.812207 18.763965" y="1.5">1/2</tspan>
       <tspan style="font: 14px 'Arial'" x="25.381836 29.271484 37.447266 41.336914 49.123047 56.90918 64.695312" y="-0.796875"> = 2000</tspan>
      </text>
     </g>
    </g>
   </g>
  </g>
 </g>
 <defs>
  <clipPath id="p6eaae644a5">
   <rect x="86.4" y="86.4" width="259.2" height="259.2"/>
  </clipPath>
 </defs>
</svg>
