<?xml version="1.0" encoding="utf-8" standalone="no"?>
<!DOCTYPE svg PUBLIC "-//W3C//DTD SVG 1.1//EN"
  "http://www.w3.org/Graphics/SVG/1.1/DTD/svg11.dtd">
<svg xmlns:xlink="http://www.w3.org/1999/xlink" width="432pt" height="432pt" viewBox="0 0 432 432" xmlns="http://www.w3.org/2000/svg" version="1.1">
 <metadata>
  <rdf:RDF xmlns:dc="http://purl.org/dc/elements/1.1/" xmlns:cc="http://creativecommons.org/ns#" xmlns:rdf="http://www.w3.org/1999/02/22-rdf-syntax-ns#">
   <cc:Work>
    <dc:type rdf:resource="http://purl.org/dc/dcmitype/StillImage"/>
    <dc:date>2024-05-28T15:00:48.634116</dc:date>
    <dc:format>image/svg+xml</dc:format>
    <dc:creator>
     <cc:Agent>
      <dc:title>Matplotlib v3.8.4, https://matplotlib.org/</dc:title>
     </cc:Agent>
    </dc:creator>
   </cc:Work>
  </rdf:RDF>
 </metadata>
 <defs>
  <style type="text/css">*{stroke-linejoin: round; stroke-linecap: butt}</style>
 </defs>
 <g id="figure_1">
  <g id="patch_1">
   <path d="M 0 432 
L 432 432 
L 432 0 
L 0 0 
L 0 432 
z
" style="fill: none"/>
  </g>
  <g id="axes_1">
   <g id="patch_2">
    <path d="M 86.4 345.6 
L 345.6 345.6 
L 345.6 86.4 
L 86.4 86.4 
L 86.4 345.6 
z
" style="fill: none"/>
   </g>
   <g id="matplotlib.axis_1">
    <g id="xtick_1">
     <g id="line2d_1">
      <defs>
       <path id="mb1d6dd3986" d="M 0 0 
L 0 6 
" style="stroke: #262626; stroke-width: 1.25"/>
      </defs>
      <g>
       <use xlink:href="#mb1d6dd3986" x="86.4" y="345.6" style="fill: #262626; stroke: #262626; stroke-width: 1.25"/>
      </g>
     </g>
     <g id="text_1">
      <text style="fill: #262626; font: 16px 'Arial', 'DejaVu Sans', 'Liberation Sans', 'Bitstream Vera Sans', sans-serif; text-anchor: middle" x="86.4" y="366.5525" transform="rotate(-0 86.4 366.5525)">0</text>
     </g>
    </g>
    <g id="xtick_2">
     <g id="line2d_2">
      <g>
       <use xlink:href="#mb1d6dd3986" x="129.6" y="345.6" style="fill: #262626; stroke: #262626; stroke-width: 1.25"/>
      </g>
     </g>
     <g id="text_2">
      <text style="fill: #262626; font: 16px 'Arial', 'DejaVu Sans', 'Liberation Sans', 'Bitstream Vera Sans', sans-serif; text-anchor: middle" x="129.6" y="366.5525" transform="rotate(-0 129.6 366.5525)">60</text>
     </g>
    </g>
    <g id="xtick_3">
     <g id="line2d_3">
      <g>
       <use xlink:href="#mb1d6dd3986" x="172.8" y="345.6" style="fill: #262626; stroke: #262626; stroke-width: 1.25"/>
      </g>
     </g>
     <g id="text_3">
      <text style="fill: #262626; font: 16px 'Arial', 'DejaVu Sans', 'Liberation Sans', 'Bitstream Vera Sans', sans-serif; text-anchor: middle" x="172.8" y="366.5525" transform="rotate(-0 172.8 366.5525)">120</text>
     </g>
    </g>
    <g id="xtick_4">
     <g id="line2d_4">
      <g>
       <use xlink:href="#mb1d6dd3986" x="216" y="345.6" style="fill: #262626; stroke: #262626; stroke-width: 1.25"/>
      </g>
     </g>
     <g id="text_4">
      <text style="fill: #262626; font: 16px 'Arial', 'DejaVu Sans', 'Liberation Sans', 'Bitstream Vera Sans', sans-serif; text-anchor: middle" x="216" y="366.5525" transform="rotate(-0 216 366.5525)">180</text>
     </g>
    </g>
    <g id="xtick_5">
     <g id="line2d_5">
      <g>
       <use xlink:href="#mb1d6dd3986" x="259.2" y="345.6" style="fill: #262626; stroke: #262626; stroke-width: 1.25"/>
      </g>
     </g>
     <g id="text_5">
      <text style="fill: #262626; font: 16px 'Arial', 'DejaVu Sans', 'Liberation Sans', 'Bitstream Vera Sans', sans-serif; text-anchor: middle" x="259.2" y="366.5525" transform="rotate(-0 259.2 366.5525)">240</text>
     </g>
    </g>
    <g id="xtick_6">
     <g id="line2d_6">
      <g>
       <use xlink:href="#mb1d6dd3986" x="302.4" y="345.6" style="fill: #262626; stroke: #262626; stroke-width: 1.25"/>
      </g>
     </g>
     <g id="text_6">
      <text style="fill: #262626; font: 16px 'Arial', 'DejaVu Sans', 'Liberation Sans', 'Bitstream Vera Sans', sans-serif; text-anchor: middle" x="302.4" y="366.5525" transform="rotate(-0 302.4 366.5525)">300</text>
     </g>
    </g>
    <g id="xtick_7">
     <g id="line2d_7">
      <g>
       <use xlink:href="#mb1d6dd3986" x="345.6" y="345.6" style="fill: #262626; stroke: #262626; stroke-width: 1.25"/>
      </g>
     </g>
     <g id="text_7">
      <text style="fill: #262626; font: 16px 'Arial', 'DejaVu Sans', 'Liberation Sans', 'Bitstream Vera Sans', sans-serif; text-anchor: middle" x="345.6" y="366.5525" transform="rotate(-0 345.6 366.5525)">360</text>
     </g>
    </g>
    <g id="text_8">
     <text style="fill: #262626; font: 16px 'Arial', 'DejaVu Sans', 'Liberation Sans', 'Bitstream Vera Sans', sans-serif; text-anchor: middle" x="216" y="385.38" transform="rotate(-0 216 385.38)">Time since vaccination (days)</text>
    </g>
   </g>
   <g id="matplotlib.axis_2">
    <g id="ytick_1">
     <g id="line2d_8">
      <defs>
       <path id="m85f8051c57" d="M 0 0 
L -6 0 
" style="stroke: #262626; stroke-width: 1.25"/>
      </defs>
      <g>
       <use xlink:href="#m85f8051c57" x="86.4" y="345.6" style="fill: #262626; stroke: #262626; stroke-width: 1.25"/>
      </g>
     </g>
     <g id="text_9">
      <text style="fill: #262626; font: 16px 'Arial', 'DejaVu Sans', 'Liberation Sans', 'Bitstream Vera Sans', sans-serif; text-anchor: end" x="76.9" y="351.32625" transform="rotate(-0 76.9 351.32625)">0.0</text>
     </g>
    </g>
    <g id="ytick_2">
     <g id="line2d_9">
      <g>
       <use xlink:href="#m85f8051c57" x="86.4" y="293.76" style="fill: #262626; stroke: #262626; stroke-width: 1.25"/>
      </g>
     </g>
     <g id="text_10">
      <text style="fill: #262626; font: 16px 'Arial', 'DejaVu Sans', 'Liberation Sans', 'Bitstream Vera Sans', sans-serif; text-anchor: end" x="76.9" y="299.48625" transform="rotate(-0 76.9 299.48625)">0.2</text>
     </g>
    </g>
    <g id="ytick_3">
     <g id="line2d_10">
      <g>
       <use xlink:href="#m85f8051c57" x="86.4" y="241.92" style="fill: #262626; stroke: #262626; stroke-width: 1.25"/>
      </g>
     </g>
     <g id="text_11">
      <text style="fill: #262626; font: 16px 'Arial', 'DejaVu Sans', 'Liberation Sans', 'Bitstream Vera Sans', sans-serif; text-anchor: end" x="76.9" y="247.64625" transform="rotate(-0 76.9 247.64625)">0.4</text>
     </g>
    </g>
    <g id="ytick_4">
     <g id="line2d_11">
      <g>
       <use xlink:href="#m85f8051c57" x="86.4" y="190.08" style="fill: #262626; stroke: #262626; stroke-width: 1.25"/>
      </g>
     </g>
     <g id="text_12">
      <text style="fill: #262626; font: 16px 'Arial', 'DejaVu Sans', 'Liberation Sans', 'Bitstream Vera Sans', sans-serif; text-anchor: end" x="76.9" y="195.80625" transform="rotate(-0 76.9 195.80625)">0.6</text>
     </g>
    </g>
    <g id="ytick_5">
     <g id="line2d_12">
      <g>
       <use xlink:href="#m85f8051c57" x="86.4" y="138.24" style="fill: #262626; stroke: #262626; stroke-width: 1.25"/>
      </g>
     </g>
     <g id="text_13">
      <text style="fill: #262626; font: 16px 'Arial', 'DejaVu Sans', 'Liberation Sans', 'Bitstream Vera Sans', sans-serif; text-anchor: end" x="76.9" y="143.96625" transform="rotate(-0 76.9 143.96625)">0.8</text>
     </g>
    </g>
    <g id="ytick_6">
     <g id="line2d_13">
      <g>
       <use xlink:href="#m85f8051c57" x="86.4" y="86.4" style="fill: #262626; stroke: #262626; stroke-width: 1.25"/>
      </g>
     </g>
     <g id="text_14">
      <text style="fill: #262626; font: 16px 'Arial', 'DejaVu Sans', 'Liberation Sans', 'Bitstream Vera Sans', sans-serif; text-anchor: end" x="76.9" y="92.12625" transform="rotate(-0 76.9 92.12625)">1.0</text>
     </g>
    </g>
    <g id="text_15">
     <text style="fill: #262626; font: 16px 'Arial', 'DejaVu Sans', 'Liberation Sans', 'Bitstream Vera Sans', sans-serif; text-anchor: middle" x="47.2925" y="216" transform="rotate(-90 47.2925 216)">Relative susceptibility</text>
    </g>
   </g>
   <g id="PolyCollection_1">
    <defs>
     <path id="m23a6d99bbc" d="M 86.4 -345.582291 
L 86.4 -149.972022 
L 87.12 -150.273809 
L 87.84 -150.58754 
L 88.56 -150.911723 
L 89.28 -150.873497 
L 90 -93.164747 
L 90.72 -90.65588 
L 91.44 -90.031558 
L 92.16 -89.841411 
L 92.88 -89.792321 
L 93.6 -89.796614 
L 94.32 -89.810908 
L 95.04 -89.834263 
L 95.76 -89.860208 
L 96.48 -89.888972 
L 97.2 -89.919563 
L 97.92 -89.949437 
L 98.64 -89.980682 
L 99.36 -90.014155 
L 100.08 -90.060908 
L 100.8 -90.083069 
L 101.52 -90.132002 
L 102.24 -90.185258 
L 102.96 -90.238029 
L 103.68 -90.289296 
L 104.4 -90.314363 
L 105.12 -90.342195 
L 105.84 -90.365313 
L 106.56 -90.388484 
L 107.28 -90.415675 
L 108 -90.443205 
L 108.72 -90.465947 
L 109.44 -90.498037 
L 110.16 -90.537166 
L 110.88 -90.571023 
L 111.6 -90.59447 
L 112.32 -90.612538 
L 113.04 -90.627862 
L 113.76 -90.659426 
L 114.48 -90.680744 
L 115.2 -90.705637 
L 115.92 -90.761045 
L 116.64 -90.831528 
L 117.36 -90.896264 
L 118.08 -90.96884 
L 118.8 -91.042192 
L 119.52 -91.088975 
L 120.24 -91.134273 
L 120.96 -91.190061 
L 121.68 -91.285277 
L 122.4 -91.378495 
L 123.12 -91.481503 
L 123.84 -91.585372 
L 124.56 -91.686859 
L 125.28 -91.79107 
L 126 -91.830826 
L 126.72 -91.852671 
L 127.44 -91.88233 
L 128.16 -91.915318 
L 128.88 -91.93834 
L 129.6 -91.961078 
L 130.32 -91.993207 
L 131.04 -92.027603 
L 131.76 -92.083106 
L 132.48 -92.181291 
L 133.2 -92.274567 
L 133.92 -92.341383 
L 134.64 -92.394972 
L 135.36 -92.473335 
L 136.08 -92.555683 
L 136.8 -92.642979 
L 137.52 -92.73549 
L 138.24 -92.811069 
L 138.96 -92.913598 
L 139.68 -92.953237 
L 140.4 -92.994938 
L 141.12 -93.076541 
L 141.84 -93.16046 
L 142.56 -93.251686 
L 143.28 -93.347401 
L 144 -93.437483 
L 144.72 -93.528539 
L 145.44 -93.626194 
L 146.16 -93.727322 
L 146.88 -93.814838 
L 147.6 -93.885095 
L 148.32 -93.952664 
L 149.04 -94.006289 
L 149.76 -94.046622 
L 150.48 -94.089207 
L 151.2 -94.134584 
L 151.92 -94.181651 
L 152.64 -94.213467 
L 153.36 -94.256765 
L 154.08 -94.314225 
L 154.8 -94.361449 
L 155.52 -94.430116 
L 156.24 -94.489298 
L 156.96 -94.571881 
L 157.68 -94.640296 
L 158.4 -94.70347 
L 159.12 -94.779138 
L 159.84 -94.8585 
L 160.56 -94.926689 
L 161.28 -95.000337 
L 162 -95.081913 
L 162.72 -95.158763 
L 163.44 -95.232959 
L 164.16 -95.3142 
L 164.88 -95.422933 
L 165.6 -95.542321 
L 166.32 -95.648218 
L 167.04 -95.757907 
L 167.76 -95.855742 
L 168.48 -95.912045 
L 169.2 -95.976894 
L 169.92 -96.054657 
L 170.64 -96.128045 
L 171.36 -96.185117 
L 172.08 -96.251768 
L 172.8 -96.336563 
L 173.52 -96.429146 
L 174.24 -96.514677 
L 174.96 -96.606373 
L 175.68 -96.706087 
L 176.4 -96.802358 
L 177.12 -96.887111 
L 177.84 -96.980632 
L 178.56 -97.090306 
L 179.28 -97.203119 
L 180 -97.293993 
L 180.72 -97.390009 
L 181.44 -97.501639 
L 182.16 -97.651848 
L 182.88 -97.818808 
L 183.6 -97.969873 
L 184.32 -98.117925 
L 185.04 -98.282494 
L 185.76 -98.453972 
L 186.48 -98.612116 
L 187.2 -98.776981 
L 187.92 -98.95244 
L 188.64 -99.125946 
L 189.36 -99.207331 
L 190.08 -99.293211 
L 190.8 -99.372536 
L 191.52 -99.442876 
L 192.24 -99.523967 
L 192.96 -99.614682 
L 193.68 -99.694092 
L 194.4 -99.763323 
L 195.12 -99.848793 
L 195.84 -99.949826 
L 196.56 -100.062593 
L 197.28 -100.209036 
L 198 -100.375549 
L 198.72 -100.55553 
L 199.44 -100.702672 
L 200.16 -100.819776 
L 200.88 -100.950958 
L 201.6 -101.06017 
L 202.32 -101.156938 
L 203.04 -101.274018 
L 203.76 -101.399542 
L 204.48 -101.505319 
L 205.2 -101.617888 
L 205.92 -101.745679 
L 206.64 -101.876286 
L 207.36 -101.96932 
L 208.08 -102.090559 
L 208.8 -102.220984 
L 209.52 -102.338868 
L 210.24 -102.444935 
L 210.96 -102.570084 
L 211.68 -102.716594 
L 212.4 -102.851962 
L 213.12 -102.95897 
L 213.84 -103.083934 
L 214.56 -103.227077 
L 215.28 -103.353145 
L 216 -103.477508 
L 216.72 -103.61641 
L 217.44 -103.755982 
L 218.16 -103.882757 
L 218.88 -104.017165 
L 219.6 -104.165018 
L 220.32 -104.30753 
L 221.04 -104.429234 
L 221.76 -104.562463 
L 222.48 -104.722692 
L 223.2 -104.890119 
L 223.92 -105.020498 
L 224.64 -105.212182 
L 225.36 -105.336858 
L 226.08 -105.466929 
L 226.8 -105.602952 
L 227.52 -105.753451 
L 228.24 -105.913415 
L 228.96 -106.061559 
L 229.68 -106.21267 
L 230.4 -106.378848 
L 231.12 -106.621839 
L 231.84 -106.854864 
L 232.56 -107.096314 
L 233.28 -107.306593 
L 234 -107.478461 
L 234.72 -107.642002 
L 235.44 -107.764407 
L 236.16 -107.905679 
L 236.88 -108.072252 
L 237.6 -108.218718 
L 238.32 -108.359396 
L 239.04 -108.517629 
L 239.76 -108.677913 
L 240.48 -108.821394 
L 241.2 -108.974305 
L 241.92 -109.143455 
L 242.64 -109.308692 
L 243.36 -109.446447 
L 244.08 -109.639831 
L 244.8 -109.82135 
L 245.52 -110.026919 
L 246.24 -110.187553 
L 246.96 -110.368607 
L 247.68 -110.578151 
L 248.4 -110.766623 
L 249.12 -110.949117 
L 249.84 -111.061896 
L 250.56 -111.185076 
L 251.28 -111.337512 
L 252 -111.470544 
L 252.72 -111.641266 
L 253.44 -111.829387 
L 254.16 -111.990516 
L 254.88 -112.148172 
L 255.6 -112.340536 
L 256.32 -112.557571 
L 257.04 -112.738613 
L 257.76 -112.895886 
L 258.48 -113.089769 
L 259.2 -113.298739 
L 259.92 -113.475413 
L 260.64 -113.803295 
L 261.36 -114.135736 
L 262.08 -114.438692 
L 262.8 -114.616166 
L 263.52 -114.814365 
L 264.24 -115.020083 
L 264.96 -115.154719 
L 265.68 -115.238927 
L 266.4 -115.364781 
L 267.12 -115.510273 
L 267.84 -115.678887 
L 268.56 -115.849336 
L 269.28 -116.045611 
L 270 -116.274117 
L 270.72 -116.475486 
L 271.44 -116.671559 
L 272.16 -116.895132 
L 272.88 -117.120699 
L 273.6 -117.325913 
L 274.32 -117.646282 
L 275.04 -118.032415 
L 275.76 -118.247171 
L 276.48 -118.429949 
L 277.2 -118.646476 
L 277.92 -118.903926 
L 278.64 -119.145826 
L 279.36 -119.32866 
L 280.08 -119.540697 
L 280.8 -119.788498 
L 281.52 -120.005034 
L 282.24 -120.2154 
L 282.96 -120.450826 
L 283.68 -120.687107 
L 284.4 -120.90039 
L 285.12 -121.127975 
L 285.84 -121.378039 
L 286.56 -121.62076 
L 287.28 -121.824225 
L 288 -122.047546 
L 288.72 -122.320367 
L 289.44 -122.60509 
L 290.16 -122.82079 
L 290.88 -123.038556 
L 291.6 -123.303652 
L 292.32 -123.560619 
L 293.04 -123.787742 
L 293.76 -124.038712 
L 294.48 -124.309246 
L 295.2 -124.573019 
L 295.92 -124.823591 
L 296.64 -125.094593 
L 297.36 -125.383907 
L 298.08 -125.652392 
L 298.8 -125.888283 
L 299.52 -126.159368 
L 300.24 -126.482467 
L 300.96 -126.803278 
L 301.68 -127.045227 
L 302.4 -127.306125 
L 303.12 -127.61601 
L 303.84 -127.902361 
L 304.56 -128.170719 
L 305.28 -128.46606 
L 306 -128.768529 
L 306.72 -129.045146 
L 307.44 -129.33367 
L 308.16 -129.646981 
L 308.88 -129.959347 
L 309.6 -130.226508 
L 310.32 -130.502967 
L 311.04 -130.837445 
L 311.76 -131.206295 
L 312.48 -131.513159 
L 313.2 -131.830158 
L 313.92 -132.265268 
L 314.64 -132.679709 
L 315.36 -133.101968 
L 316.08 -133.556563 
L 316.8 -134.042476 
L 317.52 -134.3916 
L 318.24 -134.615149 
L 318.96 -134.85218 
L 319.68 -135.031443 
L 320.4 -135.231598 
L 321.12 -135.464231 
L 321.84 -135.672644 
L 322.56 -136.021359 
L 323.28 -136.404952 
L 324 -136.734292 
L 324.72 -137.195398 
L 325.44 -137.509981 
L 326.16 -137.875273 
L 326.88 -138.321934 
L 327.6 -138.750685 
L 328.32 -139.201428 
L 329.04 -139.658652 
L 329.76 -140.103238 
L 330.48 -140.557205 
L 331.2 -141.025858 
L 331.92 -141.498313 
L 332.64 -141.948934 
L 333.36 -142.385358 
L 334.08 -142.853247 
L 334.8 -143.365492 
L 335.52 -143.902682 
L 336.24 -144.407969 
L 336.96 -144.841401 
L 337.68 -145.312893 
L 338.4 -145.832607 
L 339.12 -146.317445 
L 339.84 -146.805466 
L 340.56 -147.316162 
L 341.28 -147.82225 
L 342 -148.321318 
L 342.72 -148.657099 
L 343.44 -148.961098 
L 344.16 -149.333941 
L 344.88 -149.690887 
L 345.6 -149.973023 
L 345.6 -345.582292 
L 345.6 -345.582292 
L 344.88 -345.581671 
L 344.16 -345.580974 
L 343.44 -345.580285 
L 342.72 -345.579545 
L 342 -345.578757 
L 341.28 -345.577984 
L 340.56 -345.577167 
L 339.84 -345.576285 
L 339.12 -345.575413 
L 338.4 -345.574615 
L 337.68 -345.573899 
L 336.96 -345.573123 
L 336.24 -345.572314 
L 335.52 -345.571534 
L 334.8 -345.570705 
L 334.08 -345.569815 
L 333.36 -345.56895 
L 332.64 -345.568064 
L 331.92 -345.5671 
L 331.2 -345.566019 
L 330.48 -345.564731 
L 329.76 -345.563359 
L 329.04 -345.562012 
L 328.32 -345.560585 
L 327.6 -345.55905 
L 326.88 -345.557529 
L 326.16 -345.555949 
L 325.44 -345.554237 
L 324.72 -345.552517 
L 324 -345.550764 
L 323.28 -345.548861 
L 322.56 -345.546914 
L 321.84 -345.544965 
L 321.12 -345.542853 
L 320.4 -345.540652 
L 319.68 -345.538479 
L 318.96 -345.536138 
L 318.24 -345.53365 
L 317.52 -345.531208 
L 316.8 -345.528608 
L 316.08 -345.525814 
L 315.36 -345.523062 
L 314.64 -345.520183 
L 313.92 -345.517063 
L 313.2 -345.51395 
L 312.48 -345.510757 
L 311.76 -345.507285 
L 311.04 -345.503759 
L 310.32 -345.500211 
L 309.6 -345.496357 
L 308.88 -345.492366 
L 308.16 -345.488412 
L 307.44 -345.48414 
L 306.72 -345.479634 
L 306 -345.47521 
L 305.28 -345.470479 
L 304.56 -345.465415 
L 303.84 -345.46044 
L 303.12 -345.455201 
L 302.4 -345.44954 
L 301.68 -345.443917 
L 300.96 -345.438112 
L 300.24 -345.43272 
L 299.52 -345.427428 
L 298.8 -345.421673 
L 298.08 -345.415877 
L 297.36 -345.410117 
L 296.64 -345.403865 
L 295.92 -345.397359 
L 295.2 -345.391038 
L 294.48 -345.384268 
L 293.76 -345.376398 
L 293.04 -345.367795 
L 292.32 -345.359063 
L 291.6 -345.349564 
L 290.88 -345.339813 
L 290.16 -345.330076 
L 289.44 -345.319514 
L 288.72 -345.308476 
L 288 -345.297584 
L 287.28 -345.285854 
L 286.56 -345.273396 
L 285.84 -345.261166 
L 285.12 -345.248145 
L 284.4 -345.234148 
L 283.68 -345.22035 
L 282.96 -345.205895 
L 282.24 -345.190236 
L 281.52 -345.174614 
L 280.8 -345.15855 
L 280.08 -345.141082 
L 279.36 -345.123376 
L 278.64 -345.105494 
L 277.92 -345.085997 
L 277.2 -345.065876 
L 276.48 -345.045811 
L 275.76 -345.024084 
L 275.04 -345.001323 
L 274.32 -344.97886 
L 273.6 -344.954722 
L 272.88 -344.929054 
L 272.16 -344.90381 
L 271.44 -344.877005 
L 270.72 -344.848188 
L 270 -344.819695 
L 269.28 -344.789921 
L 268.56 -344.757692 
L 267.84 -344.725437 
L 267.12 -344.692336 
L 266.4 -344.656386 
L 265.68 -344.619845 
L 264.96 -344.584501 
L 264.24 -344.547962 
L 263.52 -344.512131 
L 262.8 -344.474958 
L 262.08 -344.434628 
L 261.36 -344.39427 
L 260.64 -344.353521 
L 259.92 -344.309228 
L 259.2 -344.263763 
L 258.48 -344.220765 
L 257.76 -344.184686 
L 257.04 -344.145777 
L 256.32 -344.107964 
L 255.6 -344.069873 
L 254.88 -344.027648 
L 254.16 -343.966753 
L 253.44 -343.920249 
L 252.72 -343.879063 
L 252 -343.840205 
L 251.28 -343.799126 
L 250.56 -343.75465 
L 249.84 -343.711636 
L 249.12 -343.66882 
L 248.4 -343.621633 
L 247.68 -343.569617 
L 246.96 -343.515183 
L 246.24 -343.463457 
L 245.52 -343.408768 
L 244.8 -343.334282 
L 244.08 -343.239667 
L 243.36 -343.145805 
L 242.64 -343.044637 
L 241.92 -342.937398 
L 241.2 -342.831507 
L 240.48 -342.71823 
L 239.76 -342.596984 
L 239.04 -342.477263 
L 238.32 -342.35047 
L 237.6 -342.213811 
L 236.88 -342.078152 
L 236.16 -341.93623 
L 235.44 -341.782563 
L 234.72 -341.628706 
L 234 -341.469797 
L 233.28 -341.296951 
L 232.56 -341.121568 
L 231.84 -340.953064 
L 231.12 -340.79804 
L 230.4 -340.662935 
L 229.68 -340.522303 
L 228.96 -340.369763 
L 228.24 -340.218935 
L 227.52 -340.068611 
L 226.8 -339.905129 
L 226.08 -339.736685 
L 225.36 -339.574309 
L 224.64 -339.400272 
L 223.92 -339.21459 
L 223.2 -339.036186 
L 222.48 -338.851169 
L 221.76 -338.650379 
L 221.04 -338.451295 
L 220.32 -338.253693 
L 219.6 -338.039034 
L 218.88 -337.817172 
L 218.16 -337.603751 
L 217.44 -337.375717 
L 216.72 -337.132115 
L 216 -336.897452 
L 215.28 -336.655417 
L 214.56 -336.392882 
L 213.84 -336.131351 
L 213.12 -335.873075 
L 212.4 -335.593223 
L 211.68 -335.302744 
L 210.96 -335.023771 
L 210.24 -334.64128 
L 209.52 -334.251708 
L 208.8 -333.845792 
L 208.08 -333.407974 
L 207.36 -332.972087 
L 206.64 -332.526554 
L 205.92 -332.044748 
L 205.2 -331.557109 
L 204.48 -331.067828 
L 203.76 -330.539464 
L 203.04 -329.994993 
L 202.32 -329.457067 
L 201.6 -328.879289 
L 200.88 -328.273665 
L 200.16 -327.681048 
L 199.44 -327.050775 
L 198.72 -326.568211 
L 198 -326.121624 
L 197.28 -325.636164 
L 196.56 -325.146242 
L 195.84 -324.676639 
L 195.12 -324.172359 
L 194.4 -323.638474 
L 193.68 -323.132596 
L 192.96 -322.607238 
L 192.24 -322.038434 
L 191.52 -321.476745 
L 190.8 -320.929052 
L 190.08 -320.337214 
L 189.36 -319.721378 
L 188.64 -319.139277 
L 187.92 -318.528528 
L 187.2 -317.872411 
L 186.48 -317.235978 
L 185.76 -316.604088 
L 185.04 -315.762823 
L 184.32 -314.828743 
L 183.6 -313.824406 
L 182.88 -312.817167 
L 182.16 -311.803834 
L 181.44 -310.714854 
L 180.72 -309.732356 
L 180 -308.9357 
L 179.28 -307.706047 
L 178.56 -306.324373 
L 177.84 -304.95633 
L 177.12 -303.737751 
L 176.4 -302.501537 
L 175.68 -301.15793 
L 174.96 -299.863389 
L 174.24 -298.479186 
L 173.52 -297.111005 
L 172.8 -295.74193 
L 172.08 -294.277029 
L 171.36 -293.15711 
L 170.64 -292.187655 
L 169.92 -291.149726 
L 169.2 -290.100481 
L 168.48 -288.299084 
L 167.76 -287.465295 
L 167.04 -286.56654 
L 166.32 -285.680403 
L 165.6 -283.987956 
L 164.88 -283.311008 
L 164.16 -282.646176 
L 163.44 -282.012215 
L 162.72 -280.768898 
L 162 -278.665449 
L 161.28 -276.621471 
L 160.56 -276.007106 
L 159.84 -275.644267 
L 159.12 -275.192752 
L 158.4 -274.371584 
L 157.68 -273.226505 
L 156.96 -272.02323 
L 156.24 -270.711857 
L 155.52 -268.988949 
L 154.8 -268.148241 
L 154.08 -266.411498 
L 153.36 -265.453397 
L 152.64 -264.533905 
L 151.92 -263.583777 
L 151.2 -262.576169 
L 150.48 -261.481821 
L 149.76 -260.653387 
L 149.04 -259.440469 
L 148.32 -258.047356 
L 147.6 -256.695889 
L 146.88 -255.403095 
L 146.16 -254.161963 
L 145.44 -252.955654 
L 144.72 -251.648991 
L 144 -250.991291 
L 143.28 -249.186781 
L 142.56 -247.932344 
L 141.84 -246.831834 
L 141.12 -245.490415 
L 140.4 -244.66823 
L 139.68 -243.781478 
L 138.96 -241.711662 
L 138.24 -240.388439 
L 137.52 -239.059333 
L 136.8 -237.257848 
L 136.08 -235.425676 
L 135.36 -233.843519 
L 134.64 -232.43551 
L 133.92 -230.558597 
L 133.2 -228.835534 
L 132.48 -227.427565 
L 131.76 -225.71113 
L 131.04 -224.711562 
L 130.32 -223.244563 
L 129.6 -221.270249 
L 128.88 -220.063508 
L 128.16 -218.895556 
L 127.44 -217.759158 
L 126.72 -216.529484 
L 126 -215.271427 
L 125.28 -213.925522 
L 124.56 -212.62596 
L 123.84 -211.200649 
L 123.12 -209.760218 
L 122.4 -208.873356 
L 121.68 -208.172369 
L 120.96 -207.393597 
L 120.24 -206.539895 
L 119.52 -205.492073 
L 118.8 -204.152513 
L 118.08 -202.972806 
L 117.36 -201.931681 
L 116.64 -200.963673 
L 115.92 -199.854697 
L 115.2 -198.719884 
L 114.48 -198.149211 
L 113.76 -197.755309 
L 113.04 -196.530787 
L 112.32 -195.070293 
L 111.6 -194.189922 
L 110.88 -193.507554 
L 110.16 -192.863927 
L 109.44 -191.620651 
L 108.72 -190.7686 
L 108 -188.989987 
L 107.28 -187.625635 
L 106.56 -186.76102 
L 105.84 -186.012864 
L 105.12 -185.341885 
L 104.4 -184.586728 
L 103.68 -183.788887 
L 102.96 -183.044263 
L 102.24 -182.354955 
L 101.52 -181.638958 
L 100.8 -180.755089 
L 100.08 -180.035317 
L 99.36 -179.314723 
L 98.64 -178.488246 
L 97.92 -177.512227 
L 97.2 -176.553276 
L 96.48 -175.638254 
L 95.76 -174.795248 
L 95.04 -174.109272 
L 94.32 -173.766594 
L 93.6 -173.572188 
L 92.88 -173.726259 
L 92.16 -174.754543 
L 91.44 -177.928574 
L 90.72 -187.139812 
L 90 -218.078528 
L 89.28 -345.584468 
L 88.56 -345.583952 
L 87.84 -345.583417 
L 87.12 -345.582865 
L 86.4 -345.582291 
z
" style="stroke: #ffffff; stroke-opacity: 0.5"/>
    </defs>
    <g clip-path="url(#p17c51f514b)">
     <use xlink:href="#m23a6d99bbc" x="0" y="432" style="fill: #4c72b0; fill-opacity: 0.5; stroke: #ffffff; stroke-opacity: 0.5"/>
    </g>
   </g>
   <g id="line2d_14">
    <path d="M 86.4 126.535171 
L 89.28 125.397977 
L 90 298.388564 
L 90.72 312.995822 
L 91.44 316.77994 
L 92.16 317.999882 
L 92.88 318.353104 
L 93.6 318.361747 
L 95.04 318.040508 
L 98.64 316.854166 
L 103.68 315.003747 
L 111.6 311.679529 
L 116.64 309.27467 
L 120.96 307.034142 
L 126.72 303.770912 
L 131.76 300.674083 
L 138.96 295.808296 
L 144 292.090538 
L 148.32 288.737193 
L 156.24 282.1668 
L 167.04 272.454859 
L 178.56 261.322716 
L 194.4 245.222785 
L 216 222.793615 
L 231.12 207.440367 
L 241.92 196.903157 
L 249.84 189.475934 
L 256.32 183.613109 
L 264.24 176.745154 
L 272.88 169.64789 
L 280.08 164.053653 
L 288 158.258837 
L 295.2 153.297224 
L 303.84 147.752793 
L 310.32 143.86822 
L 317.52 139.821098 
L 324 136.413535 
L 331.2 132.879125 
L 339.12 129.272667 
L 345.6 126.534273 
L 345.6 126.534273 
" clip-path="url(#p17c51f514b)" style="fill: none; stroke: #4c72b0; stroke-width: 2; stroke-linecap: round"/>
   </g>
   <g id="patch_3">
    <path d="M 86.4 345.6 
L 86.4 86.4 
" style="fill: none; stroke: #262626; stroke-width: 1.25; stroke-linejoin: miter; stroke-linecap: square"/>
   </g>
   <g id="patch_4">
    <path d="M 86.4 345.6 
L 345.6 345.6 
" style="fill: none; stroke: #262626; stroke-width: 1.25; stroke-linejoin: miter; stroke-linecap: square"/>
   </g>
  </g>
 </g>
 <defs>
  <clipPath id="p17c51f514b">
   <rect x="86.4" y="86.4" width="259.2" height="259.2"/>
  </clipPath>
 </defs>
</svg>
