<?xml version="1.0" encoding="utf-8" standalone="no"?>
<!DOCTYPE svg PUBLIC "-//W3C//DTD SVG 1.1//EN"
  "http://www.w3.org/Graphics/SVG/1.1/DTD/svg11.dtd">
<svg xmlns:xlink="http://www.w3.org/1999/xlink" width="432pt" height="432pt" viewBox="0 0 432 432" xmlns="http://www.w3.org/2000/svg" version="1.1">
 <metadata>
  <rdf:RDF xmlns:dc="http://purl.org/dc/elements/1.1/" xmlns:cc="http://creativecommons.org/ns#" xmlns:rdf="http://www.w3.org/1999/02/22-rdf-syntax-ns#">
   <cc:Work>
    <dc:type rdf:resource="http://purl.org/dc/dcmitype/StillImage"/>
    <dc:date>2024-05-31T11:25:33.953253</dc:date>
    <dc:format>image/svg+xml</dc:format>
    <dc:creator>
     <cc:Agent>
      <dc:title>Matplotlib v3.8.4, https://matplotlib.org/</dc:title>
     </cc:Agent>
    </dc:creator>
   </cc:Work>
  </rdf:RDF>
 </metadata>
 <defs>
  <style type="text/css">*{stroke-linejoin: round; stroke-linecap: butt}</style>
 </defs>
 <g id="figure_1">
  <g id="patch_1">
   <path d="M 0 432 
L 432 432 
L 432 0 
L 0 0 
L 0 432 
z
" style="fill: none"/>
  </g>
  <g id="axes_1">
   <g id="patch_2">
    <path d="M 86.4 345.6 
L 345.6 345.6 
L 345.6 86.4 
L 86.4 86.4 
L 86.4 345.6 
z
" style="fill: none"/>
   </g>
   <g id="matplotlib.axis_1">
    <g id="xtick_1">
     <g id="line2d_1">
      <defs>
       <path id="m2405a6dc92" d="M 0 0 
L 0 6 
" style="stroke: #262626; stroke-width: 1.25"/>
      </defs>
      <g>
       <use xlink:href="#m2405a6dc92" x="86.4" y="345.6" style="fill: #262626; stroke: #262626; stroke-width: 1.25"/>
      </g>
     </g>
     <g id="text_1">
      <text style="fill: #262626; font: 16px 'Arial', 'DejaVu Sans', 'Liberation Sans', 'Bitstream Vera Sans', sans-serif; text-anchor: middle" x="86.4" y="366.5525" transform="rotate(-0 86.4 366.5525)">Jan</text>
     </g>
    </g>
    <g id="xtick_2">
     <g id="line2d_2">
      <g>
       <use xlink:href="#m2405a6dc92" x="97.2" y="345.6" style="fill: #262626; stroke: #262626; stroke-width: 1.25"/>
      </g>
     </g>
    </g>
    <g id="xtick_3">
     <g id="line2d_3">
      <g>
       <use xlink:href="#m2405a6dc92" x="108" y="345.6" style="fill: #262626; stroke: #262626; stroke-width: 1.25"/>
      </g>
     </g>
    </g>
    <g id="xtick_4">
     <g id="line2d_4">
      <g>
       <use xlink:href="#m2405a6dc92" x="118.8" y="345.6" style="fill: #262626; stroke: #262626; stroke-width: 1.25"/>
      </g>
     </g>
     <g id="text_2">
      <text style="fill: #262626; font: 16px 'Arial', 'DejaVu Sans', 'Liberation Sans', 'Bitstream Vera Sans', sans-serif; text-anchor: middle" x="118.8" y="366.5525" transform="rotate(-0 118.8 366.5525)">Apr</text>
     </g>
    </g>
    <g id="xtick_5">
     <g id="line2d_5">
      <g>
       <use xlink:href="#m2405a6dc92" x="129.6" y="345.6" style="fill: #262626; stroke: #262626; stroke-width: 1.25"/>
      </g>
     </g>
    </g>
    <g id="xtick_6">
     <g id="line2d_6">
      <g>
       <use xlink:href="#m2405a6dc92" x="140.4" y="345.6" style="fill: #262626; stroke: #262626; stroke-width: 1.25"/>
      </g>
     </g>
    </g>
    <g id="xtick_7">
     <g id="line2d_7">
      <g>
       <use xlink:href="#m2405a6dc92" x="151.2" y="345.6" style="fill: #262626; stroke: #262626; stroke-width: 1.25"/>
      </g>
     </g>
     <g id="text_3">
      <text style="fill: #262626; font: 16px 'Arial', 'DejaVu Sans', 'Liberation Sans', 'Bitstream Vera Sans', sans-serif; text-anchor: middle" x="151.2" y="366.5525" transform="rotate(-0 151.2 366.5525)">Jul</text>
     </g>
    </g>
    <g id="xtick_8">
     <g id="line2d_8">
      <g>
       <use xlink:href="#m2405a6dc92" x="162" y="345.6" style="fill: #262626; stroke: #262626; stroke-width: 1.25"/>
      </g>
     </g>
    </g>
    <g id="xtick_9">
     <g id="line2d_9">
      <g>
       <use xlink:href="#m2405a6dc92" x="172.8" y="345.6" style="fill: #262626; stroke: #262626; stroke-width: 1.25"/>
      </g>
     </g>
    </g>
    <g id="xtick_10">
     <g id="line2d_10">
      <g>
       <use xlink:href="#m2405a6dc92" x="183.6" y="345.6" style="fill: #262626; stroke: #262626; stroke-width: 1.25"/>
      </g>
     </g>
     <g id="text_4">
      <text style="fill: #262626; font: 16px 'Arial', 'DejaVu Sans', 'Liberation Sans', 'Bitstream Vera Sans', sans-serif; text-anchor: middle" x="183.6" y="366.5525" transform="rotate(-0 183.6 366.5525)">Oct</text>
     </g>
    </g>
    <g id="xtick_11">
     <g id="line2d_11">
      <g>
       <use xlink:href="#m2405a6dc92" x="194.4" y="345.6" style="fill: #262626; stroke: #262626; stroke-width: 1.25"/>
      </g>
     </g>
    </g>
    <g id="xtick_12">
     <g id="line2d_12">
      <g>
       <use xlink:href="#m2405a6dc92" x="205.2" y="345.6" style="fill: #262626; stroke: #262626; stroke-width: 1.25"/>
      </g>
     </g>
    </g>
    <g id="xtick_13">
     <g id="line2d_13">
      <g>
       <use xlink:href="#m2405a6dc92" x="216" y="345.6" style="fill: #262626; stroke: #262626; stroke-width: 1.25"/>
      </g>
     </g>
     <g id="text_5">
      <text style="fill: #262626; font: 16px 'Arial', 'DejaVu Sans', 'Liberation Sans', 'Bitstream Vera Sans', sans-serif; text-anchor: middle" x="216" y="366.5525" transform="rotate(-0 216 366.5525)">Jan</text>
     </g>
    </g>
    <g id="xtick_14">
     <g id="line2d_14">
      <g>
       <use xlink:href="#m2405a6dc92" x="226.8" y="345.6" style="fill: #262626; stroke: #262626; stroke-width: 1.25"/>
      </g>
     </g>
    </g>
    <g id="xtick_15">
     <g id="line2d_15">
      <g>
       <use xlink:href="#m2405a6dc92" x="237.6" y="345.6" style="fill: #262626; stroke: #262626; stroke-width: 1.25"/>
      </g>
     </g>
    </g>
    <g id="xtick_16">
     <g id="line2d_16">
      <g>
       <use xlink:href="#m2405a6dc92" x="248.4" y="345.6" style="fill: #262626; stroke: #262626; stroke-width: 1.25"/>
      </g>
     </g>
     <g id="text_6">
      <text style="fill: #262626; font: 16px 'Arial', 'DejaVu Sans', 'Liberation Sans', 'Bitstream Vera Sans', sans-serif; text-anchor: middle" x="248.4" y="366.5525" transform="rotate(-0 248.4 366.5525)">Apr</text>
     </g>
    </g>
    <g id="xtick_17">
     <g id="line2d_17">
      <g>
       <use xlink:href="#m2405a6dc92" x="259.2" y="345.6" style="fill: #262626; stroke: #262626; stroke-width: 1.25"/>
      </g>
     </g>
    </g>
    <g id="xtick_18">
     <g id="line2d_18">
      <g>
       <use xlink:href="#m2405a6dc92" x="270" y="345.6" style="fill: #262626; stroke: #262626; stroke-width: 1.25"/>
      </g>
     </g>
    </g>
    <g id="xtick_19">
     <g id="line2d_19">
      <g>
       <use xlink:href="#m2405a6dc92" x="280.8" y="345.6" style="fill: #262626; stroke: #262626; stroke-width: 1.25"/>
      </g>
     </g>
     <g id="text_7">
      <text style="fill: #262626; font: 16px 'Arial', 'DejaVu Sans', 'Liberation Sans', 'Bitstream Vera Sans', sans-serif; text-anchor: middle" x="280.8" y="366.5525" transform="rotate(-0 280.8 366.5525)">Jul</text>
     </g>
    </g>
    <g id="xtick_20">
     <g id="line2d_20">
      <g>
       <use xlink:href="#m2405a6dc92" x="291.6" y="345.6" style="fill: #262626; stroke: #262626; stroke-width: 1.25"/>
      </g>
     </g>
    </g>
    <g id="xtick_21">
     <g id="line2d_21">
      <g>
       <use xlink:href="#m2405a6dc92" x="302.4" y="345.6" style="fill: #262626; stroke: #262626; stroke-width: 1.25"/>
      </g>
     </g>
    </g>
    <g id="xtick_22">
     <g id="line2d_22">
      <g>
       <use xlink:href="#m2405a6dc92" x="313.2" y="345.6" style="fill: #262626; stroke: #262626; stroke-width: 1.25"/>
      </g>
     </g>
     <g id="text_8">
      <text style="fill: #262626; font: 16px 'Arial', 'DejaVu Sans', 'Liberation Sans', 'Bitstream Vera Sans', sans-serif; text-anchor: middle" x="313.2" y="366.5525" transform="rotate(-0 313.2 366.5525)">Oct</text>
     </g>
    </g>
    <g id="xtick_23">
     <g id="line2d_23">
      <g>
       <use xlink:href="#m2405a6dc92" x="324" y="345.6" style="fill: #262626; stroke: #262626; stroke-width: 1.25"/>
      </g>
     </g>
    </g>
    <g id="xtick_24">
     <g id="line2d_24">
      <g>
       <use xlink:href="#m2405a6dc92" x="334.8" y="345.6" style="fill: #262626; stroke: #262626; stroke-width: 1.25"/>
      </g>
     </g>
    </g>
    <g id="xtick_25">
     <g id="line2d_25">
      <g>
       <use xlink:href="#m2405a6dc92" x="345.6" y="345.6" style="fill: #262626; stroke: #262626; stroke-width: 1.25"/>
      </g>
     </g>
     <g id="text_9">
      <text style="fill: #262626; font: 16px 'Arial', 'DejaVu Sans', 'Liberation Sans', 'Bitstream Vera Sans', sans-serif; text-anchor: middle" x="345.6" y="366.5525" transform="rotate(-0 345.6 366.5525)">Jan</text>
     </g>
    </g>
    <g id="text_10">
     <text style="fill: #262626; font: 16px 'Arial', 'DejaVu Sans', 'Liberation Sans', 'Bitstream Vera Sans', sans-serif; text-anchor: middle" x="216" y="385.185" transform="rotate(-0 216 385.185)"> </text>
    </g>
   </g>
   <g id="matplotlib.axis_2">
    <g id="ytick_1">
     <g id="line2d_26">
      <defs>
       <path id="mbd6a7a97ea" d="M 0 0 
L -6 0 
" style="stroke: #262626; stroke-width: 1.25"/>
      </defs>
      <g>
       <use xlink:href="#mbd6a7a97ea" x="86.4" y="345.6" style="fill: #262626; stroke: #262626; stroke-width: 1.25"/>
      </g>
     </g>
     <g id="text_11">
      <text style="fill: #262626; font: 16px 'Arial', 'DejaVu Sans', 'Liberation Sans', 'Bitstream Vera Sans', sans-serif; text-anchor: end" x="76.9" y="351.32625" transform="rotate(-0 76.9 351.32625)">0.0</text>
     </g>
    </g>
    <g id="ytick_2">
     <g id="line2d_27">
      <g>
       <use xlink:href="#mbd6a7a97ea" x="86.4" y="293.76" style="fill: #262626; stroke: #262626; stroke-width: 1.25"/>
      </g>
     </g>
     <g id="text_12">
      <text style="fill: #262626; font: 16px 'Arial', 'DejaVu Sans', 'Liberation Sans', 'Bitstream Vera Sans', sans-serif; text-anchor: end" x="76.9" y="299.48625" transform="rotate(-0 76.9 299.48625)">0.1</text>
     </g>
    </g>
    <g id="ytick_3">
     <g id="line2d_28">
      <g>
       <use xlink:href="#mbd6a7a97ea" x="86.4" y="241.92" style="fill: #262626; stroke: #262626; stroke-width: 1.25"/>
      </g>
     </g>
     <g id="text_13">
      <text style="fill: #262626; font: 16px 'Arial', 'DejaVu Sans', 'Liberation Sans', 'Bitstream Vera Sans', sans-serif; text-anchor: end" x="76.9" y="247.64625" transform="rotate(-0 76.9 247.64625)">0.2</text>
     </g>
    </g>
    <g id="ytick_4">
     <g id="line2d_29">
      <g>
       <use xlink:href="#mbd6a7a97ea" x="86.4" y="190.08" style="fill: #262626; stroke: #262626; stroke-width: 1.25"/>
      </g>
     </g>
     <g id="text_14">
      <text style="fill: #262626; font: 16px 'Arial', 'DejaVu Sans', 'Liberation Sans', 'Bitstream Vera Sans', sans-serif; text-anchor: end" x="76.9" y="195.80625" transform="rotate(-0 76.9 195.80625)">0.3</text>
     </g>
    </g>
    <g id="ytick_5">
     <g id="line2d_30">
      <g>
       <use xlink:href="#mbd6a7a97ea" x="86.4" y="138.24" style="fill: #262626; stroke: #262626; stroke-width: 1.25"/>
      </g>
     </g>
     <g id="text_15">
      <text style="fill: #262626; font: 16px 'Arial', 'DejaVu Sans', 'Liberation Sans', 'Bitstream Vera Sans', sans-serif; text-anchor: end" x="76.9" y="143.96625" transform="rotate(-0 76.9 143.96625)">0.4</text>
     </g>
    </g>
    <g id="ytick_6">
     <g id="line2d_31">
      <g>
       <use xlink:href="#mbd6a7a97ea" x="86.4" y="86.4" style="fill: #262626; stroke: #262626; stroke-width: 1.25"/>
      </g>
     </g>
     <g id="text_16">
      <text style="fill: #262626; font: 16px 'Arial', 'DejaVu Sans', 'Liberation Sans', 'Bitstream Vera Sans', sans-serif; text-anchor: end" x="76.9" y="92.12625" transform="rotate(-0 76.9 92.12625)">0.5</text>
     </g>
    </g>
    <g id="text_17">
     <text style="fill: #262626; font: 16px 'Arial', 'DejaVu Sans', 'Liberation Sans', 'Bitstream Vera Sans', sans-serif; text-anchor: middle" x="47.48" y="216" transform="rotate(-90 47.48 216)">Case outbreak risk</text>
    </g>
   </g>
   <g id="PolyCollection_1">
    <defs>
     <path id="mfe297c9ee0" d="M 208.8 -86.4 
L 165.6 -86.4 
L 165.6 -345.6 
L 208.8 -345.6 
L 208.8 -345.6 
L 208.8 -86.4 
z
"/>
    </defs>
    <g clip-path="url(#p37a9337d91)">
     <use xlink:href="#mfe297c9ee0" x="0" y="432" style="fill: #808080; fill-opacity: 0.5"/>
    </g>
   </g>
   <g id="PolyCollection_2">
    <defs>
     <path id="m25bdf271cb" d="M 338.4 -86.4 
L 295.2 -86.4 
L 295.2 -345.6 
L 338.4 -345.6 
L 338.4 -345.6 
L 338.4 -86.4 
z
"/>
    </defs>
    <g clip-path="url(#p37a9337d91)">
     <use xlink:href="#m25bdf271cb" x="0" y="432" style="fill: #808080; fill-opacity: 0.5"/>
    </g>
   </g>
   <g id="line2d_32">
    <path d="M 86.4 112.687383 
L 88.56 113.036094 
L 90.72 113.651488 
L 92.88 114.5327 
L 95.04 115.678117 
L 97.2 117.085242 
L 99.36 118.750508 
L 101.52 120.669041 
L 104.04 123.218696 
L 106.56 126.090547 
L 109.44 129.743762 
L 112.32 133.758296 
L 115.56 138.647564 
L 119.52 145.034032 
L 131.76 165.124237 
L 134.64 169.223499 
L 136.8 171.960888 
L 138.96 174.347301 
L 140.76 176.031516 
L 142.56 177.412096 
L 144.36 178.468587 
L 145.8 179.069966 
L 147.24 179.448748 
L 148.68 179.602031 
L 150.12 179.529303 
L 151.56 179.232416 
L 153 178.715499 
L 154.44 177.984831 
L 156.24 176.78367 
L 158.04 175.281565 
L 159.84 173.502193 
L 162 171.038598 
L 164.52 167.775287 
L 167.4 163.635652 
L 171 158.031906 
L 185.4 135.099529 
L 188.64 130.571743 
L 191.52 126.897261 
L 194.4 123.59284 
L 196.92 121.028758 
L 199.44 118.786597 
L 201.6 117.130235 
L 203.76 115.725305 
L 205.92 114.576509 
L 208.08 113.687495 
L 210.24 113.061033 
L 212.4 112.699144 
L 214.56 112.603198 
L 216.36 112.726965 
L 218.52 113.120155 
L 220.68 113.779931 
L 222.84 114.70531 
L 225 115.894545 
L 227.16 117.344974 
L 229.32 119.052829 
L 231.84 121.363767 
L 234.36 124.007047 
L 236.88 126.967851 
L 239.76 130.715148 
L 243 135.347718 
L 246.6 140.926224 
L 251.28 148.639801 
L 259.56 162.357484 
L 262.8 167.230877 
L 265.32 170.632693 
L 267.48 173.201254 
L 269.28 175.055917 
L 271.08 176.621438 
L 272.88 177.874561 
L 274.32 178.639552 
L 275.76 179.185684 
L 277.2 179.50827 
L 278.64 179.605005 
L 280.08 179.475973 
L 281.52 179.123605 
L 282.96 178.55258 
L 284.4 177.769693 
L 286.2 176.506615 
L 288 174.947058 
L 289.8 173.115346 
L 291.96 170.596383 
L 294.48 167.279435 
L 297.36 163.093415 
L 300.96 157.453758 
L 314.28 136.15593 
L 317.52 131.543882 
L 320.4 127.782535 
L 323.28 124.382482 
L 325.8 121.729114 
L 328.32 119.3936 
L 330.84 117.388979 
L 333 115.941786 
L 335.16 114.750021 
L 337.32 113.817496 
L 339.48 113.147116 
L 341.64 112.74102 
L 343.8 112.600681 
L 345.24 112.655216 
L 345.24 112.655216 
" clip-path="url(#p37a9337d91)" style="fill: none; stroke: #4c72b0; stroke-width: 2; stroke-linecap: round"/>
   </g>
   <g id="line2d_33">
    <path d="M 86.4 190.409933 
L 88.56 188.106908 
L 90.72 186.152768 
L 92.52 184.790645 
L 94.32 183.669799 
L 96.12 182.788645 
L 97.92 182.144797 
L 99.72 181.735039 
L 101.52 181.555141 
L 103.32 181.599692 
L 105.12 181.862184 
L 106.92 182.334713 
L 108.72 183.007688 
L 110.88 184.063936 
L 113.04 185.369641 
L 115.56 187.171367 
L 118.44 189.533444 
L 122.04 192.802756 
L 130.32 200.464981 
L 132.84 202.464704 
L 135 203.924736 
L 136.8 204.91836 
L 138.6 205.67656 
L 140.4 206.17232 
L 141.84 206.364428 
L 143.28 206.364187 
L 144.72 206.164156 
L 146.16 205.759087 
L 147.6 205.14602 
L 149.04 204.32424 
L 150.84 203.006312 
L 152.64 201.373465 
L 154.44 199.439812 
L 156.6 196.752207 
L 159.12 193.182566 
L 164.88 184.73195 
L 165.6 184.056596 
L 166.32 183.683924 
L 167.4 183.683677 
L 170.64 183.756461 
L 175.68 183.571009 
L 180 183.49657 
L 182.88 183.6592 
L 185.4 184.016825 
L 187.56 184.521935 
L 189.72 185.239055 
L 191.88 186.192523 
L 194.04 187.403967 
L 196.2 188.891312 
L 198.36 190.665724 
L 200.52 192.721803 
L 203.4 195.803148 
L 205.92 198.446398 
L 207 199.319958 
L 207.72 199.699571 
L 208.44 199.822853 
L 209.16 199.572009 
L 209.52 199.248366 
L 210.6 197.676857 
L 213.12 194.021221 
L 215.28 191.254968 
L 217.44 188.835857 
L 219.6 186.765357 
L 221.76 185.04374 
L 223.56 183.874731 
L 225.36 182.945798 
L 227.16 182.254734 
L 228.96 181.798454 
L 230.76 181.572973 
L 232.56 181.573126 
L 234.36 181.792611 
L 236.16 182.223837 
L 237.96 182.857571 
L 240.12 183.869897 
L 242.28 185.135815 
L 244.8 186.897348 
L 247.68 189.22333 
L 251.28 192.465292 
L 260.28 200.766876 
L 262.8 202.726152 
L 264.96 204.140875 
L 266.76 205.089751 
L 268.56 205.797505 
L 270.36 206.237883 
L 271.8 206.382726 
L 273.24 206.333152 
L 274.68 206.082266 
L 276.12 205.625388 
L 277.56 204.960115 
L 279 204.086332 
L 280.8 202.704566 
L 282.6 201.010241 
L 284.4 199.018676 
L 286.56 196.268536 
L 289.08 192.642014 
L 294.12 185.146805 
L 295.2 184.056596 
L 295.92 183.683924 
L 297 183.683677 
L 300.24 183.756461 
L 305.28 183.571009 
L 309.6 183.49657 
L 312.48 183.6592 
L 315 184.016825 
L 317.16 184.521935 
L 319.32 185.239055 
L 321.48 186.192523 
L 323.64 187.403967 
L 325.8 188.891312 
L 327.96 190.665724 
L 330.12 192.721803 
L 333 195.803148 
L 335.52 198.446398 
L 336.6 199.319958 
L 337.32 199.699571 
L 338.04 199.822853 
L 338.76 199.572009 
L 339.12 199.248366 
L 340.2 197.676857 
L 342.72 194.021221 
L 344.88 191.254968 
L 345.24 190.827622 
L 345.24 190.827622 
" clip-path="url(#p37a9337d91)" style="fill: none; stroke: #dd8452; stroke-width: 2; stroke-linecap: round"/>
   </g>
   <g id="patch_3">
    <path d="M 86.4 345.6 
L 86.4 86.4 
" style="fill: none; stroke: #262626; stroke-width: 1.25; stroke-linejoin: miter; stroke-linecap: square"/>
   </g>
   <g id="patch_4">
    <path d="M 86.4 345.6 
L 345.6 345.6 
" style="fill: none; stroke: #262626; stroke-width: 1.25; stroke-linejoin: miter; stroke-linecap: square"/>
   </g>
   <g id="legend_1">
    <g id="patch_5">
     <path d="M 96.2 338.6 
L 277.944063 338.6 
Q 280.744063 338.6 280.744063 335.8 
L 280.744063 297.41375 
Q 280.744063 294.61375 277.944063 294.61375 
L 96.2 294.61375 
Q 93.4 294.61375 93.4 297.41375 
L 93.4 335.8 
Q 93.4 338.6 96.2 338.6 
z
" style="fill: #ffffff; opacity: 0.8; stroke: #cccccc; stroke-linejoin: miter"/>
    </g>
    <g id="line2d_34">
     <path d="M 99 305.334688 
L 113 305.334688 
L 127 305.334688 
" style="fill: none; stroke: #4c72b0; stroke-width: 2; stroke-linecap: round"/>
    </g>
    <g id="text_18">
     <text style="fill: #262626; font: 14px 'Arial', 'DejaVu Sans', 'Liberation Sans', 'Bitstream Vera Sans', sans-serif; text-anchor: start" x="138.2" y="310.234688" transform="rotate(-0 138.2 310.234688)">Without vaccination</text>
    </g>
    <g id="line2d_35">
     <path d="M 99 325.3175 
L 113 325.3175 
L 127 325.3175 
" style="fill: none; stroke: #dd8452; stroke-width: 2; stroke-linecap: round"/>
    </g>
    <g id="text_19">
     <text style="fill: #262626; font: 14px 'Arial', 'DejaVu Sans', 'Liberation Sans', 'Bitstream Vera Sans', sans-serif; text-anchor: start" x="138.2" y="330.2175" transform="rotate(-0 138.2 330.2175)">Optimised vaccination</text>
    </g>
   </g>
  </g>
 </g>
 <defs>
  <clipPath id="p37a9337d91">
   <rect x="86.4" y="86.4" width="259.2" height="259.2"/>
  </clipPath>
 </defs>
</svg>
