<?xml version="1.0" encoding="utf-8" standalone="no"?>
<!DOCTYPE svg PUBLIC "-//W3C//DTD SVG 1.1//EN"
  "http://www.w3.org/Graphics/SVG/1.1/DTD/svg11.dtd">
<svg xmlns:xlink="http://www.w3.org/1999/xlink" width="432pt" height="432pt" viewBox="0 0 432 432" xmlns="http://www.w3.org/2000/svg" version="1.1">
 <metadata>
  <rdf:RDF xmlns:dc="http://purl.org/dc/elements/1.1/" xmlns:cc="http://creativecommons.org/ns#" xmlns:rdf="http://www.w3.org/1999/02/22-rdf-syntax-ns#">
   <cc:Work>
    <dc:type rdf:resource="http://purl.org/dc/dcmitype/StillImage"/>
    <dc:date>2024-05-10T16:43:48.199050</dc:date>
    <dc:format>image/svg+xml</dc:format>
    <dc:creator>
     <cc:Agent>
      <dc:title>Matplotlib v3.8.4, https://matplotlib.org/</dc:title>
     </cc:Agent>
    </dc:creator>
   </cc:Work>
  </rdf:RDF>
 </metadata>
 <defs>
  <style type="text/css">*{stroke-linejoin: round; stroke-linecap: butt}</style>
 </defs>
 <g id="figure_1">
  <g id="patch_1">
   <path d="M 0 432 
L 432 432 
L 432 0 
L 0 0 
L 0 432 
z
" style="fill: none"/>
  </g>
  <g id="axes_1">
   <g id="patch_2">
    <path d="M 86.4 345.6 
L 345.6 345.6 
L 345.6 86.4 
L 86.4 86.4 
L 86.4 345.6 
z
" style="fill: none"/>
   </g>
   <g id="matplotlib.axis_1">
    <g id="xtick_1">
     <g id="line2d_1">
      <defs>
       <path id="mbc9eb84b23" d="M 0 0 
L 0 6 
" style="stroke: #262626; stroke-width: 1.25"/>
      </defs>
      <g>
       <use xlink:href="#mbc9eb84b23" x="86.4" y="345.6" style="fill: #262626; stroke: #262626; stroke-width: 1.25"/>
      </g>
     </g>
     <g id="text_1">
      <text style="fill: #262626; font: 16px 'Arial', 'DejaVu Sans', 'Liberation Sans', 'Bitstream Vera Sans', sans-serif; text-anchor: middle" x="86.4" y="366.5525" transform="rotate(-0 86.4 366.5525)">Jan</text>
     </g>
    </g>
    <g id="xtick_2">
     <g id="line2d_2">
      <g>
       <use xlink:href="#mbc9eb84b23" x="97.2" y="345.6" style="fill: #262626; stroke: #262626; stroke-width: 1.25"/>
      </g>
     </g>
    </g>
    <g id="xtick_3">
     <g id="line2d_3">
      <g>
       <use xlink:href="#mbc9eb84b23" x="108" y="345.6" style="fill: #262626; stroke: #262626; stroke-width: 1.25"/>
      </g>
     </g>
    </g>
    <g id="xtick_4">
     <g id="line2d_4">
      <g>
       <use xlink:href="#mbc9eb84b23" x="118.8" y="345.6" style="fill: #262626; stroke: #262626; stroke-width: 1.25"/>
      </g>
     </g>
     <g id="text_2">
      <text style="fill: #262626; font: 16px 'Arial', 'DejaVu Sans', 'Liberation Sans', 'Bitstream Vera Sans', sans-serif; text-anchor: middle" x="118.8" y="366.5525" transform="rotate(-0 118.8 366.5525)">Apr</text>
     </g>
    </g>
    <g id="xtick_5">
     <g id="line2d_5">
      <g>
       <use xlink:href="#mbc9eb84b23" x="129.6" y="345.6" style="fill: #262626; stroke: #262626; stroke-width: 1.25"/>
      </g>
     </g>
    </g>
    <g id="xtick_6">
     <g id="line2d_6">
      <g>
       <use xlink:href="#mbc9eb84b23" x="140.4" y="345.6" style="fill: #262626; stroke: #262626; stroke-width: 1.25"/>
      </g>
     </g>
    </g>
    <g id="xtick_7">
     <g id="line2d_7">
      <g>
       <use xlink:href="#mbc9eb84b23" x="151.2" y="345.6" style="fill: #262626; stroke: #262626; stroke-width: 1.25"/>
      </g>
     </g>
     <g id="text_3">
      <text style="fill: #262626; font: 16px 'Arial', 'DejaVu Sans', 'Liberation Sans', 'Bitstream Vera Sans', sans-serif; text-anchor: middle" x="151.2" y="366.5525" transform="rotate(-0 151.2 366.5525)">Jul</text>
     </g>
    </g>
    <g id="xtick_8">
     <g id="line2d_8">
      <g>
       <use xlink:href="#mbc9eb84b23" x="162" y="345.6" style="fill: #262626; stroke: #262626; stroke-width: 1.25"/>
      </g>
     </g>
    </g>
    <g id="xtick_9">
     <g id="line2d_9">
      <g>
       <use xlink:href="#mbc9eb84b23" x="172.8" y="345.6" style="fill: #262626; stroke: #262626; stroke-width: 1.25"/>
      </g>
     </g>
    </g>
    <g id="xtick_10">
     <g id="line2d_10">
      <g>
       <use xlink:href="#mbc9eb84b23" x="183.6" y="345.6" style="fill: #262626; stroke: #262626; stroke-width: 1.25"/>
      </g>
     </g>
     <g id="text_4">
      <text style="fill: #262626; font: 16px 'Arial', 'DejaVu Sans', 'Liberation Sans', 'Bitstream Vera Sans', sans-serif; text-anchor: middle" x="183.6" y="366.5525" transform="rotate(-0 183.6 366.5525)">Oct</text>
     </g>
    </g>
    <g id="xtick_11">
     <g id="line2d_11">
      <g>
       <use xlink:href="#mbc9eb84b23" x="194.4" y="345.6" style="fill: #262626; stroke: #262626; stroke-width: 1.25"/>
      </g>
     </g>
    </g>
    <g id="xtick_12">
     <g id="line2d_12">
      <g>
       <use xlink:href="#mbc9eb84b23" x="205.2" y="345.6" style="fill: #262626; stroke: #262626; stroke-width: 1.25"/>
      </g>
     </g>
    </g>
    <g id="xtick_13">
     <g id="line2d_13">
      <g>
       <use xlink:href="#mbc9eb84b23" x="216" y="345.6" style="fill: #262626; stroke: #262626; stroke-width: 1.25"/>
      </g>
     </g>
     <g id="text_5">
      <text style="fill: #262626; font: 16px 'Arial', 'DejaVu Sans', 'Liberation Sans', 'Bitstream Vera Sans', sans-serif; text-anchor: middle" x="216" y="366.5525" transform="rotate(-0 216 366.5525)">Jan</text>
     </g>
    </g>
    <g id="xtick_14">
     <g id="line2d_14">
      <g>
       <use xlink:href="#mbc9eb84b23" x="216" y="345.6" style="fill: #262626; stroke: #262626; stroke-width: 1.25"/>
      </g>
     </g>
     <g id="text_6">
      <text style="fill: #262626; font: 16px 'Arial', 'DejaVu Sans', 'Liberation Sans', 'Bitstream Vera Sans', sans-serif; text-anchor: middle" x="216" y="366.5525" transform="rotate(-0 216 366.5525)">Jan</text>
     </g>
    </g>
    <g id="xtick_15">
     <g id="line2d_15">
      <g>
       <use xlink:href="#mbc9eb84b23" x="226.8" y="345.6" style="fill: #262626; stroke: #262626; stroke-width: 1.25"/>
      </g>
     </g>
    </g>
    <g id="xtick_16">
     <g id="line2d_16">
      <g>
       <use xlink:href="#mbc9eb84b23" x="237.6" y="345.6" style="fill: #262626; stroke: #262626; stroke-width: 1.25"/>
      </g>
     </g>
    </g>
    <g id="xtick_17">
     <g id="line2d_17">
      <g>
       <use xlink:href="#mbc9eb84b23" x="248.4" y="345.6" style="fill: #262626; stroke: #262626; stroke-width: 1.25"/>
      </g>
     </g>
     <g id="text_7">
      <text style="fill: #262626; font: 16px 'Arial', 'DejaVu Sans', 'Liberation Sans', 'Bitstream Vera Sans', sans-serif; text-anchor: middle" x="248.4" y="366.5525" transform="rotate(-0 248.4 366.5525)">Apr</text>
     </g>
    </g>
    <g id="xtick_18">
     <g id="line2d_18">
      <g>
       <use xlink:href="#mbc9eb84b23" x="259.2" y="345.6" style="fill: #262626; stroke: #262626; stroke-width: 1.25"/>
      </g>
     </g>
    </g>
    <g id="xtick_19">
     <g id="line2d_19">
      <g>
       <use xlink:href="#mbc9eb84b23" x="270" y="345.6" style="fill: #262626; stroke: #262626; stroke-width: 1.25"/>
      </g>
     </g>
    </g>
    <g id="xtick_20">
     <g id="line2d_20">
      <g>
       <use xlink:href="#mbc9eb84b23" x="280.8" y="345.6" style="fill: #262626; stroke: #262626; stroke-width: 1.25"/>
      </g>
     </g>
     <g id="text_8">
      <text style="fill: #262626; font: 16px 'Arial', 'DejaVu Sans', 'Liberation Sans', 'Bitstream Vera Sans', sans-serif; text-anchor: middle" x="280.8" y="366.5525" transform="rotate(-0 280.8 366.5525)">Jul</text>
     </g>
    </g>
    <g id="xtick_21">
     <g id="line2d_21">
      <g>
       <use xlink:href="#mbc9eb84b23" x="291.6" y="345.6" style="fill: #262626; stroke: #262626; stroke-width: 1.25"/>
      </g>
     </g>
    </g>
    <g id="xtick_22">
     <g id="line2d_22">
      <g>
       <use xlink:href="#mbc9eb84b23" x="302.4" y="345.6" style="fill: #262626; stroke: #262626; stroke-width: 1.25"/>
      </g>
     </g>
    </g>
    <g id="xtick_23">
     <g id="line2d_23">
      <g>
       <use xlink:href="#mbc9eb84b23" x="313.2" y="345.6" style="fill: #262626; stroke: #262626; stroke-width: 1.25"/>
      </g>
     </g>
     <g id="text_9">
      <text style="fill: #262626; font: 16px 'Arial', 'DejaVu Sans', 'Liberation Sans', 'Bitstream Vera Sans', sans-serif; text-anchor: middle" x="313.2" y="366.5525" transform="rotate(-0 313.2 366.5525)">Oct</text>
     </g>
    </g>
    <g id="xtick_24">
     <g id="line2d_24">
      <g>
       <use xlink:href="#mbc9eb84b23" x="324" y="345.6" style="fill: #262626; stroke: #262626; stroke-width: 1.25"/>
      </g>
     </g>
    </g>
    <g id="xtick_25">
     <g id="line2d_25">
      <g>
       <use xlink:href="#mbc9eb84b23" x="334.8" y="345.6" style="fill: #262626; stroke: #262626; stroke-width: 1.25"/>
      </g>
     </g>
    </g>
    <g id="xtick_26">
     <g id="line2d_26">
      <g>
       <use xlink:href="#mbc9eb84b23" x="345.6" y="345.6" style="fill: #262626; stroke: #262626; stroke-width: 1.25"/>
      </g>
     </g>
     <g id="text_10">
      <text style="fill: #262626; font: 16px 'Arial', 'DejaVu Sans', 'Liberation Sans', 'Bitstream Vera Sans', sans-serif; text-anchor: middle" x="345.6" y="366.5525" transform="rotate(-0 345.6 366.5525)">Jan</text>
     </g>
    </g>
    <g id="text_11">
     <text style="fill: #262626; font: 16px 'Arial', 'DejaVu Sans', 'Liberation Sans', 'Bitstream Vera Sans', sans-serif; text-anchor: middle" x="216" y="385.185" transform="rotate(-0 216 385.185)"> </text>
    </g>
   </g>
   <g id="matplotlib.axis_2">
    <g id="ytick_1">
     <g id="line2d_27">
      <defs>
       <path id="m938d3285a0" d="M 0 0 
L -6 0 
" style="stroke: #262626; stroke-width: 1.25"/>
      </defs>
      <g>
       <use xlink:href="#m938d3285a0" x="86.4" y="345.6" style="fill: #262626; stroke: #262626; stroke-width: 1.25"/>
      </g>
     </g>
     <g id="text_12">
      <text style="fill: #262626; font: 16px 'Arial', 'DejaVu Sans', 'Liberation Sans', 'Bitstream Vera Sans', sans-serif; text-anchor: end" x="76.9" y="351.32625" transform="rotate(-0 76.9 351.32625)">0.0</text>
     </g>
    </g>
    <g id="ytick_2">
     <g id="line2d_28">
      <g>
       <use xlink:href="#m938d3285a0" x="86.4" y="293.76" style="fill: #262626; stroke: #262626; stroke-width: 1.25"/>
      </g>
     </g>
     <g id="text_13">
      <text style="fill: #262626; font: 16px 'Arial', 'DejaVu Sans', 'Liberation Sans', 'Bitstream Vera Sans', sans-serif; text-anchor: end" x="76.9" y="299.48625" transform="rotate(-0 76.9 299.48625)">0.1</text>
     </g>
    </g>
    <g id="ytick_3">
     <g id="line2d_29">
      <g>
       <use xlink:href="#m938d3285a0" x="86.4" y="241.92" style="fill: #262626; stroke: #262626; stroke-width: 1.25"/>
      </g>
     </g>
     <g id="text_14">
      <text style="fill: #262626; font: 16px 'Arial', 'DejaVu Sans', 'Liberation Sans', 'Bitstream Vera Sans', sans-serif; text-anchor: end" x="76.9" y="247.64625" transform="rotate(-0 76.9 247.64625)">0.2</text>
     </g>
    </g>
    <g id="ytick_4">
     <g id="line2d_30">
      <g>
       <use xlink:href="#m938d3285a0" x="86.4" y="190.08" style="fill: #262626; stroke: #262626; stroke-width: 1.25"/>
      </g>
     </g>
     <g id="text_15">
      <text style="fill: #262626; font: 16px 'Arial', 'DejaVu Sans', 'Liberation Sans', 'Bitstream Vera Sans', sans-serif; text-anchor: end" x="76.9" y="195.80625" transform="rotate(-0 76.9 195.80625)">0.3</text>
     </g>
    </g>
    <g id="ytick_5">
     <g id="line2d_31">
      <g>
       <use xlink:href="#m938d3285a0" x="86.4" y="138.24" style="fill: #262626; stroke: #262626; stroke-width: 1.25"/>
      </g>
     </g>
     <g id="text_16">
      <text style="fill: #262626; font: 16px 'Arial', 'DejaVu Sans', 'Liberation Sans', 'Bitstream Vera Sans', sans-serif; text-anchor: end" x="76.9" y="143.96625" transform="rotate(-0 76.9 143.96625)">0.4</text>
     </g>
    </g>
    <g id="ytick_6">
     <g id="line2d_32">
      <g>
       <use xlink:href="#m938d3285a0" x="86.4" y="86.4" style="fill: #262626; stroke: #262626; stroke-width: 1.25"/>
      </g>
     </g>
     <g id="text_17">
      <text style="fill: #262626; font: 16px 'Arial', 'DejaVu Sans', 'Liberation Sans', 'Bitstream Vera Sans', sans-serif; text-anchor: end" x="76.9" y="92.12625" transform="rotate(-0 76.9 92.12625)">0.5</text>
     </g>
    </g>
    <g id="text_18">
     <text style="fill: #262626; font: 16px 'Arial', 'DejaVu Sans', 'Liberation Sans', 'Bitstream Vera Sans', sans-serif; text-anchor: middle" x="47.48" y="216" transform="rotate(-90 47.48 216)">Case outbreak risk</text>
    </g>
   </g>
   <g id="PolyCollection_1">
    <defs>
     <path id="m8386c68811" d="M 203.4 -86.4 
L 167.4 -86.4 
L 167.4 -345.6 
L 203.4 -345.6 
L 203.4 -345.6 
L 203.4 -86.4 
z
"/>
    </defs>
    <g clip-path="url(#p151bb1cf83)">
     <use xlink:href="#m8386c68811" x="0" y="432" style="fill: #808080; fill-opacity: 0.5"/>
    </g>
   </g>
   <g id="PolyCollection_2">
    <defs>
     <path id="mf9108bbda1" d="M 333 -86.4 
L 297 -86.4 
L 297 -345.6 
L 333 -345.6 
L 333 -345.6 
L 333 -86.4 
z
"/>
    </defs>
    <g clip-path="url(#p151bb1cf83)">
     <use xlink:href="#mf9108bbda1" x="0" y="432" style="fill: #808080; fill-opacity: 0.5"/>
    </g>
   </g>
   <g id="line2d_33">
    <path d="M 86.4 141.354793 
L 88.2 141.933689 
L 90 142.765739 
L 91.8 143.852138 
L 93.6 145.193965 
L 95.4 146.792106 
L 97.56 149.049005 
L 99.72 151.675954 
L 101.88 154.671699 
L 104.04 158.032967 
L 106.56 162.40807 
L 109.08 167.255631 
L 111.96 173.339309 
L 114.84 179.942214 
L 118.44 188.778764 
L 129.96 217.647296 
L 132.48 223.054839 
L 134.64 227.140373 
L 136.44 230.088967 
L 138.24 232.578309 
L 139.68 234.217584 
L 141.12 235.531084 
L 142.56 236.511398 
L 143.64 237.025701 
L 144.72 237.350343 
L 145.8 237.486208 
L 146.88 237.435165 
L 147.96 237.19998 
L 149.04 236.784258 
L 150.48 235.95677 
L 151.92 234.828428 
L 153.36 233.413469 
L 155.16 231.266219 
L 156.96 228.730768 
L 159.12 225.228992 
L 161.28 221.292119 
L 163.8 216.246526 
L 167.04 209.224976 
L 172.08 197.648154 
L 178.92 181.976272 
L 182.52 174.252137 
L 185.76 167.806444 
L 188.64 162.559571 
L 191.16 158.382846 
L 193.68 154.619799 
L 196.2 151.28996 
L 198.36 148.791899 
L 200.52 146.630105 
L 202.68 144.81013 
L 204.48 143.557793 
L 206.28 142.547982 
L 208.08 141.782492 
L 209.88 141.262913 
L 211.68 140.9907 
L 213.48 140.96723 
L 215.28 141.193836 
L 217.08 141.671822 
L 218.88 142.402462 
L 220.68 143.386984 
L 222.48 144.626521 
L 224.28 146.122046 
L 226.08 147.874281 
L 228.24 150.316262 
L 230.4 153.127876 
L 232.56 156.306947 
L 234.72 159.848901 
L 237.24 164.429034 
L 239.76 169.471602 
L 242.64 175.758832 
L 245.88 183.4104 
L 249.84 193.363925 
L 257.76 213.447981 
L 260.64 220.040153 
L 262.8 224.478369 
L 264.6 227.76498 
L 266.4 230.624731 
L 268.2 233.018113 
L 269.64 234.576858 
L 271.08 235.807602 
L 272.52 236.703918 
L 273.6 237.154966 
L 274.68 237.416534 
L 275.76 237.489843 
L 276.84 237.377069 
L 277.92 237.081266 
L 279.36 236.408936 
L 280.8 235.42936 
L 282.24 234.155815 
L 283.68 232.603441 
L 285.48 230.296577 
L 287.28 227.616236 
L 289.44 223.961497 
L 291.96 219.183218 
L 294.84 213.18745 
L 298.44 205.147754 
L 311.04 176.513605 
L 314.28 169.894924 
L 317.16 164.470149 
L 320.04 159.534977 
L 322.56 155.651505 
L 325.08 152.1962 
L 327.24 149.587538 
L 329.4 147.31297 
L 331.56 145.378517 
L 333.36 144.029734 
L 335.16 142.922683 
L 336.96 142.059265 
L 338.76 141.44114 
L 340.56 141.069812 
L 342.36 140.946683 
L 344.16 141.073101 
L 345.24 141.269282 
L 345.24 141.269282 
" clip-path="url(#p151bb1cf83)" style="fill: none; stroke: #4c72b0; stroke-width: 2; stroke-linecap: round"/>
   </g>
   <g id="line2d_34">
    <path d="M 86.4 246.674452 
L 88.2 246.098058 
L 89.64 245.845485 
L 91.08 245.78064 
L 92.52 245.905464 
L 93.96 246.22156 
L 95.4 246.730075 
L 97.2 247.636998 
L 99 248.844358 
L 100.8 250.348273 
L 102.6 252.140995 
L 104.76 254.655159 
L 106.92 257.5329 
L 109.44 261.284207 
L 112.68 266.564606 
L 120.96 280.359671 
L 123.48 284.010703 
L 125.64 286.74515 
L 127.44 288.696097 
L 129.24 290.319008 
L 130.68 291.367087 
L 132.12 292.184203 
L 133.56 292.764714 
L 135 293.104636 
L 136.44 293.20126 
L 137.88 293.052839 
L 139.32 292.658413 
L 140.76 292.017706 
L 142.2 291.131111 
L 143.64 289.999788 
L 145.08 288.625902 
L 146.88 286.572854 
L 148.68 284.156835 
L 150.48 281.393911 
L 152.64 277.654217 
L 155.16 272.784207 
L 158.4 265.954203 
L 163.08 256.040323 
L 164.88 252.75769 
L 166.32 250.635791 
L 167.4 249.476538 
L 168.48 248.756273 
L 172.08 247.094931 
L 174.6 246.164454 
L 176.76 245.614681 
L 178.56 245.379371 
L 180.36 245.380417 
L 182.16 245.643595 
L 183.6 246.055483 
L 185.4 246.830109 
L 187.2 247.891221 
L 189 249.22121 
L 191.16 251.117105 
L 194.76 254.674328 
L 197.28 257.018572 
L 198.72 258.084152 
L 199.8 258.656359 
L 200.88 258.959458 
L 201.6 258.972203 
L 202.32 258.800258 
L 203.04 258.409812 
L 203.76 257.768466 
L 205.2 255.943979 
L 207.36 253.324225 
L 209.52 251.076598 
L 211.32 249.496327 
L 213.12 248.18822 
L 214.92 247.157568 
L 216.72 246.409389 
L 218.52 245.948436 
L 219.96 245.789469 
L 221.4 245.819233 
L 222.84 246.039519 
L 224.28 246.451716 
L 225.72 247.056677 
L 227.52 248.084032 
L 229.32 249.410671 
L 231.12 251.031295 
L 232.92 252.936291 
L 235.08 255.576076 
L 237.24 258.565024 
L 239.76 262.420746 
L 243.36 268.394798 
L 249.84 279.24161 
L 252.36 283.013661 
L 254.52 285.878887 
L 256.32 287.953697 
L 258.12 289.710675 
L 259.92 291.126457 
L 261.36 292.001916 
L 262.8 292.64201 
L 264.24 293.042377 
L 265.68 293.200023 
L 267.12 293.112981 
L 268.56 292.780109 
L 270 292.200962 
L 271.44 291.375763 
L 272.88 290.305463 
L 274.32 288.99195 
L 276.12 287.012907 
L 277.92 284.668399 
L 279.72 281.973244 
L 281.88 278.307575 
L 284.4 273.508884 
L 287.28 267.507724 
L 293.04 255.342362 
L 294.84 252.176265 
L 295.92 250.635791 
L 297 249.476538 
L 298.08 248.756273 
L 301.68 247.094931 
L 304.2 246.164454 
L 306.36 245.614681 
L 308.16 245.379371 
L 309.96 245.380417 
L 311.76 245.643595 
L 313.2 246.055483 
L 315 246.830109 
L 316.8 247.891221 
L 318.6 249.22121 
L 320.76 251.117105 
L 324.36 254.674328 
L 326.88 257.018572 
L 328.32 258.084152 
L 329.4 258.656359 
L 330.48 258.959458 
L 331.2 258.972203 
L 331.92 258.800258 
L 332.64 258.409812 
L 333.36 257.768466 
L 334.8 255.943979 
L 336.96 253.324225 
L 339.12 251.076598 
L 340.92 249.496327 
L 342.72 248.18822 
L 344.52 247.157568 
L 345.24 246.824125 
L 345.24 246.824125 
" clip-path="url(#p151bb1cf83)" style="fill: none; stroke: #dd8452; stroke-width: 2; stroke-linecap: round"/>
   </g>
   <g id="patch_3">
    <path d="M 86.4 345.6 
L 86.4 86.4 
" style="fill: none; stroke: #262626; stroke-width: 1.25; stroke-linejoin: miter; stroke-linecap: square"/>
   </g>
   <g id="patch_4">
    <path d="M 86.4 345.6 
L 345.6 345.6 
" style="fill: none; stroke: #262626; stroke-width: 1.25; stroke-linejoin: miter; stroke-linecap: square"/>
   </g>
   <g id="legend_1">
    <g id="patch_5">
     <path d="M 169.613438 137.206875 
L 335.8 137.206875 
Q 338.6 137.206875 338.6 134.406875 
L 338.6 96.2 
Q 338.6 93.4 335.8 93.4 
L 169.613438 93.4 
Q 166.813438 93.4 166.813438 96.2 
L 166.813438 134.406875 
Q 166.813438 137.206875 169.613438 137.206875 
z
" style="fill: #ffffff; opacity: 0.8; stroke: #cccccc; stroke-linejoin: miter"/>
    </g>
    <g id="line2d_35">
     <path d="M 172.413438 104.120937 
L 186.413438 104.120937 
L 200.413438 104.120937 
" style="fill: none; stroke: #4c72b0; stroke-width: 2; stroke-linecap: round"/>
    </g>
    <g id="text_19">
     <text style="fill: #262626; font: 14px 'Arial', 'DejaVu Sans', 'Liberation Sans', 'Bitstream Vera Sans', sans-serif; text-anchor: start" x="211.613438" y="109.020937" transform="rotate(-0 211.613438 109.020937)">Without vaccination</text>
    </g>
    <g id="line2d_36">
     <path d="M 172.413438 123.924375 
L 186.413438 123.924375 
L 200.413438 123.924375 
" style="fill: none; stroke: #dd8452; stroke-width: 2; stroke-linecap: round"/>
    </g>
    <g id="text_20">
     <text style="fill: #262626; font: 14px 'Arial', 'DejaVu Sans', 'Liberation Sans', 'Bitstream Vera Sans', sans-serif; text-anchor: start" x="211.613438" y="128.824375" transform="rotate(-0 211.613438 128.824375)">With vaccination</text>
    </g>
   </g>
  </g>
 </g>
 <defs>
  <clipPath id="p151bb1cf83">
   <rect x="86.4" y="86.4" width="259.2" height="259.2"/>
  </clipPath>
 </defs>
</svg>
