<?xml version="1.0" encoding="utf-8" standalone="no"?>
<!DOCTYPE svg PUBLIC "-//W3C//DTD SVG 1.1//EN"
  "http://www.w3.org/Graphics/SVG/1.1/DTD/svg11.dtd">
<svg xmlns:xlink="http://www.w3.org/1999/xlink" width="432pt" height="432pt" viewBox="0 0 432 432" xmlns="http://www.w3.org/2000/svg" version="1.1">
 <metadata>
  <rdf:RDF xmlns:dc="http://purl.org/dc/elements/1.1/" xmlns:cc="http://creativecommons.org/ns#" xmlns:rdf="http://www.w3.org/1999/02/22-rdf-syntax-ns#">
   <cc:Work>
    <dc:type rdf:resource="http://purl.org/dc/dcmitype/StillImage"/>
    <dc:date>2024-05-21T13:16:41.529630</dc:date>
    <dc:format>image/svg+xml</dc:format>
    <dc:creator>
     <cc:Agent>
      <dc:title>Matplotlib v3.8.4, https://matplotlib.org/</dc:title>
     </cc:Agent>
    </dc:creator>
   </cc:Work>
  </rdf:RDF>
 </metadata>
 <defs>
  <style type="text/css">*{stroke-linejoin: round; stroke-linecap: butt}</style>
 </defs>
 <g id="figure_1">
  <g id="patch_1">
   <path d="M 0 432 
L 432 432 
L 432 0 
L 0 0 
L 0 432 
z
" style="fill: none"/>
  </g>
  <g id="axes_1">
   <g id="patch_2">
    <path d="M 86.4 345.6 
L 345.6 345.6 
L 345.6 86.4 
L 86.4 86.4 
L 86.4 345.6 
z
" style="fill: none"/>
   </g>
   <g id="matplotlib.axis_1">
    <g id="xtick_1">
     <g id="line2d_1">
      <defs>
       <path id="m17cc0b61b6" d="M 0 0 
L 0 6 
" style="stroke: #262626; stroke-width: 1.25"/>
      </defs>
      <g>
       <use xlink:href="#m17cc0b61b6" x="86.4" y="345.6" style="fill: #262626; stroke: #262626; stroke-width: 1.25"/>
      </g>
     </g>
     <g id="text_1">
      <text style="fill: #262626; font: 16px 'Arial', 'DejaVu Sans', 'Liberation Sans', 'Bitstream Vera Sans', sans-serif; text-anchor: middle" x="86.4" y="366.5525" transform="rotate(-0 86.4 366.5525)">Jan</text>
     </g>
    </g>
    <g id="xtick_2">
     <g id="line2d_2">
      <g>
       <use xlink:href="#m17cc0b61b6" x="97.2" y="345.6" style="fill: #262626; stroke: #262626; stroke-width: 1.25"/>
      </g>
     </g>
    </g>
    <g id="xtick_3">
     <g id="line2d_3">
      <g>
       <use xlink:href="#m17cc0b61b6" x="108" y="345.6" style="fill: #262626; stroke: #262626; stroke-width: 1.25"/>
      </g>
     </g>
    </g>
    <g id="xtick_4">
     <g id="line2d_4">
      <g>
       <use xlink:href="#m17cc0b61b6" x="118.8" y="345.6" style="fill: #262626; stroke: #262626; stroke-width: 1.25"/>
      </g>
     </g>
     <g id="text_2">
      <text style="fill: #262626; font: 16px 'Arial', 'DejaVu Sans', 'Liberation Sans', 'Bitstream Vera Sans', sans-serif; text-anchor: middle" x="118.8" y="366.5525" transform="rotate(-0 118.8 366.5525)">Apr</text>
     </g>
    </g>
    <g id="xtick_5">
     <g id="line2d_5">
      <g>
       <use xlink:href="#m17cc0b61b6" x="129.6" y="345.6" style="fill: #262626; stroke: #262626; stroke-width: 1.25"/>
      </g>
     </g>
    </g>
    <g id="xtick_6">
     <g id="line2d_6">
      <g>
       <use xlink:href="#m17cc0b61b6" x="140.4" y="345.6" style="fill: #262626; stroke: #262626; stroke-width: 1.25"/>
      </g>
     </g>
    </g>
    <g id="xtick_7">
     <g id="line2d_7">
      <g>
       <use xlink:href="#m17cc0b61b6" x="151.2" y="345.6" style="fill: #262626; stroke: #262626; stroke-width: 1.25"/>
      </g>
     </g>
     <g id="text_3">
      <text style="fill: #262626; font: 16px 'Arial', 'DejaVu Sans', 'Liberation Sans', 'Bitstream Vera Sans', sans-serif; text-anchor: middle" x="151.2" y="366.5525" transform="rotate(-0 151.2 366.5525)">Jul</text>
     </g>
    </g>
    <g id="xtick_8">
     <g id="line2d_8">
      <g>
       <use xlink:href="#m17cc0b61b6" x="162" y="345.6" style="fill: #262626; stroke: #262626; stroke-width: 1.25"/>
      </g>
     </g>
    </g>
    <g id="xtick_9">
     <g id="line2d_9">
      <g>
       <use xlink:href="#m17cc0b61b6" x="172.8" y="345.6" style="fill: #262626; stroke: #262626; stroke-width: 1.25"/>
      </g>
     </g>
    </g>
    <g id="xtick_10">
     <g id="line2d_10">
      <g>
       <use xlink:href="#m17cc0b61b6" x="183.6" y="345.6" style="fill: #262626; stroke: #262626; stroke-width: 1.25"/>
      </g>
     </g>
     <g id="text_4">
      <text style="fill: #262626; font: 16px 'Arial', 'DejaVu Sans', 'Liberation Sans', 'Bitstream Vera Sans', sans-serif; text-anchor: middle" x="183.6" y="366.5525" transform="rotate(-0 183.6 366.5525)">Oct</text>
     </g>
    </g>
    <g id="xtick_11">
     <g id="line2d_11">
      <g>
       <use xlink:href="#m17cc0b61b6" x="194.4" y="345.6" style="fill: #262626; stroke: #262626; stroke-width: 1.25"/>
      </g>
     </g>
    </g>
    <g id="xtick_12">
     <g id="line2d_12">
      <g>
       <use xlink:href="#m17cc0b61b6" x="205.2" y="345.6" style="fill: #262626; stroke: #262626; stroke-width: 1.25"/>
      </g>
     </g>
    </g>
    <g id="xtick_13">
     <g id="line2d_13">
      <g>
       <use xlink:href="#m17cc0b61b6" x="216" y="345.6" style="fill: #262626; stroke: #262626; stroke-width: 1.25"/>
      </g>
     </g>
     <g id="text_5">
      <text style="fill: #262626; font: 16px 'Arial', 'DejaVu Sans', 'Liberation Sans', 'Bitstream Vera Sans', sans-serif; text-anchor: middle" x="216" y="366.5525" transform="rotate(-0 216 366.5525)">Jan</text>
     </g>
    </g>
    <g id="xtick_14">
     <g id="line2d_14">
      <g>
       <use xlink:href="#m17cc0b61b6" x="216" y="345.6" style="fill: #262626; stroke: #262626; stroke-width: 1.25"/>
      </g>
     </g>
     <g id="text_6">
      <text style="fill: #262626; font: 16px 'Arial', 'DejaVu Sans', 'Liberation Sans', 'Bitstream Vera Sans', sans-serif; text-anchor: middle" x="216" y="366.5525" transform="rotate(-0 216 366.5525)">Jan</text>
     </g>
    </g>
    <g id="xtick_15">
     <g id="line2d_15">
      <g>
       <use xlink:href="#m17cc0b61b6" x="226.8" y="345.6" style="fill: #262626; stroke: #262626; stroke-width: 1.25"/>
      </g>
     </g>
    </g>
    <g id="xtick_16">
     <g id="line2d_16">
      <g>
       <use xlink:href="#m17cc0b61b6" x="237.6" y="345.6" style="fill: #262626; stroke: #262626; stroke-width: 1.25"/>
      </g>
     </g>
    </g>
    <g id="xtick_17">
     <g id="line2d_17">
      <g>
       <use xlink:href="#m17cc0b61b6" x="248.4" y="345.6" style="fill: #262626; stroke: #262626; stroke-width: 1.25"/>
      </g>
     </g>
     <g id="text_7">
      <text style="fill: #262626; font: 16px 'Arial', 'DejaVu Sans', 'Liberation Sans', 'Bitstream Vera Sans', sans-serif; text-anchor: middle" x="248.4" y="366.5525" transform="rotate(-0 248.4 366.5525)">Apr</text>
     </g>
    </g>
    <g id="xtick_18">
     <g id="line2d_18">
      <g>
       <use xlink:href="#m17cc0b61b6" x="259.2" y="345.6" style="fill: #262626; stroke: #262626; stroke-width: 1.25"/>
      </g>
     </g>
    </g>
    <g id="xtick_19">
     <g id="line2d_19">
      <g>
       <use xlink:href="#m17cc0b61b6" x="270" y="345.6" style="fill: #262626; stroke: #262626; stroke-width: 1.25"/>
      </g>
     </g>
    </g>
    <g id="xtick_20">
     <g id="line2d_20">
      <g>
       <use xlink:href="#m17cc0b61b6" x="280.8" y="345.6" style="fill: #262626; stroke: #262626; stroke-width: 1.25"/>
      </g>
     </g>
     <g id="text_8">
      <text style="fill: #262626; font: 16px 'Arial', 'DejaVu Sans', 'Liberation Sans', 'Bitstream Vera Sans', sans-serif; text-anchor: middle" x="280.8" y="366.5525" transform="rotate(-0 280.8 366.5525)">Jul</text>
     </g>
    </g>
    <g id="xtick_21">
     <g id="line2d_21">
      <g>
       <use xlink:href="#m17cc0b61b6" x="291.6" y="345.6" style="fill: #262626; stroke: #262626; stroke-width: 1.25"/>
      </g>
     </g>
    </g>
    <g id="xtick_22">
     <g id="line2d_22">
      <g>
       <use xlink:href="#m17cc0b61b6" x="302.4" y="345.6" style="fill: #262626; stroke: #262626; stroke-width: 1.25"/>
      </g>
     </g>
    </g>
    <g id="xtick_23">
     <g id="line2d_23">
      <g>
       <use xlink:href="#m17cc0b61b6" x="313.2" y="345.6" style="fill: #262626; stroke: #262626; stroke-width: 1.25"/>
      </g>
     </g>
     <g id="text_9">
      <text style="fill: #262626; font: 16px 'Arial', 'DejaVu Sans', 'Liberation Sans', 'Bitstream Vera Sans', sans-serif; text-anchor: middle" x="313.2" y="366.5525" transform="rotate(-0 313.2 366.5525)">Oct</text>
     </g>
    </g>
    <g id="xtick_24">
     <g id="line2d_24">
      <g>
       <use xlink:href="#m17cc0b61b6" x="324" y="345.6" style="fill: #262626; stroke: #262626; stroke-width: 1.25"/>
      </g>
     </g>
    </g>
    <g id="xtick_25">
     <g id="line2d_25">
      <g>
       <use xlink:href="#m17cc0b61b6" x="334.8" y="345.6" style="fill: #262626; stroke: #262626; stroke-width: 1.25"/>
      </g>
     </g>
    </g>
    <g id="xtick_26">
     <g id="line2d_26">
      <g>
       <use xlink:href="#m17cc0b61b6" x="345.6" y="345.6" style="fill: #262626; stroke: #262626; stroke-width: 1.25"/>
      </g>
     </g>
     <g id="text_10">
      <text style="fill: #262626; font: 16px 'Arial', 'DejaVu Sans', 'Liberation Sans', 'Bitstream Vera Sans', sans-serif; text-anchor: middle" x="345.6" y="366.5525" transform="rotate(-0 345.6 366.5525)">Jan</text>
     </g>
    </g>
    <g id="text_11">
     <text style="fill: #262626; font: 16px 'Arial', 'DejaVu Sans', 'Liberation Sans', 'Bitstream Vera Sans', sans-serif; text-anchor: middle" x="216" y="385.185" transform="rotate(-0 216 385.185)"> </text>
    </g>
   </g>
   <g id="matplotlib.axis_2">
    <g id="ytick_1">
     <g id="line2d_27">
      <defs>
       <path id="mb13262157a" d="M 0 0 
L -6 0 
" style="stroke: #262626; stroke-width: 1.25"/>
      </defs>
      <g>
       <use xlink:href="#mb13262157a" x="86.4" y="345.6" style="fill: #262626; stroke: #262626; stroke-width: 1.25"/>
      </g>
     </g>
     <g id="text_12">
      <text style="fill: #262626; font: 16px 'Arial', 'DejaVu Sans', 'Liberation Sans', 'Bitstream Vera Sans', sans-serif; text-anchor: end" x="76.9" y="351.32625" transform="rotate(-0 76.9 351.32625)">0.0</text>
     </g>
    </g>
    <g id="ytick_2">
     <g id="line2d_28">
      <g>
       <use xlink:href="#mb13262157a" x="86.4" y="293.76" style="fill: #262626; stroke: #262626; stroke-width: 1.25"/>
      </g>
     </g>
     <g id="text_13">
      <text style="fill: #262626; font: 16px 'Arial', 'DejaVu Sans', 'Liberation Sans', 'Bitstream Vera Sans', sans-serif; text-anchor: end" x="76.9" y="299.48625" transform="rotate(-0 76.9 299.48625)">0.1</text>
     </g>
    </g>
    <g id="ytick_3">
     <g id="line2d_29">
      <g>
       <use xlink:href="#mb13262157a" x="86.4" y="241.92" style="fill: #262626; stroke: #262626; stroke-width: 1.25"/>
      </g>
     </g>
     <g id="text_14">
      <text style="fill: #262626; font: 16px 'Arial', 'DejaVu Sans', 'Liberation Sans', 'Bitstream Vera Sans', sans-serif; text-anchor: end" x="76.9" y="247.64625" transform="rotate(-0 76.9 247.64625)">0.2</text>
     </g>
    </g>
    <g id="ytick_4">
     <g id="line2d_30">
      <g>
       <use xlink:href="#mb13262157a" x="86.4" y="190.08" style="fill: #262626; stroke: #262626; stroke-width: 1.25"/>
      </g>
     </g>
     <g id="text_15">
      <text style="fill: #262626; font: 16px 'Arial', 'DejaVu Sans', 'Liberation Sans', 'Bitstream Vera Sans', sans-serif; text-anchor: end" x="76.9" y="195.80625" transform="rotate(-0 76.9 195.80625)">0.3</text>
     </g>
    </g>
    <g id="ytick_5">
     <g id="line2d_31">
      <g>
       <use xlink:href="#mb13262157a" x="86.4" y="138.24" style="fill: #262626; stroke: #262626; stroke-width: 1.25"/>
      </g>
     </g>
     <g id="text_16">
      <text style="fill: #262626; font: 16px 'Arial', 'DejaVu Sans', 'Liberation Sans', 'Bitstream Vera Sans', sans-serif; text-anchor: end" x="76.9" y="143.96625" transform="rotate(-0 76.9 143.96625)">0.4</text>
     </g>
    </g>
    <g id="ytick_6">
     <g id="line2d_32">
      <g>
       <use xlink:href="#mb13262157a" x="86.4" y="86.4" style="fill: #262626; stroke: #262626; stroke-width: 1.25"/>
      </g>
     </g>
     <g id="text_17">
      <text style="fill: #262626; font: 16px 'Arial', 'DejaVu Sans', 'Liberation Sans', 'Bitstream Vera Sans', sans-serif; text-anchor: end" x="76.9" y="92.12625" transform="rotate(-0 76.9 92.12625)">0.5</text>
     </g>
    </g>
    <g id="text_18">
     <text style="fill: #262626; font: 16px 'Arial', 'DejaVu Sans', 'Liberation Sans', 'Bitstream Vera Sans', sans-serif; text-anchor: middle" x="47.48" y="216" transform="rotate(-90 47.48 216)">Case outbreak risk</text>
    </g>
   </g>
   <g id="PolyCollection_1">
    <defs>
     <path id="m99ee9ef6b7" d="M 205.2 -86.4 
L 187.2 -86.4 
L 187.2 -345.6 
L 205.2 -345.6 
L 205.2 -345.6 
L 205.2 -86.4 
z
"/>
    </defs>
    <g clip-path="url(#pfcde716602)">
     <use xlink:href="#m99ee9ef6b7" x="0" y="432" style="fill: #808080; fill-opacity: 0.5"/>
    </g>
   </g>
   <g id="PolyCollection_2">
    <defs>
     <path id="meae044b2a5" d="M 334.8 -86.4 
L 316.8 -86.4 
L 316.8 -345.6 
L 334.8 -345.6 
L 334.8 -345.6 
L 334.8 -86.4 
z
"/>
    </defs>
    <g clip-path="url(#pfcde716602)">
     <use xlink:href="#meae044b2a5" x="0" y="432" style="fill: #808080; fill-opacity: 0.5"/>
    </g>
   </g>
   <g id="line2d_33">
    <path d="M 86.4 112.687383 
L 88.56 113.036094 
L 90.72 113.651488 
L 92.88 114.5327 
L 95.04 115.678117 
L 97.2 117.085242 
L 99.36 118.750508 
L 101.52 120.669041 
L 104.04 123.218696 
L 106.56 126.090547 
L 109.44 129.743762 
L 112.32 133.758296 
L 115.56 138.647564 
L 119.52 145.034032 
L 131.76 165.124237 
L 134.64 169.223499 
L 136.8 171.960888 
L 138.96 174.347301 
L 140.76 176.031516 
L 142.56 177.412096 
L 144.36 178.468587 
L 145.8 179.069966 
L 147.24 179.448748 
L 148.68 179.602031 
L 150.12 179.529303 
L 151.56 179.232416 
L 153 178.715499 
L 154.44 177.984831 
L 156.24 176.78367 
L 158.04 175.281565 
L 159.84 173.502193 
L 162 171.038598 
L 164.52 167.775287 
L 167.4 163.635652 
L 171 158.031906 
L 185.4 135.099529 
L 188.64 130.571743 
L 191.52 126.897261 
L 194.4 123.59284 
L 196.92 121.028758 
L 199.44 118.786597 
L 201.6 117.130235 
L 203.76 115.725305 
L 205.92 114.576509 
L 208.08 113.687495 
L 210.24 113.061033 
L 212.4 112.699144 
L 214.56 112.603198 
L 216.36 112.726965 
L 218.52 113.120155 
L 220.68 113.779931 
L 222.84 114.70531 
L 225 115.894545 
L 227.16 117.344974 
L 229.32 119.052829 
L 231.84 121.363767 
L 234.36 124.007047 
L 236.88 126.967851 
L 239.76 130.715148 
L 243 135.347718 
L 246.6 140.926224 
L 251.28 148.639801 
L 259.56 162.357484 
L 262.8 167.230877 
L 265.32 170.632693 
L 267.48 173.201254 
L 269.28 175.055917 
L 271.08 176.621438 
L 272.88 177.874561 
L 274.32 178.639552 
L 275.76 179.185684 
L 277.2 179.50827 
L 278.64 179.605005 
L 280.08 179.475973 
L 281.52 179.123605 
L 282.96 178.55258 
L 284.4 177.769693 
L 286.2 176.506615 
L 288 174.947058 
L 289.8 173.115346 
L 291.96 170.596383 
L 294.48 167.279435 
L 297.36 163.093415 
L 300.96 157.453758 
L 314.28 136.15593 
L 317.52 131.543882 
L 320.4 127.782535 
L 323.28 124.382482 
L 325.8 121.729114 
L 328.32 119.3936 
L 330.84 117.388979 
L 333 115.941786 
L 335.16 114.750021 
L 337.32 113.817496 
L 339.48 113.147116 
L 341.64 112.74102 
L 343.8 112.600681 
L 345.24 112.655216 
L 345.24 112.655216 
" clip-path="url(#pfcde716602)" style="fill: none; stroke: #4c72b0; stroke-width: 2; stroke-linecap: round"/>
   </g>
   <g id="line2d_34">
    <path d="M 86.4 135.418962 
L 88.2 135.269039 
L 90 135.307631 
L 91.8 135.534465 
L 93.96 136.05436 
L 96.12 136.842828 
L 98.28 137.897075 
L 100.44 139.213046 
L 102.6 140.785206 
L 104.76 142.605987 
L 107.28 145.031242 
L 109.8 147.761151 
L 112.68 151.219949 
L 115.92 155.481426 
L 119.88 161.087358 
L 130.68 176.665173 
L 133.56 180.293988 
L 135.72 182.704842 
L 137.88 184.786383 
L 139.68 186.23214 
L 141.48 187.387275 
L 142.92 188.087314 
L 144.36 188.578419 
L 145.8 188.853825 
L 147.24 188.909091 
L 148.68 188.742129 
L 150.12 188.353232 
L 151.56 187.744944 
L 153 186.922043 
L 154.8 185.602274 
L 156.6 183.975591 
L 158.4 182.063546 
L 160.56 179.427736 
L 163.08 175.943082 
L 165.96 171.52161 
L 169.56 165.522717 
L 175.68 154.765342 
L 181.44 144.815541 
L 184.32 140.220171 
L 186.12 137.717037 
L 187.2 136.55923 
L 187.92 136.082243 
L 189 135.864975 
L 191.16 135.726034 
L 193.32 135.808839 
L 195.48 136.126819 
L 197.64 136.692548 
L 199.8 137.507161 
L 202.68 138.885104 
L 204.48 139.636711 
L 205.2 139.759076 
L 205.92 139.639124 
L 207.36 138.752946 
L 209.52 137.516661 
L 211.68 136.547212 
L 213.84 135.847647 
L 216 135.418962 
L 217.8 135.269039 
L 219.6 135.307631 
L 221.4 135.534465 
L 223.56 136.05436 
L 225.72 136.842828 
L 227.88 137.897075 
L 230.04 139.213046 
L 232.2 140.785206 
L 234.36 142.605987 
L 236.88 145.031242 
L 239.4 147.761151 
L 242.28 151.219949 
L 245.52 155.481426 
L 249.48 161.087358 
L 260.28 176.665173 
L 263.16 180.293988 
L 265.32 182.704842 
L 267.48 184.786383 
L 269.28 186.23214 
L 271.08 187.387275 
L 272.52 188.087314 
L 273.96 188.578419 
L 275.4 188.853825 
L 276.84 188.909091 
L 278.28 188.742129 
L 279.72 188.353232 
L 281.16 187.744944 
L 282.6 186.922043 
L 284.4 185.602274 
L 286.2 183.975591 
L 288 182.063546 
L 290.16 179.427736 
L 292.68 175.943082 
L 295.56 171.52161 
L 299.16 165.522717 
L 305.28 154.765342 
L 311.04 144.815541 
L 313.92 140.220171 
L 315.72 137.717037 
L 316.8 136.55923 
L 317.52 136.082243 
L 318.6 135.864975 
L 320.76 135.726034 
L 322.92 135.808839 
L 325.08 136.126819 
L 327.24 136.692548 
L 329.4 137.507161 
L 332.28 138.885104 
L 334.08 139.636711 
L 334.8 139.759076 
L 335.52 139.639124 
L 336.96 138.752946 
L 339.12 137.516661 
L 341.28 136.547212 
L 343.44 135.847647 
L 345.24 135.471573 
L 345.24 135.471573 
" clip-path="url(#pfcde716602)" style="fill: none; stroke: #dd8452; stroke-width: 2; stroke-linecap: round"/>
   </g>
   <g id="patch_3">
    <path d="M 86.4 345.6 
L 86.4 86.4 
" style="fill: none; stroke: #262626; stroke-width: 1.25; stroke-linejoin: miter; stroke-linecap: square"/>
   </g>
   <g id="patch_4">
    <path d="M 86.4 345.6 
L 345.6 345.6 
" style="fill: none; stroke: #262626; stroke-width: 1.25; stroke-linejoin: miter; stroke-linecap: square"/>
   </g>
   <g id="legend_1">
    <g id="patch_5">
     <path d="M 96.2 338.6 
L 262.386563 338.6 
Q 265.186563 338.6 265.186563 335.8 
L 265.186563 297.593125 
Q 265.186563 294.793125 262.386563 294.793125 
L 96.2 294.793125 
Q 93.4 294.793125 93.4 297.593125 
L 93.4 335.8 
Q 93.4 338.6 96.2 338.6 
z
" style="fill: #ffffff; opacity: 0.8; stroke: #cccccc; stroke-linejoin: miter"/>
    </g>
    <g id="line2d_35">
     <path d="M 99 305.514063 
L 113 305.514063 
L 127 305.514063 
" style="fill: none; stroke: #4c72b0; stroke-width: 2; stroke-linecap: round"/>
    </g>
    <g id="text_19">
     <text style="fill: #262626; font: 14px 'Arial', 'DejaVu Sans', 'Liberation Sans', 'Bitstream Vera Sans', sans-serif; text-anchor: start" x="138.2" y="310.414062" transform="rotate(-0 138.2 310.414062)">Without vaccination</text>
    </g>
    <g id="line2d_36">
     <path d="M 99 325.3175 
L 113 325.3175 
L 127 325.3175 
" style="fill: none; stroke: #dd8452; stroke-width: 2; stroke-linecap: round"/>
    </g>
    <g id="text_20">
     <text style="fill: #262626; font: 14px 'Arial', 'DejaVu Sans', 'Liberation Sans', 'Bitstream Vera Sans', sans-serif; text-anchor: start" x="138.2" y="330.2175" transform="rotate(-0 138.2 330.2175)">With vaccination</text>
    </g>
   </g>
  </g>
 </g>
 <defs>
  <clipPath id="pfcde716602">
   <rect x="86.4" y="86.4" width="259.2" height="259.2"/>
  </clipPath>
 </defs>
</svg>
