<?xml version="1.0" encoding="utf-8" standalone="no"?>
<!DOCTYPE svg PUBLIC "-//W3C//DTD SVG 1.1//EN"
  "http://www.w3.org/Graphics/SVG/1.1/DTD/svg11.dtd">
<svg xmlns:xlink="http://www.w3.org/1999/xlink" width="432pt" height="432pt" viewBox="0 0 432 432" xmlns="http://www.w3.org/2000/svg" version="1.1">
 <metadata>
  <rdf:RDF xmlns:dc="http://purl.org/dc/elements/1.1/" xmlns:cc="http://creativecommons.org/ns#" xmlns:rdf="http://www.w3.org/1999/02/22-rdf-syntax-ns#">
   <cc:Work>
    <dc:type rdf:resource="http://purl.org/dc/dcmitype/StillImage"/>
    <dc:date>2025-03-11T08:35:35.788531</dc:date>
    <dc:format>image/svg+xml</dc:format>
    <dc:creator>
     <cc:Agent>
      <dc:title>Matplotlib v3.10.1, https://matplotlib.org/</dc:title>
     </cc:Agent>
    </dc:creator>
   </cc:Work>
  </rdf:RDF>
 </metadata>
 <defs>
  <style type="text/css">*{stroke-linejoin: round; stroke-linecap: butt}</style>
 </defs>
 <g id="figure_1">
  <g id="patch_1">
   <path d="M 0 432 
L 432 432 
L 432 0 
L 0 0 
L 0 432 
z
" style="fill: none"/>
  </g>
  <g id="axes_1">
   <g id="patch_2">
    <path d="M 86.4 345.6 
L 345.6 345.6 
L 345.6 86.4 
L 86.4 86.4 
L 86.4 345.6 
z
" style="fill: none"/>
   </g>
   <g id="matplotlib.axis_1">
    <g id="xtick_1">
     <g id="line2d_1">
      <defs>
       <path id="me265455372" d="M 0 0 
L 0 6 
" style="stroke: #262626; stroke-width: 1.25"/>
      </defs>
      <g>
       <use xlink:href="#me265455372" x="86.4" y="345.6" style="fill: #262626; stroke: #262626; stroke-width: 1.25"/>
      </g>
     </g>
     <g id="text_1">
      <text style="font-size: 16px; font-family: 'Arial', 'DejaVu Sans', 'Liberation Sans', 'Bitstream Vera Sans', sans-serif; text-anchor: middle; fill: #262626" x="86.4" y="366.5525" transform="rotate(-0 86.4 366.5525)">Jan</text>
     </g>
    </g>
    <g id="xtick_2">
     <g id="line2d_2">
      <g>
       <use xlink:href="#me265455372" x="97.407123" y="345.6" style="fill: #262626; stroke: #262626; stroke-width: 1.25"/>
      </g>
     </g>
    </g>
    <g id="xtick_3">
     <g id="line2d_3">
      <g>
       <use xlink:href="#me265455372" x="107.349041" y="345.6" style="fill: #262626; stroke: #262626; stroke-width: 1.25"/>
      </g>
     </g>
    </g>
    <g id="xtick_4">
     <g id="line2d_4">
      <g>
       <use xlink:href="#me265455372" x="118.356164" y="345.6" style="fill: #262626; stroke: #262626; stroke-width: 1.25"/>
      </g>
     </g>
     <g id="text_2">
      <text style="font-size: 16px; font-family: 'Arial', 'DejaVu Sans', 'Liberation Sans', 'Bitstream Vera Sans', sans-serif; text-anchor: middle; fill: #262626" x="118.356164" y="366.5525" transform="rotate(-0 118.356164 366.5525)">Apr</text>
     </g>
    </g>
    <g id="xtick_5">
     <g id="line2d_5">
      <g>
       <use xlink:href="#me265455372" x="129.008219" y="345.6" style="fill: #262626; stroke: #262626; stroke-width: 1.25"/>
      </g>
     </g>
    </g>
    <g id="xtick_6">
     <g id="line2d_6">
      <g>
       <use xlink:href="#me265455372" x="140.015342" y="345.6" style="fill: #262626; stroke: #262626; stroke-width: 1.25"/>
      </g>
     </g>
    </g>
    <g id="xtick_7">
     <g id="line2d_7">
      <g>
       <use xlink:href="#me265455372" x="150.667397" y="345.6" style="fill: #262626; stroke: #262626; stroke-width: 1.25"/>
      </g>
     </g>
     <g id="text_3">
      <text style="font-size: 16px; font-family: 'Arial', 'DejaVu Sans', 'Liberation Sans', 'Bitstream Vera Sans', sans-serif; text-anchor: middle; fill: #262626" x="150.667397" y="366.5525" transform="rotate(-0 150.667397 366.5525)">Jul</text>
     </g>
    </g>
    <g id="xtick_8">
     <g id="line2d_8">
      <g>
       <use xlink:href="#me265455372" x="161.674521" y="345.6" style="fill: #262626; stroke: #262626; stroke-width: 1.25"/>
      </g>
     </g>
    </g>
    <g id="xtick_9">
     <g id="line2d_9">
      <g>
       <use xlink:href="#me265455372" x="172.681644" y="345.6" style="fill: #262626; stroke: #262626; stroke-width: 1.25"/>
      </g>
     </g>
    </g>
    <g id="xtick_10">
     <g id="line2d_10">
      <g>
       <use xlink:href="#me265455372" x="183.333699" y="345.6" style="fill: #262626; stroke: #262626; stroke-width: 1.25"/>
      </g>
     </g>
     <g id="text_4">
      <text style="font-size: 16px; font-family: 'Arial', 'DejaVu Sans', 'Liberation Sans', 'Bitstream Vera Sans', sans-serif; text-anchor: middle; fill: #262626" x="183.333699" y="366.5525" transform="rotate(-0 183.333699 366.5525)">Oct</text>
     </g>
    </g>
    <g id="xtick_11">
     <g id="line2d_11">
      <g>
       <use xlink:href="#me265455372" x="194.340822" y="345.6" style="fill: #262626; stroke: #262626; stroke-width: 1.25"/>
      </g>
     </g>
    </g>
    <g id="xtick_12">
     <g id="line2d_12">
      <g>
       <use xlink:href="#me265455372" x="204.992877" y="345.6" style="fill: #262626; stroke: #262626; stroke-width: 1.25"/>
      </g>
     </g>
    </g>
    <g id="xtick_13">
     <g id="line2d_13">
      <g>
       <use xlink:href="#me265455372" x="216" y="345.6" style="fill: #262626; stroke: #262626; stroke-width: 1.25"/>
      </g>
     </g>
     <g id="text_5">
      <text style="font-size: 16px; font-family: 'Arial', 'DejaVu Sans', 'Liberation Sans', 'Bitstream Vera Sans', sans-serif; text-anchor: middle; fill: #262626" x="216" y="366.5525" transform="rotate(-0 216 366.5525)">Jan</text>
     </g>
    </g>
    <g id="xtick_14">
     <g id="line2d_14">
      <g>
       <use xlink:href="#me265455372" x="227.007123" y="345.6" style="fill: #262626; stroke: #262626; stroke-width: 1.25"/>
      </g>
     </g>
    </g>
    <g id="xtick_15">
     <g id="line2d_15">
      <g>
       <use xlink:href="#me265455372" x="236.949041" y="345.6" style="fill: #262626; stroke: #262626; stroke-width: 1.25"/>
      </g>
     </g>
    </g>
    <g id="xtick_16">
     <g id="line2d_16">
      <g>
       <use xlink:href="#me265455372" x="247.956164" y="345.6" style="fill: #262626; stroke: #262626; stroke-width: 1.25"/>
      </g>
     </g>
     <g id="text_6">
      <text style="font-size: 16px; font-family: 'Arial', 'DejaVu Sans', 'Liberation Sans', 'Bitstream Vera Sans', sans-serif; text-anchor: middle; fill: #262626" x="247.956164" y="366.5525" transform="rotate(-0 247.956164 366.5525)">Apr</text>
     </g>
    </g>
    <g id="xtick_17">
     <g id="line2d_17">
      <g>
       <use xlink:href="#me265455372" x="258.608219" y="345.6" style="fill: #262626; stroke: #262626; stroke-width: 1.25"/>
      </g>
     </g>
    </g>
    <g id="xtick_18">
     <g id="line2d_18">
      <g>
       <use xlink:href="#me265455372" x="269.615342" y="345.6" style="fill: #262626; stroke: #262626; stroke-width: 1.25"/>
      </g>
     </g>
    </g>
    <g id="xtick_19">
     <g id="line2d_19">
      <g>
       <use xlink:href="#me265455372" x="280.267397" y="345.6" style="fill: #262626; stroke: #262626; stroke-width: 1.25"/>
      </g>
     </g>
     <g id="text_7">
      <text style="font-size: 16px; font-family: 'Arial', 'DejaVu Sans', 'Liberation Sans', 'Bitstream Vera Sans', sans-serif; text-anchor: middle; fill: #262626" x="280.267397" y="366.5525" transform="rotate(-0 280.267397 366.5525)">Jul</text>
     </g>
    </g>
    <g id="xtick_20">
     <g id="line2d_20">
      <g>
       <use xlink:href="#me265455372" x="291.274521" y="345.6" style="fill: #262626; stroke: #262626; stroke-width: 1.25"/>
      </g>
     </g>
    </g>
    <g id="xtick_21">
     <g id="line2d_21">
      <g>
       <use xlink:href="#me265455372" x="302.281644" y="345.6" style="fill: #262626; stroke: #262626; stroke-width: 1.25"/>
      </g>
     </g>
    </g>
    <g id="xtick_22">
     <g id="line2d_22">
      <g>
       <use xlink:href="#me265455372" x="312.933699" y="345.6" style="fill: #262626; stroke: #262626; stroke-width: 1.25"/>
      </g>
     </g>
     <g id="text_8">
      <text style="font-size: 16px; font-family: 'Arial', 'DejaVu Sans', 'Liberation Sans', 'Bitstream Vera Sans', sans-serif; text-anchor: middle; fill: #262626" x="312.933699" y="366.5525" transform="rotate(-0 312.933699 366.5525)">Oct</text>
     </g>
    </g>
    <g id="xtick_23">
     <g id="line2d_23">
      <g>
       <use xlink:href="#me265455372" x="323.940822" y="345.6" style="fill: #262626; stroke: #262626; stroke-width: 1.25"/>
      </g>
     </g>
    </g>
    <g id="xtick_24">
     <g id="line2d_24">
      <g>
       <use xlink:href="#me265455372" x="334.592877" y="345.6" style="fill: #262626; stroke: #262626; stroke-width: 1.25"/>
      </g>
     </g>
    </g>
    <g id="xtick_25">
     <g id="line2d_25">
      <g>
       <use xlink:href="#me265455372" x="345.6" y="345.6" style="fill: #262626; stroke: #262626; stroke-width: 1.25"/>
      </g>
     </g>
     <g id="text_9">
      <text style="font-size: 16px; font-family: 'Arial', 'DejaVu Sans', 'Liberation Sans', 'Bitstream Vera Sans', sans-serif; text-anchor: middle; fill: #262626" x="345.6" y="366.5525" transform="rotate(-0 345.6 366.5525)">Jan</text>
     </g>
    </g>
    <g id="text_10">
     <text style="font-size: 16px; font-family: 'Arial', 'DejaVu Sans', 'Liberation Sans', 'Bitstream Vera Sans', sans-serif; text-anchor: middle; fill: #262626" x="216" y="385.185" transform="rotate(-0 216 385.185)"> </text>
    </g>
   </g>
   <g id="matplotlib.axis_2">
    <g id="ytick_1">
     <g id="line2d_26">
      <defs>
       <path id="m88fb590800" d="M 0 0 
L -6 0 
" style="stroke: #262626; stroke-width: 1.25"/>
      </defs>
      <g>
       <use xlink:href="#m88fb590800" x="86.4" y="345.6" style="fill: #262626; stroke: #262626; stroke-width: 1.25"/>
      </g>
     </g>
     <g id="text_11">
      <text style="font-size: 16px; font-family: 'Arial', 'DejaVu Sans', 'Liberation Sans', 'Bitstream Vera Sans', sans-serif; text-anchor: end; fill: #262626" x="76.9" y="351.32625" transform="rotate(-0 76.9 351.32625)">0.0</text>
     </g>
    </g>
    <g id="ytick_2">
     <g id="line2d_27">
      <g>
       <use xlink:href="#m88fb590800" x="86.4" y="293.76" style="fill: #262626; stroke: #262626; stroke-width: 1.25"/>
      </g>
     </g>
     <g id="text_12">
      <text style="font-size: 16px; font-family: 'Arial', 'DejaVu Sans', 'Liberation Sans', 'Bitstream Vera Sans', sans-serif; text-anchor: end; fill: #262626" x="76.9" y="299.48625" transform="rotate(-0 76.9 299.48625)">0.1</text>
     </g>
    </g>
    <g id="ytick_3">
     <g id="line2d_28">
      <g>
       <use xlink:href="#m88fb590800" x="86.4" y="241.92" style="fill: #262626; stroke: #262626; stroke-width: 1.25"/>
      </g>
     </g>
     <g id="text_13">
      <text style="font-size: 16px; font-family: 'Arial', 'DejaVu Sans', 'Liberation Sans', 'Bitstream Vera Sans', sans-serif; text-anchor: end; fill: #262626" x="76.9" y="247.64625" transform="rotate(-0 76.9 247.64625)">0.2</text>
     </g>
    </g>
    <g id="ytick_4">
     <g id="line2d_29">
      <g>
       <use xlink:href="#m88fb590800" x="86.4" y="190.08" style="fill: #262626; stroke: #262626; stroke-width: 1.25"/>
      </g>
     </g>
     <g id="text_14">
      <text style="font-size: 16px; font-family: 'Arial', 'DejaVu Sans', 'Liberation Sans', 'Bitstream Vera Sans', sans-serif; text-anchor: end; fill: #262626" x="76.9" y="195.80625" transform="rotate(-0 76.9 195.80625)">0.3</text>
     </g>
    </g>
    <g id="ytick_5">
     <g id="line2d_30">
      <g>
       <use xlink:href="#m88fb590800" x="86.4" y="138.24" style="fill: #262626; stroke: #262626; stroke-width: 1.25"/>
      </g>
     </g>
     <g id="text_15">
      <text style="font-size: 16px; font-family: 'Arial', 'DejaVu Sans', 'Liberation Sans', 'Bitstream Vera Sans', sans-serif; text-anchor: end; fill: #262626" x="76.9" y="143.96625" transform="rotate(-0 76.9 143.96625)">0.4</text>
     </g>
    </g>
    <g id="ytick_6">
     <g id="line2d_31">
      <g>
       <use xlink:href="#m88fb590800" x="86.4" y="86.4" style="fill: #262626; stroke: #262626; stroke-width: 1.25"/>
      </g>
     </g>
     <g id="text_16">
      <text style="font-size: 16px; font-family: 'Arial', 'DejaVu Sans', 'Liberation Sans', 'Bitstream Vera Sans', sans-serif; text-anchor: end; fill: #262626" x="76.9" y="92.12625" transform="rotate(-0 76.9 92.12625)">0.5</text>
     </g>
    </g>
    <g id="text_17">
     <text style="font-size: 16px; font-family: 'Arial', 'DejaVu Sans', 'Liberation Sans', 'Bitstream Vera Sans', sans-serif; text-anchor: middle; fill: #262626" x="47.48" y="216" transform="rotate(-90 47.48 216)">Outbreak risk</text>
    </g>
   </g>
   <g id="FillBetweenPolyCollection_1">
    <defs>
     <path id="m9317ad2b2d" d="M 210.318904 -86.4 
L 183.333699 -86.4 
L 183.333699 -345.6 
L 210.318904 -345.6 
L 210.318904 -345.6 
L 210.318904 -86.4 
z
"/>
    </defs>
    <g clip-path="url(#p2cdc03e678)">
     <use xlink:href="#m9317ad2b2d" x="0" y="432" style="fill: #808080; fill-opacity: 0.5"/>
    </g>
   </g>
   <g id="FillBetweenPolyCollection_2">
    <defs>
     <path id="m4a617bea4a" d="M 339.918904 -86.4 
L 312.933699 -86.4 
L 312.933699 -345.6 
L 339.918904 -345.6 
L 339.918904 -345.6 
L 339.918904 -86.4 
z
"/>
    </defs>
    <g clip-path="url(#p2cdc03e678)">
     <use xlink:href="#m4a617bea4a" x="0" y="432" style="fill: #808080; fill-opacity: 0.5"/>
    </g>
   </g>
   <g id="line2d_32">
    <path d="M 86.4 164.427932 
L 88.530411 163.500436 
L 90.660822 162.848871 
L 92.436164 162.516692 
L 94.211507 162.375786 
L 95.986849 162.425355 
L 97.762192 162.664135 
L 99.892603 163.197763 
L 102.023014 163.996396 
L 104.153425 165.053407 
L 106.283836 166.360004 
L 108.414247 167.904694 
L 110.899726 169.98795 
L 113.740274 172.702917 
L 116.93589 176.114872 
L 120.841644 180.651904 
L 130.073425 191.537323 
L 132.913973 194.442689 
L 135.044384 196.337837 
L 137.174795 197.928675 
L 138.950137 198.985599 
L 140.725479 199.770797 
L 142.145753 200.188705 
L 143.566027 200.40984 
L 144.986301 200.427289 
L 146.406575 200.236235 
L 147.826849 199.834071 
L 149.247123 199.220334 
L 150.667397 198.39678 
L 152.44274 197.078322 
L 154.218082 195.450006 
L 155.993425 193.528061 
L 158.123836 190.862721 
L 160.254247 187.84462 
L 162.739726 183.939311 
L 165.580274 179.066623 
L 169.486027 171.870284 
L 180.848219 150.539503 
L 182.268493 148.386816 
L 183.333699 147.192048 
L 184.043836 146.784221 
L 184.753973 146.778052 
L 186.884384 147.152939 
L 189.014795 147.751048 
L 191.145205 148.585825 
L 193.275616 149.679669 
L 195.406027 151.053181 
L 197.536438 152.725127 
L 199.666849 154.712015 
L 201.79726 157.025215 
L 203.927671 159.660159 
L 207.123288 164.040677 
L 208.89863 166.315653 
L 209.963836 167.284611 
L 210.673973 167.563603 
L 211.029041 167.52343 
L 211.739178 167.09286 
L 214.224658 165.411166 
L 216.355068 164.254199 
L 218.485479 163.37268 
L 220.61589 162.767107 
L 222.391233 162.473228 
L 224.166575 162.370496 
L 225.941918 162.458026 
L 227.71726 162.734443 
L 229.847671 163.31262 
L 231.978082 164.154831 
L 234.108493 165.254111 
L 236.238904 166.601278 
L 238.724384 168.470043 
L 241.209863 170.635053 
L 244.050411 173.431351 
L 247.246027 176.915114 
L 251.506849 181.931332 
L 258.963288 190.757489 
L 261.803836 193.752704 
L 264.289315 196.041679 
L 266.419726 197.686872 
L 268.195068 198.795188 
L 269.970411 199.636591 
L 271.390685 200.102357 
L 272.810959 200.373414 
L 274.231233 200.442323 
L 275.651507 200.303726 
L 277.071781 199.954469 
L 278.492055 199.393541 
L 279.912329 198.622165 
L 281.687671 197.367245 
L 283.463014 195.799741 
L 285.238356 193.935026 
L 287.368767 191.332616 
L 289.499178 188.370233 
L 291.984658 184.519818 
L 294.825205 179.695701 
L 298.37589 173.209267 
L 305.122192 160.287487 
L 309.383014 152.362025 
L 311.158356 149.409159 
L 312.223562 147.933149 
L 312.933699 147.192048 
L 313.643836 146.784221 
L 314.353973 146.778052 
L 316.484384 147.152939 
L 318.614795 147.751048 
L 320.745205 148.585825 
L 322.875616 149.679669 
L 325.006027 151.053181 
L 327.136438 152.725127 
L 329.266849 154.712015 
L 331.39726 157.025215 
L 333.527671 159.660159 
L 336.723288 164.040677 
L 338.49863 166.315653 
L 339.563836 167.284611 
L 340.273973 167.563603 
L 340.629041 167.52343 
L 341.339178 167.09286 
L 343.824658 165.411166 
L 345.244932 164.609317 
L 345.244932 164.609317 
" clip-path="url(#p2cdc03e678)" style="fill: none; stroke: #de8f05; stroke-width: 2; stroke-linecap: round"/>
   </g>
   <g id="line2d_33">
    <path d="M 86.4 203.809891 
L 88.530411 201.500342 
L 90.660822 199.494147 
L 92.791233 197.794145 
L 94.921644 196.402112 
L 96.696986 195.477712 
L 98.472329 194.766952 
L 100.247671 194.268401 
L 102.023014 193.979451 
L 103.798356 193.896329 
L 105.573699 194.014015 
L 107.349041 194.325925 
L 109.479452 194.944786 
L 111.609863 195.813464 
L 113.740274 196.909957 
L 116.225753 198.441095 
L 119.066301 200.459901 
L 122.972055 203.538346 
L 129.363288 208.60943 
L 132.203836 210.548409 
L 134.334247 211.755563 
L 136.464658 212.689332 
L 138.24 213.221838 
L 140.015342 213.503242 
L 141.435616 213.532599 
L 142.85589 213.377722 
L 144.276164 213.03125 
L 145.696438 212.487887 
L 147.116712 211.744468 
L 148.892055 210.532435 
L 150.667397 209.008857 
L 152.44274 207.18129 
L 154.218082 205.061952 
L 156.348493 202.157024 
L 158.478904 198.891275 
L 160.964384 194.681171 
L 163.804932 189.433562 
L 167.355616 182.394848 
L 173.746849 169.096645 
L 178.717808 158.968643 
L 180.848219 155.078185 
L 181.913425 153.458432 
L 182.623562 152.62349 
L 183.333699 152.111902 
L 183.688767 152.032047 
L 184.043836 152.117342 
L 184.753973 152.744915 
L 186.529315 154.815281 
L 188.659726 157.656711 
L 190.790137 160.908573 
L 192.920548 164.617797 
L 195.050959 168.833675 
L 197.18137 173.607088 
L 199.311781 178.985892 
L 201.442192 184.997684 
L 203.927671 192.74751 
L 207.833425 205.190055 
L 208.89863 207.904526 
L 209.608767 209.263221 
L 210.318904 210.078784 
L 210.673973 210.216422 
L 211.029041 210.117356 
L 211.739178 209.296834 
L 214.934795 205.07726 
L 217.420274 202.236659 
L 219.550685 200.128951 
L 221.681096 198.32666 
L 223.811507 196.831856 
L 225.941918 195.645469 
L 227.71726 194.892055 
L 229.492603 194.351244 
L 231.267945 194.020639 
L 233.043288 193.896707 
L 234.81863 193.974705 
L 236.593973 194.248379 
L 238.724384 194.823766 
L 240.854795 195.65222 
L 242.985205 196.712464 
L 245.470685 198.207441 
L 248.311233 200.19465 
L 252.216986 203.250241 
L 258.963288 208.60943 
L 261.803836 210.548409 
L 263.934247 211.755563 
L 266.064658 212.689332 
L 267.84 213.221838 
L 269.615342 213.503242 
L 271.035616 213.532599 
L 272.45589 213.377722 
L 273.876164 213.03125 
L 275.296438 212.487887 
L 276.716712 211.744468 
L 278.492055 210.532435 
L 280.267397 209.008857 
L 282.04274 207.18129 
L 283.818082 205.061952 
L 285.948493 202.157024 
L 288.078904 198.891275 
L 290.564384 194.681171 
L 293.404932 189.433562 
L 296.955616 182.394848 
L 303.346849 169.096645 
L 308.317808 158.968643 
L 310.448219 155.078185 
L 311.513425 153.458432 
L 312.223562 152.62349 
L 312.933699 152.111902 
L 313.288767 152.032047 
L 313.643836 152.117342 
L 314.353973 152.744915 
L 316.129315 154.815281 
L 318.259726 157.656711 
L 320.390137 160.908573 
L 322.520548 164.617797 
L 324.650959 168.833675 
L 326.78137 173.607088 
L 328.911781 178.985892 
L 331.042192 184.997684 
L 333.527671 192.74751 
L 337.433425 205.190055 
L 338.49863 207.904526 
L 339.208767 209.263221 
L 339.918904 210.078784 
L 340.273973 210.216422 
L 340.629041 210.117356 
L 341.339178 209.296834 
L 344.534795 205.07726 
L 345.244932 204.224071 
L 345.244932 204.224071 
" clip-path="url(#p2cdc03e678)" style="fill: none; stroke: #0173b2; stroke-width: 2; stroke-linecap: round"/>
   </g>
   <g id="line2d_34">
    <path d="M 86.4 112.683727 
L 88.530411 113.022938 
L 90.660822 113.621576 
L 92.791233 114.478824 
L 94.921644 115.593162 
L 97.052055 116.962244 
L 99.182466 118.582724 
L 101.667945 120.784854 
L 104.153425 123.313058 
L 106.638904 126.154079 
L 109.479452 129.761358 
L 112.32 133.719846 
L 115.515616 138.536436 
L 119.42137 144.825917 
L 131.848767 165.21522 
L 134.689315 169.252375 
L 137.174795 172.369931 
L 139.305205 174.666584 
L 141.080548 176.279266 
L 142.85589 177.593063 
L 144.631233 178.589043 
L 146.051507 179.147422 
L 147.471781 179.488628 
L 148.892055 179.610195 
L 150.312329 179.511924 
L 151.732603 179.195848 
L 153.152877 178.666147 
L 154.573151 177.929026 
L 156.348493 176.728396 
L 158.123836 175.235798 
L 159.899178 173.474081 
L 162.029589 171.041012 
L 164.515068 167.823699 
L 167.355616 163.746232 
L 170.906301 158.227275 
L 178.36274 146.058046 
L 182.97863 138.754674 
L 186.529315 133.512906 
L 189.724932 129.177686 
L 192.565479 125.681002 
L 195.406027 122.555662 
L 197.891507 120.146362 
L 200.376986 118.055097 
L 202.507397 116.523788 
L 204.637808 115.239119 
L 206.768219 114.205164 
L 208.89863 113.42507 
L 211.029041 112.901206 
L 213.159452 112.635268 
L 215.289863 112.628359 
L 217.420274 112.881021 
L 219.550685 113.393242 
L 221.681096 114.164418 
L 223.811507 115.193276 
L 225.941918 116.477763 
L 228.072329 118.014885 
L 230.20274 119.800513 
L 232.688219 122.190378 
L 235.173699 124.899209 
L 238.014247 128.365413 
L 240.854795 132.196859 
L 244.050411 136.892574 
L 247.956164 143.076104 
L 253.63726 152.566324 
L 259.318356 161.93216 
L 262.513973 166.780677 
L 264.999452 170.186874 
L 267.129863 172.778331 
L 269.260274 175.01197 
L 271.035616 176.566609 
L 272.810959 177.818206 
L 274.231233 178.589043 
L 275.651507 179.147422 
L 277.071781 179.488628 
L 278.492055 179.610195 
L 279.912329 179.511924 
L 281.332603 179.195848 
L 282.752877 178.666147 
L 284.173151 177.929026 
L 285.948493 176.728396 
L 287.723836 175.235798 
L 289.499178 173.474081 
L 291.629589 171.041012 
L 294.115068 167.823699 
L 296.955616 163.746232 
L 300.506301 158.227275 
L 307.96274 146.058046 
L 312.57863 138.754674 
L 316.129315 133.512906 
L 319.324932 129.177686 
L 322.165479 125.681002 
L 325.006027 122.555662 
L 327.491507 120.146362 
L 329.976986 118.055097 
L 332.107397 116.523788 
L 334.237808 115.239119 
L 336.368219 114.205164 
L 338.49863 113.42507 
L 340.629041 112.901206 
L 342.759452 112.635268 
L 344.889863 112.628359 
L 345.244932 112.652436 
L 345.244932 112.652436 
" clip-path="url(#p2cdc03e678)" style="fill: none; stroke-dasharray: 7.4,3.2; stroke-dashoffset: 0; stroke: #1a1a1a; stroke-opacity: 0.75; stroke-width: 2"/>
   </g>
   <g id="line2d_35">
    <path d="M 86.4 259.364498 
L 89.240548 253.106039 
L 91.726027 248.145282 
L 94.211507 243.692291 
L 96.341918 240.292529 
L 98.472329 237.284274 
L 100.60274 234.669232 
L 102.733151 232.444696 
L 104.508493 230.884218 
L 106.283836 229.583841 
L 108.059178 228.534958 
L 109.834521 227.726541 
L 111.609863 227.145511 
L 113.385205 226.776227 
L 115.515616 226.586692 
L 117.646027 226.639456 
L 120.131507 226.951369 
L 122.972055 227.545433 
L 132.203836 229.675511 
L 134.334247 229.85868 
L 136.464658 229.804318 
L 138.24 229.540878 
L 140.015342 229.051694 
L 141.790685 228.315131 
L 143.566027 227.313817 
L 145.34137 226.035209 
L 147.116712 224.471704 
L 148.892055 222.620668 
L 150.667397 220.484449 
L 152.797808 217.554998 
L 154.928219 214.246415 
L 157.413699 209.9468 
L 160.254247 204.526362 
L 163.449863 197.90742 
L 167.710685 188.499044 
L 178.717808 163.878283 
L 180.493151 160.461165 
L 181.558356 158.766799 
L 182.268493 157.919328 
L 182.97863 157.44006 
L 183.333699 157.397144 
L 183.688767 157.530713 
L 184.043836 157.893797 
L 184.753973 159.257573 
L 186.529315 163.437131 
L 188.304658 168.127969 
L 190.08 173.38105 
L 191.855342 179.28636 
L 193.630685 185.95535 
L 195.406027 193.521801 
L 197.18137 202.130371 
L 198.956712 211.894093 
L 201.087123 225.100032 
L 206.413151 259.497246 
L 207.478356 264.771404 
L 208.543562 268.817675 
L 209.253699 270.667035 
L 209.963836 271.700936 
L 210.318904 271.867477 
L 210.673973 271.770518 
L 211.029041 271.367774 
L 211.739178 269.780884 
L 215.644932 260.188706 
L 218.485479 253.854815 
L 220.970959 248.823355 
L 223.456438 244.296618 
L 225.586849 240.832075 
L 227.71726 237.758319 
L 229.847671 235.077849 
L 231.978082 232.788583 
L 233.753425 231.175279 
L 235.528767 229.823497 
L 237.30411 228.725103 
L 239.079452 227.869583 
L 240.854795 227.244252 
L 242.630137 226.833966 
L 244.405479 226.621066 
L 246.53589 226.597417 
L 248.666301 226.788888 
L 251.151781 227.223636 
L 254.702466 228.085456 
L 260.028493 229.381462 
L 262.513973 229.759614 
L 264.644384 229.869566 
L 266.419726 229.768513 
L 268.195068 229.461856 
L 269.970411 228.924787 
L 271.745753 228.136527 
L 273.521096 227.080596 
L 275.296438 225.745453 
L 277.071781 224.124507 
L 278.847123 222.216079 
L 280.977534 219.551562 
L 283.107945 216.49298 
L 285.238356 213.064155 
L 287.723836 208.638913 
L 290.564384 203.098079 
L 293.76 196.377145 
L 298.37589 186.084696 
L 307.607671 165.355477 
L 309.738082 161.100154 
L 311.158356 158.766799 
L 311.868493 157.919328 
L 312.57863 157.44006 
L 312.933699 157.397144 
L 313.288767 157.530713 
L 313.643836 157.893797 
L 314.353973 159.257573 
L 316.129315 163.437131 
L 317.904658 168.127969 
L 319.68 173.38105 
L 321.455342 179.28636 
L 323.230685 185.95535 
L 325.006027 193.521801 
L 326.78137 202.130371 
L 328.556712 211.894093 
L 330.687123 225.100032 
L 336.013151 259.497246 
L 337.078356 264.771404 
L 338.143562 268.817675 
L 338.853699 270.667035 
L 339.563836 271.700936 
L 339.918904 271.867477 
L 340.273973 271.770518 
L 340.629041 271.367774 
L 341.339178 269.780884 
L 345.244932 260.188706 
L 345.244932 260.188706 
" clip-path="url(#p2cdc03e678)" style="fill: none; stroke: #029e73; stroke-width: 2; stroke-linecap: round"/>
   </g>
   <g id="patch_3">
    <path d="M 86.4 345.6 
L 86.4 86.4 
" style="fill: none; stroke: #262626; stroke-width: 1.25; stroke-linejoin: miter; stroke-linecap: square"/>
   </g>
   <g id="patch_4">
    <path d="M 86.4 345.6 
L 345.6 345.6 
" style="fill: none; stroke: #262626; stroke-width: 1.25; stroke-linejoin: miter; stroke-linecap: square"/>
   </g>
   <g id="legend_1">
    <g id="patch_5">
     <path d="M 246.9 338.6 
L 335.8 338.6 
Q 338.6 338.6 338.6 335.8 
L 338.6 277.789688 
Q 338.6 274.989688 335.8 274.989688 
L 246.9 274.989688 
Q 244.1 274.989688 244.1 277.789688 
L 244.1 335.8 
Q 244.1 338.6 246.9 338.6 
z
" style="fill: #ffffff; opacity: 0.8; stroke: #cccccc; stroke-linejoin: miter"/>
    </g>
    <g id="line2d_36">
     <path d="M 249.7 285.710625 
L 263.7 285.710625 
L 277.7 285.710625 
" style="fill: none; stroke: #de8f05; stroke-width: 2; stroke-linecap: round"/>
    </g>
    <g id="text_18">
     <!-- $\theta$ = 0.4 -->
     <g style="fill: #262626" transform="translate(288.9 290.610625)">
      <text>
       <tspan x="0" y="-0.25" style="font-style: oblique; font-size: 14px; font-family: 'DejaVu Sans'; fill: #262626">θ</tspan>
       <tspan x="8.56543" y="-0.25" style="font-size: 14px; font-family: 'Arial'; fill: #262626"> </tspan>
       <tspan x="12.455078" y="-0.25" style="font-size: 14px; font-family: 'Arial'; fill: #262626">=</tspan>
       <tspan x="20.630859" y="-0.25" style="font-size: 14px; font-family: 'Arial'; fill: #262626"> </tspan>
       <tspan x="24.520508" y="-0.25" style="font-size: 14px; font-family: 'Arial'; fill: #262626">0</tspan>
       <tspan x="32.306641" y="-0.25" style="font-size: 14px; font-family: 'Arial'; fill: #262626">.</tspan>
       <tspan x="36.196289" y="-0.25" style="font-size: 14px; font-family: 'Arial'; fill: #262626">4</tspan>
      </text>
     </g>
    </g>
    <g id="line2d_37">
     <path d="M 249.7 305.514063 
L 263.7 305.514063 
L 277.7 305.514063 
" style="fill: none; stroke: #0173b2; stroke-width: 2; stroke-linecap: round"/>
    </g>
    <g id="text_19">
     <!-- $\theta$ = 0.6 -->
     <g style="fill: #262626" transform="translate(288.9 310.414062)">
      <text>
       <tspan x="0" y="-0.25" style="font-style: oblique; font-size: 14px; font-family: 'DejaVu Sans'; fill: #262626">θ</tspan>
       <tspan x="8.56543" y="-0.25" style="font-size: 14px; font-family: 'Arial'; fill: #262626"> </tspan>
       <tspan x="12.455078" y="-0.25" style="font-size: 14px; font-family: 'Arial'; fill: #262626">=</tspan>
       <tspan x="20.630859" y="-0.25" style="font-size: 14px; font-family: 'Arial'; fill: #262626"> </tspan>
       <tspan x="24.520508" y="-0.25" style="font-size: 14px; font-family: 'Arial'; fill: #262626">0</tspan>
       <tspan x="32.306641" y="-0.25" style="font-size: 14px; font-family: 'Arial'; fill: #262626">.</tspan>
       <tspan x="36.196289" y="-0.25" style="font-size: 14px; font-family: 'Arial'; fill: #262626">6</tspan>
      </text>
     </g>
    </g>
    <g id="line2d_38">
     <path d="M 249.7 325.3175 
L 263.7 325.3175 
L 277.7 325.3175 
" style="fill: none; stroke: #029e73; stroke-width: 2; stroke-linecap: round"/>
    </g>
    <g id="text_20">
     <!-- $\theta$ = 0.8 -->
     <g style="fill: #262626" transform="translate(288.9 330.2175)">
      <text>
       <tspan x="0" y="-0.25" style="font-style: oblique; font-size: 14px; font-family: 'DejaVu Sans'; fill: #262626">θ</tspan>
       <tspan x="8.56543" y="-0.25" style="font-size: 14px; font-family: 'Arial'; fill: #262626"> </tspan>
       <tspan x="12.455078" y="-0.25" style="font-size: 14px; font-family: 'Arial'; fill: #262626">=</tspan>
       <tspan x="20.630859" y="-0.25" style="font-size: 14px; font-family: 'Arial'; fill: #262626"> </tspan>
       <tspan x="24.520508" y="-0.25" style="font-size: 14px; font-family: 'Arial'; fill: #262626">0</tspan>
       <tspan x="32.306641" y="-0.25" style="font-size: 14px; font-family: 'Arial'; fill: #262626">.</tspan>
       <tspan x="36.196289" y="-0.25" style="font-size: 14px; font-family: 'Arial'; fill: #262626">8</tspan>
      </text>
     </g>
    </g>
   </g>
  </g>
 </g>
 <defs>
  <clipPath id="p2cdc03e678">
   <rect x="86.4" y="86.4" width="259.2" height="259.2"/>
  </clipPath>
 </defs>
</svg>
