<?xml version="1.0" encoding="utf-8" standalone="no"?>
<!DOCTYPE svg PUBLIC "-//W3C//DTD SVG 1.1//EN"
  "http://www.w3.org/Graphics/SVG/1.1/DTD/svg11.dtd">
<svg xmlns:xlink="http://www.w3.org/1999/xlink" width="432pt" height="432pt" viewBox="0 0 432 432" xmlns="http://www.w3.org/2000/svg" version="1.1">
 <metadata>
  <rdf:RDF xmlns:dc="http://purl.org/dc/elements/1.1/" xmlns:cc="http://creativecommons.org/ns#" xmlns:rdf="http://www.w3.org/1999/02/22-rdf-syntax-ns#">
   <cc:Work>
    <dc:type rdf:resource="http://purl.org/dc/dcmitype/StillImage"/>
    <dc:date>2024-06-21T17:57:42.047080</dc:date>
    <dc:format>image/svg+xml</dc:format>
    <dc:creator>
     <cc:Agent>
      <dc:title>Matplotlib v3.8.4, https://matplotlib.org/</dc:title>
     </cc:Agent>
    </dc:creator>
   </cc:Work>
  </rdf:RDF>
 </metadata>
 <defs>
  <style type="text/css">*{stroke-linejoin: round; stroke-linecap: butt}</style>
 </defs>
 <g id="figure_1">
  <g id="patch_1">
   <path d="M 0 432 
L 432 432 
L 432 0 
L 0 0 
L 0 432 
z
" style="fill: none"/>
  </g>
  <g id="axes_1">
   <g id="patch_2">
    <path d="M 86.4 345.6 
L 345.6 345.6 
L 345.6 86.4 
L 86.4 86.4 
L 86.4 345.6 
z
" style="fill: none"/>
   </g>
   <g id="matplotlib.axis_1">
    <g id="xtick_1">
     <g id="line2d_1">
      <defs>
       <path id="m54a5e45230" d="M 0 0 
L 0 6 
" style="stroke: #262626; stroke-width: 1.25"/>
      </defs>
      <g>
       <use xlink:href="#m54a5e45230" x="86.4" y="345.6" style="fill: #262626; stroke: #262626; stroke-width: 1.25"/>
      </g>
     </g>
     <g id="text_1">
      <text style="fill: #262626; font: 16px 'Arial', 'DejaVu Sans', 'Liberation Sans', 'Bitstream Vera Sans', sans-serif; text-anchor: middle" x="86.4" y="366.5525" transform="rotate(-0 86.4 366.5525)">Jan</text>
     </g>
    </g>
    <g id="xtick_2">
     <g id="line2d_2">
      <g>
       <use xlink:href="#m54a5e45230" x="97.2" y="345.6" style="fill: #262626; stroke: #262626; stroke-width: 1.25"/>
      </g>
     </g>
    </g>
    <g id="xtick_3">
     <g id="line2d_3">
      <g>
       <use xlink:href="#m54a5e45230" x="108" y="345.6" style="fill: #262626; stroke: #262626; stroke-width: 1.25"/>
      </g>
     </g>
    </g>
    <g id="xtick_4">
     <g id="line2d_4">
      <g>
       <use xlink:href="#m54a5e45230" x="118.8" y="345.6" style="fill: #262626; stroke: #262626; stroke-width: 1.25"/>
      </g>
     </g>
     <g id="text_2">
      <text style="fill: #262626; font: 16px 'Arial', 'DejaVu Sans', 'Liberation Sans', 'Bitstream Vera Sans', sans-serif; text-anchor: middle" x="118.8" y="366.5525" transform="rotate(-0 118.8 366.5525)">Apr</text>
     </g>
    </g>
    <g id="xtick_5">
     <g id="line2d_5">
      <g>
       <use xlink:href="#m54a5e45230" x="129.6" y="345.6" style="fill: #262626; stroke: #262626; stroke-width: 1.25"/>
      </g>
     </g>
    </g>
    <g id="xtick_6">
     <g id="line2d_6">
      <g>
       <use xlink:href="#m54a5e45230" x="140.4" y="345.6" style="fill: #262626; stroke: #262626; stroke-width: 1.25"/>
      </g>
     </g>
    </g>
    <g id="xtick_7">
     <g id="line2d_7">
      <g>
       <use xlink:href="#m54a5e45230" x="151.2" y="345.6" style="fill: #262626; stroke: #262626; stroke-width: 1.25"/>
      </g>
     </g>
     <g id="text_3">
      <text style="fill: #262626; font: 16px 'Arial', 'DejaVu Sans', 'Liberation Sans', 'Bitstream Vera Sans', sans-serif; text-anchor: middle" x="151.2" y="366.5525" transform="rotate(-0 151.2 366.5525)">Jul</text>
     </g>
    </g>
    <g id="xtick_8">
     <g id="line2d_8">
      <g>
       <use xlink:href="#m54a5e45230" x="162" y="345.6" style="fill: #262626; stroke: #262626; stroke-width: 1.25"/>
      </g>
     </g>
    </g>
    <g id="xtick_9">
     <g id="line2d_9">
      <g>
       <use xlink:href="#m54a5e45230" x="172.8" y="345.6" style="fill: #262626; stroke: #262626; stroke-width: 1.25"/>
      </g>
     </g>
    </g>
    <g id="xtick_10">
     <g id="line2d_10">
      <g>
       <use xlink:href="#m54a5e45230" x="183.6" y="345.6" style="fill: #262626; stroke: #262626; stroke-width: 1.25"/>
      </g>
     </g>
     <g id="text_4">
      <text style="fill: #262626; font: 16px 'Arial', 'DejaVu Sans', 'Liberation Sans', 'Bitstream Vera Sans', sans-serif; text-anchor: middle" x="183.6" y="366.5525" transform="rotate(-0 183.6 366.5525)">Oct</text>
     </g>
    </g>
    <g id="xtick_11">
     <g id="line2d_11">
      <g>
       <use xlink:href="#m54a5e45230" x="194.4" y="345.6" style="fill: #262626; stroke: #262626; stroke-width: 1.25"/>
      </g>
     </g>
    </g>
    <g id="xtick_12">
     <g id="line2d_12">
      <g>
       <use xlink:href="#m54a5e45230" x="205.2" y="345.6" style="fill: #262626; stroke: #262626; stroke-width: 1.25"/>
      </g>
     </g>
    </g>
    <g id="xtick_13">
     <g id="line2d_13">
      <g>
       <use xlink:href="#m54a5e45230" x="216" y="345.6" style="fill: #262626; stroke: #262626; stroke-width: 1.25"/>
      </g>
     </g>
     <g id="text_5">
      <text style="fill: #262626; font: 16px 'Arial', 'DejaVu Sans', 'Liberation Sans', 'Bitstream Vera Sans', sans-serif; text-anchor: middle" x="216" y="366.5525" transform="rotate(-0 216 366.5525)">Jan</text>
     </g>
    </g>
    <g id="xtick_14">
     <g id="line2d_14">
      <g>
       <use xlink:href="#m54a5e45230" x="226.8" y="345.6" style="fill: #262626; stroke: #262626; stroke-width: 1.25"/>
      </g>
     </g>
    </g>
    <g id="xtick_15">
     <g id="line2d_15">
      <g>
       <use xlink:href="#m54a5e45230" x="237.6" y="345.6" style="fill: #262626; stroke: #262626; stroke-width: 1.25"/>
      </g>
     </g>
    </g>
    <g id="xtick_16">
     <g id="line2d_16">
      <g>
       <use xlink:href="#m54a5e45230" x="248.4" y="345.6" style="fill: #262626; stroke: #262626; stroke-width: 1.25"/>
      </g>
     </g>
     <g id="text_6">
      <text style="fill: #262626; font: 16px 'Arial', 'DejaVu Sans', 'Liberation Sans', 'Bitstream Vera Sans', sans-serif; text-anchor: middle" x="248.4" y="366.5525" transform="rotate(-0 248.4 366.5525)">Apr</text>
     </g>
    </g>
    <g id="xtick_17">
     <g id="line2d_17">
      <g>
       <use xlink:href="#m54a5e45230" x="259.2" y="345.6" style="fill: #262626; stroke: #262626; stroke-width: 1.25"/>
      </g>
     </g>
    </g>
    <g id="xtick_18">
     <g id="line2d_18">
      <g>
       <use xlink:href="#m54a5e45230" x="270" y="345.6" style="fill: #262626; stroke: #262626; stroke-width: 1.25"/>
      </g>
     </g>
    </g>
    <g id="xtick_19">
     <g id="line2d_19">
      <g>
       <use xlink:href="#m54a5e45230" x="280.8" y="345.6" style="fill: #262626; stroke: #262626; stroke-width: 1.25"/>
      </g>
     </g>
     <g id="text_7">
      <text style="fill: #262626; font: 16px 'Arial', 'DejaVu Sans', 'Liberation Sans', 'Bitstream Vera Sans', sans-serif; text-anchor: middle" x="280.8" y="366.5525" transform="rotate(-0 280.8 366.5525)">Jul</text>
     </g>
    </g>
    <g id="xtick_20">
     <g id="line2d_20">
      <g>
       <use xlink:href="#m54a5e45230" x="291.6" y="345.6" style="fill: #262626; stroke: #262626; stroke-width: 1.25"/>
      </g>
     </g>
    </g>
    <g id="xtick_21">
     <g id="line2d_21">
      <g>
       <use xlink:href="#m54a5e45230" x="302.4" y="345.6" style="fill: #262626; stroke: #262626; stroke-width: 1.25"/>
      </g>
     </g>
    </g>
    <g id="xtick_22">
     <g id="line2d_22">
      <g>
       <use xlink:href="#m54a5e45230" x="313.2" y="345.6" style="fill: #262626; stroke: #262626; stroke-width: 1.25"/>
      </g>
     </g>
     <g id="text_8">
      <text style="fill: #262626; font: 16px 'Arial', 'DejaVu Sans', 'Liberation Sans', 'Bitstream Vera Sans', sans-serif; text-anchor: middle" x="313.2" y="366.5525" transform="rotate(-0 313.2 366.5525)">Oct</text>
     </g>
    </g>
    <g id="xtick_23">
     <g id="line2d_23">
      <g>
       <use xlink:href="#m54a5e45230" x="324" y="345.6" style="fill: #262626; stroke: #262626; stroke-width: 1.25"/>
      </g>
     </g>
    </g>
    <g id="xtick_24">
     <g id="line2d_24">
      <g>
       <use xlink:href="#m54a5e45230" x="334.8" y="345.6" style="fill: #262626; stroke: #262626; stroke-width: 1.25"/>
      </g>
     </g>
    </g>
    <g id="xtick_25">
     <g id="line2d_25">
      <g>
       <use xlink:href="#m54a5e45230" x="345.6" y="345.6" style="fill: #262626; stroke: #262626; stroke-width: 1.25"/>
      </g>
     </g>
     <g id="text_9">
      <text style="fill: #262626; font: 16px 'Arial', 'DejaVu Sans', 'Liberation Sans', 'Bitstream Vera Sans', sans-serif; text-anchor: middle" x="345.6" y="366.5525" transform="rotate(-0 345.6 366.5525)">Jan</text>
     </g>
    </g>
    <g id="text_10">
     <text style="fill: #262626; font: 16px 'Arial', 'DejaVu Sans', 'Liberation Sans', 'Bitstream Vera Sans', sans-serif; text-anchor: middle" x="216" y="385.185" transform="rotate(-0 216 385.185)"> </text>
    </g>
   </g>
   <g id="matplotlib.axis_2">
    <g id="ytick_1">
     <g id="line2d_26">
      <defs>
       <path id="m8890c3c8b3" d="M 0 0 
L -6 0 
" style="stroke: #262626; stroke-width: 1.25"/>
      </defs>
      <g>
       <use xlink:href="#m8890c3c8b3" x="86.4" y="345.6" style="fill: #262626; stroke: #262626; stroke-width: 1.25"/>
      </g>
     </g>
     <g id="text_11">
      <text style="fill: #262626; font: 16px 'Arial', 'DejaVu Sans', 'Liberation Sans', 'Bitstream Vera Sans', sans-serif; text-anchor: end" x="76.9" y="351.32625" transform="rotate(-0 76.9 351.32625)">0.0</text>
     </g>
    </g>
    <g id="ytick_2">
     <g id="line2d_27">
      <g>
       <use xlink:href="#m8890c3c8b3" x="86.4" y="293.76" style="fill: #262626; stroke: #262626; stroke-width: 1.25"/>
      </g>
     </g>
     <g id="text_12">
      <text style="fill: #262626; font: 16px 'Arial', 'DejaVu Sans', 'Liberation Sans', 'Bitstream Vera Sans', sans-serif; text-anchor: end" x="76.9" y="299.48625" transform="rotate(-0 76.9 299.48625)">0.1</text>
     </g>
    </g>
    <g id="ytick_3">
     <g id="line2d_28">
      <g>
       <use xlink:href="#m8890c3c8b3" x="86.4" y="241.92" style="fill: #262626; stroke: #262626; stroke-width: 1.25"/>
      </g>
     </g>
     <g id="text_13">
      <text style="fill: #262626; font: 16px 'Arial', 'DejaVu Sans', 'Liberation Sans', 'Bitstream Vera Sans', sans-serif; text-anchor: end" x="76.9" y="247.64625" transform="rotate(-0 76.9 247.64625)">0.2</text>
     </g>
    </g>
    <g id="ytick_4">
     <g id="line2d_29">
      <g>
       <use xlink:href="#m8890c3c8b3" x="86.4" y="190.08" style="fill: #262626; stroke: #262626; stroke-width: 1.25"/>
      </g>
     </g>
     <g id="text_14">
      <text style="fill: #262626; font: 16px 'Arial', 'DejaVu Sans', 'Liberation Sans', 'Bitstream Vera Sans', sans-serif; text-anchor: end" x="76.9" y="195.80625" transform="rotate(-0 76.9 195.80625)">0.3</text>
     </g>
    </g>
    <g id="ytick_5">
     <g id="line2d_30">
      <g>
       <use xlink:href="#m8890c3c8b3" x="86.4" y="138.24" style="fill: #262626; stroke: #262626; stroke-width: 1.25"/>
      </g>
     </g>
     <g id="text_15">
      <text style="fill: #262626; font: 16px 'Arial', 'DejaVu Sans', 'Liberation Sans', 'Bitstream Vera Sans', sans-serif; text-anchor: end" x="76.9" y="143.96625" transform="rotate(-0 76.9 143.96625)">0.4</text>
     </g>
    </g>
    <g id="ytick_6">
     <g id="line2d_31">
      <g>
       <use xlink:href="#m8890c3c8b3" x="86.4" y="86.4" style="fill: #262626; stroke: #262626; stroke-width: 1.25"/>
      </g>
     </g>
     <g id="text_16">
      <text style="fill: #262626; font: 16px 'Arial', 'DejaVu Sans', 'Liberation Sans', 'Bitstream Vera Sans', sans-serif; text-anchor: end" x="76.9" y="92.12625" transform="rotate(-0 76.9 92.12625)">0.5</text>
     </g>
    </g>
    <g id="text_17">
     <text style="fill: #262626; font: 16px 'Arial', 'DejaVu Sans', 'Liberation Sans', 'Bitstream Vera Sans', sans-serif; text-anchor: middle" x="47.48" y="216" transform="rotate(-90 47.48 216)">Outbreak risk</text>
    </g>
   </g>
   <g id="PolyCollection_1">
    <defs>
     <path id="m2b81be2881" d="M 210.6 -86.4 
L 183.6 -86.4 
L 183.6 -345.6 
L 210.6 -345.6 
L 210.6 -345.6 
L 210.6 -86.4 
z
"/>
    </defs>
    <g clip-path="url(#pb563c54516)">
     <use xlink:href="#m2b81be2881" x="0" y="432" style="fill: #808080; fill-opacity: 0.5"/>
    </g>
   </g>
   <g id="PolyCollection_2">
    <defs>
     <path id="med9ce9e076" d="M 340.2 -86.4 
L 313.2 -86.4 
L 313.2 -345.6 
L 340.2 -345.6 
L 340.2 -345.6 
L 340.2 -86.4 
z
"/>
    </defs>
    <g clip-path="url(#pb563c54516)">
     <use xlink:href="#med9ce9e076" x="0" y="432" style="fill: #808080; fill-opacity: 0.5"/>
    </g>
   </g>
   <g id="line2d_32">
    <path d="M 86.4 164.786565 
L 88.56 163.880149 
L 90.36 163.341359 
L 92.16 162.999385 
L 93.96 162.853751 
L 95.76 162.903598 
L 97.56 163.147601 
L 99.36 163.583745 
L 101.52 164.356849 
L 103.68 165.396142 
L 105.84 166.692802 
L 108 168.23539 
L 110.52 170.326044 
L 113.04 172.701439 
L 115.92 175.716138 
L 119.52 179.828643 
L 131.04 193.332524 
L 133.56 195.80314 
L 135.72 197.623744 
L 137.52 198.888779 
L 139.32 199.893223 
L 141.12 200.611509 
L 142.56 200.965677 
L 144 201.1144 
L 145.44 201.051211 
L 146.88 200.771979 
L 148.32 200.27486 
L 149.76 199.560309 
L 151.2 198.631035 
L 153 197.17517 
L 154.8 195.405643 
L 156.6 193.340861 
L 158.76 190.505111 
L 161.28 186.760048 
L 164.16 182.00133 
L 167.4 176.188402 
L 172.08 167.289071 
L 179.28 153.569082 
L 181.44 149.846772 
L 182.88 147.787531 
L 183.6 147.035665 
L 184.32 146.621132 
L 185.04 146.613132 
L 186.84 146.912385 
L 189 147.486446 
L 191.16 148.304688 
L 193.32 149.390482 
L 195.48 150.765457 
L 197.64 152.449278 
L 199.8 154.45941 
L 201.96 156.80806 
L 204.12 159.491348 
L 207.36 163.968106 
L 209.16 166.305154 
L 210.24 167.310734 
L 210.96 167.61188 
L 211.32 167.581439 
L 212.04 167.167708 
L 214.56 165.548086 
L 216.72 164.452927 
L 218.88 163.641018 
L 220.68 163.180979 
L 222.48 162.917593 
L 224.28 162.850291 
L 226.08 162.977999 
L 227.88 163.299122 
L 230.04 163.936574 
L 232.2 164.84372 
L 234.36 166.012945 
L 236.52 167.434186 
L 239.04 169.393285 
L 241.56 171.650771 
L 244.44 174.551978 
L 247.68 178.146828 
L 252.36 183.721566 
L 258.48 190.985315 
L 261.36 194.071548 
L 263.88 196.443669 
L 266.04 198.159225 
L 267.84 199.32335 
L 269.64 200.216172 
L 271.08 200.718875 
L 272.52 201.022415 
L 273.96 201.118669 
L 275.4 201.00177 
L 276.84 200.668147 
L 278.28 200.116546 
L 279.72 199.347965 
L 281.16 198.365697 
L 282.96 196.845825 
L 284.76 195.01564 
L 286.56 192.894382 
L 288.72 189.997347 
L 291.24 186.190878 
L 294.12 181.37646 
L 297.72 174.84804 
L 303.12 164.502228 
L 308.88 153.569082 
L 311.04 149.846772 
L 312.48 147.787531 
L 313.2 147.035665 
L 313.92 146.621132 
L 314.64 146.613132 
L 316.44 146.912385 
L 318.6 147.486446 
L 320.76 148.304688 
L 322.92 149.390482 
L 325.08 150.765457 
L 327.24 152.449278 
L 329.4 154.45941 
L 331.56 156.80806 
L 333.72 159.491348 
L 336.96 163.968106 
L 338.76 166.305154 
L 339.84 167.310734 
L 340.56 167.61188 
L 340.92 167.581439 
L 341.64 167.167708 
L 344.16 165.548086 
L 345.24 164.965166 
L 345.24 164.965166 
" clip-path="url(#pb563c54516)" style="fill: none; stroke: #de8f05; stroke-width: 2; stroke-linecap: round"/>
   </g>
   <g id="line2d_33">
    <path d="M 86.4 204.559895 
L 88.56 202.275868 
L 90.72 200.302108 
L 92.88 198.641194 
L 95.04 197.294634 
L 96.84 196.412687 
L 98.64 195.748339 
L 100.44 195.299908 
L 102.24 195.064438 
L 104.04 195.037767 
L 105.84 195.214394 
L 107.64 195.587184 
L 109.8 196.280634 
L 111.96 197.224147 
L 114.12 198.393902 
L 116.64 200.005691 
L 119.88 202.382568 
L 124.92 206.435645 
L 129.24 209.813349 
L 131.76 211.544358 
L 133.92 212.796766 
L 136.08 213.774386 
L 137.88 214.340454 
L 139.68 214.650925 
L 141.12 214.699384 
L 142.56 214.559237 
L 144 214.222557 
L 145.44 213.683531 
L 146.88 212.93866 
L 148.68 211.716343 
L 150.48 210.172794 
L 152.28 208.315618 
L 154.08 206.157363 
L 156.24 203.194187 
L 158.4 199.858886 
L 160.92 195.55573 
L 163.8 190.189948 
L 167.4 182.993533 
L 173.88 169.413703 
L 178.56 159.800891 
L 180.72 155.753741 
L 182.16 153.493724 
L 182.88 152.644761 
L 183.6 152.123589 
L 183.96 152.041232 
L 184.32 152.126091 
L 185.04 152.758648 
L 186.84 154.852414 
L 189 157.736602 
L 191.16 161.048774 
L 193.32 164.838105 
L 195.48 169.156466 
L 197.64 174.057081 
L 199.8 179.589037 
L 201.96 185.776013 
L 204.48 193.731426 
L 208.08 205.223698 
L 209.16 208.000717 
L 209.88 209.397993 
L 210.6 210.247719 
L 210.96 210.400211 
L 211.32 210.314004 
L 212.04 209.514101 
L 214.92 205.817106 
L 217.08 203.379279 
L 219.24 201.250045 
L 221.4 199.432421 
L 223.56 197.928594 
L 225.36 196.91566 
L 227.16 196.120932 
L 228.96 195.543205 
L 230.76 195.180349 
L 232.56 195.028996 
L 234.36 195.084388 
L 236.16 195.34042 
L 238.32 195.901357 
L 240.48 196.722491 
L 242.64 197.782415 
L 245.16 199.285389 
L 248.04 201.291202 
L 251.64 204.093523 
L 259.2 210.075082 
L 261.72 211.769772 
L 263.88 212.980293 
L 265.68 213.774386 
L 267.48 214.340454 
L 269.28 214.650925 
L 270.72 214.699384 
L 272.16 214.559237 
L 273.6 214.222557 
L 275.04 213.683531 
L 276.48 212.93866 
L 278.28 211.716343 
L 280.08 210.172794 
L 281.88 208.315618 
L 283.68 206.157363 
L 285.84 203.194187 
L 288 199.858886 
L 290.52 195.55573 
L 293.4 190.189948 
L 297 182.993533 
L 303.48 169.413703 
L 308.16 159.800891 
L 310.32 155.753741 
L 311.76 153.493724 
L 312.48 152.644761 
L 313.2 152.123589 
L 313.56 152.041232 
L 313.92 152.126091 
L 314.64 152.758648 
L 316.44 154.852414 
L 318.6 157.736602 
L 320.76 161.048774 
L 322.92 164.838105 
L 325.08 169.156466 
L 327.24 174.057081 
L 329.4 179.589037 
L 331.56 185.776013 
L 334.08 193.731426 
L 337.68 205.223698 
L 338.76 208.000717 
L 339.48 209.397993 
L 340.2 210.247719 
L 340.56 210.400211 
L 340.92 210.314004 
L 341.64 209.514101 
L 344.52 205.817106 
L 345.24 204.970474 
L 345.24 204.970474 
" clip-path="url(#pb563c54516)" style="fill: none; stroke: #0173b2; stroke-width: 2; stroke-linecap: round"/>
   </g>
   <g id="line2d_34">
    <path d="M 86.4 112.687383 
L 88.56 113.036094 
L 90.72 113.651488 
L 92.88 114.5327 
L 95.04 115.678117 
L 97.2 117.085242 
L 99.36 118.750508 
L 101.52 120.669041 
L 104.04 123.218696 
L 106.56 126.090547 
L 109.44 129.743762 
L 112.32 133.758296 
L 115.56 138.647564 
L 119.52 145.034032 
L 131.76 165.124237 
L 134.64 169.223499 
L 136.8 171.960888 
L 138.96 174.347301 
L 140.76 176.031516 
L 142.56 177.412096 
L 144.36 178.468587 
L 145.8 179.069966 
L 147.24 179.448748 
L 148.68 179.602031 
L 150.12 179.529303 
L 151.56 179.232416 
L 153 178.715499 
L 154.44 177.984831 
L 156.24 176.78367 
L 158.04 175.281565 
L 159.84 173.502193 
L 162 171.038598 
L 164.52 167.775287 
L 167.4 163.635652 
L 171 158.031906 
L 185.4 135.099529 
L 188.64 130.571743 
L 191.52 126.897261 
L 194.4 123.59284 
L 196.92 121.028758 
L 199.44 118.786597 
L 201.6 117.130235 
L 203.76 115.725305 
L 205.92 114.576509 
L 208.08 113.687495 
L 210.24 113.061033 
L 212.4 112.699144 
L 214.56 112.603198 
L 216.36 112.726965 
L 218.52 113.120155 
L 220.68 113.779931 
L 222.84 114.70531 
L 225 115.894545 
L 227.16 117.344974 
L 229.32 119.052829 
L 231.84 121.363767 
L 234.36 124.007047 
L 236.88 126.967851 
L 239.76 130.715148 
L 243 135.347718 
L 246.6 140.926224 
L 251.28 148.639801 
L 259.56 162.357484 
L 262.8 167.230877 
L 265.32 170.632693 
L 267.48 173.201254 
L 269.28 175.055917 
L 271.08 176.621438 
L 272.88 177.874561 
L 274.32 178.639552 
L 275.76 179.185684 
L 277.2 179.50827 
L 278.64 179.605005 
L 280.08 179.475973 
L 281.52 179.123605 
L 282.96 178.55258 
L 284.4 177.769693 
L 286.2 176.506615 
L 288 174.947058 
L 289.8 173.115346 
L 291.96 170.596383 
L 294.48 167.279435 
L 297.36 163.093415 
L 300.96 157.453758 
L 314.28 136.15593 
L 317.52 131.543882 
L 320.4 127.782535 
L 323.28 124.382482 
L 325.8 121.729114 
L 328.32 119.3936 
L 330.84 117.388979 
L 333 115.941786 
L 335.16 114.750021 
L 337.32 113.817496 
L 339.48 113.147116 
L 341.64 112.74102 
L 343.8 112.600681 
L 345.24 112.655216 
L 345.24 112.655216 
" clip-path="url(#pb563c54516)" style="fill: none; stroke-dasharray: 7.4,3.2; stroke-dashoffset: 0; stroke: #1a1a1a; stroke-opacity: 0.75; stroke-width: 2"/>
   </g>
   <g id="line2d_35">
    <path d="M 86.4 260.822273 
L 89.28 254.599664 
L 91.8 249.675077 
L 94.32 245.263336 
L 96.48 241.903171 
L 98.64 238.938389 
L 100.8 236.370689 
L 102.96 234.196906 
L 104.76 232.681025 
L 106.56 231.426779 
L 108.36 230.42502 
L 110.16 229.664019 
L 111.96 229.129617 
L 113.76 228.8051 
L 115.92 228.665184 
L 118.08 228.760399 
L 120.6 229.10909 
L 123.84 229.808793 
L 130.68 231.380048 
L 133.2 231.686892 
L 135.36 231.715971 
L 137.16 231.532934 
L 138.96 231.130878 
L 140.76 230.485181 
L 142.56 229.575591 
L 144.36 228.3866 
L 146.16 226.907736 
L 147.96 225.133872 
L 149.76 223.065073 
L 151.92 220.200772 
L 154.08 216.937768 
L 156.6 212.66409 
L 159.12 207.942825 
L 162 202.088233 
L 165.6 194.253004 
L 171.36 181.090822 
L 177.48 167.25362 
L 180 162.050328 
L 181.44 159.525758 
L 182.52 158.133665 
L 183.24 157.644729 
L 183.6 157.599922 
L 183.96 157.734111 
L 184.32 158.100954 
L 185.04 159.481157 
L 186.84 163.719723 
L 188.64 168.489981 
L 190.44 173.847055 
L 192.24 179.886974 
L 194.04 186.729164 
L 195.84 194.515973 
L 197.64 203.397414 
L 199.44 213.479636 
L 201.6 227.077269 
L 206.28 257.644205 
L 207.36 263.361628 
L 208.44 267.942751 
L 209.16 270.20454 
L 209.88 271.706199 
L 210.24 272.131714 
L 210.6 272.31552 
L 210.96 272.234111 
L 211.32 271.845111 
L 212.04 270.281523 
L 216 260.822273 
L 218.88 254.599664 
L 221.4 249.675077 
L 223.92 245.263336 
L 226.08 241.903171 
L 228.24 238.938389 
L 230.4 236.370689 
L 232.56 234.196906 
L 234.36 232.681025 
L 236.16 231.426779 
L 237.96 230.42502 
L 239.76 229.664019 
L 241.56 229.129617 
L 243.36 228.8051 
L 245.52 228.665184 
L 247.68 228.760399 
L 250.2 229.10909 
L 253.44 229.808793 
L 260.28 231.380048 
L 262.8 231.686892 
L 264.96 231.715971 
L 266.76 231.532934 
L 268.56 231.130878 
L 270.36 230.485181 
L 272.16 229.575591 
L 273.96 228.3866 
L 275.76 226.907736 
L 277.56 225.133872 
L 279.36 223.065073 
L 281.52 220.200772 
L 283.68 216.937768 
L 286.2 212.66409 
L 288.72 207.942825 
L 291.6 202.088233 
L 295.2 194.253004 
L 300.96 181.090822 
L 307.08 167.25362 
L 309.6 162.050328 
L 311.04 159.525758 
L 312.12 158.133665 
L 312.84 157.644729 
L 313.2 157.599922 
L 313.56 157.734111 
L 313.92 158.100954 
L 314.64 159.481157 
L 316.44 163.719723 
L 318.24 168.489981 
L 320.04 173.847055 
L 321.84 179.886974 
L 323.64 186.729164 
L 325.44 194.515973 
L 327.24 203.397414 
L 329.04 213.479636 
L 331.2 227.077269 
L 335.88 257.644205 
L 336.96 263.361628 
L 338.04 267.942751 
L 338.76 270.20454 
L 339.48 271.706199 
L 339.84 272.131714 
L 340.2 272.31552 
L 340.56 272.234111 
L 340.92 271.845111 
L 341.64 270.281523 
L 345.24 261.642316 
L 345.24 261.642316 
" clip-path="url(#pb563c54516)" style="fill: none; stroke: #029e73; stroke-width: 2; stroke-linecap: round"/>
   </g>
   <g id="patch_3">
    <path d="M 86.4 345.6 
L 86.4 86.4 
" style="fill: none; stroke: #262626; stroke-width: 1.25; stroke-linejoin: miter; stroke-linecap: square"/>
   </g>
   <g id="patch_4">
    <path d="M 86.4 345.6 
L 345.6 345.6 
" style="fill: none; stroke: #262626; stroke-width: 1.25; stroke-linejoin: miter; stroke-linecap: square"/>
   </g>
   <g id="legend_1">
    <g id="patch_5">
     <path d="M 246.9 338.6 
L 335.8 338.6 
Q 338.6 338.6 338.6 335.8 
L 338.6 277.789688 
Q 338.6 274.989688 335.8 274.989688 
L 246.9 274.989688 
Q 244.1 274.989688 244.1 277.789688 
L 244.1 335.8 
Q 244.1 338.6 246.9 338.6 
z
" style="fill: #ffffff; opacity: 0.8; stroke: #cccccc; stroke-linejoin: miter"/>
    </g>
    <g id="line2d_36">
     <path d="M 249.7 285.710625 
L 263.7 285.710625 
L 277.7 285.710625 
" style="fill: none; stroke: #de8f05; stroke-width: 2; stroke-linecap: round"/>
    </g>
    <g id="text_18">
     <!-- $\theta$ = 0.4 -->
     <g style="fill: #262626" transform="translate(288.9 290.610625)">
      <text>
       <tspan style="font: oblique 14px 'DejaVu Sans'" x="0" y="-0.25">θ</tspan>
       <tspan style="font: 14px 'Arial'" x="8.56543 12.455078 20.630859 24.520508 32.306641 36.196289" y="-0.25"> = 0.4</tspan>
      </text>
     </g>
    </g>
    <g id="line2d_37">
     <path d="M 249.7 305.514063 
L 263.7 305.514063 
L 277.7 305.514063 
" style="fill: none; stroke: #0173b2; stroke-width: 2; stroke-linecap: round"/>
    </g>
    <g id="text_19">
     <!-- $\theta$ = 0.6 -->
     <g style="fill: #262626" transform="translate(288.9 310.414062)">
      <text>
       <tspan style="font: oblique 14px 'DejaVu Sans'" x="0" y="-0.25">θ</tspan>
       <tspan style="font: 14px 'Arial'" x="8.56543 12.455078 20.630859 24.520508 32.306641 36.196289" y="-0.25"> = 0.6</tspan>
      </text>
     </g>
    </g>
    <g id="line2d_38">
     <path d="M 249.7 325.3175 
L 263.7 325.3175 
L 277.7 325.3175 
" style="fill: none; stroke: #029e73; stroke-width: 2; stroke-linecap: round"/>
    </g>
    <g id="text_20">
     <!-- $\theta$ = 0.8 -->
     <g style="fill: #262626" transform="translate(288.9 330.2175)">
      <text>
       <tspan style="font: oblique 14px 'DejaVu Sans'" x="0" y="-0.25">θ</tspan>
       <tspan style="font: 14px 'Arial'" x="8.56543 12.455078 20.630859 24.520508 32.306641 36.196289" y="-0.25"> = 0.8</tspan>
      </text>
     </g>
    </g>
   </g>
  </g>
 </g>
 <defs>
  <clipPath id="pb563c54516">
   <rect x="86.4" y="86.4" width="259.2" height="259.2"/>
  </clipPath>
 </defs>
</svg>
