<?xml version="1.0" encoding="utf-8" standalone="no"?>
<!DOCTYPE svg PUBLIC "-//W3C//DTD SVG 1.1//EN"
  "http://www.w3.org/Graphics/SVG/1.1/DTD/svg11.dtd">
<svg xmlns:xlink="http://www.w3.org/1999/xlink" width="432pt" height="432pt" viewBox="0 0 432 432" xmlns="http://www.w3.org/2000/svg" version="1.1">
 <metadata>
  <rdf:RDF xmlns:dc="http://purl.org/dc/elements/1.1/" xmlns:cc="http://creativecommons.org/ns#" xmlns:rdf="http://www.w3.org/1999/02/22-rdf-syntax-ns#">
   <cc:Work>
    <dc:type rdf:resource="http://purl.org/dc/dcmitype/StillImage"/>
    <dc:date>2025-03-11T08:37:50.805939</dc:date>
    <dc:format>image/svg+xml</dc:format>
    <dc:creator>
     <cc:Agent>
      <dc:title>Matplotlib v3.10.1, https://matplotlib.org/</dc:title>
     </cc:Agent>
    </dc:creator>
   </cc:Work>
  </rdf:RDF>
 </metadata>
 <defs>
  <style type="text/css">*{stroke-linejoin: round; stroke-linecap: butt}</style>
 </defs>
 <g id="figure_1">
  <g id="patch_1">
   <path d="M 0 432 
L 432 432 
L 432 0 
L 0 0 
L 0 432 
z
" style="fill: none"/>
  </g>
  <g id="axes_1">
   <g id="patch_2">
    <path d="M 86.4 345.6 
L 345.6 345.6 
L 345.6 86.4 
L 86.4 86.4 
L 86.4 345.6 
z
" style="fill: none"/>
   </g>
   <g id="matplotlib.axis_1">
    <g id="xtick_1">
     <g id="line2d_1">
      <defs>
       <path id="mdce2f81df8" d="M 0 0 
L 0 6 
" style="stroke: #262626; stroke-width: 1.25"/>
      </defs>
      <g>
       <use xlink:href="#mdce2f81df8" x="86.4" y="345.6" style="fill: #262626; stroke: #262626; stroke-width: 1.25"/>
      </g>
     </g>
     <g id="text_1">
      <text style="font-size: 16px; font-family: 'Arial', 'DejaVu Sans', 'Liberation Sans', 'Bitstream Vera Sans', sans-serif; text-anchor: middle; fill: #262626" x="86.4" y="366.5525" transform="rotate(-0 86.4 366.5525)">Jan</text>
     </g>
    </g>
    <g id="xtick_2">
     <g id="line2d_2">
      <g>
       <use xlink:href="#mdce2f81df8" x="97.407123" y="345.6" style="fill: #262626; stroke: #262626; stroke-width: 1.25"/>
      </g>
     </g>
    </g>
    <g id="xtick_3">
     <g id="line2d_3">
      <g>
       <use xlink:href="#mdce2f81df8" x="107.349041" y="345.6" style="fill: #262626; stroke: #262626; stroke-width: 1.25"/>
      </g>
     </g>
    </g>
    <g id="xtick_4">
     <g id="line2d_4">
      <g>
       <use xlink:href="#mdce2f81df8" x="118.356164" y="345.6" style="fill: #262626; stroke: #262626; stroke-width: 1.25"/>
      </g>
     </g>
     <g id="text_2">
      <text style="font-size: 16px; font-family: 'Arial', 'DejaVu Sans', 'Liberation Sans', 'Bitstream Vera Sans', sans-serif; text-anchor: middle; fill: #262626" x="118.356164" y="366.5525" transform="rotate(-0 118.356164 366.5525)">Apr</text>
     </g>
    </g>
    <g id="xtick_5">
     <g id="line2d_5">
      <g>
       <use xlink:href="#mdce2f81df8" x="129.008219" y="345.6" style="fill: #262626; stroke: #262626; stroke-width: 1.25"/>
      </g>
     </g>
    </g>
    <g id="xtick_6">
     <g id="line2d_6">
      <g>
       <use xlink:href="#mdce2f81df8" x="140.015342" y="345.6" style="fill: #262626; stroke: #262626; stroke-width: 1.25"/>
      </g>
     </g>
    </g>
    <g id="xtick_7">
     <g id="line2d_7">
      <g>
       <use xlink:href="#mdce2f81df8" x="150.667397" y="345.6" style="fill: #262626; stroke: #262626; stroke-width: 1.25"/>
      </g>
     </g>
     <g id="text_3">
      <text style="font-size: 16px; font-family: 'Arial', 'DejaVu Sans', 'Liberation Sans', 'Bitstream Vera Sans', sans-serif; text-anchor: middle; fill: #262626" x="150.667397" y="366.5525" transform="rotate(-0 150.667397 366.5525)">Jul</text>
     </g>
    </g>
    <g id="xtick_8">
     <g id="line2d_8">
      <g>
       <use xlink:href="#mdce2f81df8" x="161.674521" y="345.6" style="fill: #262626; stroke: #262626; stroke-width: 1.25"/>
      </g>
     </g>
    </g>
    <g id="xtick_9">
     <g id="line2d_9">
      <g>
       <use xlink:href="#mdce2f81df8" x="172.681644" y="345.6" style="fill: #262626; stroke: #262626; stroke-width: 1.25"/>
      </g>
     </g>
    </g>
    <g id="xtick_10">
     <g id="line2d_10">
      <g>
       <use xlink:href="#mdce2f81df8" x="183.333699" y="345.6" style="fill: #262626; stroke: #262626; stroke-width: 1.25"/>
      </g>
     </g>
     <g id="text_4">
      <text style="font-size: 16px; font-family: 'Arial', 'DejaVu Sans', 'Liberation Sans', 'Bitstream Vera Sans', sans-serif; text-anchor: middle; fill: #262626" x="183.333699" y="366.5525" transform="rotate(-0 183.333699 366.5525)">Oct</text>
     </g>
    </g>
    <g id="xtick_11">
     <g id="line2d_11">
      <g>
       <use xlink:href="#mdce2f81df8" x="194.340822" y="345.6" style="fill: #262626; stroke: #262626; stroke-width: 1.25"/>
      </g>
     </g>
    </g>
    <g id="xtick_12">
     <g id="line2d_12">
      <g>
       <use xlink:href="#mdce2f81df8" x="204.992877" y="345.6" style="fill: #262626; stroke: #262626; stroke-width: 1.25"/>
      </g>
     </g>
    </g>
    <g id="xtick_13">
     <g id="line2d_13">
      <g>
       <use xlink:href="#mdce2f81df8" x="216" y="345.6" style="fill: #262626; stroke: #262626; stroke-width: 1.25"/>
      </g>
     </g>
     <g id="text_5">
      <text style="font-size: 16px; font-family: 'Arial', 'DejaVu Sans', 'Liberation Sans', 'Bitstream Vera Sans', sans-serif; text-anchor: middle; fill: #262626" x="216" y="366.5525" transform="rotate(-0 216 366.5525)">Jan</text>
     </g>
    </g>
    <g id="xtick_14">
     <g id="line2d_14">
      <g>
       <use xlink:href="#mdce2f81df8" x="227.007123" y="345.6" style="fill: #262626; stroke: #262626; stroke-width: 1.25"/>
      </g>
     </g>
    </g>
    <g id="xtick_15">
     <g id="line2d_15">
      <g>
       <use xlink:href="#mdce2f81df8" x="236.949041" y="345.6" style="fill: #262626; stroke: #262626; stroke-width: 1.25"/>
      </g>
     </g>
    </g>
    <g id="xtick_16">
     <g id="line2d_16">
      <g>
       <use xlink:href="#mdce2f81df8" x="247.956164" y="345.6" style="fill: #262626; stroke: #262626; stroke-width: 1.25"/>
      </g>
     </g>
     <g id="text_6">
      <text style="font-size: 16px; font-family: 'Arial', 'DejaVu Sans', 'Liberation Sans', 'Bitstream Vera Sans', sans-serif; text-anchor: middle; fill: #262626" x="247.956164" y="366.5525" transform="rotate(-0 247.956164 366.5525)">Apr</text>
     </g>
    </g>
    <g id="xtick_17">
     <g id="line2d_17">
      <g>
       <use xlink:href="#mdce2f81df8" x="258.608219" y="345.6" style="fill: #262626; stroke: #262626; stroke-width: 1.25"/>
      </g>
     </g>
    </g>
    <g id="xtick_18">
     <g id="line2d_18">
      <g>
       <use xlink:href="#mdce2f81df8" x="269.615342" y="345.6" style="fill: #262626; stroke: #262626; stroke-width: 1.25"/>
      </g>
     </g>
    </g>
    <g id="xtick_19">
     <g id="line2d_19">
      <g>
       <use xlink:href="#mdce2f81df8" x="280.267397" y="345.6" style="fill: #262626; stroke: #262626; stroke-width: 1.25"/>
      </g>
     </g>
     <g id="text_7">
      <text style="font-size: 16px; font-family: 'Arial', 'DejaVu Sans', 'Liberation Sans', 'Bitstream Vera Sans', sans-serif; text-anchor: middle; fill: #262626" x="280.267397" y="366.5525" transform="rotate(-0 280.267397 366.5525)">Jul</text>
     </g>
    </g>
    <g id="xtick_20">
     <g id="line2d_20">
      <g>
       <use xlink:href="#mdce2f81df8" x="291.274521" y="345.6" style="fill: #262626; stroke: #262626; stroke-width: 1.25"/>
      </g>
     </g>
    </g>
    <g id="xtick_21">
     <g id="line2d_21">
      <g>
       <use xlink:href="#mdce2f81df8" x="302.281644" y="345.6" style="fill: #262626; stroke: #262626; stroke-width: 1.25"/>
      </g>
     </g>
    </g>
    <g id="xtick_22">
     <g id="line2d_22">
      <g>
       <use xlink:href="#mdce2f81df8" x="312.933699" y="345.6" style="fill: #262626; stroke: #262626; stroke-width: 1.25"/>
      </g>
     </g>
     <g id="text_8">
      <text style="font-size: 16px; font-family: 'Arial', 'DejaVu Sans', 'Liberation Sans', 'Bitstream Vera Sans', sans-serif; text-anchor: middle; fill: #262626" x="312.933699" y="366.5525" transform="rotate(-0 312.933699 366.5525)">Oct</text>
     </g>
    </g>
    <g id="xtick_23">
     <g id="line2d_23">
      <g>
       <use xlink:href="#mdce2f81df8" x="323.940822" y="345.6" style="fill: #262626; stroke: #262626; stroke-width: 1.25"/>
      </g>
     </g>
    </g>
    <g id="xtick_24">
     <g id="line2d_24">
      <g>
       <use xlink:href="#mdce2f81df8" x="334.592877" y="345.6" style="fill: #262626; stroke: #262626; stroke-width: 1.25"/>
      </g>
     </g>
    </g>
    <g id="xtick_25">
     <g id="line2d_25">
      <g>
       <use xlink:href="#mdce2f81df8" x="345.6" y="345.6" style="fill: #262626; stroke: #262626; stroke-width: 1.25"/>
      </g>
     </g>
     <g id="text_9">
      <text style="font-size: 16px; font-family: 'Arial', 'DejaVu Sans', 'Liberation Sans', 'Bitstream Vera Sans', sans-serif; text-anchor: middle; fill: #262626" x="345.6" y="366.5525" transform="rotate(-0 345.6 366.5525)">Jan</text>
     </g>
    </g>
    <g id="text_10">
     <text style="font-size: 16px; font-family: 'Arial', 'DejaVu Sans', 'Liberation Sans', 'Bitstream Vera Sans', sans-serif; text-anchor: middle; fill: #262626" x="216" y="385.185" transform="rotate(-0 216 385.185)"> </text>
    </g>
   </g>
   <g id="matplotlib.axis_2">
    <g id="ytick_1">
     <g id="line2d_26">
      <defs>
       <path id="mb3cd5aecba" d="M 0 0 
L -6 0 
" style="stroke: #262626; stroke-width: 1.25"/>
      </defs>
      <g>
       <use xlink:href="#mb3cd5aecba" x="86.4" y="345.6" style="fill: #262626; stroke: #262626; stroke-width: 1.25"/>
      </g>
     </g>
     <g id="text_11">
      <text style="font-size: 16px; font-family: 'Arial', 'DejaVu Sans', 'Liberation Sans', 'Bitstream Vera Sans', sans-serif; text-anchor: end; fill: #262626" x="76.9" y="351.32625" transform="rotate(-0 76.9 351.32625)">0.0</text>
     </g>
    </g>
    <g id="ytick_2">
     <g id="line2d_27">
      <g>
       <use xlink:href="#mb3cd5aecba" x="86.4" y="293.76" style="fill: #262626; stroke: #262626; stroke-width: 1.25"/>
      </g>
     </g>
     <g id="text_12">
      <text style="font-size: 16px; font-family: 'Arial', 'DejaVu Sans', 'Liberation Sans', 'Bitstream Vera Sans', sans-serif; text-anchor: end; fill: #262626" x="76.9" y="299.48625" transform="rotate(-0 76.9 299.48625)">0.1</text>
     </g>
    </g>
    <g id="ytick_3">
     <g id="line2d_28">
      <g>
       <use xlink:href="#mb3cd5aecba" x="86.4" y="241.92" style="fill: #262626; stroke: #262626; stroke-width: 1.25"/>
      </g>
     </g>
     <g id="text_13">
      <text style="font-size: 16px; font-family: 'Arial', 'DejaVu Sans', 'Liberation Sans', 'Bitstream Vera Sans', sans-serif; text-anchor: end; fill: #262626" x="76.9" y="247.64625" transform="rotate(-0 76.9 247.64625)">0.2</text>
     </g>
    </g>
    <g id="ytick_4">
     <g id="line2d_29">
      <g>
       <use xlink:href="#mb3cd5aecba" x="86.4" y="190.08" style="fill: #262626; stroke: #262626; stroke-width: 1.25"/>
      </g>
     </g>
     <g id="text_14">
      <text style="font-size: 16px; font-family: 'Arial', 'DejaVu Sans', 'Liberation Sans', 'Bitstream Vera Sans', sans-serif; text-anchor: end; fill: #262626" x="76.9" y="195.80625" transform="rotate(-0 76.9 195.80625)">0.3</text>
     </g>
    </g>
    <g id="ytick_5">
     <g id="line2d_30">
      <g>
       <use xlink:href="#mb3cd5aecba" x="86.4" y="138.24" style="fill: #262626; stroke: #262626; stroke-width: 1.25"/>
      </g>
     </g>
     <g id="text_15">
      <text style="font-size: 16px; font-family: 'Arial', 'DejaVu Sans', 'Liberation Sans', 'Bitstream Vera Sans', sans-serif; text-anchor: end; fill: #262626" x="76.9" y="143.96625" transform="rotate(-0 76.9 143.96625)">0.4</text>
     </g>
    </g>
    <g id="ytick_6">
     <g id="line2d_31">
      <g>
       <use xlink:href="#mb3cd5aecba" x="86.4" y="86.4" style="fill: #262626; stroke: #262626; stroke-width: 1.25"/>
      </g>
     </g>
     <g id="text_16">
      <text style="font-size: 16px; font-family: 'Arial', 'DejaVu Sans', 'Liberation Sans', 'Bitstream Vera Sans', sans-serif; text-anchor: end; fill: #262626" x="76.9" y="92.12625" transform="rotate(-0 76.9 92.12625)">0.5</text>
     </g>
    </g>
    <g id="text_17">
     <text style="font-size: 16px; font-family: 'Arial', 'DejaVu Sans', 'Liberation Sans', 'Bitstream Vera Sans', sans-serif; text-anchor: middle; fill: #262626" x="47.48" y="216" transform="rotate(-90 47.48 216)">Outbreak risk</text>
    </g>
   </g>
   <g id="FillBetweenPolyCollection_1">
    <defs>
     <path id="mdb88ba20be" d="M 210.318904 -86.4 
L 183.333699 -86.4 
L 183.333699 -345.6 
L 210.318904 -345.6 
L 210.318904 -345.6 
L 210.318904 -86.4 
z
"/>
    </defs>
    <g clip-path="url(#p7158900918)">
     <use xlink:href="#mdb88ba20be" x="0" y="432" style="fill: #808080; fill-opacity: 0.5"/>
    </g>
   </g>
   <g id="FillBetweenPolyCollection_2">
    <defs>
     <path id="m2b29051149" d="M 339.918904 -86.4 
L 312.933699 -86.4 
L 312.933699 -345.6 
L 339.918904 -345.6 
L 339.918904 -345.6 
L 339.918904 -86.4 
z
"/>
    </defs>
    <g clip-path="url(#p7158900918)">
     <use xlink:href="#m2b29051149" x="0" y="432" style="fill: #808080; fill-opacity: 0.5"/>
    </g>
   </g>
   <g id="line2d_32">
    <path d="M 86.4 112.683727 
L 88.530411 113.022938 
L 90.660822 113.621576 
L 92.791233 114.478824 
L 94.921644 115.593162 
L 97.052055 116.962244 
L 99.182466 118.582724 
L 101.667945 120.784854 
L 104.153425 123.313058 
L 106.638904 126.154079 
L 109.479452 129.761358 
L 112.32 133.719846 
L 115.515616 138.536436 
L 119.42137 144.825917 
L 131.848767 165.21522 
L 134.689315 169.252375 
L 137.174795 172.369931 
L 139.305205 174.666584 
L 141.080548 176.279266 
L 142.85589 177.593063 
L 144.631233 178.589043 
L 146.051507 179.147422 
L 147.471781 179.488628 
L 148.892055 179.610195 
L 150.312329 179.511924 
L 151.732603 179.195848 
L 153.152877 178.666147 
L 154.573151 177.929026 
L 156.348493 176.728396 
L 158.123836 175.235798 
L 159.899178 173.474081 
L 162.029589 171.041012 
L 164.515068 167.823699 
L 167.355616 163.746232 
L 170.906301 158.227275 
L 178.36274 146.058046 
L 182.97863 138.754674 
L 186.529315 133.512906 
L 189.724932 129.177686 
L 192.565479 125.681002 
L 195.406027 122.555662 
L 197.891507 120.146362 
L 200.376986 118.055097 
L 202.507397 116.523788 
L 204.637808 115.239119 
L 206.768219 114.205164 
L 208.89863 113.42507 
L 211.029041 112.901206 
L 213.159452 112.635268 
L 215.289863 112.628359 
L 217.420274 112.881021 
L 219.550685 113.393242 
L 221.681096 114.164418 
L 223.811507 115.193276 
L 225.941918 116.477763 
L 228.072329 118.014885 
L 230.20274 119.800513 
L 232.688219 122.190378 
L 235.173699 124.899209 
L 238.014247 128.365413 
L 240.854795 132.196859 
L 244.050411 136.892574 
L 247.956164 143.076104 
L 253.63726 152.566324 
L 259.318356 161.93216 
L 262.513973 166.780677 
L 264.999452 170.186874 
L 267.129863 172.778331 
L 269.260274 175.01197 
L 271.035616 176.566609 
L 272.810959 177.818206 
L 274.231233 178.589043 
L 275.651507 179.147422 
L 277.071781 179.488628 
L 278.492055 179.610195 
L 279.912329 179.511924 
L 281.332603 179.195848 
L 282.752877 178.666147 
L 284.173151 177.929026 
L 285.948493 176.728396 
L 287.723836 175.235798 
L 289.499178 173.474081 
L 291.629589 171.041012 
L 294.115068 167.823699 
L 296.955616 163.746232 
L 300.506301 158.227275 
L 307.96274 146.058046 
L 312.57863 138.754674 
L 316.129315 133.512906 
L 319.324932 129.177686 
L 322.165479 125.681002 
L 325.006027 122.555662 
L 327.491507 120.146362 
L 329.976986 118.055097 
L 332.107397 116.523788 
L 334.237808 115.239119 
L 336.368219 114.205164 
L 338.49863 113.42507 
L 340.629041 112.901206 
L 342.759452 112.635268 
L 344.889863 112.628359 
L 345.244932 112.652436 
L 345.244932 112.652436 
" clip-path="url(#p7158900918)" style="fill: none; stroke-dasharray: 7.4,3.2; stroke-dashoffset: 0; stroke: #0173b2; stroke-width: 2"/>
   </g>
   <g id="line2d_33">
    <path d="M 86.4 203.809891 
L 88.530411 201.500342 
L 90.660822 199.494147 
L 92.791233 197.794145 
L 94.921644 196.402112 
L 96.696986 195.477712 
L 98.472329 194.766952 
L 100.247671 194.268401 
L 102.023014 193.979451 
L 103.798356 193.896329 
L 105.573699 194.014015 
L 107.349041 194.325925 
L 109.479452 194.944786 
L 111.609863 195.813464 
L 113.740274 196.909957 
L 116.225753 198.441095 
L 119.066301 200.459901 
L 122.972055 203.538346 
L 129.363288 208.60943 
L 132.203836 210.548409 
L 134.334247 211.755563 
L 136.464658 212.689332 
L 138.24 213.221838 
L 140.015342 213.503242 
L 141.435616 213.532599 
L 142.85589 213.377722 
L 144.276164 213.03125 
L 145.696438 212.487887 
L 147.116712 211.744468 
L 148.892055 210.532435 
L 150.667397 209.008857 
L 152.44274 207.18129 
L 154.218082 205.061952 
L 156.348493 202.157024 
L 158.478904 198.891275 
L 160.964384 194.681171 
L 163.804932 189.433562 
L 167.355616 182.394848 
L 173.746849 169.096645 
L 178.717808 158.968643 
L 180.848219 155.078185 
L 181.913425 153.458432 
L 182.623562 152.62349 
L 183.333699 152.111902 
L 183.688767 152.032047 
L 184.043836 152.117342 
L 184.753973 152.744915 
L 186.529315 154.815281 
L 188.659726 157.656711 
L 190.790137 160.908573 
L 192.920548 164.617797 
L 195.050959 168.833675 
L 197.18137 173.607088 
L 199.311781 178.985892 
L 201.442192 184.997684 
L 203.927671 192.74751 
L 207.833425 205.190055 
L 208.89863 207.904526 
L 209.608767 209.263221 
L 210.318904 210.078784 
L 210.673973 210.216422 
L 211.029041 210.117356 
L 211.739178 209.296834 
L 214.934795 205.07726 
L 217.420274 202.236659 
L 219.550685 200.128951 
L 221.681096 198.32666 
L 223.811507 196.831856 
L 225.941918 195.645469 
L 227.71726 194.892055 
L 229.492603 194.351244 
L 231.267945 194.020639 
L 233.043288 193.896707 
L 234.81863 193.974705 
L 236.593973 194.248379 
L 238.724384 194.823766 
L 240.854795 195.65222 
L 242.985205 196.712464 
L 245.470685 198.207441 
L 248.311233 200.19465 
L 252.216986 203.250241 
L 258.963288 208.60943 
L 261.803836 210.548409 
L 263.934247 211.755563 
L 266.064658 212.689332 
L 267.84 213.221838 
L 269.615342 213.503242 
L 271.035616 213.532599 
L 272.45589 213.377722 
L 273.876164 213.03125 
L 275.296438 212.487887 
L 276.716712 211.744468 
L 278.492055 210.532435 
L 280.267397 209.008857 
L 282.04274 207.18129 
L 283.818082 205.061952 
L 285.948493 202.157024 
L 288.078904 198.891275 
L 290.564384 194.681171 
L 293.404932 189.433562 
L 296.955616 182.394848 
L 303.346849 169.096645 
L 308.317808 158.968643 
L 310.448219 155.078185 
L 311.513425 153.458432 
L 312.223562 152.62349 
L 312.933699 152.111902 
L 313.288767 152.032047 
L 313.643836 152.117342 
L 314.353973 152.744915 
L 316.129315 154.815281 
L 318.259726 157.656711 
L 320.390137 160.908573 
L 322.520548 164.617797 
L 324.650959 168.833675 
L 326.78137 173.607088 
L 328.911781 178.985892 
L 331.042192 184.997684 
L 333.527671 192.74751 
L 337.433425 205.190055 
L 338.49863 207.904526 
L 339.208767 209.263221 
L 339.918904 210.078784 
L 340.273973 210.216422 
L 340.629041 210.117356 
L 341.339178 209.296834 
L 344.534795 205.07726 
L 345.244932 204.224071 
L 345.244932 204.224071 
" clip-path="url(#p7158900918)" style="fill: none; stroke: #de8f05; stroke-width: 2; stroke-linecap: round"/>
   </g>
   <g id="patch_3">
    <path d="M 86.4 345.6 
L 86.4 86.4 
" style="fill: none; stroke: #262626; stroke-width: 1.25; stroke-linejoin: miter; stroke-linecap: square"/>
   </g>
   <g id="patch_4">
    <path d="M 86.4 345.6 
L 345.6 345.6 
" style="fill: none; stroke: #262626; stroke-width: 1.25; stroke-linejoin: miter; stroke-linecap: square"/>
   </g>
   <g id="legend_1">
    <g id="patch_5">
     <path d="M 169.613438 338.6 
L 335.8 338.6 
Q 338.6 338.6 338.6 335.8 
L 338.6 297.593125 
Q 338.6 294.793125 335.8 294.793125 
L 169.613438 294.793125 
Q 166.813438 294.793125 166.813438 297.593125 
L 166.813438 335.8 
Q 166.813438 338.6 169.613438 338.6 
z
" style="fill: #ffffff; opacity: 0.8; stroke: #cccccc; stroke-linejoin: miter"/>
    </g>
    <g id="line2d_34">
     <path d="M 172.413438 305.514063 
L 186.413438 305.514063 
L 200.413438 305.514063 
" style="fill: none; stroke-dasharray: 7.4,3.2; stroke-dashoffset: 0; stroke: #0173b2; stroke-width: 2"/>
    </g>
    <g id="text_18">
     <text style="font-size: 14px; font-family: 'Arial', 'DejaVu Sans', 'Liberation Sans', 'Bitstream Vera Sans', sans-serif; text-anchor: start; fill: #262626" x="211.613438" y="310.414062" transform="rotate(-0 211.613438 310.414062)">Without vaccination</text>
    </g>
    <g id="line2d_35">
     <path d="M 172.413438 325.3175 
L 186.413438 325.3175 
L 200.413438 325.3175 
" style="fill: none; stroke: #de8f05; stroke-width: 2; stroke-linecap: round"/>
    </g>
    <g id="text_19">
     <text style="font-size: 14px; font-family: 'Arial', 'DejaVu Sans', 'Liberation Sans', 'Bitstream Vera Sans', sans-serif; text-anchor: start; fill: #262626" x="211.613438" y="330.2175" transform="rotate(-0 211.613438 330.2175)">With vaccination</text>
    </g>
   </g>
  </g>
 </g>
 <defs>
  <clipPath id="p7158900918">
   <rect x="86.4" y="86.4" width="259.2" height="259.2"/>
  </clipPath>
 </defs>
</svg>
