<?xml version="1.0" encoding="utf-8" standalone="no"?>
<!DOCTYPE svg PUBLIC "-//W3C//DTD SVG 1.1//EN"
  "http://www.w3.org/Graphics/SVG/1.1/DTD/svg11.dtd">
<svg xmlns:xlink="http://www.w3.org/1999/xlink" width="432pt" height="432pt" viewBox="0 0 432 432" xmlns="http://www.w3.org/2000/svg" version="1.1">
 <metadata>
  <rdf:RDF xmlns:dc="http://purl.org/dc/elements/1.1/" xmlns:cc="http://creativecommons.org/ns#" xmlns:rdf="http://www.w3.org/1999/02/22-rdf-syntax-ns#">
   <cc:Work>
    <dc:type rdf:resource="http://purl.org/dc/dcmitype/StillImage"/>
    <dc:date>2024-05-21T12:38:38.218794</dc:date>
    <dc:format>image/svg+xml</dc:format>
    <dc:creator>
     <cc:Agent>
      <dc:title>Matplotlib v3.8.4, https://matplotlib.org/</dc:title>
     </cc:Agent>
    </dc:creator>
   </cc:Work>
  </rdf:RDF>
 </metadata>
 <defs>
  <style type="text/css">*{stroke-linejoin: round; stroke-linecap: butt}</style>
 </defs>
 <g id="figure_1">
  <g id="patch_1">
   <path d="M 0 432 
L 432 432 
L 432 0 
L 0 0 
L 0 432 
z
" style="fill: none"/>
  </g>
  <g id="axes_1">
   <g id="patch_2">
    <path d="M 86.4 345.6 
L 345.6 345.6 
L 345.6 86.4 
L 86.4 86.4 
L 86.4 345.6 
z
" style="fill: none"/>
   </g>
   <g id="matplotlib.axis_1">
    <g id="xtick_1">
     <g id="line2d_1">
      <defs>
       <path id="m244710bd2d" d="M 0 0 
L 0 6 
" style="stroke: #262626; stroke-width: 1.25"/>
      </defs>
      <g>
       <use xlink:href="#m244710bd2d" x="86.4" y="345.6" style="fill: #262626; stroke: #262626; stroke-width: 1.25"/>
      </g>
     </g>
     <g id="text_1">
      <text style="fill: #262626; font: 16px 'Arial', 'DejaVu Sans', 'Liberation Sans', 'Bitstream Vera Sans', sans-serif; text-anchor: middle" x="86.4" y="366.5525" transform="rotate(-0 86.4 366.5525)">Jan</text>
     </g>
    </g>
    <g id="xtick_2">
     <g id="line2d_2">
      <g>
       <use xlink:href="#m244710bd2d" x="97.2" y="345.6" style="fill: #262626; stroke: #262626; stroke-width: 1.25"/>
      </g>
     </g>
    </g>
    <g id="xtick_3">
     <g id="line2d_3">
      <g>
       <use xlink:href="#m244710bd2d" x="108" y="345.6" style="fill: #262626; stroke: #262626; stroke-width: 1.25"/>
      </g>
     </g>
    </g>
    <g id="xtick_4">
     <g id="line2d_4">
      <g>
       <use xlink:href="#m244710bd2d" x="118.8" y="345.6" style="fill: #262626; stroke: #262626; stroke-width: 1.25"/>
      </g>
     </g>
     <g id="text_2">
      <text style="fill: #262626; font: 16px 'Arial', 'DejaVu Sans', 'Liberation Sans', 'Bitstream Vera Sans', sans-serif; text-anchor: middle" x="118.8" y="366.5525" transform="rotate(-0 118.8 366.5525)">Apr</text>
     </g>
    </g>
    <g id="xtick_5">
     <g id="line2d_5">
      <g>
       <use xlink:href="#m244710bd2d" x="129.6" y="345.6" style="fill: #262626; stroke: #262626; stroke-width: 1.25"/>
      </g>
     </g>
    </g>
    <g id="xtick_6">
     <g id="line2d_6">
      <g>
       <use xlink:href="#m244710bd2d" x="140.4" y="345.6" style="fill: #262626; stroke: #262626; stroke-width: 1.25"/>
      </g>
     </g>
    </g>
    <g id="xtick_7">
     <g id="line2d_7">
      <g>
       <use xlink:href="#m244710bd2d" x="151.2" y="345.6" style="fill: #262626; stroke: #262626; stroke-width: 1.25"/>
      </g>
     </g>
     <g id="text_3">
      <text style="fill: #262626; font: 16px 'Arial', 'DejaVu Sans', 'Liberation Sans', 'Bitstream Vera Sans', sans-serif; text-anchor: middle" x="151.2" y="366.5525" transform="rotate(-0 151.2 366.5525)">Jul</text>
     </g>
    </g>
    <g id="xtick_8">
     <g id="line2d_8">
      <g>
       <use xlink:href="#m244710bd2d" x="162" y="345.6" style="fill: #262626; stroke: #262626; stroke-width: 1.25"/>
      </g>
     </g>
    </g>
    <g id="xtick_9">
     <g id="line2d_9">
      <g>
       <use xlink:href="#m244710bd2d" x="172.8" y="345.6" style="fill: #262626; stroke: #262626; stroke-width: 1.25"/>
      </g>
     </g>
    </g>
    <g id="xtick_10">
     <g id="line2d_10">
      <g>
       <use xlink:href="#m244710bd2d" x="183.6" y="345.6" style="fill: #262626; stroke: #262626; stroke-width: 1.25"/>
      </g>
     </g>
     <g id="text_4">
      <text style="fill: #262626; font: 16px 'Arial', 'DejaVu Sans', 'Liberation Sans', 'Bitstream Vera Sans', sans-serif; text-anchor: middle" x="183.6" y="366.5525" transform="rotate(-0 183.6 366.5525)">Oct</text>
     </g>
    </g>
    <g id="xtick_11">
     <g id="line2d_11">
      <g>
       <use xlink:href="#m244710bd2d" x="194.4" y="345.6" style="fill: #262626; stroke: #262626; stroke-width: 1.25"/>
      </g>
     </g>
    </g>
    <g id="xtick_12">
     <g id="line2d_12">
      <g>
       <use xlink:href="#m244710bd2d" x="205.2" y="345.6" style="fill: #262626; stroke: #262626; stroke-width: 1.25"/>
      </g>
     </g>
    </g>
    <g id="xtick_13">
     <g id="line2d_13">
      <g>
       <use xlink:href="#m244710bd2d" x="216" y="345.6" style="fill: #262626; stroke: #262626; stroke-width: 1.25"/>
      </g>
     </g>
     <g id="text_5">
      <text style="fill: #262626; font: 16px 'Arial', 'DejaVu Sans', 'Liberation Sans', 'Bitstream Vera Sans', sans-serif; text-anchor: middle" x="216" y="366.5525" transform="rotate(-0 216 366.5525)">Jan</text>
     </g>
    </g>
    <g id="xtick_14">
     <g id="line2d_14">
      <g>
       <use xlink:href="#m244710bd2d" x="216" y="345.6" style="fill: #262626; stroke: #262626; stroke-width: 1.25"/>
      </g>
     </g>
     <g id="text_6">
      <text style="fill: #262626; font: 16px 'Arial', 'DejaVu Sans', 'Liberation Sans', 'Bitstream Vera Sans', sans-serif; text-anchor: middle" x="216" y="366.5525" transform="rotate(-0 216 366.5525)">Jan</text>
     </g>
    </g>
    <g id="xtick_15">
     <g id="line2d_15">
      <g>
       <use xlink:href="#m244710bd2d" x="226.8" y="345.6" style="fill: #262626; stroke: #262626; stroke-width: 1.25"/>
      </g>
     </g>
    </g>
    <g id="xtick_16">
     <g id="line2d_16">
      <g>
       <use xlink:href="#m244710bd2d" x="237.6" y="345.6" style="fill: #262626; stroke: #262626; stroke-width: 1.25"/>
      </g>
     </g>
    </g>
    <g id="xtick_17">
     <g id="line2d_17">
      <g>
       <use xlink:href="#m244710bd2d" x="248.4" y="345.6" style="fill: #262626; stroke: #262626; stroke-width: 1.25"/>
      </g>
     </g>
     <g id="text_7">
      <text style="fill: #262626; font: 16px 'Arial', 'DejaVu Sans', 'Liberation Sans', 'Bitstream Vera Sans', sans-serif; text-anchor: middle" x="248.4" y="366.5525" transform="rotate(-0 248.4 366.5525)">Apr</text>
     </g>
    </g>
    <g id="xtick_18">
     <g id="line2d_18">
      <g>
       <use xlink:href="#m244710bd2d" x="259.2" y="345.6" style="fill: #262626; stroke: #262626; stroke-width: 1.25"/>
      </g>
     </g>
    </g>
    <g id="xtick_19">
     <g id="line2d_19">
      <g>
       <use xlink:href="#m244710bd2d" x="270" y="345.6" style="fill: #262626; stroke: #262626; stroke-width: 1.25"/>
      </g>
     </g>
    </g>
    <g id="xtick_20">
     <g id="line2d_20">
      <g>
       <use xlink:href="#m244710bd2d" x="280.8" y="345.6" style="fill: #262626; stroke: #262626; stroke-width: 1.25"/>
      </g>
     </g>
     <g id="text_8">
      <text style="fill: #262626; font: 16px 'Arial', 'DejaVu Sans', 'Liberation Sans', 'Bitstream Vera Sans', sans-serif; text-anchor: middle" x="280.8" y="366.5525" transform="rotate(-0 280.8 366.5525)">Jul</text>
     </g>
    </g>
    <g id="xtick_21">
     <g id="line2d_21">
      <g>
       <use xlink:href="#m244710bd2d" x="291.6" y="345.6" style="fill: #262626; stroke: #262626; stroke-width: 1.25"/>
      </g>
     </g>
    </g>
    <g id="xtick_22">
     <g id="line2d_22">
      <g>
       <use xlink:href="#m244710bd2d" x="302.4" y="345.6" style="fill: #262626; stroke: #262626; stroke-width: 1.25"/>
      </g>
     </g>
    </g>
    <g id="xtick_23">
     <g id="line2d_23">
      <g>
       <use xlink:href="#m244710bd2d" x="313.2" y="345.6" style="fill: #262626; stroke: #262626; stroke-width: 1.25"/>
      </g>
     </g>
     <g id="text_9">
      <text style="fill: #262626; font: 16px 'Arial', 'DejaVu Sans', 'Liberation Sans', 'Bitstream Vera Sans', sans-serif; text-anchor: middle" x="313.2" y="366.5525" transform="rotate(-0 313.2 366.5525)">Oct</text>
     </g>
    </g>
    <g id="xtick_24">
     <g id="line2d_24">
      <g>
       <use xlink:href="#m244710bd2d" x="324" y="345.6" style="fill: #262626; stroke: #262626; stroke-width: 1.25"/>
      </g>
     </g>
    </g>
    <g id="xtick_25">
     <g id="line2d_25">
      <g>
       <use xlink:href="#m244710bd2d" x="334.8" y="345.6" style="fill: #262626; stroke: #262626; stroke-width: 1.25"/>
      </g>
     </g>
    </g>
    <g id="xtick_26">
     <g id="line2d_26">
      <g>
       <use xlink:href="#m244710bd2d" x="345.6" y="345.6" style="fill: #262626; stroke: #262626; stroke-width: 1.25"/>
      </g>
     </g>
     <g id="text_10">
      <text style="fill: #262626; font: 16px 'Arial', 'DejaVu Sans', 'Liberation Sans', 'Bitstream Vera Sans', sans-serif; text-anchor: middle" x="345.6" y="366.5525" transform="rotate(-0 345.6 366.5525)">Jan</text>
     </g>
    </g>
    <g id="text_11">
     <text style="fill: #262626; font: 16px 'Arial', 'DejaVu Sans', 'Liberation Sans', 'Bitstream Vera Sans', sans-serif; text-anchor: middle" x="216" y="385.185" transform="rotate(-0 216 385.185)"> </text>
    </g>
   </g>
   <g id="matplotlib.axis_2">
    <g id="ytick_1">
     <g id="line2d_27">
      <defs>
       <path id="me6f65ced4b" d="M 0 0 
L -6 0 
" style="stroke: #262626; stroke-width: 1.25"/>
      </defs>
      <g>
       <use xlink:href="#me6f65ced4b" x="86.4" y="345.6" style="fill: #262626; stroke: #262626; stroke-width: 1.25"/>
      </g>
     </g>
     <g id="text_12">
      <text style="fill: #262626; font: 16px 'Arial', 'DejaVu Sans', 'Liberation Sans', 'Bitstream Vera Sans', sans-serif; text-anchor: end" x="76.9" y="351.32625" transform="rotate(-0 76.9 351.32625)">0.0</text>
     </g>
    </g>
    <g id="ytick_2">
     <g id="line2d_28">
      <g>
       <use xlink:href="#me6f65ced4b" x="86.4" y="293.76" style="fill: #262626; stroke: #262626; stroke-width: 1.25"/>
      </g>
     </g>
     <g id="text_13">
      <text style="fill: #262626; font: 16px 'Arial', 'DejaVu Sans', 'Liberation Sans', 'Bitstream Vera Sans', sans-serif; text-anchor: end" x="76.9" y="299.48625" transform="rotate(-0 76.9 299.48625)">0.1</text>
     </g>
    </g>
    <g id="ytick_3">
     <g id="line2d_29">
      <g>
       <use xlink:href="#me6f65ced4b" x="86.4" y="241.92" style="fill: #262626; stroke: #262626; stroke-width: 1.25"/>
      </g>
     </g>
     <g id="text_14">
      <text style="fill: #262626; font: 16px 'Arial', 'DejaVu Sans', 'Liberation Sans', 'Bitstream Vera Sans', sans-serif; text-anchor: end" x="76.9" y="247.64625" transform="rotate(-0 76.9 247.64625)">0.2</text>
     </g>
    </g>
    <g id="ytick_4">
     <g id="line2d_30">
      <g>
       <use xlink:href="#me6f65ced4b" x="86.4" y="190.08" style="fill: #262626; stroke: #262626; stroke-width: 1.25"/>
      </g>
     </g>
     <g id="text_15">
      <text style="fill: #262626; font: 16px 'Arial', 'DejaVu Sans', 'Liberation Sans', 'Bitstream Vera Sans', sans-serif; text-anchor: end" x="76.9" y="195.80625" transform="rotate(-0 76.9 195.80625)">0.3</text>
     </g>
    </g>
    <g id="ytick_5">
     <g id="line2d_31">
      <g>
       <use xlink:href="#me6f65ced4b" x="86.4" y="138.24" style="fill: #262626; stroke: #262626; stroke-width: 1.25"/>
      </g>
     </g>
     <g id="text_16">
      <text style="fill: #262626; font: 16px 'Arial', 'DejaVu Sans', 'Liberation Sans', 'Bitstream Vera Sans', sans-serif; text-anchor: end" x="76.9" y="143.96625" transform="rotate(-0 76.9 143.96625)">0.4</text>
     </g>
    </g>
    <g id="ytick_6">
     <g id="line2d_32">
      <g>
       <use xlink:href="#me6f65ced4b" x="86.4" y="86.4" style="fill: #262626; stroke: #262626; stroke-width: 1.25"/>
      </g>
     </g>
     <g id="text_17">
      <text style="fill: #262626; font: 16px 'Arial', 'DejaVu Sans', 'Liberation Sans', 'Bitstream Vera Sans', sans-serif; text-anchor: end" x="76.9" y="92.12625" transform="rotate(-0 76.9 92.12625)">0.5</text>
     </g>
    </g>
    <g id="text_18">
     <text style="fill: #262626; font: 16px 'Arial', 'DejaVu Sans', 'Liberation Sans', 'Bitstream Vera Sans', sans-serif; text-anchor: middle" x="47.48" y="216" transform="rotate(-90 47.48 216)">Case outbreak risk</text>
    </g>
   </g>
   <g id="PolyCollection_1">
    <defs>
     <path id="mc5dfc4a64d" d="M 210.6 -86.4 
L 183.6 -86.4 
L 183.6 -345.6 
L 210.6 -345.6 
L 210.6 -345.6 
L 210.6 -86.4 
z
"/>
    </defs>
    <g clip-path="url(#pd70b9fb096)">
     <use xlink:href="#mc5dfc4a64d" x="0" y="432" style="fill: #808080; fill-opacity: 0.5"/>
    </g>
   </g>
   <g id="PolyCollection_2">
    <defs>
     <path id="m779ae20500" d="M 340.2 -86.4 
L 313.2 -86.4 
L 313.2 -345.6 
L 340.2 -345.6 
L 340.2 -345.6 
L 340.2 -86.4 
z
"/>
    </defs>
    <g clip-path="url(#pd70b9fb096)">
     <use xlink:href="#m779ae20500" x="0" y="432" style="fill: #808080; fill-opacity: 0.5"/>
    </g>
   </g>
   <g id="line2d_33">
    <path d="M 86.4 112.687383 
L 88.56 113.036094 
L 90.72 113.651488 
L 92.88 114.5327 
L 95.04 115.678117 
L 97.2 117.085242 
L 99.36 118.750508 
L 101.52 120.669041 
L 104.04 123.218696 
L 106.56 126.090547 
L 109.44 129.743762 
L 112.32 133.758296 
L 115.56 138.647564 
L 119.52 145.034032 
L 131.76 165.124237 
L 134.64 169.223499 
L 136.8 171.960888 
L 138.96 174.347301 
L 140.76 176.031516 
L 142.56 177.412096 
L 144.36 178.468587 
L 145.8 179.069966 
L 147.24 179.448748 
L 148.68 179.602031 
L 150.12 179.529303 
L 151.56 179.232416 
L 153 178.715499 
L 154.44 177.984831 
L 156.24 176.78367 
L 158.04 175.281565 
L 159.84 173.502193 
L 162 171.038598 
L 164.52 167.775287 
L 167.4 163.635652 
L 171 158.031906 
L 185.4 135.099529 
L 188.64 130.571743 
L 191.52 126.897261 
L 194.4 123.59284 
L 196.92 121.028758 
L 199.44 118.786597 
L 201.6 117.130235 
L 203.76 115.725305 
L 205.92 114.576509 
L 208.08 113.687495 
L 210.24 113.061033 
L 212.4 112.699144 
L 214.56 112.603198 
L 216.36 112.726965 
L 218.52 113.120155 
L 220.68 113.779931 
L 222.84 114.70531 
L 225 115.894545 
L 227.16 117.344974 
L 229.32 119.052829 
L 231.84 121.363767 
L 234.36 124.007047 
L 236.88 126.967851 
L 239.76 130.715148 
L 243 135.347718 
L 246.6 140.926224 
L 251.28 148.639801 
L 259.56 162.357484 
L 262.8 167.230877 
L 265.32 170.632693 
L 267.48 173.201254 
L 269.28 175.055917 
L 271.08 176.621438 
L 272.88 177.874561 
L 274.32 178.639552 
L 275.76 179.185684 
L 277.2 179.50827 
L 278.64 179.605005 
L 280.08 179.475973 
L 281.52 179.123605 
L 282.96 178.55258 
L 284.4 177.769693 
L 286.2 176.506615 
L 288 174.947058 
L 289.8 173.115346 
L 291.96 170.596383 
L 294.48 167.279435 
L 297.36 163.093415 
L 300.96 157.453758 
L 314.28 136.15593 
L 317.52 131.543882 
L 320.4 127.782535 
L 323.28 124.382482 
L 325.8 121.729114 
L 328.32 119.3936 
L 330.84 117.388979 
L 333 115.941786 
L 335.16 114.750021 
L 337.32 113.817496 
L 339.48 113.147116 
L 341.64 112.74102 
L 343.8 112.600681 
L 345.24 112.655216 
L 345.24 112.655216 
" clip-path="url(#pd70b9fb096)" style="fill: none; stroke: #4c72b0; stroke-width: 2; stroke-linecap: round"/>
   </g>
   <g id="line2d_34">
    <path d="M 86.4 156.98891 
L 88.56 156.276148 
L 90.36 155.894866 
L 92.16 155.706835 
L 93.96 155.711565 
L 95.76 155.908189 
L 97.56 156.29538 
L 99.72 157.008688 
L 101.88 157.988687 
L 104.04 159.228511 
L 106.2 160.719106 
L 108.72 162.759108 
L 111.24 165.099692 
L 114.12 168.102105 
L 117.36 171.824541 
L 121.68 177.168778 
L 129.24 186.580542 
L 132.12 189.793733 
L 134.64 192.266024 
L 136.8 194.060361 
L 138.6 195.285859 
L 140.4 196.236854 
L 141.84 196.784227 
L 143.28 197.131169 
L 144.72 197.269917 
L 146.16 197.195004 
L 147.6 196.903233 
L 149.04 196.393724 
L 150.48 195.667839 
L 151.92 194.729235 
L 153.72 193.265808 
L 155.52 191.494653 
L 157.32 189.435514 
L 159.48 186.617643 
L 162 182.910389 
L 164.88 178.21871 
L 168.48 171.857095 
L 174.24 161.106824 
L 179.64 151.166867 
L 181.8 147.584075 
L 182.88 146.076744 
L 183.6 145.289292 
L 184.32 144.800306 
L 185.04 144.671107 
L 187.2 144.639953 
L 189.36 144.819512 
L 191.52 145.223112 
L 193.68 145.871427 
L 195.84 146.783071 
L 198 147.974521 
L 200.16 149.460027 
L 202.32 151.249086 
L 204.48 153.337043 
L 207.72 156.865128 
L 209.52 158.656523 
L 210.24 159.158857 
L 210.96 159.400091 
L 211.32 159.368029 
L 212.4 158.789124 
L 214.56 157.618547 
L 216.72 156.720386 
L 218.88 156.100445 
L 220.68 155.796492 
L 222.48 155.685622 
L 224.28 155.767246 
L 226.08 156.040296 
L 228.24 156.618348 
L 230.4 157.465742 
L 232.56 158.576632 
L 234.72 159.943121 
L 236.88 161.554861 
L 239.4 163.727066 
L 241.92 166.187321 
L 244.8 169.306832 
L 248.4 173.569682 
L 254.16 180.825677 
L 258.84 186.580542 
L 261.72 189.793733 
L 264.24 192.266024 
L 266.4 194.060361 
L 268.2 195.285859 
L 270 196.236854 
L 271.44 196.784227 
L 272.88 197.131169 
L 274.32 197.269917 
L 275.76 197.195004 
L 277.2 196.903233 
L 278.64 196.393724 
L 280.08 195.667839 
L 281.52 194.729235 
L 283.32 193.265808 
L 285.12 191.494653 
L 286.92 189.435514 
L 289.08 186.617643 
L 291.6 182.910389 
L 294.48 178.21871 
L 298.08 171.857095 
L 303.84 161.106824 
L 309.24 151.166867 
L 311.4 147.584075 
L 312.48 146.076744 
L 313.2 145.289292 
L 313.92 144.800306 
L 314.64 144.671107 
L 316.8 144.639953 
L 318.96 144.819512 
L 321.12 145.223112 
L 323.28 145.871427 
L 325.44 146.783071 
L 327.6 147.974521 
L 329.76 149.460027 
L 331.92 151.249086 
L 334.08 153.337043 
L 337.32 156.865128 
L 339.12 158.656523 
L 339.84 159.158857 
L 340.56 159.400091 
L 340.92 159.368029 
L 342 158.789124 
L 344.16 157.618547 
L 345.24 157.134746 
L 345.24 157.134746 
" clip-path="url(#pd70b9fb096)" style="fill: none; stroke: #dd8452; stroke-width: 2; stroke-linecap: round"/>
   </g>
   <g id="patch_3">
    <path d="M 86.4 345.6 
L 86.4 86.4 
" style="fill: none; stroke: #262626; stroke-width: 1.25; stroke-linejoin: miter; stroke-linecap: square"/>
   </g>
   <g id="patch_4">
    <path d="M 86.4 345.6 
L 345.6 345.6 
" style="fill: none; stroke: #262626; stroke-width: 1.25; stroke-linejoin: miter; stroke-linecap: square"/>
   </g>
   <g id="legend_1">
    <g id="patch_5">
     <path d="M 96.2 338.6 
L 262.386563 338.6 
Q 265.186563 338.6 265.186563 335.8 
L 265.186563 297.593125 
Q 265.186563 294.793125 262.386563 294.793125 
L 96.2 294.793125 
Q 93.4 294.793125 93.4 297.593125 
L 93.4 335.8 
Q 93.4 338.6 96.2 338.6 
z
" style="fill: #ffffff; opacity: 0.8; stroke: #cccccc; stroke-linejoin: miter"/>
    </g>
    <g id="line2d_35">
     <path d="M 99 305.514063 
L 113 305.514063 
L 127 305.514063 
" style="fill: none; stroke: #4c72b0; stroke-width: 2; stroke-linecap: round"/>
    </g>
    <g id="text_19">
     <text style="fill: #262626; font: 14px 'Arial', 'DejaVu Sans', 'Liberation Sans', 'Bitstream Vera Sans', sans-serif; text-anchor: start" x="138.2" y="310.414062" transform="rotate(-0 138.2 310.414062)">Without vaccination</text>
    </g>
    <g id="line2d_36">
     <path d="M 99 325.3175 
L 113 325.3175 
L 127 325.3175 
" style="fill: none; stroke: #dd8452; stroke-width: 2; stroke-linecap: round"/>
    </g>
    <g id="text_20">
     <text style="fill: #262626; font: 14px 'Arial', 'DejaVu Sans', 'Liberation Sans', 'Bitstream Vera Sans', sans-serif; text-anchor: start" x="138.2" y="330.2175" transform="rotate(-0 138.2 330.2175)">With vaccination</text>
    </g>
   </g>
  </g>
 </g>
 <defs>
  <clipPath id="pd70b9fb096">
   <rect x="86.4" y="86.4" width="259.2" height="259.2"/>
  </clipPath>
 </defs>
</svg>
