<?xml version="1.0" encoding="utf-8" standalone="no"?>
<!DOCTYPE svg PUBLIC "-//W3C//DTD SVG 1.1//EN"
  "http://www.w3.org/Graphics/SVG/1.1/DTD/svg11.dtd">
<svg xmlns:xlink="http://www.w3.org/1999/xlink" width="432pt" height="432pt" viewBox="0 0 432 432" xmlns="http://www.w3.org/2000/svg" version="1.1">
 <metadata>
  <rdf:RDF xmlns:dc="http://purl.org/dc/elements/1.1/" xmlns:cc="http://creativecommons.org/ns#" xmlns:rdf="http://www.w3.org/1999/02/22-rdf-syntax-ns#">
   <cc:Work>
    <dc:type rdf:resource="http://purl.org/dc/dcmitype/StillImage"/>
    <dc:date>2024-09-16T15:53:54.990591</dc:date>
    <dc:format>image/svg+xml</dc:format>
    <dc:creator>
     <cc:Agent>
      <dc:title>Matplotlib v3.8.4, https://matplotlib.org/</dc:title>
     </cc:Agent>
    </dc:creator>
   </cc:Work>
  </rdf:RDF>
 </metadata>
 <defs>
  <style type="text/css">*{stroke-linejoin: round; stroke-linecap: butt}</style>
 </defs>
 <g id="figure_1">
  <g id="patch_1">
   <path d="M 0 432 
L 432 432 
L 432 0 
L 0 0 
L 0 432 
z
" style="fill: none"/>
  </g>
  <g id="axes_1">
   <g id="patch_2">
    <path d="M 86.4 345.6 
L 345.6 345.6 
L 345.6 86.4 
L 86.4 86.4 
L 86.4 345.6 
z
" style="fill: none"/>
   </g>
   <g id="matplotlib.axis_1">
    <g id="xtick_1">
     <g id="line2d_1">
      <defs>
       <path id="m078853426c" d="M 0 0 
L 0 6 
" style="stroke: #262626; stroke-width: 1.25"/>
      </defs>
      <g>
       <use xlink:href="#m078853426c" x="86.4" y="345.6" style="fill: #262626; stroke: #262626; stroke-width: 1.25"/>
      </g>
     </g>
     <g id="text_1">
      <text style="fill: #262626; font: 16px 'Arial', 'DejaVu Sans', 'Liberation Sans', 'Bitstream Vera Sans', sans-serif; text-anchor: middle" x="86.4" y="366.5525" transform="rotate(-0 86.4 366.5525)">Jan</text>
     </g>
    </g>
    <g id="xtick_2">
     <g id="line2d_2">
      <g>
       <use xlink:href="#m078853426c" x="97.2" y="345.6" style="fill: #262626; stroke: #262626; stroke-width: 1.25"/>
      </g>
     </g>
    </g>
    <g id="xtick_3">
     <g id="line2d_3">
      <g>
       <use xlink:href="#m078853426c" x="108" y="345.6" style="fill: #262626; stroke: #262626; stroke-width: 1.25"/>
      </g>
     </g>
    </g>
    <g id="xtick_4">
     <g id="line2d_4">
      <g>
       <use xlink:href="#m078853426c" x="118.8" y="345.6" style="fill: #262626; stroke: #262626; stroke-width: 1.25"/>
      </g>
     </g>
     <g id="text_2">
      <text style="fill: #262626; font: 16px 'Arial', 'DejaVu Sans', 'Liberation Sans', 'Bitstream Vera Sans', sans-serif; text-anchor: middle" x="118.8" y="366.5525" transform="rotate(-0 118.8 366.5525)">Apr</text>
     </g>
    </g>
    <g id="xtick_5">
     <g id="line2d_5">
      <g>
       <use xlink:href="#m078853426c" x="129.6" y="345.6" style="fill: #262626; stroke: #262626; stroke-width: 1.25"/>
      </g>
     </g>
    </g>
    <g id="xtick_6">
     <g id="line2d_6">
      <g>
       <use xlink:href="#m078853426c" x="140.4" y="345.6" style="fill: #262626; stroke: #262626; stroke-width: 1.25"/>
      </g>
     </g>
    </g>
    <g id="xtick_7">
     <g id="line2d_7">
      <g>
       <use xlink:href="#m078853426c" x="151.2" y="345.6" style="fill: #262626; stroke: #262626; stroke-width: 1.25"/>
      </g>
     </g>
     <g id="text_3">
      <text style="fill: #262626; font: 16px 'Arial', 'DejaVu Sans', 'Liberation Sans', 'Bitstream Vera Sans', sans-serif; text-anchor: middle" x="151.2" y="366.5525" transform="rotate(-0 151.2 366.5525)">Jul</text>
     </g>
    </g>
    <g id="xtick_8">
     <g id="line2d_8">
      <g>
       <use xlink:href="#m078853426c" x="162" y="345.6" style="fill: #262626; stroke: #262626; stroke-width: 1.25"/>
      </g>
     </g>
    </g>
    <g id="xtick_9">
     <g id="line2d_9">
      <g>
       <use xlink:href="#m078853426c" x="172.8" y="345.6" style="fill: #262626; stroke: #262626; stroke-width: 1.25"/>
      </g>
     </g>
    </g>
    <g id="xtick_10">
     <g id="line2d_10">
      <g>
       <use xlink:href="#m078853426c" x="183.6" y="345.6" style="fill: #262626; stroke: #262626; stroke-width: 1.25"/>
      </g>
     </g>
     <g id="text_4">
      <text style="fill: #262626; font: 16px 'Arial', 'DejaVu Sans', 'Liberation Sans', 'Bitstream Vera Sans', sans-serif; text-anchor: middle" x="183.6" y="366.5525" transform="rotate(-0 183.6 366.5525)">Oct</text>
     </g>
    </g>
    <g id="xtick_11">
     <g id="line2d_11">
      <g>
       <use xlink:href="#m078853426c" x="194.4" y="345.6" style="fill: #262626; stroke: #262626; stroke-width: 1.25"/>
      </g>
     </g>
    </g>
    <g id="xtick_12">
     <g id="line2d_12">
      <g>
       <use xlink:href="#m078853426c" x="205.2" y="345.6" style="fill: #262626; stroke: #262626; stroke-width: 1.25"/>
      </g>
     </g>
    </g>
    <g id="xtick_13">
     <g id="line2d_13">
      <g>
       <use xlink:href="#m078853426c" x="216" y="345.6" style="fill: #262626; stroke: #262626; stroke-width: 1.25"/>
      </g>
     </g>
     <g id="text_5">
      <text style="fill: #262626; font: 16px 'Arial', 'DejaVu Sans', 'Liberation Sans', 'Bitstream Vera Sans', sans-serif; text-anchor: middle" x="216" y="366.5525" transform="rotate(-0 216 366.5525)">Jan</text>
     </g>
    </g>
    <g id="xtick_14">
     <g id="line2d_14">
      <g>
       <use xlink:href="#m078853426c" x="226.8" y="345.6" style="fill: #262626; stroke: #262626; stroke-width: 1.25"/>
      </g>
     </g>
    </g>
    <g id="xtick_15">
     <g id="line2d_15">
      <g>
       <use xlink:href="#m078853426c" x="237.6" y="345.6" style="fill: #262626; stroke: #262626; stroke-width: 1.25"/>
      </g>
     </g>
    </g>
    <g id="xtick_16">
     <g id="line2d_16">
      <g>
       <use xlink:href="#m078853426c" x="248.4" y="345.6" style="fill: #262626; stroke: #262626; stroke-width: 1.25"/>
      </g>
     </g>
     <g id="text_6">
      <text style="fill: #262626; font: 16px 'Arial', 'DejaVu Sans', 'Liberation Sans', 'Bitstream Vera Sans', sans-serif; text-anchor: middle" x="248.4" y="366.5525" transform="rotate(-0 248.4 366.5525)">Apr</text>
     </g>
    </g>
    <g id="xtick_17">
     <g id="line2d_17">
      <g>
       <use xlink:href="#m078853426c" x="259.2" y="345.6" style="fill: #262626; stroke: #262626; stroke-width: 1.25"/>
      </g>
     </g>
    </g>
    <g id="xtick_18">
     <g id="line2d_18">
      <g>
       <use xlink:href="#m078853426c" x="270" y="345.6" style="fill: #262626; stroke: #262626; stroke-width: 1.25"/>
      </g>
     </g>
    </g>
    <g id="xtick_19">
     <g id="line2d_19">
      <g>
       <use xlink:href="#m078853426c" x="280.8" y="345.6" style="fill: #262626; stroke: #262626; stroke-width: 1.25"/>
      </g>
     </g>
     <g id="text_7">
      <text style="fill: #262626; font: 16px 'Arial', 'DejaVu Sans', 'Liberation Sans', 'Bitstream Vera Sans', sans-serif; text-anchor: middle" x="280.8" y="366.5525" transform="rotate(-0 280.8 366.5525)">Jul</text>
     </g>
    </g>
    <g id="xtick_20">
     <g id="line2d_20">
      <g>
       <use xlink:href="#m078853426c" x="291.6" y="345.6" style="fill: #262626; stroke: #262626; stroke-width: 1.25"/>
      </g>
     </g>
    </g>
    <g id="xtick_21">
     <g id="line2d_21">
      <g>
       <use xlink:href="#m078853426c" x="302.4" y="345.6" style="fill: #262626; stroke: #262626; stroke-width: 1.25"/>
      </g>
     </g>
    </g>
    <g id="xtick_22">
     <g id="line2d_22">
      <g>
       <use xlink:href="#m078853426c" x="313.2" y="345.6" style="fill: #262626; stroke: #262626; stroke-width: 1.25"/>
      </g>
     </g>
     <g id="text_8">
      <text style="fill: #262626; font: 16px 'Arial', 'DejaVu Sans', 'Liberation Sans', 'Bitstream Vera Sans', sans-serif; text-anchor: middle" x="313.2" y="366.5525" transform="rotate(-0 313.2 366.5525)">Oct</text>
     </g>
    </g>
    <g id="xtick_23">
     <g id="line2d_23">
      <g>
       <use xlink:href="#m078853426c" x="324" y="345.6" style="fill: #262626; stroke: #262626; stroke-width: 1.25"/>
      </g>
     </g>
    </g>
    <g id="xtick_24">
     <g id="line2d_24">
      <g>
       <use xlink:href="#m078853426c" x="334.8" y="345.6" style="fill: #262626; stroke: #262626; stroke-width: 1.25"/>
      </g>
     </g>
    </g>
    <g id="xtick_25">
     <g id="line2d_25">
      <g>
       <use xlink:href="#m078853426c" x="345.6" y="345.6" style="fill: #262626; stroke: #262626; stroke-width: 1.25"/>
      </g>
     </g>
     <g id="text_9">
      <text style="fill: #262626; font: 16px 'Arial', 'DejaVu Sans', 'Liberation Sans', 'Bitstream Vera Sans', sans-serif; text-anchor: middle" x="345.6" y="366.5525" transform="rotate(-0 345.6 366.5525)">Jan</text>
     </g>
    </g>
    <g id="text_10">
     <text style="fill: #262626; font: 16px 'Arial', 'DejaVu Sans', 'Liberation Sans', 'Bitstream Vera Sans', sans-serif; text-anchor: middle" x="216" y="385.185" transform="rotate(-0 216 385.185)"> </text>
    </g>
   </g>
   <g id="matplotlib.axis_2">
    <g id="ytick_1">
     <g id="line2d_26">
      <defs>
       <path id="m62d3fef358" d="M 0 0 
L -6 0 
" style="stroke: #262626; stroke-width: 1.25"/>
      </defs>
      <g>
       <use xlink:href="#m62d3fef358" x="86.4" y="345.6" style="fill: #262626; stroke: #262626; stroke-width: 1.25"/>
      </g>
     </g>
     <g id="text_11">
      <text style="fill: #262626; font: 16px 'Arial', 'DejaVu Sans', 'Liberation Sans', 'Bitstream Vera Sans', sans-serif; text-anchor: end" x="76.9" y="351.32625" transform="rotate(-0 76.9 351.32625)">0.0</text>
     </g>
    </g>
    <g id="ytick_2">
     <g id="line2d_27">
      <g>
       <use xlink:href="#m62d3fef358" x="86.4" y="302.686093" style="fill: #262626; stroke: #262626; stroke-width: 1.25"/>
      </g>
     </g>
     <g id="text_12">
      <text style="fill: #262626; font: 16px 'Arial', 'DejaVu Sans', 'Liberation Sans', 'Bitstream Vera Sans', sans-serif; text-anchor: end" x="76.9" y="308.412343" transform="rotate(-0 76.9 308.412343)">0.5</text>
     </g>
    </g>
    <g id="ytick_3">
     <g id="line2d_28">
      <g>
       <use xlink:href="#m62d3fef358" x="86.4" y="259.772185" style="fill: #262626; stroke: #262626; stroke-width: 1.25"/>
      </g>
     </g>
     <g id="text_13">
      <text style="fill: #262626; font: 16px 'Arial', 'DejaVu Sans', 'Liberation Sans', 'Bitstream Vera Sans', sans-serif; text-anchor: end" x="76.9" y="265.498435" transform="rotate(-0 76.9 265.498435)">1.0</text>
     </g>
    </g>
    <g id="ytick_4">
     <g id="line2d_29">
      <g>
       <use xlink:href="#m62d3fef358" x="86.4" y="216.858278" style="fill: #262626; stroke: #262626; stroke-width: 1.25"/>
      </g>
     </g>
     <g id="text_14">
      <text style="fill: #262626; font: 16px 'Arial', 'DejaVu Sans', 'Liberation Sans', 'Bitstream Vera Sans', sans-serif; text-anchor: end" x="76.9" y="222.584528" transform="rotate(-0 76.9 222.584528)">1.5</text>
     </g>
    </g>
    <g id="ytick_5">
     <g id="line2d_30">
      <g>
       <use xlink:href="#m62d3fef358" x="86.4" y="173.944371" style="fill: #262626; stroke: #262626; stroke-width: 1.25"/>
      </g>
     </g>
     <g id="text_15">
      <text style="fill: #262626; font: 16px 'Arial', 'DejaVu Sans', 'Liberation Sans', 'Bitstream Vera Sans', sans-serif; text-anchor: end" x="76.9" y="179.670621" transform="rotate(-0 76.9 179.670621)">2.0</text>
     </g>
    </g>
    <g id="ytick_6">
     <g id="line2d_31">
      <g>
       <use xlink:href="#m62d3fef358" x="86.4" y="131.030464" style="fill: #262626; stroke: #262626; stroke-width: 1.25"/>
      </g>
     </g>
     <g id="text_16">
      <text style="fill: #262626; font: 16px 'Arial', 'DejaVu Sans', 'Liberation Sans', 'Bitstream Vera Sans', sans-serif; text-anchor: end" x="76.9" y="136.756714" transform="rotate(-0 76.9 136.756714)">2.5</text>
     </g>
    </g>
    <g id="ytick_7">
     <g id="line2d_32">
      <g>
       <use xlink:href="#m62d3fef358" x="86.4" y="88.116556" style="fill: #262626; stroke: #262626; stroke-width: 1.25"/>
      </g>
     </g>
     <g id="text_17">
      <text style="fill: #262626; font: 16px 'Arial', 'DejaVu Sans', 'Liberation Sans', 'Bitstream Vera Sans', sans-serif; text-anchor: end" x="76.9" y="93.842806" transform="rotate(-0 76.9 93.842806)">3.0</text>
     </g>
    </g>
    <g id="text_18">
     <text style="fill: #262626; font: 16px 'Arial', 'DejaVu Sans', 'Liberation Sans', 'Bitstream Vera Sans', sans-serif; text-anchor: middle" x="47.48" y="216" transform="rotate(-90 47.48 216)">Instantaneous reproduction number</text>
    </g>
   </g>
   <g id="PolyCollection_1">
    <defs>
     <path id="me37b16fd70" d="M 210.6 -86.4 
L 183.6 -86.4 
L 183.6 -345.6 
L 210.6 -345.6 
L 210.6 -345.6 
L 210.6 -86.4 
z
"/>
    </defs>
    <g clip-path="url(#p9565ccc6b4)">
     <use xlink:href="#me37b16fd70" x="0" y="432" style="fill: #808080; fill-opacity: 0.5"/>
    </g>
   </g>
   <g id="PolyCollection_2">
    <defs>
     <path id="m2db54ae45e" d="M 340.2 -86.4 
L 313.2 -86.4 
L 313.2 -345.6 
L 340.2 -345.6 
L 340.2 -345.6 
L 340.2 -86.4 
z
"/>
    </defs>
    <g clip-path="url(#p9565ccc6b4)">
     <use xlink:href="#m2db54ae45e" x="0" y="432" style="fill: #808080; fill-opacity: 0.5"/>
    </g>
   </g>
   <g id="line2d_33">
    <path d="M 86.4 88.116556 
L 87.84 88.221092 
L 89.28 88.534191 
L 90.72 89.054328 
L 92.16 89.778968 
L 93.96 90.96688 
L 95.76 92.459699 
L 97.56 94.246066 
L 99.72 96.757893 
L 101.88 99.645219 
L 104.4 103.445936 
L 106.92 107.657875 
L 109.8 112.894263 
L 113.4 119.923527 
L 118.8 131.030464 
L 125.28 144.29159 
L 128.88 151.177323 
L 131.76 156.254625 
L 134.28 160.297678 
L 136.8 163.904424 
L 138.96 166.607705 
L 141.12 168.921195 
L 142.92 170.532924 
L 144.72 171.844015 
L 146.52 172.84449 
L 147.96 173.416029 
L 149.4 173.78107 
L 150.84 173.937835 
L 152.28 173.885559 
L 153.72 173.624497 
L 155.16 173.155922 
L 156.6 172.482115 
L 158.4 171.356346 
L 160.2 169.923672 
L 162 168.194997 
L 163.8 166.183478 
L 165.96 163.418001 
L 168.12 160.297678 
L 170.64 156.254625 
L 173.52 151.177323 
L 176.76 145.001865 
L 181.08 136.260353 
L 191.16 115.651495 
L 194.4 109.57351 
L 197.28 104.610024 
L 199.8 100.685749 
L 201.96 97.680094 
L 204.12 95.039833 
L 205.92 93.139732 
L 207.72 91.528004 
L 209.52 90.216912 
L 211.32 89.216437 
L 212.76 88.644898 
L 214.2 88.279857 
L 215.64 88.123092 
L 217.08 88.175368 
L 218.52 88.43643 
L 219.96 88.905006 
L 221.4 89.578812 
L 223.2 90.704582 
L 225 92.137255 
L 226.8 93.86593 
L 228.6 95.877449 
L 230.76 98.642927 
L 232.92 101.763249 
L 235.44 105.806302 
L 238.32 110.883604 
L 241.56 117.059062 
L 245.88 125.800574 
L 255.96 146.409433 
L 259.2 152.487417 
L 262.08 157.450903 
L 264.6 161.375178 
L 266.76 164.380833 
L 268.92 167.021095 
L 270.72 168.921195 
L 272.52 170.532924 
L 274.32 171.844015 
L 276.12 172.84449 
L 277.56 173.416029 
L 279 173.78107 
L 280.44 173.937835 
L 281.88 173.885559 
L 283.32 173.624497 
L 284.76 173.155922 
L 286.2 172.482115 
L 288 171.356346 
L 289.8 169.923672 
L 291.6 168.194997 
L 293.4 166.183478 
L 295.56 163.418001 
L 297.72 160.297678 
L 300.24 156.254625 
L 303.12 151.177323 
L 306.36 145.001865 
L 310.68 136.260353 
L 320.76 115.651495 
L 324 109.57351 
L 326.88 104.610024 
L 329.4 100.685749 
L 331.56 97.680094 
L 333.72 95.039833 
L 335.52 93.139732 
L 337.32 91.528004 
L 339.12 90.216912 
L 340.92 89.216437 
L 342.36 88.644898 
L 343.8 88.279857 
L 345.24 88.123092 
L 345.24 88.123092 
" clip-path="url(#p9565ccc6b4)" style="fill: none; stroke-dasharray: 7.4,3.2; stroke-dashoffset: 0; stroke: #0173b2; stroke-width: 2"/>
   </g>
   <g id="line2d_34">
    <path d="M 86.4 196.567285 
L 89.28 193.97893 
L 91.8 192.011283 
L 94.32 190.342672 
L 96.48 189.163631 
L 98.64 188.225544 
L 100.8 187.532826 
L 102.96 187.088615 
L 105.12 186.89024 
L 107.28 186.932283 
L 109.44 187.205264 
L 111.6 187.69487 
L 114.12 188.516048 
L 116.64 189.572485 
L 119.52 191.012866 
L 123.48 193.269438 
L 132.12 198.30163 
L 135 199.686772 
L 137.52 200.658298 
L 139.68 201.267259 
L 141.84 201.634492 
L 143.64 201.734123 
L 145.44 201.629445 
L 147.24 201.306479 
L 149.04 200.753592 
L 150.84 199.961301 
L 152.64 198.922017 
L 154.44 197.630827 
L 156.24 196.085347 
L 158.4 193.894822 
L 160.56 191.342481 
L 162.72 188.437927 
L 165.24 184.623913 
L 167.76 180.382366 
L 170.64 175.062835 
L 173.88 168.563862 
L 177.84 160.051713 
L 183.6 147.04715 
L 185.04 143.765908 
L 185.4 143.954648 
L 186.48 145.133924 
L 188.64 147.948343 
L 190.8 151.110428 
L 192.96 154.627351 
L 195.48 159.190103 
L 198 164.246959 
L 200.52 169.784486 
L 203.4 176.668256 
L 206.64 185.051389 
L 210.24 195.038287 
L 212.04 200.246581 
L 212.4 200.117636 
L 213.48 199.092556 
L 216.72 195.888099 
L 219.24 193.680123 
L 221.76 191.754014 
L 224.28 190.129832 
L 226.44 188.990372 
L 228.6 188.092804 
L 230.76 187.441759 
L 232.92 187.038464 
L 235.08 186.880869 
L 237.24 186.961963 
L 239.4 187.272305 
L 241.56 187.796377 
L 244.08 188.653397 
L 246.6 189.740025 
L 249.84 191.403979 
L 254.16 193.915813 
L 261 197.919402 
L 264.24 199.528109 
L 266.76 200.535646 
L 268.92 201.181677 
L 271.08 201.591419 
L 272.88 201.730029 
L 274.68 201.667418 
L 276.48 201.389134 
L 278.28 200.883046 
L 280.08 200.139313 
L 281.88 199.149906 
L 283.68 197.909388 
L 285.48 196.414853 
L 287.28 194.665553 
L 289.44 192.232924 
L 291.6 189.44446 
L 293.76 186.312906 
L 296.28 182.250175 
L 298.8 177.781652 
L 301.68 172.235426 
L 304.92 165.530036 
L 309.24 156.037609 
L 314.64 143.765908 
L 315 143.954648 
L 316.08 145.133924 
L 318.24 147.948343 
L 320.4 151.110428 
L 322.56 154.627351 
L 325.08 159.190103 
L 327.6 164.246959 
L 330.12 169.784486 
L 333 176.668256 
L 336.24 185.051389 
L 339.84 195.038287 
L 341.64 200.246581 
L 342 200.117636 
L 343.08 199.092556 
L 345.24 196.914628 
L 345.24 196.914628 
" clip-path="url(#p9565ccc6b4)" style="fill: none; stroke: #de8f05; stroke-width: 2; stroke-linecap: round"/>
   </g>
   <g id="patch_3">
    <path d="M 86.4 345.6 
L 86.4 86.4 
" style="fill: none; stroke: #262626; stroke-width: 1.25; stroke-linejoin: miter; stroke-linecap: square"/>
   </g>
   <g id="patch_4">
    <path d="M 86.4 345.6 
L 345.6 345.6 
" style="fill: none; stroke: #262626; stroke-width: 1.25; stroke-linejoin: miter; stroke-linecap: square"/>
   </g>
   <g id="legend_1">
    <g id="patch_5">
     <path d="M 169.613438 338.6 
L 335.8 338.6 
Q 338.6 338.6 338.6 335.8 
L 338.6 297.593125 
Q 338.6 294.793125 335.8 294.793125 
L 169.613438 294.793125 
Q 166.813438 294.793125 166.813438 297.593125 
L 166.813438 335.8 
Q 166.813438 338.6 169.613438 338.6 
z
" style="fill: #ffffff; opacity: 0.8; stroke: #cccccc; stroke-linejoin: miter"/>
    </g>
    <g id="line2d_35">
     <path d="M 172.413438 305.514063 
L 186.413438 305.514063 
L 200.413438 305.514063 
" style="fill: none; stroke-dasharray: 7.4,3.2; stroke-dashoffset: 0; stroke: #0173b2; stroke-width: 2"/>
    </g>
    <g id="text_19">
     <text style="fill: #262626; font: 14px 'Arial', 'DejaVu Sans', 'Liberation Sans', 'Bitstream Vera Sans', sans-serif; text-anchor: start" x="211.613438" y="310.414062" transform="rotate(-0 211.613438 310.414062)">Without vaccination</text>
    </g>
    <g id="line2d_36">
     <path d="M 172.413438 325.3175 
L 186.413438 325.3175 
L 200.413438 325.3175 
" style="fill: none; stroke: #de8f05; stroke-width: 2; stroke-linecap: round"/>
    </g>
    <g id="text_20">
     <text style="fill: #262626; font: 14px 'Arial', 'DejaVu Sans', 'Liberation Sans', 'Bitstream Vera Sans', sans-serif; text-anchor: start" x="211.613438" y="330.2175" transform="rotate(-0 211.613438 330.2175)">With vaccination</text>
    </g>
   </g>
  </g>
 </g>
 <defs>
  <clipPath id="p9565ccc6b4">
   <rect x="86.4" y="86.4" width="259.2" height="259.2"/>
  </clipPath>
 </defs>
</svg>
