<?xml version="1.0" encoding="utf-8" standalone="no"?>
<!DOCTYPE svg PUBLIC "-//W3C//DTD SVG 1.1//EN"
  "http://www.w3.org/Graphics/SVG/1.1/DTD/svg11.dtd">
<svg xmlns:xlink="http://www.w3.org/1999/xlink" width="432pt" height="432pt" viewBox="0 0 432 432" xmlns="http://www.w3.org/2000/svg" version="1.1">
 <metadata>
  <rdf:RDF xmlns:dc="http://purl.org/dc/elements/1.1/" xmlns:cc="http://creativecommons.org/ns#" xmlns:rdf="http://www.w3.org/1999/02/22-rdf-syntax-ns#">
   <cc:Work>
    <dc:type rdf:resource="http://purl.org/dc/dcmitype/StillImage"/>
    <dc:date>2025-08-07T19:07:27.954992</dc:date>
    <dc:format>image/svg+xml</dc:format>
    <dc:creator>
     <cc:Agent>
      <dc:title>Matplotlib v3.10.3, https://matplotlib.org/</dc:title>
     </cc:Agent>
    </dc:creator>
   </cc:Work>
  </rdf:RDF>
 </metadata>
 <defs>
  <style type="text/css">*{stroke-linejoin: round; stroke-linecap: butt}</style>
 </defs>
 <g id="figure_1">
  <g id="patch_1">
   <path d="M 0 432 
L 432 432 
L 432 0 
L 0 0 
L 0 432 
z
" style="fill: none"/>
  </g>
  <g id="axes_1">
   <g id="patch_2">
    <path d="M 86.4 345.6 
L 345.6 345.6 
L 345.6 86.4 
L 86.4 86.4 
L 86.4 345.6 
z
" style="fill: none"/>
   </g>
   <g id="matplotlib.axis_1">
    <g id="xtick_1">
     <g id="line2d_1">
      <defs>
       <path id="m1eb0bdf85a" d="M 0 0 
L 0 6 
" style="stroke: #262626; stroke-width: 1.25"/>
      </defs>
      <g>
       <use xlink:href="#m1eb0bdf85a" x="86.4" y="345.6" style="fill: #262626; stroke: #262626; stroke-width: 1.25"/>
      </g>
     </g>
     <g id="text_1">
      <text style="font-size: 16px; font-family: 'Arial', sans-serif; text-anchor: middle; fill: #262626" x="86.4" y="366.5525" transform="rotate(-0 86.4 366.5525)">Jan</text>
     </g>
    </g>
    <g id="xtick_2">
     <g id="line2d_2">
      <g>
       <use xlink:href="#m1eb0bdf85a" x="97.407123" y="345.6" style="fill: #262626; stroke: #262626; stroke-width: 1.25"/>
      </g>
     </g>
    </g>
    <g id="xtick_3">
     <g id="line2d_3">
      <g>
       <use xlink:href="#m1eb0bdf85a" x="107.349041" y="345.6" style="fill: #262626; stroke: #262626; stroke-width: 1.25"/>
      </g>
     </g>
    </g>
    <g id="xtick_4">
     <g id="line2d_4">
      <g>
       <use xlink:href="#m1eb0bdf85a" x="118.356164" y="345.6" style="fill: #262626; stroke: #262626; stroke-width: 1.25"/>
      </g>
     </g>
     <g id="text_2">
      <text style="font-size: 16px; font-family: 'Arial', sans-serif; text-anchor: middle; fill: #262626" x="118.356164" y="366.5525" transform="rotate(-0 118.356164 366.5525)">Apr</text>
     </g>
    </g>
    <g id="xtick_5">
     <g id="line2d_5">
      <g>
       <use xlink:href="#m1eb0bdf85a" x="129.008219" y="345.6" style="fill: #262626; stroke: #262626; stroke-width: 1.25"/>
      </g>
     </g>
    </g>
    <g id="xtick_6">
     <g id="line2d_6">
      <g>
       <use xlink:href="#m1eb0bdf85a" x="140.015342" y="345.6" style="fill: #262626; stroke: #262626; stroke-width: 1.25"/>
      </g>
     </g>
    </g>
    <g id="xtick_7">
     <g id="line2d_7">
      <g>
       <use xlink:href="#m1eb0bdf85a" x="150.667397" y="345.6" style="fill: #262626; stroke: #262626; stroke-width: 1.25"/>
      </g>
     </g>
     <g id="text_3">
      <text style="font-size: 16px; font-family: 'Arial', sans-serif; text-anchor: middle; fill: #262626" x="150.667397" y="366.5525" transform="rotate(-0 150.667397 366.5525)">Jul</text>
     </g>
    </g>
    <g id="xtick_8">
     <g id="line2d_8">
      <g>
       <use xlink:href="#m1eb0bdf85a" x="161.674521" y="345.6" style="fill: #262626; stroke: #262626; stroke-width: 1.25"/>
      </g>
     </g>
    </g>
    <g id="xtick_9">
     <g id="line2d_9">
      <g>
       <use xlink:href="#m1eb0bdf85a" x="172.681644" y="345.6" style="fill: #262626; stroke: #262626; stroke-width: 1.25"/>
      </g>
     </g>
    </g>
    <g id="xtick_10">
     <g id="line2d_10">
      <g>
       <use xlink:href="#m1eb0bdf85a" x="183.333699" y="345.6" style="fill: #262626; stroke: #262626; stroke-width: 1.25"/>
      </g>
     </g>
     <g id="text_4">
      <text style="font-size: 16px; font-family: 'Arial', sans-serif; text-anchor: middle; fill: #262626" x="183.333699" y="366.5525" transform="rotate(-0 183.333699 366.5525)">Oct</text>
     </g>
    </g>
    <g id="xtick_11">
     <g id="line2d_11">
      <g>
       <use xlink:href="#m1eb0bdf85a" x="194.340822" y="345.6" style="fill: #262626; stroke: #262626; stroke-width: 1.25"/>
      </g>
     </g>
    </g>
    <g id="xtick_12">
     <g id="line2d_12">
      <g>
       <use xlink:href="#m1eb0bdf85a" x="204.992877" y="345.6" style="fill: #262626; stroke: #262626; stroke-width: 1.25"/>
      </g>
     </g>
    </g>
    <g id="xtick_13">
     <g id="line2d_13">
      <g>
       <use xlink:href="#m1eb0bdf85a" x="216" y="345.6" style="fill: #262626; stroke: #262626; stroke-width: 1.25"/>
      </g>
     </g>
     <g id="text_5">
      <text style="font-size: 16px; font-family: 'Arial', sans-serif; text-anchor: middle; fill: #262626" x="216" y="366.5525" transform="rotate(-0 216 366.5525)">Jan</text>
     </g>
    </g>
    <g id="xtick_14">
     <g id="line2d_14">
      <g>
       <use xlink:href="#m1eb0bdf85a" x="227.007123" y="345.6" style="fill: #262626; stroke: #262626; stroke-width: 1.25"/>
      </g>
     </g>
    </g>
    <g id="xtick_15">
     <g id="line2d_15">
      <g>
       <use xlink:href="#m1eb0bdf85a" x="236.949041" y="345.6" style="fill: #262626; stroke: #262626; stroke-width: 1.25"/>
      </g>
     </g>
    </g>
    <g id="xtick_16">
     <g id="line2d_16">
      <g>
       <use xlink:href="#m1eb0bdf85a" x="247.956164" y="345.6" style="fill: #262626; stroke: #262626; stroke-width: 1.25"/>
      </g>
     </g>
     <g id="text_6">
      <text style="font-size: 16px; font-family: 'Arial', sans-serif; text-anchor: middle; fill: #262626" x="247.956164" y="366.5525" transform="rotate(-0 247.956164 366.5525)">Apr</text>
     </g>
    </g>
    <g id="xtick_17">
     <g id="line2d_17">
      <g>
       <use xlink:href="#m1eb0bdf85a" x="258.608219" y="345.6" style="fill: #262626; stroke: #262626; stroke-width: 1.25"/>
      </g>
     </g>
    </g>
    <g id="xtick_18">
     <g id="line2d_18">
      <g>
       <use xlink:href="#m1eb0bdf85a" x="269.615342" y="345.6" style="fill: #262626; stroke: #262626; stroke-width: 1.25"/>
      </g>
     </g>
    </g>
    <g id="xtick_19">
     <g id="line2d_19">
      <g>
       <use xlink:href="#m1eb0bdf85a" x="280.267397" y="345.6" style="fill: #262626; stroke: #262626; stroke-width: 1.25"/>
      </g>
     </g>
     <g id="text_7">
      <text style="font-size: 16px; font-family: 'Arial', sans-serif; text-anchor: middle; fill: #262626" x="280.267397" y="366.5525" transform="rotate(-0 280.267397 366.5525)">Jul</text>
     </g>
    </g>
    <g id="xtick_20">
     <g id="line2d_20">
      <g>
       <use xlink:href="#m1eb0bdf85a" x="291.274521" y="345.6" style="fill: #262626; stroke: #262626; stroke-width: 1.25"/>
      </g>
     </g>
    </g>
    <g id="xtick_21">
     <g id="line2d_21">
      <g>
       <use xlink:href="#m1eb0bdf85a" x="302.281644" y="345.6" style="fill: #262626; stroke: #262626; stroke-width: 1.25"/>
      </g>
     </g>
    </g>
    <g id="xtick_22">
     <g id="line2d_22">
      <g>
       <use xlink:href="#m1eb0bdf85a" x="312.933699" y="345.6" style="fill: #262626; stroke: #262626; stroke-width: 1.25"/>
      </g>
     </g>
     <g id="text_8">
      <text style="font-size: 16px; font-family: 'Arial', sans-serif; text-anchor: middle; fill: #262626" x="312.933699" y="366.5525" transform="rotate(-0 312.933699 366.5525)">Oct</text>
     </g>
    </g>
    <g id="xtick_23">
     <g id="line2d_23">
      <g>
       <use xlink:href="#m1eb0bdf85a" x="323.940822" y="345.6" style="fill: #262626; stroke: #262626; stroke-width: 1.25"/>
      </g>
     </g>
    </g>
    <g id="xtick_24">
     <g id="line2d_24">
      <g>
       <use xlink:href="#m1eb0bdf85a" x="334.592877" y="345.6" style="fill: #262626; stroke: #262626; stroke-width: 1.25"/>
      </g>
     </g>
    </g>
    <g id="xtick_25">
     <g id="line2d_25">
      <g>
       <use xlink:href="#m1eb0bdf85a" x="345.6" y="345.6" style="fill: #262626; stroke: #262626; stroke-width: 1.25"/>
      </g>
     </g>
     <g id="text_9">
      <text style="font-size: 16px; font-family: 'Arial', sans-serif; text-anchor: middle; fill: #262626" x="345.6" y="366.5525" transform="rotate(-0 345.6 366.5525)">Jan</text>
     </g>
    </g>
    <g id="text_10">
     <text style="font-size: 16px; font-family: 'Arial', sans-serif; text-anchor: middle; fill: #262626" x="216" y="385.185" transform="rotate(-0 216 385.185)"> </text>
    </g>
   </g>
   <g id="matplotlib.axis_2">
    <g id="ytick_1">
     <g id="line2d_26">
      <defs>
       <path id="mee8b73cc34" d="M 0 0 
L -6 0 
" style="stroke: #262626; stroke-width: 1.25"/>
      </defs>
      <g>
       <use xlink:href="#mee8b73cc34" x="86.4" y="345.6" style="fill: #262626; stroke: #262626; stroke-width: 1.25"/>
      </g>
     </g>
     <g id="text_11">
      <text style="font-size: 16px; font-family: 'Arial', sans-serif; text-anchor: end; fill: #262626" x="76.9" y="351.32625" transform="rotate(-0 76.9 351.32625)">0.0</text>
     </g>
    </g>
    <g id="ytick_2">
     <g id="line2d_27">
      <g>
       <use xlink:href="#mee8b73cc34" x="86.4" y="302.686093" style="fill: #262626; stroke: #262626; stroke-width: 1.25"/>
      </g>
     </g>
     <g id="text_12">
      <text style="font-size: 16px; font-family: 'Arial', sans-serif; text-anchor: end; fill: #262626" x="76.9" y="308.412343" transform="rotate(-0 76.9 308.412343)">0.5</text>
     </g>
    </g>
    <g id="ytick_3">
     <g id="line2d_28">
      <g>
       <use xlink:href="#mee8b73cc34" x="86.4" y="259.772185" style="fill: #262626; stroke: #262626; stroke-width: 1.25"/>
      </g>
     </g>
     <g id="text_13">
      <text style="font-size: 16px; font-family: 'Arial', sans-serif; text-anchor: end; fill: #262626" x="76.9" y="265.498435" transform="rotate(-0 76.9 265.498435)">1.0</text>
     </g>
    </g>
    <g id="ytick_4">
     <g id="line2d_29">
      <g>
       <use xlink:href="#mee8b73cc34" x="86.4" y="216.858278" style="fill: #262626; stroke: #262626; stroke-width: 1.25"/>
      </g>
     </g>
     <g id="text_14">
      <text style="font-size: 16px; font-family: 'Arial', sans-serif; text-anchor: end; fill: #262626" x="76.9" y="222.584528" transform="rotate(-0 76.9 222.584528)">1.5</text>
     </g>
    </g>
    <g id="ytick_5">
     <g id="line2d_30">
      <g>
       <use xlink:href="#mee8b73cc34" x="86.4" y="173.944371" style="fill: #262626; stroke: #262626; stroke-width: 1.25"/>
      </g>
     </g>
     <g id="text_15">
      <text style="font-size: 16px; font-family: 'Arial', sans-serif; text-anchor: end; fill: #262626" x="76.9" y="179.670621" transform="rotate(-0 76.9 179.670621)">2.0</text>
     </g>
    </g>
    <g id="ytick_6">
     <g id="line2d_31">
      <g>
       <use xlink:href="#mee8b73cc34" x="86.4" y="131.030464" style="fill: #262626; stroke: #262626; stroke-width: 1.25"/>
      </g>
     </g>
     <g id="text_16">
      <text style="font-size: 16px; font-family: 'Arial', sans-serif; text-anchor: end; fill: #262626" x="76.9" y="136.756714" transform="rotate(-0 76.9 136.756714)">2.5</text>
     </g>
    </g>
    <g id="ytick_7">
     <g id="line2d_32">
      <g>
       <use xlink:href="#mee8b73cc34" x="86.4" y="88.116556" style="fill: #262626; stroke: #262626; stroke-width: 1.25"/>
      </g>
     </g>
     <g id="text_17">
      <text style="font-size: 16px; font-family: 'Arial', sans-serif; text-anchor: end; fill: #262626" x="76.9" y="93.842806" transform="rotate(-0 76.9 93.842806)">3.0</text>
     </g>
    </g>
    <g id="text_18">
     <text style="font-size: 16px; font-family: 'Arial', sans-serif; text-anchor: middle; fill: #262626" x="47.48" y="216" transform="rotate(-90 47.48 216)">Instantaneous reproduction number</text>
    </g>
   </g>
   <g id="FillBetweenPolyCollection_1">
    <defs>
     <path id="m0690d4a144" d="M 210.318904 -86.4 
L 183.333699 -86.4 
L 183.333699 -345.6 
L 210.318904 -345.6 
L 210.318904 -345.6 
L 210.318904 -86.4 
z
"/>
    </defs>
    <g clip-path="url(#p822ddcdf1b)">
     <use xlink:href="#m0690d4a144" x="0" y="432" style="fill: #808080; fill-opacity: 0.5"/>
    </g>
   </g>
   <g id="FillBetweenPolyCollection_2">
    <defs>
     <path id="mc3b3ec0268" d="M 339.918904 -86.4 
L 312.933699 -86.4 
L 312.933699 -345.6 
L 339.918904 -345.6 
L 339.918904 -345.6 
L 339.918904 -86.4 
z
"/>
    </defs>
    <g clip-path="url(#p822ddcdf1b)">
     <use xlink:href="#mc3b3ec0268" x="0" y="432" style="fill: #808080; fill-opacity: 0.5"/>
    </g>
   </g>
   <g id="line2d_33">
    <path d="M 86.4 88.116556 
L 87.820274 88.218249 
L 89.240548 88.522846 
L 90.660822 89.028903 
L 92.081096 89.734021 
L 93.856438 90.89017 
L 95.631781 92.343504 
L 97.407123 94.083262 
L 99.537534 96.530774 
L 101.667945 99.345995 
L 104.153425 103.054931 
L 106.638904 107.169583 
L 109.479452 112.292053 
L 113.030137 119.182064 
L 118.001096 129.368739 
L 125.457534 144.642381 
L 129.008219 151.41247 
L 131.848767 156.403802 
L 134.334247 160.380118 
L 136.819726 163.930789 
L 138.950137 166.596226 
L 141.080548 168.882591 
L 142.85589 170.480616 
L 144.631233 171.786567 
L 146.406575 172.790774 
L 147.826849 173.371811 
L 149.247123 173.752175 
L 150.667397 173.930065 
L 152.087671 173.904638 
L 153.507945 173.676012 
L 154.928219 173.245273 
L 156.348493 172.614461 
L 158.123836 171.549239 
L 159.899178 170.184029 
L 161.674521 168.528941 
L 163.449863 166.596226 
L 165.580274 163.930789 
L 167.710685 160.914688 
L 170.196164 156.995784 
L 173.036712 152.059508 
L 176.232329 146.035202 
L 180.493151 137.469927 
L 191.855342 114.309899 
L 195.050959 108.4115 
L 197.891507 103.61923 
L 200.376986 99.848896 
L 202.507397 96.975205 
L 204.637808 94.464488 
L 206.413151 92.668924 
L 208.188493 91.157375 
L 209.963836 89.941033 
L 211.739178 89.028903 
L 213.159452 88.522846 
L 214.579726 88.218249 
L 216 88.116556 
L 217.420274 88.218249 
L 218.840548 88.522846 
L 220.260822 89.028903 
L 221.681096 89.734021 
L 223.456438 90.89017 
L 225.231781 92.343504 
L 227.007123 94.083262 
L 229.137534 96.530774 
L 231.267945 99.345995 
L 233.753425 103.054931 
L 236.238904 107.169583 
L 239.079452 112.292053 
L 242.630137 119.182064 
L 247.601096 129.368739 
L 255.057534 144.642381 
L 258.608219 151.41247 
L 261.448767 156.403802 
L 263.934247 160.380118 
L 266.419726 163.930789 
L 268.550137 166.596226 
L 270.680548 168.882591 
L 272.45589 170.480616 
L 274.231233 171.786567 
L 276.006575 172.790774 
L 277.426849 173.371811 
L 278.847123 173.752175 
L 280.267397 173.930065 
L 281.687671 173.904638 
L 283.107945 173.676012 
L 284.528219 173.245273 
L 285.948493 172.614461 
L 287.723836 171.549239 
L 289.499178 170.184029 
L 291.274521 168.528941 
L 293.049863 166.596226 
L 295.180274 163.930789 
L 297.310685 160.914688 
L 299.796164 156.995784 
L 302.636712 152.059508 
L 305.832329 146.035202 
L 310.093151 137.469927 
L 321.455342 114.309899 
L 324.650959 108.4115 
L 327.491507 103.61923 
L 329.976986 99.848896 
L 332.107397 96.975205 
L 334.237808 94.464488 
L 336.013151 92.668924 
L 337.788493 91.157375 
L 339.563836 89.941033 
L 341.339178 89.028903 
L 342.759452 88.522846 
L 344.179726 88.218249 
L 345.244932 88.122914 
L 345.244932 88.122914 
" clip-path="url(#p822ddcdf1b)" style="fill: none; stroke-dasharray: 7.4,3.2; stroke-dashoffset: 0; stroke: #0173b2; stroke-width: 2"/>
   </g>
   <g id="line2d_34">
    <path d="M 86.4 196.03169 
L 89.240548 193.410809 
L 91.726027 191.407475 
L 94.211507 189.696887 
L 96.341918 188.477125 
L 98.472329 187.494167 
L 100.60274 186.75382 
L 102.733151 186.258603 
L 104.863562 186.007585 
L 106.993973 185.995796 
L 109.124384 186.215012 
L 111.254795 186.651864 
L 113.740274 187.414363 
L 116.225753 188.417306 
L 119.066301 189.806079 
L 122.616986 191.803382 
L 133.269041 197.99683 
L 136.109589 199.281501 
L 138.595068 200.145365 
L 140.725479 200.649944 
L 142.85589 200.904387 
L 144.631233 200.905234 
L 146.406575 200.699004 
L 148.181918 200.273488 
L 149.95726 199.618345 
L 151.732603 198.72547 
L 153.507945 197.588917 
L 155.283288 196.205062 
L 157.05863 194.572595 
L 159.189041 192.287035 
L 161.319452 189.65138 
L 163.449863 186.67672 
L 165.935342 182.799189 
L 168.420822 178.51484 
L 171.26137 173.172899 
L 174.456986 166.68222 
L 178.36274 158.2266 
L 184.753973 143.767468 
L 185.109041 143.956885 
L 186.174247 145.129043 
L 188.304658 147.91572 
L 190.435068 151.035099 
L 192.920548 155.105054 
L 195.406027 159.650479 
L 197.891507 164.670719 
L 200.732055 170.971553 
L 203.572603 177.8359 
L 206.768219 186.161756 
L 210.318904 196.042172 
L 211.739178 200.145544 
L 212.094247 200.007909 
L 213.159452 198.961552 
L 216.355068 195.685994 
L 219.195616 193.10757 
L 221.681096 191.144645 
L 224.166575 189.477452 
L 226.296986 188.296722 
L 228.427397 187.353746 
L 230.557808 186.65431 
L 232.688219 186.199886 
L 234.81863 185.989108 
L 236.949041 186.016654 
L 239.079452 186.273053 
L 241.209863 186.744807 
L 243.695342 187.543898 
L 246.180822 188.577928 
L 249.02137 189.994744 
L 252.927123 192.225601 
L 262.158904 197.635347 
L 264.999452 198.987154 
L 267.484932 199.926804 
L 269.615342 200.508113 
L 271.745753 200.849066 
L 273.521096 200.928959 
L 275.296438 200.807187 
L 277.071781 200.470659 
L 278.847123 199.908501 
L 280.622466 199.111594 
L 282.397808 198.073034 
L 284.173151 196.788441 
L 285.948493 195.255411 
L 288.078904 193.088171 
L 290.209315 190.568245 
L 292.339726 187.705055 
L 294.825205 183.950145 
L 297.310685 179.778206 
L 300.151233 174.549415 
L 303.346849 168.163122 
L 307.252603 159.797114 
L 312.933699 147.001041 
L 314.353973 143.767468 
L 314.709041 143.956885 
L 315.774247 145.129043 
L 317.904658 147.91572 
L 320.035068 151.035099 
L 322.520548 155.105054 
L 325.006027 159.650479 
L 327.491507 164.670719 
L 330.332055 170.971553 
L 333.172603 177.8359 
L 336.368219 186.161756 
L 339.918904 196.042172 
L 341.339178 200.145544 
L 341.694247 200.007909 
L 342.759452 198.961552 
L 345.244932 196.382382 
L 345.244932 196.382382 
" clip-path="url(#p822ddcdf1b)" style="fill: none; stroke: #de8f05; stroke-width: 2; stroke-linecap: round"/>
   </g>
   <g id="patch_3">
    <path d="M 86.4 345.6 
L 86.4 86.4 
" style="fill: none; stroke: #262626; stroke-width: 1.25; stroke-linejoin: miter; stroke-linecap: square"/>
   </g>
   <g id="patch_4">
    <path d="M 86.4 345.6 
L 345.6 345.6 
" style="fill: none; stroke: #262626; stroke-width: 1.25; stroke-linejoin: miter; stroke-linecap: square"/>
   </g>
   <g id="legend_1">
    <g id="patch_5">
     <path d="M 169.613438 338.6 
L 335.8 338.6 
Q 338.6 338.6 338.6 335.8 
L 338.6 297.593125 
Q 338.6 294.793125 335.8 294.793125 
L 169.613438 294.793125 
Q 166.813438 294.793125 166.813438 297.593125 
L 166.813438 335.8 
Q 166.813438 338.6 169.613438 338.6 
z
" style="fill: #ffffff; opacity: 0.8; stroke: #cccccc; stroke-linejoin: miter"/>
    </g>
    <g id="line2d_35">
     <path d="M 172.413438 305.514063 
L 186.413438 305.514063 
L 200.413438 305.514063 
" style="fill: none; stroke-dasharray: 7.4,3.2; stroke-dashoffset: 0; stroke: #0173b2; stroke-width: 2"/>
    </g>
    <g id="text_19">
     <text style="font-size: 14px; font-family: 'Arial', sans-serif; text-anchor: start; fill: #262626" x="211.613438" y="310.414062" transform="rotate(-0 211.613438 310.414062)">Without vaccination</text>
    </g>
    <g id="line2d_36">
     <path d="M 172.413438 325.3175 
L 186.413438 325.3175 
L 200.413438 325.3175 
" style="fill: none; stroke: #de8f05; stroke-width: 2; stroke-linecap: round"/>
    </g>
    <g id="text_20">
     <text style="font-size: 14px; font-family: 'Arial', sans-serif; text-anchor: start; fill: #262626" x="211.613438" y="330.2175" transform="rotate(-0 211.613438 330.2175)">With vaccination</text>
    </g>
   </g>
  </g>
 </g>
 <defs>
  <clipPath id="p822ddcdf1b">
   <rect x="86.4" y="86.4" width="259.2" height="259.2"/>
  </clipPath>
 </defs>
</svg>
